%TF.GenerationSoftware,KiCad,Pcbnew,9.0.4*%
%TF.CreationDate,2026-09-02T17:06:16-04:00*%
%TF.ProjectId,magnetometer_v1,6d61676e-6574-46f6-9d65-7465725f7631,rev?*%
%TF.SameCoordinates,Original*%
%TF.FileFunction,Copper,L3,Inr*%
%TF.FilePolarity,Positive*%
%FSLAX46Y46*%
G04 Gerber Fmt 4.6, Leading zero omitted, Abs format (unit mm)*
G04 Created by KiCad (PCBNEW 9.0.4) date 2026-09-02 17:06:16*
%MOMM*%
%LPD*%
G01*
G04 APERTURE LIST*
%TA.AperFunction,ComponentPad*%
%ADD10C,3.800000*%
%TD*%
%TA.AperFunction,ComponentPad*%
%ADD11R,1.700000X1.700000*%
%TD*%
%TA.AperFunction,ComponentPad*%
%ADD12C,1.700000*%
%TD*%
%TA.AperFunction,ViaPad*%
%ADD13C,0.450000*%
%TD*%
%TA.AperFunction,Conductor*%
%ADD14C,0.200000*%
%TD*%
G04 APERTURE END LIST*
D10*
%TO.N,GND*%
%TO.C,H4*%
X184000000Y-74000000D03*
%TD*%
%TO.N,GND*%
%TO.C,H1*%
X162000000Y-57000000D03*
%TD*%
%TO.N,GND*%
%TO.C,H3*%
X162000000Y-74000000D03*
%TD*%
D11*
%TO.N,Net-(D1-A)*%
%TO.C,J1*%
X164150000Y-69320000D03*
D12*
%TO.N,GND*%
X161610000Y-69320000D03*
%TO.N,CAN-*%
X164150000Y-66780000D03*
X161610000Y-66780000D03*
%TO.N,CAN+*%
X164150000Y-64240000D03*
X161610000Y-64240000D03*
%TO.N,GND*%
X164150000Y-61700000D03*
%TO.N,5v*%
X161610000Y-61700000D03*
%TD*%
D10*
%TO.N,GND*%
%TO.C,H2*%
X184000000Y-57000000D03*
%TD*%
D11*
%TO.N,VIN_JUMP*%
%TO.C,J3*%
X184300000Y-69425000D03*
D12*
%TO.N,VIN_SEL*%
X184300000Y-66885000D03*
%TD*%
D13*
%TO.N,GND*%
X175525000Y-58600000D03*
X178650000Y-68494700D03*
X172166416Y-64616416D03*
X171725000Y-60375000D03*
X173950000Y-72175000D03*
X183303224Y-64565887D03*
X182725000Y-59075000D03*
X185250000Y-71500000D03*
X166275000Y-59025000D03*
X185275000Y-60500000D03*
X177960000Y-60470866D03*
X171104237Y-59095763D03*
X176400000Y-58600000D03*
X174375000Y-71675000D03*
X182700000Y-70450000D03*
X179150000Y-54950000D03*
X170000000Y-59750000D03*
X170900000Y-68000000D03*
X177300000Y-58550000D03*
X177193500Y-66269862D03*
X172200000Y-65797597D03*
X171249214Y-57905521D03*
X185125000Y-59625000D03*
X181463116Y-65957177D03*
X172100000Y-72800000D03*
X181461499Y-62500000D03*
X170350000Y-68375000D03*
X180596729Y-74905180D03*
X177750000Y-57100000D03*
X170741229Y-64026017D03*
X185300000Y-63150000D03*
%TO.N,VIN_SEL*%
X180950000Y-55600000D03*
X178525000Y-55950000D03*
%TO.N,3v3*%
X179400377Y-68174356D03*
X179675630Y-73795000D03*
X178263217Y-63580875D03*
X180147414Y-60290186D03*
X172350001Y-63584302D03*
X180145999Y-59511102D03*
X168039496Y-63108901D03*
X179750000Y-63650000D03*
X179625000Y-59875000D03*
X180503996Y-72699456D03*
%TO.N,Net-(C15-Pad1)*%
X166500000Y-58100000D03*
X167383500Y-62375000D03*
%TO.N,BOOT0*%
X177194500Y-67600000D03*
%TO.N,5v*%
X173093454Y-69738964D03*
X165500000Y-73500000D03*
%TO.N,MISO*%
X177125000Y-71957772D03*
%TO.N,NRST*%
X181750000Y-68450000D03*
%TO.N,!ALERT*%
X177850000Y-68275000D03*
%TO.N,USB_D-*%
X175728712Y-68728788D03*
%TO.N,!CS*%
X174800000Y-66500000D03*
%TO.N,USB_D+*%
X175728712Y-68113788D03*
%TO.N,SCLK*%
X177134526Y-70923755D03*
%TO.N,MOSI*%
X176375000Y-71175000D03*
%TO.N,VBUS*%
X176475000Y-61275000D03*
X169600000Y-64150000D03*
X172700000Y-61175000D03*
%TO.N,VIN_JUMP*%
X171500000Y-75000000D03*
%TD*%
D14*
%TO.N,3v3*%
X179675630Y-73775630D02*
X179650000Y-73750000D01*
X179675630Y-73795000D02*
X179675630Y-73775630D01*
%TD*%
%TA.AperFunction,Conductor*%
%TO.N,VIN_SEL*%
G36*
X186256922Y-54251280D02*
G01*
X186347266Y-54261459D01*
X186374331Y-54267636D01*
X186453540Y-54295352D01*
X186478553Y-54307398D01*
X186549606Y-54352043D01*
X186571313Y-54369355D01*
X186630644Y-54428686D01*
X186647957Y-54450395D01*
X186692600Y-54521444D01*
X186704648Y-54546462D01*
X186732362Y-54625666D01*
X186738540Y-54652735D01*
X186748720Y-54743076D01*
X186749500Y-54756961D01*
X186749500Y-67951000D01*
X186729815Y-68018039D01*
X186677011Y-68063794D01*
X186625500Y-68075000D01*
X185187809Y-68075000D01*
X185120770Y-68055315D01*
X185100128Y-68038681D01*
X184429408Y-67367962D01*
X184492993Y-67350925D01*
X184607007Y-67285099D01*
X184700099Y-67192007D01*
X184765925Y-67077993D01*
X184782962Y-67014408D01*
X185415270Y-67646717D01*
X185415270Y-67646716D01*
X185454622Y-67592554D01*
X185551095Y-67403217D01*
X185616757Y-67201130D01*
X185616757Y-67201127D01*
X185650000Y-66991246D01*
X185650000Y-66778753D01*
X185616757Y-66568872D01*
X185616757Y-66568869D01*
X185551095Y-66366782D01*
X185454624Y-66177449D01*
X185415270Y-66123282D01*
X185415269Y-66123282D01*
X184782962Y-66755590D01*
X184765925Y-66692007D01*
X184700099Y-66577993D01*
X184607007Y-66484901D01*
X184492993Y-66419075D01*
X184429409Y-66402037D01*
X185061716Y-65769728D01*
X185007550Y-65730375D01*
X184818217Y-65633904D01*
X184616129Y-65568242D01*
X184406246Y-65535000D01*
X184193754Y-65535000D01*
X183983872Y-65568242D01*
X183983869Y-65568242D01*
X183781782Y-65633904D01*
X183592439Y-65730380D01*
X183538282Y-65769727D01*
X183538282Y-65769728D01*
X184170591Y-66402037D01*
X184107007Y-66419075D01*
X183992993Y-66484901D01*
X183899901Y-66577993D01*
X183834075Y-66692007D01*
X183817037Y-66755591D01*
X183184728Y-66123282D01*
X183184727Y-66123282D01*
X183145380Y-66177439D01*
X183048904Y-66366782D01*
X182983242Y-66568869D01*
X182983242Y-66568872D01*
X182950000Y-66778753D01*
X182950000Y-66991246D01*
X182983242Y-67201127D01*
X182983242Y-67201130D01*
X183048904Y-67403217D01*
X183145375Y-67592550D01*
X183184728Y-67646716D01*
X183817037Y-67014408D01*
X183834075Y-67077993D01*
X183899901Y-67192007D01*
X183992993Y-67285099D01*
X184107007Y-67350925D01*
X184170591Y-67367962D01*
X183499871Y-68038681D01*
X183438548Y-68072166D01*
X183412190Y-68075000D01*
X181984707Y-68075000D01*
X181922705Y-68058386D01*
X181914238Y-68053497D01*
X181858943Y-68038681D01*
X181806018Y-68024500D01*
X181693982Y-68024500D01*
X181585761Y-68053497D01*
X181577295Y-68058386D01*
X181515293Y-68075000D01*
X181024000Y-68075000D01*
X180956961Y-68055315D01*
X180911206Y-68002511D01*
X180900000Y-67951000D01*
X180900000Y-66293593D01*
X180919685Y-66226554D01*
X180972489Y-66180799D01*
X181041647Y-66170855D01*
X181105203Y-66199880D01*
X181122378Y-66218109D01*
X181122628Y-66218435D01*
X181122631Y-66218440D01*
X181201853Y-66297662D01*
X181298879Y-66353680D01*
X181407098Y-66382677D01*
X181407100Y-66382677D01*
X181519132Y-66382677D01*
X181519134Y-66382677D01*
X181627353Y-66353680D01*
X181724379Y-66297662D01*
X181803601Y-66218440D01*
X181859619Y-66121414D01*
X181888616Y-66013195D01*
X181888616Y-65901159D01*
X181859619Y-65792940D01*
X181803601Y-65695914D01*
X181724379Y-65616692D01*
X181659695Y-65579346D01*
X181627355Y-65560675D01*
X181627354Y-65560674D01*
X181627353Y-65560674D01*
X181519134Y-65531677D01*
X181407098Y-65531677D01*
X181298879Y-65560674D01*
X181298876Y-65560675D01*
X181201856Y-65616690D01*
X181201850Y-65616694D01*
X181122629Y-65695915D01*
X181122372Y-65696251D01*
X181122082Y-65696462D01*
X181116884Y-65701661D01*
X181116072Y-65700849D01*
X181065942Y-65737451D01*
X180996196Y-65741603D01*
X180935277Y-65707387D01*
X180902528Y-65645668D01*
X180900000Y-65620760D01*
X180900000Y-64509869D01*
X182877724Y-64509869D01*
X182877724Y-64621905D01*
X182906721Y-64730124D01*
X182962739Y-64827150D01*
X183041961Y-64906372D01*
X183138987Y-64962390D01*
X183247206Y-64991387D01*
X183247208Y-64991387D01*
X183359240Y-64991387D01*
X183359242Y-64991387D01*
X183467461Y-64962390D01*
X183564487Y-64906372D01*
X183643709Y-64827150D01*
X183699727Y-64730124D01*
X183728724Y-64621905D01*
X183728724Y-64509869D01*
X183699727Y-64401650D01*
X183643709Y-64304624D01*
X183564487Y-64225402D01*
X183467461Y-64169384D01*
X183359242Y-64140387D01*
X183247206Y-64140387D01*
X183138987Y-64169384D01*
X183138984Y-64169385D01*
X183041964Y-64225400D01*
X183041958Y-64225404D01*
X182962741Y-64304621D01*
X182962737Y-64304627D01*
X182906722Y-64401647D01*
X182906721Y-64401650D01*
X182877724Y-64509869D01*
X180900000Y-64509869D01*
X180900000Y-63093982D01*
X184874500Y-63093982D01*
X184874500Y-63206018D01*
X184903497Y-63314237D01*
X184959515Y-63411263D01*
X185038737Y-63490485D01*
X185135763Y-63546503D01*
X185243982Y-63575500D01*
X185243984Y-63575500D01*
X185356016Y-63575500D01*
X185356018Y-63575500D01*
X185464237Y-63546503D01*
X185561263Y-63490485D01*
X185640485Y-63411263D01*
X185696503Y-63314237D01*
X185725500Y-63206018D01*
X185725500Y-63093982D01*
X185696503Y-62985763D01*
X185640485Y-62888737D01*
X185561263Y-62809515D01*
X185464237Y-62753497D01*
X185356018Y-62724500D01*
X185243982Y-62724500D01*
X185135763Y-62753497D01*
X185135760Y-62753498D01*
X185038740Y-62809513D01*
X185038734Y-62809517D01*
X184959517Y-62888734D01*
X184959513Y-62888740D01*
X184903498Y-62985760D01*
X184903497Y-62985763D01*
X184874500Y-63093982D01*
X180900000Y-63093982D01*
X180900000Y-62838523D01*
X180919685Y-62771484D01*
X180972489Y-62725729D01*
X181041647Y-62715785D01*
X181105203Y-62744810D01*
X181115656Y-62755905D01*
X181121014Y-62761263D01*
X181200236Y-62840485D01*
X181297262Y-62896503D01*
X181405481Y-62925500D01*
X181405483Y-62925500D01*
X181517515Y-62925500D01*
X181517517Y-62925500D01*
X181625736Y-62896503D01*
X181722762Y-62840485D01*
X181801984Y-62761263D01*
X181858002Y-62664237D01*
X181886999Y-62556018D01*
X181886999Y-62443982D01*
X181858002Y-62335763D01*
X181801984Y-62238737D01*
X181722762Y-62159515D01*
X181625736Y-62103497D01*
X181517517Y-62074500D01*
X181405481Y-62074500D01*
X181297262Y-62103497D01*
X181297259Y-62103498D01*
X181200239Y-62159513D01*
X181200233Y-62159517D01*
X181115267Y-62244484D01*
X181113920Y-62243137D01*
X181065944Y-62278167D01*
X180996197Y-62282319D01*
X180935278Y-62248104D01*
X180902528Y-62186386D01*
X180900000Y-62161476D01*
X180900000Y-59568982D01*
X184699500Y-59568982D01*
X184699500Y-59681018D01*
X184728497Y-59789237D01*
X184784515Y-59886263D01*
X184863737Y-59965485D01*
X184941895Y-60010610D01*
X184990109Y-60061174D01*
X185003333Y-60129781D01*
X184977365Y-60194646D01*
X184967576Y-60205675D01*
X184934518Y-60238733D01*
X184934513Y-60238740D01*
X184878498Y-60335760D01*
X184878497Y-60335763D01*
X184849500Y-60443982D01*
X184849500Y-60556018D01*
X184878497Y-60664237D01*
X184934515Y-60761263D01*
X185013737Y-60840485D01*
X185110763Y-60896503D01*
X185218982Y-60925500D01*
X185218984Y-60925500D01*
X185331016Y-60925500D01*
X185331018Y-60925500D01*
X185439237Y-60896503D01*
X185536263Y-60840485D01*
X185615485Y-60761263D01*
X185671503Y-60664237D01*
X185700500Y-60556018D01*
X185700500Y-60443982D01*
X185671503Y-60335763D01*
X185615485Y-60238737D01*
X185536263Y-60159515D01*
X185458103Y-60114389D01*
X185409890Y-60063825D01*
X185396666Y-59995218D01*
X185422634Y-59930353D01*
X185432417Y-59919330D01*
X185465485Y-59886263D01*
X185521503Y-59789237D01*
X185550500Y-59681018D01*
X185550500Y-59568982D01*
X185521503Y-59460763D01*
X185465485Y-59363737D01*
X185386263Y-59284515D01*
X185307839Y-59239237D01*
X185289239Y-59228498D01*
X185289238Y-59228497D01*
X185289237Y-59228497D01*
X185181018Y-59199500D01*
X185068982Y-59199500D01*
X184960763Y-59228497D01*
X184960760Y-59228498D01*
X184863740Y-59284513D01*
X184863734Y-59284517D01*
X184784517Y-59363734D01*
X184784513Y-59363740D01*
X184728498Y-59460760D01*
X184728497Y-59460763D01*
X184699500Y-59568982D01*
X180900000Y-59568982D01*
X180900000Y-57500000D01*
X178225159Y-57500000D01*
X178158120Y-57480315D01*
X178112365Y-57427511D01*
X178102421Y-57358353D01*
X178117772Y-57314000D01*
X178146503Y-57264237D01*
X178175500Y-57156018D01*
X178175500Y-57043982D01*
X178146503Y-56935763D01*
X178104108Y-56862332D01*
X181899500Y-56862332D01*
X181899500Y-57137667D01*
X181899501Y-57137684D01*
X181935438Y-57410655D01*
X181935439Y-57410660D01*
X181935440Y-57410666D01*
X181958440Y-57496503D01*
X182006704Y-57676630D01*
X182112075Y-57931017D01*
X182112080Y-57931028D01*
X182160609Y-58015081D01*
X182249751Y-58169479D01*
X182249753Y-58169482D01*
X182249754Y-58169483D01*
X182417370Y-58387926D01*
X182417376Y-58387933D01*
X182539801Y-58510358D01*
X182573286Y-58571681D01*
X182568302Y-58641373D01*
X182526430Y-58697306D01*
X182514121Y-58705426D01*
X182463737Y-58734515D01*
X182463734Y-58734517D01*
X182384517Y-58813734D01*
X182384513Y-58813740D01*
X182328498Y-58910760D01*
X182328497Y-58910763D01*
X182299500Y-59018982D01*
X182299500Y-59131018D01*
X182328497Y-59239237D01*
X182384515Y-59336263D01*
X182463737Y-59415485D01*
X182560763Y-59471503D01*
X182668982Y-59500500D01*
X182668984Y-59500500D01*
X182781016Y-59500500D01*
X182781018Y-59500500D01*
X182889237Y-59471503D01*
X182986263Y-59415485D01*
X183065485Y-59336263D01*
X183121503Y-59239237D01*
X183150500Y-59131018D01*
X183150500Y-59107269D01*
X183170185Y-59040230D01*
X183222989Y-58994475D01*
X183292147Y-58984531D01*
X183319510Y-58992039D01*
X183319527Y-58991991D01*
X183320345Y-58992268D01*
X183321960Y-58992712D01*
X183323368Y-58993295D01*
X183589334Y-59064560D01*
X183862326Y-59100500D01*
X183862333Y-59100500D01*
X184137667Y-59100500D01*
X184137674Y-59100500D01*
X184410666Y-59064560D01*
X184676632Y-58993295D01*
X184931021Y-58887923D01*
X185169479Y-58750249D01*
X185387928Y-58582628D01*
X185582628Y-58387928D01*
X185750249Y-58169479D01*
X185887923Y-57931021D01*
X185993295Y-57676632D01*
X186064560Y-57410666D01*
X186100500Y-57137674D01*
X186100500Y-56862326D01*
X186064560Y-56589334D01*
X185993295Y-56323368D01*
X185887923Y-56068979D01*
X185887921Y-56068976D01*
X185887919Y-56068971D01*
X185816305Y-55944934D01*
X185750249Y-55830521D01*
X185582628Y-55612072D01*
X185582623Y-55612066D01*
X185387933Y-55417376D01*
X185387926Y-55417370D01*
X185169483Y-55249754D01*
X185169482Y-55249753D01*
X185169479Y-55249751D01*
X185074407Y-55194861D01*
X184931028Y-55112080D01*
X184931017Y-55112075D01*
X184676630Y-55006704D01*
X184543649Y-54971072D01*
X184410666Y-54935440D01*
X184410660Y-54935439D01*
X184410655Y-54935438D01*
X184137684Y-54899501D01*
X184137679Y-54899500D01*
X184137674Y-54899500D01*
X183862326Y-54899500D01*
X183862320Y-54899500D01*
X183862315Y-54899501D01*
X183589344Y-54935438D01*
X183589337Y-54935439D01*
X183589334Y-54935440D01*
X183533125Y-54950500D01*
X183323369Y-55006704D01*
X183068982Y-55112075D01*
X183068971Y-55112080D01*
X182830516Y-55249754D01*
X182612073Y-55417370D01*
X182612066Y-55417376D01*
X182417376Y-55612066D01*
X182417370Y-55612073D01*
X182249754Y-55830516D01*
X182112080Y-56068971D01*
X182112075Y-56068982D01*
X182006704Y-56323369D01*
X181935441Y-56589331D01*
X181935438Y-56589344D01*
X181899501Y-56862315D01*
X181899500Y-56862332D01*
X178104108Y-56862332D01*
X178090485Y-56838737D01*
X178011263Y-56759515D01*
X177914239Y-56703498D01*
X177914238Y-56703497D01*
X177888167Y-56696511D01*
X177866905Y-56690814D01*
X177807246Y-56654449D01*
X177776717Y-56591602D01*
X177775000Y-56571040D01*
X177775000Y-54893982D01*
X178724500Y-54893982D01*
X178724500Y-55006018D01*
X178753497Y-55114237D01*
X178809515Y-55211263D01*
X178888737Y-55290485D01*
X178985763Y-55346503D01*
X179093982Y-55375500D01*
X179093984Y-55375500D01*
X179206016Y-55375500D01*
X179206018Y-55375500D01*
X179314237Y-55346503D01*
X179411263Y-55290485D01*
X179490485Y-55211263D01*
X179546503Y-55114237D01*
X179575500Y-55006018D01*
X179575500Y-54893982D01*
X179546503Y-54785763D01*
X179490485Y-54688737D01*
X179411263Y-54609515D01*
X179314237Y-54553497D01*
X179206018Y-54524500D01*
X179093982Y-54524500D01*
X178985763Y-54553497D01*
X178985760Y-54553498D01*
X178888740Y-54609513D01*
X178888734Y-54609517D01*
X178809517Y-54688734D01*
X178809513Y-54688740D01*
X178753498Y-54785760D01*
X178753497Y-54785763D01*
X178724500Y-54893982D01*
X177775000Y-54893982D01*
X177775000Y-54374500D01*
X177794685Y-54307461D01*
X177847489Y-54261706D01*
X177899000Y-54250500D01*
X186184108Y-54250500D01*
X186243038Y-54250500D01*
X186256922Y-54251280D01*
G37*
%TD.AperFunction*%
%TD*%
%TA.AperFunction,Conductor*%
%TO.N,5v*%
G36*
X161125039Y-60225185D02*
G01*
X161170794Y-60277989D01*
X161180738Y-60347147D01*
X161151713Y-60410703D01*
X161096316Y-60447432D01*
X161091780Y-60448905D01*
X160902439Y-60545380D01*
X160848282Y-60584727D01*
X160848282Y-60584728D01*
X161480591Y-61217037D01*
X161417007Y-61234075D01*
X161302993Y-61299901D01*
X161209901Y-61392993D01*
X161144075Y-61507007D01*
X161127037Y-61570591D01*
X160494728Y-60938282D01*
X160494727Y-60938282D01*
X160455380Y-60992439D01*
X160358904Y-61181782D01*
X160293242Y-61383869D01*
X160293242Y-61383872D01*
X160260000Y-61593753D01*
X160260000Y-61806246D01*
X160293242Y-62016127D01*
X160293242Y-62016130D01*
X160358904Y-62218217D01*
X160455375Y-62407550D01*
X160494728Y-62461716D01*
X161127037Y-61829408D01*
X161144075Y-61892993D01*
X161209901Y-62007007D01*
X161302993Y-62100099D01*
X161417007Y-62165925D01*
X161480590Y-62182962D01*
X160848282Y-62815269D01*
X160848282Y-62815270D01*
X160902449Y-62854624D01*
X161091782Y-62951095D01*
X161267973Y-63008343D01*
X161325648Y-63047780D01*
X161352847Y-63112139D01*
X161340932Y-63180985D01*
X161293688Y-63232461D01*
X161277108Y-63240835D01*
X161112403Y-63309057D01*
X160940342Y-63424024D01*
X160794024Y-63570342D01*
X160679058Y-63742403D01*
X160599870Y-63933579D01*
X160599868Y-63933587D01*
X160559500Y-64136530D01*
X160559500Y-64343469D01*
X160599868Y-64546412D01*
X160599870Y-64546420D01*
X160612122Y-64576000D01*
X160679059Y-64737598D01*
X160729861Y-64813629D01*
X160794024Y-64909657D01*
X160940342Y-65055975D01*
X160940345Y-65055977D01*
X161112402Y-65170941D01*
X161303580Y-65250130D01*
X161506530Y-65290499D01*
X161506534Y-65290500D01*
X161506535Y-65290500D01*
X161713466Y-65290500D01*
X161713467Y-65290499D01*
X161916420Y-65250130D01*
X162107598Y-65170941D01*
X162279655Y-65055977D01*
X162425977Y-64909655D01*
X162540941Y-64737598D01*
X162620130Y-64546420D01*
X162660500Y-64343465D01*
X162660500Y-64136535D01*
X162620130Y-63933580D01*
X162540941Y-63742402D01*
X162425977Y-63570345D01*
X162425975Y-63570342D01*
X162279657Y-63424024D01*
X162187341Y-63362341D01*
X162107598Y-63309059D01*
X162107593Y-63309057D01*
X162045891Y-63283499D01*
X161942890Y-63240834D01*
X161888488Y-63196994D01*
X161866423Y-63130700D01*
X161883702Y-63063001D01*
X161934839Y-63015390D01*
X161952026Y-63008343D01*
X162128217Y-62951095D01*
X162317554Y-62854622D01*
X162371716Y-62815270D01*
X162371717Y-62815270D01*
X161739408Y-62182962D01*
X161802993Y-62165925D01*
X161917007Y-62100099D01*
X162010099Y-62007007D01*
X162075925Y-61892993D01*
X162092962Y-61829408D01*
X162725270Y-62461717D01*
X162725270Y-62461716D01*
X162764624Y-62407552D01*
X162765515Y-62405804D01*
X162766030Y-62405257D01*
X162767168Y-62403402D01*
X162767557Y-62403640D01*
X162813489Y-62355007D01*
X162881310Y-62338212D01*
X162947445Y-62360749D01*
X162990897Y-62415464D01*
X163000000Y-62462098D01*
X163000000Y-68500000D01*
X163010184Y-68510184D01*
X163042539Y-68519685D01*
X163088294Y-68572489D01*
X163099500Y-68624000D01*
X163099500Y-70189752D01*
X163111131Y-70248229D01*
X163111132Y-70248230D01*
X163155447Y-70314552D01*
X163221769Y-70358867D01*
X163221770Y-70358868D01*
X163280247Y-70370499D01*
X163280250Y-70370500D01*
X163280252Y-70370500D01*
X165019750Y-70370500D01*
X165019751Y-70370499D01*
X165034568Y-70367552D01*
X165078229Y-70358868D01*
X165078229Y-70358867D01*
X165078231Y-70358867D01*
X165144552Y-70314552D01*
X165188867Y-70248231D01*
X165188867Y-70248229D01*
X165188868Y-70248229D01*
X165200499Y-70189752D01*
X165200500Y-70189750D01*
X165200500Y-68624000D01*
X165220185Y-68556961D01*
X165272989Y-68511206D01*
X165324500Y-68500000D01*
X169859252Y-68500000D01*
X169926291Y-68519685D01*
X169966639Y-68562000D01*
X170009515Y-68636263D01*
X170088737Y-68715485D01*
X170185763Y-68771503D01*
X170293982Y-68800500D01*
X170293984Y-68800500D01*
X170406016Y-68800500D01*
X170406018Y-68800500D01*
X170514237Y-68771503D01*
X170611263Y-68715485D01*
X170690485Y-68636263D01*
X170733361Y-68562000D01*
X170783928Y-68513784D01*
X170840748Y-68500000D01*
X173376000Y-68500000D01*
X173443039Y-68519685D01*
X173488794Y-68572489D01*
X173500000Y-68624000D01*
X173500000Y-74126000D01*
X173480315Y-74193039D01*
X173427511Y-74238794D01*
X173376000Y-74250000D01*
X170750000Y-74250000D01*
X170750000Y-76625500D01*
X170730315Y-76692539D01*
X170677511Y-76738294D01*
X170626000Y-76749500D01*
X159756962Y-76749500D01*
X159743078Y-76748720D01*
X159730553Y-76747308D01*
X159652735Y-76738540D01*
X159625666Y-76732362D01*
X159546462Y-76704648D01*
X159521444Y-76692600D01*
X159450395Y-76647957D01*
X159428686Y-76630644D01*
X159369355Y-76571313D01*
X159352042Y-76549604D01*
X159334325Y-76521408D01*
X159307398Y-76478553D01*
X159295351Y-76453537D01*
X159267637Y-76374333D01*
X159261459Y-76347263D01*
X159251280Y-76256922D01*
X159250500Y-76243038D01*
X159250500Y-73862332D01*
X159899500Y-73862332D01*
X159899500Y-74137667D01*
X159899501Y-74137684D01*
X159935438Y-74410655D01*
X159935439Y-74410660D01*
X159935440Y-74410666D01*
X159935441Y-74410668D01*
X160006704Y-74676630D01*
X160112075Y-74931017D01*
X160112080Y-74931028D01*
X160183694Y-75055065D01*
X160249751Y-75169479D01*
X160249753Y-75169482D01*
X160249754Y-75169483D01*
X160417370Y-75387926D01*
X160417376Y-75387933D01*
X160612066Y-75582623D01*
X160612072Y-75582628D01*
X160830521Y-75750249D01*
X160983778Y-75838732D01*
X161068971Y-75887919D01*
X161068976Y-75887921D01*
X161068979Y-75887923D01*
X161323368Y-75993295D01*
X161589334Y-76064560D01*
X161862326Y-76100500D01*
X161862333Y-76100500D01*
X162137667Y-76100500D01*
X162137674Y-76100500D01*
X162410666Y-76064560D01*
X162676632Y-75993295D01*
X162931021Y-75887923D01*
X163169479Y-75750249D01*
X163387928Y-75582628D01*
X163582628Y-75387928D01*
X163750249Y-75169479D01*
X163887923Y-74931021D01*
X163993295Y-74676632D01*
X164064560Y-74410666D01*
X164100500Y-74137674D01*
X164100500Y-73862326D01*
X164064560Y-73589334D01*
X163993295Y-73323368D01*
X163887923Y-73068979D01*
X163887921Y-73068976D01*
X163887919Y-73068971D01*
X163827450Y-72964237D01*
X163750249Y-72830521D01*
X163683845Y-72743982D01*
X171674500Y-72743982D01*
X171674500Y-72856018D01*
X171703497Y-72964237D01*
X171759515Y-73061263D01*
X171838737Y-73140485D01*
X171935763Y-73196503D01*
X172043982Y-73225500D01*
X172043984Y-73225500D01*
X172156016Y-73225500D01*
X172156018Y-73225500D01*
X172264237Y-73196503D01*
X172361263Y-73140485D01*
X172440485Y-73061263D01*
X172496503Y-72964237D01*
X172525500Y-72856018D01*
X172525500Y-72743982D01*
X172496503Y-72635763D01*
X172440485Y-72538737D01*
X172361263Y-72459515D01*
X172264237Y-72403497D01*
X172156018Y-72374500D01*
X172043982Y-72374500D01*
X171935763Y-72403497D01*
X171935760Y-72403498D01*
X171838740Y-72459513D01*
X171838734Y-72459517D01*
X171759517Y-72538734D01*
X171759513Y-72538740D01*
X171703498Y-72635760D01*
X171703497Y-72635763D01*
X171674500Y-72743982D01*
X163683845Y-72743982D01*
X163623272Y-72665041D01*
X163582629Y-72612073D01*
X163582623Y-72612066D01*
X163387933Y-72417376D01*
X163387926Y-72417370D01*
X163169483Y-72249754D01*
X163169482Y-72249753D01*
X163169479Y-72249751D01*
X163044808Y-72177772D01*
X162931028Y-72112080D01*
X162931017Y-72112075D01*
X162676630Y-72006704D01*
X162543649Y-71971072D01*
X162410666Y-71935440D01*
X162410660Y-71935439D01*
X162410655Y-71935438D01*
X162137684Y-71899501D01*
X162137679Y-71899500D01*
X162137674Y-71899500D01*
X161862326Y-71899500D01*
X161862320Y-71899500D01*
X161862315Y-71899501D01*
X161589344Y-71935438D01*
X161589337Y-71935439D01*
X161589334Y-71935440D01*
X161533125Y-71950500D01*
X161323369Y-72006704D01*
X161068982Y-72112075D01*
X161068971Y-72112080D01*
X160830516Y-72249754D01*
X160612073Y-72417370D01*
X160612066Y-72417376D01*
X160417376Y-72612066D01*
X160417370Y-72612073D01*
X160249754Y-72830516D01*
X160112080Y-73068971D01*
X160112075Y-73068982D01*
X160006704Y-73323369D01*
X159935441Y-73589331D01*
X159935438Y-73589344D01*
X159899501Y-73862315D01*
X159899500Y-73862332D01*
X159250500Y-73862332D01*
X159250500Y-69216530D01*
X160559500Y-69216530D01*
X160559500Y-69423469D01*
X160599868Y-69626412D01*
X160599870Y-69626420D01*
X160679059Y-69817598D01*
X160736541Y-69903626D01*
X160794024Y-69989657D01*
X160940342Y-70135975D01*
X160940345Y-70135977D01*
X161112402Y-70250941D01*
X161303580Y-70330130D01*
X161448052Y-70358867D01*
X161506530Y-70370499D01*
X161506534Y-70370500D01*
X161506535Y-70370500D01*
X161713466Y-70370500D01*
X161713467Y-70370499D01*
X161916420Y-70330130D01*
X162107598Y-70250941D01*
X162279655Y-70135977D01*
X162425977Y-69989655D01*
X162540941Y-69817598D01*
X162620130Y-69626420D01*
X162660500Y-69423465D01*
X162660500Y-69216535D01*
X162620130Y-69013580D01*
X162540941Y-68822402D01*
X162425977Y-68650345D01*
X162425975Y-68650342D01*
X162279657Y-68504024D01*
X162182249Y-68438939D01*
X162107598Y-68389059D01*
X162092603Y-68382848D01*
X161916420Y-68309870D01*
X161916412Y-68309868D01*
X161713469Y-68269500D01*
X161713465Y-68269500D01*
X161506535Y-68269500D01*
X161506530Y-68269500D01*
X161303587Y-68309868D01*
X161303579Y-68309870D01*
X161112403Y-68389058D01*
X160940342Y-68504024D01*
X160794024Y-68650342D01*
X160679058Y-68822403D01*
X160599870Y-69013579D01*
X160599868Y-69013587D01*
X160559500Y-69216530D01*
X159250500Y-69216530D01*
X159250500Y-66676530D01*
X160559500Y-66676530D01*
X160559500Y-66883469D01*
X160599868Y-67086412D01*
X160599870Y-67086420D01*
X160679058Y-67277596D01*
X160794024Y-67449657D01*
X160940342Y-67595975D01*
X160940345Y-67595977D01*
X161112402Y-67710941D01*
X161303580Y-67790130D01*
X161506530Y-67830499D01*
X161506534Y-67830500D01*
X161506535Y-67830500D01*
X161713466Y-67830500D01*
X161713467Y-67830499D01*
X161916420Y-67790130D01*
X162107598Y-67710941D01*
X162279655Y-67595977D01*
X162425977Y-67449655D01*
X162540941Y-67277598D01*
X162620130Y-67086420D01*
X162660500Y-66883465D01*
X162660500Y-66676535D01*
X162620130Y-66473580D01*
X162540941Y-66282402D01*
X162425977Y-66110345D01*
X162425975Y-66110342D01*
X162279657Y-65964024D01*
X162187341Y-65902341D01*
X162107598Y-65849059D01*
X161916420Y-65769870D01*
X161916412Y-65769868D01*
X161713469Y-65729500D01*
X161713465Y-65729500D01*
X161506535Y-65729500D01*
X161506530Y-65729500D01*
X161303587Y-65769868D01*
X161303579Y-65769870D01*
X161112403Y-65849058D01*
X160940342Y-65964024D01*
X160794024Y-66110342D01*
X160679058Y-66282403D01*
X160599870Y-66473579D01*
X160599868Y-66473587D01*
X160559500Y-66676530D01*
X159250500Y-66676530D01*
X159250500Y-60329500D01*
X159270185Y-60262461D01*
X159322989Y-60216706D01*
X159374500Y-60205500D01*
X161058000Y-60205500D01*
X161125039Y-60225185D01*
G37*
%TD.AperFunction*%
%TA.AperFunction,Conductor*%
G36*
X162943039Y-60225185D02*
G01*
X162988794Y-60277989D01*
X163000000Y-60329500D01*
X163000000Y-60937901D01*
X162980315Y-61004940D01*
X162927511Y-61050695D01*
X162858353Y-61060639D01*
X162794797Y-61031614D01*
X162767324Y-60996509D01*
X162767171Y-60996604D01*
X162766351Y-60995266D01*
X162765519Y-60994203D01*
X162764627Y-60992454D01*
X162764626Y-60992452D01*
X162725270Y-60938282D01*
X162725269Y-60938282D01*
X162092962Y-61570590D01*
X162075925Y-61507007D01*
X162010099Y-61392993D01*
X161917007Y-61299901D01*
X161802993Y-61234075D01*
X161739409Y-61217037D01*
X162371716Y-60584728D01*
X162317550Y-60545375D01*
X162128219Y-60448905D01*
X162123684Y-60447432D01*
X162066008Y-60407995D01*
X162038808Y-60343637D01*
X162050722Y-60274790D01*
X162097965Y-60223314D01*
X162162000Y-60205500D01*
X162876000Y-60205500D01*
X162943039Y-60225185D01*
G37*
%TD.AperFunction*%
%TD*%
%TA.AperFunction,Conductor*%
%TO.N,3v3*%
G36*
X168693039Y-54270185D02*
G01*
X168738794Y-54322989D01*
X168750000Y-54374500D01*
X168750000Y-65000000D01*
X171749999Y-65000000D01*
X171750000Y-65000000D01*
X171750000Y-64999999D01*
X171766832Y-64983167D01*
X171828155Y-64949681D01*
X171897846Y-64954665D01*
X171916511Y-64963458D01*
X172002179Y-65012919D01*
X172110398Y-65041916D01*
X172110400Y-65041916D01*
X172222432Y-65041916D01*
X172222434Y-65041916D01*
X172330653Y-65012919D01*
X172427679Y-64956901D01*
X172506901Y-64877679D01*
X172562919Y-64780653D01*
X172591916Y-64672434D01*
X172591916Y-64560398D01*
X172562919Y-64452179D01*
X172506901Y-64355153D01*
X172427679Y-64275931D01*
X172330653Y-64219913D01*
X172222434Y-64190916D01*
X172110398Y-64190916D01*
X172002179Y-64219913D01*
X172002176Y-64219914D01*
X171936000Y-64258121D01*
X171868099Y-64274594D01*
X171802072Y-64251741D01*
X171758882Y-64196820D01*
X171750000Y-64150734D01*
X171750000Y-63124000D01*
X171769685Y-63056961D01*
X171822489Y-63011206D01*
X171874000Y-63000000D01*
X177750000Y-63000000D01*
X177754578Y-62084286D01*
X177774597Y-62017348D01*
X177816575Y-61977521D01*
X177946559Y-61902476D01*
X178054677Y-61794358D01*
X178131127Y-61661942D01*
X178170701Y-61514251D01*
X178170701Y-61361349D01*
X178131127Y-61213658D01*
X178071721Y-61110763D01*
X178054679Y-61081245D01*
X178054675Y-61081240D01*
X178052568Y-61079133D01*
X178051358Y-61076917D01*
X178049731Y-61074797D01*
X178050061Y-61074543D01*
X178019083Y-61017810D01*
X178024067Y-60948118D01*
X178065939Y-60892185D01*
X178108151Y-60871678D01*
X178124237Y-60867369D01*
X178221263Y-60811351D01*
X178300485Y-60732129D01*
X178356503Y-60635103D01*
X178385500Y-60526884D01*
X178385500Y-60414848D01*
X178356503Y-60306629D01*
X178300485Y-60209603D01*
X178221263Y-60130381D01*
X178124237Y-60074363D01*
X178016018Y-60045366D01*
X177903982Y-60045366D01*
X177895855Y-60045366D01*
X177895855Y-60043641D01*
X177836534Y-60034388D01*
X177784281Y-59988006D01*
X177765391Y-59921600D01*
X177775633Y-57873379D01*
X177795652Y-57806440D01*
X177848684Y-57760949D01*
X177899631Y-57750000D01*
X180476000Y-57750000D01*
X180543039Y-57769685D01*
X180588794Y-57822489D01*
X180600000Y-57874000D01*
X180600000Y-74126000D01*
X180580315Y-74193039D01*
X180527511Y-74238794D01*
X180476000Y-74250000D01*
X173874000Y-74250000D01*
X173806961Y-74230315D01*
X173761206Y-74177511D01*
X173750000Y-74126000D01*
X173750000Y-72722939D01*
X173769685Y-72655900D01*
X173822489Y-72610145D01*
X173885855Y-72600649D01*
X173885855Y-72600500D01*
X173886851Y-72600500D01*
X173890188Y-72600000D01*
X173893979Y-72600499D01*
X173893982Y-72600500D01*
X173893985Y-72600500D01*
X174006016Y-72600500D01*
X174006018Y-72600500D01*
X174114237Y-72571503D01*
X174211263Y-72515485D01*
X174290485Y-72436263D01*
X174346503Y-72339237D01*
X174375500Y-72231018D01*
X174375500Y-72210524D01*
X174395185Y-72143485D01*
X174447989Y-72097730D01*
X174467399Y-72090751D01*
X174539237Y-72071503D01*
X174636263Y-72015485D01*
X174715485Y-71936263D01*
X174771503Y-71839237D01*
X174800500Y-71731018D01*
X174800500Y-71618982D01*
X174771503Y-71510763D01*
X174715485Y-71413737D01*
X174636263Y-71334515D01*
X174539237Y-71278497D01*
X174431018Y-71249500D01*
X174318982Y-71249500D01*
X174210763Y-71278497D01*
X174210760Y-71278498D01*
X174113740Y-71334513D01*
X174113734Y-71334517D01*
X174034517Y-71413734D01*
X174034513Y-71413740D01*
X173981387Y-71505757D01*
X173930820Y-71553973D01*
X173862213Y-71567195D01*
X173797348Y-71541227D01*
X173756820Y-71484313D01*
X173750000Y-71443757D01*
X173750000Y-71118982D01*
X175949500Y-71118982D01*
X175949500Y-71231018D01*
X175977233Y-71334517D01*
X175978497Y-71339236D01*
X175978498Y-71339239D01*
X175984281Y-71349255D01*
X176034515Y-71436263D01*
X176113737Y-71515485D01*
X176210763Y-71571503D01*
X176318982Y-71600500D01*
X176318984Y-71600500D01*
X176431016Y-71600500D01*
X176431018Y-71600500D01*
X176539237Y-71571503D01*
X176614639Y-71527969D01*
X176682537Y-71511496D01*
X176748564Y-71534348D01*
X176791755Y-71589269D01*
X176798397Y-71658822D01*
X176784026Y-71697355D01*
X176728497Y-71793534D01*
X176728497Y-71793535D01*
X176699500Y-71901754D01*
X176699500Y-72013790D01*
X176728497Y-72122009D01*
X176784515Y-72219035D01*
X176863737Y-72298257D01*
X176960763Y-72354275D01*
X177068982Y-72383272D01*
X177068984Y-72383272D01*
X177181016Y-72383272D01*
X177181018Y-72383272D01*
X177289237Y-72354275D01*
X177386263Y-72298257D01*
X177465485Y-72219035D01*
X177521503Y-72122009D01*
X177550500Y-72013790D01*
X177550500Y-71901754D01*
X177521503Y-71793535D01*
X177465485Y-71696509D01*
X177386263Y-71617287D01*
X177289237Y-71561269D01*
X177289235Y-71561268D01*
X177281730Y-71558160D01*
X177282444Y-71556436D01*
X177231603Y-71525440D01*
X177201080Y-71462590D01*
X177209381Y-71393215D01*
X177253872Y-71339342D01*
X177291269Y-71322265D01*
X177298763Y-71320258D01*
X177395789Y-71264240D01*
X177475011Y-71185018D01*
X177531029Y-71087992D01*
X177560026Y-70979773D01*
X177560026Y-70867737D01*
X177531029Y-70759518D01*
X177475011Y-70662492D01*
X177395789Y-70583270D01*
X177298763Y-70527252D01*
X177190544Y-70498255D01*
X177078508Y-70498255D01*
X176970289Y-70527252D01*
X176970286Y-70527253D01*
X176873266Y-70583268D01*
X176873260Y-70583272D01*
X176794043Y-70662489D01*
X176794039Y-70662495D01*
X176742108Y-70752442D01*
X176691541Y-70800658D01*
X176622934Y-70813880D01*
X176572721Y-70797829D01*
X176539239Y-70778498D01*
X176539238Y-70778497D01*
X176539237Y-70778497D01*
X176431018Y-70749500D01*
X176318982Y-70749500D01*
X176210763Y-70778497D01*
X176210760Y-70778498D01*
X176113740Y-70834513D01*
X176113734Y-70834517D01*
X176034517Y-70913734D01*
X176034513Y-70913740D01*
X175978498Y-71010760D01*
X175978497Y-71010763D01*
X175949500Y-71118982D01*
X173750000Y-71118982D01*
X173750000Y-68250000D01*
X171435122Y-68250000D01*
X171415500Y-68244238D01*
X171395067Y-68243353D01*
X171382654Y-68234593D01*
X171368083Y-68230315D01*
X171354692Y-68214861D01*
X171337980Y-68203068D01*
X171332273Y-68188988D01*
X171322328Y-68177511D01*
X171319417Y-68157269D01*
X171311735Y-68138315D01*
X171313525Y-68116295D01*
X171312384Y-68108353D01*
X171313264Y-68103054D01*
X171314132Y-68098444D01*
X171325031Y-68057770D01*
X175303212Y-68057770D01*
X175303212Y-68169806D01*
X175321007Y-68236216D01*
X175332209Y-68278024D01*
X175332210Y-68278027D01*
X175379126Y-68359288D01*
X175395599Y-68427188D01*
X175379126Y-68483288D01*
X175332210Y-68564548D01*
X175332209Y-68564551D01*
X175303212Y-68672770D01*
X175303212Y-68784806D01*
X175332209Y-68893025D01*
X175388227Y-68990051D01*
X175467449Y-69069273D01*
X175564475Y-69125291D01*
X175672694Y-69154288D01*
X175672696Y-69154288D01*
X175784728Y-69154288D01*
X175784730Y-69154288D01*
X175892949Y-69125291D01*
X175989975Y-69069273D01*
X176069197Y-68990051D01*
X176125215Y-68893025D01*
X176154212Y-68784806D01*
X176154212Y-68672770D01*
X176125215Y-68564551D01*
X176078296Y-68483284D01*
X176061824Y-68415389D01*
X176078295Y-68359291D01*
X176125215Y-68278025D01*
X176154212Y-68169806D01*
X176154212Y-68057770D01*
X176125215Y-67949551D01*
X176069197Y-67852525D01*
X175989975Y-67773303D01*
X175892949Y-67717285D01*
X175784730Y-67688288D01*
X175672694Y-67688288D01*
X175564475Y-67717285D01*
X175564472Y-67717286D01*
X175467452Y-67773301D01*
X175467446Y-67773305D01*
X175388229Y-67852522D01*
X175388225Y-67852528D01*
X175332210Y-67949548D01*
X175332209Y-67949551D01*
X175303212Y-68057770D01*
X171325031Y-68057770D01*
X171325500Y-68056018D01*
X171325500Y-67943982D01*
X171296503Y-67835763D01*
X171240485Y-67738737D01*
X171161263Y-67659515D01*
X171064237Y-67603497D01*
X170956018Y-67574500D01*
X170843982Y-67574500D01*
X170735763Y-67603497D01*
X170735760Y-67603498D01*
X170638740Y-67659513D01*
X170638734Y-67659517D01*
X170559517Y-67738734D01*
X170559513Y-67738740D01*
X170503498Y-67835760D01*
X170503498Y-67835761D01*
X170503497Y-67835763D01*
X170497647Y-67857595D01*
X170461283Y-67917254D01*
X170398436Y-67947783D01*
X170377873Y-67949500D01*
X170293982Y-67949500D01*
X170185763Y-67978497D01*
X170185760Y-67978498D01*
X170088740Y-68034513D01*
X170088734Y-68034517D01*
X170009517Y-68113734D01*
X170009513Y-68113740D01*
X169966639Y-68188000D01*
X169916072Y-68236216D01*
X169859252Y-68250000D01*
X163374000Y-68250000D01*
X163306961Y-68230315D01*
X163261206Y-68177511D01*
X163250000Y-68126000D01*
X163250000Y-67664995D01*
X163269685Y-67597956D01*
X163322489Y-67552201D01*
X163391647Y-67542257D01*
X163455203Y-67571282D01*
X163461681Y-67577314D01*
X163480342Y-67595975D01*
X163480345Y-67595977D01*
X163652402Y-67710941D01*
X163843580Y-67790130D01*
X164046530Y-67830499D01*
X164046534Y-67830500D01*
X164046535Y-67830500D01*
X164253466Y-67830500D01*
X164253467Y-67830499D01*
X164456420Y-67790130D01*
X164647598Y-67710941D01*
X164819655Y-67595977D01*
X164871650Y-67543982D01*
X176769000Y-67543982D01*
X176769000Y-67656018D01*
X176797997Y-67764237D01*
X176854015Y-67861263D01*
X176933237Y-67940485D01*
X177030263Y-67996503D01*
X177138482Y-68025500D01*
X177138484Y-68025500D01*
X177250516Y-68025500D01*
X177250518Y-68025500D01*
X177286356Y-68015897D01*
X177356202Y-68017558D01*
X177414065Y-68056719D01*
X177441571Y-68120947D01*
X177438223Y-68167762D01*
X177424500Y-68218977D01*
X177424500Y-68218982D01*
X177424500Y-68331018D01*
X177453349Y-68438682D01*
X177453497Y-68439236D01*
X177453498Y-68439239D01*
X177469829Y-68467525D01*
X177509515Y-68536263D01*
X177588737Y-68615485D01*
X177685763Y-68671503D01*
X177793982Y-68700500D01*
X177793984Y-68700500D01*
X177906016Y-68700500D01*
X177906018Y-68700500D01*
X178014237Y-68671503D01*
X178091739Y-68626756D01*
X178159635Y-68610285D01*
X178225662Y-68633137D01*
X178261122Y-68672143D01*
X178309515Y-68755963D01*
X178388737Y-68835185D01*
X178485763Y-68891203D01*
X178593982Y-68920200D01*
X178593984Y-68920200D01*
X178706016Y-68920200D01*
X178706018Y-68920200D01*
X178814237Y-68891203D01*
X178911263Y-68835185D01*
X178990485Y-68755963D01*
X179046503Y-68658937D01*
X179075500Y-68550718D01*
X179075500Y-68438682D01*
X179046503Y-68330463D01*
X178990485Y-68233437D01*
X178911263Y-68154215D01*
X178814237Y-68098197D01*
X178706018Y-68069200D01*
X178593982Y-68069200D01*
X178485763Y-68098197D01*
X178485756Y-68098200D01*
X178408262Y-68142941D01*
X178340362Y-68159414D01*
X178274335Y-68136561D01*
X178238878Y-68097556D01*
X178190485Y-68013737D01*
X178111263Y-67934515D01*
X178014237Y-67878497D01*
X177906018Y-67849500D01*
X177793982Y-67849500D01*
X177758142Y-67859102D01*
X177688294Y-67857440D01*
X177630432Y-67818277D01*
X177602928Y-67754049D01*
X177606275Y-67707238D01*
X177620000Y-67656018D01*
X177620000Y-67543982D01*
X177591003Y-67435763D01*
X177534985Y-67338737D01*
X177455763Y-67259515D01*
X177358737Y-67203497D01*
X177250518Y-67174500D01*
X177138482Y-67174500D01*
X177030263Y-67203497D01*
X177030260Y-67203498D01*
X176933240Y-67259513D01*
X176933234Y-67259517D01*
X176854017Y-67338734D01*
X176854013Y-67338740D01*
X176797998Y-67435760D01*
X176797997Y-67435763D01*
X176769000Y-67543982D01*
X164871650Y-67543982D01*
X164965977Y-67449655D01*
X165080941Y-67277598D01*
X165160130Y-67086420D01*
X165200500Y-66883465D01*
X165200500Y-66676535D01*
X165160130Y-66473580D01*
X165147870Y-66443982D01*
X174374500Y-66443982D01*
X174374500Y-66556018D01*
X174389058Y-66610347D01*
X174403497Y-66664236D01*
X174403498Y-66664239D01*
X174410594Y-66676530D01*
X174459515Y-66761263D01*
X174538737Y-66840485D01*
X174635763Y-66896503D01*
X174743982Y-66925500D01*
X174743984Y-66925500D01*
X174856016Y-66925500D01*
X174856018Y-66925500D01*
X174964237Y-66896503D01*
X175061263Y-66840485D01*
X175140485Y-66761263D01*
X175196503Y-66664237D01*
X175225500Y-66556018D01*
X175225500Y-66443982D01*
X175196503Y-66335763D01*
X175140485Y-66238737D01*
X175115592Y-66213844D01*
X176768000Y-66213844D01*
X176768000Y-66325880D01*
X176796997Y-66434099D01*
X176853015Y-66531125D01*
X176932237Y-66610347D01*
X177029263Y-66666365D01*
X177137482Y-66695362D01*
X177137484Y-66695362D01*
X177249516Y-66695362D01*
X177249518Y-66695362D01*
X177357737Y-66666365D01*
X177454763Y-66610347D01*
X177533985Y-66531125D01*
X177590003Y-66434099D01*
X177619000Y-66325880D01*
X177619000Y-66213844D01*
X177590003Y-66105625D01*
X177533985Y-66008599D01*
X177454763Y-65929377D01*
X177357737Y-65873359D01*
X177249518Y-65844362D01*
X177137482Y-65844362D01*
X177029263Y-65873359D01*
X177029260Y-65873360D01*
X176932240Y-65929375D01*
X176932234Y-65929379D01*
X176853017Y-66008596D01*
X176853013Y-66008602D01*
X176796998Y-66105622D01*
X176796997Y-66105625D01*
X176768000Y-66213844D01*
X175115592Y-66213844D01*
X175061263Y-66159515D01*
X174964237Y-66103497D01*
X174856018Y-66074500D01*
X174743982Y-66074500D01*
X174635763Y-66103497D01*
X174635760Y-66103498D01*
X174538740Y-66159513D01*
X174538734Y-66159517D01*
X174459517Y-66238734D01*
X174459513Y-66238740D01*
X174403498Y-66335760D01*
X174403497Y-66335763D01*
X174374500Y-66443982D01*
X165147870Y-66443982D01*
X165080941Y-66282402D01*
X164965977Y-66110345D01*
X164965975Y-66110342D01*
X164819657Y-65964024D01*
X164762302Y-65925701D01*
X164647598Y-65849059D01*
X164647595Y-65849057D01*
X164647594Y-65849057D01*
X164645074Y-65848013D01*
X164645073Y-65848013D01*
X164456420Y-65769870D01*
X164456412Y-65769868D01*
X164314194Y-65741579D01*
X171774500Y-65741579D01*
X171774500Y-65853615D01*
X171803497Y-65961834D01*
X171859515Y-66058860D01*
X171938737Y-66138082D01*
X172035763Y-66194100D01*
X172143982Y-66223097D01*
X172143984Y-66223097D01*
X172256016Y-66223097D01*
X172256018Y-66223097D01*
X172364237Y-66194100D01*
X172461263Y-66138082D01*
X172540485Y-66058860D01*
X172596503Y-65961834D01*
X172625500Y-65853615D01*
X172625500Y-65741579D01*
X172596503Y-65633360D01*
X172540485Y-65536334D01*
X172461263Y-65457112D01*
X172364237Y-65401094D01*
X172256018Y-65372097D01*
X172143982Y-65372097D01*
X172035763Y-65401094D01*
X172035760Y-65401095D01*
X171938740Y-65457110D01*
X171938734Y-65457114D01*
X171859517Y-65536331D01*
X171859513Y-65536337D01*
X171803498Y-65633357D01*
X171803497Y-65633360D01*
X171774500Y-65741579D01*
X164314194Y-65741579D01*
X164253469Y-65729500D01*
X164253465Y-65729500D01*
X164046535Y-65729500D01*
X164046530Y-65729500D01*
X163843587Y-65769868D01*
X163843579Y-65769870D01*
X163652403Y-65849058D01*
X163480342Y-65964024D01*
X163480341Y-65964025D01*
X163461681Y-65982686D01*
X163400358Y-66016171D01*
X163330666Y-66011187D01*
X163274733Y-65969315D01*
X163250316Y-65903851D01*
X163250000Y-65895005D01*
X163250000Y-65124995D01*
X163269685Y-65057956D01*
X163322489Y-65012201D01*
X163391647Y-65002257D01*
X163455203Y-65031282D01*
X163461681Y-65037314D01*
X163480342Y-65055975D01*
X163480345Y-65055977D01*
X163652402Y-65170941D01*
X163843580Y-65250130D01*
X164046530Y-65290499D01*
X164046534Y-65290500D01*
X164046535Y-65290500D01*
X164253466Y-65290500D01*
X164253467Y-65290499D01*
X164456420Y-65250130D01*
X164647598Y-65170941D01*
X164819655Y-65055977D01*
X164965977Y-64909655D01*
X165080941Y-64737598D01*
X165160130Y-64546420D01*
X165200500Y-64343465D01*
X165200500Y-64136535D01*
X165160130Y-63933580D01*
X165080941Y-63742402D01*
X164965977Y-63570345D01*
X164965975Y-63570342D01*
X164819657Y-63424024D01*
X164729601Y-63363851D01*
X164647598Y-63309059D01*
X164456420Y-63229870D01*
X164456412Y-63229868D01*
X164253469Y-63189500D01*
X164253465Y-63189500D01*
X164046535Y-63189500D01*
X164046530Y-63189500D01*
X163843587Y-63229868D01*
X163843579Y-63229870D01*
X163652403Y-63309058D01*
X163480342Y-63424024D01*
X163480341Y-63424025D01*
X163461681Y-63442686D01*
X163400358Y-63476171D01*
X163330666Y-63471187D01*
X163274733Y-63429315D01*
X163250316Y-63363851D01*
X163250000Y-63355005D01*
X163250000Y-62584995D01*
X163269685Y-62517956D01*
X163322489Y-62472201D01*
X163391647Y-62462257D01*
X163455203Y-62491282D01*
X163461681Y-62497314D01*
X163480342Y-62515975D01*
X163480345Y-62515977D01*
X163652402Y-62630941D01*
X163843580Y-62710130D01*
X164046530Y-62750499D01*
X164046534Y-62750500D01*
X164046535Y-62750500D01*
X164253466Y-62750500D01*
X164253467Y-62750499D01*
X164456420Y-62710130D01*
X164647598Y-62630941D01*
X164819655Y-62515977D01*
X164965977Y-62369655D01*
X164999835Y-62318982D01*
X166958000Y-62318982D01*
X166958000Y-62431018D01*
X166986997Y-62539237D01*
X167043015Y-62636263D01*
X167122237Y-62715485D01*
X167219263Y-62771503D01*
X167327482Y-62800500D01*
X167327484Y-62800500D01*
X167439516Y-62800500D01*
X167439518Y-62800500D01*
X167547737Y-62771503D01*
X167644763Y-62715485D01*
X167723985Y-62636263D01*
X167780003Y-62539237D01*
X167809000Y-62431018D01*
X167809000Y-62318982D01*
X167780003Y-62210763D01*
X167723985Y-62113737D01*
X167644763Y-62034515D01*
X167547737Y-61978497D01*
X167439518Y-61949500D01*
X167327482Y-61949500D01*
X167219263Y-61978497D01*
X167219260Y-61978498D01*
X167122240Y-62034513D01*
X167122234Y-62034517D01*
X167043017Y-62113734D01*
X167043013Y-62113740D01*
X166986998Y-62210760D01*
X166986997Y-62210763D01*
X166958000Y-62318982D01*
X164999835Y-62318982D01*
X165080941Y-62197598D01*
X165160130Y-62006420D01*
X165200500Y-61803465D01*
X165200500Y-61596535D01*
X165160130Y-61393580D01*
X165080941Y-61202402D01*
X164965977Y-61030345D01*
X164965975Y-61030342D01*
X164819657Y-60884024D01*
X164729601Y-60823851D01*
X164647598Y-60769059D01*
X164558446Y-60732131D01*
X164456420Y-60689870D01*
X164456412Y-60689868D01*
X164253469Y-60649500D01*
X164253465Y-60649500D01*
X164046535Y-60649500D01*
X164046530Y-60649500D01*
X163843587Y-60689868D01*
X163843579Y-60689870D01*
X163652403Y-60769058D01*
X163480342Y-60884024D01*
X163480341Y-60884025D01*
X163461681Y-60902686D01*
X163400358Y-60936171D01*
X163330666Y-60931187D01*
X163274733Y-60889315D01*
X163250316Y-60823851D01*
X163250000Y-60815005D01*
X163250000Y-60000000D01*
X159374500Y-60000000D01*
X159307461Y-59980315D01*
X159261706Y-59927511D01*
X159250500Y-59876000D01*
X159250500Y-56862332D01*
X159899500Y-56862332D01*
X159899500Y-57137667D01*
X159899501Y-57137684D01*
X159935438Y-57410655D01*
X159935439Y-57410660D01*
X159935440Y-57410666D01*
X159935441Y-57410668D01*
X160006704Y-57676630D01*
X160112075Y-57931017D01*
X160112080Y-57931028D01*
X160177295Y-58043982D01*
X160249751Y-58169479D01*
X160249753Y-58169482D01*
X160249754Y-58169483D01*
X160417370Y-58387926D01*
X160417376Y-58387933D01*
X160612066Y-58582623D01*
X160612073Y-58582629D01*
X160707716Y-58656018D01*
X160830521Y-58750249D01*
X160976448Y-58834500D01*
X161068971Y-58887919D01*
X161068976Y-58887921D01*
X161068979Y-58887923D01*
X161323368Y-58993295D01*
X161589334Y-59064560D01*
X161862326Y-59100500D01*
X161862333Y-59100500D01*
X162137667Y-59100500D01*
X162137674Y-59100500D01*
X162410666Y-59064560D01*
X162676632Y-58993295D01*
X162735328Y-58968982D01*
X165849500Y-58968982D01*
X165849500Y-59081018D01*
X165878497Y-59189237D01*
X165934515Y-59286263D01*
X166013737Y-59365485D01*
X166110763Y-59421503D01*
X166218982Y-59450500D01*
X166218984Y-59450500D01*
X166331016Y-59450500D01*
X166331018Y-59450500D01*
X166439237Y-59421503D01*
X166536263Y-59365485D01*
X166615485Y-59286263D01*
X166671503Y-59189237D01*
X166700500Y-59081018D01*
X166700500Y-58968982D01*
X166671503Y-58860763D01*
X166615485Y-58763737D01*
X166566894Y-58715146D01*
X166533409Y-58653823D01*
X166538393Y-58584131D01*
X166580265Y-58528198D01*
X166622478Y-58507691D01*
X166664237Y-58496503D01*
X166761263Y-58440485D01*
X166840485Y-58361263D01*
X166896503Y-58264237D01*
X166925500Y-58156018D01*
X166925500Y-58043982D01*
X166896503Y-57935763D01*
X166840485Y-57838737D01*
X166761263Y-57759515D01*
X166664237Y-57703497D01*
X166556018Y-57674500D01*
X166443982Y-57674500D01*
X166335763Y-57703497D01*
X166335760Y-57703498D01*
X166238740Y-57759513D01*
X166238734Y-57759517D01*
X166159517Y-57838734D01*
X166159513Y-57838740D01*
X166103498Y-57935760D01*
X166103497Y-57935763D01*
X166074500Y-58043982D01*
X166074500Y-58156018D01*
X166103497Y-58264237D01*
X166159515Y-58361263D01*
X166159517Y-58361265D01*
X166208105Y-58409853D01*
X166241590Y-58471176D01*
X166236606Y-58540868D01*
X166194734Y-58596801D01*
X166152518Y-58617308D01*
X166143683Y-58619676D01*
X166110761Y-58628497D01*
X166110760Y-58628498D01*
X166013740Y-58684513D01*
X166013734Y-58684517D01*
X165934517Y-58763734D01*
X165934513Y-58763740D01*
X165878498Y-58860760D01*
X165878497Y-58860763D01*
X165849500Y-58968982D01*
X162735328Y-58968982D01*
X162931021Y-58887923D01*
X163169479Y-58750249D01*
X163387928Y-58582628D01*
X163582628Y-58387928D01*
X163750249Y-58169479D01*
X163887923Y-57931021D01*
X163993295Y-57676632D01*
X164064560Y-57410666D01*
X164100500Y-57137674D01*
X164100500Y-56862326D01*
X164064560Y-56589334D01*
X163993295Y-56323368D01*
X163887923Y-56068979D01*
X163887921Y-56068976D01*
X163887919Y-56068971D01*
X163786888Y-55893982D01*
X163750249Y-55830521D01*
X163582628Y-55612072D01*
X163582623Y-55612066D01*
X163387933Y-55417376D01*
X163387926Y-55417370D01*
X163169483Y-55249754D01*
X163169482Y-55249753D01*
X163169479Y-55249751D01*
X163039141Y-55174500D01*
X162931028Y-55112080D01*
X162931017Y-55112075D01*
X162676630Y-55006704D01*
X162543649Y-54971072D01*
X162410666Y-54935440D01*
X162410660Y-54935439D01*
X162410655Y-54935438D01*
X162137684Y-54899501D01*
X162137679Y-54899500D01*
X162137674Y-54899500D01*
X161862326Y-54899500D01*
X161862320Y-54899500D01*
X161862315Y-54899501D01*
X161589344Y-54935438D01*
X161589337Y-54935439D01*
X161589334Y-54935440D01*
X161533125Y-54950500D01*
X161323369Y-55006704D01*
X161068982Y-55112075D01*
X161068971Y-55112080D01*
X160830516Y-55249754D01*
X160612073Y-55417370D01*
X160612066Y-55417376D01*
X160417376Y-55612066D01*
X160417370Y-55612073D01*
X160249754Y-55830516D01*
X160112080Y-56068971D01*
X160112075Y-56068982D01*
X160006704Y-56323369D01*
X159935441Y-56589331D01*
X159935438Y-56589344D01*
X159899501Y-56862315D01*
X159899500Y-56862332D01*
X159250500Y-56862332D01*
X159250500Y-54756961D01*
X159251280Y-54743077D01*
X159257403Y-54688737D01*
X159261459Y-54652731D01*
X159267635Y-54625670D01*
X159295353Y-54546456D01*
X159307396Y-54521450D01*
X159352046Y-54450389D01*
X159369351Y-54428690D01*
X159428690Y-54369351D01*
X159450389Y-54352046D01*
X159521450Y-54307396D01*
X159546456Y-54295353D01*
X159625670Y-54267635D01*
X159652733Y-54261459D01*
X159715419Y-54254396D01*
X159743079Y-54251280D01*
X159756962Y-54250500D01*
X168626000Y-54250500D01*
X168693039Y-54270185D01*
G37*
%TD.AperFunction*%
%TD*%
%TA.AperFunction,Conductor*%
%TO.N,VBUS*%
G36*
X177443039Y-54270185D02*
G01*
X177488794Y-54322989D01*
X177500000Y-54374500D01*
X177500000Y-56696889D01*
X177480315Y-56763928D01*
X177463682Y-56784570D01*
X177409514Y-56838738D01*
X177409513Y-56838740D01*
X177353498Y-56935760D01*
X177353497Y-56935763D01*
X177324500Y-57043982D01*
X177324500Y-57156018D01*
X177353497Y-57264237D01*
X177409515Y-57361263D01*
X177409517Y-57361265D01*
X177463681Y-57415429D01*
X177497166Y-57476752D01*
X177500000Y-57503110D01*
X177500000Y-58002060D01*
X177480315Y-58069099D01*
X177427511Y-58114854D01*
X177364145Y-58124352D01*
X177364145Y-58124500D01*
X177363158Y-58124500D01*
X177359822Y-58125000D01*
X177356022Y-58124500D01*
X177356018Y-58124500D01*
X177243982Y-58124500D01*
X177135763Y-58153497D01*
X177135760Y-58153498D01*
X177038740Y-58209513D01*
X177038734Y-58209517D01*
X176959517Y-58288734D01*
X176959515Y-58288737D01*
X176941787Y-58319442D01*
X176891218Y-58367656D01*
X176822611Y-58380877D01*
X176757747Y-58354908D01*
X176746843Y-58343872D01*
X176746232Y-58344484D01*
X176661265Y-58259517D01*
X176661263Y-58259515D01*
X176574664Y-58209517D01*
X176564239Y-58203498D01*
X176564238Y-58203497D01*
X176564237Y-58203497D01*
X176456018Y-58174500D01*
X176343982Y-58174500D01*
X176235763Y-58203497D01*
X176235760Y-58203498D01*
X176138740Y-58259513D01*
X176138734Y-58259517D01*
X176053768Y-58344484D01*
X176052422Y-58343138D01*
X176004440Y-58378169D01*
X175934694Y-58382319D01*
X175873776Y-58348103D01*
X175866797Y-58340049D01*
X175786265Y-58259517D01*
X175786263Y-58259515D01*
X175699664Y-58209517D01*
X175689239Y-58203498D01*
X175689238Y-58203497D01*
X175689237Y-58203497D01*
X175581018Y-58174500D01*
X175468982Y-58174500D01*
X175360763Y-58203497D01*
X175360760Y-58203498D01*
X175263740Y-58259513D01*
X175263734Y-58259517D01*
X175184517Y-58338734D01*
X175184513Y-58338740D01*
X175128498Y-58435760D01*
X175128497Y-58435763D01*
X175099500Y-58543982D01*
X175099500Y-58656018D01*
X175126097Y-58755278D01*
X175128497Y-58764236D01*
X175128498Y-58764239D01*
X175138246Y-58781123D01*
X175184515Y-58861263D01*
X175263737Y-58940485D01*
X175360763Y-58996503D01*
X175468982Y-59025500D01*
X175468984Y-59025500D01*
X175581016Y-59025500D01*
X175581018Y-59025500D01*
X175689237Y-58996503D01*
X175786263Y-58940485D01*
X175865485Y-58861263D01*
X175865485Y-58861262D01*
X175871232Y-58855516D01*
X175872579Y-58856863D01*
X175920548Y-58821834D01*
X175990294Y-58817677D01*
X176051215Y-58851887D01*
X176058197Y-58859945D01*
X176059514Y-58861262D01*
X176059515Y-58861263D01*
X176138737Y-58940485D01*
X176235763Y-58996503D01*
X176343982Y-59025500D01*
X176343984Y-59025500D01*
X176456016Y-59025500D01*
X176456018Y-59025500D01*
X176564237Y-58996503D01*
X176661263Y-58940485D01*
X176740485Y-58861263D01*
X176758211Y-58830559D01*
X176808777Y-58782345D01*
X176877384Y-58769121D01*
X176942249Y-58795089D01*
X176953157Y-58806126D01*
X176953768Y-58805516D01*
X176959515Y-58811263D01*
X177038737Y-58890485D01*
X177135763Y-58946503D01*
X177243982Y-58975500D01*
X177243984Y-58975500D01*
X177356015Y-58975500D01*
X177356018Y-58975500D01*
X177356020Y-58975499D01*
X177359812Y-58975000D01*
X177363019Y-58975500D01*
X177364145Y-58975500D01*
X177364145Y-58975675D01*
X177428848Y-58985764D01*
X177481104Y-59032143D01*
X177500000Y-59097939D01*
X177500000Y-60765582D01*
X177480315Y-60832621D01*
X177427511Y-60878376D01*
X177408097Y-60885356D01*
X177400201Y-60887472D01*
X177365858Y-60896674D01*
X177365856Y-60896675D01*
X177233446Y-60973121D01*
X177233441Y-60973125D01*
X177125326Y-61081240D01*
X177125322Y-61081245D01*
X177048876Y-61213655D01*
X177048875Y-61213656D01*
X177029088Y-61287503D01*
X177009301Y-61361349D01*
X177009301Y-61514251D01*
X177036772Y-61616772D01*
X177048875Y-61661943D01*
X177048876Y-61661944D01*
X177125322Y-61794354D01*
X177125324Y-61794357D01*
X177125325Y-61794358D01*
X177233443Y-61902476D01*
X177365859Y-61978926D01*
X177408094Y-61990243D01*
X177467754Y-62026607D01*
X177498283Y-62089454D01*
X177500000Y-62110017D01*
X177500000Y-62651000D01*
X177480315Y-62718039D01*
X177427511Y-62763794D01*
X177376000Y-62775000D01*
X171500000Y-62775000D01*
X171500000Y-64576000D01*
X171480315Y-64643039D01*
X171427511Y-64688794D01*
X171376000Y-64700000D01*
X169124000Y-64700000D01*
X169056961Y-64680315D01*
X169011206Y-64627511D01*
X169000000Y-64576000D01*
X169000000Y-63969999D01*
X170315729Y-63969999D01*
X170315729Y-64082035D01*
X170344726Y-64190254D01*
X170400744Y-64287280D01*
X170479966Y-64366502D01*
X170576992Y-64422520D01*
X170685211Y-64451517D01*
X170685213Y-64451517D01*
X170797245Y-64451517D01*
X170797247Y-64451517D01*
X170905466Y-64422520D01*
X171002492Y-64366502D01*
X171081714Y-64287280D01*
X171137732Y-64190254D01*
X171166729Y-64082035D01*
X171166729Y-63969999D01*
X171137732Y-63861780D01*
X171081714Y-63764754D01*
X171002492Y-63685532D01*
X170905466Y-63629514D01*
X170797247Y-63600517D01*
X170685211Y-63600517D01*
X170576992Y-63629514D01*
X170576989Y-63629515D01*
X170479969Y-63685530D01*
X170479963Y-63685534D01*
X170400746Y-63764751D01*
X170400742Y-63764757D01*
X170344727Y-63861777D01*
X170344726Y-63861780D01*
X170315729Y-63969999D01*
X169000000Y-63969999D01*
X169000000Y-61361349D01*
X171229299Y-61361349D01*
X171229299Y-61514251D01*
X171256770Y-61616772D01*
X171268873Y-61661943D01*
X171268874Y-61661944D01*
X171345320Y-61794354D01*
X171345322Y-61794357D01*
X171345323Y-61794358D01*
X171453441Y-61902476D01*
X171585857Y-61978926D01*
X171733548Y-62018500D01*
X171733551Y-62018500D01*
X171886447Y-62018500D01*
X171886450Y-62018500D01*
X172034141Y-61978926D01*
X172166557Y-61902476D01*
X172274675Y-61794358D01*
X172351125Y-61661942D01*
X172390699Y-61514251D01*
X172390699Y-61361349D01*
X172351125Y-61213658D01*
X172283021Y-61095697D01*
X172274677Y-61081245D01*
X172274673Y-61081240D01*
X172166558Y-60973125D01*
X172166553Y-60973121D01*
X172028867Y-60893629D01*
X171980652Y-60843063D01*
X171967428Y-60774456D01*
X171993396Y-60709591D01*
X172003170Y-60698577D01*
X172065485Y-60636263D01*
X172121503Y-60539237D01*
X172150500Y-60431018D01*
X172150500Y-60318982D01*
X172121503Y-60210763D01*
X172065485Y-60113737D01*
X171986263Y-60034515D01*
X171921579Y-59997169D01*
X171889239Y-59978498D01*
X171889238Y-59978497D01*
X171889237Y-59978497D01*
X171781018Y-59949500D01*
X171668982Y-59949500D01*
X171560763Y-59978497D01*
X171560760Y-59978498D01*
X171463740Y-60034513D01*
X171463734Y-60034517D01*
X171384517Y-60113734D01*
X171384513Y-60113740D01*
X171328498Y-60210760D01*
X171328497Y-60210763D01*
X171299500Y-60318982D01*
X171299500Y-60431018D01*
X171328497Y-60539237D01*
X171384515Y-60636263D01*
X171463737Y-60715485D01*
X171495711Y-60733945D01*
X171543926Y-60784512D01*
X171557150Y-60853119D01*
X171531182Y-60917983D01*
X171495711Y-60948719D01*
X171453444Y-60973121D01*
X171453439Y-60973125D01*
X171345324Y-61081240D01*
X171345320Y-61081245D01*
X171268874Y-61213655D01*
X171268873Y-61213656D01*
X171249086Y-61287503D01*
X171229299Y-61361349D01*
X169000000Y-61361349D01*
X169000000Y-59693982D01*
X169574500Y-59693982D01*
X169574500Y-59806018D01*
X169593252Y-59876000D01*
X169603497Y-59914236D01*
X169603498Y-59914239D01*
X169619935Y-59942709D01*
X169659515Y-60011263D01*
X169738737Y-60090485D01*
X169835763Y-60146503D01*
X169943982Y-60175500D01*
X169943984Y-60175500D01*
X170056016Y-60175500D01*
X170056018Y-60175500D01*
X170164237Y-60146503D01*
X170261263Y-60090485D01*
X170340485Y-60011263D01*
X170396503Y-59914237D01*
X170425500Y-59806018D01*
X170425500Y-59693982D01*
X170396503Y-59585763D01*
X170340485Y-59488737D01*
X170261263Y-59409515D01*
X170170353Y-59357028D01*
X170164239Y-59353498D01*
X170164238Y-59353497D01*
X170164237Y-59353497D01*
X170056018Y-59324500D01*
X169943982Y-59324500D01*
X169835763Y-59353497D01*
X169835760Y-59353498D01*
X169738740Y-59409513D01*
X169738734Y-59409517D01*
X169659517Y-59488734D01*
X169659513Y-59488740D01*
X169603498Y-59585760D01*
X169603497Y-59585763D01*
X169574500Y-59693982D01*
X169000000Y-59693982D01*
X169000000Y-59039745D01*
X170678737Y-59039745D01*
X170678737Y-59151781D01*
X170707734Y-59260000D01*
X170763752Y-59357026D01*
X170842974Y-59436248D01*
X170940000Y-59492266D01*
X171048219Y-59521263D01*
X171048221Y-59521263D01*
X171160253Y-59521263D01*
X171160255Y-59521263D01*
X171268474Y-59492266D01*
X171365500Y-59436248D01*
X171444722Y-59357026D01*
X171500740Y-59260000D01*
X171529737Y-59151781D01*
X171529737Y-59039745D01*
X171500740Y-58931526D01*
X171444722Y-58834500D01*
X171365500Y-58755278D01*
X171268474Y-58699260D01*
X171160255Y-58670263D01*
X171048219Y-58670263D01*
X170940000Y-58699260D01*
X170939997Y-58699261D01*
X170842977Y-58755276D01*
X170842971Y-58755280D01*
X170763754Y-58834497D01*
X170763750Y-58834503D01*
X170707735Y-58931523D01*
X170707734Y-58931526D01*
X170678737Y-59039745D01*
X169000000Y-59039745D01*
X169000000Y-57849503D01*
X170823714Y-57849503D01*
X170823714Y-57961539D01*
X170852711Y-58069758D01*
X170908729Y-58166784D01*
X170987951Y-58246006D01*
X171084977Y-58302024D01*
X171193196Y-58331021D01*
X171193198Y-58331021D01*
X171305230Y-58331021D01*
X171305232Y-58331021D01*
X171413451Y-58302024D01*
X171510477Y-58246006D01*
X171589699Y-58166784D01*
X171645717Y-58069758D01*
X171674714Y-57961539D01*
X171674714Y-57849503D01*
X171645717Y-57741284D01*
X171589699Y-57644258D01*
X171510477Y-57565036D01*
X171413451Y-57509018D01*
X171305232Y-57480021D01*
X171193196Y-57480021D01*
X171084977Y-57509018D01*
X171084974Y-57509019D01*
X170987954Y-57565034D01*
X170987948Y-57565038D01*
X170908731Y-57644255D01*
X170908727Y-57644261D01*
X170852712Y-57741281D01*
X170852711Y-57741284D01*
X170823714Y-57849503D01*
X169000000Y-57849503D01*
X169000000Y-54374500D01*
X169019685Y-54307461D01*
X169072489Y-54261706D01*
X169124000Y-54250500D01*
X177376000Y-54250500D01*
X177443039Y-54270185D01*
G37*
%TD.AperFunction*%
%TD*%
%TA.AperFunction,Conductor*%
%TO.N,VIN_JUMP*%
G36*
X180964439Y-68271687D02*
G01*
X180966094Y-68272173D01*
X180966096Y-68272173D01*
X180966102Y-68272175D01*
X181024000Y-68280500D01*
X181200500Y-68280500D01*
X181267539Y-68300185D01*
X181313294Y-68352989D01*
X181324500Y-68404500D01*
X181324500Y-68506018D01*
X181353497Y-68614237D01*
X181409515Y-68711263D01*
X181488737Y-68790485D01*
X181585763Y-68846503D01*
X181693982Y-68875500D01*
X181693984Y-68875500D01*
X181806016Y-68875500D01*
X181806018Y-68875500D01*
X181914237Y-68846503D01*
X182011263Y-68790485D01*
X182090485Y-68711263D01*
X182146503Y-68614237D01*
X182175500Y-68506018D01*
X182175500Y-68404500D01*
X182195185Y-68337461D01*
X182247989Y-68291706D01*
X182299500Y-68280500D01*
X182847602Y-68280500D01*
X182914641Y-68300185D01*
X182960396Y-68352989D01*
X182970340Y-68422147D01*
X182963783Y-68447835D01*
X182956403Y-68467619D01*
X182956401Y-68467627D01*
X182950000Y-68527155D01*
X182950000Y-69175000D01*
X183866988Y-69175000D01*
X183834075Y-69232007D01*
X183800000Y-69359174D01*
X183800000Y-69490826D01*
X183834075Y-69617993D01*
X183866988Y-69675000D01*
X182950000Y-69675000D01*
X182950000Y-69914877D01*
X182930315Y-69981916D01*
X182877511Y-70027671D01*
X182808353Y-70037615D01*
X182793908Y-70034652D01*
X182756019Y-70024500D01*
X182756018Y-70024500D01*
X182643982Y-70024500D01*
X182535763Y-70053497D01*
X182535760Y-70053498D01*
X182438740Y-70109513D01*
X182438734Y-70109517D01*
X182359517Y-70188734D01*
X182359513Y-70188740D01*
X182303498Y-70285760D01*
X182303497Y-70285763D01*
X182274500Y-70393982D01*
X182274500Y-70506018D01*
X182303497Y-70614237D01*
X182359515Y-70711263D01*
X182438737Y-70790485D01*
X182535763Y-70846503D01*
X182643982Y-70875500D01*
X182643984Y-70875500D01*
X182756016Y-70875500D01*
X182756018Y-70875500D01*
X182864237Y-70846503D01*
X182961263Y-70790485D01*
X183032133Y-70719614D01*
X183093452Y-70686132D01*
X183163144Y-70691116D01*
X183194120Y-70708030D01*
X183207907Y-70718351D01*
X183207913Y-70718354D01*
X183342620Y-70768596D01*
X183342627Y-70768598D01*
X183402155Y-70774999D01*
X183402172Y-70775000D01*
X184050000Y-70775000D01*
X184050000Y-69858012D01*
X184107007Y-69890925D01*
X184234174Y-69925000D01*
X184365826Y-69925000D01*
X184492993Y-69890925D01*
X184550000Y-69858012D01*
X184550000Y-70775000D01*
X185197828Y-70775000D01*
X185197844Y-70774999D01*
X185257372Y-70768598D01*
X185257379Y-70768596D01*
X185392086Y-70718354D01*
X185392093Y-70718350D01*
X185507187Y-70632190D01*
X185507190Y-70632187D01*
X185593350Y-70517093D01*
X185593354Y-70517086D01*
X185643596Y-70382379D01*
X185643598Y-70382372D01*
X185649999Y-70322844D01*
X185650000Y-70322827D01*
X185650000Y-69675000D01*
X184733012Y-69675000D01*
X184765925Y-69617993D01*
X184800000Y-69490826D01*
X184800000Y-69359174D01*
X184765925Y-69232007D01*
X184733012Y-69175000D01*
X185650000Y-69175000D01*
X185650000Y-68527172D01*
X185649999Y-68527155D01*
X185643598Y-68467627D01*
X185643596Y-68467619D01*
X185636217Y-68447835D01*
X185631231Y-68378144D01*
X185664715Y-68316820D01*
X185726038Y-68283334D01*
X185752398Y-68280500D01*
X186625500Y-68280500D01*
X186692539Y-68300185D01*
X186738294Y-68352989D01*
X186749500Y-68404500D01*
X186749500Y-76243038D01*
X186748720Y-76256923D01*
X186738540Y-76347264D01*
X186732362Y-76374333D01*
X186704648Y-76453537D01*
X186692600Y-76478555D01*
X186647957Y-76549604D01*
X186630644Y-76571313D01*
X186571313Y-76630644D01*
X186549604Y-76647957D01*
X186478555Y-76692600D01*
X186453537Y-76704648D01*
X186374333Y-76732362D01*
X186347264Y-76738540D01*
X186267075Y-76747576D01*
X186256921Y-76748720D01*
X186243038Y-76749500D01*
X171124000Y-76749500D01*
X171056961Y-76729815D01*
X171011206Y-76677011D01*
X171000000Y-76625500D01*
X171000000Y-74624000D01*
X171019685Y-74556961D01*
X171072489Y-74511206D01*
X171124000Y-74500000D01*
X180124560Y-74500000D01*
X180191599Y-74519685D01*
X180237354Y-74572489D01*
X180247298Y-74641647D01*
X180231947Y-74686000D01*
X180200227Y-74740940D01*
X180200226Y-74740943D01*
X180171229Y-74849162D01*
X180171229Y-74961198D01*
X180200226Y-75069417D01*
X180256244Y-75166443D01*
X180335466Y-75245665D01*
X180432492Y-75301683D01*
X180540711Y-75330680D01*
X180540713Y-75330680D01*
X180652745Y-75330680D01*
X180652747Y-75330680D01*
X180760966Y-75301683D01*
X180857992Y-75245665D01*
X180937214Y-75166443D01*
X180993232Y-75069417D01*
X181022229Y-74961198D01*
X181022229Y-74849162D01*
X180993232Y-74740943D01*
X180937214Y-74643917D01*
X180857992Y-74564695D01*
X180811998Y-74538140D01*
X180803715Y-74529453D01*
X180792797Y-74524467D01*
X180780051Y-74504634D01*
X180763784Y-74487573D01*
X180760568Y-74474317D01*
X180755023Y-74465689D01*
X180750000Y-74430754D01*
X180750000Y-74332404D01*
X180765781Y-74271869D01*
X180777490Y-74250937D01*
X180797175Y-74183898D01*
X180805500Y-74126000D01*
X180805500Y-73862332D01*
X181899500Y-73862332D01*
X181899500Y-74137667D01*
X181899501Y-74137684D01*
X181935438Y-74410655D01*
X181935439Y-74410660D01*
X181935440Y-74410666D01*
X181964651Y-74519685D01*
X182006704Y-74676630D01*
X182112075Y-74931017D01*
X182112080Y-74931028D01*
X182191980Y-75069417D01*
X182249751Y-75169479D01*
X182249753Y-75169482D01*
X182249754Y-75169483D01*
X182417370Y-75387926D01*
X182417376Y-75387933D01*
X182612066Y-75582623D01*
X182612072Y-75582628D01*
X182830521Y-75750249D01*
X182983778Y-75838732D01*
X183068971Y-75887919D01*
X183068976Y-75887921D01*
X183068979Y-75887923D01*
X183323368Y-75993295D01*
X183589334Y-76064560D01*
X183862326Y-76100500D01*
X183862333Y-76100500D01*
X184137667Y-76100500D01*
X184137674Y-76100500D01*
X184410666Y-76064560D01*
X184676632Y-75993295D01*
X184931021Y-75887923D01*
X185169479Y-75750249D01*
X185387928Y-75582628D01*
X185582628Y-75387928D01*
X185750249Y-75169479D01*
X185887923Y-74931021D01*
X185993295Y-74676632D01*
X186064560Y-74410666D01*
X186100500Y-74137674D01*
X186100500Y-73862326D01*
X186064560Y-73589334D01*
X185993295Y-73323368D01*
X185887923Y-73068979D01*
X185887921Y-73068976D01*
X185887919Y-73068971D01*
X185825419Y-72960719D01*
X185750249Y-72830521D01*
X185623272Y-72665041D01*
X185582629Y-72612073D01*
X185582623Y-72612066D01*
X185387933Y-72417376D01*
X185387926Y-72417370D01*
X185169483Y-72249754D01*
X185169482Y-72249753D01*
X185169479Y-72249751D01*
X185074407Y-72194861D01*
X184931028Y-72112080D01*
X184931017Y-72112075D01*
X184676630Y-72006704D01*
X184543649Y-71971072D01*
X184410666Y-71935440D01*
X184410660Y-71935439D01*
X184410655Y-71935438D01*
X184137684Y-71899501D01*
X184137679Y-71899500D01*
X184137674Y-71899500D01*
X183862326Y-71899500D01*
X183862320Y-71899500D01*
X183862315Y-71899501D01*
X183589344Y-71935438D01*
X183589337Y-71935439D01*
X183589334Y-71935440D01*
X183533125Y-71950500D01*
X183323369Y-72006704D01*
X183068982Y-72112075D01*
X183068971Y-72112080D01*
X182830516Y-72249754D01*
X182612073Y-72417370D01*
X182612066Y-72417376D01*
X182417376Y-72612066D01*
X182417370Y-72612073D01*
X182249754Y-72830516D01*
X182112080Y-73068971D01*
X182112075Y-73068982D01*
X182006704Y-73323369D01*
X181935441Y-73589331D01*
X181935438Y-73589344D01*
X181899501Y-73862315D01*
X181899500Y-73862332D01*
X180805500Y-73862332D01*
X180805500Y-73051062D01*
X180825185Y-72984023D01*
X180841819Y-72963381D01*
X180844481Y-72960719D01*
X180900499Y-72863693D01*
X180929496Y-72755474D01*
X180929496Y-72643438D01*
X180900499Y-72535219D01*
X180844481Y-72438193D01*
X180841819Y-72435531D01*
X180840292Y-72432735D01*
X180839534Y-72431747D01*
X180839688Y-72431628D01*
X180808334Y-72374208D01*
X180805500Y-72347850D01*
X180805500Y-71443982D01*
X184824500Y-71443982D01*
X184824500Y-71556018D01*
X184853497Y-71664237D01*
X184909515Y-71761263D01*
X184988737Y-71840485D01*
X185085763Y-71896503D01*
X185193982Y-71925500D01*
X185193984Y-71925500D01*
X185306016Y-71925500D01*
X185306018Y-71925500D01*
X185414237Y-71896503D01*
X185511263Y-71840485D01*
X185590485Y-71761263D01*
X185646503Y-71664237D01*
X185675500Y-71556018D01*
X185675500Y-71443982D01*
X185646503Y-71335763D01*
X185590485Y-71238737D01*
X185511263Y-71159515D01*
X185414237Y-71103497D01*
X185306018Y-71074500D01*
X185193982Y-71074500D01*
X185085763Y-71103497D01*
X185085760Y-71103498D01*
X184988740Y-71159513D01*
X184988734Y-71159517D01*
X184909517Y-71238734D01*
X184909513Y-71238740D01*
X184853498Y-71335760D01*
X184853497Y-71335763D01*
X184824500Y-71443982D01*
X180805500Y-71443982D01*
X180805500Y-68390663D01*
X180825185Y-68323624D01*
X180877989Y-68277869D01*
X180947147Y-68267925D01*
X180964439Y-68271687D01*
G37*
%TD.AperFunction*%
%TD*%
M02*
