%TF.GenerationSoftware,KiCad,Pcbnew,9.0.4*%
%TF.CreationDate,2026-09-02T17:06:16-04:00*%
%TF.ProjectId,magnetometer_v1,6d61676e-6574-46f6-9d65-7465725f7631,rev?*%
%TF.SameCoordinates,Original*%
%TF.FileFunction,Copper,L2,Inr*%
%TF.FilePolarity,Positive*%
%FSLAX46Y46*%
G04 Gerber Fmt 4.6, Leading zero omitted, Abs format (unit mm)*
G04 Created by KiCad (PCBNEW 9.0.4) date 2026-09-02 17:06:16*
%MOMM*%
%LPD*%
G01*
G04 APERTURE LIST*
%TA.AperFunction,ComponentPad*%
%ADD10C,3.800000*%
%TD*%
%TA.AperFunction,ComponentPad*%
%ADD11R,1.700000X1.700000*%
%TD*%
%TA.AperFunction,ComponentPad*%
%ADD12C,1.700000*%
%TD*%
%TA.AperFunction,ViaPad*%
%ADD13C,0.450000*%
%TD*%
G04 APERTURE END LIST*
D10*
%TO.N,GND*%
%TO.C,H4*%
X184000000Y-74000000D03*
%TD*%
%TO.N,GND*%
%TO.C,H1*%
X162000000Y-57000000D03*
%TD*%
%TO.N,GND*%
%TO.C,H3*%
X162000000Y-74000000D03*
%TD*%
D11*
%TO.N,Net-(D1-A)*%
%TO.C,J1*%
X164150000Y-69320000D03*
D12*
%TO.N,GND*%
X161610000Y-69320000D03*
%TO.N,CAN-*%
X164150000Y-66780000D03*
X161610000Y-66780000D03*
%TO.N,CAN+*%
X164150000Y-64240000D03*
X161610000Y-64240000D03*
%TO.N,GND*%
X164150000Y-61700000D03*
%TO.N,5v*%
X161610000Y-61700000D03*
%TD*%
D10*
%TO.N,GND*%
%TO.C,H2*%
X184000000Y-57000000D03*
%TD*%
D11*
%TO.N,VIN_JUMP*%
%TO.C,J3*%
X184300000Y-69425000D03*
D12*
%TO.N,VIN_SEL*%
X184300000Y-66885000D03*
%TD*%
D13*
%TO.N,GND*%
X175525000Y-58600000D03*
X178650000Y-68494700D03*
X172166416Y-64616416D03*
X171725000Y-60375000D03*
X173950000Y-72175000D03*
X183303224Y-64565887D03*
X182725000Y-59075000D03*
X185250000Y-71500000D03*
X166275000Y-59025000D03*
X185275000Y-60500000D03*
X177960000Y-60470866D03*
X171104237Y-59095763D03*
X176400000Y-58600000D03*
X174375000Y-71675000D03*
X182700000Y-70450000D03*
X179150000Y-54950000D03*
X170000000Y-59750000D03*
X170900000Y-68000000D03*
X177300000Y-58550000D03*
X177193500Y-66269862D03*
X172200000Y-65797597D03*
X171249214Y-57905521D03*
X185125000Y-59625000D03*
X181463116Y-65957177D03*
X172100000Y-72800000D03*
X181461499Y-62500000D03*
X170350000Y-68375000D03*
X180596729Y-74905180D03*
X177750000Y-57100000D03*
X170741229Y-64026017D03*
X185300000Y-63150000D03*
%TO.N,VIN_SEL*%
X180950000Y-55600000D03*
X178525000Y-55950000D03*
%TO.N,3v3*%
X179400377Y-68174356D03*
X179675630Y-73795000D03*
X178263217Y-63580875D03*
X180147414Y-60290186D03*
X172350001Y-63584302D03*
X180145999Y-59511102D03*
X168039496Y-63108901D03*
X179750000Y-63650000D03*
X179625000Y-59875000D03*
X180503996Y-72699456D03*
%TO.N,Net-(C15-Pad1)*%
X166500000Y-58100000D03*
X167383500Y-62375000D03*
%TO.N,BOOT0*%
X177194500Y-67600000D03*
%TO.N,5v*%
X173093454Y-69738964D03*
X165500000Y-73500000D03*
%TO.N,MISO*%
X177125000Y-71957772D03*
%TO.N,NRST*%
X181750000Y-68450000D03*
%TO.N,!ALERT*%
X177850000Y-68275000D03*
%TO.N,USB_D-*%
X175728712Y-68728788D03*
%TO.N,!CS*%
X174800000Y-66500000D03*
%TO.N,USB_D+*%
X175728712Y-68113788D03*
%TO.N,SCLK*%
X177134526Y-70923755D03*
%TO.N,MOSI*%
X176375000Y-71175000D03*
%TO.N,VBUS*%
X176475000Y-61275000D03*
X169600000Y-64150000D03*
X172700000Y-61175000D03*
%TO.N,VIN_JUMP*%
X171500000Y-75000000D03*
%TD*%
%TA.AperFunction,Conductor*%
%TO.N,GND*%
G36*
X186256922Y-54251280D02*
G01*
X186347266Y-54261459D01*
X186374331Y-54267636D01*
X186453540Y-54295352D01*
X186478553Y-54307398D01*
X186549606Y-54352043D01*
X186571313Y-54369355D01*
X186630644Y-54428686D01*
X186647957Y-54450395D01*
X186692600Y-54521444D01*
X186704648Y-54546462D01*
X186732362Y-54625666D01*
X186738540Y-54652735D01*
X186748720Y-54743076D01*
X186749500Y-54756961D01*
X186749500Y-76243038D01*
X186748720Y-76256922D01*
X186748720Y-76256923D01*
X186738540Y-76347264D01*
X186732362Y-76374333D01*
X186704648Y-76453537D01*
X186692600Y-76478555D01*
X186647957Y-76549604D01*
X186630644Y-76571313D01*
X186571313Y-76630644D01*
X186549604Y-76647957D01*
X186478555Y-76692600D01*
X186453537Y-76704648D01*
X186374333Y-76732362D01*
X186347264Y-76738540D01*
X186267075Y-76747576D01*
X186256921Y-76748720D01*
X186243038Y-76749500D01*
X159756962Y-76749500D01*
X159743078Y-76748720D01*
X159730553Y-76747308D01*
X159652735Y-76738540D01*
X159625666Y-76732362D01*
X159546462Y-76704648D01*
X159521444Y-76692600D01*
X159450395Y-76647957D01*
X159428686Y-76630644D01*
X159369355Y-76571313D01*
X159352042Y-76549604D01*
X159307399Y-76478555D01*
X159295351Y-76453537D01*
X159267637Y-76374333D01*
X159261459Y-76347263D01*
X159251280Y-76256922D01*
X159250500Y-76243038D01*
X159250500Y-74943982D01*
X171074500Y-74943982D01*
X171074500Y-75056018D01*
X171103497Y-75164237D01*
X171159515Y-75261263D01*
X171238737Y-75340485D01*
X171335763Y-75396503D01*
X171443982Y-75425500D01*
X171443984Y-75425500D01*
X171556016Y-75425500D01*
X171556018Y-75425500D01*
X171664237Y-75396503D01*
X171761263Y-75340485D01*
X171840485Y-75261263D01*
X171896503Y-75164237D01*
X171925500Y-75056018D01*
X171925500Y-74943982D01*
X171896503Y-74835763D01*
X171840485Y-74738737D01*
X171761263Y-74659515D01*
X171664237Y-74603497D01*
X171556018Y-74574500D01*
X171443982Y-74574500D01*
X171335763Y-74603497D01*
X171335760Y-74603498D01*
X171238740Y-74659513D01*
X171238734Y-74659517D01*
X171159517Y-74738734D01*
X171159513Y-74738740D01*
X171103498Y-74835760D01*
X171103497Y-74835763D01*
X171074500Y-74943982D01*
X159250500Y-74943982D01*
X159250500Y-73443982D01*
X165074500Y-73443982D01*
X165074500Y-73556018D01*
X165103497Y-73664237D01*
X165159515Y-73761263D01*
X165238737Y-73840485D01*
X165335763Y-73896503D01*
X165443982Y-73925500D01*
X165443984Y-73925500D01*
X165556016Y-73925500D01*
X165556018Y-73925500D01*
X165664237Y-73896503D01*
X165761263Y-73840485D01*
X165840485Y-73761263D01*
X165853349Y-73738982D01*
X179250130Y-73738982D01*
X179250130Y-73851018D01*
X179279127Y-73959237D01*
X179335145Y-74056263D01*
X179414367Y-74135485D01*
X179511393Y-74191503D01*
X179619612Y-74220500D01*
X179619614Y-74220500D01*
X179731646Y-74220500D01*
X179731648Y-74220500D01*
X179839867Y-74191503D01*
X179936893Y-74135485D01*
X180016115Y-74056263D01*
X180072133Y-73959237D01*
X180101130Y-73851018D01*
X180101130Y-73738982D01*
X180072133Y-73630763D01*
X180016115Y-73533737D01*
X179936893Y-73454515D01*
X179839867Y-73398497D01*
X179731648Y-73369500D01*
X179619612Y-73369500D01*
X179511393Y-73398497D01*
X179511390Y-73398498D01*
X179414370Y-73454513D01*
X179414364Y-73454517D01*
X179335147Y-73533734D01*
X179335143Y-73533740D01*
X179279128Y-73630760D01*
X179279127Y-73630763D01*
X179250130Y-73738982D01*
X165853349Y-73738982D01*
X165896503Y-73664237D01*
X165925500Y-73556018D01*
X165925500Y-73443982D01*
X165896503Y-73335763D01*
X165840485Y-73238737D01*
X165761263Y-73159515D01*
X165664237Y-73103497D01*
X165556018Y-73074500D01*
X165443982Y-73074500D01*
X165335763Y-73103497D01*
X165335760Y-73103498D01*
X165238740Y-73159513D01*
X165238734Y-73159517D01*
X165159517Y-73238734D01*
X165159513Y-73238740D01*
X165103498Y-73335760D01*
X165103497Y-73335763D01*
X165074500Y-73443982D01*
X159250500Y-73443982D01*
X159250500Y-72643438D01*
X180078496Y-72643438D01*
X180078496Y-72755474D01*
X180107493Y-72863693D01*
X180163511Y-72960719D01*
X180242733Y-73039941D01*
X180339759Y-73095959D01*
X180447978Y-73124956D01*
X180447980Y-73124956D01*
X180560012Y-73124956D01*
X180560014Y-73124956D01*
X180668233Y-73095959D01*
X180765259Y-73039941D01*
X180844481Y-72960719D01*
X180900499Y-72863693D01*
X180929496Y-72755474D01*
X180929496Y-72643438D01*
X180900499Y-72535219D01*
X180844481Y-72438193D01*
X180765259Y-72358971D01*
X180668233Y-72302953D01*
X180560014Y-72273956D01*
X180447978Y-72273956D01*
X180339759Y-72302953D01*
X180339756Y-72302954D01*
X180242736Y-72358969D01*
X180242730Y-72358973D01*
X180163513Y-72438190D01*
X180163509Y-72438196D01*
X180107494Y-72535216D01*
X180107493Y-72535219D01*
X180078496Y-72643438D01*
X159250500Y-72643438D01*
X159250500Y-71118982D01*
X175949500Y-71118982D01*
X175949500Y-71231017D01*
X175978497Y-71339236D01*
X175978498Y-71339239D01*
X175984281Y-71349255D01*
X176034515Y-71436263D01*
X176113737Y-71515485D01*
X176210763Y-71571503D01*
X176318982Y-71600500D01*
X176318984Y-71600500D01*
X176431016Y-71600500D01*
X176431018Y-71600500D01*
X176539237Y-71571503D01*
X176614639Y-71527969D01*
X176682537Y-71511496D01*
X176748564Y-71534348D01*
X176791755Y-71589269D01*
X176798397Y-71658822D01*
X176784026Y-71697355D01*
X176728497Y-71793534D01*
X176728497Y-71793535D01*
X176699500Y-71901754D01*
X176699500Y-72013790D01*
X176728497Y-72122009D01*
X176784515Y-72219035D01*
X176863737Y-72298257D01*
X176960763Y-72354275D01*
X177068982Y-72383272D01*
X177068984Y-72383272D01*
X177181016Y-72383272D01*
X177181018Y-72383272D01*
X177289237Y-72354275D01*
X177386263Y-72298257D01*
X177465485Y-72219035D01*
X177521503Y-72122009D01*
X177550500Y-72013790D01*
X177550500Y-71901754D01*
X177521503Y-71793535D01*
X177465485Y-71696509D01*
X177386263Y-71617287D01*
X177289237Y-71561269D01*
X177289235Y-71561268D01*
X177281730Y-71558160D01*
X177282444Y-71556436D01*
X177231603Y-71525440D01*
X177201080Y-71462590D01*
X177209381Y-71393215D01*
X177253872Y-71339342D01*
X177291269Y-71322265D01*
X177298763Y-71320258D01*
X177395789Y-71264240D01*
X177475011Y-71185018D01*
X177531029Y-71087992D01*
X177560026Y-70979773D01*
X177560026Y-70867737D01*
X177531029Y-70759518D01*
X177475011Y-70662492D01*
X177395789Y-70583270D01*
X177298763Y-70527252D01*
X177190544Y-70498255D01*
X177078508Y-70498255D01*
X176970289Y-70527252D01*
X176970286Y-70527253D01*
X176873266Y-70583268D01*
X176873260Y-70583272D01*
X176794043Y-70662489D01*
X176794039Y-70662495D01*
X176742108Y-70752442D01*
X176691541Y-70800658D01*
X176622934Y-70813880D01*
X176572721Y-70797829D01*
X176539239Y-70778498D01*
X176539238Y-70778497D01*
X176539237Y-70778497D01*
X176431018Y-70749500D01*
X176318982Y-70749500D01*
X176210763Y-70778497D01*
X176210760Y-70778498D01*
X176113740Y-70834513D01*
X176113734Y-70834517D01*
X176034517Y-70913734D01*
X176034513Y-70913740D01*
X175978498Y-71010760D01*
X175978497Y-71010763D01*
X175949500Y-71118982D01*
X159250500Y-71118982D01*
X159250500Y-69213753D01*
X160260000Y-69213753D01*
X160260000Y-69426246D01*
X160293242Y-69636127D01*
X160293242Y-69636130D01*
X160358904Y-69838217D01*
X160455375Y-70027550D01*
X160494728Y-70081716D01*
X161127037Y-69449408D01*
X161144075Y-69512993D01*
X161209901Y-69627007D01*
X161302993Y-69720099D01*
X161417007Y-69785925D01*
X161480590Y-69802962D01*
X160848282Y-70435269D01*
X160848282Y-70435270D01*
X160902449Y-70474624D01*
X161091782Y-70571095D01*
X161293870Y-70636757D01*
X161503754Y-70670000D01*
X161716246Y-70670000D01*
X161926127Y-70636757D01*
X161926130Y-70636757D01*
X162128217Y-70571095D01*
X162317554Y-70474622D01*
X162371716Y-70435270D01*
X162371717Y-70435270D01*
X161739408Y-69802962D01*
X161802993Y-69785925D01*
X161917007Y-69720099D01*
X162010099Y-69627007D01*
X162075925Y-69512993D01*
X162092962Y-69449408D01*
X162725270Y-70081717D01*
X162725270Y-70081716D01*
X162764622Y-70027554D01*
X162863306Y-69833879D01*
X162864321Y-69834396D01*
X162904779Y-69784192D01*
X162971073Y-69762127D01*
X163038772Y-69779406D01*
X163086383Y-69830542D01*
X163099500Y-69886048D01*
X163099500Y-70189752D01*
X163111131Y-70248229D01*
X163111132Y-70248230D01*
X163155447Y-70314552D01*
X163221769Y-70358867D01*
X163221770Y-70358868D01*
X163280247Y-70370499D01*
X163280250Y-70370500D01*
X163280252Y-70370500D01*
X165019750Y-70370500D01*
X165019751Y-70370499D01*
X165034568Y-70367552D01*
X165078229Y-70358868D01*
X165078229Y-70358867D01*
X165078231Y-70358867D01*
X165144552Y-70314552D01*
X165188867Y-70248231D01*
X165188867Y-70248229D01*
X165188868Y-70248229D01*
X165200499Y-70189752D01*
X165200500Y-70189750D01*
X165200500Y-69682946D01*
X172667954Y-69682946D01*
X172667954Y-69794982D01*
X172696951Y-69903201D01*
X172752969Y-70000227D01*
X172832191Y-70079449D01*
X172929217Y-70135467D01*
X173037436Y-70164464D01*
X173037438Y-70164464D01*
X173149470Y-70164464D01*
X173149472Y-70164464D01*
X173257691Y-70135467D01*
X173354717Y-70079449D01*
X173433939Y-70000227D01*
X173489957Y-69903201D01*
X173518954Y-69794982D01*
X173518954Y-69682946D01*
X173489957Y-69574727D01*
X173433939Y-69477701D01*
X173354717Y-69398479D01*
X173257691Y-69342461D01*
X173149472Y-69313464D01*
X173037436Y-69313464D01*
X172929217Y-69342461D01*
X172929214Y-69342462D01*
X172832194Y-69398477D01*
X172832188Y-69398481D01*
X172752971Y-69477698D01*
X172752967Y-69477704D01*
X172696952Y-69574724D01*
X172696951Y-69574727D01*
X172667954Y-69682946D01*
X165200500Y-69682946D01*
X165200500Y-68450249D01*
X165200499Y-68450247D01*
X165188868Y-68391770D01*
X165188867Y-68391769D01*
X165144552Y-68325447D01*
X165078230Y-68281132D01*
X165078229Y-68281131D01*
X165019752Y-68269500D01*
X165019748Y-68269500D01*
X163280252Y-68269500D01*
X163280247Y-68269500D01*
X163221770Y-68281131D01*
X163221769Y-68281132D01*
X163155447Y-68325447D01*
X163111132Y-68391769D01*
X163111131Y-68391770D01*
X163099500Y-68450247D01*
X163099500Y-68753951D01*
X163079815Y-68820990D01*
X163027011Y-68866745D01*
X162957853Y-68876689D01*
X162894297Y-68847664D01*
X162864061Y-68805736D01*
X162863306Y-68806121D01*
X162764624Y-68612449D01*
X162725270Y-68558282D01*
X162725269Y-68558282D01*
X162092962Y-69190590D01*
X162075925Y-69127007D01*
X162010099Y-69012993D01*
X161917007Y-68919901D01*
X161802993Y-68854075D01*
X161739409Y-68837037D01*
X162371716Y-68204728D01*
X162317550Y-68165375D01*
X162307252Y-68160128D01*
X162128216Y-68068904D01*
X162093949Y-68057770D01*
X175303212Y-68057770D01*
X175303212Y-68169806D01*
X175316388Y-68218977D01*
X175332209Y-68278024D01*
X175332210Y-68278027D01*
X175379126Y-68359288D01*
X175395599Y-68427188D01*
X175379126Y-68483288D01*
X175332210Y-68564548D01*
X175332209Y-68564551D01*
X175303212Y-68672770D01*
X175303212Y-68784806D01*
X175332209Y-68893025D01*
X175388227Y-68990051D01*
X175467449Y-69069273D01*
X175564475Y-69125291D01*
X175672694Y-69154288D01*
X175672696Y-69154288D01*
X175784728Y-69154288D01*
X175784730Y-69154288D01*
X175892949Y-69125291D01*
X175989975Y-69069273D01*
X176069197Y-68990051D01*
X176125215Y-68893025D01*
X176154212Y-68784806D01*
X176154212Y-68672770D01*
X176125215Y-68564551D01*
X176078296Y-68483284D01*
X176061824Y-68415389D01*
X176078295Y-68359291D01*
X176125215Y-68278025D01*
X176154212Y-68169806D01*
X176154212Y-68057770D01*
X176125215Y-67949551D01*
X176069197Y-67852525D01*
X175989975Y-67773303D01*
X175892949Y-67717285D01*
X175784730Y-67688288D01*
X175672694Y-67688288D01*
X175564475Y-67717285D01*
X175564472Y-67717286D01*
X175467452Y-67773301D01*
X175467446Y-67773305D01*
X175388229Y-67852522D01*
X175388225Y-67852528D01*
X175332210Y-67949548D01*
X175332209Y-67949551D01*
X175303212Y-68057770D01*
X162093949Y-68057770D01*
X161952026Y-68011656D01*
X161894350Y-67972218D01*
X161867152Y-67907860D01*
X161879067Y-67839013D01*
X161926311Y-67787538D01*
X161942882Y-67779168D01*
X162107598Y-67710941D01*
X162279655Y-67595977D01*
X162425977Y-67449655D01*
X162540941Y-67277598D01*
X162620130Y-67086420D01*
X162660500Y-66883465D01*
X162660500Y-66676535D01*
X162660499Y-66676530D01*
X163099500Y-66676530D01*
X163099500Y-66883469D01*
X163139868Y-67086412D01*
X163139870Y-67086420D01*
X163211569Y-67259517D01*
X163219059Y-67277598D01*
X163276541Y-67363626D01*
X163334024Y-67449657D01*
X163480342Y-67595975D01*
X163480345Y-67595977D01*
X163652402Y-67710941D01*
X163843580Y-67790130D01*
X164008855Y-67823005D01*
X164046530Y-67830499D01*
X164046534Y-67830500D01*
X164046535Y-67830500D01*
X164253466Y-67830500D01*
X164253467Y-67830499D01*
X164456420Y-67790130D01*
X164647598Y-67710941D01*
X164819655Y-67595977D01*
X164871650Y-67543982D01*
X176769000Y-67543982D01*
X176769000Y-67656018D01*
X176797997Y-67764237D01*
X176854015Y-67861263D01*
X176933237Y-67940485D01*
X177030263Y-67996503D01*
X177138482Y-68025500D01*
X177138484Y-68025500D01*
X177250516Y-68025500D01*
X177250518Y-68025500D01*
X177286356Y-68015897D01*
X177356202Y-68017558D01*
X177414065Y-68056719D01*
X177441571Y-68120947D01*
X177438223Y-68167762D01*
X177424500Y-68218977D01*
X177424500Y-68218982D01*
X177424500Y-68331018D01*
X177452527Y-68435615D01*
X177453497Y-68439236D01*
X177453498Y-68439239D01*
X177469829Y-68467525D01*
X177509515Y-68536263D01*
X177588737Y-68615485D01*
X177685763Y-68671503D01*
X177793982Y-68700500D01*
X177793984Y-68700500D01*
X177906016Y-68700500D01*
X177906018Y-68700500D01*
X178014237Y-68671503D01*
X178111263Y-68615485D01*
X178190485Y-68536263D01*
X178246503Y-68439237D01*
X178275500Y-68331018D01*
X178275500Y-68218982D01*
X178248533Y-68118338D01*
X178974877Y-68118338D01*
X178974877Y-68230374D01*
X179003874Y-68338593D01*
X179059892Y-68435619D01*
X179139114Y-68514841D01*
X179236140Y-68570859D01*
X179344359Y-68599856D01*
X179344361Y-68599856D01*
X179456393Y-68599856D01*
X179456395Y-68599856D01*
X179564614Y-68570859D01*
X179661640Y-68514841D01*
X179740862Y-68435619D01*
X179764901Y-68393982D01*
X181324500Y-68393982D01*
X181324500Y-68506018D01*
X181349644Y-68599855D01*
X181353497Y-68614236D01*
X181353498Y-68614239D01*
X181354218Y-68615486D01*
X181409515Y-68711263D01*
X181488737Y-68790485D01*
X181585763Y-68846503D01*
X181693982Y-68875500D01*
X181693984Y-68875500D01*
X181806016Y-68875500D01*
X181806018Y-68875500D01*
X181914237Y-68846503D01*
X182011263Y-68790485D01*
X182090485Y-68711263D01*
X182146503Y-68614237D01*
X182162309Y-68555247D01*
X183249500Y-68555247D01*
X183249500Y-70294752D01*
X183261131Y-70353229D01*
X183261132Y-70353230D01*
X183305447Y-70419552D01*
X183371769Y-70463867D01*
X183371770Y-70463868D01*
X183430247Y-70475499D01*
X183430250Y-70475500D01*
X183430252Y-70475500D01*
X185169750Y-70475500D01*
X185169751Y-70475499D01*
X185184568Y-70472552D01*
X185228229Y-70463868D01*
X185228229Y-70463867D01*
X185228231Y-70463867D01*
X185294552Y-70419552D01*
X185338867Y-70353231D01*
X185338867Y-70353229D01*
X185338868Y-70353229D01*
X185350499Y-70294752D01*
X185350500Y-70294750D01*
X185350500Y-68555249D01*
X185350499Y-68555247D01*
X185338868Y-68496770D01*
X185338867Y-68496769D01*
X185294552Y-68430447D01*
X185228230Y-68386132D01*
X185228229Y-68386131D01*
X185169752Y-68374500D01*
X185169748Y-68374500D01*
X183430252Y-68374500D01*
X183430247Y-68374500D01*
X183371770Y-68386131D01*
X183371769Y-68386132D01*
X183305447Y-68430447D01*
X183261132Y-68496769D01*
X183261131Y-68496770D01*
X183249500Y-68555247D01*
X182162309Y-68555247D01*
X182175500Y-68506018D01*
X182175500Y-68393982D01*
X182146503Y-68285763D01*
X182090485Y-68188737D01*
X182011263Y-68109515D01*
X181914237Y-68053497D01*
X181806018Y-68024500D01*
X181693982Y-68024500D01*
X181585763Y-68053497D01*
X181585760Y-68053498D01*
X181488740Y-68109513D01*
X181488734Y-68109517D01*
X181409517Y-68188734D01*
X181409513Y-68188740D01*
X181353498Y-68285760D01*
X181353497Y-68285763D01*
X181324500Y-68393982D01*
X179764901Y-68393982D01*
X179796880Y-68338593D01*
X179825877Y-68230374D01*
X179825877Y-68118338D01*
X179796880Y-68010119D01*
X179740862Y-67913093D01*
X179661640Y-67833871D01*
X179564614Y-67777853D01*
X179456395Y-67748856D01*
X179344359Y-67748856D01*
X179236140Y-67777853D01*
X179236137Y-67777854D01*
X179139117Y-67833869D01*
X179139111Y-67833873D01*
X179059894Y-67913090D01*
X179059890Y-67913096D01*
X179003875Y-68010116D01*
X179003874Y-68010119D01*
X178974877Y-68118338D01*
X178248533Y-68118338D01*
X178246503Y-68110763D01*
X178190485Y-68013737D01*
X178111263Y-67934515D01*
X178014237Y-67878497D01*
X177906018Y-67849500D01*
X177793982Y-67849500D01*
X177758142Y-67859102D01*
X177688294Y-67857440D01*
X177630432Y-67818277D01*
X177602928Y-67754049D01*
X177606275Y-67707238D01*
X177620000Y-67656018D01*
X177620000Y-67543982D01*
X177591003Y-67435763D01*
X177534985Y-67338737D01*
X177455763Y-67259515D01*
X177358737Y-67203497D01*
X177250518Y-67174500D01*
X177138482Y-67174500D01*
X177030263Y-67203497D01*
X177030260Y-67203498D01*
X176933240Y-67259513D01*
X176933234Y-67259517D01*
X176854017Y-67338734D01*
X176854013Y-67338740D01*
X176797998Y-67435760D01*
X176797997Y-67435763D01*
X176769000Y-67543982D01*
X164871650Y-67543982D01*
X164965977Y-67449655D01*
X165080941Y-67277598D01*
X165160130Y-67086420D01*
X165200500Y-66883465D01*
X165200500Y-66676535D01*
X165160130Y-66473580D01*
X165147870Y-66443982D01*
X174374500Y-66443982D01*
X174374500Y-66556018D01*
X174403497Y-66664237D01*
X174459515Y-66761263D01*
X174538737Y-66840485D01*
X174635763Y-66896503D01*
X174743982Y-66925500D01*
X174743984Y-66925500D01*
X174856016Y-66925500D01*
X174856018Y-66925500D01*
X174964237Y-66896503D01*
X175061263Y-66840485D01*
X175120218Y-66781530D01*
X183249500Y-66781530D01*
X183249500Y-66988469D01*
X183268984Y-67086420D01*
X183289870Y-67191420D01*
X183369059Y-67382598D01*
X183413865Y-67449655D01*
X183484024Y-67554657D01*
X183630342Y-67700975D01*
X183630345Y-67700977D01*
X183802402Y-67815941D01*
X183993580Y-67895130D01*
X184191573Y-67934513D01*
X184196530Y-67935499D01*
X184196534Y-67935500D01*
X184196535Y-67935500D01*
X184403466Y-67935500D01*
X184403467Y-67935499D01*
X184606420Y-67895130D01*
X184797598Y-67815941D01*
X184969655Y-67700977D01*
X185115977Y-67554655D01*
X185230941Y-67382598D01*
X185310130Y-67191420D01*
X185350500Y-66988465D01*
X185350500Y-66781535D01*
X185310130Y-66578580D01*
X185230941Y-66387402D01*
X185115977Y-66215345D01*
X185115975Y-66215342D01*
X184969657Y-66069024D01*
X184883626Y-66011541D01*
X184797598Y-65954059D01*
X184606420Y-65874870D01*
X184606412Y-65874868D01*
X184403469Y-65834500D01*
X184403465Y-65834500D01*
X184196535Y-65834500D01*
X184196530Y-65834500D01*
X183993587Y-65874868D01*
X183993579Y-65874870D01*
X183802403Y-65954058D01*
X183630342Y-66069024D01*
X183484024Y-66215342D01*
X183369058Y-66387403D01*
X183289870Y-66578579D01*
X183289868Y-66578587D01*
X183249500Y-66781530D01*
X175120218Y-66781530D01*
X175140485Y-66761263D01*
X175196503Y-66664237D01*
X175225500Y-66556018D01*
X175225500Y-66443982D01*
X175196503Y-66335763D01*
X175140485Y-66238737D01*
X175061263Y-66159515D01*
X174964237Y-66103497D01*
X174856018Y-66074500D01*
X174743982Y-66074500D01*
X174635763Y-66103497D01*
X174635760Y-66103498D01*
X174538740Y-66159513D01*
X174538734Y-66159517D01*
X174459517Y-66238734D01*
X174459513Y-66238740D01*
X174403498Y-66335760D01*
X174403497Y-66335763D01*
X174374500Y-66443982D01*
X165147870Y-66443982D01*
X165080941Y-66282402D01*
X164965977Y-66110345D01*
X164965975Y-66110342D01*
X164819657Y-65964024D01*
X164686224Y-65874868D01*
X164647598Y-65849059D01*
X164456420Y-65769870D01*
X164456412Y-65769868D01*
X164253469Y-65729500D01*
X164253465Y-65729500D01*
X164046535Y-65729500D01*
X164046530Y-65729500D01*
X163843587Y-65769868D01*
X163843579Y-65769870D01*
X163652403Y-65849058D01*
X163480342Y-65964024D01*
X163334024Y-66110342D01*
X163219058Y-66282403D01*
X163139870Y-66473579D01*
X163139868Y-66473587D01*
X163099500Y-66676530D01*
X162660499Y-66676530D01*
X162620130Y-66473580D01*
X162540941Y-66282402D01*
X162425977Y-66110345D01*
X162425975Y-66110342D01*
X162279657Y-65964024D01*
X162146224Y-65874868D01*
X162107598Y-65849059D01*
X161916420Y-65769870D01*
X161916412Y-65769868D01*
X161713469Y-65729500D01*
X161713465Y-65729500D01*
X161506535Y-65729500D01*
X161506530Y-65729500D01*
X161303587Y-65769868D01*
X161303579Y-65769870D01*
X161112403Y-65849058D01*
X160940342Y-65964024D01*
X160794024Y-66110342D01*
X160679058Y-66282403D01*
X160599870Y-66473579D01*
X160599868Y-66473587D01*
X160559500Y-66676530D01*
X160559500Y-66883469D01*
X160599868Y-67086412D01*
X160599870Y-67086420D01*
X160671569Y-67259517D01*
X160679059Y-67277598D01*
X160736541Y-67363626D01*
X160794024Y-67449657D01*
X160940342Y-67595975D01*
X161112405Y-67710943D01*
X161203936Y-67748856D01*
X161277108Y-67779164D01*
X161331511Y-67823005D01*
X161353576Y-67889299D01*
X161336297Y-67956998D01*
X161285160Y-68004609D01*
X161267974Y-68011656D01*
X161091781Y-68068905D01*
X160902439Y-68165380D01*
X160848282Y-68204727D01*
X160848282Y-68204728D01*
X161480591Y-68837037D01*
X161417007Y-68854075D01*
X161302993Y-68919901D01*
X161209901Y-69012993D01*
X161144075Y-69127007D01*
X161127037Y-69190591D01*
X160494728Y-68558282D01*
X160494727Y-68558282D01*
X160455380Y-68612439D01*
X160358904Y-68801782D01*
X160293242Y-69003869D01*
X160293242Y-69003872D01*
X160260000Y-69213753D01*
X159250500Y-69213753D01*
X159250500Y-64136530D01*
X160559500Y-64136530D01*
X160559500Y-64343469D01*
X160599868Y-64546412D01*
X160599870Y-64546420D01*
X160679058Y-64737596D01*
X160794024Y-64909657D01*
X160940342Y-65055975D01*
X160940345Y-65055977D01*
X161112402Y-65170941D01*
X161303580Y-65250130D01*
X161506530Y-65290499D01*
X161506534Y-65290500D01*
X161506535Y-65290500D01*
X161713466Y-65290500D01*
X161713467Y-65290499D01*
X161916420Y-65250130D01*
X162107598Y-65170941D01*
X162279655Y-65055977D01*
X162425977Y-64909655D01*
X162540941Y-64737598D01*
X162620130Y-64546420D01*
X162660500Y-64343465D01*
X162660500Y-64136535D01*
X162620130Y-63933580D01*
X162540941Y-63742402D01*
X162425977Y-63570345D01*
X162425975Y-63570342D01*
X162279657Y-63424024D01*
X162128525Y-63323042D01*
X162107598Y-63309059D01*
X162107593Y-63309057D01*
X161916420Y-63229870D01*
X161916412Y-63229868D01*
X161713469Y-63189500D01*
X161713465Y-63189500D01*
X161506535Y-63189500D01*
X161506530Y-63189500D01*
X161303587Y-63229868D01*
X161303579Y-63229870D01*
X161112403Y-63309058D01*
X160940342Y-63424024D01*
X160794024Y-63570342D01*
X160679058Y-63742403D01*
X160599870Y-63933579D01*
X160599868Y-63933587D01*
X160559500Y-64136530D01*
X159250500Y-64136530D01*
X159250500Y-61596530D01*
X160559500Y-61596530D01*
X160559500Y-61803469D01*
X160599868Y-62006412D01*
X160599870Y-62006420D01*
X160665939Y-62165925D01*
X160679059Y-62197598D01*
X160692836Y-62218217D01*
X160794024Y-62369657D01*
X160940342Y-62515975D01*
X160940345Y-62515977D01*
X161112402Y-62630941D01*
X161303580Y-62710130D01*
X161506530Y-62750499D01*
X161506534Y-62750500D01*
X161506535Y-62750500D01*
X161713466Y-62750500D01*
X161713467Y-62750499D01*
X161916420Y-62710130D01*
X162107598Y-62630941D01*
X162279655Y-62515977D01*
X162425977Y-62369655D01*
X162540941Y-62197598D01*
X162609165Y-62032889D01*
X162653004Y-61978488D01*
X162719298Y-61956423D01*
X162786998Y-61973702D01*
X162834609Y-62024839D01*
X162841656Y-62042026D01*
X162898904Y-62218216D01*
X162995375Y-62407550D01*
X163034728Y-62461716D01*
X163667037Y-61829408D01*
X163684075Y-61892993D01*
X163749901Y-62007007D01*
X163842993Y-62100099D01*
X163957007Y-62165925D01*
X164020590Y-62182962D01*
X163388282Y-62815269D01*
X163388282Y-62815270D01*
X163442449Y-62854624D01*
X163631782Y-62951095D01*
X163807973Y-63008343D01*
X163865648Y-63047780D01*
X163892847Y-63112139D01*
X163880932Y-63180985D01*
X163833688Y-63232461D01*
X163817108Y-63240835D01*
X163652403Y-63309057D01*
X163480342Y-63424024D01*
X163334024Y-63570342D01*
X163219058Y-63742403D01*
X163139870Y-63933579D01*
X163139868Y-63933587D01*
X163099500Y-64136530D01*
X163099500Y-64343469D01*
X163139868Y-64546412D01*
X163139870Y-64546420D01*
X163219058Y-64737596D01*
X163334024Y-64909657D01*
X163480342Y-65055975D01*
X163480345Y-65055977D01*
X163652402Y-65170941D01*
X163843580Y-65250130D01*
X164046530Y-65290499D01*
X164046534Y-65290500D01*
X164046535Y-65290500D01*
X164253466Y-65290500D01*
X164253467Y-65290499D01*
X164456420Y-65250130D01*
X164647598Y-65170941D01*
X164819655Y-65055977D01*
X164965977Y-64909655D01*
X165080941Y-64737598D01*
X165160130Y-64546420D01*
X165200500Y-64343465D01*
X165200500Y-64136535D01*
X165195231Y-64110044D01*
X165195231Y-64110041D01*
X165192037Y-64093982D01*
X169174500Y-64093982D01*
X169174500Y-64206018D01*
X169203497Y-64314237D01*
X169259515Y-64411263D01*
X169338737Y-64490485D01*
X169435763Y-64546503D01*
X169543982Y-64575500D01*
X169543984Y-64575500D01*
X169656016Y-64575500D01*
X169656018Y-64575500D01*
X169764237Y-64546503D01*
X169861263Y-64490485D01*
X169940485Y-64411263D01*
X169996503Y-64314237D01*
X170025500Y-64206018D01*
X170025500Y-64093982D01*
X169996503Y-63985763D01*
X169940485Y-63888737D01*
X169861263Y-63809515D01*
X169764237Y-63753497D01*
X169656018Y-63724500D01*
X169543982Y-63724500D01*
X169435763Y-63753497D01*
X169435760Y-63753498D01*
X169338740Y-63809513D01*
X169338734Y-63809517D01*
X169259517Y-63888734D01*
X169259513Y-63888740D01*
X169203498Y-63985760D01*
X169203497Y-63985763D01*
X169174500Y-64093982D01*
X165192037Y-64093982D01*
X165168842Y-63977377D01*
X165160130Y-63933580D01*
X165080941Y-63742402D01*
X164965977Y-63570345D01*
X164965975Y-63570342D01*
X164819657Y-63424024D01*
X164668525Y-63323042D01*
X164647598Y-63309059D01*
X164647593Y-63309057D01*
X164560882Y-63273140D01*
X164482890Y-63240834D01*
X164428488Y-63196994D01*
X164406423Y-63130700D01*
X164423702Y-63063001D01*
X164474839Y-63015390D01*
X164492026Y-63008343D01*
X164668217Y-62951095D01*
X164857554Y-62854622D01*
X164911716Y-62815270D01*
X164911717Y-62815270D01*
X164279408Y-62182962D01*
X164342993Y-62165925D01*
X164457007Y-62100099D01*
X164550099Y-62007007D01*
X164615925Y-61892993D01*
X164632962Y-61829408D01*
X165265270Y-62461717D01*
X165265270Y-62461716D01*
X165304622Y-62407554D01*
X165349753Y-62318982D01*
X166958000Y-62318982D01*
X166958000Y-62431018D01*
X166986997Y-62539237D01*
X167043015Y-62636263D01*
X167122237Y-62715485D01*
X167219263Y-62771503D01*
X167327482Y-62800500D01*
X167327484Y-62800500D01*
X167439516Y-62800500D01*
X167439518Y-62800500D01*
X167492893Y-62786198D01*
X167562741Y-62787859D01*
X167620604Y-62827021D01*
X167648109Y-62891249D01*
X167644761Y-62938065D01*
X167642993Y-62944664D01*
X167613996Y-63052883D01*
X167613996Y-63164919D01*
X167642993Y-63273138D01*
X167699011Y-63370164D01*
X167778233Y-63449386D01*
X167875259Y-63505404D01*
X167983478Y-63534401D01*
X167983480Y-63534401D01*
X168095512Y-63534401D01*
X168095514Y-63534401D01*
X168118343Y-63528284D01*
X171924501Y-63528284D01*
X171924501Y-63640320D01*
X171952581Y-63745114D01*
X171953498Y-63748538D01*
X171953499Y-63748541D01*
X171956361Y-63753498D01*
X172009516Y-63845565D01*
X172088738Y-63924787D01*
X172185764Y-63980805D01*
X172293983Y-64009802D01*
X172293985Y-64009802D01*
X172406017Y-64009802D01*
X172406019Y-64009802D01*
X172514238Y-63980805D01*
X172611264Y-63924787D01*
X172690486Y-63845565D01*
X172746504Y-63748539D01*
X172775501Y-63640320D01*
X172775501Y-63528284D01*
X172774583Y-63524857D01*
X177837717Y-63524857D01*
X177837717Y-63636893D01*
X177856239Y-63706016D01*
X177866714Y-63745111D01*
X177866715Y-63745114D01*
X177868694Y-63748541D01*
X177922732Y-63842138D01*
X178001954Y-63921360D01*
X178098980Y-63977378D01*
X178207199Y-64006375D01*
X178207201Y-64006375D01*
X178319233Y-64006375D01*
X178319235Y-64006375D01*
X178427454Y-63977378D01*
X178524480Y-63921360D01*
X178603702Y-63842138D01*
X178659720Y-63745112D01*
X178688717Y-63636893D01*
X178688717Y-63593982D01*
X179324500Y-63593982D01*
X179324500Y-63706018D01*
X179353497Y-63814237D01*
X179409515Y-63911263D01*
X179488737Y-63990485D01*
X179585763Y-64046503D01*
X179693982Y-64075500D01*
X179693984Y-64075500D01*
X179806016Y-64075500D01*
X179806018Y-64075500D01*
X179914237Y-64046503D01*
X180011263Y-63990485D01*
X180090485Y-63911263D01*
X180146503Y-63814237D01*
X180175500Y-63706018D01*
X180175500Y-63593982D01*
X180146503Y-63485763D01*
X180090485Y-63388737D01*
X180011263Y-63309515D01*
X179914237Y-63253497D01*
X179806018Y-63224500D01*
X179693982Y-63224500D01*
X179585763Y-63253497D01*
X179585760Y-63253498D01*
X179488740Y-63309513D01*
X179488734Y-63309517D01*
X179409517Y-63388734D01*
X179409513Y-63388740D01*
X179353498Y-63485760D01*
X179353497Y-63485763D01*
X179324500Y-63593982D01*
X178688717Y-63593982D01*
X178688717Y-63524857D01*
X178659720Y-63416638D01*
X178603702Y-63319612D01*
X178524480Y-63240390D01*
X178436336Y-63189500D01*
X178427456Y-63184373D01*
X178427455Y-63184372D01*
X178427454Y-63184372D01*
X178319235Y-63155375D01*
X178207199Y-63155375D01*
X178098980Y-63184372D01*
X178098977Y-63184373D01*
X178001957Y-63240388D01*
X178001951Y-63240392D01*
X177922734Y-63319609D01*
X177922730Y-63319615D01*
X177866715Y-63416635D01*
X177866714Y-63416638D01*
X177837717Y-63524857D01*
X172774583Y-63524857D01*
X172746504Y-63420065D01*
X172690486Y-63323039D01*
X172611264Y-63243817D01*
X172514238Y-63187799D01*
X172406019Y-63158802D01*
X172293983Y-63158802D01*
X172185764Y-63187799D01*
X172185761Y-63187800D01*
X172088741Y-63243815D01*
X172088735Y-63243819D01*
X172009518Y-63323036D01*
X172009514Y-63323042D01*
X171953499Y-63420062D01*
X171953498Y-63420065D01*
X171924501Y-63528284D01*
X168118343Y-63528284D01*
X168203733Y-63505404D01*
X168300759Y-63449386D01*
X168379981Y-63370164D01*
X168435999Y-63273138D01*
X168464996Y-63164919D01*
X168464996Y-63052883D01*
X168435999Y-62944664D01*
X168379981Y-62847638D01*
X168300759Y-62768416D01*
X168203733Y-62712398D01*
X168095514Y-62683401D01*
X167983478Y-62683401D01*
X167930102Y-62697703D01*
X167860252Y-62696040D01*
X167802390Y-62656877D01*
X167774886Y-62592648D01*
X167778234Y-62545834D01*
X167780000Y-62539241D01*
X167780003Y-62539237D01*
X167809000Y-62431018D01*
X167809000Y-62318982D01*
X167780003Y-62210763D01*
X167723985Y-62113737D01*
X167644763Y-62034515D01*
X167548480Y-61978926D01*
X167547739Y-61978498D01*
X167547738Y-61978497D01*
X167547737Y-61978497D01*
X167439518Y-61949500D01*
X167327482Y-61949500D01*
X167219263Y-61978497D01*
X167219260Y-61978498D01*
X167122240Y-62034513D01*
X167122234Y-62034517D01*
X167043017Y-62113734D01*
X167043013Y-62113740D01*
X166986998Y-62210760D01*
X166986997Y-62210763D01*
X166958000Y-62318982D01*
X165349753Y-62318982D01*
X165382578Y-62254560D01*
X165401095Y-62218217D01*
X165466757Y-62016130D01*
X165466757Y-62016127D01*
X165500000Y-61806246D01*
X165500000Y-61593753D01*
X165466757Y-61383870D01*
X165459440Y-61361349D01*
X171229299Y-61361349D01*
X171229299Y-61514251D01*
X171250602Y-61593753D01*
X171268873Y-61661943D01*
X171268874Y-61661944D01*
X171345320Y-61794354D01*
X171345322Y-61794357D01*
X171345323Y-61794358D01*
X171453441Y-61902476D01*
X171585857Y-61978926D01*
X171733548Y-62018500D01*
X171733551Y-62018500D01*
X171886447Y-62018500D01*
X171886450Y-62018500D01*
X172034141Y-61978926D01*
X172166557Y-61902476D01*
X172274675Y-61794358D01*
X172351125Y-61661942D01*
X172355023Y-61647393D01*
X172391384Y-61587736D01*
X172454230Y-61557205D01*
X172523606Y-61565497D01*
X172534839Y-61571119D01*
X172535756Y-61571499D01*
X172535763Y-61571503D01*
X172643982Y-61600500D01*
X172643984Y-61600500D01*
X172756016Y-61600500D01*
X172756018Y-61600500D01*
X172864237Y-61571503D01*
X172961263Y-61515485D01*
X173040485Y-61436263D01*
X173096503Y-61339237D01*
X173125500Y-61231018D01*
X173125500Y-61218982D01*
X176049500Y-61218982D01*
X176049500Y-61331018D01*
X176078497Y-61439237D01*
X176134515Y-61536263D01*
X176213737Y-61615485D01*
X176310763Y-61671503D01*
X176418982Y-61700500D01*
X176418984Y-61700500D01*
X176531016Y-61700500D01*
X176531018Y-61700500D01*
X176639237Y-61671503D01*
X176736263Y-61615485D01*
X176815485Y-61536263D01*
X176815487Y-61536258D01*
X176821125Y-61530621D01*
X176882448Y-61497136D01*
X176952140Y-61502120D01*
X177008074Y-61543991D01*
X177028581Y-61586205D01*
X177032411Y-61600499D01*
X177048876Y-61661944D01*
X177125322Y-61794354D01*
X177125324Y-61794357D01*
X177125325Y-61794358D01*
X177233443Y-61902476D01*
X177365859Y-61978926D01*
X177513550Y-62018500D01*
X177513553Y-62018500D01*
X177666449Y-62018500D01*
X177666452Y-62018500D01*
X177814143Y-61978926D01*
X177946559Y-61902476D01*
X178054677Y-61794358D01*
X178131127Y-61661942D01*
X178170701Y-61514251D01*
X178170701Y-61361349D01*
X178131127Y-61213658D01*
X178071718Y-61110758D01*
X178054679Y-61081245D01*
X178054675Y-61081240D01*
X177946560Y-60973125D01*
X177946555Y-60973121D01*
X177814145Y-60896675D01*
X177814144Y-60896674D01*
X177766929Y-60884023D01*
X177666452Y-60857100D01*
X177513550Y-60857100D01*
X177424935Y-60880844D01*
X177365857Y-60896674D01*
X177365856Y-60896675D01*
X177233446Y-60973121D01*
X177233441Y-60973125D01*
X177125326Y-61081240D01*
X177125322Y-61081245D01*
X177096137Y-61131796D01*
X177045570Y-61180012D01*
X176976963Y-61193234D01*
X176912098Y-61167266D01*
X176874187Y-61117245D01*
X176871504Y-61110769D01*
X176871503Y-61110763D01*
X176815485Y-61013737D01*
X176736263Y-60934515D01*
X176639237Y-60878497D01*
X176531018Y-60849500D01*
X176418982Y-60849500D01*
X176310763Y-60878497D01*
X176310760Y-60878498D01*
X176213740Y-60934513D01*
X176213734Y-60934517D01*
X176134517Y-61013734D01*
X176134513Y-61013740D01*
X176078498Y-61110760D01*
X176078497Y-61110763D01*
X176049500Y-61218982D01*
X173125500Y-61218982D01*
X173125500Y-61118982D01*
X173096503Y-61010763D01*
X173040485Y-60913737D01*
X172961263Y-60834515D01*
X172864237Y-60778497D01*
X172756018Y-60749500D01*
X172643982Y-60749500D01*
X172535763Y-60778497D01*
X172535760Y-60778498D01*
X172438740Y-60834513D01*
X172438734Y-60834517D01*
X172359517Y-60913734D01*
X172359515Y-60913737D01*
X172347212Y-60935047D01*
X172296644Y-60983262D01*
X172228037Y-60996484D01*
X172174594Y-60975455D01*
X172173595Y-60977187D01*
X172034143Y-60896675D01*
X172034142Y-60896674D01*
X171986927Y-60884023D01*
X171886450Y-60857100D01*
X171733548Y-60857100D01*
X171644933Y-60880844D01*
X171585855Y-60896674D01*
X171585854Y-60896675D01*
X171453444Y-60973121D01*
X171453439Y-60973125D01*
X171345324Y-61081240D01*
X171345320Y-61081245D01*
X171268874Y-61213655D01*
X171268873Y-61213656D01*
X171264221Y-61231018D01*
X171229299Y-61361349D01*
X165459440Y-61361349D01*
X165401095Y-61181782D01*
X165304624Y-60992449D01*
X165265270Y-60938282D01*
X165265269Y-60938282D01*
X164632962Y-61570590D01*
X164615925Y-61507007D01*
X164550099Y-61392993D01*
X164457007Y-61299901D01*
X164342993Y-61234075D01*
X164279409Y-61217037D01*
X164911716Y-60584728D01*
X164857550Y-60545375D01*
X164668217Y-60448904D01*
X164466129Y-60383242D01*
X164256246Y-60350000D01*
X164043754Y-60350000D01*
X163833872Y-60383242D01*
X163833869Y-60383242D01*
X163631782Y-60448904D01*
X163442439Y-60545380D01*
X163388282Y-60584727D01*
X163388282Y-60584728D01*
X164020591Y-61217037D01*
X163957007Y-61234075D01*
X163842993Y-61299901D01*
X163749901Y-61392993D01*
X163684075Y-61507007D01*
X163667037Y-61570591D01*
X163034728Y-60938282D01*
X163034727Y-60938282D01*
X162995380Y-60992439D01*
X162898905Y-61181781D01*
X162841656Y-61357974D01*
X162802218Y-61415649D01*
X162737859Y-61442847D01*
X162669013Y-61430932D01*
X162617537Y-61383688D01*
X162609164Y-61367107D01*
X162540943Y-61202405D01*
X162425975Y-61030342D01*
X162279657Y-60884024D01*
X162193626Y-60826541D01*
X162107598Y-60769059D01*
X161916420Y-60689870D01*
X161916412Y-60689868D01*
X161713469Y-60649500D01*
X161713465Y-60649500D01*
X161506535Y-60649500D01*
X161506530Y-60649500D01*
X161303587Y-60689868D01*
X161303579Y-60689870D01*
X161112403Y-60769058D01*
X160940342Y-60884024D01*
X160794024Y-61030342D01*
X160679058Y-61202403D01*
X160599870Y-61393579D01*
X160599868Y-61393587D01*
X160559500Y-61596530D01*
X159250500Y-61596530D01*
X159250500Y-59818982D01*
X179199500Y-59818982D01*
X179199500Y-59931018D01*
X179228497Y-60039237D01*
X179284515Y-60136263D01*
X179363737Y-60215485D01*
X179460763Y-60271503D01*
X179568982Y-60300500D01*
X179568984Y-60300500D01*
X179614519Y-60300500D01*
X179681558Y-60320185D01*
X179727313Y-60372989D01*
X179734294Y-60392406D01*
X179750911Y-60454424D01*
X179750912Y-60454425D01*
X179806929Y-60551449D01*
X179886151Y-60630671D01*
X179983177Y-60686689D01*
X180091396Y-60715686D01*
X180091398Y-60715686D01*
X180203430Y-60715686D01*
X180203432Y-60715686D01*
X180311651Y-60686689D01*
X180408677Y-60630671D01*
X180487899Y-60551449D01*
X180543917Y-60454423D01*
X180572914Y-60346204D01*
X180572914Y-60234168D01*
X180543917Y-60125949D01*
X180487899Y-60028923D01*
X180446593Y-59987617D01*
X180413108Y-59926294D01*
X180418092Y-59856602D01*
X180446592Y-59812256D01*
X180486484Y-59772365D01*
X180542502Y-59675339D01*
X180571499Y-59567120D01*
X180571499Y-59455084D01*
X180542502Y-59346865D01*
X180486484Y-59249839D01*
X180407262Y-59170617D01*
X180310236Y-59114599D01*
X180202017Y-59085602D01*
X180089981Y-59085602D01*
X179981762Y-59114599D01*
X179981759Y-59114600D01*
X179884739Y-59170615D01*
X179884733Y-59170619D01*
X179805516Y-59249836D01*
X179805512Y-59249842D01*
X179749497Y-59346862D01*
X179749495Y-59346866D01*
X179746622Y-59357592D01*
X179710258Y-59417253D01*
X179647411Y-59447783D01*
X179626847Y-59449500D01*
X179568982Y-59449500D01*
X179460763Y-59478497D01*
X179460760Y-59478498D01*
X179363740Y-59534513D01*
X179363734Y-59534517D01*
X179284517Y-59613734D01*
X179284513Y-59613740D01*
X179228498Y-59710760D01*
X179228497Y-59710763D01*
X179199500Y-59818982D01*
X159250500Y-59818982D01*
X159250500Y-58043982D01*
X166074500Y-58043982D01*
X166074500Y-58156018D01*
X166103497Y-58264237D01*
X166159515Y-58361263D01*
X166238737Y-58440485D01*
X166335763Y-58496503D01*
X166443982Y-58525500D01*
X166443984Y-58525500D01*
X166556016Y-58525500D01*
X166556018Y-58525500D01*
X166664237Y-58496503D01*
X166761263Y-58440485D01*
X166840485Y-58361263D01*
X166896503Y-58264237D01*
X166925500Y-58156018D01*
X166925500Y-58043982D01*
X166896503Y-57935763D01*
X166840485Y-57838737D01*
X166761263Y-57759515D01*
X166664237Y-57703497D01*
X166556018Y-57674500D01*
X166443982Y-57674500D01*
X166335763Y-57703497D01*
X166335760Y-57703498D01*
X166238740Y-57759513D01*
X166238734Y-57759517D01*
X166159517Y-57838734D01*
X166159513Y-57838740D01*
X166103498Y-57935760D01*
X166103497Y-57935763D01*
X166074500Y-58043982D01*
X159250500Y-58043982D01*
X159250500Y-55893982D01*
X178099500Y-55893982D01*
X178099500Y-56006018D01*
X178128497Y-56114237D01*
X178184515Y-56211263D01*
X178263737Y-56290485D01*
X178360763Y-56346503D01*
X178468982Y-56375500D01*
X178468984Y-56375500D01*
X178581016Y-56375500D01*
X178581018Y-56375500D01*
X178689237Y-56346503D01*
X178786263Y-56290485D01*
X178865485Y-56211263D01*
X178921503Y-56114237D01*
X178950500Y-56006018D01*
X178950500Y-55893982D01*
X178921503Y-55785763D01*
X178865485Y-55688737D01*
X178786263Y-55609515D01*
X178689237Y-55553497D01*
X178653726Y-55543982D01*
X180524500Y-55543982D01*
X180524500Y-55656018D01*
X180553497Y-55764237D01*
X180609515Y-55861263D01*
X180688737Y-55940485D01*
X180785763Y-55996503D01*
X180893982Y-56025500D01*
X180893984Y-56025500D01*
X181006016Y-56025500D01*
X181006018Y-56025500D01*
X181114237Y-55996503D01*
X181211263Y-55940485D01*
X181290485Y-55861263D01*
X181346503Y-55764237D01*
X181375500Y-55656018D01*
X181375500Y-55543982D01*
X181346503Y-55435763D01*
X181290485Y-55338737D01*
X181211263Y-55259515D01*
X181114237Y-55203497D01*
X181006018Y-55174500D01*
X180893982Y-55174500D01*
X180785763Y-55203497D01*
X180785760Y-55203498D01*
X180688740Y-55259513D01*
X180688734Y-55259517D01*
X180609517Y-55338734D01*
X180609513Y-55338740D01*
X180553498Y-55435760D01*
X180553497Y-55435763D01*
X180524500Y-55543982D01*
X178653726Y-55543982D01*
X178581018Y-55524500D01*
X178468982Y-55524500D01*
X178360763Y-55553497D01*
X178360760Y-55553498D01*
X178263740Y-55609513D01*
X178263734Y-55609517D01*
X178184517Y-55688734D01*
X178184513Y-55688740D01*
X178128498Y-55785760D01*
X178128497Y-55785763D01*
X178099500Y-55893982D01*
X159250500Y-55893982D01*
X159250500Y-54756961D01*
X159251280Y-54743077D01*
X159251280Y-54743076D01*
X159261460Y-54652729D01*
X159267635Y-54625670D01*
X159295353Y-54546456D01*
X159307396Y-54521450D01*
X159352046Y-54450389D01*
X159369351Y-54428690D01*
X159428690Y-54369351D01*
X159450389Y-54352046D01*
X159521450Y-54307396D01*
X159546456Y-54295353D01*
X159625670Y-54267635D01*
X159652733Y-54261459D01*
X159715419Y-54254396D01*
X159743079Y-54251280D01*
X159756962Y-54250500D01*
X159815892Y-54250500D01*
X186184108Y-54250500D01*
X186243038Y-54250500D01*
X186256922Y-54251280D01*
G37*
%TD.AperFunction*%
%TD*%
M02*
