M48
; DRILL file {KiCad 9.0.4} date 2026-09-02T17:06:16-0400
; FORMAT={-:-/ absolute / inch / decimal}
; #@! TF.CreationDate,2026-09-02T17:06:16-04:00
; #@! TF.GenerationSoftware,Kicad,Pcbnew,9.0.4
; #@! TF.FileFunction,Plated,1,4,PTH
FMAT,2
INCH
; #@! TA.AperFunction,Plated,PTH,ViaDrill
T1C0.0118
; #@! TA.AperFunction,Plated,PTH,ComponentDrill
T2C0.0394
; #@! TA.AperFunction,Plated,PTH,ComponentDrill
T3C0.0866
%
G90
G05
T1
X6.5157Y-2.8937
X6.5463Y-2.3238
X6.5551Y-2.2874
X6.5899Y-2.4557
X6.6157Y-2.4846
X6.6772Y-2.5256
X6.6929Y-2.3524
X6.7067Y-2.6919
X6.7221Y-2.5207
X6.7283Y-2.6772
X6.7364Y-2.3266
X6.7421Y-2.2797
X6.752Y-2.9528
X6.7608Y-2.377
X6.7756Y-2.8661
X6.7782Y-2.544
X6.7795Y-2.5905
X6.7854Y-2.5033
X6.7992Y-2.4085
X6.8147Y-2.7456
X6.8484Y-2.8415
X6.8652Y-2.8219
X6.8819Y-2.6181
X6.9104Y-2.3071
X6.9185Y-2.6816
X6.9185Y-2.7059
X6.9439Y-2.8022
X6.9449Y-2.3071
X6.9478Y-2.4124
X6.9734Y-2.833
X6.9738Y-2.7923
X6.9761Y-2.609
X6.9762Y-2.6614
X6.9803Y-2.3051
X6.998Y-2.248
X7.002Y-2.688
X7.0063Y-2.3807
X7.0182Y-2.5032
X7.0285Y-2.2028
X7.0335Y-2.6966
X7.0531Y-2.1634
X7.063Y-2.684
X7.0719Y-2.3573
X7.0738Y-2.9053
X7.0768Y-2.5059
X7.0924Y-2.343
X7.0924Y-2.3736
X7.1065Y-2.8622
X7.1101Y-2.949
X7.124Y-2.189
X7.1442Y-2.4606
X7.1442Y-2.5967
X7.1555Y-2.6949
X7.1929Y-2.7736
X7.1939Y-2.3258
X7.2167Y-2.542
X7.2884Y-2.3474
X7.2933Y-2.815
X7.2943Y-2.3819
X7.2953Y-2.4862
T2
X6.3626Y-2.4291
X6.3626Y-2.5291
X6.3626Y-2.6291
X6.3626Y-2.7291
X6.4626Y-2.4291
X6.4626Y-2.5291
X6.4626Y-2.6291
X6.4626Y-2.7291
X7.2559Y-2.6333
X7.2559Y-2.7333
T3
X6.378Y-2.2441
X6.378Y-2.9134
X7.2441Y-2.2441
X7.2441Y-2.9134
M30
