%TF.GenerationSoftware,KiCad,Pcbnew,9.0.4*%
%TF.CreationDate,2026-09-02T17:06:16-04:00*%
%TF.ProjectId,magnetometer_v1,6d61676e-6574-46f6-9d65-7465725f7631,rev?*%
%TF.SameCoordinates,Original*%
%TF.FileFunction,Legend,Top*%
%TF.FilePolarity,Positive*%
%FSLAX46Y46*%
G04 Gerber Fmt 4.6, Leading zero omitted, Abs format (unit mm)*
G04 Created by KiCad (PCBNEW 9.0.4) date 2026-09-02 17:06:16*
%MOMM*%
%LPD*%
G01*
G04 APERTURE LIST*
G04 Aperture macros list*
%AMRoundRect*
0 Rectangle with rounded corners*
0 $1 Rounding radius*
0 $2 $3 $4 $5 $6 $7 $8 $9 X,Y pos of 4 corners*
0 Add a 4 corners polygon primitive as box body*
4,1,4,$2,$3,$4,$5,$6,$7,$8,$9,$2,$3,0*
0 Add four circle primitives for the rounded corners*
1,1,$1+$1,$2,$3*
1,1,$1+$1,$4,$5*
1,1,$1+$1,$6,$7*
1,1,$1+$1,$8,$9*
0 Add four rect primitives between the rounded corners*
20,1,$1+$1,$2,$3,$4,$5,0*
20,1,$1+$1,$4,$5,$6,$7,0*
20,1,$1+$1,$6,$7,$8,$9,0*
20,1,$1+$1,$8,$9,$2,$3,0*%
G04 Aperture macros list end*
%ADD10C,0.100000*%
%ADD11C,0.120000*%
%ADD12C,0.152400*%
%ADD13C,0.150000*%
%ADD14C,0.250000*%
%ADD15C,0.000000*%
%ADD16C,3.800000*%
%ADD17RoundRect,0.135000X-0.135000X-0.185000X0.135000X-0.185000X0.135000X0.185000X-0.135000X0.185000X0*%
%ADD18R,0.508000X1.651000*%
%ADD19R,1.700000X1.700000*%
%ADD20C,1.700000*%
%ADD21RoundRect,0.140000X0.140000X0.170000X-0.140000X0.170000X-0.140000X-0.170000X0.140000X-0.170000X0*%
%ADD22R,1.000000X2.971800*%
%ADD23R,0.449999X1.450000*%
%ADD24RoundRect,0.140000X0.170000X-0.140000X0.170000X0.140000X-0.170000X0.140000X-0.170000X-0.140000X0*%
%ADD25RoundRect,0.147500X-0.147500X-0.172500X0.147500X-0.172500X0.147500X0.172500X-0.147500X0.172500X0*%
%ADD26RoundRect,0.135000X-0.185000X0.135000X-0.185000X-0.135000X0.185000X-0.135000X0.185000X0.135000X0*%
%ADD27R,1.651000X0.508000*%
%ADD28C,0.660400*%
%ADD29R,2.159000X2.006600*%
%ADD30R,0.609600X1.143000*%
%ADD31R,0.304800X1.143000*%
%ADD32RoundRect,0.112500X0.112500X-0.187500X0.112500X0.187500X-0.112500X0.187500X-0.112500X-0.187500X0*%
%ADD33RoundRect,0.135000X0.135000X0.185000X-0.135000X0.185000X-0.135000X-0.185000X0.135000X-0.185000X0*%
G04 APERTURE END LIST*
D10*
X185369047Y-76476109D02*
X185369047Y-75976109D01*
X185369047Y-76214204D02*
X185654761Y-76214204D01*
X185654761Y-76476109D02*
X185654761Y-75976109D01*
X186107143Y-76142776D02*
X186107143Y-76476109D01*
X185988095Y-75952300D02*
X185869048Y-76309442D01*
X185869048Y-76309442D02*
X186178571Y-76309442D01*
X186241666Y-64301109D02*
X186075000Y-64063014D01*
X185955952Y-64301109D02*
X185955952Y-63801109D01*
X185955952Y-63801109D02*
X186146428Y-63801109D01*
X186146428Y-63801109D02*
X186194047Y-63824919D01*
X186194047Y-63824919D02*
X186217857Y-63848728D01*
X186217857Y-63848728D02*
X186241666Y-63896347D01*
X186241666Y-63896347D02*
X186241666Y-63967776D01*
X186241666Y-63967776D02*
X186217857Y-64015395D01*
X186217857Y-64015395D02*
X186194047Y-64039204D01*
X186194047Y-64039204D02*
X186146428Y-64063014D01*
X186146428Y-64063014D02*
X185955952Y-64063014D01*
X186717857Y-64301109D02*
X186432143Y-64301109D01*
X186575000Y-64301109D02*
X186575000Y-63801109D01*
X186575000Y-63801109D02*
X186527381Y-63872538D01*
X186527381Y-63872538D02*
X186479762Y-63920157D01*
X186479762Y-63920157D02*
X186432143Y-63943966D01*
X159369047Y-55226109D02*
X159369047Y-54726109D01*
X159369047Y-54964204D02*
X159654761Y-54964204D01*
X159654761Y-55226109D02*
X159654761Y-54726109D01*
X160154762Y-55226109D02*
X159869048Y-55226109D01*
X160011905Y-55226109D02*
X160011905Y-54726109D01*
X160011905Y-54726109D02*
X159964286Y-54797538D01*
X159964286Y-54797538D02*
X159916667Y-54845157D01*
X159916667Y-54845157D02*
X159869048Y-54868966D01*
X159619047Y-76476109D02*
X159619047Y-75976109D01*
X159619047Y-76214204D02*
X159904761Y-76214204D01*
X159904761Y-76476109D02*
X159904761Y-75976109D01*
X160095238Y-75976109D02*
X160404762Y-75976109D01*
X160404762Y-75976109D02*
X160238095Y-76166585D01*
X160238095Y-76166585D02*
X160309524Y-76166585D01*
X160309524Y-76166585D02*
X160357143Y-76190395D01*
X160357143Y-76190395D02*
X160380952Y-76214204D01*
X160380952Y-76214204D02*
X160404762Y-76261823D01*
X160404762Y-76261823D02*
X160404762Y-76380871D01*
X160404762Y-76380871D02*
X160380952Y-76428490D01*
X160380952Y-76428490D02*
X160357143Y-76452300D01*
X160357143Y-76452300D02*
X160309524Y-76476109D01*
X160309524Y-76476109D02*
X160166667Y-76476109D01*
X160166667Y-76476109D02*
X160119048Y-76452300D01*
X160119048Y-76452300D02*
X160095238Y-76428490D01*
X175869047Y-75026109D02*
X175869047Y-75430871D01*
X175869047Y-75430871D02*
X175892857Y-75478490D01*
X175892857Y-75478490D02*
X175916666Y-75502300D01*
X175916666Y-75502300D02*
X175964285Y-75526109D01*
X175964285Y-75526109D02*
X176059523Y-75526109D01*
X176059523Y-75526109D02*
X176107142Y-75502300D01*
X176107142Y-75502300D02*
X176130952Y-75478490D01*
X176130952Y-75478490D02*
X176154761Y-75430871D01*
X176154761Y-75430871D02*
X176154761Y-75026109D01*
X176369048Y-75073728D02*
X176392857Y-75049919D01*
X176392857Y-75049919D02*
X176440476Y-75026109D01*
X176440476Y-75026109D02*
X176559524Y-75026109D01*
X176559524Y-75026109D02*
X176607143Y-75049919D01*
X176607143Y-75049919D02*
X176630952Y-75073728D01*
X176630952Y-75073728D02*
X176654762Y-75121347D01*
X176654762Y-75121347D02*
X176654762Y-75168966D01*
X176654762Y-75168966D02*
X176630952Y-75240395D01*
X176630952Y-75240395D02*
X176345238Y-75526109D01*
X176345238Y-75526109D02*
X176654762Y-75526109D01*
X164083333Y-58976109D02*
X164083333Y-59333252D01*
X164083333Y-59333252D02*
X164059524Y-59404680D01*
X164059524Y-59404680D02*
X164011905Y-59452300D01*
X164011905Y-59452300D02*
X163940476Y-59476109D01*
X163940476Y-59476109D02*
X163892857Y-59476109D01*
X164583333Y-59476109D02*
X164297619Y-59476109D01*
X164440476Y-59476109D02*
X164440476Y-58976109D01*
X164440476Y-58976109D02*
X164392857Y-59047538D01*
X164392857Y-59047538D02*
X164345238Y-59095157D01*
X164345238Y-59095157D02*
X164297619Y-59118966D01*
X185869047Y-55226109D02*
X185869047Y-54726109D01*
X185869047Y-54964204D02*
X186154761Y-54964204D01*
X186154761Y-55226109D02*
X186154761Y-54726109D01*
X186369048Y-54773728D02*
X186392857Y-54749919D01*
X186392857Y-54749919D02*
X186440476Y-54726109D01*
X186440476Y-54726109D02*
X186559524Y-54726109D01*
X186559524Y-54726109D02*
X186607143Y-54749919D01*
X186607143Y-54749919D02*
X186630952Y-54773728D01*
X186630952Y-54773728D02*
X186654762Y-54821347D01*
X186654762Y-54821347D02*
X186654762Y-54868966D01*
X186654762Y-54868966D02*
X186630952Y-54940395D01*
X186630952Y-54940395D02*
X186345238Y-55226109D01*
X186345238Y-55226109D02*
X186654762Y-55226109D01*
X185983333Y-71226109D02*
X185983333Y-71583252D01*
X185983333Y-71583252D02*
X185959524Y-71654680D01*
X185959524Y-71654680D02*
X185911905Y-71702300D01*
X185911905Y-71702300D02*
X185840476Y-71726109D01*
X185840476Y-71726109D02*
X185792857Y-71726109D01*
X186173809Y-71226109D02*
X186483333Y-71226109D01*
X186483333Y-71226109D02*
X186316666Y-71416585D01*
X186316666Y-71416585D02*
X186388095Y-71416585D01*
X186388095Y-71416585D02*
X186435714Y-71440395D01*
X186435714Y-71440395D02*
X186459523Y-71464204D01*
X186459523Y-71464204D02*
X186483333Y-71511823D01*
X186483333Y-71511823D02*
X186483333Y-71630871D01*
X186483333Y-71630871D02*
X186459523Y-71678490D01*
X186459523Y-71678490D02*
X186435714Y-71702300D01*
X186435714Y-71702300D02*
X186388095Y-71726109D01*
X186388095Y-71726109D02*
X186245238Y-71726109D01*
X186245238Y-71726109D02*
X186197619Y-71702300D01*
X186197619Y-71702300D02*
X186173809Y-71678490D01*
X181603571Y-65553490D02*
X181579762Y-65577300D01*
X181579762Y-65577300D02*
X181508333Y-65601109D01*
X181508333Y-65601109D02*
X181460714Y-65601109D01*
X181460714Y-65601109D02*
X181389286Y-65577300D01*
X181389286Y-65577300D02*
X181341667Y-65529680D01*
X181341667Y-65529680D02*
X181317857Y-65482061D01*
X181317857Y-65482061D02*
X181294048Y-65386823D01*
X181294048Y-65386823D02*
X181294048Y-65315395D01*
X181294048Y-65315395D02*
X181317857Y-65220157D01*
X181317857Y-65220157D02*
X181341667Y-65172538D01*
X181341667Y-65172538D02*
X181389286Y-65124919D01*
X181389286Y-65124919D02*
X181460714Y-65101109D01*
X181460714Y-65101109D02*
X181508333Y-65101109D01*
X181508333Y-65101109D02*
X181579762Y-65124919D01*
X181579762Y-65124919D02*
X181603571Y-65148728D01*
X182079762Y-65601109D02*
X181794048Y-65601109D01*
X181936905Y-65601109D02*
X181936905Y-65101109D01*
X181936905Y-65101109D02*
X181889286Y-65172538D01*
X181889286Y-65172538D02*
X181841667Y-65220157D01*
X181841667Y-65220157D02*
X181794048Y-65243966D01*
X182270238Y-65148728D02*
X182294047Y-65124919D01*
X182294047Y-65124919D02*
X182341666Y-65101109D01*
X182341666Y-65101109D02*
X182460714Y-65101109D01*
X182460714Y-65101109D02*
X182508333Y-65124919D01*
X182508333Y-65124919D02*
X182532142Y-65148728D01*
X182532142Y-65148728D02*
X182555952Y-65196347D01*
X182555952Y-65196347D02*
X182555952Y-65243966D01*
X182555952Y-65243966D02*
X182532142Y-65315395D01*
X182532142Y-65315395D02*
X182246428Y-65601109D01*
X182246428Y-65601109D02*
X182555952Y-65601109D01*
X168619047Y-72976109D02*
X168619047Y-73380871D01*
X168619047Y-73380871D02*
X168642857Y-73428490D01*
X168642857Y-73428490D02*
X168666666Y-73452300D01*
X168666666Y-73452300D02*
X168714285Y-73476109D01*
X168714285Y-73476109D02*
X168809523Y-73476109D01*
X168809523Y-73476109D02*
X168857142Y-73452300D01*
X168857142Y-73452300D02*
X168880952Y-73428490D01*
X168880952Y-73428490D02*
X168904761Y-73380871D01*
X168904761Y-73380871D02*
X168904761Y-72976109D01*
X169357143Y-73142776D02*
X169357143Y-73476109D01*
X169238095Y-72952300D02*
X169119048Y-73309442D01*
X169119048Y-73309442D02*
X169428571Y-73309442D01*
X174648890Y-67850000D02*
X174529842Y-67850000D01*
X174577461Y-67730952D02*
X174529842Y-67850000D01*
X174529842Y-67850000D02*
X174577461Y-67969047D01*
X174434604Y-67778571D02*
X174529842Y-67850000D01*
X174529842Y-67850000D02*
X174434604Y-67921428D01*
X181061905Y-71651109D02*
X181061905Y-71151109D01*
X181585714Y-71603490D02*
X181561905Y-71627300D01*
X181561905Y-71627300D02*
X181490476Y-71651109D01*
X181490476Y-71651109D02*
X181442857Y-71651109D01*
X181442857Y-71651109D02*
X181371429Y-71627300D01*
X181371429Y-71627300D02*
X181323810Y-71579680D01*
X181323810Y-71579680D02*
X181300000Y-71532061D01*
X181300000Y-71532061D02*
X181276191Y-71436823D01*
X181276191Y-71436823D02*
X181276191Y-71365395D01*
X181276191Y-71365395D02*
X181300000Y-71270157D01*
X181300000Y-71270157D02*
X181323810Y-71222538D01*
X181323810Y-71222538D02*
X181371429Y-71174919D01*
X181371429Y-71174919D02*
X181442857Y-71151109D01*
X181442857Y-71151109D02*
X181490476Y-71151109D01*
X181490476Y-71151109D02*
X181561905Y-71174919D01*
X181561905Y-71174919D02*
X181585714Y-71198728D01*
X181776191Y-71198728D02*
X181800000Y-71174919D01*
X181800000Y-71174919D02*
X181847619Y-71151109D01*
X181847619Y-71151109D02*
X181966667Y-71151109D01*
X181966667Y-71151109D02*
X182014286Y-71174919D01*
X182014286Y-71174919D02*
X182038095Y-71198728D01*
X182038095Y-71198728D02*
X182061905Y-71246347D01*
X182061905Y-71246347D02*
X182061905Y-71293966D01*
X182061905Y-71293966D02*
X182038095Y-71365395D01*
X182038095Y-71365395D02*
X181752381Y-71651109D01*
X181752381Y-71651109D02*
X182061905Y-71651109D01*
X185228571Y-62303490D02*
X185204762Y-62327300D01*
X185204762Y-62327300D02*
X185133333Y-62351109D01*
X185133333Y-62351109D02*
X185085714Y-62351109D01*
X185085714Y-62351109D02*
X185014286Y-62327300D01*
X185014286Y-62327300D02*
X184966667Y-62279680D01*
X184966667Y-62279680D02*
X184942857Y-62232061D01*
X184942857Y-62232061D02*
X184919048Y-62136823D01*
X184919048Y-62136823D02*
X184919048Y-62065395D01*
X184919048Y-62065395D02*
X184942857Y-61970157D01*
X184942857Y-61970157D02*
X184966667Y-61922538D01*
X184966667Y-61922538D02*
X185014286Y-61874919D01*
X185014286Y-61874919D02*
X185085714Y-61851109D01*
X185085714Y-61851109D02*
X185133333Y-61851109D01*
X185133333Y-61851109D02*
X185204762Y-61874919D01*
X185204762Y-61874919D02*
X185228571Y-61898728D01*
X185704762Y-62351109D02*
X185419048Y-62351109D01*
X185561905Y-62351109D02*
X185561905Y-61851109D01*
X185561905Y-61851109D02*
X185514286Y-61922538D01*
X185514286Y-61922538D02*
X185466667Y-61970157D01*
X185466667Y-61970157D02*
X185419048Y-61993966D01*
X186133333Y-61851109D02*
X186038095Y-61851109D01*
X186038095Y-61851109D02*
X185990476Y-61874919D01*
X185990476Y-61874919D02*
X185966666Y-61898728D01*
X185966666Y-61898728D02*
X185919047Y-61970157D01*
X185919047Y-61970157D02*
X185895238Y-62065395D01*
X185895238Y-62065395D02*
X185895238Y-62255871D01*
X185895238Y-62255871D02*
X185919047Y-62303490D01*
X185919047Y-62303490D02*
X185942857Y-62327300D01*
X185942857Y-62327300D02*
X185990476Y-62351109D01*
X185990476Y-62351109D02*
X186085714Y-62351109D01*
X186085714Y-62351109D02*
X186133333Y-62327300D01*
X186133333Y-62327300D02*
X186157142Y-62303490D01*
X186157142Y-62303490D02*
X186180952Y-62255871D01*
X186180952Y-62255871D02*
X186180952Y-62136823D01*
X186180952Y-62136823D02*
X186157142Y-62089204D01*
X186157142Y-62089204D02*
X186133333Y-62065395D01*
X186133333Y-62065395D02*
X186085714Y-62041585D01*
X186085714Y-62041585D02*
X185990476Y-62041585D01*
X185990476Y-62041585D02*
X185942857Y-62065395D01*
X185942857Y-62065395D02*
X185919047Y-62089204D01*
X185919047Y-62089204D02*
X185895238Y-62136823D01*
X177916666Y-64676109D02*
X177750000Y-64438014D01*
X177630952Y-64676109D02*
X177630952Y-64176109D01*
X177630952Y-64176109D02*
X177821428Y-64176109D01*
X177821428Y-64176109D02*
X177869047Y-64199919D01*
X177869047Y-64199919D02*
X177892857Y-64223728D01*
X177892857Y-64223728D02*
X177916666Y-64271347D01*
X177916666Y-64271347D02*
X177916666Y-64342776D01*
X177916666Y-64342776D02*
X177892857Y-64390395D01*
X177892857Y-64390395D02*
X177869047Y-64414204D01*
X177869047Y-64414204D02*
X177821428Y-64438014D01*
X177821428Y-64438014D02*
X177630952Y-64438014D01*
X178202381Y-64390395D02*
X178154762Y-64366585D01*
X178154762Y-64366585D02*
X178130952Y-64342776D01*
X178130952Y-64342776D02*
X178107143Y-64295157D01*
X178107143Y-64295157D02*
X178107143Y-64271347D01*
X178107143Y-64271347D02*
X178130952Y-64223728D01*
X178130952Y-64223728D02*
X178154762Y-64199919D01*
X178154762Y-64199919D02*
X178202381Y-64176109D01*
X178202381Y-64176109D02*
X178297619Y-64176109D01*
X178297619Y-64176109D02*
X178345238Y-64199919D01*
X178345238Y-64199919D02*
X178369047Y-64223728D01*
X178369047Y-64223728D02*
X178392857Y-64271347D01*
X178392857Y-64271347D02*
X178392857Y-64295157D01*
X178392857Y-64295157D02*
X178369047Y-64342776D01*
X178369047Y-64342776D02*
X178345238Y-64366585D01*
X178345238Y-64366585D02*
X178297619Y-64390395D01*
X178297619Y-64390395D02*
X178202381Y-64390395D01*
X178202381Y-64390395D02*
X178154762Y-64414204D01*
X178154762Y-64414204D02*
X178130952Y-64438014D01*
X178130952Y-64438014D02*
X178107143Y-64485633D01*
X178107143Y-64485633D02*
X178107143Y-64580871D01*
X178107143Y-64580871D02*
X178130952Y-64628490D01*
X178130952Y-64628490D02*
X178154762Y-64652300D01*
X178154762Y-64652300D02*
X178202381Y-64676109D01*
X178202381Y-64676109D02*
X178297619Y-64676109D01*
X178297619Y-64676109D02*
X178345238Y-64652300D01*
X178345238Y-64652300D02*
X178369047Y-64628490D01*
X178369047Y-64628490D02*
X178392857Y-64580871D01*
X178392857Y-64580871D02*
X178392857Y-64485633D01*
X178392857Y-64485633D02*
X178369047Y-64438014D01*
X178369047Y-64438014D02*
X178345238Y-64414204D01*
X178345238Y-64414204D02*
X178297619Y-64390395D01*
X181855952Y-59276109D02*
X181855952Y-58776109D01*
X181855952Y-58776109D02*
X181975000Y-58776109D01*
X181975000Y-58776109D02*
X182046428Y-58799919D01*
X182046428Y-58799919D02*
X182094047Y-58847538D01*
X182094047Y-58847538D02*
X182117857Y-58895157D01*
X182117857Y-58895157D02*
X182141666Y-58990395D01*
X182141666Y-58990395D02*
X182141666Y-59061823D01*
X182141666Y-59061823D02*
X182117857Y-59157061D01*
X182117857Y-59157061D02*
X182094047Y-59204680D01*
X182094047Y-59204680D02*
X182046428Y-59252300D01*
X182046428Y-59252300D02*
X181975000Y-59276109D01*
X181975000Y-59276109D02*
X181855952Y-59276109D01*
X182308333Y-58776109D02*
X182617857Y-58776109D01*
X182617857Y-58776109D02*
X182451190Y-58966585D01*
X182451190Y-58966585D02*
X182522619Y-58966585D01*
X182522619Y-58966585D02*
X182570238Y-58990395D01*
X182570238Y-58990395D02*
X182594047Y-59014204D01*
X182594047Y-59014204D02*
X182617857Y-59061823D01*
X182617857Y-59061823D02*
X182617857Y-59180871D01*
X182617857Y-59180871D02*
X182594047Y-59228490D01*
X182594047Y-59228490D02*
X182570238Y-59252300D01*
X182570238Y-59252300D02*
X182522619Y-59276109D01*
X182522619Y-59276109D02*
X182379762Y-59276109D01*
X182379762Y-59276109D02*
X182332143Y-59252300D01*
X182332143Y-59252300D02*
X182308333Y-59228490D01*
X174016666Y-65229750D02*
X173850000Y-64991655D01*
X173730952Y-65229750D02*
X173730952Y-64729750D01*
X173730952Y-64729750D02*
X173921428Y-64729750D01*
X173921428Y-64729750D02*
X173969047Y-64753560D01*
X173969047Y-64753560D02*
X173992857Y-64777369D01*
X173992857Y-64777369D02*
X174016666Y-64824988D01*
X174016666Y-64824988D02*
X174016666Y-64896417D01*
X174016666Y-64896417D02*
X173992857Y-64944036D01*
X173992857Y-64944036D02*
X173969047Y-64967845D01*
X173969047Y-64967845D02*
X173921428Y-64991655D01*
X173921428Y-64991655D02*
X173730952Y-64991655D01*
X174469047Y-64729750D02*
X174230952Y-64729750D01*
X174230952Y-64729750D02*
X174207143Y-64967845D01*
X174207143Y-64967845D02*
X174230952Y-64944036D01*
X174230952Y-64944036D02*
X174278571Y-64920226D01*
X174278571Y-64920226D02*
X174397619Y-64920226D01*
X174397619Y-64920226D02*
X174445238Y-64944036D01*
X174445238Y-64944036D02*
X174469047Y-64967845D01*
X174469047Y-64967845D02*
X174492857Y-65015464D01*
X174492857Y-65015464D02*
X174492857Y-65134512D01*
X174492857Y-65134512D02*
X174469047Y-65182131D01*
X174469047Y-65182131D02*
X174445238Y-65205941D01*
X174445238Y-65205941D02*
X174397619Y-65229750D01*
X174397619Y-65229750D02*
X174278571Y-65229750D01*
X174278571Y-65229750D02*
X174230952Y-65205941D01*
X174230952Y-65205941D02*
X174207143Y-65182131D01*
X180419047Y-63851109D02*
X180419047Y-64255871D01*
X180419047Y-64255871D02*
X180442857Y-64303490D01*
X180442857Y-64303490D02*
X180466666Y-64327300D01*
X180466666Y-64327300D02*
X180514285Y-64351109D01*
X180514285Y-64351109D02*
X180609523Y-64351109D01*
X180609523Y-64351109D02*
X180657142Y-64327300D01*
X180657142Y-64327300D02*
X180680952Y-64303490D01*
X180680952Y-64303490D02*
X180704761Y-64255871D01*
X180704761Y-64255871D02*
X180704761Y-63851109D01*
X180895238Y-63851109D02*
X181204762Y-63851109D01*
X181204762Y-63851109D02*
X181038095Y-64041585D01*
X181038095Y-64041585D02*
X181109524Y-64041585D01*
X181109524Y-64041585D02*
X181157143Y-64065395D01*
X181157143Y-64065395D02*
X181180952Y-64089204D01*
X181180952Y-64089204D02*
X181204762Y-64136823D01*
X181204762Y-64136823D02*
X181204762Y-64255871D01*
X181204762Y-64255871D02*
X181180952Y-64303490D01*
X181180952Y-64303490D02*
X181157143Y-64327300D01*
X181157143Y-64327300D02*
X181109524Y-64351109D01*
X181109524Y-64351109D02*
X180966667Y-64351109D01*
X180966667Y-64351109D02*
X180919048Y-64327300D01*
X180919048Y-64327300D02*
X180895238Y-64303490D01*
X181583333Y-54726109D02*
X181583333Y-55083252D01*
X181583333Y-55083252D02*
X181559524Y-55154680D01*
X181559524Y-55154680D02*
X181511905Y-55202300D01*
X181511905Y-55202300D02*
X181440476Y-55226109D01*
X181440476Y-55226109D02*
X181392857Y-55226109D01*
X181797619Y-54773728D02*
X181821428Y-54749919D01*
X181821428Y-54749919D02*
X181869047Y-54726109D01*
X181869047Y-54726109D02*
X181988095Y-54726109D01*
X181988095Y-54726109D02*
X182035714Y-54749919D01*
X182035714Y-54749919D02*
X182059523Y-54773728D01*
X182059523Y-54773728D02*
X182083333Y-54821347D01*
X182083333Y-54821347D02*
X182083333Y-54868966D01*
X182083333Y-54868966D02*
X182059523Y-54940395D01*
X182059523Y-54940395D02*
X181773809Y-55226109D01*
X181773809Y-55226109D02*
X182083333Y-55226109D01*
X180650000Y-63151109D02*
X180650000Y-63270157D01*
X180530952Y-63222538D02*
X180650000Y-63270157D01*
X180650000Y-63270157D02*
X180769047Y-63222538D01*
X180578571Y-63365395D02*
X180650000Y-63270157D01*
X180650000Y-63270157D02*
X180721428Y-63365395D01*
X166428571Y-61178490D02*
X166404762Y-61202300D01*
X166404762Y-61202300D02*
X166333333Y-61226109D01*
X166333333Y-61226109D02*
X166285714Y-61226109D01*
X166285714Y-61226109D02*
X166214286Y-61202300D01*
X166214286Y-61202300D02*
X166166667Y-61154680D01*
X166166667Y-61154680D02*
X166142857Y-61107061D01*
X166142857Y-61107061D02*
X166119048Y-61011823D01*
X166119048Y-61011823D02*
X166119048Y-60940395D01*
X166119048Y-60940395D02*
X166142857Y-60845157D01*
X166142857Y-60845157D02*
X166166667Y-60797538D01*
X166166667Y-60797538D02*
X166214286Y-60749919D01*
X166214286Y-60749919D02*
X166285714Y-60726109D01*
X166285714Y-60726109D02*
X166333333Y-60726109D01*
X166333333Y-60726109D02*
X166404762Y-60749919D01*
X166404762Y-60749919D02*
X166428571Y-60773728D01*
X166904762Y-61226109D02*
X166619048Y-61226109D01*
X166761905Y-61226109D02*
X166761905Y-60726109D01*
X166761905Y-60726109D02*
X166714286Y-60797538D01*
X166714286Y-60797538D02*
X166666667Y-60845157D01*
X166666667Y-60845157D02*
X166619048Y-60868966D01*
X167357142Y-60726109D02*
X167119047Y-60726109D01*
X167119047Y-60726109D02*
X167095238Y-60964204D01*
X167095238Y-60964204D02*
X167119047Y-60940395D01*
X167119047Y-60940395D02*
X167166666Y-60916585D01*
X167166666Y-60916585D02*
X167285714Y-60916585D01*
X167285714Y-60916585D02*
X167333333Y-60940395D01*
X167333333Y-60940395D02*
X167357142Y-60964204D01*
X167357142Y-60964204D02*
X167380952Y-61011823D01*
X167380952Y-61011823D02*
X167380952Y-61130871D01*
X167380952Y-61130871D02*
X167357142Y-61178490D01*
X167357142Y-61178490D02*
X167333333Y-61202300D01*
X167333333Y-61202300D02*
X167285714Y-61226109D01*
X167285714Y-61226109D02*
X167166666Y-61226109D01*
X167166666Y-61226109D02*
X167119047Y-61202300D01*
X167119047Y-61202300D02*
X167095238Y-61178490D01*
X164880952Y-75726109D02*
X164880952Y-75226109D01*
X164880952Y-75226109D02*
X165000000Y-75226109D01*
X165000000Y-75226109D02*
X165071428Y-75249919D01*
X165071428Y-75249919D02*
X165119047Y-75297538D01*
X165119047Y-75297538D02*
X165142857Y-75345157D01*
X165142857Y-75345157D02*
X165166666Y-75440395D01*
X165166666Y-75440395D02*
X165166666Y-75511823D01*
X165166666Y-75511823D02*
X165142857Y-75607061D01*
X165142857Y-75607061D02*
X165119047Y-75654680D01*
X165119047Y-75654680D02*
X165071428Y-75702300D01*
X165071428Y-75702300D02*
X165000000Y-75726109D01*
X165000000Y-75726109D02*
X164880952Y-75726109D01*
X165642857Y-75726109D02*
X165357143Y-75726109D01*
X165500000Y-75726109D02*
X165500000Y-75226109D01*
X165500000Y-75226109D02*
X165452381Y-75297538D01*
X165452381Y-75297538D02*
X165404762Y-75345157D01*
X165404762Y-75345157D02*
X165357143Y-75368966D01*
X185216666Y-61351109D02*
X185050000Y-61113014D01*
X184930952Y-61351109D02*
X184930952Y-60851109D01*
X184930952Y-60851109D02*
X185121428Y-60851109D01*
X185121428Y-60851109D02*
X185169047Y-60874919D01*
X185169047Y-60874919D02*
X185192857Y-60898728D01*
X185192857Y-60898728D02*
X185216666Y-60946347D01*
X185216666Y-60946347D02*
X185216666Y-61017776D01*
X185216666Y-61017776D02*
X185192857Y-61065395D01*
X185192857Y-61065395D02*
X185169047Y-61089204D01*
X185169047Y-61089204D02*
X185121428Y-61113014D01*
X185121428Y-61113014D02*
X184930952Y-61113014D01*
X185645238Y-60851109D02*
X185550000Y-60851109D01*
X185550000Y-60851109D02*
X185502381Y-60874919D01*
X185502381Y-60874919D02*
X185478571Y-60898728D01*
X185478571Y-60898728D02*
X185430952Y-60970157D01*
X185430952Y-60970157D02*
X185407143Y-61065395D01*
X185407143Y-61065395D02*
X185407143Y-61255871D01*
X185407143Y-61255871D02*
X185430952Y-61303490D01*
X185430952Y-61303490D02*
X185454762Y-61327300D01*
X185454762Y-61327300D02*
X185502381Y-61351109D01*
X185502381Y-61351109D02*
X185597619Y-61351109D01*
X185597619Y-61351109D02*
X185645238Y-61327300D01*
X185645238Y-61327300D02*
X185669047Y-61303490D01*
X185669047Y-61303490D02*
X185692857Y-61255871D01*
X185692857Y-61255871D02*
X185692857Y-61136823D01*
X185692857Y-61136823D02*
X185669047Y-61089204D01*
X185669047Y-61089204D02*
X185645238Y-61065395D01*
X185645238Y-61065395D02*
X185597619Y-61041585D01*
X185597619Y-61041585D02*
X185502381Y-61041585D01*
X185502381Y-61041585D02*
X185454762Y-61065395D01*
X185454762Y-61065395D02*
X185430952Y-61089204D01*
X185430952Y-61089204D02*
X185407143Y-61136823D01*
X178716666Y-74151109D02*
X178550000Y-73913014D01*
X178430952Y-74151109D02*
X178430952Y-73651109D01*
X178430952Y-73651109D02*
X178621428Y-73651109D01*
X178621428Y-73651109D02*
X178669047Y-73674919D01*
X178669047Y-73674919D02*
X178692857Y-73698728D01*
X178692857Y-73698728D02*
X178716666Y-73746347D01*
X178716666Y-73746347D02*
X178716666Y-73817776D01*
X178716666Y-73817776D02*
X178692857Y-73865395D01*
X178692857Y-73865395D02*
X178669047Y-73889204D01*
X178669047Y-73889204D02*
X178621428Y-73913014D01*
X178621428Y-73913014D02*
X178430952Y-73913014D01*
X178883333Y-73651109D02*
X179216666Y-73651109D01*
X179216666Y-73651109D02*
X179002381Y-74151109D01*
X176366666Y-65276109D02*
X176200000Y-65038014D01*
X176080952Y-65276109D02*
X176080952Y-64776109D01*
X176080952Y-64776109D02*
X176271428Y-64776109D01*
X176271428Y-64776109D02*
X176319047Y-64799919D01*
X176319047Y-64799919D02*
X176342857Y-64823728D01*
X176342857Y-64823728D02*
X176366666Y-64871347D01*
X176366666Y-64871347D02*
X176366666Y-64942776D01*
X176366666Y-64942776D02*
X176342857Y-64990395D01*
X176342857Y-64990395D02*
X176319047Y-65014204D01*
X176319047Y-65014204D02*
X176271428Y-65038014D01*
X176271428Y-65038014D02*
X176080952Y-65038014D01*
X176795238Y-64942776D02*
X176795238Y-65276109D01*
X176676190Y-64752300D02*
X176557143Y-65109442D01*
X176557143Y-65109442D02*
X176866666Y-65109442D01*
D11*
%TO.C,R1*%
X184661359Y-63720000D02*
X184968641Y-63720000D01*
X184661359Y-64480000D02*
X184968641Y-64480000D01*
D12*
%TO.C,U2*%
X175724787Y-72747100D02*
X176144303Y-72747100D01*
X176144303Y-72747100D02*
X176925213Y-72747100D01*
X176144303Y-74702900D02*
X175724787Y-74702900D01*
X176925213Y-74702900D02*
X176144303Y-74702900D01*
D11*
%TO.C,J1*%
X160230000Y-70700000D02*
X160230000Y-60320000D01*
X162880000Y-68050000D02*
X162880000Y-70700000D01*
X162880000Y-70700000D02*
X160230000Y-70700000D01*
X165530000Y-60320000D02*
X160230000Y-60320000D01*
X165530000Y-68050000D02*
X162880000Y-68050000D01*
X165530000Y-68050000D02*
X165530000Y-60320000D01*
X165530000Y-69320000D02*
X165530000Y-70700000D01*
X165530000Y-70700000D02*
X164150000Y-70700000D01*
%TO.C,J3*%
X182920000Y-68155000D02*
X182920000Y-65505000D01*
X185680000Y-65505000D02*
X182920000Y-65505000D01*
X185680000Y-68155000D02*
X182920000Y-68155000D01*
X185680000Y-68155000D02*
X185680000Y-65505000D01*
X185680000Y-69425000D02*
X185680000Y-70805000D01*
X185680000Y-70805000D02*
X184300000Y-70805000D01*
%TO.C,C12*%
X180377836Y-64990000D02*
X180162164Y-64990000D01*
X180377836Y-65710000D02*
X180162164Y-65710000D01*
D12*
%TO.C,U4*%
X166718500Y-68520400D02*
X166718500Y-72279600D01*
X166718500Y-72279600D02*
X170487860Y-72279600D01*
X167987860Y-68520400D02*
X166718500Y-68520400D01*
X171712140Y-72279600D02*
X175481500Y-72279600D01*
X172987860Y-68520400D02*
X169212140Y-68520400D01*
X175481500Y-68520400D02*
X174212140Y-68520400D01*
X175481500Y-72279600D02*
X175481500Y-68520400D01*
D13*
%TO.C,IC2*%
X177275002Y-70250000D02*
X177275002Y-68050000D01*
X180375000Y-70250000D02*
X180375000Y-68050000D01*
D14*
X177975003Y-72634999D02*
G75*
G02*
X177725001Y-72634999I-125001J0D01*
G01*
X177725001Y-72634999D02*
G75*
G02*
X177975003Y-72634999I125001J0D01*
G01*
D11*
%TO.C,C16*%
X183890000Y-62757836D02*
X183890000Y-62542164D01*
X184610000Y-62757836D02*
X184610000Y-62542164D01*
%TO.C,R8*%
X177846359Y-64970000D02*
X178153641Y-64970000D01*
X177846359Y-65730000D02*
X178153641Y-65730000D01*
D10*
%TO.C,D3*%
X181610000Y-59900000D02*
G75*
G02*
X181510000Y-59900000I-50000J0D01*
G01*
X181510000Y-59900000D02*
G75*
G02*
X181610000Y-59900000I50000J0D01*
G01*
D11*
%TO.C,R5*%
X172620000Y-64696359D02*
X172620000Y-65003641D01*
X173380000Y-64696359D02*
X173380000Y-65003641D01*
D12*
%TO.C,U3*%
X181482099Y-62842897D02*
X181482099Y-62061987D01*
X181482099Y-63262413D02*
X181482099Y-62842897D01*
X183437899Y-62061987D02*
X183437899Y-62842897D01*
X183437899Y-62842897D02*
X183437899Y-63262413D01*
%TO.C,J2*%
X168769100Y-55035200D02*
X168769100Y-56671760D01*
X168769100Y-59343840D02*
X168769100Y-60601760D01*
X170746534Y-63264800D02*
X170915674Y-63264800D01*
X178484329Y-63264800D02*
X178653466Y-63264800D01*
X180630900Y-55035200D02*
X168769100Y-55035200D01*
X180630900Y-56671760D02*
X180630900Y-55035200D01*
X180630900Y-60601760D02*
X180630900Y-59343840D01*
D11*
%TO.C,C15*%
X167052836Y-59590000D02*
X166837164Y-59590000D01*
X167052836Y-60310000D02*
X166837164Y-60310000D01*
%TO.C,D1*%
X164700000Y-74860000D02*
X164700000Y-72200000D01*
X164700000Y-74860000D02*
X166400000Y-74860000D01*
X166400000Y-74860000D02*
X166400000Y-72200000D01*
%TO.C,R6*%
X183870000Y-60246359D02*
X183870000Y-60553641D01*
X184630000Y-60246359D02*
X184630000Y-60553641D01*
%TO.C,R7*%
X179096359Y-72595000D02*
X179403641Y-72595000D01*
X179096359Y-73355000D02*
X179403641Y-73355000D01*
%TO.C,R4*%
X176603641Y-63770000D02*
X176296359Y-63770000D01*
X176603641Y-64530000D02*
X176296359Y-64530000D01*
%TD*%
%LPC*%
D15*
%TO.C,U2*%
G36*
X175429000Y-74550500D02*
G01*
X174921000Y-74550500D01*
X174921000Y-72899500D01*
X175429000Y-72899500D01*
X175429000Y-74550500D01*
G37*
G36*
X177729000Y-74550500D02*
G01*
X177221000Y-74550500D01*
X177221000Y-72899500D01*
X177729000Y-72899500D01*
X177729000Y-74550500D01*
G37*
%TO.C,U3*%
G36*
X183285499Y-64066200D02*
G01*
X181634499Y-64066200D01*
X181634499Y-63558200D01*
X183285499Y-63558200D01*
X183285499Y-64066200D01*
G37*
G36*
X183285499Y-61766200D02*
G01*
X181634499Y-61766200D01*
X181634499Y-61258200D01*
X183285499Y-61258200D01*
X183285499Y-61766200D01*
G37*
%TD*%
D16*
%TO.C,H4*%
X184000000Y-74000000D03*
%TD*%
D17*
%TO.C,R1*%
X184305000Y-64100000D03*
X185325000Y-64100000D03*
%TD*%
D16*
%TO.C,H1*%
X162000000Y-57000000D03*
%TD*%
%TO.C,H3*%
X162000000Y-74000000D03*
%TD*%
D18*
%TO.C,U2*%
X177475000Y-73725000D03*
X175175000Y-73725000D03*
%TD*%
D19*
%TO.C,J1*%
X164150000Y-69320000D03*
D20*
X161610000Y-69320000D03*
X164150000Y-66780000D03*
X161610000Y-66780000D03*
X164150000Y-64240000D03*
X161610000Y-64240000D03*
X164150000Y-61700000D03*
X161610000Y-61700000D03*
%TD*%
D16*
%TO.C,H2*%
X184000000Y-57000000D03*
%TD*%
D19*
%TO.C,J3*%
X184300000Y-69425000D03*
D20*
X184300000Y-66885000D03*
%TD*%
D21*
%TO.C,C12*%
X180750000Y-65350000D03*
X179790000Y-65350000D03*
%TD*%
D22*
%TO.C,U4*%
X173600000Y-67783800D03*
X171100000Y-73016200D03*
X168600000Y-67783800D03*
%TD*%
D23*
%TO.C,IC2*%
X177850002Y-71350001D03*
X178500000Y-71350001D03*
X179150002Y-71350001D03*
X179800000Y-71350001D03*
X179800000Y-66949999D03*
X179150002Y-66949999D03*
X178500000Y-66949999D03*
X177850002Y-66949999D03*
%TD*%
D24*
%TO.C,C16*%
X184250000Y-63130000D03*
X184250000Y-62170000D03*
%TD*%
D17*
%TO.C,R8*%
X177490000Y-65350000D03*
X178510000Y-65350000D03*
%TD*%
D25*
%TO.C,D3*%
X182165000Y-59900000D03*
X183135000Y-59900000D03*
%TD*%
D26*
%TO.C,R5*%
X173000000Y-64340000D03*
X173000000Y-65360000D03*
%TD*%
D27*
%TO.C,U3*%
X182459999Y-61512200D03*
X182459999Y-63812200D03*
%TD*%
D28*
%TO.C,J2*%
X177590001Y-61437800D03*
X171809999Y-61437800D03*
D29*
X179810000Y-61937800D03*
X169590000Y-61937800D03*
X179810000Y-58007800D03*
X169590000Y-58007800D03*
D30*
X177900001Y-62512800D03*
X177100000Y-62512800D03*
D31*
X175950000Y-62512800D03*
X174950000Y-62512800D03*
X174450000Y-62512800D03*
X173450000Y-62512800D03*
D30*
X172300000Y-62512800D03*
X171500001Y-62512800D03*
D31*
X172950001Y-62512800D03*
X173949999Y-62512800D03*
X175450001Y-62512800D03*
X176449999Y-62512800D03*
%TD*%
D21*
%TO.C,C15*%
X167425000Y-59950000D03*
X166465000Y-59950000D03*
%TD*%
D32*
%TO.C,D1*%
X165550000Y-74300000D03*
X165550000Y-72200000D03*
%TD*%
D26*
%TO.C,R6*%
X184250000Y-59890000D03*
X184250000Y-60910000D03*
%TD*%
D17*
%TO.C,R7*%
X178740000Y-72975000D03*
X179760000Y-72975000D03*
%TD*%
D33*
%TO.C,R4*%
X176960000Y-64150000D03*
X175940000Y-64150000D03*
%TD*%
%LPD*%
M02*
