%TF.GenerationSoftware,KiCad,Pcbnew,9.0.4*%
%TF.CreationDate,2026-09-02T17:06:16-04:00*%
%TF.ProjectId,magnetometer_v1,6d61676e-6574-46f6-9d65-7465725f7631,rev?*%
%TF.SameCoordinates,Original*%
%TF.FileFunction,Soldermask,Top*%
%TF.FilePolarity,Negative*%
%FSLAX46Y46*%
G04 Gerber Fmt 4.6, Leading zero omitted, Abs format (unit mm)*
G04 Created by KiCad (PCBNEW 9.0.4) date 2026-09-02 17:06:16*
%MOMM*%
%LPD*%
G01*
G04 APERTURE LIST*
G04 Aperture macros list*
%AMRoundRect*
0 Rectangle with rounded corners*
0 $1 Rounding radius*
0 $2 $3 $4 $5 $6 $7 $8 $9 X,Y pos of 4 corners*
0 Add a 4 corners polygon primitive as box body*
4,1,4,$2,$3,$4,$5,$6,$7,$8,$9,$2,$3,0*
0 Add four circle primitives for the rounded corners*
1,1,$1+$1,$2,$3*
1,1,$1+$1,$4,$5*
1,1,$1+$1,$6,$7*
1,1,$1+$1,$8,$9*
0 Add four rect primitives between the rounded corners*
20,1,$1+$1,$2,$3,$4,$5,0*
20,1,$1+$1,$4,$5,$6,$7,0*
20,1,$1+$1,$6,$7,$8,$9,0*
20,1,$1+$1,$8,$9,$2,$3,0*%
G04 Aperture macros list end*
%ADD10C,0.000000*%
%ADD11C,3.800000*%
%ADD12RoundRect,0.135000X-0.135000X-0.185000X0.135000X-0.185000X0.135000X0.185000X-0.135000X0.185000X0*%
%ADD13R,0.508000X1.651000*%
%ADD14R,1.700000X1.700000*%
%ADD15C,1.700000*%
%ADD16RoundRect,0.140000X0.140000X0.170000X-0.140000X0.170000X-0.140000X-0.170000X0.140000X-0.170000X0*%
%ADD17R,1.000000X2.971800*%
%ADD18R,0.449999X1.450000*%
%ADD19RoundRect,0.140000X0.170000X-0.140000X0.170000X0.140000X-0.170000X0.140000X-0.170000X-0.140000X0*%
%ADD20RoundRect,0.147500X-0.147500X-0.172500X0.147500X-0.172500X0.147500X0.172500X-0.147500X0.172500X0*%
%ADD21RoundRect,0.135000X-0.185000X0.135000X-0.185000X-0.135000X0.185000X-0.135000X0.185000X0.135000X0*%
%ADD22R,1.651000X0.508000*%
%ADD23R,2.159000X2.006600*%
%ADD24R,0.609600X1.143000*%
%ADD25R,0.304800X1.143000*%
%ADD26RoundRect,0.112500X0.112500X-0.187500X0.112500X0.187500X-0.112500X0.187500X-0.112500X-0.187500X0*%
%ADD27RoundRect,0.135000X0.135000X0.185000X-0.135000X0.185000X-0.135000X-0.185000X0.135000X-0.185000X0*%
G04 APERTURE END LIST*
D10*
%TO.C,U2*%
G36*
X175429000Y-74550500D02*
G01*
X174921000Y-74550500D01*
X174921000Y-72899500D01*
X175429000Y-72899500D01*
X175429000Y-74550500D01*
G37*
G36*
X177729000Y-74550500D02*
G01*
X177221000Y-74550500D01*
X177221000Y-72899500D01*
X177729000Y-72899500D01*
X177729000Y-74550500D01*
G37*
%TO.C,U3*%
G36*
X183285499Y-64066200D02*
G01*
X181634499Y-64066200D01*
X181634499Y-63558200D01*
X183285499Y-63558200D01*
X183285499Y-64066200D01*
G37*
G36*
X183285499Y-61766200D02*
G01*
X181634499Y-61766200D01*
X181634499Y-61258200D01*
X183285499Y-61258200D01*
X183285499Y-61766200D01*
G37*
%TD*%
D11*
%TO.C,H4*%
X184000000Y-74000000D03*
%TD*%
D12*
%TO.C,R1*%
X184305000Y-64100000D03*
X185325000Y-64100000D03*
%TD*%
D11*
%TO.C,H1*%
X162000000Y-57000000D03*
%TD*%
%TO.C,H3*%
X162000000Y-74000000D03*
%TD*%
D13*
%TO.C,U2*%
X177475000Y-73725000D03*
X175175000Y-73725000D03*
%TD*%
D14*
%TO.C,J1*%
X164150000Y-69320000D03*
D15*
X161610000Y-69320000D03*
X164150000Y-66780000D03*
X161610000Y-66780000D03*
X164150000Y-64240000D03*
X161610000Y-64240000D03*
X164150000Y-61700000D03*
X161610000Y-61700000D03*
%TD*%
D11*
%TO.C,H2*%
X184000000Y-57000000D03*
%TD*%
D14*
%TO.C,J3*%
X184300000Y-69425000D03*
D15*
X184300000Y-66885000D03*
%TD*%
D16*
%TO.C,C12*%
X180750000Y-65350000D03*
X179790000Y-65350000D03*
%TD*%
D17*
%TO.C,U4*%
X173600000Y-67783800D03*
X171100000Y-73016200D03*
X168600000Y-67783800D03*
%TD*%
D18*
%TO.C,IC2*%
X177850002Y-71350001D03*
X178500000Y-71350001D03*
X179150002Y-71350001D03*
X179800000Y-71350001D03*
X179800000Y-66949999D03*
X179150002Y-66949999D03*
X178500000Y-66949999D03*
X177850002Y-66949999D03*
%TD*%
D19*
%TO.C,C16*%
X184250000Y-63130000D03*
X184250000Y-62170000D03*
%TD*%
D12*
%TO.C,R8*%
X177490000Y-65350000D03*
X178510000Y-65350000D03*
%TD*%
D20*
%TO.C,D3*%
X182165000Y-59900000D03*
X183135000Y-59900000D03*
%TD*%
D21*
%TO.C,R5*%
X173000000Y-64340000D03*
X173000000Y-65360000D03*
%TD*%
D22*
%TO.C,U3*%
X182459999Y-61512200D03*
X182459999Y-63812200D03*
%TD*%
D23*
%TO.C,J2*%
X179810000Y-61937800D03*
X169590000Y-61937800D03*
X179810000Y-58007800D03*
X169590000Y-58007800D03*
D24*
X177900001Y-62512800D03*
X177100000Y-62512800D03*
D25*
X175950000Y-62512800D03*
X174950000Y-62512800D03*
X174450000Y-62512800D03*
X173450000Y-62512800D03*
D24*
X172300000Y-62512800D03*
X171500001Y-62512800D03*
D25*
X172950001Y-62512800D03*
X173949999Y-62512800D03*
X175450001Y-62512800D03*
X176449999Y-62512800D03*
%TD*%
D16*
%TO.C,C15*%
X167425000Y-59950000D03*
X166465000Y-59950000D03*
%TD*%
D26*
%TO.C,D1*%
X165550000Y-74300000D03*
X165550000Y-72200000D03*
%TD*%
D21*
%TO.C,R6*%
X184250000Y-59890000D03*
X184250000Y-60910000D03*
%TD*%
D12*
%TO.C,R7*%
X178740000Y-72975000D03*
X179760000Y-72975000D03*
%TD*%
D27*
%TO.C,R4*%
X176960000Y-64150000D03*
X175940000Y-64150000D03*
%TD*%
M02*
