%TF.GenerationSoftware,KiCad,Pcbnew,9.0.4*%
%TF.CreationDate,2026-09-02T17:06:16-04:00*%
%TF.ProjectId,magnetometer_v1,6d61676e-6574-46f6-9d65-7465725f7631,rev?*%
%TF.SameCoordinates,Original*%
%TF.FileFunction,Copper,L1,Top*%
%TF.FilePolarity,Positive*%
%FSLAX46Y46*%
G04 Gerber Fmt 4.6, Leading zero omitted, Abs format (unit mm)*
G04 Created by KiCad (PCBNEW 9.0.4) date 2026-09-02 17:06:16*
%MOMM*%
%LPD*%
G01*
G04 APERTURE LIST*
G04 Aperture macros list*
%AMRoundRect*
0 Rectangle with rounded corners*
0 $1 Rounding radius*
0 $2 $3 $4 $5 $6 $7 $8 $9 X,Y pos of 4 corners*
0 Add a 4 corners polygon primitive as box body*
4,1,4,$2,$3,$4,$5,$6,$7,$8,$9,$2,$3,0*
0 Add four circle primitives for the rounded corners*
1,1,$1+$1,$2,$3*
1,1,$1+$1,$4,$5*
1,1,$1+$1,$6,$7*
1,1,$1+$1,$8,$9*
0 Add four rect primitives between the rounded corners*
20,1,$1+$1,$2,$3,$4,$5,0*
20,1,$1+$1,$4,$5,$6,$7,0*
20,1,$1+$1,$6,$7,$8,$9,0*
20,1,$1+$1,$8,$9,$2,$3,0*%
G04 Aperture macros list end*
%TA.AperFunction,ComponentPad*%
%ADD10C,3.800000*%
%TD*%
%TA.AperFunction,SMDPad,CuDef*%
%ADD11RoundRect,0.135000X-0.135000X-0.185000X0.135000X-0.185000X0.135000X0.185000X-0.135000X0.185000X0*%
%TD*%
%TA.AperFunction,SMDPad,CuDef*%
%ADD12R,0.508000X1.651000*%
%TD*%
%TA.AperFunction,ComponentPad*%
%ADD13R,1.700000X1.700000*%
%TD*%
%TA.AperFunction,ComponentPad*%
%ADD14C,1.700000*%
%TD*%
%TA.AperFunction,SMDPad,CuDef*%
%ADD15RoundRect,0.140000X0.140000X0.170000X-0.140000X0.170000X-0.140000X-0.170000X0.140000X-0.170000X0*%
%TD*%
%TA.AperFunction,SMDPad,CuDef*%
%ADD16R,1.000000X2.971800*%
%TD*%
%TA.AperFunction,SMDPad,CuDef*%
%ADD17R,0.449999X1.450000*%
%TD*%
%TA.AperFunction,SMDPad,CuDef*%
%ADD18RoundRect,0.140000X0.170000X-0.140000X0.170000X0.140000X-0.170000X0.140000X-0.170000X-0.140000X0*%
%TD*%
%TA.AperFunction,SMDPad,CuDef*%
%ADD19RoundRect,0.147500X-0.147500X-0.172500X0.147500X-0.172500X0.147500X0.172500X-0.147500X0.172500X0*%
%TD*%
%TA.AperFunction,SMDPad,CuDef*%
%ADD20RoundRect,0.135000X-0.185000X0.135000X-0.185000X-0.135000X0.185000X-0.135000X0.185000X0.135000X0*%
%TD*%
%TA.AperFunction,SMDPad,CuDef*%
%ADD21R,1.651000X0.508000*%
%TD*%
%TA.AperFunction,SMDPad,CuDef*%
%ADD22R,2.159000X2.006600*%
%TD*%
%TA.AperFunction,SMDPad,CuDef*%
%ADD23R,0.609600X1.143000*%
%TD*%
%TA.AperFunction,SMDPad,CuDef*%
%ADD24R,0.304800X1.143000*%
%TD*%
%TA.AperFunction,SMDPad,CuDef*%
%ADD25RoundRect,0.112500X0.112500X-0.187500X0.112500X0.187500X-0.112500X0.187500X-0.112500X-0.187500X0*%
%TD*%
%TA.AperFunction,SMDPad,CuDef*%
%ADD26RoundRect,0.135000X0.135000X0.185000X-0.135000X0.185000X-0.135000X-0.185000X0.135000X-0.185000X0*%
%TD*%
%TA.AperFunction,ViaPad*%
%ADD27C,0.450000*%
%TD*%
%TA.AperFunction,Conductor*%
%ADD28C,0.200000*%
%TD*%
%TA.AperFunction,Conductor*%
%ADD29C,0.187000*%
%TD*%
G04 APERTURE END LIST*
D10*
%TO.P,H4,1,1*%
%TO.N,GND*%
X184000000Y-74000000D03*
%TD*%
D11*
%TO.P,R1,1*%
%TO.N,BOOT0*%
X184305000Y-64100000D03*
%TO.P,R1,2*%
%TO.N,GND*%
X185325000Y-64100000D03*
%TD*%
D10*
%TO.P,H1,1,1*%
%TO.N,GND*%
X162000000Y-57000000D03*
%TD*%
%TO.P,H3,1,1*%
%TO.N,GND*%
X162000000Y-74000000D03*
%TD*%
D12*
%TO.P,U2,1,1*%
%TO.N,NRST*%
X177475000Y-73725000D03*
%TO.P,U2,2,2*%
%TO.N,GND*%
X175175000Y-73725000D03*
%TD*%
D13*
%TO.P,J1,1,Pin_1*%
%TO.N,Net-(D1-A)*%
X164150000Y-69320000D03*
D14*
%TO.P,J1,2,Pin_2*%
%TO.N,GND*%
X161610000Y-69320000D03*
%TO.P,J1,3,Pin_3*%
%TO.N,CAN-*%
X164150000Y-66780000D03*
%TO.P,J1,4,Pin_4*%
X161610000Y-66780000D03*
%TO.P,J1,5,Pin_5*%
%TO.N,CAN+*%
X164150000Y-64240000D03*
%TO.P,J1,6,Pin_6*%
X161610000Y-64240000D03*
%TO.P,J1,7,Pin_7*%
%TO.N,GND*%
X164150000Y-61700000D03*
%TO.P,J1,8,Pin_8*%
%TO.N,5v*%
X161610000Y-61700000D03*
%TD*%
D10*
%TO.P,H2,1,1*%
%TO.N,GND*%
X184000000Y-57000000D03*
%TD*%
D13*
%TO.P,J3,1,A*%
%TO.N,VIN_JUMP*%
X184300000Y-69425000D03*
D14*
%TO.P,J3,2,B*%
%TO.N,VIN_SEL*%
X184300000Y-66885000D03*
%TD*%
D15*
%TO.P,C12,1*%
%TO.N,GND*%
X180750000Y-65350000D03*
%TO.P,C12,2*%
%TO.N,3v3*%
X179790000Y-65350000D03*
%TD*%
D16*
%TO.P,U4,1,A*%
%TO.N,5v*%
X173600000Y-67783800D03*
%TO.P,U4,2,B*%
%TO.N,VIN_JUMP*%
X171100000Y-73016200D03*
%TO.P,U4,3,C*%
%TO.N,VBUS*%
X168600000Y-67783800D03*
%TD*%
D17*
%TO.P,IC2,1,SCLK*%
%TO.N,SCLK*%
X177850002Y-71350001D03*
%TO.P,IC2,2,MOSI*%
%TO.N,MOSI*%
X178500000Y-71350001D03*
%TO.P,IC2,3,MISO*%
%TO.N,MISO*%
X179150002Y-71350001D03*
%TO.P,IC2,4,CS_N*%
%TO.N,!CS*%
X179800000Y-71350001D03*
%TO.P,IC2,5,VCC*%
%TO.N,3v3*%
X179800000Y-66949999D03*
%TO.P,IC2,6,GND*%
%TO.N,GND*%
X179150002Y-66949999D03*
%TO.P,IC2,7,TEST*%
X178500000Y-66949999D03*
%TO.P,IC2,8,ALERT_N*%
%TO.N,!ALERT*%
X177850002Y-66949999D03*
%TD*%
D18*
%TO.P,C16,1*%
%TO.N,BOOT0*%
X184250000Y-63130000D03*
%TO.P,C16,2*%
%TO.N,3v3*%
X184250000Y-62170000D03*
%TD*%
D11*
%TO.P,R8,1*%
%TO.N,!ALERT*%
X177490000Y-65350000D03*
%TO.P,R8,2*%
%TO.N,3v3*%
X178510000Y-65350000D03*
%TD*%
D19*
%TO.P,D3,1,K*%
%TO.N,GND*%
X182165000Y-59900000D03*
%TO.P,D3,2,A*%
%TO.N,Net-(D3-A)*%
X183135000Y-59900000D03*
%TD*%
D20*
%TO.P,R5,1*%
%TO.N,Net-(J2-CC2)*%
X173000000Y-64340000D03*
%TO.P,R5,2*%
%TO.N,GND*%
X173000000Y-65360000D03*
%TD*%
D21*
%TO.P,U3,1,1*%
%TO.N,3v3*%
X182459999Y-61512200D03*
%TO.P,U3,2,2*%
%TO.N,BOOT0*%
X182459999Y-63812200D03*
%TD*%
D22*
%TO.P,J2,15*%
%TO.N,GND*%
X179810000Y-61937800D03*
%TO.P,J2,16*%
X169590000Y-61937800D03*
%TO.P,J2,17*%
X179810000Y-58007800D03*
%TO.P,J2,18*%
X169590000Y-58007800D03*
D23*
%TO.P,J2,A1-B12,GND*%
X177900001Y-62512800D03*
%TO.P,J2,A4-B9,VBUS*%
%TO.N,VBUS*%
X177100000Y-62512800D03*
D24*
%TO.P,J2,A5,CC1*%
%TO.N,Net-(J2-CC1)*%
X175950000Y-62512800D03*
%TO.P,J2,A6,DP1*%
%TO.N,USB_D+*%
X174950000Y-62512800D03*
%TO.P,J2,A7,DN1*%
%TO.N,USB_D-*%
X174450000Y-62512800D03*
%TO.P,J2,A8,SBU1*%
%TO.N,unconnected-(J2-SBU1-PadA8)*%
X173450000Y-62512800D03*
D23*
%TO.P,J2,A9-B4,VBUS*%
%TO.N,VBUS*%
X172300000Y-62512800D03*
%TO.P,J2,A12-B1,GND*%
%TO.N,GND*%
X171500001Y-62512800D03*
D24*
%TO.P,J2,B5,CC2*%
%TO.N,Net-(J2-CC2)*%
X172950001Y-62512800D03*
%TO.P,J2,B6,DP2*%
%TO.N,USB_D+*%
X173949999Y-62512800D03*
%TO.P,J2,B7,DN2*%
%TO.N,USB_D-*%
X175450001Y-62512800D03*
%TO.P,J2,B8,SBU2*%
%TO.N,unconnected-(J2-SBU2-PadB8)*%
X176449999Y-62512800D03*
%TD*%
D15*
%TO.P,C15,1*%
%TO.N,Net-(C15-Pad1)*%
X167425000Y-59950000D03*
%TO.P,C15,2*%
%TO.N,GND*%
X166465000Y-59950000D03*
%TD*%
D25*
%TO.P,D1,1,K*%
%TO.N,5v*%
X165550000Y-74300000D03*
%TO.P,D1,2,A*%
%TO.N,Net-(D1-A)*%
X165550000Y-72200000D03*
%TD*%
D20*
%TO.P,R6,1*%
%TO.N,Net-(D3-A)*%
X184250000Y-59890000D03*
%TO.P,R6,2*%
%TO.N,3v3*%
X184250000Y-60910000D03*
%TD*%
D11*
%TO.P,R7,1*%
%TO.N,3v3*%
X178740000Y-72975000D03*
%TO.P,R7,2*%
%TO.N,!CS*%
X179760000Y-72975000D03*
%TD*%
D26*
%TO.P,R4,1*%
%TO.N,GND*%
X176960000Y-64150000D03*
%TO.P,R4,2*%
%TO.N,Net-(J2-CC1)*%
X175940000Y-64150000D03*
%TD*%
D27*
%TO.N,GND*%
X175525000Y-58600000D03*
X178650000Y-68494700D03*
X172166416Y-64616416D03*
X171725000Y-60375000D03*
X173950000Y-72175000D03*
X183303224Y-64565887D03*
X182725000Y-59075000D03*
X185250000Y-71500000D03*
X166275000Y-59025000D03*
X185275000Y-60500000D03*
X177960000Y-60470866D03*
X171104237Y-59095763D03*
X176400000Y-58600000D03*
X174375000Y-71675000D03*
X182700000Y-70450000D03*
X179150000Y-54950000D03*
X170000000Y-59750000D03*
X170900000Y-68000000D03*
X177300000Y-58550000D03*
X177193500Y-66269862D03*
X172200000Y-65797597D03*
X171249214Y-57905521D03*
X185125000Y-59625000D03*
X181463116Y-65957177D03*
X172100000Y-72800000D03*
X181461499Y-62500000D03*
X170350000Y-68375000D03*
X180596729Y-74905180D03*
X177750000Y-57100000D03*
X170741229Y-64026017D03*
X185300000Y-63150000D03*
%TO.N,VIN_SEL*%
X180950000Y-55600000D03*
X178525000Y-55950000D03*
%TO.N,3v3*%
X179400377Y-68174356D03*
X179675630Y-73795000D03*
X178263217Y-63580875D03*
X180147414Y-60290186D03*
X172350001Y-63584302D03*
X180145999Y-59511102D03*
X168039496Y-63108901D03*
X179750000Y-63650000D03*
X179625000Y-59875000D03*
X180503996Y-72699456D03*
%TO.N,Net-(C15-Pad1)*%
X166500000Y-58100000D03*
X167383500Y-62375000D03*
%TO.N,BOOT0*%
X177194500Y-67600000D03*
%TO.N,5v*%
X173093454Y-69738964D03*
X165500000Y-73500000D03*
%TO.N,MISO*%
X177125000Y-71957772D03*
%TO.N,NRST*%
X181750000Y-68450000D03*
%TO.N,!ALERT*%
X177850000Y-68275000D03*
%TO.N,USB_D-*%
X175728712Y-68728788D03*
%TO.N,!CS*%
X174800000Y-66500000D03*
%TO.N,USB_D+*%
X175728712Y-68113788D03*
%TO.N,SCLK*%
X177134526Y-70923755D03*
%TO.N,MOSI*%
X176375000Y-71175000D03*
%TO.N,VBUS*%
X176475000Y-61275000D03*
X169600000Y-64150000D03*
X172700000Y-61175000D03*
%TO.N,VIN_JUMP*%
X171500000Y-75000000D03*
%TD*%
D28*
%TO.N,GND*%
X179150002Y-66949999D02*
X178500000Y-66949999D01*
X177750000Y-57100000D02*
X178657800Y-58007800D01*
X179810000Y-61937800D02*
X180899299Y-61937800D01*
X185325000Y-63175000D02*
X185300000Y-63150000D01*
X169590000Y-58007800D02*
X171146935Y-58007800D01*
X181463116Y-65957177D02*
X180855939Y-65350000D01*
X170500000Y-61027800D02*
X169590000Y-61937800D01*
X170500000Y-59700000D02*
X170500000Y-61027800D01*
X172200000Y-65797597D02*
X172444005Y-65797597D01*
X166465000Y-59950000D02*
X166465000Y-59215000D01*
X174375000Y-71675000D02*
X175175000Y-72475000D01*
X175175000Y-72475000D02*
X175175000Y-73725000D01*
X178271201Y-62141600D02*
X178271201Y-60782067D01*
X182725000Y-59075000D02*
X182700000Y-59075000D01*
X172881602Y-65360000D02*
X173000000Y-65360000D01*
X180855939Y-65350000D02*
X180750000Y-65350000D01*
X185325000Y-64100000D02*
X185325000Y-63175000D01*
X171104237Y-59095763D02*
X170500000Y-59700000D01*
X176919000Y-65995362D02*
X177193500Y-66269862D01*
X171146935Y-58007800D02*
X171249214Y-57905521D01*
X171500001Y-62091164D02*
X171128799Y-61719962D01*
X180899299Y-61937800D02*
X181461499Y-62500000D01*
X182700000Y-59075000D02*
X182165000Y-59610000D01*
X176919000Y-64191000D02*
X176919000Y-65995362D01*
X178657800Y-58007800D02*
X179810000Y-58007800D01*
X182165000Y-59610000D02*
X182165000Y-59900000D01*
X171128799Y-61719962D02*
X171128799Y-60971201D01*
X176960000Y-64150000D02*
X176919000Y-64191000D01*
X172444005Y-65797597D02*
X172881602Y-65360000D01*
X178650000Y-68494700D02*
X178500000Y-68344700D01*
X166465000Y-59215000D02*
X166275000Y-59025000D01*
X171128799Y-60971201D02*
X171725000Y-60375000D01*
X171500001Y-62512800D02*
X171500001Y-62091164D01*
X177900001Y-62512800D02*
X178271201Y-62141600D01*
X178500000Y-68344700D02*
X178500000Y-66949999D01*
X178271201Y-60782067D02*
X177960000Y-60470866D01*
%TO.N,3v3*%
X179758066Y-68166934D02*
X180425000Y-67500000D01*
X180425000Y-66000000D02*
X179790000Y-65365000D01*
X180284897Y-59650000D02*
X180900000Y-59650000D01*
X179560000Y-73795000D02*
X179675630Y-73795000D01*
X179400377Y-68174356D02*
X179407799Y-68166934D01*
X184215000Y-60875000D02*
X184250000Y-60910000D01*
X180800000Y-60275000D02*
X180162600Y-60275000D01*
X184250000Y-62170000D02*
X183592200Y-61512200D01*
X182125000Y-60875000D02*
X184215000Y-60875000D01*
X180145999Y-59511102D02*
X180284897Y-59650000D01*
X179790000Y-65350000D02*
X179790000Y-66939999D01*
X182037200Y-61512200D02*
X180800000Y-60275000D01*
X178740000Y-72975000D02*
X179560000Y-73795000D01*
X183592200Y-61512200D02*
X182459999Y-61512200D01*
X178263217Y-65103217D02*
X178510000Y-65350000D01*
X179790000Y-65365000D02*
X179790000Y-65350000D01*
X180900000Y-59650000D02*
X182125000Y-60875000D01*
X179790000Y-66939999D02*
X179800000Y-66949999D01*
X179407799Y-68166934D02*
X179758066Y-68166934D01*
X182459999Y-61512200D02*
X182037200Y-61512200D01*
X178263217Y-63580875D02*
X178263217Y-65103217D01*
X180425000Y-67500000D02*
X180425000Y-66000000D01*
X180162600Y-60275000D02*
X180147414Y-60290186D01*
%TO.N,Net-(C15-Pad1)*%
X167425000Y-59025000D02*
X167425000Y-59950000D01*
X167383500Y-62375000D02*
X167425000Y-62333500D01*
X166500000Y-58100000D02*
X167425000Y-59025000D01*
X167425000Y-62333500D02*
X167425000Y-59950000D01*
%TO.N,BOOT0*%
X182459999Y-63812200D02*
X183612200Y-63812200D01*
X183900000Y-64100000D02*
X184305000Y-64100000D01*
X183695000Y-63130000D02*
X183012800Y-63812200D01*
X184250000Y-63130000D02*
X183695000Y-63130000D01*
X183012800Y-63812200D02*
X182459999Y-63812200D01*
X183612200Y-63812200D02*
X183900000Y-64100000D01*
X177194500Y-67600000D02*
X177200003Y-67605503D01*
X179605300Y-69094700D02*
X182459999Y-66240001D01*
X177200003Y-67605503D02*
X177200003Y-68474946D01*
X182459999Y-66240001D02*
X182459999Y-63812200D01*
X177819757Y-69094700D02*
X179605300Y-69094700D01*
X177200003Y-68474946D02*
X177819757Y-69094700D01*
%TO.N,Net-(D1-A)*%
X164150000Y-70800000D02*
X165550000Y-72200000D01*
X164150000Y-69320000D02*
X164150000Y-70800000D01*
%TO.N,5v*%
X173600000Y-67783800D02*
X173600000Y-69232418D01*
X165550000Y-73550000D02*
X165500000Y-73500000D01*
X173600000Y-69232418D02*
X173093454Y-69738964D01*
X165550000Y-74300000D02*
X165550000Y-73550000D01*
%TO.N,Net-(D3-A)*%
X183135000Y-59900000D02*
X184240000Y-59900000D01*
X184240000Y-59900000D02*
X184250000Y-59890000D01*
%TO.N,MISO*%
X179150002Y-70425001D02*
X179150002Y-71350001D01*
X176282829Y-71957772D02*
X175775000Y-71449943D01*
X175775000Y-71449943D02*
X175775000Y-70475000D01*
X177125000Y-71957772D02*
X176282829Y-71957772D01*
X178625001Y-69900000D02*
X179150002Y-70425001D01*
X176350000Y-69900000D02*
X178625001Y-69900000D01*
X175775000Y-70475000D02*
X176350000Y-69900000D01*
%TO.N,NRST*%
X181744088Y-72931252D02*
X180279340Y-74396000D01*
X178146000Y-74396000D02*
X177475000Y-73725000D01*
X180279340Y-74396000D02*
X178146000Y-74396000D01*
X181744088Y-68455912D02*
X181744088Y-72931252D01*
X181750000Y-68450000D02*
X181744088Y-68455912D01*
%TO.N,!ALERT*%
X177850002Y-65710002D02*
X177850002Y-66949999D01*
X177490000Y-65350000D02*
X177850002Y-65710002D01*
X177850002Y-68274998D02*
X177850000Y-68275000D01*
X177850002Y-66949999D02*
X177850002Y-68274998D01*
D29*
%TO.N,USB_D-*%
X174450000Y-63370051D02*
X174375999Y-63444052D01*
X174375999Y-64127097D02*
X176676000Y-66427098D01*
X175860212Y-68597288D02*
X175728712Y-68728788D01*
X175457801Y-63280099D02*
X175237900Y-63500000D01*
X174450000Y-62512800D02*
X174450000Y-63370051D01*
X174375999Y-63444052D02*
X174375999Y-64127097D01*
X174662100Y-63500000D02*
X174457800Y-63295700D01*
X176310974Y-68597288D02*
X175860212Y-68597288D01*
X174457800Y-63295700D02*
X174457800Y-62537200D01*
X175237900Y-63500000D02*
X174662100Y-63500000D01*
X176676000Y-66427098D02*
X176676000Y-68232262D01*
X175457801Y-62537200D02*
X175457801Y-63280099D01*
X176676000Y-68232262D02*
X176310974Y-68597288D01*
D28*
%TO.N,!CS*%
X178870699Y-69495700D02*
X179800000Y-70425001D01*
X174800000Y-66500000D02*
X174818424Y-66518424D01*
X175625790Y-69495700D02*
X178870699Y-69495700D01*
X179735000Y-71415001D02*
X179800000Y-71350001D01*
X174818424Y-66518424D02*
X174818424Y-68688334D01*
X174800000Y-66500000D02*
X174704399Y-66595601D01*
X179735000Y-73050000D02*
X179735000Y-71415001D01*
X179800000Y-70425001D02*
X179800000Y-71350001D01*
X174818424Y-68688334D02*
X175625790Y-69495700D01*
D29*
%TO.N,USB_D+*%
X174745700Y-61550000D02*
X174950000Y-61754300D01*
X174950000Y-61754300D02*
X174950000Y-62512800D01*
X173949999Y-63370051D02*
X174024000Y-63444052D01*
X175860212Y-68245288D02*
X175728712Y-68113788D01*
X174024000Y-64272902D02*
X176324000Y-66572902D01*
X176324000Y-68086458D02*
X176165170Y-68245288D01*
X176324000Y-66572902D02*
X176324000Y-68086458D01*
X174024000Y-63444052D02*
X174024000Y-64272902D01*
X173949999Y-62512800D02*
X173949999Y-63370051D01*
X174169900Y-61550000D02*
X174745700Y-61550000D01*
X173949999Y-62512800D02*
X173949999Y-61769901D01*
X173949999Y-61769901D02*
X174169900Y-61550000D01*
X176165170Y-68245288D02*
X175860212Y-68245288D01*
D28*
%TO.N,SCLK*%
X177249631Y-71038860D02*
X177249631Y-71094664D01*
X177504968Y-71350001D02*
X177850002Y-71350001D01*
X177249631Y-71094664D02*
X177504968Y-71350001D01*
X177134526Y-70923755D02*
X177249631Y-71038860D01*
%TO.N,MOSI*%
X178500000Y-70425001D02*
X178500000Y-71350001D01*
X176849000Y-70301000D02*
X178375999Y-70301000D01*
X176426996Y-70723004D02*
X176849000Y-70301000D01*
X176375000Y-71175000D02*
X176426996Y-71123004D01*
X176426996Y-71123004D02*
X176426996Y-70723004D01*
X178375999Y-70301000D02*
X178500000Y-70425001D01*
%TO.N,Net-(J2-CC2)*%
X172950001Y-64290001D02*
X172950001Y-62512800D01*
X173000000Y-64340000D02*
X172950001Y-64290001D01*
%TO.N,VBUS*%
X168600000Y-67783800D02*
X168600000Y-65150000D01*
X176538099Y-61275000D02*
X176903399Y-61640300D01*
X172300000Y-62512800D02*
X172496601Y-62316199D01*
X168600000Y-65150000D02*
X169600000Y-64150000D01*
X172491199Y-61640300D02*
X172491199Y-61383801D01*
X176903399Y-61640300D02*
X176903399Y-62316199D01*
X172496601Y-62316199D02*
X172496601Y-61640300D01*
X176475000Y-61275000D02*
X176538099Y-61275000D01*
X176903399Y-62316199D02*
X177100000Y-62512800D01*
X172496601Y-61640300D02*
X172491199Y-61640300D01*
X172491199Y-61383801D02*
X172700000Y-61175000D01*
%TO.N,Net-(J2-CC1)*%
X175950000Y-62512800D02*
X175950000Y-64140000D01*
X175950000Y-64140000D02*
X175940000Y-64150000D01*
%TO.N,VIN_JUMP*%
X171100000Y-74600000D02*
X171500000Y-75000000D01*
X171100000Y-73016200D02*
X171100000Y-74600000D01*
%TD*%
%TA.AperFunction,Conductor*%
%TO.N,GND*%
G36*
X177942606Y-56985369D02*
G01*
X177943153Y-56986283D01*
X178131727Y-57336766D01*
X178132629Y-57345676D01*
X178129697Y-57350583D01*
X178000583Y-57479697D01*
X177992310Y-57483124D01*
X177986766Y-57481727D01*
X177636283Y-57293153D01*
X177630622Y-57286216D01*
X177631524Y-57277306D01*
X177632061Y-57276407D01*
X177747981Y-57101274D01*
X177751274Y-57097981D01*
X177926394Y-56982070D01*
X177935183Y-56980362D01*
X177942606Y-56985369D01*
G37*
%TD.AperFunction*%
%TD*%
%TA.AperFunction,Conductor*%
%TO.N,GND*%
G36*
X171130589Y-57727910D02*
G01*
X171247475Y-57901455D01*
X171249255Y-57910231D01*
X171249236Y-57910323D01*
X171207321Y-58116355D01*
X171202314Y-58123779D01*
X171195287Y-58125709D01*
X170838851Y-58108342D01*
X170830754Y-58104517D01*
X170827720Y-58096656D01*
X170827720Y-57914210D01*
X170831147Y-57905937D01*
X170833116Y-57904353D01*
X171114590Y-57724584D01*
X171123404Y-57723020D01*
X171130589Y-57727910D01*
G37*
%TD.AperFunction*%
%TD*%
%TA.AperFunction,Conductor*%
%TO.N,GND*%
G36*
X181226348Y-65575448D02*
G01*
X181481530Y-65712747D01*
X181576832Y-65764023D01*
X181582493Y-65770960D01*
X181581591Y-65779870D01*
X181581044Y-65780784D01*
X181465136Y-65955899D01*
X181461838Y-65959197D01*
X181286723Y-66075105D01*
X181277932Y-66076814D01*
X181270509Y-66071807D01*
X181269962Y-66070893D01*
X181081388Y-65720410D01*
X181080486Y-65711500D01*
X181083416Y-65706595D01*
X181212533Y-65577478D01*
X181220805Y-65574052D01*
X181226348Y-65575448D01*
G37*
%TD.AperFunction*%
%TD*%
%TA.AperFunction,Conductor*%
%TO.N,GND*%
G36*
X172511239Y-65584156D02*
G01*
X172519193Y-65587579D01*
X172647955Y-65716341D01*
X172651382Y-65724614D01*
X172647955Y-65732887D01*
X172646874Y-65733843D01*
X172334887Y-65976974D01*
X172326255Y-65979356D01*
X172318466Y-65974937D01*
X172317995Y-65974288D01*
X172202029Y-65802360D01*
X172200244Y-65793584D01*
X172200245Y-65793576D01*
X172241950Y-65586569D01*
X172246944Y-65579138D01*
X172253735Y-65577186D01*
X172511239Y-65584156D01*
G37*
%TD.AperFunction*%
%TD*%
%TA.AperFunction,Conductor*%
%TO.N,GND*%
G36*
X174567606Y-71560369D02*
G01*
X174568153Y-71561283D01*
X174756727Y-71911766D01*
X174757629Y-71920676D01*
X174754697Y-71925583D01*
X174625583Y-72054697D01*
X174617310Y-72058124D01*
X174611766Y-72056727D01*
X174261283Y-71868153D01*
X174255622Y-71861216D01*
X174256524Y-71852306D01*
X174257061Y-71851407D01*
X174372981Y-71676274D01*
X174376274Y-71672981D01*
X174551394Y-71557070D01*
X174560183Y-71555362D01*
X174567606Y-71560369D01*
G37*
%TD.AperFunction*%
%TD*%
%TA.AperFunction,Conductor*%
%TO.N,GND*%
G36*
X185508826Y-63191484D02*
G01*
X185516249Y-63196490D01*
X185517958Y-63205280D01*
X185517875Y-63205658D01*
X185427141Y-63586687D01*
X185421891Y-63593942D01*
X185415759Y-63595677D01*
X185233203Y-63595677D01*
X185224930Y-63592250D01*
X185222204Y-63587965D01*
X185083945Y-63206644D01*
X185084346Y-63197698D01*
X185090956Y-63191657D01*
X185092606Y-63191192D01*
X185297670Y-63149474D01*
X185302330Y-63149474D01*
X185508826Y-63191484D01*
G37*
%TD.AperFunction*%
%TD*%
%TA.AperFunction,Conductor*%
%TO.N,GND*%
G36*
X170926930Y-58977287D02*
G01*
X170927838Y-58977830D01*
X171102959Y-59093742D01*
X171106257Y-59097040D01*
X171222165Y-59272155D01*
X171223874Y-59280946D01*
X171218867Y-59288369D01*
X171217953Y-59288916D01*
X170867470Y-59477490D01*
X170858560Y-59478392D01*
X170853653Y-59475460D01*
X170724539Y-59346346D01*
X170721112Y-59338073D01*
X170722508Y-59332530D01*
X170911084Y-58982045D01*
X170918020Y-58976385D01*
X170926930Y-58977287D01*
G37*
%TD.AperFunction*%
%TD*%
%TA.AperFunction,Conductor*%
%TO.N,GND*%
G36*
X177021414Y-65939055D02*
G01*
X177306431Y-66076941D01*
X177312386Y-66083629D01*
X177311868Y-66092568D01*
X177311080Y-66093949D01*
X177196208Y-66266786D01*
X177188775Y-66271780D01*
X177188696Y-66271795D01*
X176982246Y-66311925D01*
X176973471Y-66310140D01*
X176969186Y-66304871D01*
X176825602Y-65954018D01*
X176825640Y-65945064D01*
X176831999Y-65938759D01*
X176836430Y-65937887D01*
X177016319Y-65937887D01*
X177021414Y-65939055D01*
G37*
%TD.AperFunction*%
%TD*%
%TA.AperFunction,Conductor*%
%TO.N,GND*%
G36*
X181224731Y-62118271D02*
G01*
X181479913Y-62255570D01*
X181575215Y-62306846D01*
X181580876Y-62313783D01*
X181579974Y-62322693D01*
X181579427Y-62323607D01*
X181463519Y-62498722D01*
X181460221Y-62502020D01*
X181285106Y-62617928D01*
X181276315Y-62619637D01*
X181268892Y-62614630D01*
X181268345Y-62613716D01*
X181079771Y-62263233D01*
X181078869Y-62254323D01*
X181081799Y-62249418D01*
X181210916Y-62120301D01*
X181219188Y-62116875D01*
X181224731Y-62118271D01*
G37*
%TD.AperFunction*%
%TD*%
%TA.AperFunction,Conductor*%
%TO.N,GND*%
G36*
X182547680Y-58956475D02*
G01*
X182548167Y-58956780D01*
X182723722Y-59072979D01*
X182727020Y-59076277D01*
X182842638Y-59250955D01*
X182844347Y-59259746D01*
X182839340Y-59267169D01*
X182838011Y-59267929D01*
X182475570Y-59444692D01*
X182466632Y-59445238D01*
X182462168Y-59442449D01*
X182333068Y-59313349D01*
X182329641Y-59305076D01*
X182331272Y-59299119D01*
X182531653Y-58960581D01*
X182538815Y-58955209D01*
X182547680Y-58956475D01*
G37*
%TD.AperFunction*%
%TD*%
%TA.AperFunction,Conductor*%
%TO.N,GND*%
G36*
X166492678Y-58985178D02*
G01*
X166497620Y-58992646D01*
X166497672Y-58992931D01*
X166562697Y-59378329D01*
X166560694Y-59387057D01*
X166553107Y-59391813D01*
X166551160Y-59391976D01*
X166369249Y-59391976D01*
X166361741Y-59389249D01*
X166158032Y-59218804D01*
X166153886Y-59210867D01*
X166155795Y-59203356D01*
X166272292Y-59028074D01*
X166279722Y-59023082D01*
X166483904Y-58983393D01*
X166492678Y-58985178D01*
G37*
%TD.AperFunction*%
%TD*%
%TA.AperFunction,Conductor*%
%TO.N,GND*%
G36*
X171547693Y-60256524D02*
G01*
X171548601Y-60257067D01*
X171723722Y-60372979D01*
X171727020Y-60376277D01*
X171842928Y-60551392D01*
X171844637Y-60560183D01*
X171839630Y-60567606D01*
X171838716Y-60568153D01*
X171488233Y-60756727D01*
X171479323Y-60757629D01*
X171474416Y-60754697D01*
X171345302Y-60625583D01*
X171341875Y-60617310D01*
X171343271Y-60611767D01*
X171531847Y-60261282D01*
X171538783Y-60255622D01*
X171547693Y-60256524D01*
G37*
%TD.AperFunction*%
%TD*%
%TA.AperFunction,Conductor*%
%TO.N,GND*%
G36*
X178603080Y-68111043D02*
G01*
X178603477Y-68111459D01*
X178800701Y-68329481D01*
X178828024Y-68359685D01*
X178831032Y-68368119D01*
X178827196Y-68376211D01*
X178825883Y-68377238D01*
X178651971Y-68494372D01*
X178647667Y-68496153D01*
X178442328Y-68536066D01*
X178433553Y-68534281D01*
X178428611Y-68526813D01*
X178428424Y-68525383D01*
X178400850Y-68120109D01*
X178403707Y-68111624D01*
X178411729Y-68107643D01*
X178412523Y-68107616D01*
X178594807Y-68107616D01*
X178603080Y-68111043D01*
G37*
%TD.AperFunction*%
%TD*%
%TA.AperFunction,Conductor*%
%TO.N,GND*%
G36*
X178152344Y-60356410D02*
G01*
X178153023Y-60357577D01*
X178208637Y-60467200D01*
X178362580Y-60770646D01*
X178363267Y-60779574D01*
X178357439Y-60786373D01*
X178352146Y-60787639D01*
X178173332Y-60787639D01*
X178169207Y-60786888D01*
X178149791Y-60779574D01*
X177925383Y-60695038D01*
X177918849Y-60688915D01*
X177918031Y-60681816D01*
X177959053Y-60474648D01*
X177964018Y-60467202D01*
X178136130Y-60353121D01*
X178144917Y-60351407D01*
X178152344Y-60356410D01*
G37*
%TD.AperFunction*%
%TD*%
%TA.AperFunction,Conductor*%
%TO.N,3v3*%
G36*
X180280029Y-59331562D02*
G01*
X180280950Y-59332251D01*
X180539942Y-59546490D01*
X180544133Y-59554403D01*
X180544185Y-59555505D01*
X180544185Y-59737807D01*
X180540758Y-59746080D01*
X180532485Y-59749507D01*
X180532003Y-59749497D01*
X180115704Y-59732339D01*
X180107579Y-59728574D01*
X180104496Y-59720167D01*
X180104701Y-59718417D01*
X180144546Y-59513430D01*
X180146324Y-59509134D01*
X180263789Y-59334729D01*
X180271253Y-59329782D01*
X180280029Y-59331562D01*
G37*
%TD.AperFunction*%
%TD*%
%TA.AperFunction,Conductor*%
%TO.N,3v3*%
G36*
X180203267Y-60072648D02*
G01*
X180584362Y-60172708D01*
X180591494Y-60178123D01*
X180593091Y-60184024D01*
X180593091Y-60366605D01*
X180589664Y-60374878D01*
X180585139Y-60377688D01*
X180203877Y-60506613D01*
X180194942Y-60506017D01*
X180189046Y-60499278D01*
X180188664Y-60497863D01*
X180146888Y-60292515D01*
X180146888Y-60287854D01*
X180188842Y-60081632D01*
X180193848Y-60074211D01*
X180202638Y-60072502D01*
X180203267Y-60072648D01*
G37*
%TD.AperFunction*%
%TD*%
%TA.AperFunction,Conductor*%
%TO.N,3v3*%
G36*
X179391102Y-73479958D02*
G01*
X179709219Y-73571361D01*
X179716223Y-73576939D01*
X179717471Y-73584846D01*
X179677275Y-73790896D01*
X179672327Y-73798360D01*
X179672249Y-73798412D01*
X179497373Y-73914161D01*
X179488582Y-73915870D01*
X179481854Y-73911807D01*
X179249748Y-73627669D01*
X179247168Y-73619094D01*
X179250535Y-73611995D01*
X179379600Y-73482930D01*
X179387872Y-73479504D01*
X179391102Y-73479958D01*
G37*
%TD.AperFunction*%
%TD*%
%TA.AperFunction,Conductor*%
%TO.N,3v3*%
G36*
X179456251Y-67956830D02*
G01*
X179746514Y-68033202D01*
X179751810Y-68036244D01*
X179879598Y-68164032D01*
X179883025Y-68172305D01*
X179879598Y-68180578D01*
X179876630Y-68182733D01*
X179534600Y-68356745D01*
X179525673Y-68357442D01*
X179519595Y-68352860D01*
X179402406Y-68179119D01*
X179400621Y-68170343D01*
X179400622Y-68170335D01*
X179441822Y-67965838D01*
X179446816Y-67958406D01*
X179455603Y-67956680D01*
X179456251Y-67956830D01*
G37*
%TD.AperFunction*%
%TD*%
%TA.AperFunction,Conductor*%
%TO.N,3v3*%
G36*
X178471334Y-63622214D02*
G01*
X178478757Y-63627221D01*
X178480466Y-63636011D01*
X178480206Y-63637045D01*
X178365720Y-64018218D01*
X178360059Y-64025155D01*
X178354515Y-64026552D01*
X178171919Y-64026552D01*
X178163646Y-64023125D01*
X178160714Y-64018218D01*
X178046227Y-63637045D01*
X178047129Y-63628135D01*
X178054066Y-63622474D01*
X178055084Y-63622218D01*
X178260887Y-63580349D01*
X178265547Y-63580349D01*
X178471334Y-63622214D01*
G37*
%TD.AperFunction*%
%TD*%
%TA.AperFunction,Conductor*%
%TO.N,Net-(C15-Pad1)*%
G36*
X166692606Y-57985369D02*
G01*
X166693153Y-57986283D01*
X166881727Y-58336766D01*
X166882629Y-58345676D01*
X166879697Y-58350583D01*
X166750583Y-58479697D01*
X166742310Y-58483124D01*
X166736766Y-58481727D01*
X166386283Y-58293153D01*
X166380622Y-58286216D01*
X166381524Y-58277306D01*
X166382061Y-58276407D01*
X166497981Y-58101274D01*
X166501274Y-58097981D01*
X166676394Y-57982070D01*
X166685183Y-57980362D01*
X166692606Y-57985369D01*
G37*
%TD.AperFunction*%
%TD*%
%TA.AperFunction,Conductor*%
%TO.N,Net-(C15-Pad1)*%
G36*
X167523654Y-61932750D02*
G01*
X167526860Y-61938761D01*
X167601928Y-62319696D01*
X167600166Y-62328475D01*
X167592781Y-62333423D01*
X167385832Y-62375525D01*
X167381168Y-62375525D01*
X167176603Y-62333908D01*
X167169179Y-62328901D01*
X167167470Y-62320111D01*
X167168083Y-62318073D01*
X167322045Y-61936644D01*
X167328319Y-61930255D01*
X167332894Y-61929323D01*
X167515381Y-61929323D01*
X167523654Y-61932750D01*
G37*
%TD.AperFunction*%
%TD*%
%TA.AperFunction,Conductor*%
%TO.N,BOOT0*%
G36*
X177402775Y-67641372D02*
G01*
X177410198Y-67646378D01*
X177411907Y-67655168D01*
X177411689Y-67656060D01*
X177302433Y-68037201D01*
X177296859Y-68044210D01*
X177291186Y-68045677D01*
X177108592Y-68045677D01*
X177100319Y-68042250D01*
X177097430Y-68037483D01*
X176977712Y-67656278D01*
X176978502Y-67647358D01*
X176985368Y-67641610D01*
X176986534Y-67641308D01*
X177192170Y-67599474D01*
X177196830Y-67599474D01*
X177402775Y-67641372D01*
G37*
%TD.AperFunction*%
%TD*%
%TA.AperFunction,Conductor*%
%TO.N,5v*%
G36*
X173344037Y-69359266D02*
G01*
X173473151Y-69488380D01*
X173476578Y-69496653D01*
X173475181Y-69502197D01*
X173286607Y-69852680D01*
X173279670Y-69858341D01*
X173270760Y-69857439D01*
X173269846Y-69856892D01*
X173094731Y-69740984D01*
X173091433Y-69737686D01*
X172975525Y-69562571D01*
X172973816Y-69553780D01*
X172978823Y-69546357D01*
X172979725Y-69545816D01*
X173330221Y-69357235D01*
X173339130Y-69356334D01*
X173344037Y-69359266D01*
G37*
%TD.AperFunction*%
%TD*%
%TA.AperFunction,Conductor*%
%TO.N,5v*%
G36*
X165709500Y-73541621D02*
G01*
X165716924Y-73546628D01*
X165718689Y-73555125D01*
X165651710Y-73933487D01*
X165646893Y-73941037D01*
X165640189Y-73943148D01*
X165457699Y-73943148D01*
X165449426Y-73939721D01*
X165446954Y-73936078D01*
X165316759Y-73633915D01*
X165316632Y-73624961D01*
X165320966Y-73619582D01*
X165495935Y-73501737D01*
X165504709Y-73499958D01*
X165709500Y-73541621D01*
G37*
%TD.AperFunction*%
%TD*%
%TA.AperFunction,Conductor*%
%TO.N,MISO*%
G36*
X177077739Y-71741684D02*
G01*
X177083400Y-71748621D01*
X177083660Y-71749655D01*
X177125525Y-71955440D01*
X177125525Y-71960104D01*
X177083660Y-72165888D01*
X177078653Y-72173312D01*
X177069863Y-72175021D01*
X177068829Y-72174761D01*
X176687657Y-72060275D01*
X176680720Y-72054614D01*
X176679323Y-72049070D01*
X176679323Y-71866473D01*
X176682750Y-71858200D01*
X176687654Y-71855269D01*
X177068829Y-71740782D01*
X177077739Y-71741684D01*
G37*
%TD.AperFunction*%
%TD*%
%TA.AperFunction,Conductor*%
%TO.N,NRST*%
G36*
X181957946Y-68491305D02*
G01*
X181965369Y-68496311D01*
X181967078Y-68505101D01*
X181966772Y-68506285D01*
X181846667Y-68887493D01*
X181840913Y-68894354D01*
X181835508Y-68895677D01*
X181652914Y-68895677D01*
X181644641Y-68892250D01*
X181641664Y-68887190D01*
X181532862Y-68506285D01*
X181532795Y-68506050D01*
X181533818Y-68497156D01*
X181540832Y-68491589D01*
X181541704Y-68491376D01*
X181747670Y-68449474D01*
X181752330Y-68449474D01*
X181957946Y-68491305D01*
G37*
%TD.AperFunction*%
%TD*%
%TA.AperFunction,Conductor*%
%TO.N,!ALERT*%
G36*
X177949573Y-67832750D02*
G01*
X177952505Y-67837657D01*
X178066989Y-68218829D01*
X178066087Y-68227739D01*
X178059150Y-68233400D01*
X178058116Y-68233660D01*
X177852332Y-68275525D01*
X177847668Y-68275525D01*
X177641883Y-68233660D01*
X177634459Y-68228653D01*
X177632750Y-68219863D01*
X177633010Y-68218829D01*
X177747499Y-67837657D01*
X177753160Y-67830720D01*
X177758704Y-67829323D01*
X177941300Y-67829323D01*
X177949573Y-67832750D01*
G37*
%TD.AperFunction*%
%TD*%
%TA.AperFunction,Conductor*%
%TO.N,USB_D-*%
G36*
X175948616Y-68507509D02*
G01*
X176080647Y-68508780D01*
X176080648Y-68508780D01*
X176081556Y-68508784D01*
X176082318Y-68508788D01*
X176082344Y-68508788D01*
X176122596Y-68508788D01*
X176130869Y-68512215D01*
X176134296Y-68520488D01*
X176134296Y-68685174D01*
X176130869Y-68693447D01*
X176129917Y-68694300D01*
X175863635Y-68907910D01*
X175855037Y-68910414D01*
X175847188Y-68906105D01*
X175846610Y-68905320D01*
X175729038Y-68730757D01*
X175727258Y-68726457D01*
X175688726Y-68528220D01*
X175690511Y-68519445D01*
X175697979Y-68514503D01*
X175700211Y-68514288D01*
X175781440Y-68514288D01*
X175786192Y-68513014D01*
X175807521Y-68507298D01*
X175810421Y-68506902D01*
X175847952Y-68506542D01*
X175848127Y-68506542D01*
X175948616Y-68507509D01*
G37*
%TD.AperFunction*%
%TD*%
%TA.AperFunction,Conductor*%
%TO.N,!CS*%
G36*
X175008641Y-66541446D02*
G01*
X175016064Y-66546453D01*
X175017773Y-66555244D01*
X175017647Y-66555797D01*
X174920667Y-66936863D01*
X174915305Y-66944035D01*
X174909328Y-66945677D01*
X174726755Y-66945677D01*
X174718482Y-66942250D01*
X174715699Y-66937805D01*
X174583695Y-66556523D01*
X174584226Y-66547584D01*
X174590923Y-66541639D01*
X174592408Y-66541232D01*
X174797670Y-66499474D01*
X174802330Y-66499474D01*
X175008641Y-66541446D01*
G37*
%TD.AperFunction*%
%TD*%
%TA.AperFunction,Conductor*%
%TO.N,USB_D+*%
G36*
X175862850Y-67934087D02*
G01*
X175863635Y-67934665D01*
X176129917Y-68148275D01*
X176134226Y-68156124D01*
X176134296Y-68157401D01*
X176134296Y-68326588D01*
X176130869Y-68334861D01*
X176122596Y-68338288D01*
X176082318Y-68338288D01*
X176082205Y-68338287D01*
X175810429Y-68335672D01*
X175807514Y-68335274D01*
X175781441Y-68328288D01*
X175781439Y-68328288D01*
X175700211Y-68328288D01*
X175691938Y-68324861D01*
X175688511Y-68316588D01*
X175688726Y-68314356D01*
X175698186Y-68265683D01*
X175727259Y-68116116D01*
X175729037Y-68111820D01*
X175846611Y-67937254D01*
X175854074Y-67932307D01*
X175862850Y-67934087D01*
G37*
%TD.AperFunction*%
%TD*%
%TA.AperFunction,Conductor*%
%TO.N,SCLK*%
G36*
X177326145Y-70809777D02*
G01*
X177327137Y-70811613D01*
X177489341Y-71188800D01*
X177489462Y-71197754D01*
X177486866Y-71201695D01*
X177357821Y-71330740D01*
X177349548Y-71334167D01*
X177343079Y-71332215D01*
X177019258Y-71117297D01*
X177014260Y-71109867D01*
X177015971Y-71101093D01*
X177132507Y-70925029D01*
X177135800Y-70921736D01*
X177309933Y-70806478D01*
X177318722Y-70804770D01*
X177326145Y-70809777D01*
G37*
%TD.AperFunction*%
%TD*%
%TA.AperFunction,Conductor*%
%TO.N,MOSI*%
G36*
X176525413Y-70736106D02*
G01*
X176528670Y-70742391D01*
X176593748Y-71119915D01*
X176591776Y-71128650D01*
X176584550Y-71133368D01*
X176379802Y-71175022D01*
X176371012Y-71173313D01*
X176370934Y-71173261D01*
X176196019Y-71055452D01*
X176191071Y-71047988D01*
X176191838Y-71041053D01*
X176288811Y-70819800D01*
X176323927Y-70739682D01*
X176330387Y-70733481D01*
X176334643Y-70732679D01*
X176517140Y-70732679D01*
X176525413Y-70736106D01*
G37*
%TD.AperFunction*%
%TD*%
%TA.AperFunction,Conductor*%
%TO.N,VBUS*%
G36*
X176668580Y-61159535D02*
G01*
X176746783Y-61274293D01*
X176874139Y-61461182D01*
X176886731Y-61479659D01*
X176888559Y-61488426D01*
X176885336Y-61494521D01*
X176756308Y-61623549D01*
X176748035Y-61626976D01*
X176743536Y-61626076D01*
X176512603Y-61529842D01*
X176363069Y-61467528D01*
X176356751Y-61461182D01*
X176356770Y-61452227D01*
X176357811Y-61450275D01*
X176472981Y-61276274D01*
X176476274Y-61272981D01*
X176652456Y-61156367D01*
X176661245Y-61154659D01*
X176668580Y-61159535D01*
G37*
%TD.AperFunction*%
%TD*%
%TA.AperFunction,Conductor*%
%TO.N,VBUS*%
G36*
X169422693Y-64031524D02*
G01*
X169423601Y-64032067D01*
X169598722Y-64147979D01*
X169602020Y-64151277D01*
X169717928Y-64326392D01*
X169719637Y-64335183D01*
X169714630Y-64342606D01*
X169713716Y-64343153D01*
X169363233Y-64531727D01*
X169354323Y-64532629D01*
X169349416Y-64529697D01*
X169220302Y-64400583D01*
X169216875Y-64392310D01*
X169218271Y-64386767D01*
X169406847Y-64036282D01*
X169413783Y-64030622D01*
X169422693Y-64031524D01*
G37*
%TD.AperFunction*%
%TD*%
%TA.AperFunction,Conductor*%
%TO.N,VBUS*%
G36*
X172695196Y-61173066D02*
G01*
X172702664Y-61178008D01*
X172702708Y-61178075D01*
X172818830Y-61352793D01*
X172820556Y-61361580D01*
X172816022Y-61368691D01*
X172641016Y-61497517D01*
X172595855Y-61530762D01*
X172594294Y-61531911D01*
X172587358Y-61534189D01*
X172405733Y-61534189D01*
X172397460Y-61530762D01*
X172394033Y-61522489D01*
X172394303Y-61519990D01*
X172428826Y-61362081D01*
X172476881Y-61142270D01*
X172481996Y-61134922D01*
X172490543Y-61133286D01*
X172695196Y-61173066D01*
G37*
%TD.AperFunction*%
%TD*%
%TA.AperFunction,Conductor*%
%TO.N,VIN_JUMP*%
G36*
X171263232Y-74618271D02*
G01*
X171518414Y-74755570D01*
X171613716Y-74806846D01*
X171619377Y-74813783D01*
X171618475Y-74822693D01*
X171617928Y-74823607D01*
X171502020Y-74998722D01*
X171498722Y-75002020D01*
X171323607Y-75117928D01*
X171314816Y-75119637D01*
X171307393Y-75114630D01*
X171306846Y-75113716D01*
X171118272Y-74763233D01*
X171117370Y-74754323D01*
X171120300Y-74749418D01*
X171249417Y-74620301D01*
X171257689Y-74616875D01*
X171263232Y-74618271D01*
G37*
%TD.AperFunction*%
%TD*%
M02*
