%TF.GenerationSoftware,KiCad,Pcbnew,10.0.0*%
%TF.CreationDate,2026-09-03T16:49:28-04:00*%
%TF.ProjectId,06-main-peripheral,30362d6d-6169-46e2-9d70-657269706865,rev?*%
%TF.SameCoordinates,Original*%
%TF.FileFunction,Soldermask,Top*%
%TF.FilePolarity,Negative*%
%FSLAX46Y46*%
G04 Gerber Fmt 4.6, Leading zero omitted, Abs format (unit mm)*
G04 Created by KiCad (PCBNEW 10.0.0) date 2026-09-03 16:49:28*
%MOMM*%
%LPD*%
G01*
G04 APERTURE LIST*
G04 Aperture macros list*
%AMRoundRect*
0 Rectangle with rounded corners*
0 $1 Rounding radius*
0 $2 $3 $4 $5 $6 $7 $8 $9 X,Y pos of 4 corners*
0 Add a 4 corners polygon primitive as box body*
4,1,4,$2,$3,$4,$5,$6,$7,$8,$9,$2,$3,0*
0 Add four circle primitives for the rounded corners*
1,1,$1+$1,$2,$3*
1,1,$1+$1,$4,$5*
1,1,$1+$1,$6,$7*
1,1,$1+$1,$8,$9*
0 Add four rect primitives between the rounded corners*
20,1,$1+$1,$2,$3,$4,$5,0*
20,1,$1+$1,$4,$5,$6,$7,0*
20,1,$1+$1,$6,$7,$8,$9,0*
20,1,$1+$1,$8,$9,$2,$3,0*%
G04 Aperture macros list end*
%ADD10R,1.700000X1.700000*%
%ADD11C,1.700000*%
%ADD12C,1.712000*%
%ADD13RoundRect,0.102000X-0.650000X0.600000X-0.650000X-0.600000X0.650000X-0.600000X0.650000X0.600000X0*%
%ADD14RoundRect,0.237500X0.250000X0.237500X-0.250000X0.237500X-0.250000X-0.237500X0.250000X-0.237500X0*%
%ADD15RoundRect,0.237500X-0.237500X0.300000X-0.237500X-0.300000X0.237500X-0.300000X0.237500X0.300000X0*%
%ADD16R,0.400000X1.550000*%
%ADD17R,0.300000X0.650000*%
%ADD18R,0.300000X1.200000*%
G04 APERTURE END LIST*
D10*
%TO.C,J4*%
X143025000Y-96450000D03*
D11*
X144975000Y-95825000D03*
X143025000Y-93050000D03*
X144975000Y-93675000D03*
%TD*%
D10*
%TO.C,J3*%
X162950000Y-95725000D03*
D11*
X162325000Y-93775000D03*
X159550000Y-95725000D03*
X160175000Y-93775000D03*
%TD*%
D12*
%TO.C,SW1*%
X135218800Y-81788000D03*
X137718800Y-81788000D03*
X140218800Y-81788000D03*
%TD*%
D13*
%TO.C,D2*%
X146406000Y-82727800D03*
X149606000Y-82727800D03*
X149606000Y-78527800D03*
X146406000Y-78527800D03*
%TD*%
D14*
%TO.C,R1*%
X151412500Y-85000000D03*
X149587500Y-85000000D03*
%TD*%
D10*
%TO.C,J1*%
X179475000Y-93050000D03*
D11*
X177525000Y-93675000D03*
X179475000Y-96450000D03*
X177525000Y-95825000D03*
%TD*%
D15*
%TO.C,C4*%
X141850000Y-76687500D03*
X141850000Y-78412500D03*
%TD*%
%TO.C,C5*%
X152600000Y-78237500D03*
X152600000Y-79962500D03*
%TD*%
D14*
%TO.C,R2*%
X139562500Y-78500000D03*
X137737500Y-78500000D03*
%TD*%
D16*
%TO.C,J2*%
X166345000Y-78968600D03*
D17*
X165095000Y-84218600D03*
X164595000Y-84218600D03*
X164095000Y-84218600D03*
X163595000Y-84218600D03*
X163095000Y-84218600D03*
X162595000Y-84218600D03*
X162095000Y-84218600D03*
X161595000Y-84218600D03*
X161095000Y-84218600D03*
X160595000Y-84218600D03*
X160095000Y-84218600D03*
X159595000Y-84218600D03*
X159095000Y-84218600D03*
X158595000Y-84218600D03*
X158095000Y-84218600D03*
D18*
X164095000Y-78543600D03*
X161595000Y-78543600D03*
X159095000Y-78543600D03*
D16*
X156845000Y-78968600D03*
%TD*%
M02*
