%TF.GenerationSoftware,KiCad,Pcbnew,10.0.0*%
%TF.CreationDate,2026-09-03T16:49:27-04:00*%
%TF.ProjectId,06-main-peripheral,30362d6d-6169-46e2-9d70-657269706865,rev?*%
%TF.SameCoordinates,Original*%
%TF.FileFunction,Copper,L3,Inr*%
%TF.FilePolarity,Positive*%
%FSLAX46Y46*%
G04 Gerber Fmt 4.6, Leading zero omitted, Abs format (unit mm)*
G04 Created by KiCad (PCBNEW 10.0.0) date 2026-09-03 16:49:27*
%MOMM*%
%LPD*%
G01*
G04 APERTURE LIST*
%TA.AperFunction,ComponentPad*%
%ADD10R,1.700000X1.700000*%
%TD*%
%TA.AperFunction,ComponentPad*%
%ADD11C,1.700000*%
%TD*%
%TA.AperFunction,ComponentPad*%
%ADD12C,1.508000*%
%TD*%
%TA.AperFunction,ViaPad*%
%ADD13C,0.600000*%
%TD*%
G04 APERTURE END LIST*
D10*
%TO.N,5V*%
%TO.C,J4*%
X143025000Y-96450000D03*
D11*
%TO.N,CAN_P*%
X144975000Y-95825000D03*
%TO.N,GND*%
X143025000Y-93050000D03*
%TO.N,CAN_N*%
X144975000Y-93675000D03*
%TD*%
D10*
%TO.N,RX_P*%
%TO.C,J3*%
X162950000Y-95725000D03*
D11*
%TO.N,RX_N*%
X162325000Y-93775000D03*
%TO.N,TX_P*%
X159550000Y-95725000D03*
%TO.N,TX_N*%
X160175000Y-93775000D03*
%TD*%
D12*
%TO.N,GND*%
%TO.C,SW1*%
X135218800Y-81788000D03*
%TO.N,Net-(SW1-B)*%
X137718800Y-81788000D03*
%TO.N,3.3V*%
X140218800Y-81788000D03*
%TD*%
D10*
%TO.N,Net-(F1-Pad2)*%
%TO.C,J1*%
X179475000Y-93050000D03*
D11*
%TO.N,USB_D_N*%
X177525000Y-93675000D03*
%TO.N,GND*%
X179475000Y-96450000D03*
%TO.N,USB_D_P*%
X177525000Y-95825000D03*
%TD*%
D13*
%TO.N,5V*%
X154000000Y-78250000D03*
X156850000Y-84900000D03*
%TO.N,GND*%
X148650000Y-92400000D03*
X178275000Y-83775000D03*
X172600000Y-90500000D03*
X164090000Y-83340000D03*
X186650000Y-77200000D03*
X155500000Y-87500000D03*
X179300000Y-90000000D03*
X147850000Y-85050000D03*
X175250000Y-84800000D03*
X141050000Y-96200000D03*
X160050000Y-99550000D03*
X146400000Y-83950000D03*
X158250000Y-85500000D03*
X161300000Y-85200000D03*
X137250000Y-77200000D03*
X144850000Y-84800000D03*
X187765700Y-87250000D03*
X161600000Y-77200000D03*
X133450000Y-97100000D03*
X187300000Y-84200000D03*
X133450000Y-77200000D03*
X186650000Y-81000000D03*
X148650000Y-77200000D03*
X168483600Y-80365600D03*
X156250000Y-102600000D03*
X166200000Y-82150000D03*
X153950000Y-79950000D03*
X137250000Y-84800000D03*
X133450000Y-102600000D03*
X159100000Y-77250000D03*
X171450000Y-95500000D03*
X186650000Y-102600000D03*
X148650000Y-102600000D03*
X144850000Y-99550000D03*
X144850000Y-77200000D03*
X167650000Y-84800000D03*
X152450000Y-99550000D03*
X151750000Y-88500000D03*
X133450000Y-90000000D03*
X172250000Y-81000000D03*
X141050000Y-88600000D03*
X179050000Y-102600000D03*
X171450000Y-77200000D03*
X165350000Y-96200000D03*
X186900000Y-90000000D03*
X144850000Y-81000000D03*
X156250000Y-96200000D03*
X156800000Y-91100000D03*
X182850000Y-99550000D03*
X186650000Y-96200000D03*
X166350000Y-77500000D03*
X169450000Y-87200000D03*
X182850000Y-92400000D03*
X141050000Y-102600000D03*
X137250000Y-99550000D03*
X165000000Y-92400000D03*
X167650000Y-99550000D03*
X175250000Y-92400000D03*
X156845000Y-77600000D03*
X153500000Y-94500000D03*
X164100000Y-77200000D03*
X165000000Y-88600000D03*
X148650000Y-96200000D03*
X175250000Y-98500000D03*
X171450000Y-102600000D03*
X140550000Y-76687500D03*
X154450000Y-84850000D03*
X163850000Y-102600000D03*
X169500000Y-92500000D03*
X133450000Y-83900000D03*
X137250000Y-92400000D03*
X179050000Y-77200000D03*
X145050000Y-89750000D03*
%TO.N,3.3V*%
X158267400Y-83376000D03*
X141579600Y-81788000D03*
%TO.N,USB_5V*%
X159808600Y-80365600D03*
X173500000Y-82250000D03*
X159700000Y-83200000D03*
X178500000Y-82250000D03*
%TD*%
%TA.AperFunction,Conductor*%
%TO.N,5V*%
G36*
X158293039Y-75520185D02*
G01*
X158338794Y-75572989D01*
X158350000Y-75624500D01*
X158350000Y-82751500D01*
X158330315Y-82818539D01*
X158277511Y-82864294D01*
X158226000Y-82875500D01*
X158201508Y-82875500D01*
X158074212Y-82909608D01*
X157960086Y-82975500D01*
X157960083Y-82975502D01*
X157866902Y-83068683D01*
X157866900Y-83068686D01*
X157801008Y-83182812D01*
X157766900Y-83310108D01*
X157766900Y-83441891D01*
X157801008Y-83569187D01*
X157833954Y-83626250D01*
X157866900Y-83683314D01*
X157960086Y-83776500D01*
X158074214Y-83842392D01*
X158201508Y-83876500D01*
X158201510Y-83876500D01*
X158226000Y-83876500D01*
X158293039Y-83896185D01*
X158338794Y-83948989D01*
X158350000Y-84000500D01*
X158350000Y-84199836D01*
X158349999Y-84200279D01*
X158347585Y-84875943D01*
X158327661Y-84942912D01*
X158274694Y-84988478D01*
X158223586Y-84999500D01*
X158184108Y-84999500D01*
X158056812Y-85033608D01*
X157942686Y-85099500D01*
X157942683Y-85099502D01*
X157849502Y-85192683D01*
X157849500Y-85192686D01*
X157783608Y-85306812D01*
X157749500Y-85434108D01*
X157749500Y-85565891D01*
X157783608Y-85693187D01*
X157816554Y-85750250D01*
X157849500Y-85807314D01*
X157942686Y-85900500D01*
X158056814Y-85966392D01*
X158184108Y-86000500D01*
X158184110Y-86000500D01*
X158219126Y-86000500D01*
X158286165Y-86020185D01*
X158331920Y-86072989D01*
X158343125Y-86124943D01*
X158319284Y-92800497D01*
X158282856Y-103000499D01*
X158280979Y-103525943D01*
X158261055Y-103592912D01*
X158208088Y-103638478D01*
X158156980Y-103649500D01*
X132775866Y-103649500D01*
X132767020Y-103649184D01*
X132755000Y-103648324D01*
X132619898Y-103638661D01*
X132602387Y-103636143D01*
X132410131Y-103594320D01*
X132393156Y-103589336D01*
X132208795Y-103520573D01*
X132192710Y-103513227D01*
X132020023Y-103418933D01*
X132005140Y-103409369D01*
X131847625Y-103291454D01*
X131834255Y-103279868D01*
X131695126Y-103140739D01*
X131683540Y-103127368D01*
X131565631Y-102969860D01*
X131556066Y-102954977D01*
X131461768Y-102782282D01*
X131454428Y-102766210D01*
X131385659Y-102581833D01*
X131380680Y-102564876D01*
X131373987Y-102534108D01*
X132949500Y-102534108D01*
X132949500Y-102665891D01*
X132983608Y-102793187D01*
X133016554Y-102850250D01*
X133049500Y-102907314D01*
X133142686Y-103000500D01*
X133256814Y-103066392D01*
X133384108Y-103100500D01*
X133384110Y-103100500D01*
X133515890Y-103100500D01*
X133515892Y-103100500D01*
X133643186Y-103066392D01*
X133757314Y-103000500D01*
X133850500Y-102907314D01*
X133916392Y-102793186D01*
X133950500Y-102665892D01*
X133950500Y-102534108D01*
X140549500Y-102534108D01*
X140549500Y-102665891D01*
X140583608Y-102793187D01*
X140616554Y-102850250D01*
X140649500Y-102907314D01*
X140742686Y-103000500D01*
X140856814Y-103066392D01*
X140984108Y-103100500D01*
X140984110Y-103100500D01*
X141115890Y-103100500D01*
X141115892Y-103100500D01*
X141243186Y-103066392D01*
X141357314Y-103000500D01*
X141450500Y-102907314D01*
X141516392Y-102793186D01*
X141550500Y-102665892D01*
X141550500Y-102534108D01*
X148149500Y-102534108D01*
X148149500Y-102665891D01*
X148183608Y-102793187D01*
X148216554Y-102850250D01*
X148249500Y-102907314D01*
X148342686Y-103000500D01*
X148456814Y-103066392D01*
X148584108Y-103100500D01*
X148584110Y-103100500D01*
X148715890Y-103100500D01*
X148715892Y-103100500D01*
X148843186Y-103066392D01*
X148957314Y-103000500D01*
X149050500Y-102907314D01*
X149116392Y-102793186D01*
X149150500Y-102665892D01*
X149150500Y-102534108D01*
X155749500Y-102534108D01*
X155749500Y-102665891D01*
X155783608Y-102793187D01*
X155816554Y-102850250D01*
X155849500Y-102907314D01*
X155942686Y-103000500D01*
X156056814Y-103066392D01*
X156184108Y-103100500D01*
X156184110Y-103100500D01*
X156315890Y-103100500D01*
X156315892Y-103100500D01*
X156443186Y-103066392D01*
X156557314Y-103000500D01*
X156650500Y-102907314D01*
X156716392Y-102793186D01*
X156750500Y-102665892D01*
X156750500Y-102534108D01*
X156716392Y-102406814D01*
X156650500Y-102292686D01*
X156557314Y-102199500D01*
X156500250Y-102166554D01*
X156443187Y-102133608D01*
X156379539Y-102116554D01*
X156315892Y-102099500D01*
X156184108Y-102099500D01*
X156056812Y-102133608D01*
X155942686Y-102199500D01*
X155942683Y-102199502D01*
X155849502Y-102292683D01*
X155849500Y-102292686D01*
X155783608Y-102406812D01*
X155749500Y-102534108D01*
X149150500Y-102534108D01*
X149116392Y-102406814D01*
X149050500Y-102292686D01*
X148957314Y-102199500D01*
X148900250Y-102166554D01*
X148843187Y-102133608D01*
X148779539Y-102116554D01*
X148715892Y-102099500D01*
X148584108Y-102099500D01*
X148456812Y-102133608D01*
X148342686Y-102199500D01*
X148342683Y-102199502D01*
X148249502Y-102292683D01*
X148249500Y-102292686D01*
X148183608Y-102406812D01*
X148149500Y-102534108D01*
X141550500Y-102534108D01*
X141516392Y-102406814D01*
X141450500Y-102292686D01*
X141357314Y-102199500D01*
X141300250Y-102166554D01*
X141243187Y-102133608D01*
X141179539Y-102116554D01*
X141115892Y-102099500D01*
X140984108Y-102099500D01*
X140856812Y-102133608D01*
X140742686Y-102199500D01*
X140742683Y-102199502D01*
X140649502Y-102292683D01*
X140649500Y-102292686D01*
X140583608Y-102406812D01*
X140549500Y-102534108D01*
X133950500Y-102534108D01*
X133916392Y-102406814D01*
X133850500Y-102292686D01*
X133757314Y-102199500D01*
X133700250Y-102166554D01*
X133643187Y-102133608D01*
X133579539Y-102116554D01*
X133515892Y-102099500D01*
X133384108Y-102099500D01*
X133256812Y-102133608D01*
X133142686Y-102199500D01*
X133142683Y-102199502D01*
X133049502Y-102292683D01*
X133049500Y-102292686D01*
X132983608Y-102406812D01*
X132949500Y-102534108D01*
X131373987Y-102534108D01*
X131338855Y-102372611D01*
X131336337Y-102355098D01*
X131331873Y-102292683D01*
X131325816Y-102207979D01*
X131325500Y-102199134D01*
X131325500Y-99484108D01*
X136749500Y-99484108D01*
X136749500Y-99615891D01*
X136783608Y-99743187D01*
X136816554Y-99800250D01*
X136849500Y-99857314D01*
X136942686Y-99950500D01*
X137056814Y-100016392D01*
X137184108Y-100050500D01*
X137184110Y-100050500D01*
X137315890Y-100050500D01*
X137315892Y-100050500D01*
X137443186Y-100016392D01*
X137557314Y-99950500D01*
X137650500Y-99857314D01*
X137716392Y-99743186D01*
X137750500Y-99615892D01*
X137750500Y-99484108D01*
X144349500Y-99484108D01*
X144349500Y-99615891D01*
X144383608Y-99743187D01*
X144416554Y-99800250D01*
X144449500Y-99857314D01*
X144542686Y-99950500D01*
X144656814Y-100016392D01*
X144784108Y-100050500D01*
X144784110Y-100050500D01*
X144915890Y-100050500D01*
X144915892Y-100050500D01*
X145043186Y-100016392D01*
X145157314Y-99950500D01*
X145250500Y-99857314D01*
X145316392Y-99743186D01*
X145350500Y-99615892D01*
X145350500Y-99484108D01*
X151949500Y-99484108D01*
X151949500Y-99615891D01*
X151983608Y-99743187D01*
X152016554Y-99800250D01*
X152049500Y-99857314D01*
X152142686Y-99950500D01*
X152256814Y-100016392D01*
X152384108Y-100050500D01*
X152384110Y-100050500D01*
X152515890Y-100050500D01*
X152515892Y-100050500D01*
X152643186Y-100016392D01*
X152757314Y-99950500D01*
X152850500Y-99857314D01*
X152916392Y-99743186D01*
X152950500Y-99615892D01*
X152950500Y-99484108D01*
X152916392Y-99356814D01*
X152850500Y-99242686D01*
X152757314Y-99149500D01*
X152700250Y-99116554D01*
X152643187Y-99083608D01*
X152579539Y-99066554D01*
X152515892Y-99049500D01*
X152384108Y-99049500D01*
X152256812Y-99083608D01*
X152142686Y-99149500D01*
X152142683Y-99149502D01*
X152049502Y-99242683D01*
X152049500Y-99242686D01*
X151983608Y-99356812D01*
X151949500Y-99484108D01*
X145350500Y-99484108D01*
X145316392Y-99356814D01*
X145250500Y-99242686D01*
X145157314Y-99149500D01*
X145100250Y-99116554D01*
X145043187Y-99083608D01*
X144979539Y-99066554D01*
X144915892Y-99049500D01*
X144784108Y-99049500D01*
X144656812Y-99083608D01*
X144542686Y-99149500D01*
X144542683Y-99149502D01*
X144449502Y-99242683D01*
X144449500Y-99242686D01*
X144383608Y-99356812D01*
X144349500Y-99484108D01*
X137750500Y-99484108D01*
X137716392Y-99356814D01*
X137650500Y-99242686D01*
X137557314Y-99149500D01*
X137500250Y-99116554D01*
X137443187Y-99083608D01*
X137379539Y-99066554D01*
X137315892Y-99049500D01*
X137184108Y-99049500D01*
X137056812Y-99083608D01*
X136942686Y-99149500D01*
X136942683Y-99149502D01*
X136849502Y-99242683D01*
X136849500Y-99242686D01*
X136783608Y-99356812D01*
X136749500Y-99484108D01*
X131325500Y-99484108D01*
X131325500Y-97034108D01*
X132949500Y-97034108D01*
X132949500Y-97165891D01*
X132983608Y-97293187D01*
X133015155Y-97347827D01*
X133049500Y-97407314D01*
X133142686Y-97500500D01*
X133256814Y-97566392D01*
X133384108Y-97600500D01*
X133384110Y-97600500D01*
X133515890Y-97600500D01*
X133515892Y-97600500D01*
X133643186Y-97566392D01*
X133757314Y-97500500D01*
X133850500Y-97407314D01*
X133916392Y-97293186D01*
X133950500Y-97165892D01*
X133950500Y-97034108D01*
X133916392Y-96906814D01*
X133850500Y-96792686D01*
X133757314Y-96699500D01*
X133681868Y-96655941D01*
X133643187Y-96633608D01*
X133579539Y-96616554D01*
X133515892Y-96599500D01*
X133384108Y-96599500D01*
X133256812Y-96633608D01*
X133142686Y-96699500D01*
X133142683Y-96699502D01*
X133049502Y-96792683D01*
X133049500Y-96792686D01*
X132983608Y-96906812D01*
X132949500Y-97034108D01*
X131325500Y-97034108D01*
X131325500Y-96134108D01*
X140549500Y-96134108D01*
X140549500Y-96265891D01*
X140583608Y-96393187D01*
X140584456Y-96394655D01*
X140649500Y-96507314D01*
X140742686Y-96600500D01*
X140856814Y-96666392D01*
X140984108Y-96700500D01*
X140984110Y-96700500D01*
X141115890Y-96700500D01*
X141115892Y-96700500D01*
X141243186Y-96666392D01*
X141357314Y-96600500D01*
X141450500Y-96507314D01*
X141516392Y-96393186D01*
X141543529Y-96291905D01*
X141579894Y-96232246D01*
X141642741Y-96201717D01*
X141663304Y-96200000D01*
X142476518Y-96200000D01*
X142465889Y-96218409D01*
X142425000Y-96371009D01*
X142425000Y-96528991D01*
X142465889Y-96681591D01*
X142476518Y-96700000D01*
X141675000Y-96700000D01*
X141675000Y-97347844D01*
X141681401Y-97407372D01*
X141681403Y-97407379D01*
X141731645Y-97542086D01*
X141731649Y-97542093D01*
X141817809Y-97657187D01*
X141817812Y-97657190D01*
X141932906Y-97743350D01*
X141932913Y-97743354D01*
X142067620Y-97793596D01*
X142067627Y-97793598D01*
X142127155Y-97799999D01*
X142127172Y-97800000D01*
X142775000Y-97800000D01*
X142775000Y-96998482D01*
X142793409Y-97009111D01*
X142946009Y-97050000D01*
X143103991Y-97050000D01*
X143256591Y-97009111D01*
X143275000Y-96998482D01*
X143275000Y-97800000D01*
X143922828Y-97800000D01*
X143922844Y-97799999D01*
X143982372Y-97793598D01*
X143982379Y-97793596D01*
X144117086Y-97743354D01*
X144117093Y-97743350D01*
X144232187Y-97657190D01*
X144232190Y-97657187D01*
X144318350Y-97542093D01*
X144318354Y-97542086D01*
X144368596Y-97407379D01*
X144368598Y-97407372D01*
X144374999Y-97347844D01*
X144375000Y-97347827D01*
X144375000Y-96899104D01*
X144394685Y-96832065D01*
X144447489Y-96786310D01*
X144516647Y-96776366D01*
X144546452Y-96784542D01*
X144668580Y-96835130D01*
X144871530Y-96875499D01*
X144871534Y-96875500D01*
X144871535Y-96875500D01*
X145078466Y-96875500D01*
X145078467Y-96875499D01*
X145281420Y-96835130D01*
X145472598Y-96755941D01*
X145644655Y-96640977D01*
X145790977Y-96494655D01*
X145905941Y-96322598D01*
X145984017Y-96134108D01*
X148149500Y-96134108D01*
X148149500Y-96265891D01*
X148183608Y-96393187D01*
X148184456Y-96394655D01*
X148249500Y-96507314D01*
X148342686Y-96600500D01*
X148456814Y-96666392D01*
X148584108Y-96700500D01*
X148584110Y-96700500D01*
X148715890Y-96700500D01*
X148715892Y-96700500D01*
X148843186Y-96666392D01*
X148957314Y-96600500D01*
X149050500Y-96507314D01*
X149116392Y-96393186D01*
X149150500Y-96265892D01*
X149150500Y-96134108D01*
X155749500Y-96134108D01*
X155749500Y-96265891D01*
X155783608Y-96393187D01*
X155784456Y-96394655D01*
X155849500Y-96507314D01*
X155942686Y-96600500D01*
X156056814Y-96666392D01*
X156184108Y-96700500D01*
X156184110Y-96700500D01*
X156315890Y-96700500D01*
X156315892Y-96700500D01*
X156443186Y-96666392D01*
X156557314Y-96600500D01*
X156650500Y-96507314D01*
X156716392Y-96393186D01*
X156750500Y-96265892D01*
X156750500Y-96134108D01*
X156716392Y-96006814D01*
X156650500Y-95892686D01*
X156557314Y-95799500D01*
X156500250Y-95766554D01*
X156443187Y-95733608D01*
X156379539Y-95716554D01*
X156315892Y-95699500D01*
X156184108Y-95699500D01*
X156056812Y-95733608D01*
X155942686Y-95799500D01*
X155942683Y-95799502D01*
X155849502Y-95892683D01*
X155849500Y-95892686D01*
X155783608Y-96006812D01*
X155749500Y-96134108D01*
X149150500Y-96134108D01*
X149116392Y-96006814D01*
X149050500Y-95892686D01*
X148957314Y-95799500D01*
X148900250Y-95766554D01*
X148843187Y-95733608D01*
X148779539Y-95716554D01*
X148715892Y-95699500D01*
X148584108Y-95699500D01*
X148456812Y-95733608D01*
X148342686Y-95799500D01*
X148342683Y-95799502D01*
X148249502Y-95892683D01*
X148249500Y-95892686D01*
X148183608Y-96006812D01*
X148149500Y-96134108D01*
X145984017Y-96134108D01*
X145985130Y-96131420D01*
X146025500Y-95928465D01*
X146025500Y-95721535D01*
X145985130Y-95518580D01*
X145905941Y-95327402D01*
X145790977Y-95155345D01*
X145790975Y-95155342D01*
X145644657Y-95009024D01*
X145494993Y-94909023D01*
X145472598Y-94894059D01*
X145472593Y-94894057D01*
X145401384Y-94864561D01*
X145346981Y-94820720D01*
X145324916Y-94754426D01*
X145342195Y-94686727D01*
X145393332Y-94639116D01*
X145401384Y-94635439D01*
X145402793Y-94634855D01*
X145472598Y-94605941D01*
X145644655Y-94490977D01*
X145701524Y-94434108D01*
X152999500Y-94434108D01*
X152999500Y-94565892D01*
X153010231Y-94605941D01*
X153033608Y-94693187D01*
X153063855Y-94745575D01*
X153099500Y-94807314D01*
X153192686Y-94900500D01*
X153306814Y-94966392D01*
X153434108Y-95000500D01*
X153434110Y-95000500D01*
X153565890Y-95000500D01*
X153565892Y-95000500D01*
X153693186Y-94966392D01*
X153807314Y-94900500D01*
X153900500Y-94807314D01*
X153966392Y-94693186D01*
X154000500Y-94565892D01*
X154000500Y-94434108D01*
X153966392Y-94306814D01*
X153900500Y-94192686D01*
X153807314Y-94099500D01*
X153739125Y-94060131D01*
X153693187Y-94033608D01*
X153629539Y-94016554D01*
X153565892Y-93999500D01*
X153434108Y-93999500D01*
X153306812Y-94033608D01*
X153192686Y-94099500D01*
X153192683Y-94099502D01*
X153099502Y-94192683D01*
X153099500Y-94192686D01*
X153033608Y-94306812D01*
X153023468Y-94344656D01*
X152999500Y-94434108D01*
X145701524Y-94434108D01*
X145790977Y-94344655D01*
X145905941Y-94172598D01*
X145985130Y-93981420D01*
X146025500Y-93778465D01*
X146025500Y-93571535D01*
X145985130Y-93368580D01*
X145905941Y-93177402D01*
X145790977Y-93005345D01*
X145790975Y-93005342D01*
X145644657Y-92859024D01*
X145503744Y-92764870D01*
X145472598Y-92744059D01*
X145471458Y-92743587D01*
X145281420Y-92664870D01*
X145281412Y-92664868D01*
X145078469Y-92624500D01*
X145078465Y-92624500D01*
X144871535Y-92624500D01*
X144871530Y-92624500D01*
X144668587Y-92664868D01*
X144668579Y-92664870D01*
X144477403Y-92744058D01*
X144305342Y-92859024D01*
X144263153Y-92901213D01*
X144201830Y-92934697D01*
X144132138Y-92929712D01*
X144076205Y-92887840D01*
X144053856Y-92837722D01*
X144035131Y-92743586D01*
X144035130Y-92743580D01*
X143955941Y-92552402D01*
X143840977Y-92380345D01*
X143840974Y-92380341D01*
X143794741Y-92334108D01*
X148149500Y-92334108D01*
X148149500Y-92465891D01*
X148183608Y-92593187D01*
X148201687Y-92624500D01*
X148249500Y-92707314D01*
X148342686Y-92800500D01*
X148456814Y-92866392D01*
X148584108Y-92900500D01*
X148584110Y-92900500D01*
X148715890Y-92900500D01*
X148715892Y-92900500D01*
X148843186Y-92866392D01*
X148957314Y-92800500D01*
X149050500Y-92707314D01*
X149116392Y-92593186D01*
X149150500Y-92465892D01*
X149150500Y-92334108D01*
X149116392Y-92206814D01*
X149050500Y-92092686D01*
X148957314Y-91999500D01*
X148900250Y-91966554D01*
X148843187Y-91933608D01*
X148779539Y-91916554D01*
X148715892Y-91899500D01*
X148584108Y-91899500D01*
X148456812Y-91933608D01*
X148342686Y-91999500D01*
X148342683Y-91999502D01*
X148249502Y-92092683D01*
X148249500Y-92092686D01*
X148183608Y-92206812D01*
X148149500Y-92334108D01*
X143794741Y-92334108D01*
X143694657Y-92234024D01*
X143608626Y-92176541D01*
X143522598Y-92119059D01*
X143458928Y-92092686D01*
X143331420Y-92039870D01*
X143331412Y-92039868D01*
X143128469Y-91999500D01*
X143128465Y-91999500D01*
X142921535Y-91999500D01*
X142921530Y-91999500D01*
X142718587Y-92039868D01*
X142718579Y-92039870D01*
X142527403Y-92119058D01*
X142355342Y-92234024D01*
X142209024Y-92380342D01*
X142094058Y-92552403D01*
X142014870Y-92743579D01*
X142014868Y-92743587D01*
X141974500Y-92946530D01*
X141974500Y-93153469D01*
X141999152Y-93277402D01*
X142014870Y-93356420D01*
X142094059Y-93547598D01*
X142110053Y-93571535D01*
X142209024Y-93719657D01*
X142355342Y-93865975D01*
X142355345Y-93865977D01*
X142527402Y-93980941D01*
X142718580Y-94060130D01*
X142916508Y-94099500D01*
X142921530Y-94100499D01*
X142921534Y-94100500D01*
X142921535Y-94100500D01*
X143128466Y-94100500D01*
X143128467Y-94100499D01*
X143331420Y-94060130D01*
X143522598Y-93980941D01*
X143694655Y-93865977D01*
X143736844Y-93823788D01*
X143798167Y-93790302D01*
X143867858Y-93795286D01*
X143923792Y-93837157D01*
X143946143Y-93887276D01*
X143964868Y-93981414D01*
X143964870Y-93981420D01*
X143997472Y-94060129D01*
X144044059Y-94172598D01*
X144101541Y-94258626D01*
X144159024Y-94344657D01*
X144305342Y-94490975D01*
X144305345Y-94490977D01*
X144477402Y-94605941D01*
X144477403Y-94605941D01*
X144477404Y-94605942D01*
X144548615Y-94635439D01*
X144603019Y-94679280D01*
X144625083Y-94745575D01*
X144607803Y-94813274D01*
X144556666Y-94860884D01*
X144548615Y-94864561D01*
X144477404Y-94894057D01*
X144305344Y-95009023D01*
X144203031Y-95111336D01*
X144141708Y-95144820D01*
X144072017Y-95139836D01*
X143982379Y-95106403D01*
X143982372Y-95106401D01*
X143922844Y-95100000D01*
X143275000Y-95100000D01*
X143275000Y-95901517D01*
X143256591Y-95890889D01*
X143103991Y-95850000D01*
X142946009Y-95850000D01*
X142793409Y-95890889D01*
X142775000Y-95901517D01*
X142775000Y-95100000D01*
X142127155Y-95100000D01*
X142067627Y-95106401D01*
X142067620Y-95106403D01*
X141932913Y-95156645D01*
X141932906Y-95156649D01*
X141817812Y-95242809D01*
X141817809Y-95242812D01*
X141731649Y-95357906D01*
X141731645Y-95357913D01*
X141681403Y-95492620D01*
X141681401Y-95492627D01*
X141675000Y-95552155D01*
X141675000Y-95819968D01*
X141655315Y-95887007D01*
X141602511Y-95932762D01*
X141533353Y-95942706D01*
X141469797Y-95913681D01*
X141452626Y-95895457D01*
X141450498Y-95892684D01*
X141357316Y-95799502D01*
X141357314Y-95799500D01*
X141300250Y-95766554D01*
X141243187Y-95733608D01*
X141179539Y-95716554D01*
X141115892Y-95699500D01*
X140984108Y-95699500D01*
X140856812Y-95733608D01*
X140742686Y-95799500D01*
X140742683Y-95799502D01*
X140649502Y-95892683D01*
X140649500Y-95892686D01*
X140583608Y-96006812D01*
X140549500Y-96134108D01*
X131325500Y-96134108D01*
X131325500Y-92334108D01*
X136749500Y-92334108D01*
X136749500Y-92465891D01*
X136783608Y-92593187D01*
X136801687Y-92624500D01*
X136849500Y-92707314D01*
X136942686Y-92800500D01*
X137056814Y-92866392D01*
X137184108Y-92900500D01*
X137184110Y-92900500D01*
X137315890Y-92900500D01*
X137315892Y-92900500D01*
X137443186Y-92866392D01*
X137557314Y-92800500D01*
X137650500Y-92707314D01*
X137716392Y-92593186D01*
X137750500Y-92465892D01*
X137750500Y-92334108D01*
X137716392Y-92206814D01*
X137650500Y-92092686D01*
X137557314Y-91999500D01*
X137500250Y-91966554D01*
X137443187Y-91933608D01*
X137379539Y-91916554D01*
X137315892Y-91899500D01*
X137184108Y-91899500D01*
X137056812Y-91933608D01*
X136942686Y-91999500D01*
X136942683Y-91999502D01*
X136849502Y-92092683D01*
X136849500Y-92092686D01*
X136783608Y-92206812D01*
X136749500Y-92334108D01*
X131325500Y-92334108D01*
X131325500Y-91034108D01*
X156299500Y-91034108D01*
X156299500Y-91165891D01*
X156333608Y-91293187D01*
X156366554Y-91350250D01*
X156399500Y-91407314D01*
X156492686Y-91500500D01*
X156606814Y-91566392D01*
X156734108Y-91600500D01*
X156734110Y-91600500D01*
X156865890Y-91600500D01*
X156865892Y-91600500D01*
X156993186Y-91566392D01*
X157107314Y-91500500D01*
X157200500Y-91407314D01*
X157266392Y-91293186D01*
X157300500Y-91165892D01*
X157300500Y-91034108D01*
X157266392Y-90906814D01*
X157200500Y-90792686D01*
X157107314Y-90699500D01*
X157050250Y-90666554D01*
X156993187Y-90633608D01*
X156929539Y-90616554D01*
X156865892Y-90599500D01*
X156734108Y-90599500D01*
X156606812Y-90633608D01*
X156492686Y-90699500D01*
X156492683Y-90699502D01*
X156399502Y-90792683D01*
X156399500Y-90792686D01*
X156333608Y-90906812D01*
X156299500Y-91034108D01*
X131325500Y-91034108D01*
X131325500Y-89934108D01*
X132949500Y-89934108D01*
X132949500Y-90065891D01*
X132983608Y-90193187D01*
X132997005Y-90216391D01*
X133049500Y-90307314D01*
X133142686Y-90400500D01*
X133256814Y-90466392D01*
X133384108Y-90500500D01*
X133384110Y-90500500D01*
X133515890Y-90500500D01*
X133515892Y-90500500D01*
X133643186Y-90466392D01*
X133757314Y-90400500D01*
X133850500Y-90307314D01*
X133916392Y-90193186D01*
X133950500Y-90065892D01*
X133950500Y-89934108D01*
X133916392Y-89806814D01*
X133850500Y-89692686D01*
X133841922Y-89684108D01*
X144549500Y-89684108D01*
X144549500Y-89815891D01*
X144583608Y-89943187D01*
X144616554Y-90000250D01*
X144649500Y-90057314D01*
X144742686Y-90150500D01*
X144856814Y-90216392D01*
X144984108Y-90250500D01*
X144984110Y-90250500D01*
X145115890Y-90250500D01*
X145115892Y-90250500D01*
X145243186Y-90216392D01*
X145357314Y-90150500D01*
X145450500Y-90057314D01*
X145516392Y-89943186D01*
X145550500Y-89815892D01*
X145550500Y-89684108D01*
X145516392Y-89556814D01*
X145450500Y-89442686D01*
X145357314Y-89349500D01*
X145300250Y-89316554D01*
X145243187Y-89283608D01*
X145179539Y-89266554D01*
X145115892Y-89249500D01*
X144984108Y-89249500D01*
X144856812Y-89283608D01*
X144742686Y-89349500D01*
X144742683Y-89349502D01*
X144649502Y-89442683D01*
X144649500Y-89442686D01*
X144583608Y-89556812D01*
X144549500Y-89684108D01*
X133841922Y-89684108D01*
X133757314Y-89599500D01*
X133683380Y-89556814D01*
X133643187Y-89533608D01*
X133579539Y-89516554D01*
X133515892Y-89499500D01*
X133384108Y-89499500D01*
X133256812Y-89533608D01*
X133142686Y-89599500D01*
X133142683Y-89599502D01*
X133049502Y-89692683D01*
X133049500Y-89692686D01*
X132983608Y-89806812D01*
X132949500Y-89934108D01*
X131325500Y-89934108D01*
X131325500Y-88534108D01*
X140549500Y-88534108D01*
X140549500Y-88665891D01*
X140583608Y-88793187D01*
X140591766Y-88807316D01*
X140649500Y-88907314D01*
X140742686Y-89000500D01*
X140856814Y-89066392D01*
X140984108Y-89100500D01*
X140984110Y-89100500D01*
X141115890Y-89100500D01*
X141115892Y-89100500D01*
X141243186Y-89066392D01*
X141357314Y-89000500D01*
X141450500Y-88907314D01*
X141516392Y-88793186D01*
X141550500Y-88665892D01*
X141550500Y-88534108D01*
X141523705Y-88434108D01*
X151249500Y-88434108D01*
X151249500Y-88565891D01*
X151283608Y-88693187D01*
X151316554Y-88750250D01*
X151349500Y-88807314D01*
X151442686Y-88900500D01*
X151556814Y-88966392D01*
X151684108Y-89000500D01*
X151684110Y-89000500D01*
X151815890Y-89000500D01*
X151815892Y-89000500D01*
X151943186Y-88966392D01*
X152057314Y-88900500D01*
X152150500Y-88807314D01*
X152216392Y-88693186D01*
X152250500Y-88565892D01*
X152250500Y-88434108D01*
X152216392Y-88306814D01*
X152150500Y-88192686D01*
X152057314Y-88099500D01*
X152000250Y-88066554D01*
X151943187Y-88033608D01*
X151879539Y-88016554D01*
X151815892Y-87999500D01*
X151684108Y-87999500D01*
X151556812Y-88033608D01*
X151442686Y-88099500D01*
X151442683Y-88099502D01*
X151349502Y-88192683D01*
X151349500Y-88192686D01*
X151283608Y-88306812D01*
X151249500Y-88434108D01*
X141523705Y-88434108D01*
X141516392Y-88406814D01*
X141450500Y-88292686D01*
X141357314Y-88199500D01*
X141300250Y-88166554D01*
X141243187Y-88133608D01*
X141179539Y-88116554D01*
X141115892Y-88099500D01*
X140984108Y-88099500D01*
X140856812Y-88133608D01*
X140742686Y-88199500D01*
X140742683Y-88199502D01*
X140649502Y-88292683D01*
X140649500Y-88292686D01*
X140583608Y-88406812D01*
X140549500Y-88534108D01*
X131325500Y-88534108D01*
X131325500Y-87434108D01*
X154999500Y-87434108D01*
X154999500Y-87565891D01*
X155033608Y-87693187D01*
X155066554Y-87750250D01*
X155099500Y-87807314D01*
X155192686Y-87900500D01*
X155306814Y-87966392D01*
X155434108Y-88000500D01*
X155434110Y-88000500D01*
X155565890Y-88000500D01*
X155565892Y-88000500D01*
X155693186Y-87966392D01*
X155807314Y-87900500D01*
X155900500Y-87807314D01*
X155966392Y-87693186D01*
X156000500Y-87565892D01*
X156000500Y-87434108D01*
X155966392Y-87306814D01*
X155900500Y-87192686D01*
X155807314Y-87099500D01*
X155750250Y-87066554D01*
X155693187Y-87033608D01*
X155629539Y-87016554D01*
X155565892Y-86999500D01*
X155434108Y-86999500D01*
X155306812Y-87033608D01*
X155192686Y-87099500D01*
X155192683Y-87099502D01*
X155099502Y-87192683D01*
X155099500Y-87192686D01*
X155033608Y-87306812D01*
X154999500Y-87434108D01*
X131325500Y-87434108D01*
X131325500Y-84734108D01*
X136749500Y-84734108D01*
X136749500Y-84865891D01*
X136783608Y-84993187D01*
X136787253Y-84999500D01*
X136849500Y-85107314D01*
X136942686Y-85200500D01*
X137056814Y-85266392D01*
X137184108Y-85300500D01*
X137184110Y-85300500D01*
X137315890Y-85300500D01*
X137315892Y-85300500D01*
X137443186Y-85266392D01*
X137557314Y-85200500D01*
X137650500Y-85107314D01*
X137716392Y-84993186D01*
X137750500Y-84865892D01*
X137750500Y-84734108D01*
X144349500Y-84734108D01*
X144349500Y-84865891D01*
X144383608Y-84993187D01*
X144387253Y-84999500D01*
X144449500Y-85107314D01*
X144542686Y-85200500D01*
X144656814Y-85266392D01*
X144784108Y-85300500D01*
X144784110Y-85300500D01*
X144915890Y-85300500D01*
X144915892Y-85300500D01*
X145043186Y-85266392D01*
X145157314Y-85200500D01*
X145250500Y-85107314D01*
X145316392Y-84993186D01*
X145318824Y-84984108D01*
X147349500Y-84984108D01*
X147349500Y-85115892D01*
X147366554Y-85179539D01*
X147383608Y-85243187D01*
X147397005Y-85266391D01*
X147449500Y-85357314D01*
X147542686Y-85450500D01*
X147656814Y-85516392D01*
X147784108Y-85550500D01*
X147784110Y-85550500D01*
X147915890Y-85550500D01*
X147915892Y-85550500D01*
X148043186Y-85516392D01*
X148157314Y-85450500D01*
X148250500Y-85357314D01*
X148316392Y-85243186D01*
X148350500Y-85115892D01*
X148350500Y-84984108D01*
X148316392Y-84856814D01*
X148316389Y-84856808D01*
X148305520Y-84837982D01*
X148305519Y-84837981D01*
X148274415Y-84784108D01*
X153949500Y-84784108D01*
X153949500Y-84915891D01*
X153983608Y-85043187D01*
X154016121Y-85099500D01*
X154049500Y-85157314D01*
X154142686Y-85250500D01*
X154256814Y-85316392D01*
X154384108Y-85350500D01*
X154384110Y-85350500D01*
X154515890Y-85350500D01*
X154515892Y-85350500D01*
X154643186Y-85316392D01*
X154757314Y-85250500D01*
X154850500Y-85157314D01*
X154916392Y-85043186D01*
X154950500Y-84915892D01*
X154950500Y-84784108D01*
X154916392Y-84656814D01*
X154850500Y-84542686D01*
X154757314Y-84449500D01*
X154672442Y-84400499D01*
X154643187Y-84383608D01*
X154578931Y-84366391D01*
X154515892Y-84349500D01*
X154384108Y-84349500D01*
X154256812Y-84383608D01*
X154142686Y-84449500D01*
X154142683Y-84449502D01*
X154049502Y-84542683D01*
X154049500Y-84542686D01*
X153983608Y-84656812D01*
X153949500Y-84784108D01*
X148274415Y-84784108D01*
X148250500Y-84742686D01*
X148157314Y-84649500D01*
X148083380Y-84606814D01*
X148043187Y-84583608D01*
X147979539Y-84566554D01*
X147915892Y-84549500D01*
X147784108Y-84549500D01*
X147656812Y-84583608D01*
X147542686Y-84649500D01*
X147542683Y-84649502D01*
X147449502Y-84742683D01*
X147449500Y-84742686D01*
X147383608Y-84856812D01*
X147367778Y-84915892D01*
X147349500Y-84984108D01*
X145318824Y-84984108D01*
X145350500Y-84865892D01*
X145350500Y-84734108D01*
X145316392Y-84606814D01*
X145250500Y-84492686D01*
X145157314Y-84399500D01*
X145070712Y-84349500D01*
X145043187Y-84333608D01*
X144979539Y-84316554D01*
X144915892Y-84299500D01*
X144784108Y-84299500D01*
X144656812Y-84333608D01*
X144542686Y-84399500D01*
X144542683Y-84399502D01*
X144449502Y-84492683D01*
X144449500Y-84492686D01*
X144383608Y-84606812D01*
X144349500Y-84734108D01*
X137750500Y-84734108D01*
X137716392Y-84606814D01*
X137650500Y-84492686D01*
X137557314Y-84399500D01*
X137470712Y-84349500D01*
X137443187Y-84333608D01*
X137379539Y-84316554D01*
X137315892Y-84299500D01*
X137184108Y-84299500D01*
X137056812Y-84333608D01*
X136942686Y-84399500D01*
X136942683Y-84399502D01*
X136849502Y-84492683D01*
X136849500Y-84492686D01*
X136783608Y-84606812D01*
X136749500Y-84734108D01*
X131325500Y-84734108D01*
X131325500Y-83834108D01*
X132949500Y-83834108D01*
X132949500Y-83965891D01*
X132983608Y-84093187D01*
X133012476Y-84143186D01*
X133049500Y-84207314D01*
X133142686Y-84300500D01*
X133256814Y-84366392D01*
X133384108Y-84400500D01*
X133384110Y-84400500D01*
X133515890Y-84400500D01*
X133515892Y-84400500D01*
X133643186Y-84366392D01*
X133757314Y-84300500D01*
X133850500Y-84207314D01*
X133916392Y-84093186D01*
X133950500Y-83965892D01*
X133950500Y-83884108D01*
X145899500Y-83884108D01*
X145899500Y-84015891D01*
X145933608Y-84143187D01*
X145966315Y-84199836D01*
X145999500Y-84257314D01*
X146092686Y-84350500D01*
X146206814Y-84416392D01*
X146334108Y-84450500D01*
X146334110Y-84450500D01*
X146465890Y-84450500D01*
X146465892Y-84450500D01*
X146593186Y-84416392D01*
X146707314Y-84350500D01*
X146800500Y-84257314D01*
X146866392Y-84143186D01*
X146900500Y-84015892D01*
X146900500Y-83884108D01*
X146866392Y-83756814D01*
X146800500Y-83642686D01*
X146707314Y-83549500D01*
X146650250Y-83516554D01*
X146593187Y-83483608D01*
X146529539Y-83466554D01*
X146465892Y-83449500D01*
X146334108Y-83449500D01*
X146206812Y-83483608D01*
X146092686Y-83549500D01*
X146092683Y-83549502D01*
X145999502Y-83642683D01*
X145999500Y-83642686D01*
X145933608Y-83756812D01*
X145899500Y-83884108D01*
X133950500Y-83884108D01*
X133950500Y-83834108D01*
X133916392Y-83706814D01*
X133850500Y-83592686D01*
X133757314Y-83499500D01*
X133670712Y-83449500D01*
X133643187Y-83433608D01*
X133579539Y-83416554D01*
X133515892Y-83399500D01*
X133384108Y-83399500D01*
X133256812Y-83433608D01*
X133142686Y-83499500D01*
X133142683Y-83499502D01*
X133049502Y-83592683D01*
X133049500Y-83592686D01*
X132983608Y-83706812D01*
X132949500Y-83834108D01*
X131325500Y-83834108D01*
X131325500Y-81693985D01*
X134264300Y-81693985D01*
X134264300Y-81882014D01*
X134300979Y-82066409D01*
X134300982Y-82066421D01*
X134372929Y-82240118D01*
X134372936Y-82240131D01*
X134477391Y-82396457D01*
X134477394Y-82396461D01*
X134610338Y-82529405D01*
X134610342Y-82529408D01*
X134766668Y-82633863D01*
X134766681Y-82633870D01*
X134940378Y-82705817D01*
X134940383Y-82705819D01*
X135124785Y-82742499D01*
X135124788Y-82742500D01*
X135124790Y-82742500D01*
X135312812Y-82742500D01*
X135312813Y-82742499D01*
X135497217Y-82705819D01*
X135670925Y-82633867D01*
X135827258Y-82529408D01*
X135960208Y-82396458D01*
X136064667Y-82240125D01*
X136136619Y-82066417D01*
X136173300Y-81882010D01*
X136173300Y-81693990D01*
X136173300Y-81693987D01*
X136173299Y-81693985D01*
X136764300Y-81693985D01*
X136764300Y-81882014D01*
X136800979Y-82066409D01*
X136800982Y-82066421D01*
X136872929Y-82240118D01*
X136872936Y-82240131D01*
X136977391Y-82396457D01*
X136977394Y-82396461D01*
X137110338Y-82529405D01*
X137110342Y-82529408D01*
X137266668Y-82633863D01*
X137266681Y-82633870D01*
X137440378Y-82705817D01*
X137440383Y-82705819D01*
X137624785Y-82742499D01*
X137624788Y-82742500D01*
X137624790Y-82742500D01*
X137812812Y-82742500D01*
X137812813Y-82742499D01*
X137997217Y-82705819D01*
X138170925Y-82633867D01*
X138327258Y-82529408D01*
X138460208Y-82396458D01*
X138564667Y-82240125D01*
X138636619Y-82066417D01*
X138673300Y-81882010D01*
X138673300Y-81693990D01*
X138673300Y-81693987D01*
X138673299Y-81693985D01*
X139264300Y-81693985D01*
X139264300Y-81882014D01*
X139300979Y-82066409D01*
X139300982Y-82066421D01*
X139372929Y-82240118D01*
X139372936Y-82240131D01*
X139477391Y-82396457D01*
X139477394Y-82396461D01*
X139610338Y-82529405D01*
X139610342Y-82529408D01*
X139766668Y-82633863D01*
X139766681Y-82633870D01*
X139940378Y-82705817D01*
X139940383Y-82705819D01*
X140124785Y-82742499D01*
X140124788Y-82742500D01*
X140124790Y-82742500D01*
X140312812Y-82742500D01*
X140312813Y-82742499D01*
X140497217Y-82705819D01*
X140670925Y-82633867D01*
X140827258Y-82529408D01*
X140960208Y-82396458D01*
X141064667Y-82240125D01*
X141064668Y-82240122D01*
X141064670Y-82240119D01*
X141069580Y-82228265D01*
X141113420Y-82173861D01*
X141179714Y-82151796D01*
X141247414Y-82169075D01*
X141271822Y-82188036D01*
X141272286Y-82188500D01*
X141386414Y-82254392D01*
X141513708Y-82288500D01*
X141513710Y-82288500D01*
X141645490Y-82288500D01*
X141645492Y-82288500D01*
X141772786Y-82254392D01*
X141886914Y-82188500D01*
X141980100Y-82095314D01*
X142045992Y-81981186D01*
X142080100Y-81853892D01*
X142080100Y-81722108D01*
X142045992Y-81594814D01*
X141980100Y-81480686D01*
X141886914Y-81387500D01*
X141818041Y-81347736D01*
X141772787Y-81321608D01*
X141709139Y-81304554D01*
X141645492Y-81287500D01*
X141513708Y-81287500D01*
X141386412Y-81321608D01*
X141272286Y-81387500D01*
X141272279Y-81387505D01*
X141271815Y-81387970D01*
X141271327Y-81388236D01*
X141265840Y-81392447D01*
X141265182Y-81391590D01*
X141210489Y-81421450D01*
X141140798Y-81416460D01*
X141084868Y-81374584D01*
X141069580Y-81347736D01*
X141069449Y-81347421D01*
X141064667Y-81335875D01*
X141064664Y-81335870D01*
X141064663Y-81335868D01*
X140960208Y-81179542D01*
X140960205Y-81179538D01*
X140827261Y-81046594D01*
X140801054Y-81029083D01*
X140801052Y-81029081D01*
X140670931Y-80942136D01*
X140670918Y-80942129D01*
X140651553Y-80934108D01*
X144349500Y-80934108D01*
X144349500Y-81065891D01*
X144383608Y-81193187D01*
X144416554Y-81250250D01*
X144449500Y-81307314D01*
X144542686Y-81400500D01*
X144656814Y-81466392D01*
X144784108Y-81500500D01*
X144784110Y-81500500D01*
X144915890Y-81500500D01*
X144915892Y-81500500D01*
X145043186Y-81466392D01*
X145157314Y-81400500D01*
X145250500Y-81307314D01*
X145316392Y-81193186D01*
X145350500Y-81065892D01*
X145350500Y-80934108D01*
X145316392Y-80806814D01*
X145250500Y-80692686D01*
X145157314Y-80599500D01*
X145100250Y-80566554D01*
X145043187Y-80533608D01*
X144979539Y-80516554D01*
X144915892Y-80499500D01*
X144784108Y-80499500D01*
X144656812Y-80533608D01*
X144542686Y-80599500D01*
X144542683Y-80599502D01*
X144449502Y-80692683D01*
X144449500Y-80692686D01*
X144383608Y-80806812D01*
X144349500Y-80934108D01*
X140651553Y-80934108D01*
X140497221Y-80870182D01*
X140497209Y-80870179D01*
X140312813Y-80833500D01*
X140312810Y-80833500D01*
X140124790Y-80833500D01*
X140124787Y-80833500D01*
X139940390Y-80870179D01*
X139940378Y-80870182D01*
X139766681Y-80942129D01*
X139766668Y-80942136D01*
X139610342Y-81046591D01*
X139610338Y-81046594D01*
X139477394Y-81179538D01*
X139477391Y-81179542D01*
X139372936Y-81335868D01*
X139372929Y-81335881D01*
X139300982Y-81509578D01*
X139300979Y-81509590D01*
X139264300Y-81693985D01*
X138673299Y-81693985D01*
X138636619Y-81509583D01*
X138618729Y-81466392D01*
X138564670Y-81335881D01*
X138564663Y-81335868D01*
X138460208Y-81179542D01*
X138460205Y-81179538D01*
X138327261Y-81046594D01*
X138327257Y-81046591D01*
X138170931Y-80942136D01*
X138170918Y-80942129D01*
X137997221Y-80870182D01*
X137997209Y-80870179D01*
X137812813Y-80833500D01*
X137812810Y-80833500D01*
X137624790Y-80833500D01*
X137624787Y-80833500D01*
X137440390Y-80870179D01*
X137440378Y-80870182D01*
X137266681Y-80942129D01*
X137266668Y-80942136D01*
X137110342Y-81046591D01*
X137110338Y-81046594D01*
X136977394Y-81179538D01*
X136977391Y-81179542D01*
X136872936Y-81335868D01*
X136872929Y-81335881D01*
X136800982Y-81509578D01*
X136800979Y-81509590D01*
X136764300Y-81693985D01*
X136173299Y-81693985D01*
X136136619Y-81509583D01*
X136118729Y-81466392D01*
X136064670Y-81335881D01*
X136064663Y-81335868D01*
X135960208Y-81179542D01*
X135960205Y-81179538D01*
X135827261Y-81046594D01*
X135827257Y-81046591D01*
X135670931Y-80942136D01*
X135670918Y-80942129D01*
X135497221Y-80870182D01*
X135497209Y-80870179D01*
X135312813Y-80833500D01*
X135312810Y-80833500D01*
X135124790Y-80833500D01*
X135124787Y-80833500D01*
X134940390Y-80870179D01*
X134940378Y-80870182D01*
X134766681Y-80942129D01*
X134766668Y-80942136D01*
X134610342Y-81046591D01*
X134610338Y-81046594D01*
X134477394Y-81179538D01*
X134477391Y-81179542D01*
X134372936Y-81335868D01*
X134372929Y-81335881D01*
X134300982Y-81509578D01*
X134300979Y-81509590D01*
X134264300Y-81693985D01*
X131325500Y-81693985D01*
X131325500Y-79884108D01*
X153449500Y-79884108D01*
X153449500Y-80015891D01*
X153483608Y-80143187D01*
X153516554Y-80200250D01*
X153549500Y-80257314D01*
X153642686Y-80350500D01*
X153756814Y-80416392D01*
X153884108Y-80450500D01*
X153884110Y-80450500D01*
X154015890Y-80450500D01*
X154015892Y-80450500D01*
X154143186Y-80416392D01*
X154257314Y-80350500D01*
X154350500Y-80257314D01*
X154416392Y-80143186D01*
X154450500Y-80015892D01*
X154450500Y-79884108D01*
X154416392Y-79756814D01*
X154350500Y-79642686D01*
X154257314Y-79549500D01*
X154200250Y-79516554D01*
X154143187Y-79483608D01*
X154079539Y-79466554D01*
X154015892Y-79449500D01*
X153884108Y-79449500D01*
X153756812Y-79483608D01*
X153642686Y-79549500D01*
X153642683Y-79549502D01*
X153549502Y-79642683D01*
X153549500Y-79642686D01*
X153483608Y-79756812D01*
X153449500Y-79884108D01*
X131325500Y-79884108D01*
X131325500Y-77134108D01*
X132949500Y-77134108D01*
X132949500Y-77265892D01*
X132962897Y-77315892D01*
X132983608Y-77393187D01*
X132991475Y-77406812D01*
X133049500Y-77507314D01*
X133142686Y-77600500D01*
X133241521Y-77657563D01*
X133255944Y-77665890D01*
X133256814Y-77666392D01*
X133384108Y-77700500D01*
X133384110Y-77700500D01*
X133515890Y-77700500D01*
X133515892Y-77700500D01*
X133643186Y-77666392D01*
X133757314Y-77600500D01*
X133850500Y-77507314D01*
X133916392Y-77393186D01*
X133950500Y-77265892D01*
X133950500Y-77134108D01*
X136749500Y-77134108D01*
X136749500Y-77265892D01*
X136762897Y-77315892D01*
X136783608Y-77393187D01*
X136791475Y-77406812D01*
X136849500Y-77507314D01*
X136942686Y-77600500D01*
X137041521Y-77657563D01*
X137055944Y-77665890D01*
X137056814Y-77666392D01*
X137184108Y-77700500D01*
X137184110Y-77700500D01*
X137315890Y-77700500D01*
X137315892Y-77700500D01*
X137443186Y-77666392D01*
X137557314Y-77600500D01*
X137650500Y-77507314D01*
X137716392Y-77393186D01*
X137750500Y-77265892D01*
X137750500Y-77134108D01*
X137716392Y-77006814D01*
X137650500Y-76892686D01*
X137557314Y-76799500D01*
X137477451Y-76753391D01*
X137443187Y-76733608D01*
X137442616Y-76733455D01*
X137315892Y-76699500D01*
X137184108Y-76699500D01*
X137056812Y-76733608D01*
X136942686Y-76799500D01*
X136942683Y-76799502D01*
X136849502Y-76892683D01*
X136849500Y-76892686D01*
X136783608Y-77006812D01*
X136761855Y-77087997D01*
X136749500Y-77134108D01*
X133950500Y-77134108D01*
X133916392Y-77006814D01*
X133850500Y-76892686D01*
X133757314Y-76799500D01*
X133677451Y-76753391D01*
X133643187Y-76733608D01*
X133579539Y-76716554D01*
X133515892Y-76699500D01*
X133384108Y-76699500D01*
X133256812Y-76733608D01*
X133142686Y-76799500D01*
X133142683Y-76799502D01*
X133049502Y-76892683D01*
X133049500Y-76892686D01*
X132983608Y-77006812D01*
X132961855Y-77087997D01*
X132949500Y-77134108D01*
X131325500Y-77134108D01*
X131325500Y-76950864D01*
X131325816Y-76942019D01*
X131331490Y-76862674D01*
X131336337Y-76794895D01*
X131338855Y-76777387D01*
X131344075Y-76753391D01*
X131372743Y-76621608D01*
X140049500Y-76621608D01*
X140049500Y-76753392D01*
X140061855Y-76799502D01*
X140083608Y-76880687D01*
X140090534Y-76892683D01*
X140149500Y-76994814D01*
X140242686Y-77088000D01*
X140356814Y-77153892D01*
X140484108Y-77188000D01*
X140484110Y-77188000D01*
X140615890Y-77188000D01*
X140615892Y-77188000D01*
X140743186Y-77153892D01*
X140777453Y-77134108D01*
X144349500Y-77134108D01*
X144349500Y-77265892D01*
X144362897Y-77315892D01*
X144383608Y-77393187D01*
X144391475Y-77406812D01*
X144449500Y-77507314D01*
X144542686Y-77600500D01*
X144641521Y-77657563D01*
X144655944Y-77665890D01*
X144656814Y-77666392D01*
X144784108Y-77700500D01*
X144784110Y-77700500D01*
X144915890Y-77700500D01*
X144915892Y-77700500D01*
X145043186Y-77666392D01*
X145157314Y-77600500D01*
X145250500Y-77507314D01*
X145316392Y-77393186D01*
X145350500Y-77265892D01*
X145350500Y-77134108D01*
X148149500Y-77134108D01*
X148149500Y-77265892D01*
X148162897Y-77315892D01*
X148183608Y-77393187D01*
X148191475Y-77406812D01*
X148249500Y-77507314D01*
X148342686Y-77600500D01*
X148441521Y-77657563D01*
X148455944Y-77665890D01*
X148456814Y-77666392D01*
X148584108Y-77700500D01*
X148584110Y-77700500D01*
X148715890Y-77700500D01*
X148715892Y-77700500D01*
X148843186Y-77666392D01*
X148957314Y-77600500D01*
X149023706Y-77534108D01*
X156344500Y-77534108D01*
X156344500Y-77665891D01*
X156378608Y-77793187D01*
X156411554Y-77850250D01*
X156444500Y-77907314D01*
X156537686Y-78000500D01*
X156651814Y-78066392D01*
X156779108Y-78100500D01*
X156779110Y-78100500D01*
X156910890Y-78100500D01*
X156910892Y-78100500D01*
X157038186Y-78066392D01*
X157152314Y-78000500D01*
X157245500Y-77907314D01*
X157311392Y-77793186D01*
X157345500Y-77665892D01*
X157345500Y-77534108D01*
X157311392Y-77406814D01*
X157245500Y-77292686D01*
X157152314Y-77199500D01*
X157073317Y-77153891D01*
X157038187Y-77133608D01*
X156974539Y-77116554D01*
X156910892Y-77099500D01*
X156779108Y-77099500D01*
X156651812Y-77133608D01*
X156537686Y-77199500D01*
X156537683Y-77199502D01*
X156444502Y-77292683D01*
X156444500Y-77292686D01*
X156378608Y-77406812D01*
X156344500Y-77534108D01*
X149023706Y-77534108D01*
X149050500Y-77507314D01*
X149063023Y-77485622D01*
X149075520Y-77463980D01*
X149116390Y-77393189D01*
X149116392Y-77393186D01*
X149150500Y-77265892D01*
X149150500Y-77134108D01*
X149116392Y-77006814D01*
X149050500Y-76892686D01*
X148957314Y-76799500D01*
X148877451Y-76753391D01*
X148843187Y-76733608D01*
X148779539Y-76716554D01*
X148715892Y-76699500D01*
X148584108Y-76699500D01*
X148456812Y-76733608D01*
X148342686Y-76799500D01*
X148342683Y-76799502D01*
X148249502Y-76892683D01*
X148249500Y-76892686D01*
X148183608Y-77006812D01*
X148161855Y-77087997D01*
X148149500Y-77134108D01*
X145350500Y-77134108D01*
X145316392Y-77006814D01*
X145250500Y-76892686D01*
X145157314Y-76799500D01*
X145077451Y-76753391D01*
X145043187Y-76733608D01*
X144979539Y-76716554D01*
X144915892Y-76699500D01*
X144784108Y-76699500D01*
X144656812Y-76733608D01*
X144542686Y-76799500D01*
X144542683Y-76799502D01*
X144449502Y-76892683D01*
X144449500Y-76892686D01*
X144383608Y-77006812D01*
X144361855Y-77087997D01*
X144349500Y-77134108D01*
X140777453Y-77134108D01*
X140857314Y-77088000D01*
X140950500Y-76994814D01*
X141016392Y-76880686D01*
X141050500Y-76753392D01*
X141050500Y-76621608D01*
X141016392Y-76494314D01*
X140950500Y-76380186D01*
X140857314Y-76287000D01*
X140762490Y-76232253D01*
X140743187Y-76221108D01*
X140645827Y-76195021D01*
X140615892Y-76187000D01*
X140484108Y-76187000D01*
X140356812Y-76221108D01*
X140242686Y-76287000D01*
X140242683Y-76287002D01*
X140149502Y-76380183D01*
X140149500Y-76380186D01*
X140083608Y-76494312D01*
X140063822Y-76568156D01*
X140049500Y-76621608D01*
X131372743Y-76621608D01*
X131380681Y-76585120D01*
X131385658Y-76568169D01*
X131454430Y-76383783D01*
X131461765Y-76367721D01*
X131556070Y-76195013D01*
X131565626Y-76180145D01*
X131683545Y-76022623D01*
X131695119Y-76009266D01*
X131834262Y-75870123D01*
X131847616Y-75858551D01*
X132005151Y-75740621D01*
X132020012Y-75731071D01*
X132192721Y-75636765D01*
X132208783Y-75629430D01*
X132393169Y-75560658D01*
X132410120Y-75555681D01*
X132602389Y-75513854D01*
X132619895Y-75511337D01*
X132767019Y-75500815D01*
X132775864Y-75500500D01*
X158226000Y-75500500D01*
X158293039Y-75520185D01*
G37*
%TD.AperFunction*%
%TD*%
%TA.AperFunction,Conductor*%
%TO.N,USB_5V*%
G36*
X187351315Y-75500577D02*
G01*
X187355790Y-75500737D01*
X187360149Y-75500970D01*
X187500695Y-75511021D01*
X187509461Y-75511964D01*
X187518254Y-75513228D01*
X187526922Y-75514792D01*
X187697448Y-75551888D01*
X187730510Y-75564219D01*
X187771516Y-75586611D01*
X187842293Y-75607393D01*
X187901422Y-75624755D01*
X187913937Y-75629170D01*
X187926144Y-75634226D01*
X187938121Y-75639956D01*
X188052228Y-75702263D01*
X188052227Y-75702263D01*
X188101081Y-75728939D01*
X188108699Y-75733458D01*
X188116147Y-75738245D01*
X188123413Y-75743291D01*
X188273816Y-75855881D01*
X188280708Y-75861435D01*
X188287397Y-75867231D01*
X188293876Y-75873263D01*
X188426735Y-76006122D01*
X188432765Y-76012599D01*
X188438550Y-76019275D01*
X188444106Y-76026168D01*
X188556713Y-76176592D01*
X188561767Y-76183872D01*
X188566545Y-76191308D01*
X188571056Y-76198912D01*
X188638226Y-76321925D01*
X188638227Y-76321926D01*
X188661100Y-76363813D01*
X188665059Y-76371721D01*
X188668736Y-76379773D01*
X188672122Y-76387947D01*
X188737786Y-76564002D01*
X188740582Y-76572404D01*
X188743074Y-76580892D01*
X188745262Y-76589465D01*
X188785199Y-76773051D01*
X188786770Y-76781753D01*
X188788030Y-76790512D01*
X188788977Y-76799321D01*
X188799026Y-76939809D01*
X188799263Y-76944229D01*
X188799421Y-76948652D01*
X188799500Y-76953079D01*
X188799500Y-102196918D01*
X188799421Y-102201345D01*
X188799263Y-102205768D01*
X188799026Y-102210188D01*
X188788977Y-102350676D01*
X188788030Y-102359485D01*
X188786770Y-102368244D01*
X188785199Y-102376946D01*
X188745262Y-102560532D01*
X188743074Y-102569105D01*
X188740582Y-102577593D01*
X188737786Y-102585995D01*
X188672122Y-102762050D01*
X188668732Y-102770235D01*
X188665062Y-102778270D01*
X188661102Y-102786178D01*
X188571060Y-102951079D01*
X188566539Y-102958699D01*
X188561755Y-102966142D01*
X188556711Y-102973407D01*
X188444106Y-103123829D01*
X188438550Y-103130722D01*
X188432765Y-103137398D01*
X188426735Y-103143875D01*
X188293876Y-103276734D01*
X188287397Y-103282766D01*
X188280708Y-103288562D01*
X188273816Y-103294116D01*
X188123413Y-103406706D01*
X188116147Y-103411752D01*
X188108699Y-103416539D01*
X188101082Y-103421058D01*
X187936179Y-103511102D01*
X187928270Y-103515062D01*
X187920235Y-103518732D01*
X187912050Y-103522122D01*
X187735995Y-103587786D01*
X187727593Y-103590582D01*
X187719105Y-103593074D01*
X187710532Y-103595262D01*
X187526946Y-103635199D01*
X187518244Y-103636770D01*
X187509485Y-103638030D01*
X187500676Y-103638977D01*
X187369134Y-103648386D01*
X187369132Y-103648386D01*
X187360183Y-103649026D01*
X187355768Y-103649262D01*
X187351342Y-103649421D01*
X187346918Y-103649500D01*
X159005991Y-103649500D01*
X158971050Y-103644475D01*
X158956051Y-103640070D01*
X158897289Y-103602309D01*
X158896086Y-103600921D01*
X158868634Y-103546115D01*
X158866996Y-103538600D01*
X158864151Y-103512283D01*
X158864081Y-103416539D01*
X158863434Y-102534108D01*
X163349500Y-102534108D01*
X163349500Y-102665891D01*
X163366554Y-102729539D01*
X163383608Y-102793188D01*
X163416554Y-102850250D01*
X163449500Y-102907314D01*
X163542686Y-103000500D01*
X163656814Y-103066392D01*
X163784108Y-103100500D01*
X163784110Y-103100500D01*
X163915890Y-103100500D01*
X163915892Y-103100500D01*
X164043186Y-103066392D01*
X164157314Y-103000500D01*
X164250500Y-102907314D01*
X164316392Y-102793186D01*
X164350500Y-102665892D01*
X164350500Y-102534108D01*
X170949500Y-102534108D01*
X170949500Y-102665891D01*
X170966554Y-102729539D01*
X170983608Y-102793188D01*
X171016554Y-102850250D01*
X171049500Y-102907314D01*
X171142686Y-103000500D01*
X171256814Y-103066392D01*
X171384108Y-103100500D01*
X171384110Y-103100500D01*
X171515890Y-103100500D01*
X171515892Y-103100500D01*
X171643186Y-103066392D01*
X171757314Y-103000500D01*
X171850500Y-102907314D01*
X171916392Y-102793186D01*
X171950500Y-102665892D01*
X171950500Y-102534108D01*
X178549500Y-102534108D01*
X178549500Y-102665891D01*
X178566554Y-102729539D01*
X178583608Y-102793188D01*
X178616554Y-102850250D01*
X178649500Y-102907314D01*
X178742686Y-103000500D01*
X178856814Y-103066392D01*
X178984108Y-103100500D01*
X178984110Y-103100500D01*
X179115890Y-103100500D01*
X179115892Y-103100500D01*
X179243186Y-103066392D01*
X179357314Y-103000500D01*
X179450500Y-102907314D01*
X179516392Y-102793186D01*
X179550500Y-102665892D01*
X179550500Y-102534108D01*
X186149500Y-102534108D01*
X186149500Y-102665891D01*
X186166554Y-102729539D01*
X186183608Y-102793188D01*
X186216554Y-102850250D01*
X186249500Y-102907314D01*
X186342686Y-103000500D01*
X186456814Y-103066392D01*
X186584108Y-103100500D01*
X186584110Y-103100500D01*
X186715890Y-103100500D01*
X186715892Y-103100500D01*
X186843186Y-103066392D01*
X186957314Y-103000500D01*
X187050500Y-102907314D01*
X187116392Y-102793186D01*
X187150500Y-102665892D01*
X187150500Y-102534108D01*
X187116392Y-102406814D01*
X187116387Y-102406806D01*
X187096645Y-102372611D01*
X187050500Y-102292686D01*
X186957314Y-102199500D01*
X186900250Y-102166554D01*
X186843187Y-102133608D01*
X186779539Y-102116554D01*
X186715892Y-102099500D01*
X186715891Y-102099500D01*
X186584108Y-102099500D01*
X186456808Y-102133609D01*
X186456806Y-102133610D01*
X186342696Y-102199493D01*
X186342682Y-102199502D01*
X186342677Y-102199506D01*
X186249506Y-102292677D01*
X186249502Y-102292682D01*
X186249493Y-102292696D01*
X186183610Y-102406806D01*
X186183609Y-102406808D01*
X186183608Y-102406812D01*
X186149500Y-102534108D01*
X179550500Y-102534108D01*
X179516392Y-102406814D01*
X179516387Y-102406806D01*
X179496645Y-102372611D01*
X179450500Y-102292686D01*
X179357314Y-102199500D01*
X179300250Y-102166554D01*
X179243187Y-102133608D01*
X179179539Y-102116554D01*
X179115892Y-102099500D01*
X179115891Y-102099500D01*
X178984108Y-102099500D01*
X178856808Y-102133609D01*
X178856806Y-102133610D01*
X178742696Y-102199493D01*
X178742682Y-102199502D01*
X178742677Y-102199506D01*
X178649506Y-102292677D01*
X178649502Y-102292682D01*
X178649493Y-102292696D01*
X178583610Y-102406806D01*
X178583609Y-102406808D01*
X178583608Y-102406812D01*
X178549500Y-102534108D01*
X171950500Y-102534108D01*
X171916392Y-102406814D01*
X171916387Y-102406806D01*
X171896645Y-102372611D01*
X171850500Y-102292686D01*
X171757314Y-102199500D01*
X171700250Y-102166554D01*
X171643187Y-102133608D01*
X171579539Y-102116554D01*
X171515892Y-102099500D01*
X171515891Y-102099500D01*
X171384108Y-102099500D01*
X171256808Y-102133609D01*
X171256806Y-102133610D01*
X171142696Y-102199493D01*
X171142682Y-102199502D01*
X171142677Y-102199506D01*
X171049506Y-102292677D01*
X171049502Y-102292682D01*
X171049493Y-102292696D01*
X170983610Y-102406806D01*
X170983609Y-102406808D01*
X170983608Y-102406812D01*
X170949500Y-102534108D01*
X164350500Y-102534108D01*
X164316392Y-102406814D01*
X164316387Y-102406806D01*
X164296645Y-102372611D01*
X164250500Y-102292686D01*
X164157314Y-102199500D01*
X164100250Y-102166554D01*
X164043187Y-102133608D01*
X163979539Y-102116554D01*
X163915892Y-102099500D01*
X163915891Y-102099500D01*
X163784108Y-102099500D01*
X163656808Y-102133609D01*
X163656806Y-102133610D01*
X163542696Y-102199493D01*
X163542682Y-102199502D01*
X163542677Y-102199506D01*
X163449506Y-102292677D01*
X163449502Y-102292682D01*
X163449493Y-102292696D01*
X163383610Y-102406806D01*
X163383609Y-102406808D01*
X163383608Y-102406812D01*
X163349500Y-102534108D01*
X158863434Y-102534108D01*
X158861199Y-99484108D01*
X159549500Y-99484108D01*
X159549500Y-99615891D01*
X159566554Y-99679539D01*
X159583608Y-99743188D01*
X159616554Y-99800250D01*
X159649500Y-99857314D01*
X159742686Y-99950500D01*
X159856814Y-100016392D01*
X159984108Y-100050500D01*
X159984110Y-100050500D01*
X160115890Y-100050500D01*
X160115892Y-100050500D01*
X160243186Y-100016392D01*
X160357314Y-99950500D01*
X160450500Y-99857314D01*
X160516392Y-99743186D01*
X160550500Y-99615892D01*
X160550500Y-99484108D01*
X167149500Y-99484108D01*
X167149500Y-99615891D01*
X167166554Y-99679539D01*
X167183608Y-99743188D01*
X167216554Y-99800250D01*
X167249500Y-99857314D01*
X167342686Y-99950500D01*
X167456814Y-100016392D01*
X167584108Y-100050500D01*
X167584110Y-100050500D01*
X167715890Y-100050500D01*
X167715892Y-100050500D01*
X167843186Y-100016392D01*
X167957314Y-99950500D01*
X168050500Y-99857314D01*
X168116392Y-99743186D01*
X168150500Y-99615892D01*
X168150500Y-99484108D01*
X182349500Y-99484108D01*
X182349500Y-99615891D01*
X182366554Y-99679539D01*
X182383608Y-99743188D01*
X182416554Y-99800250D01*
X182449500Y-99857314D01*
X182542686Y-99950500D01*
X182656814Y-100016392D01*
X182784108Y-100050500D01*
X182784110Y-100050500D01*
X182915890Y-100050500D01*
X182915892Y-100050500D01*
X183043186Y-100016392D01*
X183157314Y-99950500D01*
X183250500Y-99857314D01*
X183316392Y-99743186D01*
X183350500Y-99615892D01*
X183350500Y-99484108D01*
X183316392Y-99356814D01*
X183316387Y-99356806D01*
X183307563Y-99341521D01*
X183250500Y-99242686D01*
X183157314Y-99149500D01*
X183100250Y-99116554D01*
X183043187Y-99083608D01*
X182979539Y-99066554D01*
X182915892Y-99049500D01*
X182915891Y-99049500D01*
X182784108Y-99049500D01*
X182656808Y-99083609D01*
X182656806Y-99083610D01*
X182542696Y-99149493D01*
X182542682Y-99149502D01*
X182542677Y-99149506D01*
X182449506Y-99242677D01*
X182449502Y-99242682D01*
X182449493Y-99242696D01*
X182383610Y-99356806D01*
X182383609Y-99356808D01*
X182383608Y-99356812D01*
X182349500Y-99484108D01*
X168150500Y-99484108D01*
X168116392Y-99356814D01*
X168116387Y-99356806D01*
X168107563Y-99341521D01*
X168050500Y-99242686D01*
X167957314Y-99149500D01*
X167900250Y-99116554D01*
X167843187Y-99083608D01*
X167779539Y-99066554D01*
X167715892Y-99049500D01*
X167715891Y-99049500D01*
X167584108Y-99049500D01*
X167456808Y-99083609D01*
X167456806Y-99083610D01*
X167342696Y-99149493D01*
X167342682Y-99149502D01*
X167342677Y-99149506D01*
X167249506Y-99242677D01*
X167249502Y-99242682D01*
X167249493Y-99242696D01*
X167183610Y-99356806D01*
X167183609Y-99356808D01*
X167183608Y-99356812D01*
X167149500Y-99484108D01*
X160550500Y-99484108D01*
X160516392Y-99356814D01*
X160516387Y-99356806D01*
X160507563Y-99341521D01*
X160450500Y-99242686D01*
X160357314Y-99149500D01*
X160300250Y-99116554D01*
X160243187Y-99083608D01*
X160179539Y-99066554D01*
X160115892Y-99049500D01*
X160115891Y-99049500D01*
X159984108Y-99049500D01*
X159856808Y-99083609D01*
X159856806Y-99083610D01*
X159742696Y-99149493D01*
X159742682Y-99149502D01*
X159742677Y-99149506D01*
X159649506Y-99242677D01*
X159649502Y-99242682D01*
X159649493Y-99242696D01*
X159583610Y-99356806D01*
X159583609Y-99356808D01*
X159583608Y-99356812D01*
X159549500Y-99484108D01*
X158861199Y-99484108D01*
X158860429Y-98434108D01*
X174749500Y-98434108D01*
X174749500Y-98565891D01*
X174766554Y-98629539D01*
X174783608Y-98693188D01*
X174816554Y-98750250D01*
X174849500Y-98807314D01*
X174942686Y-98900500D01*
X175056814Y-98966392D01*
X175184108Y-99000500D01*
X175184110Y-99000500D01*
X175315890Y-99000500D01*
X175315892Y-99000500D01*
X175443186Y-98966392D01*
X175557314Y-98900500D01*
X175650500Y-98807314D01*
X175716392Y-98693186D01*
X175750500Y-98565892D01*
X175750500Y-98434108D01*
X175716392Y-98306814D01*
X175716387Y-98306806D01*
X175707563Y-98291521D01*
X175650500Y-98192686D01*
X175557314Y-98099500D01*
X175500250Y-98066554D01*
X175443187Y-98033608D01*
X175379539Y-98016554D01*
X175315892Y-97999500D01*
X175315891Y-97999500D01*
X175184108Y-97999500D01*
X175056808Y-98033609D01*
X175056806Y-98033610D01*
X174942696Y-98099493D01*
X174942682Y-98099502D01*
X174942677Y-98099506D01*
X174849506Y-98192677D01*
X174849502Y-98192682D01*
X174849493Y-98192696D01*
X174783610Y-98306806D01*
X174783609Y-98306808D01*
X174783608Y-98306812D01*
X174749500Y-98434108D01*
X158860429Y-98434108D01*
X158860336Y-98306814D01*
X158859215Y-96776751D01*
X158864212Y-96741815D01*
X158866169Y-96735131D01*
X158868034Y-96728760D01*
X158905764Y-96669955D01*
X158969297Y-96640883D01*
X159031369Y-96647802D01*
X159046709Y-96653675D01*
X159048096Y-96654206D01*
X159051215Y-96655449D01*
X159052400Y-96655940D01*
X159052402Y-96655941D01*
X159243580Y-96735130D01*
X159388052Y-96763867D01*
X159431714Y-96772552D01*
X159443559Y-96774908D01*
X159445794Y-96775409D01*
X159446532Y-96775500D01*
X159653466Y-96775500D01*
X159657586Y-96775500D01*
X159665435Y-96773118D01*
X159856420Y-96735130D01*
X160047598Y-96655941D01*
X160219655Y-96540977D01*
X160365977Y-96394655D01*
X160480941Y-96222598D01*
X160560130Y-96031420D01*
X160600500Y-95828465D01*
X160600500Y-95621535D01*
X160560130Y-95418580D01*
X160480941Y-95227402D01*
X160365977Y-95055345D01*
X160365975Y-95055342D01*
X160334794Y-95024161D01*
X160333260Y-95022511D01*
X160331853Y-95019696D01*
X160315241Y-94997504D01*
X160308715Y-94985552D01*
X160304030Y-94964014D01*
X160302029Y-94960010D01*
X160302404Y-94956540D01*
X160293864Y-94917279D01*
X160318282Y-94851815D01*
X160367034Y-94812882D01*
X160374585Y-94809514D01*
X160400893Y-94801146D01*
X160481420Y-94785130D01*
X160672598Y-94705941D01*
X160844655Y-94590977D01*
X160990977Y-94444655D01*
X161105941Y-94272598D01*
X161105944Y-94272592D01*
X161128617Y-94217854D01*
X161146620Y-94187508D01*
X161153722Y-94178695D01*
X161211110Y-94138848D01*
X161280935Y-94136352D01*
X161341025Y-94172002D01*
X161341026Y-94172004D01*
X161346253Y-94177618D01*
X161370061Y-94214663D01*
X161394055Y-94272592D01*
X161509027Y-94444661D01*
X161655336Y-94590970D01*
X161655340Y-94590973D01*
X161655342Y-94590975D01*
X161655345Y-94590977D01*
X161655349Y-94590980D01*
X161655348Y-94590980D01*
X161655411Y-94591032D01*
X161655448Y-94591046D01*
X161779289Y-94673793D01*
X161822867Y-94702911D01*
X161831771Y-94709452D01*
X161832231Y-94709822D01*
X161832231Y-94709823D01*
X161853476Y-94726940D01*
X161893330Y-94784326D01*
X161893332Y-94784332D01*
X161895652Y-94791301D01*
X161899273Y-94849108D01*
X161900097Y-94849190D01*
X161899596Y-94854272D01*
X161899620Y-94854648D01*
X161899501Y-94855249D01*
X161899500Y-94855252D01*
X161899500Y-96594752D01*
X161911131Y-96653229D01*
X161911132Y-96653230D01*
X161911132Y-96653231D01*
X161911134Y-96653233D01*
X161955447Y-96719552D01*
X162021765Y-96763864D01*
X162021767Y-96763866D01*
X162021770Y-96763868D01*
X162072612Y-96773981D01*
X162075337Y-96774703D01*
X162080249Y-96775500D01*
X163819750Y-96775500D01*
X163823873Y-96775500D01*
X163831732Y-96773116D01*
X163856595Y-96768171D01*
X163866258Y-96766249D01*
X163872354Y-96765648D01*
X163872386Y-96765639D01*
X163883311Y-96762902D01*
X163893515Y-96753654D01*
X163944552Y-96719552D01*
X163988867Y-96653231D01*
X163988867Y-96653229D01*
X163988868Y-96653229D01*
X163991030Y-96642355D01*
X163991166Y-96642090D01*
X163991249Y-96641256D01*
X163991291Y-96641048D01*
X164000072Y-96596896D01*
X164000500Y-96594931D01*
X164000500Y-96134108D01*
X164849500Y-96134108D01*
X164849500Y-96265892D01*
X164871107Y-96346534D01*
X164883608Y-96393187D01*
X164884456Y-96394655D01*
X164949500Y-96507314D01*
X165042686Y-96600500D01*
X165156814Y-96666392D01*
X165284108Y-96700500D01*
X165284110Y-96700500D01*
X165415890Y-96700500D01*
X165415892Y-96700500D01*
X165543186Y-96666392D01*
X165657314Y-96600500D01*
X165750500Y-96507314D01*
X165816392Y-96393186D01*
X165850500Y-96265892D01*
X165850500Y-96134108D01*
X165816392Y-96006814D01*
X165816387Y-96006806D01*
X165793054Y-95966392D01*
X165750500Y-95892686D01*
X165657314Y-95799500D01*
X165600250Y-95766554D01*
X165543187Y-95733608D01*
X165453948Y-95709697D01*
X165453948Y-95709696D01*
X165415893Y-95699500D01*
X165415892Y-95699500D01*
X165284108Y-95699500D01*
X165156808Y-95733609D01*
X165156806Y-95733610D01*
X165042696Y-95799493D01*
X165042682Y-95799502D01*
X165042677Y-95799506D01*
X164949506Y-95892677D01*
X164949502Y-95892682D01*
X164949493Y-95892696D01*
X164883610Y-96006806D01*
X164883609Y-96006808D01*
X164849500Y-96134108D01*
X164000500Y-96134108D01*
X164000500Y-95434108D01*
X170949500Y-95434108D01*
X170949500Y-95565891D01*
X170979060Y-95676213D01*
X170983609Y-95693190D01*
X170999971Y-95721530D01*
X170999972Y-95721530D01*
X171049500Y-95807314D01*
X171142686Y-95900500D01*
X171256814Y-95966392D01*
X171384108Y-96000500D01*
X171384110Y-96000500D01*
X171515890Y-96000500D01*
X171515892Y-96000500D01*
X171643186Y-95966392D01*
X171757314Y-95900500D01*
X171850500Y-95807314D01*
X171916392Y-95693186D01*
X171950500Y-95565892D01*
X171950500Y-95434108D01*
X171916392Y-95306814D01*
X171916387Y-95306806D01*
X171870543Y-95227402D01*
X171850500Y-95192686D01*
X171757314Y-95099500D01*
X171700250Y-95066554D01*
X171643187Y-95033608D01*
X171551436Y-95009024D01*
X171544776Y-95007239D01*
X171544770Y-95007237D01*
X171515893Y-94999500D01*
X171515892Y-94999500D01*
X171384108Y-94999500D01*
X171256808Y-95033609D01*
X171256806Y-95033610D01*
X171142696Y-95099493D01*
X171142682Y-95099502D01*
X171142677Y-95099506D01*
X171049506Y-95192677D01*
X171049502Y-95192682D01*
X171049493Y-95192696D01*
X170983610Y-95306806D01*
X170983609Y-95306808D01*
X170958773Y-95399500D01*
X170949500Y-95434108D01*
X164000500Y-95434108D01*
X164000500Y-94857295D01*
X164000500Y-94855249D01*
X164000499Y-94855247D01*
X163988868Y-94796770D01*
X163988867Y-94796769D01*
X163970445Y-94769199D01*
X163960574Y-94754426D01*
X163944552Y-94730447D01*
X163893213Y-94696143D01*
X163888385Y-94692917D01*
X163883641Y-94689024D01*
X163878230Y-94686132D01*
X163878229Y-94686131D01*
X163819752Y-94674500D01*
X163819750Y-94674500D01*
X163228325Y-94674500D01*
X163193390Y-94669477D01*
X163182536Y-94666290D01*
X163123758Y-94628516D01*
X163094733Y-94564960D01*
X163104673Y-94495811D01*
X163107863Y-94488824D01*
X163132976Y-94452655D01*
X163140974Y-94444658D01*
X163140975Y-94444657D01*
X163140977Y-94444655D01*
X163255941Y-94272598D01*
X163335130Y-94081420D01*
X163375500Y-93878465D01*
X163375500Y-93778471D01*
X176474499Y-93778471D01*
X176514235Y-93978231D01*
X176514868Y-93981412D01*
X176514870Y-93981420D01*
X176594058Y-94172596D01*
X176709023Y-94344655D01*
X176709027Y-94344661D01*
X176855295Y-94490929D01*
X176855297Y-94490930D01*
X176855342Y-94490975D01*
X176855345Y-94490977D01*
X177027402Y-94605941D01*
X177027403Y-94605941D01*
X177027404Y-94605942D01*
X177082147Y-94628617D01*
X177112496Y-94646625D01*
X177121307Y-94653725D01*
X177161152Y-94711119D01*
X177163643Y-94780945D01*
X177127994Y-94841026D01*
X177122379Y-94846254D01*
X177085333Y-94870062D01*
X177027411Y-94894053D01*
X177027393Y-94894063D01*
X176855343Y-95009022D01*
X176855336Y-95009028D01*
X176709027Y-95155337D01*
X176594057Y-95327404D01*
X176514870Y-95518579D01*
X176514868Y-95518587D01*
X176474500Y-95721527D01*
X176474500Y-95721530D01*
X176474500Y-95928469D01*
X176474500Y-95928471D01*
X176474499Y-95928471D01*
X176514864Y-96131394D01*
X176514870Y-96131421D01*
X176552636Y-96222596D01*
X176594059Y-96322598D01*
X176610052Y-96346534D01*
X176709025Y-96494659D01*
X176855336Y-96640970D01*
X176855340Y-96640973D01*
X176855342Y-96640975D01*
X176855345Y-96640977D01*
X176855349Y-96640980D01*
X176855348Y-96640980D01*
X176855411Y-96641032D01*
X176855448Y-96641046D01*
X177027402Y-96755941D01*
X177218580Y-96835130D01*
X177409540Y-96873114D01*
X177418559Y-96874908D01*
X177420794Y-96875409D01*
X177421532Y-96875500D01*
X177628466Y-96875500D01*
X177632586Y-96875500D01*
X177640435Y-96873118D01*
X177831420Y-96835130D01*
X178022598Y-96755941D01*
X178194655Y-96640977D01*
X178224240Y-96611391D01*
X178252487Y-96590245D01*
X178264444Y-96583716D01*
X178332715Y-96568864D01*
X178398180Y-96593280D01*
X178437119Y-96642041D01*
X178440484Y-96649586D01*
X178448852Y-96675896D01*
X178460635Y-96735131D01*
X178464868Y-96756413D01*
X178464873Y-96756429D01*
X178544056Y-96947594D01*
X178659027Y-97119661D01*
X178805336Y-97265970D01*
X178805340Y-97265973D01*
X178805342Y-97265975D01*
X178805345Y-97265977D01*
X178805349Y-97265980D01*
X178805348Y-97265980D01*
X178805411Y-97266032D01*
X178805448Y-97266046D01*
X178977402Y-97380941D01*
X179168580Y-97460130D01*
X179359540Y-97498114D01*
X179368559Y-97499908D01*
X179370794Y-97500409D01*
X179371532Y-97500500D01*
X179578466Y-97500500D01*
X179582586Y-97500500D01*
X179590435Y-97498118D01*
X179781420Y-97460130D01*
X179972598Y-97380941D01*
X180144655Y-97265977D01*
X180290977Y-97119655D01*
X180405941Y-96947598D01*
X180485130Y-96756420D01*
X180525500Y-96553465D01*
X180525500Y-96346535D01*
X180485130Y-96143580D01*
X180481207Y-96134108D01*
X186149500Y-96134108D01*
X186149500Y-96265892D01*
X186171107Y-96346534D01*
X186183608Y-96393187D01*
X186184456Y-96394655D01*
X186249500Y-96507314D01*
X186342686Y-96600500D01*
X186456814Y-96666392D01*
X186584108Y-96700500D01*
X186584110Y-96700500D01*
X186715890Y-96700500D01*
X186715892Y-96700500D01*
X186843186Y-96666392D01*
X186957314Y-96600500D01*
X187050500Y-96507314D01*
X187116392Y-96393186D01*
X187150500Y-96265892D01*
X187150500Y-96134108D01*
X187116392Y-96006814D01*
X187116387Y-96006806D01*
X187093054Y-95966392D01*
X187050500Y-95892686D01*
X186957314Y-95799500D01*
X186900250Y-95766554D01*
X186843187Y-95733608D01*
X186753948Y-95709697D01*
X186753948Y-95709696D01*
X186715893Y-95699500D01*
X186715892Y-95699500D01*
X186584108Y-95699500D01*
X186456808Y-95733609D01*
X186456806Y-95733610D01*
X186342696Y-95799493D01*
X186342682Y-95799502D01*
X186342677Y-95799506D01*
X186249506Y-95892677D01*
X186249502Y-95892682D01*
X186249493Y-95892696D01*
X186183610Y-96006806D01*
X186183609Y-96006808D01*
X186149500Y-96134108D01*
X180481207Y-96134108D01*
X180405941Y-95952402D01*
X180291046Y-95780449D01*
X180291036Y-95780417D01*
X180290980Y-95780348D01*
X180290980Y-95780349D01*
X180290977Y-95780345D01*
X180290975Y-95780342D01*
X180290973Y-95780340D01*
X180290970Y-95780336D01*
X180144659Y-95634025D01*
X180043945Y-95566731D01*
X180043938Y-95566726D01*
X180042689Y-95565892D01*
X179972598Y-95519059D01*
X179971458Y-95518587D01*
X179781420Y-95439870D01*
X179781412Y-95439868D01*
X179781404Y-95439866D01*
X179781394Y-95439864D01*
X179578471Y-95399500D01*
X179578469Y-95399500D01*
X179578465Y-95399500D01*
X179371535Y-95399500D01*
X179371530Y-95399500D01*
X179371528Y-95399500D01*
X179168604Y-95439864D01*
X179168579Y-95439870D01*
X178977404Y-95519057D01*
X178805337Y-95634027D01*
X178805336Y-95634028D01*
X178775761Y-95663604D01*
X178747504Y-95684757D01*
X178735550Y-95691284D01*
X178667277Y-95706134D01*
X178601813Y-95681715D01*
X178562877Y-95632953D01*
X178559508Y-95625397D01*
X178551147Y-95599103D01*
X178535507Y-95520477D01*
X178535214Y-95518876D01*
X178535130Y-95518585D01*
X178535130Y-95518580D01*
X178455941Y-95327402D01*
X178341046Y-95155449D01*
X178341036Y-95155417D01*
X178340980Y-95155348D01*
X178340980Y-95155349D01*
X178340977Y-95155345D01*
X178340975Y-95155342D01*
X178340973Y-95155340D01*
X178340970Y-95155336D01*
X178194662Y-95009028D01*
X178194655Y-95009022D01*
X178047521Y-94910711D01*
X178047504Y-94910701D01*
X178044993Y-94909023D01*
X178022598Y-94894059D01*
X178022593Y-94894057D01*
X177967849Y-94871381D01*
X177937501Y-94853373D01*
X177928691Y-94846273D01*
X177888845Y-94788881D01*
X177886354Y-94719056D01*
X177922005Y-94658971D01*
X177927627Y-94653737D01*
X177964661Y-94629939D01*
X178022598Y-94605941D01*
X178194655Y-94490977D01*
X178340977Y-94344655D01*
X178452925Y-94177111D01*
X178459446Y-94168236D01*
X178459823Y-94167767D01*
X178459824Y-94167768D01*
X178476938Y-94146523D01*
X178534320Y-94106671D01*
X178541294Y-94104348D01*
X178599101Y-94100733D01*
X178599183Y-94099902D01*
X178604311Y-94100407D01*
X178604672Y-94100385D01*
X178604847Y-94100419D01*
X178605249Y-94100499D01*
X178605250Y-94100500D01*
X180344750Y-94100500D01*
X180348873Y-94100500D01*
X180356732Y-94098116D01*
X180376381Y-94094208D01*
X180391258Y-94091249D01*
X180397354Y-94090648D01*
X180397386Y-94090639D01*
X180408311Y-94087902D01*
X180418515Y-94078654D01*
X180469552Y-94044552D01*
X180513867Y-93978231D01*
X180513867Y-93978229D01*
X180513868Y-93978229D01*
X180516030Y-93967355D01*
X180516166Y-93967090D01*
X180516249Y-93966256D01*
X180525068Y-93921917D01*
X180525500Y-93919931D01*
X180525500Y-92334108D01*
X182349500Y-92334108D01*
X182349500Y-92465891D01*
X182366554Y-92529539D01*
X182383608Y-92593188D01*
X182401687Y-92624500D01*
X182449500Y-92707314D01*
X182542686Y-92800500D01*
X182639757Y-92856544D01*
X182656810Y-92866390D01*
X182656814Y-92866392D01*
X182784108Y-92900500D01*
X182784110Y-92900500D01*
X182915890Y-92900500D01*
X182915892Y-92900500D01*
X183043186Y-92866392D01*
X183157314Y-92800500D01*
X183250500Y-92707314D01*
X183316392Y-92593186D01*
X183350500Y-92465892D01*
X183350500Y-92334108D01*
X183316392Y-92206814D01*
X183316387Y-92206806D01*
X183301053Y-92180247D01*
X183250500Y-92092686D01*
X183157314Y-91999500D01*
X183100250Y-91966554D01*
X183043187Y-91933608D01*
X182979539Y-91916554D01*
X182915892Y-91899500D01*
X182915891Y-91899500D01*
X182784108Y-91899500D01*
X182656808Y-91933609D01*
X182656806Y-91933610D01*
X182542696Y-91999493D01*
X182542682Y-91999502D01*
X182542677Y-91999506D01*
X182449506Y-92092677D01*
X182449502Y-92092682D01*
X182449493Y-92092696D01*
X182383610Y-92206806D01*
X182383609Y-92206808D01*
X182383608Y-92206812D01*
X182349500Y-92334108D01*
X180525500Y-92334108D01*
X180525500Y-92326968D01*
X180525500Y-92180249D01*
X180525499Y-92180247D01*
X180513868Y-92121770D01*
X180513867Y-92121769D01*
X180510975Y-92116358D01*
X180507081Y-92111613D01*
X180498991Y-92099506D01*
X180469552Y-92055447D01*
X180433146Y-92031121D01*
X180413385Y-92017917D01*
X180408641Y-92014024D01*
X180403230Y-92011132D01*
X180403229Y-92011131D01*
X180344752Y-91999500D01*
X180344750Y-91999500D01*
X178605249Y-91999500D01*
X178605247Y-91999500D01*
X178546770Y-92011131D01*
X178546769Y-92011131D01*
X178546768Y-92011132D01*
X178546765Y-92011133D01*
X178546759Y-92011138D01*
X178480447Y-92055447D01*
X178436138Y-92121759D01*
X178436133Y-92121765D01*
X178436132Y-92121768D01*
X178436132Y-92121769D01*
X178436131Y-92121770D01*
X178427114Y-92167106D01*
X178424500Y-92180249D01*
X178424500Y-92771675D01*
X178419476Y-92806613D01*
X178416289Y-92817466D01*
X178378514Y-92876243D01*
X178314957Y-92905266D01*
X178245807Y-92895325D01*
X178238829Y-92892138D01*
X178202656Y-92867023D01*
X178194657Y-92859024D01*
X178053741Y-92764868D01*
X178022598Y-92744059D01*
X178022593Y-92744057D01*
X177899780Y-92693186D01*
X177831420Y-92664870D01*
X177831412Y-92664868D01*
X177831404Y-92664866D01*
X177831394Y-92664864D01*
X177628471Y-92624500D01*
X177628469Y-92624500D01*
X177628465Y-92624500D01*
X177421535Y-92624500D01*
X177421530Y-92624500D01*
X177421528Y-92624500D01*
X177218604Y-92664864D01*
X177218579Y-92664870D01*
X177027404Y-92744057D01*
X176855337Y-92859027D01*
X176709027Y-93005337D01*
X176594057Y-93177404D01*
X176514870Y-93368579D01*
X176514864Y-93368604D01*
X176474500Y-93571527D01*
X176474500Y-93571530D01*
X176474500Y-93778469D01*
X176474500Y-93778471D01*
X176474499Y-93778471D01*
X163375500Y-93778471D01*
X163375500Y-93671535D01*
X163335130Y-93468580D01*
X163255941Y-93277402D01*
X163141046Y-93105449D01*
X163141036Y-93105417D01*
X163140980Y-93105348D01*
X163140980Y-93105349D01*
X163140977Y-93105345D01*
X163140975Y-93105342D01*
X163140973Y-93105340D01*
X163140970Y-93105336D01*
X162994662Y-92959028D01*
X162994655Y-92959022D01*
X162856020Y-92866390D01*
X162856020Y-92866391D01*
X162822598Y-92844059D01*
X162822595Y-92844057D01*
X162822594Y-92844057D01*
X162717435Y-92800499D01*
X162690893Y-92789505D01*
X162631420Y-92764870D01*
X162631412Y-92764868D01*
X162631404Y-92764866D01*
X162631394Y-92764864D01*
X162428471Y-92724500D01*
X162428469Y-92724500D01*
X162428465Y-92724500D01*
X162221535Y-92724500D01*
X162221530Y-92724500D01*
X162221528Y-92724500D01*
X162018604Y-92764864D01*
X162018579Y-92764870D01*
X161827404Y-92844057D01*
X161655337Y-92959027D01*
X161509028Y-93105336D01*
X161509022Y-93105343D01*
X161394063Y-93277393D01*
X161394055Y-93277407D01*
X161371384Y-93332142D01*
X161353375Y-93362494D01*
X161346278Y-93371301D01*
X161288886Y-93411150D01*
X161219061Y-93413644D01*
X161158972Y-93377993D01*
X161158965Y-93377985D01*
X161153738Y-93372370D01*
X161129938Y-93335334D01*
X161105943Y-93277407D01*
X161105942Y-93277404D01*
X161105940Y-93277401D01*
X161105938Y-93277397D01*
X161039123Y-93177402D01*
X161039122Y-93177400D01*
X160990977Y-93105344D01*
X160990970Y-93105336D01*
X160844662Y-92959028D01*
X160844655Y-92959022D01*
X160706020Y-92866390D01*
X160706020Y-92866391D01*
X160672598Y-92844059D01*
X160672595Y-92844057D01*
X160672594Y-92844057D01*
X160567435Y-92800499D01*
X160540893Y-92789505D01*
X160481420Y-92764870D01*
X160481412Y-92764868D01*
X160481404Y-92764866D01*
X160481394Y-92764864D01*
X160278471Y-92724500D01*
X160278469Y-92724500D01*
X160278465Y-92724500D01*
X160071535Y-92724500D01*
X160071530Y-92724500D01*
X160071528Y-92724500D01*
X159868604Y-92764864D01*
X159868579Y-92764870D01*
X159677404Y-92844057D01*
X159505337Y-92959027D01*
X159359027Y-93105337D01*
X159244057Y-93277404D01*
X159164870Y-93468579D01*
X159164864Y-93468604D01*
X159124500Y-93671527D01*
X159124500Y-93671530D01*
X159124500Y-93878469D01*
X159124500Y-93878471D01*
X159124499Y-93878471D01*
X159164318Y-94078649D01*
X159164868Y-94081412D01*
X159164870Y-94081420D01*
X159244058Y-94272596D01*
X159359024Y-94444657D01*
X159388606Y-94474239D01*
X159409759Y-94502498D01*
X159416285Y-94514451D01*
X159431134Y-94582725D01*
X159406713Y-94648188D01*
X159357943Y-94687126D01*
X159350400Y-94690489D01*
X159324099Y-94698852D01*
X159243594Y-94714865D01*
X159243589Y-94714866D01*
X159243569Y-94714873D01*
X159051111Y-94794593D01*
X159040704Y-94798369D01*
X159020548Y-94804679D01*
X158950690Y-94805922D01*
X158891249Y-94769199D01*
X158862587Y-94713830D01*
X158861971Y-94711119D01*
X158860761Y-94705795D01*
X158857677Y-94678412D01*
X158855959Y-92334108D01*
X164499500Y-92334108D01*
X164499500Y-92465891D01*
X164516554Y-92529539D01*
X164533608Y-92593188D01*
X164551687Y-92624500D01*
X164599500Y-92707314D01*
X164692686Y-92800500D01*
X164789757Y-92856544D01*
X164806810Y-92866390D01*
X164806814Y-92866392D01*
X164934108Y-92900500D01*
X164934110Y-92900500D01*
X165065890Y-92900500D01*
X165065892Y-92900500D01*
X165193186Y-92866392D01*
X165307314Y-92800500D01*
X165400500Y-92707314D01*
X165466392Y-92593186D01*
X165500500Y-92465892D01*
X165500500Y-92434108D01*
X168999500Y-92434108D01*
X168999500Y-92565891D01*
X169006814Y-92593187D01*
X169033608Y-92693188D01*
X169041763Y-92707310D01*
X169041766Y-92707316D01*
X169099500Y-92807314D01*
X169192686Y-92900500D01*
X169306814Y-92966392D01*
X169434108Y-93000500D01*
X169434110Y-93000500D01*
X169565890Y-93000500D01*
X169565892Y-93000500D01*
X169693186Y-92966392D01*
X169807314Y-92900500D01*
X169900500Y-92807314D01*
X169966392Y-92693186D01*
X170000500Y-92565892D01*
X170000500Y-92434108D01*
X169973705Y-92334108D01*
X174749500Y-92334108D01*
X174749500Y-92465891D01*
X174766554Y-92529539D01*
X174783608Y-92593188D01*
X174801687Y-92624500D01*
X174849500Y-92707314D01*
X174942686Y-92800500D01*
X175039757Y-92856544D01*
X175056810Y-92866390D01*
X175056814Y-92866392D01*
X175184108Y-92900500D01*
X175184110Y-92900500D01*
X175315890Y-92900500D01*
X175315892Y-92900500D01*
X175443186Y-92866392D01*
X175557314Y-92800500D01*
X175650500Y-92707314D01*
X175716392Y-92593186D01*
X175750500Y-92465892D01*
X175750500Y-92334108D01*
X175716392Y-92206814D01*
X175716387Y-92206806D01*
X175701053Y-92180247D01*
X175650500Y-92092686D01*
X175557314Y-91999500D01*
X175500250Y-91966554D01*
X175443187Y-91933608D01*
X175379539Y-91916554D01*
X175315892Y-91899500D01*
X175315891Y-91899500D01*
X175184108Y-91899500D01*
X175056808Y-91933609D01*
X175056806Y-91933610D01*
X174942696Y-91999493D01*
X174942682Y-91999502D01*
X174942677Y-91999506D01*
X174849506Y-92092677D01*
X174849502Y-92092682D01*
X174849493Y-92092696D01*
X174783610Y-92206806D01*
X174783609Y-92206808D01*
X174783608Y-92206812D01*
X174749500Y-92334108D01*
X169973705Y-92334108D01*
X169966392Y-92306814D01*
X169900500Y-92192686D01*
X169807314Y-92099500D01*
X169788719Y-92088764D01*
X169739930Y-92060595D01*
X169739926Y-92060593D01*
X169731012Y-92055447D01*
X169693187Y-92033608D01*
X169609307Y-92011133D01*
X169603551Y-92009590D01*
X169603544Y-92009588D01*
X169565893Y-91999500D01*
X169565892Y-91999500D01*
X169434108Y-91999500D01*
X169306808Y-92033609D01*
X169306806Y-92033610D01*
X169192696Y-92099493D01*
X169192682Y-92099502D01*
X169192677Y-92099506D01*
X169099506Y-92192677D01*
X169099502Y-92192682D01*
X169099493Y-92192696D01*
X169033610Y-92306806D01*
X169033609Y-92306808D01*
X169033608Y-92306812D01*
X168999500Y-92434108D01*
X165500500Y-92434108D01*
X165500500Y-92334108D01*
X165466392Y-92206814D01*
X165466387Y-92206806D01*
X165451053Y-92180247D01*
X165400500Y-92092686D01*
X165307314Y-91999500D01*
X165250250Y-91966554D01*
X165193187Y-91933608D01*
X165129539Y-91916554D01*
X165065892Y-91899500D01*
X165065891Y-91899500D01*
X164934108Y-91899500D01*
X164806808Y-91933609D01*
X164806806Y-91933610D01*
X164692696Y-91999493D01*
X164692682Y-91999502D01*
X164692677Y-91999506D01*
X164599506Y-92092677D01*
X164599502Y-92092682D01*
X164599493Y-92092696D01*
X164533610Y-92206806D01*
X164533609Y-92206808D01*
X164533608Y-92206812D01*
X164499500Y-92334108D01*
X158855959Y-92334108D01*
X158854567Y-90434108D01*
X172099500Y-90434108D01*
X172099500Y-90565891D01*
X172116554Y-90629539D01*
X172133608Y-90693188D01*
X172166554Y-90750250D01*
X172199500Y-90807314D01*
X172292686Y-90900500D01*
X172406814Y-90966392D01*
X172534108Y-91000500D01*
X172534110Y-91000500D01*
X172665890Y-91000500D01*
X172665892Y-91000500D01*
X172793186Y-90966392D01*
X172907314Y-90900500D01*
X173000500Y-90807314D01*
X173066392Y-90693186D01*
X173100500Y-90565892D01*
X173100500Y-90434108D01*
X173066392Y-90306814D01*
X173066387Y-90306806D01*
X173057563Y-90291521D01*
X173000500Y-90192686D01*
X172907314Y-90099500D01*
X172831228Y-90055572D01*
X172793188Y-90033609D01*
X172793187Y-90033608D01*
X172793186Y-90033608D01*
X172665892Y-89999500D01*
X172665891Y-89999500D01*
X172534108Y-89999500D01*
X172406808Y-90033609D01*
X172406806Y-90033610D01*
X172292696Y-90099493D01*
X172292682Y-90099502D01*
X172292677Y-90099506D01*
X172199506Y-90192677D01*
X172199502Y-90192682D01*
X172199493Y-90192696D01*
X172133610Y-90306806D01*
X172133609Y-90306808D01*
X172133474Y-90307313D01*
X172099500Y-90434108D01*
X158854567Y-90434108D01*
X158854201Y-89934108D01*
X178799500Y-89934108D01*
X178799500Y-90065891D01*
X178808505Y-90099498D01*
X178833608Y-90193188D01*
X178866554Y-90250250D01*
X178899500Y-90307314D01*
X178992686Y-90400500D01*
X179106814Y-90466392D01*
X179234108Y-90500500D01*
X179234110Y-90500500D01*
X179365890Y-90500500D01*
X179365892Y-90500500D01*
X179493186Y-90466392D01*
X179607314Y-90400500D01*
X179700500Y-90307314D01*
X179766392Y-90193186D01*
X179800500Y-90065892D01*
X179800500Y-89934108D01*
X186399500Y-89934108D01*
X186399500Y-90065891D01*
X186408505Y-90099498D01*
X186433608Y-90193188D01*
X186466554Y-90250250D01*
X186499500Y-90307314D01*
X186592686Y-90400500D01*
X186706814Y-90466392D01*
X186834108Y-90500500D01*
X186834110Y-90500500D01*
X186965890Y-90500500D01*
X186965892Y-90500500D01*
X187093186Y-90466392D01*
X187207314Y-90400500D01*
X187300500Y-90307314D01*
X187366392Y-90193186D01*
X187400500Y-90065892D01*
X187400500Y-89934108D01*
X187366392Y-89806814D01*
X187366387Y-89806806D01*
X187357563Y-89791521D01*
X187300500Y-89692686D01*
X187207314Y-89599500D01*
X187150250Y-89566554D01*
X187093187Y-89533608D01*
X187029539Y-89516554D01*
X186965892Y-89499500D01*
X186965891Y-89499500D01*
X186834108Y-89499500D01*
X186706808Y-89533609D01*
X186706806Y-89533610D01*
X186592696Y-89599493D01*
X186592682Y-89599502D01*
X186592677Y-89599506D01*
X186499506Y-89692677D01*
X186499502Y-89692682D01*
X186499493Y-89692696D01*
X186433610Y-89806806D01*
X186433609Y-89806808D01*
X186433608Y-89806812D01*
X186399500Y-89934108D01*
X179800500Y-89934108D01*
X179766392Y-89806814D01*
X179766387Y-89806806D01*
X179757563Y-89791521D01*
X179700500Y-89692686D01*
X179607314Y-89599500D01*
X179550250Y-89566554D01*
X179493187Y-89533608D01*
X179429539Y-89516554D01*
X179365892Y-89499500D01*
X179365891Y-89499500D01*
X179234108Y-89499500D01*
X179106808Y-89533609D01*
X179106806Y-89533610D01*
X178992696Y-89599493D01*
X178992682Y-89599502D01*
X178992677Y-89599506D01*
X178899506Y-89692677D01*
X178899502Y-89692682D01*
X178899493Y-89692696D01*
X178833610Y-89806806D01*
X178833609Y-89806808D01*
X178833608Y-89806812D01*
X178799500Y-89934108D01*
X158854201Y-89934108D01*
X158853175Y-88534108D01*
X164499500Y-88534108D01*
X164499500Y-88665891D01*
X164516554Y-88729539D01*
X164533608Y-88793188D01*
X164566554Y-88850250D01*
X164599500Y-88907314D01*
X164692686Y-89000500D01*
X164806814Y-89066392D01*
X164934108Y-89100500D01*
X164934110Y-89100500D01*
X165065890Y-89100500D01*
X165065892Y-89100500D01*
X165193186Y-89066392D01*
X165307314Y-89000500D01*
X165400500Y-88907314D01*
X165466392Y-88793186D01*
X165500500Y-88665892D01*
X165500500Y-88534108D01*
X165466392Y-88406814D01*
X165466387Y-88406806D01*
X165457563Y-88391521D01*
X165400500Y-88292686D01*
X165307314Y-88199500D01*
X165250250Y-88166554D01*
X165193187Y-88133608D01*
X165129539Y-88116554D01*
X165065892Y-88099500D01*
X165065891Y-88099500D01*
X164934108Y-88099500D01*
X164806808Y-88133609D01*
X164806806Y-88133610D01*
X164692696Y-88199493D01*
X164692682Y-88199502D01*
X164692677Y-88199506D01*
X164599506Y-88292677D01*
X164599502Y-88292682D01*
X164599493Y-88292696D01*
X164533610Y-88406806D01*
X164533609Y-88406808D01*
X164533608Y-88406812D01*
X164499500Y-88534108D01*
X158853175Y-88534108D01*
X158852149Y-87134108D01*
X168949500Y-87134108D01*
X168949500Y-87265891D01*
X168983608Y-87393187D01*
X169012476Y-87443186D01*
X169049500Y-87507314D01*
X169142686Y-87600500D01*
X169256814Y-87666392D01*
X169384108Y-87700500D01*
X169384110Y-87700500D01*
X169515890Y-87700500D01*
X169515892Y-87700500D01*
X169643186Y-87666392D01*
X169757314Y-87600500D01*
X169850500Y-87507314D01*
X169916392Y-87393186D01*
X169950500Y-87265892D01*
X169950500Y-87184108D01*
X187265200Y-87184108D01*
X187265200Y-87315891D01*
X187265201Y-87315892D01*
X187299308Y-87443186D01*
X187299307Y-87443186D01*
X187299308Y-87443187D01*
X187332254Y-87500250D01*
X187365200Y-87557314D01*
X187458386Y-87650500D01*
X187572514Y-87716392D01*
X187699808Y-87750500D01*
X187699810Y-87750500D01*
X187831590Y-87750500D01*
X187831592Y-87750500D01*
X187958886Y-87716392D01*
X188073014Y-87650500D01*
X188166200Y-87557314D01*
X188232092Y-87443186D01*
X188266200Y-87315892D01*
X188266200Y-87184108D01*
X188232092Y-87056814D01*
X188232087Y-87056806D01*
X188203221Y-87006808D01*
X188166200Y-86942686D01*
X188073014Y-86849500D01*
X188015950Y-86816554D01*
X187958887Y-86783608D01*
X187895239Y-86766554D01*
X187831592Y-86749500D01*
X187831591Y-86749500D01*
X187699808Y-86749500D01*
X187572508Y-86783609D01*
X187572506Y-86783610D01*
X187458396Y-86849493D01*
X187458382Y-86849502D01*
X187458377Y-86849506D01*
X187365206Y-86942677D01*
X187365202Y-86942682D01*
X187365193Y-86942696D01*
X187299310Y-87056806D01*
X187299309Y-87056808D01*
X187299308Y-87056812D01*
X187265200Y-87184108D01*
X169950500Y-87184108D01*
X169950500Y-87134108D01*
X169916392Y-87006814D01*
X169916387Y-87006806D01*
X169879373Y-86942696D01*
X169850500Y-86892686D01*
X169757314Y-86799500D01*
X169670712Y-86749500D01*
X169670712Y-86749499D01*
X169670710Y-86749499D01*
X169643187Y-86733608D01*
X169579539Y-86716554D01*
X169515892Y-86699500D01*
X169515891Y-86699500D01*
X169384108Y-86699500D01*
X169256808Y-86733609D01*
X169256806Y-86733610D01*
X169142696Y-86799493D01*
X169142682Y-86799502D01*
X169142677Y-86799506D01*
X169049506Y-86892677D01*
X169049502Y-86892682D01*
X169049493Y-86892696D01*
X168983610Y-87006806D01*
X168983609Y-87006808D01*
X168983608Y-87006812D01*
X168949500Y-87134108D01*
X158852149Y-87134108D01*
X158850684Y-85134108D01*
X160799500Y-85134108D01*
X160799500Y-85265891D01*
X160808773Y-85300499D01*
X160833609Y-85393190D01*
X160857233Y-85434108D01*
X160857234Y-85434108D01*
X160899500Y-85507314D01*
X160992686Y-85600500D01*
X161106814Y-85666392D01*
X161234108Y-85700500D01*
X161234110Y-85700500D01*
X161365890Y-85700500D01*
X161365892Y-85700500D01*
X161493186Y-85666392D01*
X161607314Y-85600500D01*
X161700500Y-85507314D01*
X161766392Y-85393186D01*
X161800500Y-85265892D01*
X161800500Y-85134108D01*
X161766392Y-85006814D01*
X161766387Y-85006806D01*
X161721777Y-84929539D01*
X161700500Y-84892686D01*
X161607314Y-84799500D01*
X161550250Y-84766554D01*
X161494050Y-84734106D01*
X167149500Y-84734106D01*
X167149500Y-84734108D01*
X167149500Y-84865892D01*
X167156682Y-84892696D01*
X167166554Y-84929539D01*
X167183609Y-84993189D01*
X167187253Y-84999501D01*
X167187254Y-84999501D01*
X167249500Y-85107314D01*
X167342686Y-85200500D01*
X167441521Y-85257563D01*
X167455944Y-85265890D01*
X167456814Y-85266392D01*
X167584108Y-85300500D01*
X167584110Y-85300500D01*
X167715890Y-85300500D01*
X167715892Y-85300500D01*
X167843186Y-85266392D01*
X167957314Y-85200500D01*
X168050500Y-85107314D01*
X168116392Y-84993186D01*
X168150500Y-84865892D01*
X168150500Y-84734108D01*
X168150499Y-84734106D01*
X174749500Y-84734106D01*
X174749500Y-84734108D01*
X174749500Y-84865892D01*
X174756682Y-84892696D01*
X174766554Y-84929539D01*
X174783609Y-84993189D01*
X174787253Y-84999501D01*
X174787254Y-84999501D01*
X174849500Y-85107314D01*
X174942686Y-85200500D01*
X175041521Y-85257563D01*
X175055944Y-85265890D01*
X175056814Y-85266392D01*
X175184108Y-85300500D01*
X175184110Y-85300500D01*
X175315890Y-85300500D01*
X175315892Y-85300500D01*
X175443186Y-85266392D01*
X175557314Y-85200500D01*
X175650500Y-85107314D01*
X175716392Y-84993186D01*
X175750500Y-84865892D01*
X175750500Y-84734108D01*
X175716392Y-84606814D01*
X175716387Y-84606806D01*
X175707563Y-84591521D01*
X175650500Y-84492686D01*
X175557314Y-84399500D01*
X175500250Y-84366554D01*
X175443187Y-84333608D01*
X175379539Y-84316554D01*
X175315892Y-84299500D01*
X175315891Y-84299500D01*
X175184108Y-84299500D01*
X175056808Y-84333609D01*
X175056806Y-84333610D01*
X174942696Y-84399493D01*
X174942682Y-84399502D01*
X174942677Y-84399506D01*
X174849506Y-84492677D01*
X174849502Y-84492682D01*
X174849493Y-84492696D01*
X174783610Y-84606806D01*
X174783609Y-84606809D01*
X174783608Y-84606811D01*
X174783608Y-84606812D01*
X174767644Y-84666391D01*
X174767644Y-84666392D01*
X174749500Y-84734106D01*
X168150499Y-84734106D01*
X168116392Y-84606814D01*
X168116387Y-84606806D01*
X168107563Y-84591521D01*
X168050500Y-84492686D01*
X167957314Y-84399500D01*
X167900250Y-84366554D01*
X167843187Y-84333608D01*
X167779539Y-84316554D01*
X167715892Y-84299500D01*
X167715891Y-84299500D01*
X167584108Y-84299500D01*
X167456808Y-84333609D01*
X167456806Y-84333610D01*
X167342696Y-84399493D01*
X167342682Y-84399502D01*
X167342677Y-84399506D01*
X167249506Y-84492677D01*
X167249502Y-84492682D01*
X167249493Y-84492696D01*
X167183610Y-84606806D01*
X167183609Y-84606809D01*
X167183608Y-84606811D01*
X167183608Y-84606812D01*
X167167644Y-84666391D01*
X167167644Y-84666392D01*
X167149500Y-84734106D01*
X161494050Y-84734106D01*
X161493187Y-84733608D01*
X161429539Y-84716554D01*
X161365892Y-84699500D01*
X161365891Y-84699500D01*
X161234108Y-84699500D01*
X161106808Y-84733609D01*
X161106806Y-84733610D01*
X160992696Y-84799493D01*
X160992682Y-84799502D01*
X160992677Y-84799506D01*
X160899506Y-84892677D01*
X160899502Y-84892682D01*
X160899493Y-84892696D01*
X160833610Y-85006806D01*
X160833609Y-85006808D01*
X160833608Y-85006812D01*
X160799500Y-85134108D01*
X158850684Y-85134108D01*
X158850000Y-84200000D01*
X158850000Y-83274108D01*
X163589500Y-83274108D01*
X163589500Y-83405892D01*
X163590651Y-83410187D01*
X163590651Y-83410188D01*
X163606554Y-83469539D01*
X163623608Y-83533188D01*
X163651682Y-83581812D01*
X163689497Y-83647310D01*
X163689499Y-83647312D01*
X163689500Y-83647314D01*
X163782686Y-83740500D01*
X163896814Y-83806392D01*
X164024108Y-83840500D01*
X164024110Y-83840500D01*
X164155890Y-83840500D01*
X164155892Y-83840500D01*
X164283186Y-83806392D01*
X164397314Y-83740500D01*
X164428706Y-83709108D01*
X177774500Y-83709108D01*
X177774500Y-83840891D01*
X177788376Y-83892677D01*
X177808608Y-83968187D01*
X177830909Y-84006812D01*
X177830910Y-84006814D01*
X177874497Y-84082310D01*
X177874498Y-84082311D01*
X177874500Y-84082314D01*
X177967686Y-84175500D01*
X178081814Y-84241392D01*
X178209108Y-84275500D01*
X178209110Y-84275500D01*
X178340890Y-84275500D01*
X178340892Y-84275500D01*
X178468186Y-84241392D01*
X178582314Y-84175500D01*
X178623706Y-84134108D01*
X186799500Y-84134108D01*
X186799500Y-84265893D01*
X186808504Y-84299499D01*
X186808505Y-84299499D01*
X186808505Y-84299500D01*
X186833608Y-84393187D01*
X186866554Y-84450250D01*
X186899500Y-84507314D01*
X186992686Y-84600500D01*
X187106814Y-84666392D01*
X187234108Y-84700500D01*
X187234110Y-84700500D01*
X187365890Y-84700500D01*
X187365892Y-84700500D01*
X187493186Y-84666392D01*
X187607314Y-84600500D01*
X187700500Y-84507314D01*
X187766392Y-84393186D01*
X187800500Y-84265892D01*
X187800500Y-84134108D01*
X187766392Y-84006814D01*
X187700500Y-83892686D01*
X187607314Y-83799500D01*
X187550250Y-83766554D01*
X187493187Y-83733608D01*
X187401757Y-83709110D01*
X187395084Y-83707322D01*
X187395079Y-83707320D01*
X187365893Y-83699500D01*
X187365892Y-83699500D01*
X187234108Y-83699500D01*
X187106808Y-83733609D01*
X187106806Y-83733610D01*
X186992696Y-83799493D01*
X186992682Y-83799502D01*
X186992677Y-83799506D01*
X186899506Y-83892677D01*
X186899502Y-83892682D01*
X186899493Y-83892696D01*
X186833607Y-84006810D01*
X186813380Y-84082306D01*
X186813380Y-84082307D01*
X186799500Y-84134108D01*
X178623706Y-84134108D01*
X178675500Y-84082314D01*
X178675502Y-84082311D01*
X178675961Y-84081515D01*
X178676004Y-84081440D01*
X178677851Y-84078240D01*
X178686086Y-84063980D01*
X178739412Y-83971614D01*
X178740989Y-83969075D01*
X178741391Y-83968187D01*
X178741392Y-83968186D01*
X178775500Y-83840892D01*
X178775500Y-83709108D01*
X178741392Y-83581814D01*
X178741387Y-83581806D01*
X178732563Y-83566521D01*
X178675500Y-83467686D01*
X178582314Y-83374500D01*
X178525250Y-83341554D01*
X178468187Y-83308608D01*
X178404539Y-83291554D01*
X178340892Y-83274500D01*
X178340891Y-83274500D01*
X178209108Y-83274500D01*
X178081808Y-83308609D01*
X178081806Y-83308610D01*
X177967696Y-83374493D01*
X177967682Y-83374502D01*
X177967677Y-83374506D01*
X177874506Y-83467677D01*
X177874502Y-83467682D01*
X177874493Y-83467696D01*
X177808610Y-83581806D01*
X177808609Y-83581808D01*
X177808608Y-83581812D01*
X177774500Y-83709108D01*
X164428706Y-83709108D01*
X164490500Y-83647314D01*
X164556392Y-83533186D01*
X164590500Y-83405892D01*
X164590500Y-83274108D01*
X164556392Y-83146814D01*
X164490500Y-83032686D01*
X164397314Y-82939500D01*
X164340250Y-82906554D01*
X164283187Y-82873608D01*
X164219539Y-82856554D01*
X164155892Y-82839500D01*
X164155891Y-82839500D01*
X164024108Y-82839500D01*
X163896808Y-82873609D01*
X163896806Y-82873610D01*
X163782696Y-82939493D01*
X163782682Y-82939502D01*
X163782677Y-82939506D01*
X163689506Y-83032677D01*
X163689502Y-83032682D01*
X163689493Y-83032696D01*
X163623609Y-83146808D01*
X163616426Y-83173615D01*
X163616425Y-83173619D01*
X163613962Y-83182814D01*
X163589500Y-83274108D01*
X158850000Y-83274108D01*
X158850000Y-82084108D01*
X165699500Y-82084108D01*
X165699500Y-82215891D01*
X165716554Y-82279539D01*
X165733608Y-82343188D01*
X165766554Y-82400250D01*
X165799500Y-82457314D01*
X165892686Y-82550500D01*
X166006814Y-82616392D01*
X166134108Y-82650500D01*
X166134110Y-82650500D01*
X166265890Y-82650500D01*
X166265892Y-82650500D01*
X166393186Y-82616392D01*
X166507314Y-82550500D01*
X166600500Y-82457314D01*
X166666392Y-82343186D01*
X166700500Y-82215892D01*
X166700500Y-82084108D01*
X166666392Y-81956814D01*
X166666387Y-81956806D01*
X166657563Y-81941521D01*
X166600500Y-81842686D01*
X166507314Y-81749500D01*
X166450250Y-81716554D01*
X166393187Y-81683608D01*
X166329539Y-81666554D01*
X166265892Y-81649500D01*
X166265891Y-81649500D01*
X166134108Y-81649500D01*
X166006808Y-81683609D01*
X166006806Y-81683610D01*
X165892696Y-81749493D01*
X165892682Y-81749502D01*
X165892677Y-81749506D01*
X165799506Y-81842677D01*
X165799502Y-81842682D01*
X165799493Y-81842696D01*
X165733610Y-81956806D01*
X165733609Y-81956808D01*
X165733608Y-81956812D01*
X165699500Y-82084108D01*
X158850000Y-82084108D01*
X158850000Y-80934108D01*
X171749500Y-80934108D01*
X171749500Y-81065891D01*
X171766554Y-81129539D01*
X171783608Y-81193188D01*
X171816554Y-81250250D01*
X171849500Y-81307314D01*
X171942686Y-81400500D01*
X172056814Y-81466392D01*
X172184108Y-81500500D01*
X172184110Y-81500500D01*
X172315890Y-81500500D01*
X172315892Y-81500500D01*
X172443186Y-81466392D01*
X172557314Y-81400500D01*
X172650500Y-81307314D01*
X172716392Y-81193186D01*
X172750500Y-81065892D01*
X172750500Y-80934108D01*
X186149500Y-80934108D01*
X186149500Y-81065891D01*
X186166554Y-81129539D01*
X186183608Y-81193188D01*
X186216554Y-81250250D01*
X186249500Y-81307314D01*
X186342686Y-81400500D01*
X186456814Y-81466392D01*
X186584108Y-81500500D01*
X186584110Y-81500500D01*
X186715890Y-81500500D01*
X186715892Y-81500500D01*
X186843186Y-81466392D01*
X186957314Y-81400500D01*
X187050500Y-81307314D01*
X187116392Y-81193186D01*
X187150500Y-81065892D01*
X187150500Y-80934108D01*
X187116392Y-80806814D01*
X187116387Y-80806806D01*
X187092888Y-80766104D01*
X187050500Y-80692686D01*
X186957314Y-80599500D01*
X186886797Y-80558787D01*
X186886797Y-80558786D01*
X186886795Y-80558786D01*
X186843187Y-80533608D01*
X186779539Y-80516554D01*
X186715892Y-80499500D01*
X186715891Y-80499500D01*
X186584108Y-80499500D01*
X186456808Y-80533609D01*
X186456806Y-80533610D01*
X186342696Y-80599493D01*
X186342682Y-80599502D01*
X186342677Y-80599506D01*
X186249506Y-80692677D01*
X186249502Y-80692682D01*
X186249493Y-80692696D01*
X186183610Y-80806806D01*
X186183609Y-80806808D01*
X186176862Y-80831990D01*
X186149500Y-80934108D01*
X172750500Y-80934108D01*
X172716392Y-80806814D01*
X172716387Y-80806806D01*
X172692888Y-80766104D01*
X172650500Y-80692686D01*
X172557314Y-80599500D01*
X172486797Y-80558787D01*
X172486797Y-80558786D01*
X172486795Y-80558786D01*
X172443187Y-80533608D01*
X172379539Y-80516554D01*
X172315892Y-80499500D01*
X172315891Y-80499500D01*
X172184108Y-80499500D01*
X172056808Y-80533609D01*
X172056806Y-80533610D01*
X171942696Y-80599493D01*
X171942682Y-80599502D01*
X171942677Y-80599506D01*
X171849506Y-80692677D01*
X171849502Y-80692682D01*
X171849493Y-80692696D01*
X171783610Y-80806806D01*
X171783609Y-80806808D01*
X171776862Y-80831990D01*
X171749500Y-80934108D01*
X158850000Y-80934108D01*
X158850000Y-80299708D01*
X167983100Y-80299708D01*
X167983100Y-80431491D01*
X168010462Y-80533608D01*
X168017208Y-80558786D01*
X168017207Y-80558786D01*
X168040714Y-80599500D01*
X168083097Y-80672910D01*
X168083099Y-80672912D01*
X168083100Y-80672914D01*
X168176286Y-80766100D01*
X168176288Y-80766101D01*
X168176292Y-80766104D01*
X168246802Y-80806813D01*
X168246805Y-80806814D01*
X168290410Y-80831990D01*
X168290414Y-80831992D01*
X168417708Y-80866100D01*
X168417710Y-80866100D01*
X168549490Y-80866100D01*
X168549492Y-80866100D01*
X168676786Y-80831992D01*
X168790914Y-80766100D01*
X168884100Y-80672914D01*
X168949992Y-80558786D01*
X168984100Y-80431492D01*
X168984100Y-80299708D01*
X168949992Y-80172414D01*
X168949987Y-80172406D01*
X168941163Y-80157121D01*
X168884100Y-80058286D01*
X168790914Y-79965100D01*
X168733850Y-79932154D01*
X168676787Y-79899208D01*
X168613139Y-79882154D01*
X168549492Y-79865100D01*
X168549491Y-79865100D01*
X168417708Y-79865100D01*
X168290408Y-79899209D01*
X168290406Y-79899210D01*
X168176296Y-79965093D01*
X168176282Y-79965102D01*
X168176277Y-79965106D01*
X168083106Y-80058277D01*
X168083102Y-80058282D01*
X168083093Y-80058296D01*
X168017210Y-80172406D01*
X168017209Y-80172408D01*
X168017208Y-80172412D01*
X167983100Y-80299708D01*
X158850000Y-80299708D01*
X158850000Y-77880597D01*
X158855022Y-77845664D01*
X158858933Y-77832345D01*
X158896706Y-77773568D01*
X158960258Y-77744543D01*
X158968681Y-77743332D01*
X159018418Y-77746295D01*
X159034108Y-77750500D01*
X159034110Y-77750500D01*
X159165890Y-77750500D01*
X159165892Y-77750500D01*
X159293186Y-77716392D01*
X159407314Y-77650500D01*
X159500500Y-77557314D01*
X159566392Y-77443186D01*
X159600500Y-77315892D01*
X159600500Y-77184108D01*
X159587103Y-77134108D01*
X161099500Y-77134108D01*
X161099500Y-77265891D01*
X161133608Y-77393187D01*
X161162476Y-77443186D01*
X161199500Y-77507314D01*
X161292686Y-77600500D01*
X161406814Y-77666392D01*
X161534108Y-77700500D01*
X161534110Y-77700500D01*
X161665890Y-77700500D01*
X161665892Y-77700500D01*
X161793186Y-77666392D01*
X161907314Y-77600500D01*
X162000500Y-77507314D01*
X162066392Y-77393186D01*
X162100500Y-77265892D01*
X162100500Y-77134108D01*
X163599500Y-77134108D01*
X163599500Y-77265891D01*
X163633608Y-77393187D01*
X163662476Y-77443186D01*
X163699500Y-77507314D01*
X163792686Y-77600500D01*
X163906814Y-77666392D01*
X164034108Y-77700500D01*
X164034110Y-77700500D01*
X164165890Y-77700500D01*
X164165892Y-77700500D01*
X164293186Y-77666392D01*
X164407314Y-77600500D01*
X164500500Y-77507314D01*
X164542766Y-77434108D01*
X165849500Y-77434108D01*
X165849500Y-77565891D01*
X165858773Y-77600499D01*
X165883608Y-77693188D01*
X165887830Y-77700500D01*
X165897005Y-77716391D01*
X165949500Y-77807314D01*
X166042686Y-77900500D01*
X166156814Y-77966392D01*
X166284108Y-78000500D01*
X166284110Y-78000500D01*
X166415890Y-78000500D01*
X166415892Y-78000500D01*
X166543186Y-77966392D01*
X166657314Y-77900500D01*
X166750500Y-77807314D01*
X166816392Y-77693186D01*
X166850500Y-77565892D01*
X166850500Y-77434108D01*
X166816392Y-77306814D01*
X166792764Y-77265890D01*
X166792764Y-77265889D01*
X166792763Y-77265888D01*
X166752357Y-77195902D01*
X166750869Y-77193137D01*
X166750631Y-77192817D01*
X166691922Y-77134108D01*
X170949500Y-77134108D01*
X170949500Y-77265891D01*
X170983608Y-77393187D01*
X171012476Y-77443186D01*
X171049500Y-77507314D01*
X171142686Y-77600500D01*
X171256814Y-77666392D01*
X171384108Y-77700500D01*
X171384110Y-77700500D01*
X171515890Y-77700500D01*
X171515892Y-77700500D01*
X171643186Y-77666392D01*
X171757314Y-77600500D01*
X171850500Y-77507314D01*
X171916392Y-77393186D01*
X171950500Y-77265892D01*
X171950500Y-77134108D01*
X178549500Y-77134108D01*
X178549500Y-77265891D01*
X178583608Y-77393187D01*
X178612476Y-77443186D01*
X178649500Y-77507314D01*
X178742686Y-77600500D01*
X178856814Y-77666392D01*
X178984108Y-77700500D01*
X178984110Y-77700500D01*
X179115890Y-77700500D01*
X179115892Y-77700500D01*
X179243186Y-77666392D01*
X179357314Y-77600500D01*
X179450500Y-77507314D01*
X179516392Y-77393186D01*
X179550500Y-77265892D01*
X179550500Y-77134108D01*
X186149500Y-77134108D01*
X186149500Y-77265891D01*
X186183608Y-77393187D01*
X186212476Y-77443186D01*
X186249500Y-77507314D01*
X186342686Y-77600500D01*
X186456814Y-77666392D01*
X186584108Y-77700500D01*
X186584110Y-77700500D01*
X186715890Y-77700500D01*
X186715892Y-77700500D01*
X186843186Y-77666392D01*
X186957314Y-77600500D01*
X187050500Y-77507314D01*
X187116392Y-77393186D01*
X187150500Y-77265892D01*
X187150500Y-77134108D01*
X187116392Y-77006814D01*
X187116387Y-77006806D01*
X187085368Y-76953079D01*
X187050500Y-76892686D01*
X186957314Y-76799500D01*
X186883714Y-76757007D01*
X186883714Y-76757006D01*
X186883712Y-76757006D01*
X186843187Y-76733608D01*
X186778136Y-76716178D01*
X186778135Y-76716177D01*
X186732569Y-76703968D01*
X186715892Y-76699500D01*
X186715891Y-76699500D01*
X186584108Y-76699500D01*
X186456808Y-76733609D01*
X186456806Y-76733610D01*
X186342696Y-76799493D01*
X186342682Y-76799502D01*
X186342677Y-76799506D01*
X186249506Y-76892677D01*
X186249502Y-76892682D01*
X186249493Y-76892696D01*
X186183610Y-77006806D01*
X186183609Y-77006808D01*
X186183608Y-77006812D01*
X186149500Y-77134108D01*
X179550500Y-77134108D01*
X179516392Y-77006814D01*
X179516387Y-77006806D01*
X179485368Y-76953079D01*
X179450500Y-76892686D01*
X179357314Y-76799500D01*
X179283714Y-76757007D01*
X179283714Y-76757006D01*
X179283712Y-76757006D01*
X179243187Y-76733608D01*
X179178136Y-76716178D01*
X179178135Y-76716177D01*
X179132569Y-76703968D01*
X179115892Y-76699500D01*
X179115891Y-76699500D01*
X178984108Y-76699500D01*
X178856808Y-76733609D01*
X178856806Y-76733610D01*
X178742696Y-76799493D01*
X178742682Y-76799502D01*
X178742677Y-76799506D01*
X178649506Y-76892677D01*
X178649502Y-76892682D01*
X178649493Y-76892696D01*
X178583610Y-77006806D01*
X178583609Y-77006808D01*
X178583608Y-77006812D01*
X178549500Y-77134108D01*
X171950500Y-77134108D01*
X171916392Y-77006814D01*
X171916387Y-77006806D01*
X171885368Y-76953079D01*
X171850500Y-76892686D01*
X171757314Y-76799500D01*
X171683714Y-76757007D01*
X171683714Y-76757006D01*
X171683712Y-76757006D01*
X171643187Y-76733608D01*
X171578136Y-76716178D01*
X171578135Y-76716177D01*
X171532569Y-76703968D01*
X171515892Y-76699500D01*
X171515891Y-76699500D01*
X171384108Y-76699500D01*
X171256808Y-76733609D01*
X171256806Y-76733610D01*
X171142696Y-76799493D01*
X171142682Y-76799502D01*
X171142677Y-76799506D01*
X171049506Y-76892677D01*
X171049502Y-76892682D01*
X171049493Y-76892696D01*
X170983610Y-77006806D01*
X170983609Y-77006808D01*
X170983608Y-77006812D01*
X170949500Y-77134108D01*
X166691922Y-77134108D01*
X166657316Y-77099502D01*
X166657314Y-77099500D01*
X166635213Y-77086740D01*
X166592644Y-77062162D01*
X166592641Y-77062160D01*
X166583380Y-77056814D01*
X166543187Y-77033608D01*
X166443188Y-77006814D01*
X166437812Y-77005373D01*
X166437800Y-77005369D01*
X166415893Y-76999500D01*
X166415892Y-76999500D01*
X166284108Y-76999500D01*
X166156808Y-77033609D01*
X166156806Y-77033610D01*
X166042696Y-77099493D01*
X166042682Y-77099502D01*
X166042677Y-77099506D01*
X165949506Y-77192677D01*
X165949502Y-77192682D01*
X165949493Y-77192696D01*
X165883610Y-77306806D01*
X165883609Y-77306808D01*
X165883608Y-77306812D01*
X165849500Y-77434108D01*
X164542766Y-77434108D01*
X164566392Y-77393186D01*
X164600500Y-77265892D01*
X164600500Y-77134108D01*
X164566392Y-77006814D01*
X164566387Y-77006806D01*
X164535368Y-76953079D01*
X164500500Y-76892686D01*
X164407314Y-76799500D01*
X164333714Y-76757007D01*
X164333714Y-76757006D01*
X164333712Y-76757006D01*
X164293187Y-76733608D01*
X164228136Y-76716178D01*
X164228135Y-76716177D01*
X164182569Y-76703968D01*
X164165892Y-76699500D01*
X164165891Y-76699500D01*
X164034108Y-76699500D01*
X163906808Y-76733609D01*
X163906806Y-76733610D01*
X163792696Y-76799493D01*
X163792682Y-76799502D01*
X163792677Y-76799506D01*
X163699506Y-76892677D01*
X163699502Y-76892682D01*
X163699493Y-76892696D01*
X163633610Y-77006806D01*
X163633609Y-77006808D01*
X163633608Y-77006812D01*
X163599500Y-77134108D01*
X162100500Y-77134108D01*
X162066392Y-77006814D01*
X162066387Y-77006806D01*
X162035368Y-76953079D01*
X162000500Y-76892686D01*
X161907314Y-76799500D01*
X161833714Y-76757007D01*
X161833714Y-76757006D01*
X161833712Y-76757006D01*
X161793187Y-76733608D01*
X161728136Y-76716178D01*
X161728135Y-76716177D01*
X161682569Y-76703968D01*
X161665892Y-76699500D01*
X161665891Y-76699500D01*
X161534108Y-76699500D01*
X161406808Y-76733609D01*
X161406806Y-76733610D01*
X161292696Y-76799493D01*
X161292682Y-76799502D01*
X161292677Y-76799506D01*
X161199506Y-76892677D01*
X161199502Y-76892682D01*
X161199493Y-76892696D01*
X161133610Y-77006806D01*
X161133609Y-77006808D01*
X161133608Y-77006812D01*
X161099500Y-77134108D01*
X159587103Y-77134108D01*
X159566392Y-77056814D01*
X159500500Y-76942686D01*
X159407314Y-76849500D01*
X159350250Y-76816554D01*
X159293187Y-76783608D01*
X159229539Y-76766554D01*
X159165892Y-76749500D01*
X159165891Y-76749500D01*
X159034102Y-76749500D01*
X159023312Y-76752392D01*
X158988262Y-76756582D01*
X158974389Y-76756251D01*
X158907838Y-76734973D01*
X158863356Y-76681093D01*
X158860009Y-76673276D01*
X158850000Y-76624469D01*
X158850000Y-75642329D01*
X158855023Y-75607393D01*
X158859427Y-75592395D01*
X158897172Y-75533644D01*
X158898541Y-75532457D01*
X158953420Y-75504977D01*
X158960979Y-75503333D01*
X158987332Y-75500500D01*
X187346940Y-75500500D01*
X187351315Y-75500577D01*
G37*
%TD.AperFunction*%
%TD*%
M02*
