%TF.GenerationSoftware,KiCad,Pcbnew,10.0.0*%
%TF.CreationDate,2026-09-03T16:49:27-04:00*%
%TF.ProjectId,06-main-peripheral,30362d6d-6169-46e2-9d70-657269706865,rev?*%
%TF.SameCoordinates,Original*%
%TF.FileFunction,Legend,Bot*%
%TF.FilePolarity,Positive*%
%FSLAX46Y46*%
G04 Gerber Fmt 4.6, Leading zero omitted, Abs format (unit mm)*
G04 Created by KiCad (PCBNEW 10.0.0) date 2026-09-03 16:49:27*
%MOMM*%
%LPD*%
G01*
G04 APERTURE LIST*
%ADD10C,0.150000*%
%ADD11C,0.254000*%
%ADD12C,0.200000*%
%ADD13C,0.127000*%
%ADD14C,0.120000*%
G04 APERTURE END LIST*
D10*
X164325266Y-76959580D02*
X164372885Y-77007200D01*
X164372885Y-77007200D02*
X164515742Y-77054819D01*
X164515742Y-77054819D02*
X164610980Y-77054819D01*
X164610980Y-77054819D02*
X164753837Y-77007200D01*
X164753837Y-77007200D02*
X164849075Y-76911961D01*
X164849075Y-76911961D02*
X164896694Y-76816723D01*
X164896694Y-76816723D02*
X164944313Y-76626247D01*
X164944313Y-76626247D02*
X164944313Y-76483390D01*
X164944313Y-76483390D02*
X164896694Y-76292914D01*
X164896694Y-76292914D02*
X164849075Y-76197676D01*
X164849075Y-76197676D02*
X164753837Y-76102438D01*
X164753837Y-76102438D02*
X164610980Y-76054819D01*
X164610980Y-76054819D02*
X164515742Y-76054819D01*
X164515742Y-76054819D02*
X164372885Y-76102438D01*
X164372885Y-76102438D02*
X164325266Y-76150057D01*
X163944313Y-76150057D02*
X163896694Y-76102438D01*
X163896694Y-76102438D02*
X163801456Y-76054819D01*
X163801456Y-76054819D02*
X163563361Y-76054819D01*
X163563361Y-76054819D02*
X163468123Y-76102438D01*
X163468123Y-76102438D02*
X163420504Y-76150057D01*
X163420504Y-76150057D02*
X163372885Y-76245295D01*
X163372885Y-76245295D02*
X163372885Y-76340533D01*
X163372885Y-76340533D02*
X163420504Y-76483390D01*
X163420504Y-76483390D02*
X163991932Y-77054819D01*
X163991932Y-77054819D02*
X163372885Y-77054819D01*
X160954761Y-82523133D02*
X160345238Y-82523133D01*
X160649999Y-82827895D02*
X160649999Y-82218371D01*
X172539638Y-78656057D02*
X172634876Y-78608438D01*
X172634876Y-78608438D02*
X172730114Y-78513200D01*
X172730114Y-78513200D02*
X172872971Y-78370342D01*
X172872971Y-78370342D02*
X172968209Y-78322723D01*
X172968209Y-78322723D02*
X173063447Y-78322723D01*
X173015828Y-78560819D02*
X173111066Y-78513200D01*
X173111066Y-78513200D02*
X173206304Y-78417961D01*
X173206304Y-78417961D02*
X173253923Y-78227485D01*
X173253923Y-78227485D02*
X173253923Y-77894152D01*
X173253923Y-77894152D02*
X173206304Y-77703676D01*
X173206304Y-77703676D02*
X173111066Y-77608438D01*
X173111066Y-77608438D02*
X173015828Y-77560819D01*
X173015828Y-77560819D02*
X172825352Y-77560819D01*
X172825352Y-77560819D02*
X172730114Y-77608438D01*
X172730114Y-77608438D02*
X172634876Y-77703676D01*
X172634876Y-77703676D02*
X172587257Y-77894152D01*
X172587257Y-77894152D02*
X172587257Y-78227485D01*
X172587257Y-78227485D02*
X172634876Y-78417961D01*
X172634876Y-78417961D02*
X172730114Y-78513200D01*
X172730114Y-78513200D02*
X172825352Y-78560819D01*
X172825352Y-78560819D02*
X173015828Y-78560819D01*
X171634876Y-78560819D02*
X172206304Y-78560819D01*
X171920590Y-78560819D02*
X171920590Y-77560819D01*
X171920590Y-77560819D02*
X172015828Y-77703676D01*
X172015828Y-77703676D02*
X172111066Y-77798914D01*
X172111066Y-77798914D02*
X172206304Y-77846533D01*
D11*
X174047732Y-87184480D02*
X174471066Y-87184480D01*
X174471066Y-87849718D02*
X174471066Y-86579718D01*
X174471066Y-86579718D02*
X173866304Y-86579718D01*
X172717256Y-87849718D02*
X173442971Y-87849718D01*
X173080114Y-87849718D02*
X173080114Y-86579718D01*
X173080114Y-86579718D02*
X173201066Y-86761146D01*
X173201066Y-86761146D02*
X173322018Y-86882099D01*
X173322018Y-86882099D02*
X173442971Y-86942575D01*
D10*
X175566666Y-85359580D02*
X175614285Y-85407200D01*
X175614285Y-85407200D02*
X175757142Y-85454819D01*
X175757142Y-85454819D02*
X175852380Y-85454819D01*
X175852380Y-85454819D02*
X175995237Y-85407200D01*
X175995237Y-85407200D02*
X176090475Y-85311961D01*
X176090475Y-85311961D02*
X176138094Y-85216723D01*
X176138094Y-85216723D02*
X176185713Y-85026247D01*
X176185713Y-85026247D02*
X176185713Y-84883390D01*
X176185713Y-84883390D02*
X176138094Y-84692914D01*
X176138094Y-84692914D02*
X176090475Y-84597676D01*
X176090475Y-84597676D02*
X175995237Y-84502438D01*
X175995237Y-84502438D02*
X175852380Y-84454819D01*
X175852380Y-84454819D02*
X175757142Y-84454819D01*
X175757142Y-84454819D02*
X175614285Y-84502438D01*
X175614285Y-84502438D02*
X175566666Y-84550057D01*
X175233332Y-84454819D02*
X174614285Y-84454819D01*
X174614285Y-84454819D02*
X174947618Y-84835771D01*
X174947618Y-84835771D02*
X174804761Y-84835771D01*
X174804761Y-84835771D02*
X174709523Y-84883390D01*
X174709523Y-84883390D02*
X174661904Y-84931009D01*
X174661904Y-84931009D02*
X174614285Y-85026247D01*
X174614285Y-85026247D02*
X174614285Y-85264342D01*
X174614285Y-85264342D02*
X174661904Y-85359580D01*
X174661904Y-85359580D02*
X174709523Y-85407200D01*
X174709523Y-85407200D02*
X174804761Y-85454819D01*
X174804761Y-85454819D02*
X175090475Y-85454819D01*
X175090475Y-85454819D02*
X175185713Y-85407200D01*
X175185713Y-85407200D02*
X175233332Y-85359580D01*
X182660204Y-80202419D02*
X182660204Y-81011942D01*
X182660204Y-81011942D02*
X182612585Y-81107180D01*
X182612585Y-81107180D02*
X182564966Y-81154800D01*
X182564966Y-81154800D02*
X182469728Y-81202419D01*
X182469728Y-81202419D02*
X182279252Y-81202419D01*
X182279252Y-81202419D02*
X182184014Y-81154800D01*
X182184014Y-81154800D02*
X182136395Y-81107180D01*
X182136395Y-81107180D02*
X182088776Y-81011942D01*
X182088776Y-81011942D02*
X182088776Y-80202419D01*
X181088776Y-81202419D02*
X181660204Y-81202419D01*
X181374490Y-81202419D02*
X181374490Y-80202419D01*
X181374490Y-80202419D02*
X181469728Y-80345276D01*
X181469728Y-80345276D02*
X181564966Y-80440514D01*
X181564966Y-80440514D02*
X181660204Y-80488133D01*
X187909580Y-83183333D02*
X187957200Y-83135714D01*
X187957200Y-83135714D02*
X188004819Y-82992857D01*
X188004819Y-82992857D02*
X188004819Y-82897619D01*
X188004819Y-82897619D02*
X187957200Y-82754762D01*
X187957200Y-82754762D02*
X187861961Y-82659524D01*
X187861961Y-82659524D02*
X187766723Y-82611905D01*
X187766723Y-82611905D02*
X187576247Y-82564286D01*
X187576247Y-82564286D02*
X187433390Y-82564286D01*
X187433390Y-82564286D02*
X187242914Y-82611905D01*
X187242914Y-82611905D02*
X187147676Y-82659524D01*
X187147676Y-82659524D02*
X187052438Y-82754762D01*
X187052438Y-82754762D02*
X187004819Y-82897619D01*
X187004819Y-82897619D02*
X187004819Y-82992857D01*
X187004819Y-82992857D02*
X187052438Y-83135714D01*
X187052438Y-83135714D02*
X187100057Y-83183333D01*
X188004819Y-84135714D02*
X188004819Y-83564286D01*
X188004819Y-83850000D02*
X187004819Y-83850000D01*
X187004819Y-83850000D02*
X187147676Y-83754762D01*
X187147676Y-83754762D02*
X187242914Y-83659524D01*
X187242914Y-83659524D02*
X187290533Y-83564286D01*
X184744594Y-90803619D02*
X184744594Y-89803619D01*
X184744594Y-89803619D02*
X184506499Y-89803619D01*
X184506499Y-89803619D02*
X184363642Y-89851238D01*
X184363642Y-89851238D02*
X184268404Y-89946476D01*
X184268404Y-89946476D02*
X184220785Y-90041714D01*
X184220785Y-90041714D02*
X184173166Y-90232190D01*
X184173166Y-90232190D02*
X184173166Y-90375047D01*
X184173166Y-90375047D02*
X184220785Y-90565523D01*
X184220785Y-90565523D02*
X184268404Y-90660761D01*
X184268404Y-90660761D02*
X184363642Y-90756000D01*
X184363642Y-90756000D02*
X184506499Y-90803619D01*
X184506499Y-90803619D02*
X184744594Y-90803619D01*
X183220785Y-90803619D02*
X183792213Y-90803619D01*
X183506499Y-90803619D02*
X183506499Y-89803619D01*
X183506499Y-89803619D02*
X183601737Y-89946476D01*
X183601737Y-89946476D02*
X183696975Y-90041714D01*
X183696975Y-90041714D02*
X183792213Y-90089333D01*
%TO.C,C2*%
D12*
X161400000Y-78665600D02*
X161400000Y-79265600D01*
X161400000Y-82065600D02*
X161400000Y-81465600D01*
X162450000Y-77615600D02*
X161400000Y-78665600D01*
X162450000Y-83115600D02*
X161400000Y-82065600D01*
X166900000Y-77615600D02*
X162450000Y-77615600D01*
X166900000Y-77615600D02*
X166900000Y-79265600D01*
X166900000Y-83115600D02*
X162450000Y-83115600D01*
X166900000Y-83115600D02*
X166900000Y-81465600D01*
%TO.C,Q1*%
D13*
X174367500Y-79091200D02*
X170517500Y-79091200D01*
X174367500Y-84131200D02*
X170517500Y-84131200D01*
D12*
X176747500Y-79116200D02*
G75*
G02*
X176547500Y-79116200I-100000J0D01*
G01*
X176547500Y-79116200D02*
G75*
G02*
X176747500Y-79116200I100000J0D01*
G01*
%TO.C,F1*%
X177275500Y-86087400D02*
X177275500Y-88463400D01*
%TO.C,C3*%
D14*
X176590000Y-83253733D02*
X176590000Y-83546267D01*
X177610000Y-83253733D02*
X177610000Y-83546267D01*
%TO.C,U1*%
D13*
X180398300Y-81701800D02*
X183398300Y-81701800D01*
X180398300Y-84771800D02*
X183398300Y-84771800D01*
D12*
X178478300Y-84491800D02*
G75*
G02*
X178278300Y-84491800I-100000J0D01*
G01*
X178278300Y-84491800D02*
G75*
G02*
X178478300Y-84491800I100000J0D01*
G01*
%TO.C,C1*%
D14*
X185490000Y-83203733D02*
X185490000Y-83496267D01*
X186510000Y-83203733D02*
X186510000Y-83496267D01*
%TO.C,D1*%
D13*
X181837500Y-85437500D02*
X186162500Y-85437500D01*
X181837500Y-85870000D02*
X181837500Y-85437500D01*
X181837500Y-89062500D02*
X181837500Y-88630000D01*
X186162500Y-85437500D02*
X186162500Y-85870000D01*
X186162500Y-89062500D02*
X181837500Y-89062500D01*
X186162500Y-89062500D02*
X186162500Y-88630000D01*
D12*
X188405000Y-87250000D02*
G75*
G02*
X188205000Y-87250000I-100000J0D01*
G01*
X188205000Y-87250000D02*
G75*
G02*
X188405000Y-87250000I100000J0D01*
G01*
%TD*%
M02*
