%TF.GenerationSoftware,KiCad,Pcbnew,10.0.0*%
%TF.CreationDate,2026-09-03T16:49:28-04:00*%
%TF.ProjectId,06-main-peripheral,30362d6d-6169-46e2-9d70-657269706865,rev?*%
%TF.SameCoordinates,Original*%
%TF.FileFunction,Soldermask,Bot*%
%TF.FilePolarity,Negative*%
%FSLAX46Y46*%
G04 Gerber Fmt 4.6, Leading zero omitted, Abs format (unit mm)*
G04 Created by KiCad (PCBNEW 10.0.0) date 2026-09-03 16:49:28*
%MOMM*%
%LPD*%
G01*
G04 APERTURE LIST*
G04 Aperture macros list*
%AMRoundRect*
0 Rectangle with rounded corners*
0 $1 Rounding radius*
0 $2 $3 $4 $5 $6 $7 $8 $9 X,Y pos of 4 corners*
0 Add a 4 corners polygon primitive as box body*
4,1,4,$2,$3,$4,$5,$6,$7,$8,$9,$2,$3,0*
0 Add four circle primitives for the rounded corners*
1,1,$1+$1,$2,$3*
1,1,$1+$1,$4,$5*
1,1,$1+$1,$6,$7*
1,1,$1+$1,$8,$9*
0 Add four rect primitives between the rounded corners*
20,1,$1+$1,$2,$3,$4,$5,0*
20,1,$1+$1,$4,$5,$6,$7,0*
20,1,$1+$1,$6,$7,$8,$9,0*
20,1,$1+$1,$8,$9,$2,$3,0*%
G04 Aperture macros list end*
%ADD10R,1.700000X1.700000*%
%ADD11C,1.700000*%
%ADD12C,1.712000*%
%ADD13RoundRect,0.102000X1.500000X0.800000X-1.500000X0.800000X-1.500000X-0.800000X1.500000X-0.800000X0*%
%ADD14RoundRect,0.099250X0.792750X0.297750X-0.792750X0.297750X-0.792750X-0.297750X0.792750X-0.297750X0*%
%ADD15R,1.180000X2.810000*%
%ADD16RoundRect,0.237500X-0.237500X0.300000X-0.237500X-0.300000X0.237500X-0.300000X0.237500X0.300000X0*%
%ADD17RoundRect,0.085500X-0.751500X-0.256500X0.751500X-0.256500X0.751500X0.256500X-0.751500X0.256500X0*%
%ADD18RoundRect,0.060000X-0.675000X-0.180000X0.675000X-0.180000X0.675000X0.180000X-0.675000X0.180000X0*%
%ADD19RoundRect,0.102000X1.100000X1.060000X-1.100000X1.060000X-1.100000X-1.060000X1.100000X-1.060000X0*%
G04 APERTURE END LIST*
D10*
%TO.C,J4*%
X143025000Y-96450000D03*
D11*
X144975000Y-95825000D03*
X143025000Y-93050000D03*
X144975000Y-93675000D03*
%TD*%
D10*
%TO.C,J3*%
X162950000Y-95725000D03*
D11*
X162325000Y-93775000D03*
X159550000Y-95725000D03*
X160175000Y-93775000D03*
%TD*%
D12*
%TO.C,SW1*%
X135218800Y-81788000D03*
X137718800Y-81788000D03*
X140218800Y-81788000D03*
%TD*%
D10*
%TO.C,J1*%
X179475000Y-93050000D03*
D11*
X177525000Y-93675000D03*
X179475000Y-96450000D03*
X177525000Y-95825000D03*
%TD*%
D13*
%TO.C,C2*%
X161950000Y-80365600D03*
X166350000Y-80365600D03*
%TD*%
D14*
%TO.C,Q1*%
X175067500Y-79706200D03*
X175067500Y-80976200D03*
X175067500Y-82246200D03*
X175067500Y-83516200D03*
X169817500Y-83516200D03*
X169817500Y-82246200D03*
X169817500Y-80976200D03*
X169817500Y-79706200D03*
%TD*%
D15*
%TO.C,F1*%
X178760500Y-87275400D03*
X175790500Y-87275400D03*
%TD*%
D16*
%TO.C,C3*%
X177100000Y-82537500D03*
X177100000Y-84262500D03*
%TD*%
D17*
%TO.C,U1*%
X179748300Y-84211800D03*
D18*
X179748300Y-83561800D03*
X179748300Y-82911800D03*
D17*
X179748300Y-82261800D03*
D18*
X184048300Y-82261800D03*
X184048300Y-82911800D03*
X184048300Y-83561800D03*
D17*
X184048300Y-84211800D03*
%TD*%
D16*
%TO.C,C1*%
X186000000Y-82487500D03*
X186000000Y-84212500D03*
%TD*%
D19*
%TO.C,D1*%
X186205000Y-87250000D03*
X181795000Y-87250000D03*
%TD*%
M02*
