%TF.GenerationSoftware,KiCad,Pcbnew,10.0.0*%
%TF.CreationDate,2026-09-03T16:49:27-04:00*%
%TF.ProjectId,06-main-peripheral,30362d6d-6169-46e2-9d70-657269706865,rev?*%
%TF.SameCoordinates,Original*%
%TF.FileFunction,Legend,Top*%
%TF.FilePolarity,Positive*%
%FSLAX46Y46*%
G04 Gerber Fmt 4.6, Leading zero omitted, Abs format (unit mm)*
G04 Created by KiCad (PCBNEW 10.0.0) date 2026-09-03 16:49:27*
%MOMM*%
%LPD*%
G01*
G04 APERTURE LIST*
%ADD10C,0.254000*%
%ADD11C,0.150000*%
%ADD12C,0.200000*%
%ADD13C,0.000000*%
%ADD14C,0.100000*%
%ADD15C,0.127000*%
%ADD16C,0.120000*%
G04 APERTURE END LIST*
D10*
X136676667Y-87654318D02*
X136676667Y-88561461D01*
X136676667Y-88561461D02*
X136616190Y-88742889D01*
X136616190Y-88742889D02*
X136495238Y-88863842D01*
X136495238Y-88863842D02*
X136313809Y-88924318D01*
X136313809Y-88924318D02*
X136192857Y-88924318D01*
X137825714Y-88077651D02*
X137825714Y-88924318D01*
X137523333Y-87593842D02*
X137220952Y-88500984D01*
X137220952Y-88500984D02*
X138007143Y-88500984D01*
X153476667Y-88154318D02*
X153476667Y-89061461D01*
X153476667Y-89061461D02*
X153416190Y-89242889D01*
X153416190Y-89242889D02*
X153295238Y-89363842D01*
X153295238Y-89363842D02*
X153113809Y-89424318D01*
X153113809Y-89424318D02*
X152992857Y-89424318D01*
X153960476Y-88154318D02*
X154746667Y-88154318D01*
X154746667Y-88154318D02*
X154323333Y-88638127D01*
X154323333Y-88638127D02*
X154504762Y-88638127D01*
X154504762Y-88638127D02*
X154625714Y-88698603D01*
X154625714Y-88698603D02*
X154686190Y-88759080D01*
X154686190Y-88759080D02*
X154746667Y-88880032D01*
X154746667Y-88880032D02*
X154746667Y-89182413D01*
X154746667Y-89182413D02*
X154686190Y-89303365D01*
X154686190Y-89303365D02*
X154625714Y-89363842D01*
X154625714Y-89363842D02*
X154504762Y-89424318D01*
X154504762Y-89424318D02*
X154141905Y-89424318D01*
X154141905Y-89424318D02*
X154020952Y-89363842D01*
X154020952Y-89363842D02*
X153960476Y-89303365D01*
D11*
X131751867Y-79121800D02*
X131894724Y-79169419D01*
X131894724Y-79169419D02*
X132132819Y-79169419D01*
X132132819Y-79169419D02*
X132228057Y-79121800D01*
X132228057Y-79121800D02*
X132275676Y-79074180D01*
X132275676Y-79074180D02*
X132323295Y-78978942D01*
X132323295Y-78978942D02*
X132323295Y-78883704D01*
X132323295Y-78883704D02*
X132275676Y-78788466D01*
X132275676Y-78788466D02*
X132228057Y-78740847D01*
X132228057Y-78740847D02*
X132132819Y-78693228D01*
X132132819Y-78693228D02*
X131942343Y-78645609D01*
X131942343Y-78645609D02*
X131847105Y-78597990D01*
X131847105Y-78597990D02*
X131799486Y-78550371D01*
X131799486Y-78550371D02*
X131751867Y-78455133D01*
X131751867Y-78455133D02*
X131751867Y-78359895D01*
X131751867Y-78359895D02*
X131799486Y-78264657D01*
X131799486Y-78264657D02*
X131847105Y-78217038D01*
X131847105Y-78217038D02*
X131942343Y-78169419D01*
X131942343Y-78169419D02*
X132180438Y-78169419D01*
X132180438Y-78169419D02*
X132323295Y-78217038D01*
X132656629Y-78169419D02*
X132894724Y-79169419D01*
X132894724Y-79169419D02*
X133085200Y-78455133D01*
X133085200Y-78455133D02*
X133275676Y-79169419D01*
X133275676Y-79169419D02*
X133513772Y-78169419D01*
X134418533Y-79169419D02*
X133847105Y-79169419D01*
X134132819Y-79169419D02*
X134132819Y-78169419D01*
X134132819Y-78169419D02*
X134037581Y-78312276D01*
X134037581Y-78312276D02*
X133942343Y-78407514D01*
X133942343Y-78407514D02*
X133847105Y-78455133D01*
X147216905Y-76804819D02*
X147216905Y-75804819D01*
X147216905Y-75804819D02*
X147455000Y-75804819D01*
X147455000Y-75804819D02*
X147597857Y-75852438D01*
X147597857Y-75852438D02*
X147693095Y-75947676D01*
X147693095Y-75947676D02*
X147740714Y-76042914D01*
X147740714Y-76042914D02*
X147788333Y-76233390D01*
X147788333Y-76233390D02*
X147788333Y-76376247D01*
X147788333Y-76376247D02*
X147740714Y-76566723D01*
X147740714Y-76566723D02*
X147693095Y-76661961D01*
X147693095Y-76661961D02*
X147597857Y-76757200D01*
X147597857Y-76757200D02*
X147455000Y-76804819D01*
X147455000Y-76804819D02*
X147216905Y-76804819D01*
X148169286Y-75900057D02*
X148216905Y-75852438D01*
X148216905Y-75852438D02*
X148312143Y-75804819D01*
X148312143Y-75804819D02*
X148550238Y-75804819D01*
X148550238Y-75804819D02*
X148645476Y-75852438D01*
X148645476Y-75852438D02*
X148693095Y-75900057D01*
X148693095Y-75900057D02*
X148740714Y-75995295D01*
X148740714Y-75995295D02*
X148740714Y-76090533D01*
X148740714Y-76090533D02*
X148693095Y-76233390D01*
X148693095Y-76233390D02*
X148121667Y-76804819D01*
X148121667Y-76804819D02*
X148740714Y-76804819D01*
X150333333Y-86884819D02*
X150000000Y-86408628D01*
X149761905Y-86884819D02*
X149761905Y-85884819D01*
X149761905Y-85884819D02*
X150142857Y-85884819D01*
X150142857Y-85884819D02*
X150238095Y-85932438D01*
X150238095Y-85932438D02*
X150285714Y-85980057D01*
X150285714Y-85980057D02*
X150333333Y-86075295D01*
X150333333Y-86075295D02*
X150333333Y-86218152D01*
X150333333Y-86218152D02*
X150285714Y-86313390D01*
X150285714Y-86313390D02*
X150238095Y-86361009D01*
X150238095Y-86361009D02*
X150142857Y-86408628D01*
X150142857Y-86408628D02*
X149761905Y-86408628D01*
X151285714Y-86884819D02*
X150714286Y-86884819D01*
X151000000Y-86884819D02*
X151000000Y-85884819D01*
X151000000Y-85884819D02*
X150904762Y-86027676D01*
X150904762Y-86027676D02*
X150809524Y-86122914D01*
X150809524Y-86122914D02*
X150714286Y-86170533D01*
D10*
X170026667Y-89104318D02*
X170026667Y-90011461D01*
X170026667Y-90011461D02*
X169966190Y-90192889D01*
X169966190Y-90192889D02*
X169845238Y-90313842D01*
X169845238Y-90313842D02*
X169663809Y-90374318D01*
X169663809Y-90374318D02*
X169542857Y-90374318D01*
X171296667Y-90374318D02*
X170570952Y-90374318D01*
X170933809Y-90374318D02*
X170933809Y-89104318D01*
X170933809Y-89104318D02*
X170812857Y-89285746D01*
X170812857Y-89285746D02*
X170691905Y-89406699D01*
X170691905Y-89406699D02*
X170570952Y-89467175D01*
D11*
X143639580Y-77716666D02*
X143687200Y-77764285D01*
X143687200Y-77764285D02*
X143734819Y-77907142D01*
X143734819Y-77907142D02*
X143734819Y-78002380D01*
X143734819Y-78002380D02*
X143687200Y-78145237D01*
X143687200Y-78145237D02*
X143591961Y-78240475D01*
X143591961Y-78240475D02*
X143496723Y-78288094D01*
X143496723Y-78288094D02*
X143306247Y-78335713D01*
X143306247Y-78335713D02*
X143163390Y-78335713D01*
X143163390Y-78335713D02*
X142972914Y-78288094D01*
X142972914Y-78288094D02*
X142877676Y-78240475D01*
X142877676Y-78240475D02*
X142782438Y-78145237D01*
X142782438Y-78145237D02*
X142734819Y-78002380D01*
X142734819Y-78002380D02*
X142734819Y-77907142D01*
X142734819Y-77907142D02*
X142782438Y-77764285D01*
X142782438Y-77764285D02*
X142830057Y-77716666D01*
X143068152Y-76859523D02*
X143734819Y-76859523D01*
X142687200Y-77097618D02*
X143401485Y-77335713D01*
X143401485Y-77335713D02*
X143401485Y-76716666D01*
X154389580Y-79266666D02*
X154437200Y-79314285D01*
X154437200Y-79314285D02*
X154484819Y-79457142D01*
X154484819Y-79457142D02*
X154484819Y-79552380D01*
X154484819Y-79552380D02*
X154437200Y-79695237D01*
X154437200Y-79695237D02*
X154341961Y-79790475D01*
X154341961Y-79790475D02*
X154246723Y-79838094D01*
X154246723Y-79838094D02*
X154056247Y-79885713D01*
X154056247Y-79885713D02*
X153913390Y-79885713D01*
X153913390Y-79885713D02*
X153722914Y-79838094D01*
X153722914Y-79838094D02*
X153627676Y-79790475D01*
X153627676Y-79790475D02*
X153532438Y-79695237D01*
X153532438Y-79695237D02*
X153484819Y-79552380D01*
X153484819Y-79552380D02*
X153484819Y-79457142D01*
X153484819Y-79457142D02*
X153532438Y-79314285D01*
X153532438Y-79314285D02*
X153580057Y-79266666D01*
X153484819Y-78361904D02*
X153484819Y-78838094D01*
X153484819Y-78838094D02*
X153961009Y-78885713D01*
X153961009Y-78885713D02*
X153913390Y-78838094D01*
X153913390Y-78838094D02*
X153865771Y-78742856D01*
X153865771Y-78742856D02*
X153865771Y-78504761D01*
X153865771Y-78504761D02*
X153913390Y-78409523D01*
X153913390Y-78409523D02*
X153961009Y-78361904D01*
X153961009Y-78361904D02*
X154056247Y-78314285D01*
X154056247Y-78314285D02*
X154294342Y-78314285D01*
X154294342Y-78314285D02*
X154389580Y-78361904D01*
X154389580Y-78361904D02*
X154437200Y-78409523D01*
X154437200Y-78409523D02*
X154484819Y-78504761D01*
X154484819Y-78504761D02*
X154484819Y-78742856D01*
X154484819Y-78742856D02*
X154437200Y-78838094D01*
X154437200Y-78838094D02*
X154389580Y-78885713D01*
X138483333Y-77354819D02*
X138150000Y-76878628D01*
X137911905Y-77354819D02*
X137911905Y-76354819D01*
X137911905Y-76354819D02*
X138292857Y-76354819D01*
X138292857Y-76354819D02*
X138388095Y-76402438D01*
X138388095Y-76402438D02*
X138435714Y-76450057D01*
X138435714Y-76450057D02*
X138483333Y-76545295D01*
X138483333Y-76545295D02*
X138483333Y-76688152D01*
X138483333Y-76688152D02*
X138435714Y-76783390D01*
X138435714Y-76783390D02*
X138388095Y-76831009D01*
X138388095Y-76831009D02*
X138292857Y-76878628D01*
X138292857Y-76878628D02*
X137911905Y-76878628D01*
X138864286Y-76450057D02*
X138911905Y-76402438D01*
X138911905Y-76402438D02*
X139007143Y-76354819D01*
X139007143Y-76354819D02*
X139245238Y-76354819D01*
X139245238Y-76354819D02*
X139340476Y-76402438D01*
X139340476Y-76402438D02*
X139388095Y-76450057D01*
X139388095Y-76450057D02*
X139435714Y-76545295D01*
X139435714Y-76545295D02*
X139435714Y-76640533D01*
X139435714Y-76640533D02*
X139388095Y-76783390D01*
X139388095Y-76783390D02*
X138816667Y-77354819D01*
X138816667Y-77354819D02*
X139435714Y-77354819D01*
D10*
X167026667Y-75654318D02*
X167026667Y-76561461D01*
X167026667Y-76561461D02*
X166966190Y-76742889D01*
X166966190Y-76742889D02*
X166845238Y-76863842D01*
X166845238Y-76863842D02*
X166663809Y-76924318D01*
X166663809Y-76924318D02*
X166542857Y-76924318D01*
X167570952Y-75775270D02*
X167631428Y-75714794D01*
X167631428Y-75714794D02*
X167752381Y-75654318D01*
X167752381Y-75654318D02*
X168054762Y-75654318D01*
X168054762Y-75654318D02*
X168175714Y-75714794D01*
X168175714Y-75714794D02*
X168236190Y-75775270D01*
X168236190Y-75775270D02*
X168296667Y-75896222D01*
X168296667Y-75896222D02*
X168296667Y-76017175D01*
X168296667Y-76017175D02*
X168236190Y-76198603D01*
X168236190Y-76198603D02*
X167510476Y-76924318D01*
X167510476Y-76924318D02*
X168296667Y-76924318D01*
%TO.C,J4*%
D12*
D13*
X137700000Y-94750000D02*
X137699999Y-94750000D01*
X137699999Y-94750000D01*
X137699999Y-94750000D01*
X137699999Y-94750000D01*
X137699999Y-94750000D01*
X137699999Y-94750000D01*
X137699999Y-94750000D01*
X137699999Y-94749999D01*
X137699999Y-94749999D01*
X137699999Y-94749999D01*
X137699999Y-94749999D01*
X137699999Y-94749999D01*
X137700000Y-94749999D01*
X137700000Y-94749999D01*
X137700000Y-94749999D01*
X137700000Y-94749999D01*
X137700000Y-94749999D01*
X137700000Y-94749999D01*
X137700000Y-94749999D01*
X137700000Y-94749999D01*
X137700000Y-94749999D01*
X137700000Y-94749999D01*
X137700000Y-94749999D01*
X137700000Y-94749999D01*
X137700001Y-94749999D01*
X137700001Y-94749999D01*
X137700001Y-94749999D01*
X137700001Y-94749999D01*
X137700001Y-94749999D01*
X137700001Y-94749999D01*
X137700001Y-94750000D01*
X137700001Y-94750000D01*
X137700001Y-94750000D01*
X137700001Y-94750000D01*
X137700001Y-94750000D01*
X137700001Y-94750000D01*
X137700001Y-94750000D01*
X137700000Y-94750000D01*
X137700000Y-94750000D02*
X137700001Y-94750000D01*
X137700001Y-94750000D01*
X137700001Y-94750000D01*
X137700001Y-94750000D01*
X137700001Y-94750000D01*
X137700001Y-94750000D01*
X137700001Y-94750001D01*
X137700001Y-94750001D01*
X137700001Y-94750001D01*
X137700001Y-94750001D01*
X137700001Y-94750001D01*
X137700001Y-94750001D01*
X137700001Y-94750001D01*
X137700000Y-94750001D01*
X137700000Y-94750001D01*
X137700000Y-94750001D01*
X137700000Y-94750001D01*
X137700000Y-94750001D01*
X137700000Y-94750001D01*
X137700000Y-94750001D01*
X137700000Y-94750001D01*
X137700000Y-94750001D01*
X137700000Y-94750001D01*
X137700000Y-94750001D01*
X137700000Y-94750001D01*
X137699999Y-94750001D01*
X137699999Y-94750001D01*
X137699999Y-94750001D01*
X137699999Y-94750001D01*
X137699999Y-94750001D01*
X137699999Y-94750001D01*
X137699999Y-94750000D01*
X137699999Y-94750000D01*
X137699999Y-94750000D01*
X137699999Y-94750000D01*
X137699999Y-94750000D01*
X137699999Y-94750000D01*
X137700000Y-94750000D01*
D14*
D13*
X143025000Y-101450000D02*
X143024999Y-101450000D01*
X143024999Y-101450000D01*
X143024999Y-101450000D01*
X143024999Y-101450000D01*
X143024999Y-101450000D01*
X143024999Y-101450000D01*
X143024999Y-101450000D01*
X143024999Y-101449999D01*
X143024999Y-101449999D01*
X143024999Y-101449999D01*
X143024999Y-101449999D01*
X143024999Y-101449999D01*
X143025000Y-101449999D01*
X143025000Y-101449999D01*
X143025000Y-101449999D01*
X143025000Y-101449999D01*
X143025000Y-101449999D01*
X143025000Y-101449999D01*
X143025000Y-101449999D01*
X143025000Y-101449999D01*
X143025000Y-101449999D01*
X143025000Y-101449999D01*
X143025000Y-101449999D01*
X143025000Y-101449999D01*
X143025001Y-101449999D01*
X143025001Y-101449999D01*
X143025001Y-101449999D01*
X143025001Y-101449999D01*
X143025001Y-101449999D01*
X143025001Y-101449999D01*
X143025001Y-101450000D01*
X143025001Y-101450000D01*
X143025001Y-101450000D01*
X143025001Y-101450000D01*
X143025001Y-101450000D01*
X143025001Y-101450000D01*
X143025001Y-101450000D01*
X143025000Y-101450000D01*
X143025000Y-101450000D02*
X143025001Y-101450000D01*
X143025001Y-101450000D01*
X143025001Y-101450000D01*
X143025001Y-101450000D01*
X143025001Y-101450000D01*
X143025001Y-101450000D01*
X143025001Y-101450001D01*
X143025001Y-101450001D01*
X143025001Y-101450001D01*
X143025001Y-101450001D01*
X143025001Y-101450001D01*
X143025001Y-101450001D01*
X143025001Y-101450001D01*
X143025000Y-101450001D01*
X143025000Y-101450001D01*
X143025000Y-101450001D01*
X143025000Y-101450001D01*
X143025000Y-101450001D01*
X143025000Y-101450001D01*
X143025000Y-101450001D01*
X143025000Y-101450001D01*
X143025000Y-101450001D01*
X143025000Y-101450001D01*
X143025000Y-101450001D01*
X143025000Y-101450001D01*
X143024999Y-101450001D01*
X143024999Y-101450001D01*
X143024999Y-101450001D01*
X143024999Y-101450001D01*
X143024999Y-101450001D01*
X143024999Y-101450001D01*
X143024999Y-101450000D01*
X143024999Y-101450000D01*
X143024999Y-101450000D01*
X143024999Y-101450000D01*
X143024999Y-101450000D01*
X143024999Y-101450000D01*
X143025000Y-101450000D01*
D14*
D13*
X143025000Y-101550000D02*
X143024999Y-101550000D01*
X143024999Y-101550000D01*
X143024999Y-101550000D01*
X143024999Y-101550000D01*
X143024999Y-101550000D01*
X143024999Y-101550000D01*
X143024999Y-101550000D01*
X143024999Y-101549999D01*
X143024999Y-101549999D01*
X143024999Y-101549999D01*
X143024999Y-101549999D01*
X143024999Y-101549999D01*
X143025000Y-101549999D01*
X143025000Y-101549999D01*
X143025000Y-101549999D01*
X143025000Y-101549999D01*
X143025000Y-101549999D01*
X143025000Y-101549999D01*
X143025000Y-101549999D01*
X143025000Y-101549999D01*
X143025000Y-101549999D01*
X143025000Y-101549999D01*
X143025000Y-101549999D01*
X143025000Y-101549999D01*
X143025001Y-101549999D01*
X143025001Y-101549999D01*
X143025001Y-101549999D01*
X143025001Y-101549999D01*
X143025001Y-101549999D01*
X143025001Y-101549999D01*
X143025001Y-101550000D01*
X143025001Y-101550000D01*
X143025001Y-101550000D01*
X143025001Y-101550000D01*
X143025001Y-101550000D01*
X143025001Y-101550000D01*
X143025001Y-101550000D01*
X143025000Y-101550000D01*
X143025000Y-101550000D02*
X143025001Y-101550000D01*
X143025001Y-101550000D01*
X143025001Y-101550000D01*
X143025001Y-101550000D01*
X143025001Y-101550000D01*
X143025001Y-101550000D01*
X143025001Y-101550001D01*
X143025001Y-101550001D01*
X143025001Y-101550001D01*
X143025001Y-101550001D01*
X143025001Y-101550001D01*
X143025001Y-101550001D01*
X143025001Y-101550001D01*
X143025000Y-101550001D01*
X143025000Y-101550001D01*
X143025000Y-101550001D01*
X143025000Y-101550001D01*
X143025000Y-101550001D01*
X143025000Y-101550001D01*
X143025000Y-101550001D01*
X143025000Y-101550001D01*
X143025000Y-101550001D01*
X143025000Y-101550001D01*
X143025000Y-101550001D01*
X143025000Y-101550001D01*
X143024999Y-101550001D01*
X143024999Y-101550001D01*
X143024999Y-101550001D01*
X143024999Y-101550001D01*
X143024999Y-101550001D01*
X143024999Y-101550001D01*
X143024999Y-101550000D01*
X143024999Y-101550000D01*
X143024999Y-101550000D01*
X143024999Y-101550000D01*
X143024999Y-101550000D01*
X143024999Y-101550000D01*
X143025000Y-101550000D01*
D12*
D13*
X150300000Y-94750000D02*
X150299999Y-94750000D01*
X150299999Y-94750000D01*
X150299999Y-94750000D01*
X150299999Y-94750000D01*
X150299999Y-94750000D01*
X150299999Y-94750000D01*
X150299999Y-94750000D01*
X150299999Y-94749999D01*
X150299999Y-94749999D01*
X150299999Y-94749999D01*
X150299999Y-94749999D01*
X150299999Y-94749999D01*
X150300000Y-94749999D01*
X150300000Y-94749999D01*
X150300000Y-94749999D01*
X150300000Y-94749999D01*
X150300000Y-94749999D01*
X150300000Y-94749999D01*
X150300000Y-94749999D01*
X150300000Y-94749999D01*
X150300000Y-94749999D01*
X150300000Y-94749999D01*
X150300000Y-94749999D01*
X150300000Y-94749999D01*
X150300001Y-94749999D01*
X150300001Y-94749999D01*
X150300001Y-94749999D01*
X150300001Y-94749999D01*
X150300001Y-94749999D01*
X150300001Y-94749999D01*
X150300001Y-94750000D01*
X150300001Y-94750000D01*
X150300001Y-94750000D01*
X150300001Y-94750000D01*
X150300001Y-94750000D01*
X150300001Y-94750000D01*
X150300001Y-94750000D01*
X150300000Y-94750000D01*
X150300000Y-94750000D02*
X150300001Y-94750000D01*
X150300001Y-94750000D01*
X150300001Y-94750000D01*
X150300001Y-94750000D01*
X150300001Y-94750000D01*
X150300001Y-94750000D01*
X150300001Y-94750001D01*
X150300001Y-94750001D01*
X150300001Y-94750001D01*
X150300001Y-94750001D01*
X150300001Y-94750001D01*
X150300001Y-94750001D01*
X150300001Y-94750001D01*
X150300000Y-94750001D01*
X150300000Y-94750001D01*
X150300000Y-94750001D01*
X150300000Y-94750001D01*
X150300000Y-94750001D01*
X150300000Y-94750001D01*
X150300000Y-94750001D01*
X150300000Y-94750001D01*
X150300000Y-94750001D01*
X150300000Y-94750001D01*
X150300000Y-94750001D01*
X150300000Y-94750001D01*
X150299999Y-94750001D01*
X150299999Y-94750001D01*
X150299999Y-94750001D01*
X150299999Y-94750001D01*
X150299999Y-94750001D01*
X150299999Y-94750001D01*
X150299999Y-94750000D01*
X150299999Y-94750000D01*
X150299999Y-94750000D01*
X150299999Y-94750000D01*
X150299999Y-94750000D01*
X150299999Y-94750000D01*
X150300000Y-94750000D01*
D12*
X137700000Y-94750000D02*
G75*
G02*
X150300000Y-94750000I6300000J0D01*
G01*
D14*
X143025000Y-101450000D02*
G75*
G02*
X143025000Y-101550000I0J-50000D01*
G01*
X143025000Y-101550000D02*
G75*
G02*
X143025000Y-101450000I0J50000D01*
G01*
D12*
X150300000Y-94750000D02*
G75*
G02*
X137700000Y-94750000I-6300000J0D01*
G01*
%TO.C,J3*%
D13*
X161250000Y-88450000D02*
X161249999Y-88450000D01*
X161249999Y-88450000D01*
X161249999Y-88450000D01*
X161249999Y-88450000D01*
X161249999Y-88450000D01*
X161249999Y-88450000D01*
X161249999Y-88450000D01*
X161249999Y-88449999D01*
X161249999Y-88449999D01*
X161249999Y-88449999D01*
X161249999Y-88449999D01*
X161249999Y-88449999D01*
X161250000Y-88449999D01*
X161250000Y-88449999D01*
X161250000Y-88449999D01*
X161250000Y-88449999D01*
X161250000Y-88449999D01*
X161250000Y-88449999D01*
X161250000Y-88449999D01*
X161250000Y-88449999D01*
X161250000Y-88449999D01*
X161250000Y-88449999D01*
X161250000Y-88449999D01*
X161250000Y-88449999D01*
X161250001Y-88449999D01*
X161250001Y-88449999D01*
X161250001Y-88449999D01*
X161250001Y-88449999D01*
X161250001Y-88449999D01*
X161250001Y-88449999D01*
X161250001Y-88450000D01*
X161250001Y-88450000D01*
X161250001Y-88450000D01*
X161250001Y-88450000D01*
X161250001Y-88450000D01*
X161250001Y-88450000D01*
X161250001Y-88450000D01*
X161250000Y-88450000D01*
X161250000Y-88450000D02*
X161250001Y-88450000D01*
X161250001Y-88450000D01*
X161250001Y-88450000D01*
X161250001Y-88450000D01*
X161250001Y-88450000D01*
X161250001Y-88450000D01*
X161250001Y-88450001D01*
X161250001Y-88450001D01*
X161250001Y-88450001D01*
X161250001Y-88450001D01*
X161250001Y-88450001D01*
X161250001Y-88450001D01*
X161250001Y-88450001D01*
X161250000Y-88450001D01*
X161250000Y-88450001D01*
X161250000Y-88450001D01*
X161250000Y-88450001D01*
X161250000Y-88450001D01*
X161250000Y-88450001D01*
X161250000Y-88450001D01*
X161250000Y-88450001D01*
X161250000Y-88450001D01*
X161250000Y-88450001D01*
X161250000Y-88450001D01*
X161250000Y-88450001D01*
X161249999Y-88450001D01*
X161249999Y-88450001D01*
X161249999Y-88450001D01*
X161249999Y-88450001D01*
X161249999Y-88450001D01*
X161249999Y-88450001D01*
X161249999Y-88450000D01*
X161249999Y-88450000D01*
X161249999Y-88450000D01*
X161249999Y-88450000D01*
X161249999Y-88450000D01*
X161249999Y-88450000D01*
X161250000Y-88450000D01*
D12*
D13*
X161250000Y-101050000D02*
X161249999Y-101050000D01*
X161249999Y-101050000D01*
X161249999Y-101050000D01*
X161249999Y-101050000D01*
X161249999Y-101050000D01*
X161249999Y-101050000D01*
X161249999Y-101050000D01*
X161249999Y-101049999D01*
X161249999Y-101049999D01*
X161249999Y-101049999D01*
X161249999Y-101049999D01*
X161249999Y-101049999D01*
X161250000Y-101049999D01*
X161250000Y-101049999D01*
X161250000Y-101049999D01*
X161250000Y-101049999D01*
X161250000Y-101049999D01*
X161250000Y-101049999D01*
X161250000Y-101049999D01*
X161250000Y-101049999D01*
X161250000Y-101049999D01*
X161250000Y-101049999D01*
X161250000Y-101049999D01*
X161250000Y-101049999D01*
X161250001Y-101049999D01*
X161250001Y-101049999D01*
X161250001Y-101049999D01*
X161250001Y-101049999D01*
X161250001Y-101049999D01*
X161250001Y-101049999D01*
X161250001Y-101050000D01*
X161250001Y-101050000D01*
X161250001Y-101050000D01*
X161250001Y-101050000D01*
X161250001Y-101050000D01*
X161250001Y-101050000D01*
X161250001Y-101050000D01*
X161250000Y-101050000D01*
X161250000Y-101050000D02*
X161250001Y-101050000D01*
X161250001Y-101050000D01*
X161250001Y-101050000D01*
X161250001Y-101050000D01*
X161250001Y-101050000D01*
X161250001Y-101050000D01*
X161250001Y-101050001D01*
X161250001Y-101050001D01*
X161250001Y-101050001D01*
X161250001Y-101050001D01*
X161250001Y-101050001D01*
X161250001Y-101050001D01*
X161250001Y-101050001D01*
X161250000Y-101050001D01*
X161250000Y-101050001D01*
X161250000Y-101050001D01*
X161250000Y-101050001D01*
X161250000Y-101050001D01*
X161250000Y-101050001D01*
X161250000Y-101050001D01*
X161250000Y-101050001D01*
X161250000Y-101050001D01*
X161250000Y-101050001D01*
X161250000Y-101050001D01*
X161250000Y-101050001D01*
X161249999Y-101050001D01*
X161249999Y-101050001D01*
X161249999Y-101050001D01*
X161249999Y-101050001D01*
X161249999Y-101050001D01*
X161249999Y-101050001D01*
X161249999Y-101050000D01*
X161249999Y-101050000D01*
X161249999Y-101050000D01*
X161249999Y-101050000D01*
X161249999Y-101050000D01*
X161249999Y-101050000D01*
X161250000Y-101050000D01*
D14*
D13*
X167950000Y-95725000D02*
X167949999Y-95725000D01*
X167949999Y-95725000D01*
X167949999Y-95725000D01*
X167949999Y-95725000D01*
X167949999Y-95725000D01*
X167949999Y-95725000D01*
X167949999Y-95725000D01*
X167949999Y-95724999D01*
X167949999Y-95724999D01*
X167949999Y-95724999D01*
X167949999Y-95724999D01*
X167949999Y-95724999D01*
X167950000Y-95724999D01*
X167950000Y-95724999D01*
X167950000Y-95724999D01*
X167950000Y-95724999D01*
X167950000Y-95724999D01*
X167950000Y-95724999D01*
X167950000Y-95724999D01*
X167950000Y-95724999D01*
X167950000Y-95724999D01*
X167950000Y-95724999D01*
X167950000Y-95724999D01*
X167950000Y-95724999D01*
X167950001Y-95724999D01*
X167950001Y-95724999D01*
X167950001Y-95724999D01*
X167950001Y-95724999D01*
X167950001Y-95724999D01*
X167950001Y-95724999D01*
X167950001Y-95725000D01*
X167950001Y-95725000D01*
X167950001Y-95725000D01*
X167950001Y-95725000D01*
X167950001Y-95725000D01*
X167950001Y-95725000D01*
X167950001Y-95725000D01*
X167950000Y-95725000D01*
X167950000Y-95725000D02*
X167950001Y-95725000D01*
X167950001Y-95725000D01*
X167950001Y-95725000D01*
X167950001Y-95725000D01*
X167950001Y-95725000D01*
X167950001Y-95725000D01*
X167950001Y-95725001D01*
X167950001Y-95725001D01*
X167950001Y-95725001D01*
X167950001Y-95725001D01*
X167950001Y-95725001D01*
X167950001Y-95725001D01*
X167950001Y-95725001D01*
X167950000Y-95725001D01*
X167950000Y-95725001D01*
X167950000Y-95725001D01*
X167950000Y-95725001D01*
X167950000Y-95725001D01*
X167950000Y-95725001D01*
X167950000Y-95725001D01*
X167950000Y-95725001D01*
X167950000Y-95725001D01*
X167950000Y-95725001D01*
X167950000Y-95725001D01*
X167950000Y-95725001D01*
X167949999Y-95725001D01*
X167949999Y-95725001D01*
X167949999Y-95725001D01*
X167949999Y-95725001D01*
X167949999Y-95725001D01*
X167949999Y-95725001D01*
X167949999Y-95725000D01*
X167949999Y-95725000D01*
X167949999Y-95725000D01*
X167949999Y-95725000D01*
X167949999Y-95725000D01*
X167949999Y-95725000D01*
X167950000Y-95725000D01*
D14*
D13*
X168050000Y-95725000D02*
X168049999Y-95725000D01*
X168049999Y-95725000D01*
X168049999Y-95725000D01*
X168049999Y-95725000D01*
X168049999Y-95725000D01*
X168049999Y-95725000D01*
X168049999Y-95725000D01*
X168049999Y-95724999D01*
X168049999Y-95724999D01*
X168049999Y-95724999D01*
X168049999Y-95724999D01*
X168049999Y-95724999D01*
X168050000Y-95724999D01*
X168050000Y-95724999D01*
X168050000Y-95724999D01*
X168050000Y-95724999D01*
X168050000Y-95724999D01*
X168050000Y-95724999D01*
X168050000Y-95724999D01*
X168050000Y-95724999D01*
X168050000Y-95724999D01*
X168050000Y-95724999D01*
X168050000Y-95724999D01*
X168050000Y-95724999D01*
X168050001Y-95724999D01*
X168050001Y-95724999D01*
X168050001Y-95724999D01*
X168050001Y-95724999D01*
X168050001Y-95724999D01*
X168050001Y-95724999D01*
X168050001Y-95725000D01*
X168050001Y-95725000D01*
X168050001Y-95725000D01*
X168050001Y-95725000D01*
X168050001Y-95725000D01*
X168050001Y-95725000D01*
X168050001Y-95725000D01*
X168050000Y-95725000D01*
X168050000Y-95725000D02*
X168050001Y-95725000D01*
X168050001Y-95725000D01*
X168050001Y-95725000D01*
X168050001Y-95725000D01*
X168050001Y-95725000D01*
X168050001Y-95725000D01*
X168050001Y-95725001D01*
X168050001Y-95725001D01*
X168050001Y-95725001D01*
X168050001Y-95725001D01*
X168050001Y-95725001D01*
X168050001Y-95725001D01*
X168050001Y-95725001D01*
X168050000Y-95725001D01*
X168050000Y-95725001D01*
X168050000Y-95725001D01*
X168050000Y-95725001D01*
X168050000Y-95725001D01*
X168050000Y-95725001D01*
X168050000Y-95725001D01*
X168050000Y-95725001D01*
X168050000Y-95725001D01*
X168050000Y-95725001D01*
X168050000Y-95725001D01*
X168050000Y-95725001D01*
X168049999Y-95725001D01*
X168049999Y-95725001D01*
X168049999Y-95725001D01*
X168049999Y-95725001D01*
X168049999Y-95725001D01*
X168049999Y-95725001D01*
X168049999Y-95725000D01*
X168049999Y-95725000D01*
X168049999Y-95725000D01*
X168049999Y-95725000D01*
X168049999Y-95725000D01*
X168049999Y-95725000D01*
X168050000Y-95725000D01*
D12*
X161250000Y-88450000D02*
G75*
G02*
X161250000Y-101050000I0J-6300000D01*
G01*
X161250000Y-101050000D02*
G75*
G02*
X161250000Y-88450000I0J6300000D01*
G01*
D14*
X167950000Y-95725000D02*
G75*
G02*
X168050000Y-95725000I50000J0D01*
G01*
X168050000Y-95725000D02*
G75*
G02*
X167950000Y-95725000I-50000J0D01*
G01*
%TO.C,SW1*%
D15*
X131918800Y-79788000D02*
X143518800Y-79788000D01*
X131918800Y-83788000D02*
X131918800Y-79788000D01*
X143518800Y-79788000D02*
X143518800Y-83788000D01*
X143518800Y-83788000D02*
X131918800Y-83788000D01*
D12*
X135318800Y-84288000D02*
G75*
G02*
X135118800Y-84288000I-100000J0D01*
G01*
X135118800Y-84288000D02*
G75*
G02*
X135318800Y-84288000I100000J0D01*
G01*
%TO.C,D2*%
D15*
X145496000Y-78227800D02*
X145496000Y-83027800D01*
X150496000Y-78227800D02*
X150496000Y-83027800D01*
D12*
X151056000Y-77657800D02*
G75*
G02*
X150856000Y-77657800I-100000J0D01*
G01*
X150856000Y-77657800D02*
G75*
G02*
X151056000Y-77657800I100000J0D01*
G01*
%TO.C,R1*%
D16*
X150754724Y-84477500D02*
X150245276Y-84477500D01*
X150754724Y-85522500D02*
X150245276Y-85522500D01*
%TO.C,J1*%
D12*
D13*
X172200000Y-94750000D02*
X172199999Y-94750000D01*
X172199999Y-94750000D01*
X172199999Y-94750000D01*
X172199999Y-94750000D01*
X172199999Y-94750000D01*
X172199999Y-94750000D01*
X172199999Y-94750000D01*
X172199999Y-94749999D01*
X172199999Y-94749999D01*
X172199999Y-94749999D01*
X172199999Y-94749999D01*
X172199999Y-94749999D01*
X172200000Y-94749999D01*
X172200000Y-94749999D01*
X172200000Y-94749999D01*
X172200000Y-94749999D01*
X172200000Y-94749999D01*
X172200000Y-94749999D01*
X172200000Y-94749999D01*
X172200000Y-94749999D01*
X172200000Y-94749999D01*
X172200000Y-94749999D01*
X172200000Y-94749999D01*
X172200000Y-94749999D01*
X172200001Y-94749999D01*
X172200001Y-94749999D01*
X172200001Y-94749999D01*
X172200001Y-94749999D01*
X172200001Y-94749999D01*
X172200001Y-94749999D01*
X172200001Y-94750000D01*
X172200001Y-94750000D01*
X172200001Y-94750000D01*
X172200001Y-94750000D01*
X172200001Y-94750000D01*
X172200001Y-94750000D01*
X172200001Y-94750000D01*
X172200000Y-94750000D01*
X172200000Y-94750000D02*
X172200001Y-94750000D01*
X172200001Y-94750000D01*
X172200001Y-94750000D01*
X172200001Y-94750000D01*
X172200001Y-94750000D01*
X172200001Y-94750000D01*
X172200001Y-94750001D01*
X172200001Y-94750001D01*
X172200001Y-94750001D01*
X172200001Y-94750001D01*
X172200001Y-94750001D01*
X172200001Y-94750001D01*
X172200001Y-94750001D01*
X172200000Y-94750001D01*
X172200000Y-94750001D01*
X172200000Y-94750001D01*
X172200000Y-94750001D01*
X172200000Y-94750001D01*
X172200000Y-94750001D01*
X172200000Y-94750001D01*
X172200000Y-94750001D01*
X172200000Y-94750001D01*
X172200000Y-94750001D01*
X172200000Y-94750001D01*
X172200000Y-94750001D01*
X172199999Y-94750001D01*
X172199999Y-94750001D01*
X172199999Y-94750001D01*
X172199999Y-94750001D01*
X172199999Y-94750001D01*
X172199999Y-94750001D01*
X172199999Y-94750000D01*
X172199999Y-94750000D01*
X172199999Y-94750000D01*
X172199999Y-94750000D01*
X172199999Y-94750000D01*
X172199999Y-94750000D01*
X172200000Y-94750000D01*
D14*
D13*
X179475000Y-87950000D02*
X179474999Y-87950000D01*
X179474999Y-87950000D01*
X179474999Y-87950000D01*
X179474999Y-87950000D01*
X179474999Y-87950000D01*
X179474999Y-87950000D01*
X179474999Y-87950000D01*
X179474999Y-87949999D01*
X179474999Y-87949999D01*
X179474999Y-87949999D01*
X179474999Y-87949999D01*
X179474999Y-87949999D01*
X179475000Y-87949999D01*
X179475000Y-87949999D01*
X179475000Y-87949999D01*
X179475000Y-87949999D01*
X179475000Y-87949999D01*
X179475000Y-87949999D01*
X179475000Y-87949999D01*
X179475000Y-87949999D01*
X179475000Y-87949999D01*
X179475000Y-87949999D01*
X179475000Y-87949999D01*
X179475000Y-87949999D01*
X179475001Y-87949999D01*
X179475001Y-87949999D01*
X179475001Y-87949999D01*
X179475001Y-87949999D01*
X179475001Y-87949999D01*
X179475001Y-87949999D01*
X179475001Y-87950000D01*
X179475001Y-87950000D01*
X179475001Y-87950000D01*
X179475001Y-87950000D01*
X179475001Y-87950000D01*
X179475001Y-87950000D01*
X179475001Y-87950000D01*
X179475000Y-87950000D01*
X179475000Y-87950000D02*
X179475001Y-87950000D01*
X179475001Y-87950000D01*
X179475001Y-87950000D01*
X179475001Y-87950000D01*
X179475001Y-87950000D01*
X179475001Y-87950000D01*
X179475001Y-87950001D01*
X179475001Y-87950001D01*
X179475001Y-87950001D01*
X179475001Y-87950001D01*
X179475001Y-87950001D01*
X179475001Y-87950001D01*
X179475001Y-87950001D01*
X179475000Y-87950001D01*
X179475000Y-87950001D01*
X179475000Y-87950001D01*
X179475000Y-87950001D01*
X179475000Y-87950001D01*
X179475000Y-87950001D01*
X179475000Y-87950001D01*
X179475000Y-87950001D01*
X179475000Y-87950001D01*
X179475000Y-87950001D01*
X179475000Y-87950001D01*
X179475000Y-87950001D01*
X179474999Y-87950001D01*
X179474999Y-87950001D01*
X179474999Y-87950001D01*
X179474999Y-87950001D01*
X179474999Y-87950001D01*
X179474999Y-87950001D01*
X179474999Y-87950000D01*
X179474999Y-87950000D01*
X179474999Y-87950000D01*
X179474999Y-87950000D01*
X179474999Y-87950000D01*
X179474999Y-87950000D01*
X179475000Y-87950000D01*
D14*
D13*
X179475000Y-88050000D02*
X179474999Y-88050000D01*
X179474999Y-88050000D01*
X179474999Y-88050000D01*
X179474999Y-88050000D01*
X179474999Y-88050000D01*
X179474999Y-88050000D01*
X179474999Y-88050000D01*
X179474999Y-88049999D01*
X179474999Y-88049999D01*
X179474999Y-88049999D01*
X179474999Y-88049999D01*
X179474999Y-88049999D01*
X179475000Y-88049999D01*
X179475000Y-88049999D01*
X179475000Y-88049999D01*
X179475000Y-88049999D01*
X179475000Y-88049999D01*
X179475000Y-88049999D01*
X179475000Y-88049999D01*
X179475000Y-88049999D01*
X179475000Y-88049999D01*
X179475000Y-88049999D01*
X179475000Y-88049999D01*
X179475000Y-88049999D01*
X179475001Y-88049999D01*
X179475001Y-88049999D01*
X179475001Y-88049999D01*
X179475001Y-88049999D01*
X179475001Y-88049999D01*
X179475001Y-88049999D01*
X179475001Y-88050000D01*
X179475001Y-88050000D01*
X179475001Y-88050000D01*
X179475001Y-88050000D01*
X179475001Y-88050000D01*
X179475001Y-88050000D01*
X179475001Y-88050000D01*
X179475000Y-88050000D01*
X179475000Y-88050000D02*
X179475001Y-88050000D01*
X179475001Y-88050000D01*
X179475001Y-88050000D01*
X179475001Y-88050000D01*
X179475001Y-88050000D01*
X179475001Y-88050000D01*
X179475001Y-88050001D01*
X179475001Y-88050001D01*
X179475001Y-88050001D01*
X179475001Y-88050001D01*
X179475001Y-88050001D01*
X179475001Y-88050001D01*
X179475001Y-88050001D01*
X179475000Y-88050001D01*
X179475000Y-88050001D01*
X179475000Y-88050001D01*
X179475000Y-88050001D01*
X179475000Y-88050001D01*
X179475000Y-88050001D01*
X179475000Y-88050001D01*
X179475000Y-88050001D01*
X179475000Y-88050001D01*
X179475000Y-88050001D01*
X179475000Y-88050001D01*
X179475000Y-88050001D01*
X179474999Y-88050001D01*
X179474999Y-88050001D01*
X179474999Y-88050001D01*
X179474999Y-88050001D01*
X179474999Y-88050001D01*
X179474999Y-88050001D01*
X179474999Y-88050000D01*
X179474999Y-88050000D01*
X179474999Y-88050000D01*
X179474999Y-88050000D01*
X179474999Y-88050000D01*
X179474999Y-88050000D01*
X179475000Y-88050000D01*
D12*
D13*
X184800000Y-94750000D02*
X184799999Y-94750000D01*
X184799999Y-94750000D01*
X184799999Y-94750000D01*
X184799999Y-94750000D01*
X184799999Y-94750000D01*
X184799999Y-94750000D01*
X184799999Y-94750000D01*
X184799999Y-94749999D01*
X184799999Y-94749999D01*
X184799999Y-94749999D01*
X184799999Y-94749999D01*
X184799999Y-94749999D01*
X184800000Y-94749999D01*
X184800000Y-94749999D01*
X184800000Y-94749999D01*
X184800000Y-94749999D01*
X184800000Y-94749999D01*
X184800000Y-94749999D01*
X184800000Y-94749999D01*
X184800000Y-94749999D01*
X184800000Y-94749999D01*
X184800000Y-94749999D01*
X184800000Y-94749999D01*
X184800000Y-94749999D01*
X184800001Y-94749999D01*
X184800001Y-94749999D01*
X184800001Y-94749999D01*
X184800001Y-94749999D01*
X184800001Y-94749999D01*
X184800001Y-94749999D01*
X184800001Y-94750000D01*
X184800001Y-94750000D01*
X184800001Y-94750000D01*
X184800001Y-94750000D01*
X184800001Y-94750000D01*
X184800001Y-94750000D01*
X184800001Y-94750000D01*
X184800000Y-94750000D01*
X184800000Y-94750000D02*
X184800001Y-94750000D01*
X184800001Y-94750000D01*
X184800001Y-94750000D01*
X184800001Y-94750000D01*
X184800001Y-94750000D01*
X184800001Y-94750000D01*
X184800001Y-94750001D01*
X184800001Y-94750001D01*
X184800001Y-94750001D01*
X184800001Y-94750001D01*
X184800001Y-94750001D01*
X184800001Y-94750001D01*
X184800001Y-94750001D01*
X184800000Y-94750001D01*
X184800000Y-94750001D01*
X184800000Y-94750001D01*
X184800000Y-94750001D01*
X184800000Y-94750001D01*
X184800000Y-94750001D01*
X184800000Y-94750001D01*
X184800000Y-94750001D01*
X184800000Y-94750001D01*
X184800000Y-94750001D01*
X184800000Y-94750001D01*
X184800000Y-94750001D01*
X184799999Y-94750001D01*
X184799999Y-94750001D01*
X184799999Y-94750001D01*
X184799999Y-94750001D01*
X184799999Y-94750001D01*
X184799999Y-94750001D01*
X184799999Y-94750000D01*
X184799999Y-94750000D01*
X184799999Y-94750000D01*
X184799999Y-94750000D01*
X184799999Y-94750000D01*
X184799999Y-94750000D01*
X184800000Y-94750000D01*
D12*
X172200000Y-94750000D02*
G75*
G02*
X184800000Y-94750000I6300000J0D01*
G01*
D14*
X179475000Y-87950000D02*
G75*
G02*
X179475000Y-88050000I0J-50000D01*
G01*
X179475000Y-88050000D02*
G75*
G02*
X179475000Y-87950000I0J50000D01*
G01*
D12*
X184800000Y-94750000D02*
G75*
G02*
X172200000Y-94750000I-6300000J0D01*
G01*
%TO.C,C4*%
D16*
X141340000Y-77403733D02*
X141340000Y-77696267D01*
X142360000Y-77403733D02*
X142360000Y-77696267D01*
%TO.C,C5*%
X152090000Y-78953733D02*
X152090000Y-79246267D01*
X153110000Y-78953733D02*
X153110000Y-79246267D01*
%TO.C,R2*%
X138904724Y-77977500D02*
X138395276Y-77977500D01*
X138904724Y-79022500D02*
X138395276Y-79022500D01*
%TO.C,J2*%
D12*
X155845000Y-78444600D02*
X156095000Y-78444600D01*
X155845000Y-83894600D02*
X155845000Y-78444600D01*
X157345000Y-83894600D02*
X155845000Y-83894600D01*
X158345000Y-78444600D02*
X157595000Y-78444600D01*
X160845000Y-78444600D02*
X159845000Y-78444600D01*
X163345000Y-78444600D02*
X162345000Y-78444600D01*
D13*
X165095000Y-85169600D02*
X165094999Y-85169600D01*
X165094999Y-85169600D01*
X165094999Y-85169600D01*
X165094999Y-85169600D01*
X165094999Y-85169600D01*
X165094999Y-85169600D01*
X165094999Y-85169600D01*
X165094999Y-85169599D01*
X165094999Y-85169599D01*
X165094999Y-85169599D01*
X165094999Y-85169599D01*
X165094999Y-85169599D01*
X165095000Y-85169599D01*
X165095000Y-85169599D01*
X165095000Y-85169599D01*
X165095000Y-85169599D01*
X165095000Y-85169599D01*
X165095000Y-85169599D01*
X165095000Y-85169599D01*
X165095000Y-85169599D01*
X165095000Y-85169599D01*
X165095000Y-85169599D01*
X165095000Y-85169599D01*
X165095000Y-85169599D01*
X165095001Y-85169599D01*
X165095001Y-85169599D01*
X165095001Y-85169599D01*
X165095001Y-85169599D01*
X165095001Y-85169599D01*
X165095001Y-85169599D01*
X165095001Y-85169600D01*
X165095001Y-85169600D01*
X165095001Y-85169600D01*
X165095001Y-85169600D01*
X165095001Y-85169600D01*
X165095001Y-85169600D01*
X165095001Y-85169600D01*
X165095000Y-85169600D01*
X165095000Y-85169600D02*
X165095001Y-85169600D01*
X165095001Y-85169600D01*
X165095001Y-85169600D01*
X165095001Y-85169600D01*
X165095001Y-85169600D01*
X165095001Y-85169600D01*
X165095001Y-85169601D01*
X165095001Y-85169601D01*
X165095001Y-85169601D01*
X165095001Y-85169601D01*
X165095001Y-85169601D01*
X165095001Y-85169601D01*
X165095001Y-85169601D01*
X165095000Y-85169601D01*
X165095000Y-85169601D01*
X165095000Y-85169601D01*
X165095000Y-85169601D01*
X165095000Y-85169601D01*
X165095000Y-85169601D01*
X165095000Y-85169601D01*
X165095000Y-85169601D01*
X165095000Y-85169601D01*
X165095000Y-85169601D01*
X165095000Y-85169601D01*
X165095000Y-85169601D01*
X165094999Y-85169601D01*
X165094999Y-85169601D01*
X165094999Y-85169601D01*
X165094999Y-85169601D01*
X165094999Y-85169601D01*
X165094999Y-85169601D01*
X165094999Y-85169600D01*
X165094999Y-85169600D01*
X165094999Y-85169600D01*
X165094999Y-85169600D01*
X165094999Y-85169600D01*
X165094999Y-85169600D01*
X165095000Y-85169600D01*
D12*
D13*
X165095000Y-85369600D02*
X165094999Y-85369600D01*
X165094999Y-85369600D01*
X165094999Y-85369600D01*
X165094999Y-85369600D01*
X165094999Y-85369600D01*
X165094999Y-85369600D01*
X165094999Y-85369600D01*
X165094999Y-85369599D01*
X165094999Y-85369599D01*
X165094999Y-85369599D01*
X165094999Y-85369599D01*
X165094999Y-85369599D01*
X165095000Y-85369599D01*
X165095000Y-85369599D01*
X165095000Y-85369599D01*
X165095000Y-85369599D01*
X165095000Y-85369599D01*
X165095000Y-85369599D01*
X165095000Y-85369599D01*
X165095000Y-85369599D01*
X165095000Y-85369599D01*
X165095000Y-85369599D01*
X165095000Y-85369599D01*
X165095000Y-85369599D01*
X165095001Y-85369599D01*
X165095001Y-85369599D01*
X165095001Y-85369599D01*
X165095001Y-85369599D01*
X165095001Y-85369599D01*
X165095001Y-85369599D01*
X165095001Y-85369600D01*
X165095001Y-85369600D01*
X165095001Y-85369600D01*
X165095001Y-85369600D01*
X165095001Y-85369600D01*
X165095001Y-85369600D01*
X165095001Y-85369600D01*
X165095000Y-85369600D01*
X165095000Y-85369600D02*
X165095001Y-85369600D01*
X165095001Y-85369600D01*
X165095001Y-85369600D01*
X165095001Y-85369600D01*
X165095001Y-85369600D01*
X165095001Y-85369600D01*
X165095001Y-85369601D01*
X165095001Y-85369601D01*
X165095001Y-85369601D01*
X165095001Y-85369601D01*
X165095001Y-85369601D01*
X165095001Y-85369601D01*
X165095001Y-85369601D01*
X165095000Y-85369601D01*
X165095000Y-85369601D01*
X165095000Y-85369601D01*
X165095000Y-85369601D01*
X165095000Y-85369601D01*
X165095000Y-85369601D01*
X165095000Y-85369601D01*
X165095000Y-85369601D01*
X165095000Y-85369601D01*
X165095000Y-85369601D01*
X165095000Y-85369601D01*
X165095000Y-85369601D01*
X165094999Y-85369601D01*
X165094999Y-85369601D01*
X165094999Y-85369601D01*
X165094999Y-85369601D01*
X165094999Y-85369601D01*
X165094999Y-85369601D01*
X165094999Y-85369600D01*
X165094999Y-85369600D01*
X165094999Y-85369600D01*
X165094999Y-85369600D01*
X165094999Y-85369600D01*
X165094999Y-85369600D01*
X165095000Y-85369600D01*
D12*
D13*
X165095000Y-85369600D02*
X165094999Y-85369600D01*
X165094999Y-85369600D01*
X165094999Y-85369600D01*
X165094999Y-85369600D01*
X165094999Y-85369600D01*
X165094999Y-85369600D01*
X165094999Y-85369600D01*
X165094999Y-85369599D01*
X165094999Y-85369599D01*
X165094999Y-85369599D01*
X165094999Y-85369599D01*
X165094999Y-85369599D01*
X165095000Y-85369599D01*
X165095000Y-85369599D01*
X165095000Y-85369599D01*
X165095000Y-85369599D01*
X165095000Y-85369599D01*
X165095000Y-85369599D01*
X165095000Y-85369599D01*
X165095000Y-85369599D01*
X165095000Y-85369599D01*
X165095000Y-85369599D01*
X165095000Y-85369599D01*
X165095000Y-85369599D01*
X165095001Y-85369599D01*
X165095001Y-85369599D01*
X165095001Y-85369599D01*
X165095001Y-85369599D01*
X165095001Y-85369599D01*
X165095001Y-85369599D01*
X165095001Y-85369600D01*
X165095001Y-85369600D01*
X165095001Y-85369600D01*
X165095001Y-85369600D01*
X165095001Y-85369600D01*
X165095001Y-85369600D01*
X165095001Y-85369600D01*
X165095000Y-85369600D01*
X165095000Y-85369600D02*
X165095001Y-85369600D01*
X165095001Y-85369600D01*
X165095001Y-85369600D01*
X165095001Y-85369600D01*
X165095001Y-85369600D01*
X165095001Y-85369600D01*
X165095001Y-85369601D01*
X165095001Y-85369601D01*
X165095001Y-85369601D01*
X165095001Y-85369601D01*
X165095001Y-85369601D01*
X165095001Y-85369601D01*
X165095001Y-85369601D01*
X165095000Y-85369601D01*
X165095000Y-85369601D01*
X165095000Y-85369601D01*
X165095000Y-85369601D01*
X165095000Y-85369601D01*
X165095000Y-85369601D01*
X165095000Y-85369601D01*
X165095000Y-85369601D01*
X165095000Y-85369601D01*
X165095000Y-85369601D01*
X165095000Y-85369601D01*
X165095000Y-85369601D01*
X165094999Y-85369601D01*
X165094999Y-85369601D01*
X165094999Y-85369601D01*
X165094999Y-85369601D01*
X165094999Y-85369601D01*
X165094999Y-85369601D01*
X165094999Y-85369600D01*
X165094999Y-85369600D01*
X165094999Y-85369600D01*
X165094999Y-85369600D01*
X165094999Y-85369600D01*
X165094999Y-85369600D01*
X165095000Y-85369600D01*
D12*
X165595000Y-78444600D02*
X164845000Y-78444600D01*
X167095000Y-78444600D02*
X167345000Y-78444600D01*
X167345000Y-78444600D02*
X167345000Y-83894600D01*
X167345000Y-83894600D02*
X165845000Y-83894600D01*
X165095000Y-85168600D02*
G75*
G02*
X165095000Y-85369600I0J-100500D01*
G01*
X165095000Y-85168600D02*
G75*
G02*
X165095000Y-85369600I0J-100500D01*
G01*
X165095000Y-85368600D02*
G75*
G02*
X165095000Y-85169600I0J99500D01*
G01*
%TD*%
M02*
