%TF.GenerationSoftware,KiCad,Pcbnew,10.0.0*%
%TF.CreationDate,2026-09-03T16:49:27-04:00*%
%TF.ProjectId,06-main-peripheral,30362d6d-6169-46e2-9d70-657269706865,rev?*%
%TF.SameCoordinates,Original*%
%TF.FileFunction,Copper,L2,Inr*%
%TF.FilePolarity,Positive*%
%FSLAX46Y46*%
G04 Gerber Fmt 4.6, Leading zero omitted, Abs format (unit mm)*
G04 Created by KiCad (PCBNEW 10.0.0) date 2026-09-03 16:49:27*
%MOMM*%
%LPD*%
G01*
G04 APERTURE LIST*
%TA.AperFunction,ComponentPad*%
%ADD10R,1.700000X1.700000*%
%TD*%
%TA.AperFunction,ComponentPad*%
%ADD11C,1.700000*%
%TD*%
%TA.AperFunction,ComponentPad*%
%ADD12C,1.508000*%
%TD*%
%TA.AperFunction,ViaPad*%
%ADD13C,0.600000*%
%TD*%
G04 APERTURE END LIST*
D10*
%TO.N,5V*%
%TO.C,J4*%
X143025000Y-96450000D03*
D11*
%TO.N,CAN_P*%
X144975000Y-95825000D03*
%TO.N,GND*%
X143025000Y-93050000D03*
%TO.N,CAN_N*%
X144975000Y-93675000D03*
%TD*%
D10*
%TO.N,RX_P*%
%TO.C,J3*%
X162950000Y-95725000D03*
D11*
%TO.N,RX_N*%
X162325000Y-93775000D03*
%TO.N,TX_P*%
X159550000Y-95725000D03*
%TO.N,TX_N*%
X160175000Y-93775000D03*
%TD*%
D12*
%TO.N,GND*%
%TO.C,SW1*%
X135218800Y-81788000D03*
%TO.N,Net-(SW1-B)*%
X137718800Y-81788000D03*
%TO.N,3.3V*%
X140218800Y-81788000D03*
%TD*%
D10*
%TO.N,Net-(F1-Pad2)*%
%TO.C,J1*%
X179475000Y-93050000D03*
D11*
%TO.N,USB_D_N*%
X177525000Y-93675000D03*
%TO.N,GND*%
X179475000Y-96450000D03*
%TO.N,USB_D_P*%
X177525000Y-95825000D03*
%TD*%
D13*
%TO.N,5V*%
X154000000Y-78250000D03*
X156850000Y-84900000D03*
%TO.N,GND*%
X148650000Y-92400000D03*
X178275000Y-83775000D03*
X172600000Y-90500000D03*
X164090000Y-83340000D03*
X186650000Y-77200000D03*
X155500000Y-87500000D03*
X179300000Y-90000000D03*
X147850000Y-85050000D03*
X175250000Y-84800000D03*
X141050000Y-96200000D03*
X160050000Y-99550000D03*
X146400000Y-83950000D03*
X158250000Y-85500000D03*
X161300000Y-85200000D03*
X137250000Y-77200000D03*
X144850000Y-84800000D03*
X187765700Y-87250000D03*
X161600000Y-77200000D03*
X133450000Y-97100000D03*
X187300000Y-84200000D03*
X133450000Y-77200000D03*
X186650000Y-81000000D03*
X148650000Y-77200000D03*
X168483600Y-80365600D03*
X156250000Y-102600000D03*
X166200000Y-82150000D03*
X153950000Y-79950000D03*
X137250000Y-84800000D03*
X133450000Y-102600000D03*
X159100000Y-77250000D03*
X171450000Y-95500000D03*
X186650000Y-102600000D03*
X148650000Y-102600000D03*
X144850000Y-99550000D03*
X144850000Y-77200000D03*
X167650000Y-84800000D03*
X152450000Y-99550000D03*
X151750000Y-88500000D03*
X133450000Y-90000000D03*
X172250000Y-81000000D03*
X141050000Y-88600000D03*
X179050000Y-102600000D03*
X171450000Y-77200000D03*
X165350000Y-96200000D03*
X186900000Y-90000000D03*
X144850000Y-81000000D03*
X156250000Y-96200000D03*
X156800000Y-91100000D03*
X182850000Y-99550000D03*
X186650000Y-96200000D03*
X166350000Y-77500000D03*
X169450000Y-87200000D03*
X182850000Y-92400000D03*
X141050000Y-102600000D03*
X137250000Y-99550000D03*
X165000000Y-92400000D03*
X167650000Y-99550000D03*
X175250000Y-92400000D03*
X156845000Y-77600000D03*
X153500000Y-94500000D03*
X164100000Y-77200000D03*
X165000000Y-88600000D03*
X148650000Y-96200000D03*
X175250000Y-98500000D03*
X171450000Y-102600000D03*
X140550000Y-76687500D03*
X154450000Y-84850000D03*
X163850000Y-102600000D03*
X169500000Y-92500000D03*
X133450000Y-83900000D03*
X137250000Y-92400000D03*
X179050000Y-77200000D03*
X145050000Y-89750000D03*
%TO.N,3.3V*%
X158267400Y-83376000D03*
X141579600Y-81788000D03*
%TO.N,USB_5V*%
X159808600Y-80365600D03*
X173500000Y-82250000D03*
X159700000Y-83200000D03*
X178500000Y-82250000D03*
%TD*%
%TA.AperFunction,Conductor*%
%TO.N,GND*%
G36*
X187357980Y-75500815D02*
G01*
X187505101Y-75511337D01*
X187522611Y-75513855D01*
X187714868Y-75555678D01*
X187771516Y-75586611D01*
X187907801Y-75626628D01*
X187932286Y-75636770D01*
X188052228Y-75702263D01*
X188104977Y-75731066D01*
X188119860Y-75740631D01*
X188277368Y-75858540D01*
X188290739Y-75870126D01*
X188429868Y-76009255D01*
X188441454Y-76022625D01*
X188559367Y-76180138D01*
X188559369Y-76180140D01*
X188568932Y-76195021D01*
X188638227Y-76321926D01*
X188663225Y-76367705D01*
X188670575Y-76383799D01*
X188739336Y-76568156D01*
X188744320Y-76585131D01*
X188786143Y-76777387D01*
X188788661Y-76794898D01*
X188799184Y-76942018D01*
X188799500Y-76950865D01*
X188799500Y-102199133D01*
X188799184Y-102207980D01*
X188788661Y-102355100D01*
X188786143Y-102372611D01*
X188744320Y-102564867D01*
X188739336Y-102581842D01*
X188670575Y-102766199D01*
X188663225Y-102782293D01*
X188568934Y-102954974D01*
X188559369Y-102969858D01*
X188441454Y-103127373D01*
X188429868Y-103140743D01*
X188290739Y-103279872D01*
X188277368Y-103291458D01*
X188119860Y-103409367D01*
X188104977Y-103418932D01*
X187932293Y-103513225D01*
X187916199Y-103520575D01*
X187731842Y-103589336D01*
X187714867Y-103594320D01*
X187522611Y-103636143D01*
X187505100Y-103638661D01*
X187369134Y-103648386D01*
X187357979Y-103649184D01*
X187349134Y-103649500D01*
X132775866Y-103649500D01*
X132767020Y-103649184D01*
X132755000Y-103648324D01*
X132619898Y-103638661D01*
X132602387Y-103636143D01*
X132410131Y-103594320D01*
X132393156Y-103589336D01*
X132208795Y-103520573D01*
X132192710Y-103513227D01*
X132020023Y-103418933D01*
X132005140Y-103409369D01*
X132005137Y-103409367D01*
X131847625Y-103291454D01*
X131834255Y-103279868D01*
X131695126Y-103140739D01*
X131683540Y-103127368D01*
X131565631Y-102969860D01*
X131556066Y-102954977D01*
X131461768Y-102782282D01*
X131454428Y-102766210D01*
X131385659Y-102581833D01*
X131380680Y-102564874D01*
X131338855Y-102372611D01*
X131336337Y-102355098D01*
X131325816Y-102207979D01*
X131325500Y-102199134D01*
X131325500Y-92943753D01*
X141675000Y-92943753D01*
X141675000Y-93156246D01*
X141708242Y-93366127D01*
X141708242Y-93366130D01*
X141773904Y-93568217D01*
X141870375Y-93757550D01*
X141909728Y-93811716D01*
X142460387Y-93261058D01*
X142465889Y-93281591D01*
X142544881Y-93418408D01*
X142656592Y-93530119D01*
X142793409Y-93609111D01*
X142813940Y-93614612D01*
X142263282Y-94165269D01*
X142263282Y-94165270D01*
X142317449Y-94204624D01*
X142506782Y-94301095D01*
X142708870Y-94366757D01*
X142918754Y-94400000D01*
X143131246Y-94400000D01*
X143341127Y-94366757D01*
X143341130Y-94366757D01*
X143543217Y-94301095D01*
X143732554Y-94204622D01*
X143854942Y-94115702D01*
X143920748Y-94092222D01*
X143988802Y-94108047D01*
X144037497Y-94158153D01*
X144042389Y-94168566D01*
X144044058Y-94172597D01*
X144159024Y-94344657D01*
X144305342Y-94490975D01*
X144305345Y-94490977D01*
X144477402Y-94605941D01*
X144477403Y-94605941D01*
X144477404Y-94605942D01*
X144548615Y-94635439D01*
X144603019Y-94679280D01*
X144625083Y-94745575D01*
X144607803Y-94813274D01*
X144556666Y-94860884D01*
X144548615Y-94864561D01*
X144477404Y-94894057D01*
X144305342Y-95009024D01*
X144159024Y-95155342D01*
X144044055Y-95327407D01*
X144044053Y-95327411D01*
X144044038Y-95327449D01*
X144044024Y-95327465D01*
X144041186Y-95332776D01*
X144040178Y-95332237D01*
X144000189Y-95381846D01*
X143933892Y-95403902D01*
X143905292Y-95401597D01*
X143894750Y-95399500D01*
X143894748Y-95399500D01*
X142155252Y-95399500D01*
X142155247Y-95399500D01*
X142096770Y-95411131D01*
X142096769Y-95411132D01*
X142030447Y-95455447D01*
X141986132Y-95521769D01*
X141986131Y-95521770D01*
X141974500Y-95580247D01*
X141974500Y-97319752D01*
X141986131Y-97378229D01*
X141986132Y-97378230D01*
X142030447Y-97444552D01*
X142096769Y-97488867D01*
X142096770Y-97488868D01*
X142155247Y-97500499D01*
X142155250Y-97500500D01*
X142155252Y-97500500D01*
X143894750Y-97500500D01*
X143894751Y-97500499D01*
X143909568Y-97497552D01*
X143953229Y-97488868D01*
X143953229Y-97488867D01*
X143953231Y-97488867D01*
X144019552Y-97444552D01*
X144063867Y-97378231D01*
X144063867Y-97378229D01*
X144063868Y-97378229D01*
X144075499Y-97319752D01*
X144075500Y-97319750D01*
X144075500Y-96710495D01*
X144095185Y-96643456D01*
X144147989Y-96597701D01*
X144217147Y-96587757D01*
X144280703Y-96616782D01*
X144287181Y-96622814D01*
X144305342Y-96640975D01*
X144305345Y-96640977D01*
X144477402Y-96755941D01*
X144668580Y-96835130D01*
X144871530Y-96875499D01*
X144871534Y-96875500D01*
X144871535Y-96875500D01*
X145078466Y-96875500D01*
X145078467Y-96875499D01*
X145281420Y-96835130D01*
X145472598Y-96755941D01*
X145644655Y-96640977D01*
X145790977Y-96494655D01*
X145905941Y-96322598D01*
X145985130Y-96131420D01*
X146025500Y-95928465D01*
X146025500Y-95721535D01*
X146005608Y-95621530D01*
X158499500Y-95621530D01*
X158499500Y-95828469D01*
X158539868Y-96031412D01*
X158539870Y-96031420D01*
X158619058Y-96222596D01*
X158734024Y-96394657D01*
X158880342Y-96540975D01*
X158880345Y-96540977D01*
X159052402Y-96655941D01*
X159243580Y-96735130D01*
X159399429Y-96766130D01*
X159446530Y-96775499D01*
X159446534Y-96775500D01*
X159446535Y-96775500D01*
X159653466Y-96775500D01*
X159653467Y-96775499D01*
X159856420Y-96735130D01*
X160047598Y-96655941D01*
X160219655Y-96540977D01*
X160365977Y-96394655D01*
X160480941Y-96222598D01*
X160560130Y-96031420D01*
X160600500Y-95828465D01*
X160600500Y-95621535D01*
X160560130Y-95418580D01*
X160480941Y-95227402D01*
X160365977Y-95055345D01*
X160365975Y-95055342D01*
X160323787Y-95013154D01*
X160290302Y-94951831D01*
X160295286Y-94882139D01*
X160337158Y-94826206D01*
X160387274Y-94803856D01*
X160481420Y-94785130D01*
X160672598Y-94705941D01*
X160844655Y-94590977D01*
X160990977Y-94444655D01*
X161105941Y-94272598D01*
X161135439Y-94201384D01*
X161179280Y-94146981D01*
X161245574Y-94124916D01*
X161313273Y-94142195D01*
X161360884Y-94193332D01*
X161364561Y-94201384D01*
X161394058Y-94272596D01*
X161509024Y-94444657D01*
X161655342Y-94590975D01*
X161655345Y-94590977D01*
X161827402Y-94705941D01*
X161827426Y-94705950D01*
X161827433Y-94705956D01*
X161832773Y-94708811D01*
X161832231Y-94709823D01*
X161881830Y-94749784D01*
X161903901Y-94816077D01*
X161901598Y-94844704D01*
X161899500Y-94855252D01*
X161899500Y-96594752D01*
X161911131Y-96653229D01*
X161911132Y-96653230D01*
X161955447Y-96719552D01*
X162021769Y-96763867D01*
X162021770Y-96763868D01*
X162080247Y-96775499D01*
X162080250Y-96775500D01*
X162080252Y-96775500D01*
X163819750Y-96775500D01*
X163819751Y-96775499D01*
X163834568Y-96772552D01*
X163878229Y-96763868D01*
X163878229Y-96763867D01*
X163878231Y-96763867D01*
X163944552Y-96719552D01*
X163988867Y-96653231D01*
X163988867Y-96653229D01*
X163988868Y-96653229D01*
X163997552Y-96609568D01*
X164000500Y-96594748D01*
X164000500Y-94855252D01*
X164000500Y-94855249D01*
X164000499Y-94855247D01*
X163988868Y-94796770D01*
X163988867Y-94796769D01*
X163944552Y-94730447D01*
X163878230Y-94686132D01*
X163878229Y-94686131D01*
X163819752Y-94674500D01*
X163819748Y-94674500D01*
X163210495Y-94674500D01*
X163143456Y-94654815D01*
X163097701Y-94602011D01*
X163087757Y-94532853D01*
X163116782Y-94469297D01*
X163122814Y-94462819D01*
X163140974Y-94444658D01*
X163140975Y-94444657D01*
X163140977Y-94444655D01*
X163255941Y-94272598D01*
X163335130Y-94081420D01*
X163375500Y-93878465D01*
X163375500Y-93671535D01*
X163355608Y-93571530D01*
X176474500Y-93571530D01*
X176474500Y-93778469D01*
X176514868Y-93981412D01*
X176514870Y-93981420D01*
X176594058Y-94172596D01*
X176709024Y-94344657D01*
X176855342Y-94490975D01*
X176855345Y-94490977D01*
X177027402Y-94605941D01*
X177027403Y-94605941D01*
X177027404Y-94605942D01*
X177098615Y-94635439D01*
X177153019Y-94679280D01*
X177175083Y-94745575D01*
X177157803Y-94813274D01*
X177106666Y-94860884D01*
X177098615Y-94864561D01*
X177027404Y-94894057D01*
X176855342Y-95009024D01*
X176709024Y-95155342D01*
X176594058Y-95327403D01*
X176514870Y-95518579D01*
X176514868Y-95518587D01*
X176474500Y-95721530D01*
X176474500Y-95928469D01*
X176514868Y-96131412D01*
X176514870Y-96131420D01*
X176594058Y-96322596D01*
X176709024Y-96494657D01*
X176855342Y-96640975D01*
X176855345Y-96640977D01*
X177027402Y-96755941D01*
X177218580Y-96835130D01*
X177421530Y-96875499D01*
X177421534Y-96875500D01*
X177421535Y-96875500D01*
X177628466Y-96875500D01*
X177628467Y-96875499D01*
X177831420Y-96835130D01*
X178015305Y-96758961D01*
X178084772Y-96751493D01*
X178147251Y-96782768D01*
X178180687Y-96835206D01*
X178223903Y-96968215D01*
X178320375Y-97157550D01*
X178359728Y-97211716D01*
X178910387Y-96661058D01*
X178915889Y-96681591D01*
X178994881Y-96818408D01*
X179106592Y-96930119D01*
X179243409Y-97009111D01*
X179263940Y-97014612D01*
X178713282Y-97565269D01*
X178713282Y-97565270D01*
X178767449Y-97604624D01*
X178956782Y-97701095D01*
X179158870Y-97766757D01*
X179368754Y-97800000D01*
X179581246Y-97800000D01*
X179791127Y-97766757D01*
X179791130Y-97766757D01*
X179993217Y-97701095D01*
X180182554Y-97604622D01*
X180236716Y-97565270D01*
X180236717Y-97565270D01*
X179686058Y-97014612D01*
X179706591Y-97009111D01*
X179843408Y-96930119D01*
X179955119Y-96818408D01*
X180034111Y-96681591D01*
X180039612Y-96661058D01*
X180590270Y-97211717D01*
X180590270Y-97211716D01*
X180629622Y-97157554D01*
X180726095Y-96968217D01*
X180791757Y-96766130D01*
X180791757Y-96766127D01*
X180825000Y-96556246D01*
X180825000Y-96343753D01*
X180791757Y-96133872D01*
X180791757Y-96133869D01*
X180726095Y-95931782D01*
X180629624Y-95742449D01*
X180590270Y-95688282D01*
X180590269Y-95688282D01*
X180039612Y-96238940D01*
X180034111Y-96218409D01*
X179955119Y-96081592D01*
X179843408Y-95969881D01*
X179706591Y-95890889D01*
X179686057Y-95885387D01*
X180236716Y-95334728D01*
X180182550Y-95295375D01*
X179993217Y-95198904D01*
X179791129Y-95133242D01*
X179581246Y-95100000D01*
X179368754Y-95100000D01*
X179158872Y-95133242D01*
X179158869Y-95133242D01*
X178956782Y-95198904D01*
X178767442Y-95295379D01*
X178645056Y-95384297D01*
X178579249Y-95407777D01*
X178511196Y-95391951D01*
X178462501Y-95341845D01*
X178457610Y-95331431D01*
X178455944Y-95327409D01*
X178455941Y-95327403D01*
X178455941Y-95327402D01*
X178340977Y-95155345D01*
X178340975Y-95155342D01*
X178194657Y-95009024D01*
X178108626Y-94951541D01*
X178022598Y-94894059D01*
X178022593Y-94894057D01*
X177951384Y-94864561D01*
X177896981Y-94820720D01*
X177874916Y-94754426D01*
X177892195Y-94686727D01*
X177943332Y-94639116D01*
X177951384Y-94635439D01*
X177952793Y-94634855D01*
X178022598Y-94605941D01*
X178194655Y-94490977D01*
X178340977Y-94344655D01*
X178455941Y-94172598D01*
X178455947Y-94172581D01*
X178455951Y-94172577D01*
X178458811Y-94167227D01*
X178459824Y-94167768D01*
X178499778Y-94118174D01*
X178566069Y-94096099D01*
X178594708Y-94098402D01*
X178600715Y-94099597D01*
X178605251Y-94100500D01*
X178605252Y-94100500D01*
X180344750Y-94100500D01*
X180344751Y-94100499D01*
X180359568Y-94097552D01*
X180403229Y-94088868D01*
X180403229Y-94088867D01*
X180403231Y-94088867D01*
X180469552Y-94044552D01*
X180513867Y-93978231D01*
X180513867Y-93978229D01*
X180513868Y-93978229D01*
X180525499Y-93919752D01*
X180525500Y-93919750D01*
X180525500Y-92180249D01*
X180525499Y-92180247D01*
X180513868Y-92121770D01*
X180513867Y-92121769D01*
X180469552Y-92055447D01*
X180403230Y-92011132D01*
X180403229Y-92011131D01*
X180344752Y-91999500D01*
X180344748Y-91999500D01*
X178605252Y-91999500D01*
X178605247Y-91999500D01*
X178546770Y-92011131D01*
X178546769Y-92011132D01*
X178480447Y-92055447D01*
X178436132Y-92121769D01*
X178436131Y-92121770D01*
X178424500Y-92180247D01*
X178424500Y-92789505D01*
X178404815Y-92856544D01*
X178352011Y-92902299D01*
X178282853Y-92912243D01*
X178219297Y-92883218D01*
X178212819Y-92877186D01*
X178194657Y-92859024D01*
X178029253Y-92748506D01*
X178022598Y-92744059D01*
X178015302Y-92741037D01*
X177831420Y-92664870D01*
X177831412Y-92664868D01*
X177628469Y-92624500D01*
X177628465Y-92624500D01*
X177421535Y-92624500D01*
X177421530Y-92624500D01*
X177218587Y-92664868D01*
X177218579Y-92664870D01*
X177027403Y-92744058D01*
X176855342Y-92859024D01*
X176709024Y-93005342D01*
X176594058Y-93177403D01*
X176514870Y-93368579D01*
X176514868Y-93368587D01*
X176474500Y-93571530D01*
X163355608Y-93571530D01*
X163335130Y-93468580D01*
X163255941Y-93277402D01*
X163140977Y-93105345D01*
X163140975Y-93105342D01*
X162994657Y-92959024D01*
X162872176Y-92877186D01*
X162822598Y-92844059D01*
X162631420Y-92764870D01*
X162631412Y-92764868D01*
X162428469Y-92724500D01*
X162428465Y-92724500D01*
X162221535Y-92724500D01*
X162221530Y-92724500D01*
X162018587Y-92764868D01*
X162018579Y-92764870D01*
X161827403Y-92844058D01*
X161655342Y-92959024D01*
X161509024Y-93105342D01*
X161394057Y-93277404D01*
X161364561Y-93348615D01*
X161320720Y-93403019D01*
X161254425Y-93425083D01*
X161186726Y-93407803D01*
X161139116Y-93356666D01*
X161135439Y-93348615D01*
X161105942Y-93277404D01*
X161072114Y-93226777D01*
X160990977Y-93105345D01*
X160990975Y-93105342D01*
X160844657Y-92959024D01*
X160722176Y-92877186D01*
X160672598Y-92844059D01*
X160481420Y-92764870D01*
X160481412Y-92764868D01*
X160278469Y-92724500D01*
X160278465Y-92724500D01*
X160071535Y-92724500D01*
X160071530Y-92724500D01*
X159868587Y-92764868D01*
X159868579Y-92764870D01*
X159677403Y-92844058D01*
X159505342Y-92959024D01*
X159359024Y-93105342D01*
X159244058Y-93277403D01*
X159164870Y-93468579D01*
X159164868Y-93468587D01*
X159124500Y-93671530D01*
X159124500Y-93878469D01*
X159164868Y-94081412D01*
X159164870Y-94081420D01*
X159244058Y-94272596D01*
X159359024Y-94444657D01*
X159401212Y-94486845D01*
X159434697Y-94548168D01*
X159429713Y-94617860D01*
X159387841Y-94673793D01*
X159337723Y-94696143D01*
X159243585Y-94714868D01*
X159243579Y-94714870D01*
X159052403Y-94794058D01*
X158880342Y-94909024D01*
X158734024Y-95055342D01*
X158619058Y-95227403D01*
X158539870Y-95418579D01*
X158539868Y-95418587D01*
X158499500Y-95621530D01*
X146005608Y-95621530D01*
X145985130Y-95518580D01*
X145905941Y-95327402D01*
X145790977Y-95155345D01*
X145790975Y-95155342D01*
X145644657Y-95009024D01*
X145558626Y-94951541D01*
X145472598Y-94894059D01*
X145472593Y-94894057D01*
X145401384Y-94864561D01*
X145346981Y-94820720D01*
X145324916Y-94754426D01*
X145342195Y-94686727D01*
X145393332Y-94639116D01*
X145401384Y-94635439D01*
X145402793Y-94634855D01*
X145472598Y-94605941D01*
X145644655Y-94490977D01*
X145790977Y-94344655D01*
X145905941Y-94172598D01*
X145985130Y-93981420D01*
X146025500Y-93778465D01*
X146025500Y-93571535D01*
X145985130Y-93368580D01*
X145905941Y-93177402D01*
X145790977Y-93005345D01*
X145790975Y-93005342D01*
X145644657Y-92859024D01*
X145479253Y-92748506D01*
X145472598Y-92744059D01*
X145465302Y-92741037D01*
X145281420Y-92664870D01*
X145281412Y-92664868D01*
X145078469Y-92624500D01*
X145078465Y-92624500D01*
X144871535Y-92624500D01*
X144871530Y-92624500D01*
X144668587Y-92664868D01*
X144668579Y-92664870D01*
X144484697Y-92741037D01*
X144415227Y-92748506D01*
X144352748Y-92717231D01*
X144319313Y-92664794D01*
X144276095Y-92531782D01*
X144179624Y-92342449D01*
X144140270Y-92288282D01*
X144140269Y-92288282D01*
X143589612Y-92838940D01*
X143584111Y-92818409D01*
X143505119Y-92681592D01*
X143393408Y-92569881D01*
X143256591Y-92490889D01*
X143236058Y-92485387D01*
X143786716Y-91934728D01*
X143732550Y-91895375D01*
X143543217Y-91798904D01*
X143341129Y-91733242D01*
X143131246Y-91700000D01*
X142918754Y-91700000D01*
X142708872Y-91733242D01*
X142708869Y-91733242D01*
X142506782Y-91798904D01*
X142317439Y-91895380D01*
X142263282Y-91934727D01*
X142263282Y-91934728D01*
X142813941Y-92485387D01*
X142793409Y-92490889D01*
X142656592Y-92569881D01*
X142544881Y-92681592D01*
X142465889Y-92818409D01*
X142460387Y-92838941D01*
X141909728Y-92288282D01*
X141909727Y-92288282D01*
X141870380Y-92342439D01*
X141773904Y-92531782D01*
X141708242Y-92733869D01*
X141708242Y-92733872D01*
X141675000Y-92943753D01*
X131325500Y-92943753D01*
X131325500Y-84834108D01*
X156349500Y-84834108D01*
X156349500Y-84965891D01*
X156383608Y-85093187D01*
X156416554Y-85150250D01*
X156449500Y-85207314D01*
X156542686Y-85300500D01*
X156656814Y-85366392D01*
X156784108Y-85400500D01*
X156784110Y-85400500D01*
X156915890Y-85400500D01*
X156915892Y-85400500D01*
X157043186Y-85366392D01*
X157157314Y-85300500D01*
X157250500Y-85207314D01*
X157316392Y-85093186D01*
X157350500Y-84965892D01*
X157350500Y-84834108D01*
X157316392Y-84706814D01*
X157250500Y-84592686D01*
X157157314Y-84499500D01*
X157100250Y-84466554D01*
X157043187Y-84433608D01*
X156979539Y-84416554D01*
X156915892Y-84399500D01*
X156784108Y-84399500D01*
X156656812Y-84433608D01*
X156542686Y-84499500D01*
X156542683Y-84499502D01*
X156449502Y-84592683D01*
X156449500Y-84592686D01*
X156383608Y-84706812D01*
X156349500Y-84834108D01*
X131325500Y-84834108D01*
X131325500Y-83310108D01*
X157766900Y-83310108D01*
X157766900Y-83441891D01*
X157801008Y-83569187D01*
X157819087Y-83600500D01*
X157866900Y-83683314D01*
X157960086Y-83776500D01*
X158074214Y-83842392D01*
X158201508Y-83876500D01*
X158201510Y-83876500D01*
X158333290Y-83876500D01*
X158333292Y-83876500D01*
X158460586Y-83842392D01*
X158574714Y-83776500D01*
X158667900Y-83683314D01*
X158733792Y-83569186D01*
X158767900Y-83441892D01*
X158767900Y-83310108D01*
X158733792Y-83182814D01*
X158705672Y-83134108D01*
X159199500Y-83134108D01*
X159199500Y-83265891D01*
X159233608Y-83393187D01*
X159261727Y-83441890D01*
X159299500Y-83507314D01*
X159392686Y-83600500D01*
X159506814Y-83666392D01*
X159634108Y-83700500D01*
X159634110Y-83700500D01*
X159765890Y-83700500D01*
X159765892Y-83700500D01*
X159893186Y-83666392D01*
X160007314Y-83600500D01*
X160100500Y-83507314D01*
X160166392Y-83393186D01*
X160200500Y-83265892D01*
X160200500Y-83134108D01*
X160166392Y-83006814D01*
X160100500Y-82892686D01*
X160007314Y-82799500D01*
X159922442Y-82750499D01*
X159893187Y-82733608D01*
X159828931Y-82716391D01*
X159765892Y-82699500D01*
X159634108Y-82699500D01*
X159506812Y-82733608D01*
X159392686Y-82799500D01*
X159392683Y-82799502D01*
X159299502Y-82892683D01*
X159299500Y-82892686D01*
X159233608Y-83006812D01*
X159199500Y-83134108D01*
X158705672Y-83134108D01*
X158667900Y-83068686D01*
X158574714Y-82975500D01*
X158517650Y-82942554D01*
X158460587Y-82909608D01*
X158396939Y-82892554D01*
X158333292Y-82875500D01*
X158201508Y-82875500D01*
X158074212Y-82909608D01*
X157960086Y-82975500D01*
X157960083Y-82975502D01*
X157866902Y-83068683D01*
X157866900Y-83068686D01*
X157801008Y-83182812D01*
X157766900Y-83310108D01*
X131325500Y-83310108D01*
X131325500Y-81689302D01*
X133964800Y-81689302D01*
X133964800Y-81886697D01*
X133995676Y-82081646D01*
X134056673Y-82269373D01*
X134146283Y-82445239D01*
X134172257Y-82480988D01*
X134172257Y-82480989D01*
X134735837Y-81917409D01*
X134752875Y-81980993D01*
X134818701Y-82095007D01*
X134911793Y-82188099D01*
X135025807Y-82253925D01*
X135089390Y-82270962D01*
X134525809Y-82834541D01*
X134525810Y-82834542D01*
X134561555Y-82860512D01*
X134561568Y-82860520D01*
X134737426Y-82950126D01*
X134925153Y-83011123D01*
X135120103Y-83042000D01*
X135317497Y-83042000D01*
X135512446Y-83011123D01*
X135700173Y-82950126D01*
X135876041Y-82860516D01*
X135911788Y-82834543D01*
X135911788Y-82834541D01*
X135348210Y-82270962D01*
X135411793Y-82253925D01*
X135525807Y-82188099D01*
X135618899Y-82095007D01*
X135684725Y-81980993D01*
X135701762Y-81917409D01*
X136265341Y-82480988D01*
X136265343Y-82480988D01*
X136291316Y-82445241D01*
X136380926Y-82269373D01*
X136441923Y-82081646D01*
X136472800Y-81886697D01*
X136472800Y-81693985D01*
X136764300Y-81693985D01*
X136764300Y-81882014D01*
X136800979Y-82066409D01*
X136800982Y-82066421D01*
X136872929Y-82240118D01*
X136872936Y-82240131D01*
X136977391Y-82396457D01*
X136977394Y-82396461D01*
X137110338Y-82529405D01*
X137110342Y-82529408D01*
X137266668Y-82633863D01*
X137266681Y-82633870D01*
X137440378Y-82705817D01*
X137440383Y-82705819D01*
X137624785Y-82742499D01*
X137624788Y-82742500D01*
X137624790Y-82742500D01*
X137812812Y-82742500D01*
X137812813Y-82742499D01*
X137997217Y-82705819D01*
X138170925Y-82633867D01*
X138327258Y-82529408D01*
X138460208Y-82396458D01*
X138564667Y-82240125D01*
X138636619Y-82066417D01*
X138673300Y-81882010D01*
X138673300Y-81693990D01*
X138673300Y-81693987D01*
X138673299Y-81693985D01*
X139264300Y-81693985D01*
X139264300Y-81882014D01*
X139300979Y-82066409D01*
X139300982Y-82066421D01*
X139372929Y-82240118D01*
X139372936Y-82240131D01*
X139477391Y-82396457D01*
X139477394Y-82396461D01*
X139610338Y-82529405D01*
X139610342Y-82529408D01*
X139766668Y-82633863D01*
X139766681Y-82633870D01*
X139940378Y-82705817D01*
X139940383Y-82705819D01*
X140124785Y-82742499D01*
X140124788Y-82742500D01*
X140124790Y-82742500D01*
X140312812Y-82742500D01*
X140312813Y-82742499D01*
X140497217Y-82705819D01*
X140670925Y-82633867D01*
X140827258Y-82529408D01*
X140960208Y-82396458D01*
X141064667Y-82240125D01*
X141064668Y-82240122D01*
X141064670Y-82240119D01*
X141069580Y-82228265D01*
X141113420Y-82173861D01*
X141179714Y-82151796D01*
X141247414Y-82169075D01*
X141271822Y-82188036D01*
X141272286Y-82188500D01*
X141386414Y-82254392D01*
X141513708Y-82288500D01*
X141513710Y-82288500D01*
X141645490Y-82288500D01*
X141645492Y-82288500D01*
X141772786Y-82254392D01*
X141886914Y-82188500D01*
X141891306Y-82184108D01*
X172999500Y-82184108D01*
X172999500Y-82315891D01*
X173033608Y-82443187D01*
X173066554Y-82500250D01*
X173099500Y-82557314D01*
X173192686Y-82650500D01*
X173306814Y-82716392D01*
X173434108Y-82750500D01*
X173434110Y-82750500D01*
X173565890Y-82750500D01*
X173565892Y-82750500D01*
X173693186Y-82716392D01*
X173807314Y-82650500D01*
X173900500Y-82557314D01*
X173966392Y-82443186D01*
X174000500Y-82315892D01*
X174000500Y-82184108D01*
X177999500Y-82184108D01*
X177999500Y-82315891D01*
X178033608Y-82443187D01*
X178066554Y-82500250D01*
X178099500Y-82557314D01*
X178192686Y-82650500D01*
X178306814Y-82716392D01*
X178434108Y-82750500D01*
X178434110Y-82750500D01*
X178565890Y-82750500D01*
X178565892Y-82750500D01*
X178693186Y-82716392D01*
X178807314Y-82650500D01*
X178900500Y-82557314D01*
X178966392Y-82443186D01*
X179000500Y-82315892D01*
X179000500Y-82184108D01*
X178966392Y-82056814D01*
X178900500Y-81942686D01*
X178807314Y-81849500D01*
X178750250Y-81816554D01*
X178693187Y-81783608D01*
X178629539Y-81766554D01*
X178565892Y-81749500D01*
X178434108Y-81749500D01*
X178306812Y-81783608D01*
X178192686Y-81849500D01*
X178192683Y-81849502D01*
X178099502Y-81942683D01*
X178099500Y-81942686D01*
X178033608Y-82056812D01*
X177999500Y-82184108D01*
X174000500Y-82184108D01*
X173966392Y-82056814D01*
X173900500Y-81942686D01*
X173807314Y-81849500D01*
X173750250Y-81816554D01*
X173693187Y-81783608D01*
X173629539Y-81766554D01*
X173565892Y-81749500D01*
X173434108Y-81749500D01*
X173306812Y-81783608D01*
X173192686Y-81849500D01*
X173192683Y-81849502D01*
X173099502Y-81942683D01*
X173099500Y-81942686D01*
X173033608Y-82056812D01*
X172999500Y-82184108D01*
X141891306Y-82184108D01*
X141980100Y-82095314D01*
X142045992Y-81981186D01*
X142080100Y-81853892D01*
X142080100Y-81722108D01*
X142045992Y-81594814D01*
X141980100Y-81480686D01*
X141886914Y-81387500D01*
X141818041Y-81347736D01*
X141772787Y-81321608D01*
X141709139Y-81304554D01*
X141645492Y-81287500D01*
X141513708Y-81287500D01*
X141386412Y-81321608D01*
X141272286Y-81387500D01*
X141272279Y-81387505D01*
X141271815Y-81387970D01*
X141271327Y-81388236D01*
X141265840Y-81392447D01*
X141265182Y-81391590D01*
X141210489Y-81421450D01*
X141140798Y-81416460D01*
X141084868Y-81374584D01*
X141069580Y-81347736D01*
X141069449Y-81347421D01*
X141064667Y-81335875D01*
X141064664Y-81335870D01*
X141064663Y-81335868D01*
X140960208Y-81179542D01*
X140960205Y-81179538D01*
X140827261Y-81046594D01*
X140827257Y-81046591D01*
X140670931Y-80942136D01*
X140670918Y-80942129D01*
X140497221Y-80870182D01*
X140497209Y-80870179D01*
X140312813Y-80833500D01*
X140312810Y-80833500D01*
X140124790Y-80833500D01*
X140124787Y-80833500D01*
X139940390Y-80870179D01*
X139940378Y-80870182D01*
X139766681Y-80942129D01*
X139766668Y-80942136D01*
X139610342Y-81046591D01*
X139610338Y-81046594D01*
X139477394Y-81179538D01*
X139477391Y-81179542D01*
X139372936Y-81335868D01*
X139372929Y-81335881D01*
X139300982Y-81509578D01*
X139300979Y-81509590D01*
X139264300Y-81693985D01*
X138673299Y-81693985D01*
X138653611Y-81595007D01*
X138636619Y-81509583D01*
X138624648Y-81480683D01*
X138564670Y-81335881D01*
X138564663Y-81335868D01*
X138460208Y-81179542D01*
X138460205Y-81179538D01*
X138327261Y-81046594D01*
X138327257Y-81046591D01*
X138170931Y-80942136D01*
X138170918Y-80942129D01*
X137997221Y-80870182D01*
X137997209Y-80870179D01*
X137812813Y-80833500D01*
X137812810Y-80833500D01*
X137624790Y-80833500D01*
X137624787Y-80833500D01*
X137440390Y-80870179D01*
X137440378Y-80870182D01*
X137266681Y-80942129D01*
X137266668Y-80942136D01*
X137110342Y-81046591D01*
X137110338Y-81046594D01*
X136977394Y-81179538D01*
X136977391Y-81179542D01*
X136872936Y-81335868D01*
X136872929Y-81335881D01*
X136800982Y-81509578D01*
X136800979Y-81509590D01*
X136764300Y-81693985D01*
X136472800Y-81693985D01*
X136472800Y-81689302D01*
X136441923Y-81494353D01*
X136380926Y-81306626D01*
X136291320Y-81130768D01*
X136291312Y-81130755D01*
X136265342Y-81095010D01*
X136265341Y-81095009D01*
X135701762Y-81658589D01*
X135684725Y-81595007D01*
X135618899Y-81480993D01*
X135525807Y-81387901D01*
X135411793Y-81322075D01*
X135348209Y-81305037D01*
X135911789Y-80741457D01*
X135876039Y-80715483D01*
X135700173Y-80625873D01*
X135512446Y-80564876D01*
X135317497Y-80534000D01*
X135120103Y-80534000D01*
X134925153Y-80564876D01*
X134737426Y-80625873D01*
X134561562Y-80715482D01*
X134561560Y-80715483D01*
X134525810Y-80741456D01*
X134525810Y-80741457D01*
X135089391Y-81305037D01*
X135025807Y-81322075D01*
X134911793Y-81387901D01*
X134818701Y-81480993D01*
X134752875Y-81595007D01*
X134735837Y-81658590D01*
X134172257Y-81095010D01*
X134172256Y-81095010D01*
X134146283Y-81130760D01*
X134146282Y-81130762D01*
X134056673Y-81306626D01*
X133995676Y-81494353D01*
X133964800Y-81689302D01*
X131325500Y-81689302D01*
X131325500Y-80299708D01*
X159308100Y-80299708D01*
X159308100Y-80431491D01*
X159342208Y-80558787D01*
X159345724Y-80564876D01*
X159408100Y-80672914D01*
X159501286Y-80766100D01*
X159615414Y-80831992D01*
X159742708Y-80866100D01*
X159742710Y-80866100D01*
X159874490Y-80866100D01*
X159874492Y-80866100D01*
X160001786Y-80831992D01*
X160115914Y-80766100D01*
X160209100Y-80672914D01*
X160274992Y-80558786D01*
X160309100Y-80431492D01*
X160309100Y-80299708D01*
X160274992Y-80172414D01*
X160209100Y-80058286D01*
X160115914Y-79965100D01*
X160058850Y-79932154D01*
X160001787Y-79899208D01*
X159938139Y-79882154D01*
X159874492Y-79865100D01*
X159742708Y-79865100D01*
X159615412Y-79899208D01*
X159501286Y-79965100D01*
X159501283Y-79965102D01*
X159408102Y-80058283D01*
X159408100Y-80058286D01*
X159342208Y-80172412D01*
X159308100Y-80299708D01*
X131325500Y-80299708D01*
X131325500Y-78184108D01*
X153499500Y-78184108D01*
X153499500Y-78315891D01*
X153533608Y-78443187D01*
X153566554Y-78500250D01*
X153599500Y-78557314D01*
X153692686Y-78650500D01*
X153806814Y-78716392D01*
X153934108Y-78750500D01*
X153934110Y-78750500D01*
X154065890Y-78750500D01*
X154065892Y-78750500D01*
X154193186Y-78716392D01*
X154307314Y-78650500D01*
X154400500Y-78557314D01*
X154466392Y-78443186D01*
X154500500Y-78315892D01*
X154500500Y-78184108D01*
X154466392Y-78056814D01*
X154400500Y-77942686D01*
X154307314Y-77849500D01*
X154250250Y-77816554D01*
X154193187Y-77783608D01*
X154129539Y-77766554D01*
X154065892Y-77749500D01*
X153934108Y-77749500D01*
X153806812Y-77783608D01*
X153692686Y-77849500D01*
X153692683Y-77849502D01*
X153599502Y-77942683D01*
X153599500Y-77942686D01*
X153533608Y-78056812D01*
X153499500Y-78184108D01*
X131325500Y-78184108D01*
X131325500Y-76950864D01*
X131325816Y-76942019D01*
X131336337Y-76794900D01*
X131338855Y-76777387D01*
X131380681Y-76585120D01*
X131385658Y-76568169D01*
X131454430Y-76383783D01*
X131461765Y-76367721D01*
X131556070Y-76195013D01*
X131565630Y-76180140D01*
X131683545Y-76022623D01*
X131695119Y-76009266D01*
X131834262Y-75870123D01*
X131847616Y-75858551D01*
X132005151Y-75740621D01*
X132020012Y-75731071D01*
X132192721Y-75636765D01*
X132208783Y-75629430D01*
X132393169Y-75560658D01*
X132410120Y-75555681D01*
X132602389Y-75513854D01*
X132619895Y-75511337D01*
X132767019Y-75500815D01*
X132775864Y-75500500D01*
X187349136Y-75500500D01*
X187357980Y-75500815D01*
G37*
%TD.AperFunction*%
%TD*%
M02*
