M48
; DRILL file KiCad 10.0.0 date 2026-09-03T16:49:18
; FORMAT={-:-/ absolute / metric / decimal}
; #@! TF.CreationDate,2026-09-03T16:49:18-04:00
; #@! TF.GenerationSoftware,Kicad,Pcbnew,10.0.0
; #@! TF.FileFunction,Plated,1,4,PTH
FMAT,2
METRIC
; #@! TA.AperFunction,Plated,PTH,ViaDrill
T1C0.300
; #@! TA.AperFunction,Plated,PTH,ComponentDrill
T2C1.000
; #@! TA.AperFunction,Plated,PTH,ComponentDrill
T3C1.200
%
G90
G05
T1
X133.45Y-77.2
X133.45Y-83.9
X133.45Y-90.0
X133.45Y-97.1
X133.45Y-102.6
X137.25Y-77.2
X137.25Y-84.8
X137.25Y-92.4
X137.25Y-99.55
X140.55Y-76.688
X141.05Y-88.6
X141.05Y-96.2
X141.05Y-102.6
X141.58Y-81.788
X144.85Y-77.2
X144.85Y-81.0
X144.85Y-84.8
X144.85Y-99.55
X145.05Y-89.75
X146.4Y-83.95
X147.85Y-85.05
X148.65Y-77.2
X148.65Y-92.4
X148.65Y-96.2
X148.65Y-102.6
X151.75Y-88.5
X152.45Y-99.55
X153.5Y-94.5
X153.95Y-79.95
X154.0Y-78.25
X154.45Y-84.85
X155.5Y-87.5
X156.25Y-96.2
X156.25Y-102.6
X156.8Y-91.1
X156.845Y-77.6
X156.85Y-84.9
X158.25Y-85.5
X158.267Y-83.376
X159.1Y-77.25
X159.7Y-83.2
X159.809Y-80.366
X160.05Y-99.55
X161.3Y-85.2
X161.6Y-77.2
X163.85Y-102.6
X164.09Y-83.34
X164.1Y-77.2
X165.0Y-88.6
X165.0Y-92.4
X165.35Y-96.2
X166.2Y-82.15
X166.35Y-77.5
X167.65Y-84.8
X167.65Y-99.55
X168.484Y-80.366
X169.45Y-87.2
X169.5Y-92.5
X171.45Y-77.2
X171.45Y-95.5
X171.45Y-102.6
X172.25Y-81.0
X172.6Y-90.5
X173.5Y-82.25
X175.25Y-84.8
X175.25Y-92.4
X175.25Y-98.5
X178.275Y-83.775
X178.5Y-82.25
X179.05Y-77.2
X179.05Y-102.6
X179.3Y-90.0
X182.85Y-92.4
X182.85Y-99.55
X186.65Y-77.2
X186.65Y-81.0
X186.65Y-96.2
X186.65Y-102.6
X186.9Y-90.0
X187.3Y-84.2
X187.766Y-87.25
T2
X135.219Y-81.788
X137.719Y-81.788
X140.219Y-81.788
T3
X143.025Y-93.05
X143.025Y-96.45
X144.975Y-93.675
X144.975Y-95.825
X159.55Y-95.725
X160.175Y-93.775
X162.325Y-93.775
X162.95Y-95.725
X177.525Y-93.675
X177.525Y-95.825
X179.475Y-93.05
X179.475Y-96.45
M30
