%TF.GenerationSoftware,KiCad,Pcbnew,10.0.3*%
%TF.CreationDate,2026-08-29T01:38:31-04:00*%
%TF.ProjectId,MeshNetBoard,4d657368-4e65-4744-926f-6172642e6b69,rev?*%
%TF.SameCoordinates,Original*%
%TF.FileFunction,Copper,L1,Top*%
%TF.FilePolarity,Positive*%
%FSLAX46Y46*%
G04 Gerber Fmt 4.6, Leading zero omitted, Abs format (unit mm)*
G04 Created by KiCad (PCBNEW 10.0.3) date 2026-08-29 01:38:31*
%MOMM*%
%LPD*%
G01*
G04 APERTURE LIST*
G04 Aperture macros list*
%AMRoundRect*
0 Rectangle with rounded corners*
0 $1 Rounding radius*
0 $2 $3 $4 $5 $6 $7 $8 $9 X,Y pos of 4 corners*
0 Add a 4 corners polygon primitive as box body*
4,1,4,$2,$3,$4,$5,$6,$7,$8,$9,$2,$3,0*
0 Add four circle primitives for the rounded corners*
1,1,$1+$1,$2,$3*
1,1,$1+$1,$4,$5*
1,1,$1+$1,$6,$7*
1,1,$1+$1,$8,$9*
0 Add four rect primitives between the rounded corners*
20,1,$1+$1,$2,$3,$4,$5,0*
20,1,$1+$1,$4,$5,$6,$7,0*
20,1,$1+$1,$6,$7,$8,$9,0*
20,1,$1+$1,$8,$9,$2,$3,0*%
G04 Aperture macros list end*
%TA.AperFunction,SMDPad,CuDef*%
%ADD10RoundRect,0.237500X-0.250000X-0.237500X0.250000X-0.237500X0.250000X0.237500X-0.250000X0.237500X0*%
%TD*%
%TA.AperFunction,ComponentPad*%
%ADD11C,2.600000*%
%TD*%
%TA.AperFunction,ConnectorPad*%
%ADD12C,4.400000*%
%TD*%
%TA.AperFunction,SMDPad,CuDef*%
%ADD13RoundRect,0.237500X0.300000X0.237500X-0.300000X0.237500X-0.300000X-0.237500X0.300000X-0.237500X0*%
%TD*%
%TA.AperFunction,SMDPad,CuDef*%
%ADD14RoundRect,0.237500X-0.300000X-0.237500X0.300000X-0.237500X0.300000X0.237500X-0.300000X0.237500X0*%
%TD*%
%TA.AperFunction,SMDPad,CuDef*%
%ADD15RoundRect,0.237500X0.237500X-0.250000X0.237500X0.250000X-0.237500X0.250000X-0.237500X-0.250000X0*%
%TD*%
%TA.AperFunction,SMDPad,CuDef*%
%ADD16RoundRect,0.152400X1.063600X0.609600X-1.063600X0.609600X-1.063600X-0.609600X1.063600X-0.609600X0*%
%TD*%
%TA.AperFunction,ComponentPad*%
%ADD17C,1.524000*%
%TD*%
%TA.AperFunction,SMDPad,CuDef*%
%ADD18RoundRect,0.152400X-1.063600X-0.609600X1.063600X-0.609600X1.063600X0.609600X-1.063600X0.609600X0*%
%TD*%
%TA.AperFunction,SMDPad,CuDef*%
%ADD19RoundRect,0.237500X-0.237500X0.287500X-0.237500X-0.287500X0.237500X-0.287500X0.237500X0.287500X0*%
%TD*%
%TA.AperFunction,SMDPad,CuDef*%
%ADD20RoundRect,0.250001X0.624999X-0.462499X0.624999X0.462499X-0.624999X0.462499X-0.624999X-0.462499X0*%
%TD*%
%TA.AperFunction,SMDPad,CuDef*%
%ADD21RoundRect,0.250000X0.650000X-1.000000X0.650000X1.000000X-0.650000X1.000000X-0.650000X-1.000000X0*%
%TD*%
%TA.AperFunction,ComponentPad*%
%ADD22R,1.700000X1.700000*%
%TD*%
%TA.AperFunction,ComponentPad*%
%ADD23C,1.700000*%
%TD*%
%TA.AperFunction,SMDPad,CuDef*%
%ADD24R,0.711200X0.228600*%
%TD*%
%TA.AperFunction,SMDPad,CuDef*%
%ADD25RoundRect,0.237500X0.250000X0.237500X-0.250000X0.237500X-0.250000X-0.237500X0.250000X-0.237500X0*%
%TD*%
%TA.AperFunction,SMDPad,CuDef*%
%ADD26RoundRect,0.150000X0.512500X0.150000X-0.512500X0.150000X-0.512500X-0.150000X0.512500X-0.150000X0*%
%TD*%
%TA.AperFunction,SMDPad,CuDef*%
%ADD27R,1.200000X0.700000*%
%TD*%
%TA.AperFunction,SMDPad,CuDef*%
%ADD28R,0.800000X1.000000*%
%TD*%
%TA.AperFunction,SMDPad,CuDef*%
%ADD29R,1.200000X1.000000*%
%TD*%
%TA.AperFunction,SMDPad,CuDef*%
%ADD30R,2.800000X1.000000*%
%TD*%
%TA.AperFunction,SMDPad,CuDef*%
%ADD31R,1.900000X1.300000*%
%TD*%
%TA.AperFunction,SMDPad,CuDef*%
%ADD32RoundRect,0.150000X-0.512500X-0.150000X0.512500X-0.150000X0.512500X0.150000X-0.512500X0.150000X0*%
%TD*%
%TA.AperFunction,ComponentPad*%
%ADD33RoundRect,0.250000X-0.350000X-0.625000X0.350000X-0.625000X0.350000X0.625000X-0.350000X0.625000X0*%
%TD*%
%TA.AperFunction,ComponentPad*%
%ADD34O,1.200000X1.750000*%
%TD*%
%TA.AperFunction,SMDPad,CuDef*%
%ADD35RoundRect,0.150000X0.587500X0.150000X-0.587500X0.150000X-0.587500X-0.150000X0.587500X-0.150000X0*%
%TD*%
%TA.AperFunction,ComponentPad*%
%ADD36O,2.200000X3.500000*%
%TD*%
%TA.AperFunction,ComponentPad*%
%ADD37R,1.500000X2.500000*%
%TD*%
%TA.AperFunction,ComponentPad*%
%ADD38O,1.500000X2.500000*%
%TD*%
%TA.AperFunction,ComponentPad*%
%ADD39C,2.000000*%
%TD*%
%TA.AperFunction,ViaPad*%
%ADD40C,0.600000*%
%TD*%
%TA.AperFunction,Conductor*%
%ADD41C,0.270000*%
%TD*%
%TA.AperFunction,Conductor*%
%ADD42C,0.275000*%
%TD*%
%TA.AperFunction,Conductor*%
%ADD43C,0.400000*%
%TD*%
G04 APERTURE END LIST*
D10*
%TO.P,R8,1*%
%TO.N,3v3*%
X180922500Y-44230000D03*
%TO.P,R8,2*%
%TO.N,SD_DATA*%
X182747500Y-44230000D03*
%TD*%
D11*
%TO.P,H1,1,1_1*%
%TO.N,GND*%
X154475000Y-51000000D03*
D12*
X154475000Y-51000000D03*
%TD*%
D13*
%TO.P,C6,1*%
%TO.N,5v*%
X174762500Y-27112500D03*
%TO.P,C6,2*%
%TO.N,GND*%
X173037500Y-27112500D03*
%TD*%
D14*
%TO.P,C7,1*%
%TO.N,+BATT*%
X177225000Y-27862500D03*
%TO.P,C7,2*%
%TO.N,GND*%
X178950000Y-27862500D03*
%TD*%
D15*
%TO.P,R15,1*%
%TO.N,Net-(J3-DAT1)*%
X182650000Y-52862500D03*
%TO.P,R15,2*%
%TO.N,3v3*%
X182650000Y-51037500D03*
%TD*%
D10*
%TO.P,R5,1*%
%TO.N,3v3*%
X181925000Y-34193750D03*
%TO.P,R5,2*%
%TO.N,Net-(U4--)*%
X183750000Y-34193750D03*
%TD*%
D16*
%TO.P,U1,1,GPIO1_A0_D0_1*%
%TO.N,LED1*%
X153625000Y-29100000D03*
D17*
X154460000Y-29100000D03*
D16*
%TO.P,U1,2,GPIO2_A1_D1_2*%
%TO.N,LED2*%
X153625000Y-31640000D03*
D17*
X154460000Y-31640000D03*
D16*
%TO.P,U1,3,GPIO3_A2_D2_3*%
%TO.N,LED3*%
X153625000Y-34180000D03*
D17*
X154460000Y-34180000D03*
D16*
%TO.P,U1,4,GPIO4_A3_D3_4*%
%TO.N,LED4*%
X153625000Y-36720000D03*
D17*
X154460000Y-36720000D03*
D16*
%TO.P,U1,5,GPIO5_A4_D4_SDA_5*%
%TO.N,SD_DATA*%
X153625000Y-39260000D03*
D17*
X154460000Y-39260000D03*
D16*
%TO.P,U1,6,GPIO6_A5_D5_SCL_6*%
%TO.N,unconnected-(U1-GPIO6_A5_D5_SCL-Pad6)_1*%
X153625000Y-41800000D03*
D17*
%TO.N,unconnected-(U1-GPIO6_A5_D5_SCL-Pad6)*%
X154460000Y-41800000D03*
D16*
%TO.P,U1,7,GPIO43_D6_TX_7*%
%TO.N,unconnected-(U1-GPIO43_D6_TX-Pad7)*%
X153625000Y-44340000D03*
D17*
%TO.N,unconnected-(U1-GPIO43_D6_TX-Pad7)_1*%
X154460000Y-44340000D03*
%TO.P,U1,8,GPIO44_D7_RX_8*%
%TO.N,GPIO44*%
X169700000Y-44340000D03*
D18*
X170535000Y-44340000D03*
D17*
%TO.P,U1,9,GPIO7_A8_D8_SCK_9*%
%TO.N,SCK*%
X169700000Y-41800000D03*
D18*
X170535000Y-41800000D03*
D17*
%TO.P,U1,10,GPIO8_A9_D9_MISO_10*%
%TO.N,MISO*%
X169700000Y-39260000D03*
D18*
X170535000Y-39260000D03*
D17*
%TO.P,U1,11,GPIO9_A10_D10_MOSI_11*%
%TO.N,MOSI*%
X169700000Y-36720000D03*
D18*
X170535000Y-36720000D03*
D17*
%TO.P,U1,12,3V3_12*%
%TO.N,3v3*%
X169700000Y-34180000D03*
D18*
X170535000Y-34180000D03*
D17*
%TO.P,U1,13,GND_13*%
%TO.N,GND*%
X169700000Y-31640000D03*
D18*
X170535000Y-31640000D03*
D17*
%TO.P,U1,14,VBUS_14*%
%TO.N,5v*%
X169700000Y-29100000D03*
D18*
X170535000Y-29100000D03*
%TD*%
D19*
%TO.P,L1,1,1_1*%
%TO.N,Net-(U2-LX2)*%
X194600000Y-30825000D03*
%TO.P,L1,2,2_2*%
%TO.N,Net-(U2-LX1)*%
X194600000Y-32575000D03*
%TD*%
D20*
%TO.P,D6,1,K_1*%
%TO.N,Net-(D6-K)*%
X181000000Y-30350000D03*
%TO.P,D6,2,A_2*%
%TO.N,5v*%
X181000000Y-27375000D03*
%TD*%
D21*
%TO.P,D1,1,K_1*%
%TO.N,Net-(D1-K)*%
X200775000Y-31700000D03*
%TO.P,D1,2,A_2*%
%TO.N,Net-(D1-A)*%
X200775000Y-27700000D03*
%TD*%
D14*
%TO.P,C1,1*%
%TO.N,Net-(D1-K)*%
X196225000Y-29210000D03*
%TO.P,C1,2*%
%TO.N,GND*%
X197950000Y-29210000D03*
%TD*%
D22*
%TO.P,JP1,1,A_1*%
%TO.N,3v3*%
X200850000Y-37620000D03*
D23*
%TO.P,JP1,2,B_2*%
%TO.N,Net-(D1-K)*%
X200850000Y-35080000D03*
%TD*%
D11*
%TO.P,H3,1,1_1*%
%TO.N,GND*%
X182000000Y-39525000D03*
D12*
X182000000Y-39525000D03*
%TD*%
D24*
%TO.P,U2,1,VOUT_1*%
%TO.N,Net-(D1-A)*%
X196224800Y-31009999D03*
%TO.P,U2,2,LX2_2*%
%TO.N,Net-(U2-LX2)*%
X196224800Y-31510000D03*
%TO.P,U2,3,LX1_3*%
%TO.N,Net-(U2-LX1)*%
X196224800Y-32010000D03*
%TO.P,U2,4,VIN_4*%
%TO.N,Net-(Q1-D)*%
X196224800Y-32510001D03*
%TO.P,U2,5,EN_5*%
%TO.N,+BATT*%
X197825000Y-32510001D03*
%TO.P,U2,6,MODE_6*%
%TO.N,GND*%
X197825000Y-32010000D03*
%TO.P,U2,7,GND_7*%
X197825000Y-31510000D03*
%TO.P,U2,8,FB_8*%
%TO.N,Net-(U2-FB)*%
X197825000Y-31009999D03*
%TD*%
D13*
%TO.P,C4,1*%
%TO.N,3v3*%
X182735000Y-48930000D03*
%TO.P,C4,2*%
%TO.N,GND*%
X181010000Y-48930000D03*
%TD*%
D25*
%TO.P,R12,1*%
%TO.N,Net-(U4--)*%
X183787500Y-36193750D03*
%TO.P,R12,2*%
%TO.N,GND*%
X181962500Y-36193750D03*
%TD*%
D10*
%TO.P,R13,1*%
%TO.N,Net-(U5-STAT)*%
X177175000Y-29612500D03*
%TO.P,R13,2*%
%TO.N,Net-(D6-K)*%
X179000000Y-29612500D03*
%TD*%
D25*
%TO.P,R14,1*%
%TO.N,GPIO44*%
X180950000Y-52475000D03*
%TO.P,R14,2*%
%TO.N,3v3*%
X179125000Y-52475000D03*
%TD*%
%TO.P,R2,1*%
%TO.N,Net-(U2-FB)*%
X197939700Y-36650000D03*
%TO.P,R2,2*%
%TO.N,GND*%
X196114700Y-36650000D03*
%TD*%
D26*
%TO.P,U5,1,STAT_1*%
%TO.N,Net-(U5-STAT)*%
X175087500Y-30712500D03*
%TO.P,U5,2,V_{SS}_2*%
%TO.N,GND*%
X175087500Y-29762500D03*
%TO.P,U5,3,V_{BAT}_3*%
%TO.N,+BATT*%
X175087500Y-28812500D03*
%TO.P,U5,4,V_{DD}_4*%
%TO.N,5v*%
X172812500Y-28812500D03*
%TO.P,U5,5,PROG_5*%
%TO.N,Net-(U5-PROG)*%
X172812500Y-30712500D03*
%TD*%
D14*
%TO.P,C2,1*%
%TO.N,Net-(Q1-D)*%
X196164700Y-34307800D03*
%TO.P,C2,2*%
%TO.N,GND*%
X197889700Y-34307800D03*
%TD*%
D13*
%TO.P,C5,1*%
%TO.N,3v3*%
X182735000Y-46930000D03*
%TO.P,C5,2*%
%TO.N,GND*%
X181010000Y-46930000D03*
%TD*%
D27*
%TO.P,J3,1,DAT2_1*%
%TO.N,unconnected-(J3-DAT2-Pad1)*%
X186010000Y-44555000D03*
%TO.P,J3,2,DAT3/CD_2*%
%TO.N,SD_DATA*%
X186010000Y-45655000D03*
%TO.P,J3,3,CMD_3*%
%TO.N,MOSI*%
X186010000Y-46755000D03*
%TO.P,J3,4,VDD_4*%
%TO.N,3v3*%
X186010000Y-47855000D03*
%TO.P,J3,5,CLK_5*%
%TO.N,SCK*%
X186010000Y-48955000D03*
%TO.P,J3,6,VSS_6*%
%TO.N,GND*%
X186010000Y-50055000D03*
%TO.P,J3,7,DAT0_7*%
%TO.N,MISO*%
X186010000Y-51155000D03*
%TO.P,J3,8,DAT1_8*%
%TO.N,Net-(J3-DAT1)*%
X186010000Y-52255000D03*
%TO.P,J3,9,DET_B_9*%
%TO.N,GPIO44*%
X186010000Y-53205000D03*
D28*
%TO.P,J3,10,DET_A_10*%
%TO.N,GND*%
X196510000Y-54155000D03*
D29*
%TO.P,J3,SH,SHIELD_SH*%
X190310000Y-54155000D03*
D30*
X200660000Y-54155000D03*
D29*
X186010000Y-43005000D03*
D31*
X201110000Y-40655000D03*
%TD*%
D32*
%TO.P,U4,1,+_1*%
%TO.N,Net-(U4-+)*%
X187150000Y-33900000D03*
%TO.P,U4,2,V-_2*%
%TO.N,GND*%
X187150000Y-34850000D03*
%TO.P,U4,3,-_3*%
%TO.N,Net-(U4--)*%
X187150000Y-35800000D03*
%TO.P,U4,4*%
%TO.N,Net-(Q1-G)*%
X189425000Y-35800000D03*
%TO.P,U4,5,V+_5*%
%TO.N,+BATT*%
X189425000Y-33900000D03*
%TD*%
D33*
%TO.P,J2,1,Pin_1_1*%
%TO.N,Net-(J2-Pin_1)*%
X173800000Y-48500000D03*
D34*
%TO.P,J2,2,Pin_2_2*%
%TO.N,GND*%
X175800000Y-48500000D03*
%TD*%
D10*
%TO.P,R9,1*%
%TO.N,Net-(U5-PROG)*%
X177162500Y-31412500D03*
%TO.P,R9,2*%
%TO.N,GND*%
X178987500Y-31412500D03*
%TD*%
D35*
%TO.P,Q1,1,G_1*%
%TO.N,Net-(Q1-G)*%
X193587500Y-35800000D03*
%TO.P,Q1,2,S_2*%
%TO.N,+BATT*%
X193587500Y-33900000D03*
%TO.P,Q1,3,D_3*%
%TO.N,Net-(Q1-D)*%
X191712500Y-34850000D03*
%TD*%
D11*
%TO.P,H2,1,1_1*%
%TO.N,GND*%
X168675000Y-50725000D03*
D12*
X168675000Y-50725000D03*
%TD*%
D13*
%TO.P,C3,1*%
%TO.N,GND*%
X192412500Y-32250000D03*
%TO.P,C3,2*%
%TO.N,+BATT*%
X190687500Y-32250000D03*
%TD*%
D10*
%TO.P,R1,1*%
%TO.N,Net-(D1-K)*%
X196237500Y-27250000D03*
%TO.P,R1,2*%
%TO.N,Net-(U2-FB)*%
X198062500Y-27250000D03*
%TD*%
D36*
%TO.P,SW2,*%
%TO.N,*%
X192100000Y-28350000D03*
X183900000Y-28350000D03*
D37*
%TO.P,SW2,1,A_1*%
%TO.N,+BATT*%
X190000000Y-28350000D03*
D38*
%TO.P,SW2,2,B_2*%
%TO.N,Net-(J2-Pin_1)*%
X188000000Y-28350000D03*
%TO.P,SW2,3*%
%TO.N,N/C*%
X186000000Y-28350000D03*
%TD*%
D25*
%TO.P,R4,1*%
%TO.N,Net-(U4-+)*%
X184900000Y-32250000D03*
%TO.P,R4,2*%
%TO.N,GND*%
X183075000Y-32250000D03*
%TD*%
%TO.P,R3,1*%
%TO.N,+BATT*%
X188712500Y-32250000D03*
%TO.P,R3,2*%
%TO.N,Net-(U4-+)*%
X186887500Y-32250000D03*
%TD*%
D39*
%TO.P,SW1,1,1_1*%
%TO.N,Net-(D2-A)*%
X164800000Y-48700000D03*
X158300000Y-48700000D03*
%TO.P,SW1,2,2_2*%
%TO.N,3v3*%
X164800000Y-53200000D03*
X158300000Y-53200000D03*
%TD*%
D40*
%TO.N,3v3*%
X184200000Y-48275000D03*
X178912500Y-51000000D03*
X184150000Y-47350000D03*
X180662500Y-34143750D03*
X180975000Y-50875000D03*
X179400000Y-42475000D03*
%TO.N,SD_DATA*%
X182725000Y-43225000D03*
X178836719Y-44588281D03*
X177575000Y-45850000D03*
X173650000Y-45850000D03*
%TO.N,GND*%
X199325000Y-40625000D03*
X193650000Y-31700000D03*
X180687500Y-36168750D03*
X190275000Y-53075000D03*
X197450000Y-54150000D03*
X171625000Y-27100000D03*
X181875000Y-31750000D03*
X177675000Y-26725000D03*
X179875000Y-47875000D03*
X187375000Y-50025000D03*
X197125000Y-28250000D03*
X196200000Y-35475000D03*
X178075000Y-30475000D03*
X198750000Y-54150000D03*
X186025000Y-41450000D03*
X173575000Y-29725000D03*
X188925000Y-34850000D03*
X197100000Y-31750000D03*
X197875000Y-35450000D03*
X179900000Y-45825000D03*
%TO.N,5v*%
X175925000Y-27075000D03*
X179275000Y-26625000D03*
%TO.N,+BATT*%
X195575000Y-33250000D03*
X197775000Y-33075000D03*
%TO.N,MISO*%
X184300000Y-51150000D03*
%TO.N,Net-(D1-K)*%
X195825000Y-30100000D03*
X199525000Y-29300000D03*
%TO.N,Net-(D1-A)*%
X200775000Y-29450000D03*
X197751974Y-30184999D03*
%TO.N,Net-(J2-Pin_1)*%
X176200000Y-52875000D03*
%TD*%
%TO.N,3v3*%
D41*
X178912500Y-51000000D02*
X178912500Y-52262500D01*
D42*
X179400000Y-42475000D02*
X180922500Y-43997500D01*
X180922500Y-43997500D02*
X180922500Y-44230000D01*
X184655000Y-47855000D02*
X186010000Y-47855000D01*
X180712500Y-34193750D02*
X180662500Y-34143750D01*
X183155000Y-47350000D02*
X182735000Y-46930000D01*
X184200000Y-48275000D02*
X183390000Y-48275000D01*
X183390000Y-48275000D02*
X182735000Y-48930000D01*
D41*
X179012500Y-52637500D02*
X179225000Y-52850000D01*
D42*
X184150000Y-47350000D02*
X184655000Y-47855000D01*
X184200000Y-48275000D02*
X184620000Y-47855000D01*
X184620000Y-47855000D02*
X186010000Y-47855000D01*
D41*
X180975000Y-50875000D02*
X182487500Y-50875000D01*
D42*
X184150000Y-47350000D02*
X183155000Y-47350000D01*
D41*
X182487500Y-50875000D02*
X182650000Y-51037500D01*
D42*
X181925000Y-34193750D02*
X180712500Y-34193750D01*
%TO.N,SD_DATA*%
X182725000Y-44207500D02*
X182747500Y-44230000D01*
X177575000Y-45850000D02*
X178836719Y-44588281D01*
X173535615Y-45964385D02*
X173650000Y-45850000D01*
X182725000Y-43225000D02*
X182725000Y-44207500D01*
X154460000Y-39260000D02*
X161164385Y-45964385D01*
X161164385Y-45964385D02*
X173535615Y-45964385D01*
X182835000Y-44230000D02*
X184260000Y-45655000D01*
X184260000Y-45655000D02*
X186010000Y-45655000D01*
%TO.N,GND*%
X186025000Y-41450000D02*
X186025000Y-42990000D01*
X196515000Y-54150000D02*
X196510000Y-54155000D01*
X186025000Y-42990000D02*
X186010000Y-43005000D01*
X196200000Y-36564700D02*
X196114700Y-36650000D01*
X201080000Y-40625000D02*
X201110000Y-40655000D01*
X187375000Y-50025000D02*
X186040000Y-50025000D01*
X188925000Y-34850000D02*
X187150000Y-34850000D01*
X180687500Y-36168750D02*
X181937500Y-36168750D01*
X186040000Y-50025000D02*
X186010000Y-50055000D01*
X199325000Y-40625000D02*
X201080000Y-40625000D01*
X197100000Y-31750000D02*
X197585000Y-31750000D01*
X197875000Y-34322500D02*
X197889700Y-34307800D01*
X181875000Y-31750000D02*
X182575000Y-31750000D01*
X197450000Y-54150000D02*
X196515000Y-54150000D01*
X181937500Y-36168750D02*
X181962500Y-36193750D01*
X175050000Y-29725000D02*
X175087500Y-29762500D01*
X197565000Y-31750000D02*
X197825000Y-32010000D01*
X197585000Y-31750000D02*
X197825000Y-31510000D01*
X173025000Y-27100000D02*
X173037500Y-27112500D01*
X190275000Y-53075000D02*
X190275000Y-54120000D01*
X198750000Y-54150000D02*
X200655000Y-54150000D01*
X196200000Y-35475000D02*
X196200000Y-36564700D01*
X178075000Y-30475000D02*
X178075000Y-30500000D01*
X173575000Y-29725000D02*
X175050000Y-29725000D01*
X197825000Y-32010000D02*
X197825000Y-31510000D01*
D41*
X197125000Y-28385000D02*
X197950000Y-29210000D01*
D42*
X197875000Y-35450000D02*
X197875000Y-34322500D01*
X197100000Y-31750000D02*
X197565000Y-31750000D01*
X200655000Y-54150000D02*
X200660000Y-54155000D01*
D41*
X178950000Y-27862500D02*
X178812500Y-27862500D01*
D42*
X193650000Y-31700000D02*
X192962500Y-31700000D01*
X171625000Y-27100000D02*
X173025000Y-27100000D01*
X179900000Y-45825000D02*
X179905000Y-45825000D01*
D41*
X178812500Y-27862500D02*
X177675000Y-26725000D01*
D42*
X197960000Y-29200000D02*
X197950000Y-29210000D01*
X182575000Y-31750000D02*
X183075000Y-32250000D01*
X178075000Y-30500000D02*
X178987500Y-31412500D01*
X179905000Y-45825000D02*
X181010000Y-46930000D01*
X179955000Y-47875000D02*
X181010000Y-48930000D01*
D41*
X197125000Y-28250000D02*
X197125000Y-28385000D01*
D42*
X179875000Y-47875000D02*
X179955000Y-47875000D01*
X190275000Y-54120000D02*
X190310000Y-54155000D01*
X192962500Y-31700000D02*
X192412500Y-32250000D01*
%TO.N,5v*%
X181250000Y-27375000D02*
X180962500Y-27087500D01*
D43*
X172812500Y-28812500D02*
X170822500Y-28812500D01*
X180250000Y-26625000D02*
X181000000Y-27375000D01*
D41*
X175887500Y-27112500D02*
X175925000Y-27075000D01*
D43*
X174762500Y-27112500D02*
X175887500Y-27112500D01*
X179275000Y-26625000D02*
X180250000Y-26625000D01*
D42*
X172812500Y-28812500D02*
X173062500Y-28812500D01*
X170822500Y-28812500D02*
X170535000Y-29100000D01*
%TO.N,+BATT*%
D43*
X193587500Y-33900000D02*
X194925000Y-33900000D01*
X176037500Y-27862500D02*
X177225000Y-27862500D01*
X187837500Y-31375000D02*
X188712500Y-32250000D01*
X194925000Y-33900000D02*
X195575000Y-33250000D01*
X175087500Y-28812500D02*
X176037500Y-27862500D01*
X197775000Y-33075000D02*
X197775000Y-32560001D01*
X178100000Y-28737500D02*
X181516180Y-28737500D01*
D42*
X197775000Y-32560001D02*
X197825000Y-32510001D01*
D43*
X177225000Y-27862500D02*
X178100000Y-28737500D01*
X181516180Y-28737500D02*
X184153680Y-31375000D01*
D42*
X192962500Y-33850000D02*
X193587500Y-33850000D01*
D43*
X184153680Y-31375000D02*
X187837500Y-31375000D01*
%TO.N,Net-(J3-DAT1)*%
D41*
X182650000Y-52862500D02*
X183257500Y-52255000D01*
X183257500Y-52255000D02*
X186010000Y-52255000D01*
%TO.N,Net-(U4--)*%
X183750000Y-34193750D02*
X183750000Y-36156250D01*
X183750000Y-36156250D02*
X183787500Y-36193750D01*
X186756250Y-36193750D02*
X187150000Y-35800000D01*
X183787500Y-36193750D02*
X186756250Y-36193750D01*
%TO.N,GPIO44*%
X185530000Y-53685000D02*
X182160000Y-53685000D01*
X182160000Y-53685000D02*
X180950000Y-52475000D01*
X173290000Y-44340000D02*
X170535000Y-44340000D01*
X186010000Y-53205000D02*
X185530000Y-53685000D01*
X180950000Y-52475000D02*
X180950000Y-52000000D01*
X180950000Y-52000000D02*
X173290000Y-44340000D01*
%TO.N,SCK*%
D42*
X180135000Y-50130000D02*
X171805000Y-41800000D01*
X184482244Y-48955000D02*
X183307244Y-50130000D01*
X183307244Y-50130000D02*
X180135000Y-50130000D01*
X186010000Y-48955000D02*
X184482244Y-48955000D01*
X171805000Y-41800000D02*
X170535000Y-41800000D01*
%TO.N,MISO*%
X186010000Y-51155000D02*
X184305000Y-51155000D01*
X184305000Y-51155000D02*
X184300000Y-51150000D01*
%TO.N,MOSI*%
X181267500Y-46117500D02*
X183819062Y-46117500D01*
X183819062Y-46117500D02*
X184456562Y-46755000D01*
X170535000Y-36720000D02*
X171870000Y-36720000D01*
X171870000Y-36720000D02*
X181267500Y-46117500D01*
X184456562Y-46755000D02*
X186010000Y-46755000D01*
%TO.N,Net-(U2-LX2)*%
D41*
X195285000Y-31510000D02*
X196224800Y-31510000D01*
X194600000Y-30825000D02*
X195285000Y-31510000D01*
%TO.N,Net-(U2-LX1)*%
D42*
X195165000Y-32010000D02*
X196224800Y-32010000D01*
X194600000Y-32575000D02*
X195165000Y-32010000D01*
%TO.N,Net-(D6-K)*%
X179000000Y-29612500D02*
X180262500Y-29612500D01*
X180262500Y-29612500D02*
X181000000Y-30350000D01*
%TO.N,Net-(D1-K)*%
D41*
X195825000Y-29610000D02*
X196225000Y-29210000D01*
X199525000Y-30450000D02*
X199525000Y-29300000D01*
D43*
X196225000Y-29210000D02*
X196225000Y-27262500D01*
D41*
X200775000Y-31700000D02*
X200775000Y-30650000D01*
X200775000Y-35005000D02*
X200850000Y-35080000D01*
X195825000Y-30100000D02*
X195825000Y-29610000D01*
X196225000Y-27262500D02*
X196237500Y-27250000D01*
X200775000Y-31700000D02*
X199525000Y-30450000D01*
X200775000Y-31700000D02*
X200052906Y-31700000D01*
D43*
X200775000Y-31700000D02*
X200775000Y-35005000D01*
D42*
X196025000Y-29185000D02*
X196050000Y-29210000D01*
%TO.N,Net-(D1-A)*%
D41*
X200507040Y-27967960D02*
X200775000Y-27700000D01*
X200775000Y-29450000D02*
X200775000Y-27700000D01*
X196224800Y-31009999D02*
X197049800Y-30184999D01*
X197049800Y-30184999D02*
X197751974Y-30184999D01*
%TO.N,Net-(Q1-D)*%
D42*
X195622500Y-34850000D02*
X196164700Y-34307800D01*
X191712500Y-34850000D02*
X195622500Y-34850000D01*
X196224800Y-34072700D02*
X195989700Y-34307800D01*
X196224800Y-32510001D02*
X196224800Y-34072700D01*
%TO.N,Net-(U2-FB)*%
D41*
X198822500Y-28010000D02*
X198822500Y-30012499D01*
X198464899Y-31009999D02*
X197825000Y-31009999D01*
X198822500Y-30012499D02*
X197825000Y-31009999D01*
X198062500Y-27250000D02*
X198822500Y-28010000D01*
X198762200Y-31307300D02*
X198464899Y-31009999D01*
X197939700Y-36650000D02*
X198762200Y-35827500D01*
X198762200Y-35827500D02*
X198762200Y-31307300D01*
%TO.N,Net-(U5-STAT)*%
D42*
X176075000Y-30712500D02*
X177175000Y-29612500D01*
X175087500Y-30712500D02*
X176075000Y-30712500D01*
%TO.N,Net-(U5-PROG)*%
X173512500Y-31412500D02*
X172812500Y-30712500D01*
X177162500Y-31412500D02*
X173512500Y-31412500D01*
%TO.N,Net-(U4-+)*%
X184900000Y-32250000D02*
X186887500Y-32250000D01*
X186887500Y-32250000D02*
X186887500Y-33637500D01*
X186887500Y-33637500D02*
X187150000Y-33900000D01*
%TO.N,Net-(Q1-G)*%
X193537500Y-35800000D02*
X193587500Y-35750000D01*
X189425000Y-35800000D02*
X193587500Y-35800000D01*
%TO.N,Net-(J2-Pin_1)*%
D43*
X173850043Y-50525043D02*
X173850043Y-48550043D01*
X176200000Y-52875000D02*
X173850043Y-50525043D01*
X173850043Y-48550043D02*
X173800000Y-48500000D01*
%TD*%
%TA.AperFunction,Conductor*%
%TO.N,+BATT*%
G36*
X190517192Y-26890184D02*
G01*
X190583701Y-26911579D01*
X190628088Y-26965539D01*
X190636255Y-27034929D01*
X190624497Y-27070432D01*
X190616758Y-27085620D01*
X190616757Y-27085624D01*
X190538910Y-27325210D01*
X190538910Y-27325213D01*
X190499500Y-27574038D01*
X190499500Y-29125961D01*
X190538910Y-29374785D01*
X190616760Y-29614383D01*
X190731132Y-29838848D01*
X190879201Y-30042649D01*
X190879205Y-30042654D01*
X190910259Y-30073708D01*
X190943744Y-30135031D01*
X190946565Y-30159617D01*
X190949999Y-30399999D01*
X190950000Y-30400000D01*
X191292481Y-30400000D01*
X191305483Y-30403121D01*
X191315368Y-30402130D01*
X191348776Y-30413515D01*
X191483019Y-30481915D01*
X191533815Y-30529889D01*
X191550705Y-30590225D01*
X191565995Y-31461758D01*
X191547489Y-31529132D01*
X191529704Y-31551606D01*
X191529661Y-31551648D01*
X191529658Y-31551651D01*
X191439096Y-31698475D01*
X191439092Y-31698484D01*
X191384826Y-31862247D01*
X191384826Y-31862248D01*
X191384825Y-31862248D01*
X191374500Y-31963315D01*
X191374500Y-32536669D01*
X191374501Y-32536687D01*
X191384825Y-32637752D01*
X191421109Y-32747249D01*
X191439092Y-32801516D01*
X191507039Y-32911676D01*
X191529661Y-32948351D01*
X191557768Y-32976458D01*
X191591253Y-33037781D01*
X191594068Y-33061963D01*
X191597812Y-33275308D01*
X191600000Y-33400000D01*
X193859384Y-33439638D01*
X193922304Y-33458079D01*
X194048484Y-33535908D01*
X194212247Y-33590174D01*
X194313323Y-33600500D01*
X194342912Y-33600499D01*
X194409949Y-33620182D01*
X194455706Y-33672984D01*
X194466671Y-33716764D01*
X194489391Y-34080265D01*
X194473927Y-34148402D01*
X194424080Y-34197361D01*
X194365633Y-34212000D01*
X192783100Y-34212000D01*
X192716061Y-34192315D01*
X192707099Y-34185979D01*
X192701863Y-34181917D01*
X192560396Y-34098255D01*
X192560393Y-34098254D01*
X192402573Y-34052402D01*
X192402567Y-34052401D01*
X192365701Y-34049500D01*
X192365694Y-34049500D01*
X191059306Y-34049500D01*
X191059298Y-34049500D01*
X191022432Y-34052401D01*
X191022426Y-34052402D01*
X190864606Y-34098254D01*
X190864603Y-34098255D01*
X190723137Y-34181917D01*
X190723129Y-34181923D01*
X190691374Y-34213680D01*
X190630052Y-34247166D01*
X190603692Y-34250000D01*
X189505514Y-34250000D01*
X189438475Y-34230315D01*
X189436623Y-34229102D01*
X189304185Y-34140609D01*
X189304172Y-34140602D01*
X189158501Y-34080264D01*
X189158489Y-34080261D01*
X189003845Y-34049500D01*
X189003842Y-34049500D01*
X188846158Y-34049500D01*
X188846155Y-34049500D01*
X188691510Y-34080261D01*
X188691498Y-34080264D01*
X188545824Y-34140604D01*
X188505890Y-34167287D01*
X188439213Y-34188164D01*
X188371833Y-34169679D01*
X188325143Y-34117700D01*
X188313000Y-34064184D01*
X188313000Y-33684313D01*
X188312999Y-33684298D01*
X188310098Y-33647432D01*
X188310097Y-33647426D01*
X188264245Y-33489606D01*
X188264244Y-33489603D01*
X188264244Y-33489602D01*
X188180581Y-33348135D01*
X188180579Y-33348133D01*
X188180576Y-33348129D01*
X188169078Y-33336631D01*
X188135593Y-33275308D01*
X188132777Y-33251088D01*
X188129516Y-33061963D01*
X188108832Y-31862248D01*
X188102175Y-31476138D01*
X188120701Y-31408769D01*
X188172709Y-31362110D01*
X188226157Y-31350000D01*
X189000000Y-31350000D01*
X189000000Y-31349999D01*
X188991111Y-30550000D01*
X188981316Y-29668489D01*
X189000254Y-29601237D01*
X189004980Y-29594240D01*
X189069524Y-29505405D01*
X189158884Y-29330025D01*
X189219709Y-29142826D01*
X189222380Y-29125961D01*
X189250500Y-28948422D01*
X189250500Y-27751577D01*
X189219709Y-27557173D01*
X189158882Y-27369970D01*
X189069523Y-27194594D01*
X188990348Y-27085620D01*
X188975265Y-27064860D01*
X188968339Y-27045448D01*
X188957003Y-27028233D01*
X188953006Y-27002475D01*
X188951786Y-26999054D01*
X188951593Y-26993394D01*
X188951429Y-26978633D01*
X188970364Y-26911383D01*
X189022655Y-26865043D01*
X189078596Y-26853297D01*
X190517192Y-26890184D01*
G37*
%TD.AperFunction*%
%TD*%
M02*
