%TF.GenerationSoftware,KiCad,Pcbnew,10.0.3*%
%TF.CreationDate,2026-08-29T01:38:31-04:00*%
%TF.ProjectId,MeshNetBoard,4d657368-4e65-4744-926f-6172642e6b69,rev?*%
%TF.SameCoordinates,Original*%
%TF.FileFunction,Legend,Top*%
%TF.FilePolarity,Positive*%
%FSLAX46Y46*%
G04 Gerber Fmt 4.6, Leading zero omitted, Abs format (unit mm)*
G04 Created by KiCad (PCBNEW 10.0.3) date 2026-08-29 01:38:31*
%MOMM*%
%LPD*%
G01*
G04 APERTURE LIST*
G04 Aperture macros list*
%AMRoundRect*
0 Rectangle with rounded corners*
0 $1 Rounding radius*
0 $2 $3 $4 $5 $6 $7 $8 $9 X,Y pos of 4 corners*
0 Add a 4 corners polygon primitive as box body*
4,1,4,$2,$3,$4,$5,$6,$7,$8,$9,$2,$3,0*
0 Add four circle primitives for the rounded corners*
1,1,$1+$1,$2,$3*
1,1,$1+$1,$4,$5*
1,1,$1+$1,$6,$7*
1,1,$1+$1,$8,$9*
0 Add four rect primitives between the rounded corners*
20,1,$1+$1,$2,$3,$4,$5,0*
20,1,$1+$1,$4,$5,$6,$7,0*
20,1,$1+$1,$6,$7,$8,$9,0*
20,1,$1+$1,$8,$9,$2,$3,0*%
G04 Aperture macros list end*
%ADD10C,0.150000*%
%ADD11C,0.120000*%
%ADD12C,0.127000*%
%ADD13C,0.100000*%
%ADD14C,0.504000*%
%ADD15C,0.152400*%
%ADD16RoundRect,0.237500X-0.250000X-0.237500X0.250000X-0.237500X0.250000X0.237500X-0.250000X0.237500X0*%
%ADD17C,2.600000*%
%ADD18C,4.400000*%
%ADD19RoundRect,0.237500X0.300000X0.237500X-0.300000X0.237500X-0.300000X-0.237500X0.300000X-0.237500X0*%
%ADD20RoundRect,0.237500X-0.300000X-0.237500X0.300000X-0.237500X0.300000X0.237500X-0.300000X0.237500X0*%
%ADD21RoundRect,0.237500X0.237500X-0.250000X0.237500X0.250000X-0.237500X0.250000X-0.237500X-0.250000X0*%
%ADD22RoundRect,0.152400X1.063600X0.609600X-1.063600X0.609600X-1.063600X-0.609600X1.063600X-0.609600X0*%
%ADD23C,1.524000*%
%ADD24RoundRect,0.152400X-1.063600X-0.609600X1.063600X-0.609600X1.063600X0.609600X-1.063600X0.609600X0*%
%ADD25RoundRect,0.237500X-0.237500X0.287500X-0.237500X-0.287500X0.237500X-0.287500X0.237500X0.287500X0*%
%ADD26RoundRect,0.250001X0.624999X-0.462499X0.624999X0.462499X-0.624999X0.462499X-0.624999X-0.462499X0*%
%ADD27RoundRect,0.250000X0.650000X-1.000000X0.650000X1.000000X-0.650000X1.000000X-0.650000X-1.000000X0*%
%ADD28R,1.700000X1.700000*%
%ADD29C,1.700000*%
%ADD30R,0.711200X0.228600*%
%ADD31RoundRect,0.237500X0.250000X0.237500X-0.250000X0.237500X-0.250000X-0.237500X0.250000X-0.237500X0*%
%ADD32RoundRect,0.150000X0.512500X0.150000X-0.512500X0.150000X-0.512500X-0.150000X0.512500X-0.150000X0*%
%ADD33R,1.200000X0.700000*%
%ADD34R,0.800000X1.000000*%
%ADD35R,1.200000X1.000000*%
%ADD36R,2.800000X1.000000*%
%ADD37R,1.900000X1.300000*%
%ADD38RoundRect,0.150000X-0.512500X-0.150000X0.512500X-0.150000X0.512500X0.150000X-0.512500X0.150000X0*%
%ADD39RoundRect,0.250000X-0.350000X-0.625000X0.350000X-0.625000X0.350000X0.625000X-0.350000X0.625000X0*%
%ADD40O,1.200000X1.750000*%
%ADD41RoundRect,0.150000X0.587500X0.150000X-0.587500X0.150000X-0.587500X-0.150000X0.587500X-0.150000X0*%
%ADD42O,2.200000X3.500000*%
%ADD43R,1.500000X2.500000*%
%ADD44O,1.500000X2.500000*%
%ADD45C,2.000000*%
G04 APERTURE END LIST*
D10*
X179108333Y-44704819D02*
X178775000Y-44228628D01*
X178536905Y-44704819D02*
X178536905Y-43704819D01*
X178536905Y-43704819D02*
X178917857Y-43704819D01*
X178917857Y-43704819D02*
X179013095Y-43752438D01*
X179013095Y-43752438D02*
X179060714Y-43800057D01*
X179060714Y-43800057D02*
X179108333Y-43895295D01*
X179108333Y-43895295D02*
X179108333Y-44038152D01*
X179108333Y-44038152D02*
X179060714Y-44133390D01*
X179060714Y-44133390D02*
X179013095Y-44181009D01*
X179013095Y-44181009D02*
X178917857Y-44228628D01*
X178917857Y-44228628D02*
X178536905Y-44228628D01*
X179679762Y-44133390D02*
X179584524Y-44085771D01*
X179584524Y-44085771D02*
X179536905Y-44038152D01*
X179536905Y-44038152D02*
X179489286Y-43942914D01*
X179489286Y-43942914D02*
X179489286Y-43895295D01*
X179489286Y-43895295D02*
X179536905Y-43800057D01*
X179536905Y-43800057D02*
X179584524Y-43752438D01*
X179584524Y-43752438D02*
X179679762Y-43704819D01*
X179679762Y-43704819D02*
X179870238Y-43704819D01*
X179870238Y-43704819D02*
X179965476Y-43752438D01*
X179965476Y-43752438D02*
X180013095Y-43800057D01*
X180013095Y-43800057D02*
X180060714Y-43895295D01*
X180060714Y-43895295D02*
X180060714Y-43942914D01*
X180060714Y-43942914D02*
X180013095Y-44038152D01*
X180013095Y-44038152D02*
X179965476Y-44085771D01*
X179965476Y-44085771D02*
X179870238Y-44133390D01*
X179870238Y-44133390D02*
X179679762Y-44133390D01*
X179679762Y-44133390D02*
X179584524Y-44181009D01*
X179584524Y-44181009D02*
X179536905Y-44228628D01*
X179536905Y-44228628D02*
X179489286Y-44323866D01*
X179489286Y-44323866D02*
X179489286Y-44514342D01*
X179489286Y-44514342D02*
X179536905Y-44609580D01*
X179536905Y-44609580D02*
X179584524Y-44657200D01*
X179584524Y-44657200D02*
X179679762Y-44704819D01*
X179679762Y-44704819D02*
X179870238Y-44704819D01*
X179870238Y-44704819D02*
X179965476Y-44657200D01*
X179965476Y-44657200D02*
X180013095Y-44609580D01*
X180013095Y-44609580D02*
X180060714Y-44514342D01*
X180060714Y-44514342D02*
X180060714Y-44323866D01*
X180060714Y-44323866D02*
X180013095Y-44228628D01*
X180013095Y-44228628D02*
X179965476Y-44181009D01*
X179965476Y-44181009D02*
X179870238Y-44133390D01*
X176333333Y-26934580D02*
X176285714Y-26982200D01*
X176285714Y-26982200D02*
X176142857Y-27029819D01*
X176142857Y-27029819D02*
X176047619Y-27029819D01*
X176047619Y-27029819D02*
X175904762Y-26982200D01*
X175904762Y-26982200D02*
X175809524Y-26886961D01*
X175809524Y-26886961D02*
X175761905Y-26791723D01*
X175761905Y-26791723D02*
X175714286Y-26601247D01*
X175714286Y-26601247D02*
X175714286Y-26458390D01*
X175714286Y-26458390D02*
X175761905Y-26267914D01*
X175761905Y-26267914D02*
X175809524Y-26172676D01*
X175809524Y-26172676D02*
X175904762Y-26077438D01*
X175904762Y-26077438D02*
X176047619Y-26029819D01*
X176047619Y-26029819D02*
X176142857Y-26029819D01*
X176142857Y-26029819D02*
X176285714Y-26077438D01*
X176285714Y-26077438D02*
X176333333Y-26125057D01*
X177190476Y-26029819D02*
X177000000Y-26029819D01*
X177000000Y-26029819D02*
X176904762Y-26077438D01*
X176904762Y-26077438D02*
X176857143Y-26125057D01*
X176857143Y-26125057D02*
X176761905Y-26267914D01*
X176761905Y-26267914D02*
X176714286Y-26458390D01*
X176714286Y-26458390D02*
X176714286Y-26839342D01*
X176714286Y-26839342D02*
X176761905Y-26934580D01*
X176761905Y-26934580D02*
X176809524Y-26982200D01*
X176809524Y-26982200D02*
X176904762Y-27029819D01*
X176904762Y-27029819D02*
X177095238Y-27029819D01*
X177095238Y-27029819D02*
X177190476Y-26982200D01*
X177190476Y-26982200D02*
X177238095Y-26934580D01*
X177238095Y-26934580D02*
X177285714Y-26839342D01*
X177285714Y-26839342D02*
X177285714Y-26601247D01*
X177285714Y-26601247D02*
X177238095Y-26506009D01*
X177238095Y-26506009D02*
X177190476Y-26458390D01*
X177190476Y-26458390D02*
X177095238Y-26410771D01*
X177095238Y-26410771D02*
X176904762Y-26410771D01*
X176904762Y-26410771D02*
X176809524Y-26458390D01*
X176809524Y-26458390D02*
X176761905Y-26506009D01*
X176761905Y-26506009D02*
X176714286Y-26601247D01*
X176058333Y-33559580D02*
X176010714Y-33607200D01*
X176010714Y-33607200D02*
X175867857Y-33654819D01*
X175867857Y-33654819D02*
X175772619Y-33654819D01*
X175772619Y-33654819D02*
X175629762Y-33607200D01*
X175629762Y-33607200D02*
X175534524Y-33511961D01*
X175534524Y-33511961D02*
X175486905Y-33416723D01*
X175486905Y-33416723D02*
X175439286Y-33226247D01*
X175439286Y-33226247D02*
X175439286Y-33083390D01*
X175439286Y-33083390D02*
X175486905Y-32892914D01*
X175486905Y-32892914D02*
X175534524Y-32797676D01*
X175534524Y-32797676D02*
X175629762Y-32702438D01*
X175629762Y-32702438D02*
X175772619Y-32654819D01*
X175772619Y-32654819D02*
X175867857Y-32654819D01*
X175867857Y-32654819D02*
X176010714Y-32702438D01*
X176010714Y-32702438D02*
X176058333Y-32750057D01*
X176391667Y-32654819D02*
X177058333Y-32654819D01*
X177058333Y-32654819D02*
X176629762Y-33654819D01*
X182557142Y-54779819D02*
X182223809Y-54303628D01*
X181985714Y-54779819D02*
X181985714Y-53779819D01*
X181985714Y-53779819D02*
X182366666Y-53779819D01*
X182366666Y-53779819D02*
X182461904Y-53827438D01*
X182461904Y-53827438D02*
X182509523Y-53875057D01*
X182509523Y-53875057D02*
X182557142Y-53970295D01*
X182557142Y-53970295D02*
X182557142Y-54113152D01*
X182557142Y-54113152D02*
X182509523Y-54208390D01*
X182509523Y-54208390D02*
X182461904Y-54256009D01*
X182461904Y-54256009D02*
X182366666Y-54303628D01*
X182366666Y-54303628D02*
X181985714Y-54303628D01*
X183509523Y-54779819D02*
X182938095Y-54779819D01*
X183223809Y-54779819D02*
X183223809Y-53779819D01*
X183223809Y-53779819D02*
X183128571Y-53922676D01*
X183128571Y-53922676D02*
X183033333Y-54017914D01*
X183033333Y-54017914D02*
X182938095Y-54065533D01*
X184414285Y-53779819D02*
X183938095Y-53779819D01*
X183938095Y-53779819D02*
X183890476Y-54256009D01*
X183890476Y-54256009D02*
X183938095Y-54208390D01*
X183938095Y-54208390D02*
X184033333Y-54160771D01*
X184033333Y-54160771D02*
X184271428Y-54160771D01*
X184271428Y-54160771D02*
X184366666Y-54208390D01*
X184366666Y-54208390D02*
X184414285Y-54256009D01*
X184414285Y-54256009D02*
X184461904Y-54351247D01*
X184461904Y-54351247D02*
X184461904Y-54589342D01*
X184461904Y-54589342D02*
X184414285Y-54684580D01*
X184414285Y-54684580D02*
X184366666Y-54732200D01*
X184366666Y-54732200D02*
X184271428Y-54779819D01*
X184271428Y-54779819D02*
X184033333Y-54779819D01*
X184033333Y-54779819D02*
X183938095Y-54732200D01*
X183938095Y-54732200D02*
X183890476Y-54684580D01*
X179308333Y-34598569D02*
X178975000Y-34122378D01*
X178736905Y-34598569D02*
X178736905Y-33598569D01*
X178736905Y-33598569D02*
X179117857Y-33598569D01*
X179117857Y-33598569D02*
X179213095Y-33646188D01*
X179213095Y-33646188D02*
X179260714Y-33693807D01*
X179260714Y-33693807D02*
X179308333Y-33789045D01*
X179308333Y-33789045D02*
X179308333Y-33931902D01*
X179308333Y-33931902D02*
X179260714Y-34027140D01*
X179260714Y-34027140D02*
X179213095Y-34074759D01*
X179213095Y-34074759D02*
X179117857Y-34122378D01*
X179117857Y-34122378D02*
X178736905Y-34122378D01*
X180213095Y-33598569D02*
X179736905Y-33598569D01*
X179736905Y-33598569D02*
X179689286Y-34074759D01*
X179689286Y-34074759D02*
X179736905Y-34027140D01*
X179736905Y-34027140D02*
X179832143Y-33979521D01*
X179832143Y-33979521D02*
X180070238Y-33979521D01*
X180070238Y-33979521D02*
X180165476Y-34027140D01*
X180165476Y-34027140D02*
X180213095Y-34074759D01*
X180213095Y-34074759D02*
X180260714Y-34169997D01*
X180260714Y-34169997D02*
X180260714Y-34408092D01*
X180260714Y-34408092D02*
X180213095Y-34503330D01*
X180213095Y-34503330D02*
X180165476Y-34550950D01*
X180165476Y-34550950D02*
X180070238Y-34598569D01*
X180070238Y-34598569D02*
X179832143Y-34598569D01*
X179832143Y-34598569D02*
X179736905Y-34550950D01*
X179736905Y-34550950D02*
X179689286Y-34503330D01*
X195079819Y-29441666D02*
X195079819Y-29917856D01*
X195079819Y-29917856D02*
X194079819Y-29917856D01*
X195079819Y-28584523D02*
X195079819Y-29155951D01*
X195079819Y-28870237D02*
X194079819Y-28870237D01*
X194079819Y-28870237D02*
X194222676Y-28965475D01*
X194222676Y-28965475D02*
X194317914Y-29060713D01*
X194317914Y-29060713D02*
X194365533Y-29155951D01*
X194458333Y-28134580D02*
X194410714Y-28182200D01*
X194410714Y-28182200D02*
X194267857Y-28229819D01*
X194267857Y-28229819D02*
X194172619Y-28229819D01*
X194172619Y-28229819D02*
X194029762Y-28182200D01*
X194029762Y-28182200D02*
X193934524Y-28086961D01*
X193934524Y-28086961D02*
X193886905Y-27991723D01*
X193886905Y-27991723D02*
X193839286Y-27801247D01*
X193839286Y-27801247D02*
X193839286Y-27658390D01*
X193839286Y-27658390D02*
X193886905Y-27467914D01*
X193886905Y-27467914D02*
X193934524Y-27372676D01*
X193934524Y-27372676D02*
X194029762Y-27277438D01*
X194029762Y-27277438D02*
X194172619Y-27229819D01*
X194172619Y-27229819D02*
X194267857Y-27229819D01*
X194267857Y-27229819D02*
X194410714Y-27277438D01*
X194410714Y-27277438D02*
X194458333Y-27325057D01*
X195410714Y-28229819D02*
X194839286Y-28229819D01*
X195125000Y-28229819D02*
X195125000Y-27229819D01*
X195125000Y-27229819D02*
X195029762Y-27372676D01*
X195029762Y-27372676D02*
X194934524Y-27467914D01*
X194934524Y-27467914D02*
X194839286Y-27515533D01*
X179133333Y-49409580D02*
X179085714Y-49457200D01*
X179085714Y-49457200D02*
X178942857Y-49504819D01*
X178942857Y-49504819D02*
X178847619Y-49504819D01*
X178847619Y-49504819D02*
X178704762Y-49457200D01*
X178704762Y-49457200D02*
X178609524Y-49361961D01*
X178609524Y-49361961D02*
X178561905Y-49266723D01*
X178561905Y-49266723D02*
X178514286Y-49076247D01*
X178514286Y-49076247D02*
X178514286Y-48933390D01*
X178514286Y-48933390D02*
X178561905Y-48742914D01*
X178561905Y-48742914D02*
X178609524Y-48647676D01*
X178609524Y-48647676D02*
X178704762Y-48552438D01*
X178704762Y-48552438D02*
X178847619Y-48504819D01*
X178847619Y-48504819D02*
X178942857Y-48504819D01*
X178942857Y-48504819D02*
X179085714Y-48552438D01*
X179085714Y-48552438D02*
X179133333Y-48600057D01*
X179990476Y-48838152D02*
X179990476Y-49504819D01*
X179752381Y-48457200D02*
X179514286Y-49171485D01*
X179514286Y-49171485D02*
X180133333Y-49171485D01*
X179257142Y-36573569D02*
X178923809Y-36097378D01*
X178685714Y-36573569D02*
X178685714Y-35573569D01*
X178685714Y-35573569D02*
X179066666Y-35573569D01*
X179066666Y-35573569D02*
X179161904Y-35621188D01*
X179161904Y-35621188D02*
X179209523Y-35668807D01*
X179209523Y-35668807D02*
X179257142Y-35764045D01*
X179257142Y-35764045D02*
X179257142Y-35906902D01*
X179257142Y-35906902D02*
X179209523Y-36002140D01*
X179209523Y-36002140D02*
X179161904Y-36049759D01*
X179161904Y-36049759D02*
X179066666Y-36097378D01*
X179066666Y-36097378D02*
X178685714Y-36097378D01*
X180209523Y-36573569D02*
X179638095Y-36573569D01*
X179923809Y-36573569D02*
X179923809Y-35573569D01*
X179923809Y-35573569D02*
X179828571Y-35716426D01*
X179828571Y-35716426D02*
X179733333Y-35811664D01*
X179733333Y-35811664D02*
X179638095Y-35859283D01*
X180590476Y-35668807D02*
X180638095Y-35621188D01*
X180638095Y-35621188D02*
X180733333Y-35573569D01*
X180733333Y-35573569D02*
X180971428Y-35573569D01*
X180971428Y-35573569D02*
X181066666Y-35621188D01*
X181066666Y-35621188D02*
X181114285Y-35668807D01*
X181114285Y-35668807D02*
X181161904Y-35764045D01*
X181161904Y-35764045D02*
X181161904Y-35859283D01*
X181161904Y-35859283D02*
X181114285Y-36002140D01*
X181114285Y-36002140D02*
X180542857Y-36573569D01*
X180542857Y-36573569D02*
X181161904Y-36573569D01*
X175582142Y-35054819D02*
X175248809Y-34578628D01*
X175010714Y-35054819D02*
X175010714Y-34054819D01*
X175010714Y-34054819D02*
X175391666Y-34054819D01*
X175391666Y-34054819D02*
X175486904Y-34102438D01*
X175486904Y-34102438D02*
X175534523Y-34150057D01*
X175534523Y-34150057D02*
X175582142Y-34245295D01*
X175582142Y-34245295D02*
X175582142Y-34388152D01*
X175582142Y-34388152D02*
X175534523Y-34483390D01*
X175534523Y-34483390D02*
X175486904Y-34531009D01*
X175486904Y-34531009D02*
X175391666Y-34578628D01*
X175391666Y-34578628D02*
X175010714Y-34578628D01*
X176534523Y-35054819D02*
X175963095Y-35054819D01*
X176248809Y-35054819D02*
X176248809Y-34054819D01*
X176248809Y-34054819D02*
X176153571Y-34197676D01*
X176153571Y-34197676D02*
X176058333Y-34292914D01*
X176058333Y-34292914D02*
X175963095Y-34340533D01*
X176867857Y-34054819D02*
X177486904Y-34054819D01*
X177486904Y-34054819D02*
X177153571Y-34435771D01*
X177153571Y-34435771D02*
X177296428Y-34435771D01*
X177296428Y-34435771D02*
X177391666Y-34483390D01*
X177391666Y-34483390D02*
X177439285Y-34531009D01*
X177439285Y-34531009D02*
X177486904Y-34626247D01*
X177486904Y-34626247D02*
X177486904Y-34864342D01*
X177486904Y-34864342D02*
X177439285Y-34959580D01*
X177439285Y-34959580D02*
X177391666Y-35007200D01*
X177391666Y-35007200D02*
X177296428Y-35054819D01*
X177296428Y-35054819D02*
X177010714Y-35054819D01*
X177010714Y-35054819D02*
X176915476Y-35007200D01*
X176915476Y-35007200D02*
X176867857Y-34959580D01*
X179344642Y-54779819D02*
X179011309Y-54303628D01*
X178773214Y-54779819D02*
X178773214Y-53779819D01*
X178773214Y-53779819D02*
X179154166Y-53779819D01*
X179154166Y-53779819D02*
X179249404Y-53827438D01*
X179249404Y-53827438D02*
X179297023Y-53875057D01*
X179297023Y-53875057D02*
X179344642Y-53970295D01*
X179344642Y-53970295D02*
X179344642Y-54113152D01*
X179344642Y-54113152D02*
X179297023Y-54208390D01*
X179297023Y-54208390D02*
X179249404Y-54256009D01*
X179249404Y-54256009D02*
X179154166Y-54303628D01*
X179154166Y-54303628D02*
X178773214Y-54303628D01*
X180297023Y-54779819D02*
X179725595Y-54779819D01*
X180011309Y-54779819D02*
X180011309Y-53779819D01*
X180011309Y-53779819D02*
X179916071Y-53922676D01*
X179916071Y-53922676D02*
X179820833Y-54017914D01*
X179820833Y-54017914D02*
X179725595Y-54065533D01*
X181154166Y-54113152D02*
X181154166Y-54779819D01*
X180916071Y-53732200D02*
X180677976Y-54446485D01*
X180677976Y-54446485D02*
X181297023Y-54446485D01*
X194308333Y-39279819D02*
X193975000Y-38803628D01*
X193736905Y-39279819D02*
X193736905Y-38279819D01*
X193736905Y-38279819D02*
X194117857Y-38279819D01*
X194117857Y-38279819D02*
X194213095Y-38327438D01*
X194213095Y-38327438D02*
X194260714Y-38375057D01*
X194260714Y-38375057D02*
X194308333Y-38470295D01*
X194308333Y-38470295D02*
X194308333Y-38613152D01*
X194308333Y-38613152D02*
X194260714Y-38708390D01*
X194260714Y-38708390D02*
X194213095Y-38756009D01*
X194213095Y-38756009D02*
X194117857Y-38803628D01*
X194117857Y-38803628D02*
X193736905Y-38803628D01*
X194689286Y-38375057D02*
X194736905Y-38327438D01*
X194736905Y-38327438D02*
X194832143Y-38279819D01*
X194832143Y-38279819D02*
X195070238Y-38279819D01*
X195070238Y-38279819D02*
X195165476Y-38327438D01*
X195165476Y-38327438D02*
X195213095Y-38375057D01*
X195213095Y-38375057D02*
X195260714Y-38470295D01*
X195260714Y-38470295D02*
X195260714Y-38565533D01*
X195260714Y-38565533D02*
X195213095Y-38708390D01*
X195213095Y-38708390D02*
X194641667Y-39279819D01*
X194641667Y-39279819D02*
X195260714Y-39279819D01*
X173188095Y-31617319D02*
X173188095Y-32426842D01*
X173188095Y-32426842D02*
X173235714Y-32522080D01*
X173235714Y-32522080D02*
X173283333Y-32569700D01*
X173283333Y-32569700D02*
X173378571Y-32617319D01*
X173378571Y-32617319D02*
X173569047Y-32617319D01*
X173569047Y-32617319D02*
X173664285Y-32569700D01*
X173664285Y-32569700D02*
X173711904Y-32522080D01*
X173711904Y-32522080D02*
X173759523Y-32426842D01*
X173759523Y-32426842D02*
X173759523Y-31617319D01*
X174711904Y-31617319D02*
X174235714Y-31617319D01*
X174235714Y-31617319D02*
X174188095Y-32093509D01*
X174188095Y-32093509D02*
X174235714Y-32045890D01*
X174235714Y-32045890D02*
X174330952Y-31998271D01*
X174330952Y-31998271D02*
X174569047Y-31998271D01*
X174569047Y-31998271D02*
X174664285Y-32045890D01*
X174664285Y-32045890D02*
X174711904Y-32093509D01*
X174711904Y-32093509D02*
X174759523Y-32188747D01*
X174759523Y-32188747D02*
X174759523Y-32426842D01*
X174759523Y-32426842D02*
X174711904Y-32522080D01*
X174711904Y-32522080D02*
X174664285Y-32569700D01*
X174664285Y-32569700D02*
X174569047Y-32617319D01*
X174569047Y-32617319D02*
X174330952Y-32617319D01*
X174330952Y-32617319D02*
X174235714Y-32569700D01*
X174235714Y-32569700D02*
X174188095Y-32522080D01*
X194233333Y-37884580D02*
X194185714Y-37932200D01*
X194185714Y-37932200D02*
X194042857Y-37979819D01*
X194042857Y-37979819D02*
X193947619Y-37979819D01*
X193947619Y-37979819D02*
X193804762Y-37932200D01*
X193804762Y-37932200D02*
X193709524Y-37836961D01*
X193709524Y-37836961D02*
X193661905Y-37741723D01*
X193661905Y-37741723D02*
X193614286Y-37551247D01*
X193614286Y-37551247D02*
X193614286Y-37408390D01*
X193614286Y-37408390D02*
X193661905Y-37217914D01*
X193661905Y-37217914D02*
X193709524Y-37122676D01*
X193709524Y-37122676D02*
X193804762Y-37027438D01*
X193804762Y-37027438D02*
X193947619Y-36979819D01*
X193947619Y-36979819D02*
X194042857Y-36979819D01*
X194042857Y-36979819D02*
X194185714Y-37027438D01*
X194185714Y-37027438D02*
X194233333Y-37075057D01*
X194614286Y-37075057D02*
X194661905Y-37027438D01*
X194661905Y-37027438D02*
X194757143Y-36979819D01*
X194757143Y-36979819D02*
X194995238Y-36979819D01*
X194995238Y-36979819D02*
X195090476Y-37027438D01*
X195090476Y-37027438D02*
X195138095Y-37075057D01*
X195138095Y-37075057D02*
X195185714Y-37170295D01*
X195185714Y-37170295D02*
X195185714Y-37265533D01*
X195185714Y-37265533D02*
X195138095Y-37408390D01*
X195138095Y-37408390D02*
X194566667Y-37979819D01*
X194566667Y-37979819D02*
X195185714Y-37979819D01*
X179083333Y-47309580D02*
X179035714Y-47357200D01*
X179035714Y-47357200D02*
X178892857Y-47404819D01*
X178892857Y-47404819D02*
X178797619Y-47404819D01*
X178797619Y-47404819D02*
X178654762Y-47357200D01*
X178654762Y-47357200D02*
X178559524Y-47261961D01*
X178559524Y-47261961D02*
X178511905Y-47166723D01*
X178511905Y-47166723D02*
X178464286Y-46976247D01*
X178464286Y-46976247D02*
X178464286Y-46833390D01*
X178464286Y-46833390D02*
X178511905Y-46642914D01*
X178511905Y-46642914D02*
X178559524Y-46547676D01*
X178559524Y-46547676D02*
X178654762Y-46452438D01*
X178654762Y-46452438D02*
X178797619Y-46404819D01*
X178797619Y-46404819D02*
X178892857Y-46404819D01*
X178892857Y-46404819D02*
X179035714Y-46452438D01*
X179035714Y-46452438D02*
X179083333Y-46500057D01*
X179988095Y-46404819D02*
X179511905Y-46404819D01*
X179511905Y-46404819D02*
X179464286Y-46881009D01*
X179464286Y-46881009D02*
X179511905Y-46833390D01*
X179511905Y-46833390D02*
X179607143Y-46785771D01*
X179607143Y-46785771D02*
X179845238Y-46785771D01*
X179845238Y-46785771D02*
X179940476Y-46833390D01*
X179940476Y-46833390D02*
X179988095Y-46881009D01*
X179988095Y-46881009D02*
X180035714Y-46976247D01*
X180035714Y-46976247D02*
X180035714Y-47214342D01*
X180035714Y-47214342D02*
X179988095Y-47309580D01*
X179988095Y-47309580D02*
X179940476Y-47357200D01*
X179940476Y-47357200D02*
X179845238Y-47404819D01*
X179845238Y-47404819D02*
X179607143Y-47404819D01*
X179607143Y-47404819D02*
X179511905Y-47357200D01*
X179511905Y-47357200D02*
X179464286Y-47309580D01*
X187538095Y-36804819D02*
X187538095Y-37614342D01*
X187538095Y-37614342D02*
X187585714Y-37709580D01*
X187585714Y-37709580D02*
X187633333Y-37757200D01*
X187633333Y-37757200D02*
X187728571Y-37804819D01*
X187728571Y-37804819D02*
X187919047Y-37804819D01*
X187919047Y-37804819D02*
X188014285Y-37757200D01*
X188014285Y-37757200D02*
X188061904Y-37709580D01*
X188061904Y-37709580D02*
X188109523Y-37614342D01*
X188109523Y-37614342D02*
X188109523Y-36804819D01*
X189014285Y-37138152D02*
X189014285Y-37804819D01*
X188776190Y-36757200D02*
X188538095Y-37471485D01*
X188538095Y-37471485D02*
X189157142Y-37471485D01*
X169591666Y-53354819D02*
X169591666Y-54069104D01*
X169591666Y-54069104D02*
X169544047Y-54211961D01*
X169544047Y-54211961D02*
X169448809Y-54307200D01*
X169448809Y-54307200D02*
X169305952Y-54354819D01*
X169305952Y-54354819D02*
X169210714Y-54354819D01*
X170020238Y-53450057D02*
X170067857Y-53402438D01*
X170067857Y-53402438D02*
X170163095Y-53354819D01*
X170163095Y-53354819D02*
X170401190Y-53354819D01*
X170401190Y-53354819D02*
X170496428Y-53402438D01*
X170496428Y-53402438D02*
X170544047Y-53450057D01*
X170544047Y-53450057D02*
X170591666Y-53545295D01*
X170591666Y-53545295D02*
X170591666Y-53640533D01*
X170591666Y-53640533D02*
X170544047Y-53783390D01*
X170544047Y-53783390D02*
X169972619Y-54354819D01*
X169972619Y-54354819D02*
X170591666Y-54354819D01*
X176033333Y-36629819D02*
X175700000Y-36153628D01*
X175461905Y-36629819D02*
X175461905Y-35629819D01*
X175461905Y-35629819D02*
X175842857Y-35629819D01*
X175842857Y-35629819D02*
X175938095Y-35677438D01*
X175938095Y-35677438D02*
X175985714Y-35725057D01*
X175985714Y-35725057D02*
X176033333Y-35820295D01*
X176033333Y-35820295D02*
X176033333Y-35963152D01*
X176033333Y-35963152D02*
X175985714Y-36058390D01*
X175985714Y-36058390D02*
X175938095Y-36106009D01*
X175938095Y-36106009D02*
X175842857Y-36153628D01*
X175842857Y-36153628D02*
X175461905Y-36153628D01*
X176509524Y-36629819D02*
X176700000Y-36629819D01*
X176700000Y-36629819D02*
X176795238Y-36582200D01*
X176795238Y-36582200D02*
X176842857Y-36534580D01*
X176842857Y-36534580D02*
X176938095Y-36391723D01*
X176938095Y-36391723D02*
X176985714Y-36201247D01*
X176985714Y-36201247D02*
X176985714Y-35820295D01*
X176985714Y-35820295D02*
X176938095Y-35725057D01*
X176938095Y-35725057D02*
X176890476Y-35677438D01*
X176890476Y-35677438D02*
X176795238Y-35629819D01*
X176795238Y-35629819D02*
X176604762Y-35629819D01*
X176604762Y-35629819D02*
X176509524Y-35677438D01*
X176509524Y-35677438D02*
X176461905Y-35725057D01*
X176461905Y-35725057D02*
X176414286Y-35820295D01*
X176414286Y-35820295D02*
X176414286Y-36058390D01*
X176414286Y-36058390D02*
X176461905Y-36153628D01*
X176461905Y-36153628D02*
X176509524Y-36201247D01*
X176509524Y-36201247D02*
X176604762Y-36248866D01*
X176604762Y-36248866D02*
X176795238Y-36248866D01*
X176795238Y-36248866D02*
X176890476Y-36201247D01*
X176890476Y-36201247D02*
X176938095Y-36153628D01*
X176938095Y-36153628D02*
X176985714Y-36058390D01*
X191629761Y-37800057D02*
X191534523Y-37752438D01*
X191534523Y-37752438D02*
X191439285Y-37657200D01*
X191439285Y-37657200D02*
X191296428Y-37514342D01*
X191296428Y-37514342D02*
X191201190Y-37466723D01*
X191201190Y-37466723D02*
X191105952Y-37466723D01*
X191153571Y-37704819D02*
X191058333Y-37657200D01*
X191058333Y-37657200D02*
X190963095Y-37561961D01*
X190963095Y-37561961D02*
X190915476Y-37371485D01*
X190915476Y-37371485D02*
X190915476Y-37038152D01*
X190915476Y-37038152D02*
X190963095Y-36847676D01*
X190963095Y-36847676D02*
X191058333Y-36752438D01*
X191058333Y-36752438D02*
X191153571Y-36704819D01*
X191153571Y-36704819D02*
X191344047Y-36704819D01*
X191344047Y-36704819D02*
X191439285Y-36752438D01*
X191439285Y-36752438D02*
X191534523Y-36847676D01*
X191534523Y-36847676D02*
X191582142Y-37038152D01*
X191582142Y-37038152D02*
X191582142Y-37371485D01*
X191582142Y-37371485D02*
X191534523Y-37561961D01*
X191534523Y-37561961D02*
X191439285Y-37657200D01*
X191439285Y-37657200D02*
X191344047Y-37704819D01*
X191344047Y-37704819D02*
X191153571Y-37704819D01*
X192534523Y-37704819D02*
X191963095Y-37704819D01*
X192248809Y-37704819D02*
X192248809Y-36704819D01*
X192248809Y-36704819D02*
X192153571Y-36847676D01*
X192153571Y-36847676D02*
X192058333Y-36942914D01*
X192058333Y-36942914D02*
X191963095Y-36990533D01*
X191383333Y-31309580D02*
X191335714Y-31357200D01*
X191335714Y-31357200D02*
X191192857Y-31404819D01*
X191192857Y-31404819D02*
X191097619Y-31404819D01*
X191097619Y-31404819D02*
X190954762Y-31357200D01*
X190954762Y-31357200D02*
X190859524Y-31261961D01*
X190859524Y-31261961D02*
X190811905Y-31166723D01*
X190811905Y-31166723D02*
X190764286Y-30976247D01*
X190764286Y-30976247D02*
X190764286Y-30833390D01*
X190764286Y-30833390D02*
X190811905Y-30642914D01*
X190811905Y-30642914D02*
X190859524Y-30547676D01*
X190859524Y-30547676D02*
X190954762Y-30452438D01*
X190954762Y-30452438D02*
X191097619Y-30404819D01*
X191097619Y-30404819D02*
X191192857Y-30404819D01*
X191192857Y-30404819D02*
X191335714Y-30452438D01*
X191335714Y-30452438D02*
X191383333Y-30500057D01*
X191716667Y-30404819D02*
X192335714Y-30404819D01*
X192335714Y-30404819D02*
X192002381Y-30785771D01*
X192002381Y-30785771D02*
X192145238Y-30785771D01*
X192145238Y-30785771D02*
X192240476Y-30833390D01*
X192240476Y-30833390D02*
X192288095Y-30881009D01*
X192288095Y-30881009D02*
X192335714Y-30976247D01*
X192335714Y-30976247D02*
X192335714Y-31214342D01*
X192335714Y-31214342D02*
X192288095Y-31309580D01*
X192288095Y-31309580D02*
X192240476Y-31357200D01*
X192240476Y-31357200D02*
X192145238Y-31404819D01*
X192145238Y-31404819D02*
X191859524Y-31404819D01*
X191859524Y-31404819D02*
X191764286Y-31357200D01*
X191764286Y-31357200D02*
X191716667Y-31309580D01*
X194433333Y-26829819D02*
X194100000Y-26353628D01*
X193861905Y-26829819D02*
X193861905Y-25829819D01*
X193861905Y-25829819D02*
X194242857Y-25829819D01*
X194242857Y-25829819D02*
X194338095Y-25877438D01*
X194338095Y-25877438D02*
X194385714Y-25925057D01*
X194385714Y-25925057D02*
X194433333Y-26020295D01*
X194433333Y-26020295D02*
X194433333Y-26163152D01*
X194433333Y-26163152D02*
X194385714Y-26258390D01*
X194385714Y-26258390D02*
X194338095Y-26306009D01*
X194338095Y-26306009D02*
X194242857Y-26353628D01*
X194242857Y-26353628D02*
X193861905Y-26353628D01*
X195385714Y-26829819D02*
X194814286Y-26829819D01*
X195100000Y-26829819D02*
X195100000Y-25829819D01*
X195100000Y-25829819D02*
X195004762Y-25972676D01*
X195004762Y-25972676D02*
X194909524Y-26067914D01*
X194909524Y-26067914D02*
X194814286Y-26115533D01*
X186616667Y-26832200D02*
X186759524Y-26879819D01*
X186759524Y-26879819D02*
X186997619Y-26879819D01*
X186997619Y-26879819D02*
X187092857Y-26832200D01*
X187092857Y-26832200D02*
X187140476Y-26784580D01*
X187140476Y-26784580D02*
X187188095Y-26689342D01*
X187188095Y-26689342D02*
X187188095Y-26594104D01*
X187188095Y-26594104D02*
X187140476Y-26498866D01*
X187140476Y-26498866D02*
X187092857Y-26451247D01*
X187092857Y-26451247D02*
X186997619Y-26403628D01*
X186997619Y-26403628D02*
X186807143Y-26356009D01*
X186807143Y-26356009D02*
X186711905Y-26308390D01*
X186711905Y-26308390D02*
X186664286Y-26260771D01*
X186664286Y-26260771D02*
X186616667Y-26165533D01*
X186616667Y-26165533D02*
X186616667Y-26070295D01*
X186616667Y-26070295D02*
X186664286Y-25975057D01*
X186664286Y-25975057D02*
X186711905Y-25927438D01*
X186711905Y-25927438D02*
X186807143Y-25879819D01*
X186807143Y-25879819D02*
X187045238Y-25879819D01*
X187045238Y-25879819D02*
X187188095Y-25927438D01*
X187521429Y-25879819D02*
X187759524Y-26879819D01*
X187759524Y-26879819D02*
X187950000Y-26165533D01*
X187950000Y-26165533D02*
X188140476Y-26879819D01*
X188140476Y-26879819D02*
X188378572Y-25879819D01*
X188711905Y-25975057D02*
X188759524Y-25927438D01*
X188759524Y-25927438D02*
X188854762Y-25879819D01*
X188854762Y-25879819D02*
X189092857Y-25879819D01*
X189092857Y-25879819D02*
X189188095Y-25927438D01*
X189188095Y-25927438D02*
X189235714Y-25975057D01*
X189235714Y-25975057D02*
X189283333Y-26070295D01*
X189283333Y-26070295D02*
X189283333Y-26165533D01*
X189283333Y-26165533D02*
X189235714Y-26308390D01*
X189235714Y-26308390D02*
X188664286Y-26879819D01*
X188664286Y-26879819D02*
X189283333Y-26879819D01*
X180808333Y-32854819D02*
X180475000Y-32378628D01*
X180236905Y-32854819D02*
X180236905Y-31854819D01*
X180236905Y-31854819D02*
X180617857Y-31854819D01*
X180617857Y-31854819D02*
X180713095Y-31902438D01*
X180713095Y-31902438D02*
X180760714Y-31950057D01*
X180760714Y-31950057D02*
X180808333Y-32045295D01*
X180808333Y-32045295D02*
X180808333Y-32188152D01*
X180808333Y-32188152D02*
X180760714Y-32283390D01*
X180760714Y-32283390D02*
X180713095Y-32331009D01*
X180713095Y-32331009D02*
X180617857Y-32378628D01*
X180617857Y-32378628D02*
X180236905Y-32378628D01*
X181665476Y-32188152D02*
X181665476Y-32854819D01*
X181427381Y-31807200D02*
X181189286Y-32521485D01*
X181189286Y-32521485D02*
X181808333Y-32521485D01*
X187758333Y-30954819D02*
X187425000Y-30478628D01*
X187186905Y-30954819D02*
X187186905Y-29954819D01*
X187186905Y-29954819D02*
X187567857Y-29954819D01*
X187567857Y-29954819D02*
X187663095Y-30002438D01*
X187663095Y-30002438D02*
X187710714Y-30050057D01*
X187710714Y-30050057D02*
X187758333Y-30145295D01*
X187758333Y-30145295D02*
X187758333Y-30288152D01*
X187758333Y-30288152D02*
X187710714Y-30383390D01*
X187710714Y-30383390D02*
X187663095Y-30431009D01*
X187663095Y-30431009D02*
X187567857Y-30478628D01*
X187567857Y-30478628D02*
X187186905Y-30478628D01*
X188091667Y-29954819D02*
X188710714Y-29954819D01*
X188710714Y-29954819D02*
X188377381Y-30335771D01*
X188377381Y-30335771D02*
X188520238Y-30335771D01*
X188520238Y-30335771D02*
X188615476Y-30383390D01*
X188615476Y-30383390D02*
X188663095Y-30431009D01*
X188663095Y-30431009D02*
X188710714Y-30526247D01*
X188710714Y-30526247D02*
X188710714Y-30764342D01*
X188710714Y-30764342D02*
X188663095Y-30859580D01*
X188663095Y-30859580D02*
X188615476Y-30907200D01*
X188615476Y-30907200D02*
X188520238Y-30954819D01*
X188520238Y-30954819D02*
X188234524Y-30954819D01*
X188234524Y-30954819D02*
X188139286Y-30907200D01*
X188139286Y-30907200D02*
X188091667Y-30859580D01*
%TO.C,R8*%
D11*
X181580276Y-43707500D02*
X182089724Y-43707500D01*
X181580276Y-44752500D02*
X182089724Y-44752500D01*
%TO.C,C6*%
X174046267Y-26602500D02*
X173753733Y-26602500D01*
X174046267Y-27622500D02*
X173753733Y-27622500D01*
%TO.C,C7*%
X177941233Y-27352500D02*
X178233767Y-27352500D01*
X177941233Y-28372500D02*
X178233767Y-28372500D01*
%TO.C,R15*%
X182127500Y-52204724D02*
X182127500Y-51695276D01*
X183172500Y-52204724D02*
X183172500Y-51695276D01*
%TO.C,R5*%
X182582776Y-33671250D02*
X183092224Y-33671250D01*
X182582776Y-34716250D02*
X183092224Y-34716250D01*
%TO.C,U1*%
D12*
X155095000Y-47134000D02*
X169065000Y-47134000D01*
X158186450Y-25705051D02*
X166181722Y-25705051D01*
D13*
X169065000Y-26179000D02*
X155095000Y-26179000D01*
D12*
X169065000Y-26179000D02*
X155095000Y-26179000D01*
X153190000Y-28084000D02*
G75*
G02*
X155095000Y-26179000I1905000J0D01*
G01*
X155095000Y-47134000D02*
G75*
G02*
X153190000Y-45229000I1J1905001D01*
G01*
X157686450Y-26204779D02*
G75*
G02*
X158186450Y-25705050I500050J-321D01*
G01*
X166181722Y-25705051D02*
G75*
G02*
X166681749Y-26205051I-22J-500049D01*
G01*
X169065000Y-26179000D02*
G75*
G02*
X170970000Y-28084000I0J-1905000D01*
G01*
X170970000Y-45229000D02*
G75*
G02*
X169065000Y-47134000I-1905001J1D01*
G01*
D14*
X153428000Y-26320000D02*
G75*
G02*
X152924000Y-26320000I-252000J0D01*
G01*
X152924000Y-26320000D02*
G75*
G02*
X153428000Y-26320000I252000J0D01*
G01*
X154571000Y-27200000D02*
G75*
G02*
X154067000Y-27200000I-252000J0D01*
G01*
X154067000Y-27200000D02*
G75*
G02*
X154571000Y-27200000I252000J0D01*
G01*
%TO.C,L1*%
D11*
X194090000Y-31528733D02*
X194090000Y-31871267D01*
X195110000Y-31528733D02*
X195110000Y-31871267D01*
%TO.C,D6*%
X179865000Y-27262500D02*
X179865000Y-31322500D01*
X179865000Y-31322500D02*
X182135000Y-31322500D01*
X182135000Y-31322500D02*
X182135000Y-27262500D01*
%TO.C,D1*%
X199125000Y-33210000D02*
X199125000Y-27700000D01*
X199125000Y-33210000D02*
X202425000Y-33210000D01*
X202425000Y-33210000D02*
X202425000Y-27700000D01*
%TO.C,C1*%
X196941233Y-28700000D02*
X197233767Y-28700000D01*
X196941233Y-29720000D02*
X197233767Y-29720000D01*
%TO.C,JP1*%
X199520000Y-36350000D02*
X199520000Y-33750000D01*
X199520000Y-38950000D02*
X199520000Y-37620000D01*
X200850000Y-38950000D02*
X199520000Y-38950000D01*
X202180000Y-33750000D02*
X199520000Y-33750000D01*
X202180000Y-36350000D02*
X199520000Y-36350000D01*
X202180000Y-36350000D02*
X202180000Y-33750000D01*
%TO.C,U2*%
D15*
X196250200Y-32991900D02*
X197799600Y-32991900D01*
X197799600Y-30528100D02*
X196250200Y-30528100D01*
X195420000Y-31010000D02*
G75*
G02*
X195216800Y-31010000I-101600J0D01*
G01*
X195216800Y-31010000D02*
G75*
G02*
X195420000Y-31010000I101600J0D01*
G01*
%TO.C,C4*%
D11*
X182018767Y-48420000D02*
X181726233Y-48420000D01*
X182018767Y-49440000D02*
X181726233Y-49440000D01*
%TO.C,R12*%
X183129724Y-35671250D02*
X182620276Y-35671250D01*
X183129724Y-36716250D02*
X182620276Y-36716250D01*
%TO.C,R13*%
X177832776Y-29090000D02*
X178342224Y-29090000D01*
X177832776Y-30135000D02*
X178342224Y-30135000D01*
%TO.C,R14*%
X180292224Y-51952500D02*
X179782776Y-51952500D01*
X180292224Y-52997500D02*
X179782776Y-52997500D01*
%TO.C,R2*%
X197281924Y-36127500D02*
X196772476Y-36127500D01*
X197281924Y-37172500D02*
X196772476Y-37172500D01*
%TO.C,U5*%
X173040000Y-28202500D02*
X174860000Y-28202500D01*
X173040000Y-28252500D02*
X173040000Y-28202500D01*
X173040000Y-30152500D02*
X173040000Y-29372500D01*
X173040000Y-31322500D02*
X173040000Y-31272500D01*
X174860000Y-28202500D02*
X174860000Y-28252500D01*
X174860000Y-31272500D02*
X174860000Y-31322500D01*
X174860000Y-31322500D02*
X173040000Y-31322500D01*
X175400000Y-31272500D02*
X175640000Y-31602500D01*
X175160000Y-31602500D01*
X175400000Y-31272500D01*
G36*
X175640000Y-31602500D02*
G01*
X175160000Y-31602500D01*
X175400000Y-31272500D01*
X175640000Y-31602500D01*
G37*
%TO.C,C2*%
X196880933Y-33797800D02*
X197173467Y-33797800D01*
X196880933Y-34817800D02*
X197173467Y-34817800D01*
%TO.C,C5*%
X182018767Y-46420000D02*
X181726233Y-46420000D01*
X182018767Y-47440000D02*
X181726233Y-47440000D01*
%TO.C,J3*%
X185850000Y-40335000D02*
X199860000Y-40335000D01*
X185850000Y-42255000D02*
X185850000Y-40335000D01*
X185850000Y-53855000D02*
X185850000Y-54305000D01*
X185850000Y-54305000D02*
X189460000Y-54305000D01*
X191160000Y-54305000D02*
X195860000Y-54305000D01*
X197160000Y-54305000D02*
X198960000Y-54305000D01*
X201770000Y-51205000D02*
X201770000Y-44835000D01*
X201770000Y-51205000D02*
X201920000Y-51205000D01*
X201920000Y-41815000D02*
X201920000Y-41555000D01*
X202120000Y-42015000D02*
X201920000Y-41815000D01*
X202120000Y-42015000D02*
X202120000Y-44325000D01*
X202120000Y-44325000D02*
X201770000Y-44835000D01*
X202120000Y-51415000D02*
X201920000Y-51205000D01*
X202120000Y-53275000D02*
X201920000Y-53475000D01*
X202120000Y-53275000D02*
X202120000Y-51415000D01*
%TO.C,U4*%
X187377500Y-33290000D02*
X189197500Y-33290000D01*
X187377500Y-33340000D02*
X187377500Y-33290000D01*
X187377500Y-36410000D02*
X187377500Y-36360000D01*
X189197500Y-33290000D02*
X189197500Y-33340000D01*
X189197500Y-34460000D02*
X189197500Y-35240000D01*
X189197500Y-36360000D02*
X189197500Y-36410000D01*
X189197500Y-36410000D02*
X187377500Y-36410000D01*
X186837500Y-33340000D02*
X186597500Y-33010000D01*
X187077500Y-33010000D01*
X186837500Y-33340000D01*
G36*
X186837500Y-33340000D02*
G01*
X186597500Y-33010000D01*
X187077500Y-33010000D01*
X186837500Y-33340000D01*
G37*
%TO.C,J2*%
X171740000Y-47040000D02*
X171740000Y-54860000D01*
X171740000Y-48640000D02*
X172660000Y-48640000D01*
X171740000Y-54860000D02*
X177860000Y-54860000D01*
X172660000Y-47040000D02*
X171740000Y-47040000D01*
X172660000Y-48640000D02*
X172660000Y-47040000D01*
X172940000Y-48640000D02*
X172660000Y-48640000D01*
X172940000Y-48640000D02*
X172940000Y-47425000D01*
X173000000Y-52600000D02*
X173000000Y-54860000D01*
X173500000Y-52600000D02*
X173500000Y-54860000D01*
X174300000Y-50500000D02*
X175300000Y-50500000D01*
X174300000Y-54860000D02*
X174300000Y-50500000D01*
X175300000Y-50500000D02*
X175300000Y-54860000D01*
X176940000Y-47040000D02*
X176940000Y-48640000D01*
X176940000Y-48640000D02*
X176660000Y-48640000D01*
X177860000Y-47040000D02*
X176940000Y-47040000D01*
X177860000Y-48640000D02*
X176940000Y-48640000D01*
X177860000Y-54860000D02*
X177860000Y-47040000D01*
X172500000Y-51000000D02*
X173500000Y-51000000D01*
X173500000Y-52600000D01*
X172500000Y-52600000D01*
X172500000Y-51000000D01*
X176100000Y-51000000D02*
X177100000Y-51000000D01*
X177100000Y-52600000D01*
X176100000Y-52600000D01*
X176100000Y-51000000D01*
%TO.C,R9*%
X177820276Y-30890000D02*
X178329724Y-30890000D01*
X177820276Y-31935000D02*
X178329724Y-31935000D01*
%TO.C,Q1*%
X191890000Y-33290000D02*
X193410000Y-33290000D01*
X191890000Y-34290000D02*
X191890000Y-33290000D01*
X191890000Y-36410000D02*
X191890000Y-35410000D01*
X193410000Y-33290000D02*
X193410000Y-33340000D01*
X193410000Y-34460000D02*
X193410000Y-35240000D01*
X193410000Y-36360000D02*
X193410000Y-36410000D01*
X193410000Y-36410000D02*
X191890000Y-36410000D01*
X193950000Y-35230000D02*
X193710000Y-34900000D01*
X194190000Y-34900000D01*
X193950000Y-35230000D01*
G36*
X193950000Y-35230000D02*
G01*
X193710000Y-34900000D01*
X194190000Y-34900000D01*
X193950000Y-35230000D01*
G37*
%TO.C,C3*%
X191696267Y-31740000D02*
X191403733Y-31740000D01*
X191696267Y-32760000D02*
X191403733Y-32760000D01*
%TO.C,R1*%
X196895276Y-26727500D02*
X197404724Y-26727500D01*
X196895276Y-27772500D02*
X197404724Y-27772500D01*
%TO.C,SW2*%
X186000000Y-26050000D02*
X183700000Y-26050000D01*
X192300000Y-26050000D02*
X190100000Y-26050000D01*
%TO.C,R4*%
X184242224Y-31727500D02*
X183732776Y-31727500D01*
X184242224Y-32772500D02*
X183732776Y-32772500D01*
%TO.C,R3*%
X188054724Y-31727500D02*
X187545276Y-31727500D01*
X188054724Y-32772500D02*
X187545276Y-32772500D01*
%TD*%
%LPC*%
D16*
%TO.C,R8*%
X180922500Y-44230000D03*
X182747500Y-44230000D03*
%TD*%
D17*
%TO.C,H1*%
X154475000Y-51000000D03*
D18*
X154475000Y-51000000D03*
%TD*%
D19*
%TO.C,C6*%
X174762500Y-27112500D03*
X173037500Y-27112500D03*
%TD*%
D20*
%TO.C,C7*%
X177225000Y-27862500D03*
X178950000Y-27862500D03*
%TD*%
D21*
%TO.C,R15*%
X182650000Y-52862500D03*
X182650000Y-51037500D03*
%TD*%
D16*
%TO.C,R5*%
X181925000Y-34193750D03*
X183750000Y-34193750D03*
%TD*%
D22*
%TO.C,U1*%
X153625000Y-29100000D03*
D23*
X154460000Y-29100000D03*
D22*
X153625000Y-31640000D03*
D23*
X154460000Y-31640000D03*
D22*
X153625000Y-34180000D03*
D23*
X154460000Y-34180000D03*
D22*
X153625000Y-36720000D03*
D23*
X154460000Y-36720000D03*
D22*
X153625000Y-39260000D03*
D23*
X154460000Y-39260000D03*
D22*
X153625000Y-41800000D03*
D23*
X154460000Y-41800000D03*
D22*
X153625000Y-44340000D03*
D23*
X154460000Y-44340000D03*
X169700000Y-44340000D03*
D24*
X170535000Y-44340000D03*
D23*
X169700000Y-41800000D03*
D24*
X170535000Y-41800000D03*
D23*
X169700000Y-39260000D03*
D24*
X170535000Y-39260000D03*
D23*
X169700000Y-36720000D03*
D24*
X170535000Y-36720000D03*
D23*
X169700000Y-34180000D03*
D24*
X170535000Y-34180000D03*
D23*
X169700000Y-31640000D03*
D24*
X170535000Y-31640000D03*
D23*
X169700000Y-29100000D03*
D24*
X170535000Y-29100000D03*
%TD*%
D25*
%TO.C,L1*%
X194600000Y-30825000D03*
X194600000Y-32575000D03*
%TD*%
D26*
%TO.C,D6*%
X181000000Y-30350000D03*
X181000000Y-27375000D03*
%TD*%
D27*
%TO.C,D1*%
X200775000Y-31700000D03*
X200775000Y-27700000D03*
%TD*%
D20*
%TO.C,C1*%
X196225000Y-29210000D03*
X197950000Y-29210000D03*
%TD*%
D28*
%TO.C,JP1*%
X200850000Y-37620000D03*
D29*
X200850000Y-35080000D03*
%TD*%
D17*
%TO.C,H3*%
X182000000Y-39525000D03*
D18*
X182000000Y-39525000D03*
%TD*%
D30*
%TO.C,U2*%
X196224800Y-31009999D03*
X196224800Y-31510000D03*
X196224800Y-32010000D03*
X196224800Y-32510001D03*
X197825000Y-32510001D03*
X197825000Y-32010000D03*
X197825000Y-31510000D03*
X197825000Y-31009999D03*
%TD*%
D19*
%TO.C,C4*%
X182735000Y-48930000D03*
X181010000Y-48930000D03*
%TD*%
D31*
%TO.C,R12*%
X183787500Y-36193750D03*
X181962500Y-36193750D03*
%TD*%
D16*
%TO.C,R13*%
X177175000Y-29612500D03*
X179000000Y-29612500D03*
%TD*%
D31*
%TO.C,R14*%
X180950000Y-52475000D03*
X179125000Y-52475000D03*
%TD*%
%TO.C,R2*%
X197939700Y-36650000D03*
X196114700Y-36650000D03*
%TD*%
D32*
%TO.C,U5*%
X175087500Y-30712500D03*
X175087500Y-29762500D03*
X175087500Y-28812500D03*
X172812500Y-28812500D03*
X172812500Y-30712500D03*
%TD*%
D20*
%TO.C,C2*%
X196164700Y-34307800D03*
X197889700Y-34307800D03*
%TD*%
D19*
%TO.C,C5*%
X182735000Y-46930000D03*
X181010000Y-46930000D03*
%TD*%
D33*
%TO.C,J3*%
X186010000Y-44555000D03*
X186010000Y-45655000D03*
X186010000Y-46755000D03*
X186010000Y-47855000D03*
X186010000Y-48955000D03*
X186010000Y-50055000D03*
X186010000Y-51155000D03*
X186010000Y-52255000D03*
X186010000Y-53205000D03*
D34*
X196510000Y-54155000D03*
D35*
X190310000Y-54155000D03*
D36*
X200660000Y-54155000D03*
D35*
X186010000Y-43005000D03*
D37*
X201110000Y-40655000D03*
%TD*%
D38*
%TO.C,U4*%
X187150000Y-33900000D03*
X187150000Y-34850000D03*
X187150000Y-35800000D03*
X189425000Y-35800000D03*
X189425000Y-33900000D03*
%TD*%
D39*
%TO.C,J2*%
X173800000Y-48500000D03*
D40*
X175800000Y-48500000D03*
%TD*%
D16*
%TO.C,R9*%
X177162500Y-31412500D03*
X178987500Y-31412500D03*
%TD*%
D41*
%TO.C,Q1*%
X193587500Y-35800000D03*
X193587500Y-33900000D03*
X191712500Y-34850000D03*
%TD*%
D17*
%TO.C,H2*%
X168675000Y-50725000D03*
D18*
X168675000Y-50725000D03*
%TD*%
D19*
%TO.C,C3*%
X192412500Y-32250000D03*
X190687500Y-32250000D03*
%TD*%
D16*
%TO.C,R1*%
X196237500Y-27250000D03*
X198062500Y-27250000D03*
%TD*%
D42*
%TO.C,SW2*%
X192100000Y-28350000D03*
X183900000Y-28350000D03*
D43*
X190000000Y-28350000D03*
D44*
X188000000Y-28350000D03*
X186000000Y-28350000D03*
%TD*%
D31*
%TO.C,R4*%
X184900000Y-32250000D03*
X183075000Y-32250000D03*
%TD*%
%TO.C,R3*%
X188712500Y-32250000D03*
X186887500Y-32250000D03*
%TD*%
D45*
%TO.C,SW1*%
X164800000Y-48700000D03*
X158300000Y-48700000D03*
X164800000Y-53200000D03*
X158300000Y-53200000D03*
%TD*%
%LPD*%
M02*
