M48
; DRILL file KiCad 10.0.3 date 2026-08-29T01:38:31
; FORMAT={-:-/ absolute / inch / decimal}
; #@! TF.CreationDate,2026-08-29T01:38:31-04:00
; #@! TF.GenerationSoftware,Kicad,Pcbnew,10.0.3
; #@! TF.FileFunction,Plated,1,4,PTH
FMAT,2
INCH
; #@! TA.AperFunction,Plated,PTH,ViaDrill
T1C0.0118
; #@! TA.AperFunction,Plated,PTH,ComponentDrill
T2C0.0295
; #@! TA.AperFunction,Plated,PTH,ComponentDrill
T3C0.0350
; #@! TA.AperFunction,Plated,PTH,ComponentDrill
T4C0.0354
; #@! TA.AperFunction,Plated,PTH,ComponentDrill
T5C0.0394
; #@! TA.AperFunction,Plated,PTH,ComponentDrill
T6C0.0433
; #@! TA.AperFunction,Plated,PTH,ComponentDrill
T7C0.0591
; #@! TA.AperFunction,Plated,PTH,ComponentDrill
T8C0.0866
%
G90
G05
T1
X6.7569Y-1.0669
X6.8337Y-1.1703
X6.8366Y-1.8051
X6.9262Y-1.0659
X6.937Y-2.0817
X6.9911Y-1.8051
X6.9951Y-1.0522
X7.0108Y-1.1998
X7.0408Y-1.7554
X7.0438Y-2.0079
X7.0581Y-1.0482
X7.063Y-1.6722
X7.0817Y-1.8848
X7.0827Y-1.8041
X7.1127Y-1.3442
X7.1137Y-1.424
X7.125Y-2.003
X7.1604Y-1.25
X7.1939Y-1.7018
X7.25Y-1.8642
X7.252Y-1.9006
X7.2559Y-2.0138
X7.3238Y-1.6319
X7.377Y-1.9695
X7.438Y-1.372
X7.4911Y-2.0896
X7.624Y-1.248
X7.6998Y-1.3091
X7.7096Y-1.185
X7.7244Y-1.3967
X7.7598Y-1.25
X7.7608Y-1.1122
X7.7736Y-2.1319
X7.7855Y-1.1884
X7.7864Y-1.3022
X7.7904Y-1.3957
X7.8248Y-2.1319
X7.8474Y-1.5994
X7.8553Y-1.1535
X7.9045Y-1.1594
T2
X6.8425Y-1.9094
X6.9213Y-1.9094
T3
X6.0811Y-1.1457
X6.0811Y-1.2457
X6.0811Y-1.3457
X6.0811Y-1.4457
X6.0811Y-1.5457
X6.0811Y-1.6457
X6.0811Y-1.7457
X6.6811Y-1.1457
X6.6811Y-1.2457
X6.6811Y-1.3457
X6.6811Y-1.4457
X6.6811Y-1.5457
X6.6811Y-1.6457
X6.6811Y-1.7457
T4
X7.3228Y-1.1161
X7.4016Y-1.1161
X7.4803Y-1.1161
T5
X7.9075Y-1.3811
X7.9075Y-1.4811
T6
X6.2323Y-1.9173
X6.2323Y-2.0945
X6.4882Y-1.9173
X6.4882Y-2.0945
T7
X7.2402Y-1.1161
X7.563Y-1.1161
T8
X6.0817Y-2.0079
X6.6407Y-1.997
X7.1654Y-1.5561
M30
