%TF.GenerationSoftware,KiCad,Pcbnew,10.0.3*%
%TF.CreationDate,2026-08-29T01:38:31-04:00*%
%TF.ProjectId,MeshNetBoard,4d657368-4e65-4744-926f-6172642e6b69,rev?*%
%TF.SameCoordinates,Original*%
%TF.FileFunction,Legend,Bot*%
%TF.FilePolarity,Positive*%
%FSLAX46Y46*%
G04 Gerber Fmt 4.6, Leading zero omitted, Abs format (unit mm)*
G04 Created by KiCad (PCBNEW 10.0.3) date 2026-08-29 01:38:31*
%MOMM*%
%LPD*%
G01*
G04 APERTURE LIST*
G04 Aperture macros list*
%AMRoundRect*
0 Rectangle with rounded corners*
0 $1 Rounding radius*
0 $2 $3 $4 $5 $6 $7 $8 $9 X,Y pos of 4 corners*
0 Add a 4 corners polygon primitive as box body*
4,1,4,$2,$3,$4,$5,$6,$7,$8,$9,$2,$3,0*
0 Add four circle primitives for the rounded corners*
1,1,$1+$1,$2,$3*
1,1,$1+$1,$4,$5*
1,1,$1+$1,$6,$7*
1,1,$1+$1,$8,$9*
0 Add four rect primitives between the rounded corners*
20,1,$1+$1,$2,$3,$4,$5,0*
20,1,$1+$1,$4,$5,$6,$7,0*
20,1,$1+$1,$6,$7,$8,$9,0*
20,1,$1+$1,$8,$9,$2,$3,0*%
G04 Aperture macros list end*
%ADD10C,0.150000*%
%ADD11C,0.120000*%
%ADD12C,2.600000*%
%ADD13C,4.400000*%
%ADD14C,1.524000*%
%ADD15R,1.700000X1.700000*%
%ADD16C,1.700000*%
%ADD17RoundRect,0.250000X-0.350000X-0.625000X0.350000X-0.625000X0.350000X0.625000X-0.350000X0.625000X0*%
%ADD18O,1.200000X1.750000*%
%ADD19O,2.200000X3.500000*%
%ADD20R,1.500000X2.500000*%
%ADD21O,1.500000X2.500000*%
%ADD22RoundRect,0.237500X-0.250000X-0.237500X0.250000X-0.237500X0.250000X0.237500X-0.250000X0.237500X0*%
%ADD23RoundRect,0.250001X-0.462499X-0.624999X0.462499X-0.624999X0.462499X0.624999X-0.462499X0.624999X0*%
%ADD24C,2.000000*%
G04 APERTURE END LIST*
D10*
X158891666Y-30679819D02*
X159224999Y-30203628D01*
X159463094Y-30679819D02*
X159463094Y-29679819D01*
X159463094Y-29679819D02*
X159082142Y-29679819D01*
X159082142Y-29679819D02*
X158986904Y-29727438D01*
X158986904Y-29727438D02*
X158939285Y-29775057D01*
X158939285Y-29775057D02*
X158891666Y-29870295D01*
X158891666Y-29870295D02*
X158891666Y-30013152D01*
X158891666Y-30013152D02*
X158939285Y-30108390D01*
X158939285Y-30108390D02*
X158986904Y-30156009D01*
X158986904Y-30156009D02*
X159082142Y-30203628D01*
X159082142Y-30203628D02*
X159463094Y-30203628D01*
X158034523Y-29679819D02*
X158224999Y-29679819D01*
X158224999Y-29679819D02*
X158320237Y-29727438D01*
X158320237Y-29727438D02*
X158367856Y-29775057D01*
X158367856Y-29775057D02*
X158463094Y-29917914D01*
X158463094Y-29917914D02*
X158510713Y-30108390D01*
X158510713Y-30108390D02*
X158510713Y-30489342D01*
X158510713Y-30489342D02*
X158463094Y-30584580D01*
X158463094Y-30584580D02*
X158415475Y-30632200D01*
X158415475Y-30632200D02*
X158320237Y-30679819D01*
X158320237Y-30679819D02*
X158129761Y-30679819D01*
X158129761Y-30679819D02*
X158034523Y-30632200D01*
X158034523Y-30632200D02*
X157986904Y-30584580D01*
X157986904Y-30584580D02*
X157939285Y-30489342D01*
X157939285Y-30489342D02*
X157939285Y-30251247D01*
X157939285Y-30251247D02*
X157986904Y-30156009D01*
X157986904Y-30156009D02*
X158034523Y-30108390D01*
X158034523Y-30108390D02*
X158129761Y-30060771D01*
X158129761Y-30060771D02*
X158320237Y-30060771D01*
X158320237Y-30060771D02*
X158415475Y-30108390D01*
X158415475Y-30108390D02*
X158463094Y-30156009D01*
X158463094Y-30156009D02*
X158510713Y-30251247D01*
X168038094Y-36154819D02*
X168038094Y-35154819D01*
X168038094Y-35154819D02*
X167799999Y-35154819D01*
X167799999Y-35154819D02*
X167657142Y-35202438D01*
X167657142Y-35202438D02*
X167561904Y-35297676D01*
X167561904Y-35297676D02*
X167514285Y-35392914D01*
X167514285Y-35392914D02*
X167466666Y-35583390D01*
X167466666Y-35583390D02*
X167466666Y-35726247D01*
X167466666Y-35726247D02*
X167514285Y-35916723D01*
X167514285Y-35916723D02*
X167561904Y-36011961D01*
X167561904Y-36011961D02*
X167657142Y-36107200D01*
X167657142Y-36107200D02*
X167799999Y-36154819D01*
X167799999Y-36154819D02*
X168038094Y-36154819D01*
X166609523Y-35488152D02*
X166609523Y-36154819D01*
X166847618Y-35107200D02*
X167085713Y-35821485D01*
X167085713Y-35821485D02*
X166466666Y-35821485D01*
X159317857Y-38754819D02*
X159651190Y-38278628D01*
X159889285Y-38754819D02*
X159889285Y-37754819D01*
X159889285Y-37754819D02*
X159508333Y-37754819D01*
X159508333Y-37754819D02*
X159413095Y-37802438D01*
X159413095Y-37802438D02*
X159365476Y-37850057D01*
X159365476Y-37850057D02*
X159317857Y-37945295D01*
X159317857Y-37945295D02*
X159317857Y-38088152D01*
X159317857Y-38088152D02*
X159365476Y-38183390D01*
X159365476Y-38183390D02*
X159413095Y-38231009D01*
X159413095Y-38231009D02*
X159508333Y-38278628D01*
X159508333Y-38278628D02*
X159889285Y-38278628D01*
X158365476Y-38754819D02*
X158936904Y-38754819D01*
X158651190Y-38754819D02*
X158651190Y-37754819D01*
X158651190Y-37754819D02*
X158746428Y-37897676D01*
X158746428Y-37897676D02*
X158841666Y-37992914D01*
X158841666Y-37992914D02*
X158936904Y-38040533D01*
X157413095Y-38754819D02*
X157984523Y-38754819D01*
X157698809Y-38754819D02*
X157698809Y-37754819D01*
X157698809Y-37754819D02*
X157794047Y-37897676D01*
X157794047Y-37897676D02*
X157889285Y-37992914D01*
X157889285Y-37992914D02*
X157984523Y-38040533D01*
X161832200Y-49691667D02*
X161879819Y-49834524D01*
X161879819Y-49834524D02*
X161879819Y-50072619D01*
X161879819Y-50072619D02*
X161832200Y-50167857D01*
X161832200Y-50167857D02*
X161784580Y-50215476D01*
X161784580Y-50215476D02*
X161689342Y-50263095D01*
X161689342Y-50263095D02*
X161594104Y-50263095D01*
X161594104Y-50263095D02*
X161498866Y-50215476D01*
X161498866Y-50215476D02*
X161451247Y-50167857D01*
X161451247Y-50167857D02*
X161403628Y-50072619D01*
X161403628Y-50072619D02*
X161356009Y-49882143D01*
X161356009Y-49882143D02*
X161308390Y-49786905D01*
X161308390Y-49786905D02*
X161260771Y-49739286D01*
X161260771Y-49739286D02*
X161165533Y-49691667D01*
X161165533Y-49691667D02*
X161070295Y-49691667D01*
X161070295Y-49691667D02*
X160975057Y-49739286D01*
X160975057Y-49739286D02*
X160927438Y-49786905D01*
X160927438Y-49786905D02*
X160879819Y-49882143D01*
X160879819Y-49882143D02*
X160879819Y-50120238D01*
X160879819Y-50120238D02*
X160927438Y-50263095D01*
X160879819Y-50596429D02*
X161879819Y-50834524D01*
X161879819Y-50834524D02*
X161165533Y-51025000D01*
X161165533Y-51025000D02*
X161879819Y-51215476D01*
X161879819Y-51215476D02*
X160879819Y-51453572D01*
X161879819Y-52358333D02*
X161879819Y-51786905D01*
X161879819Y-52072619D02*
X160879819Y-52072619D01*
X160879819Y-52072619D02*
X161022676Y-51977381D01*
X161022676Y-51977381D02*
X161117914Y-51882143D01*
X161117914Y-51882143D02*
X161165533Y-51786905D01*
X168063094Y-32054819D02*
X168063094Y-31054819D01*
X168063094Y-31054819D02*
X167824999Y-31054819D01*
X167824999Y-31054819D02*
X167682142Y-31102438D01*
X167682142Y-31102438D02*
X167586904Y-31197676D01*
X167586904Y-31197676D02*
X167539285Y-31292914D01*
X167539285Y-31292914D02*
X167491666Y-31483390D01*
X167491666Y-31483390D02*
X167491666Y-31626247D01*
X167491666Y-31626247D02*
X167539285Y-31816723D01*
X167539285Y-31816723D02*
X167586904Y-31911961D01*
X167586904Y-31911961D02*
X167682142Y-32007200D01*
X167682142Y-32007200D02*
X167824999Y-32054819D01*
X167824999Y-32054819D02*
X168063094Y-32054819D01*
X167158332Y-31054819D02*
X166539285Y-31054819D01*
X166539285Y-31054819D02*
X166872618Y-31435771D01*
X166872618Y-31435771D02*
X166729761Y-31435771D01*
X166729761Y-31435771D02*
X166634523Y-31483390D01*
X166634523Y-31483390D02*
X166586904Y-31531009D01*
X166586904Y-31531009D02*
X166539285Y-31626247D01*
X166539285Y-31626247D02*
X166539285Y-31864342D01*
X166539285Y-31864342D02*
X166586904Y-31959580D01*
X166586904Y-31959580D02*
X166634523Y-32007200D01*
X166634523Y-32007200D02*
X166729761Y-32054819D01*
X166729761Y-32054819D02*
X167015475Y-32054819D01*
X167015475Y-32054819D02*
X167110713Y-32007200D01*
X167110713Y-32007200D02*
X167158332Y-31959580D01*
X168013094Y-40329819D02*
X168013094Y-39329819D01*
X168013094Y-39329819D02*
X167774999Y-39329819D01*
X167774999Y-39329819D02*
X167632142Y-39377438D01*
X167632142Y-39377438D02*
X167536904Y-39472676D01*
X167536904Y-39472676D02*
X167489285Y-39567914D01*
X167489285Y-39567914D02*
X167441666Y-39758390D01*
X167441666Y-39758390D02*
X167441666Y-39901247D01*
X167441666Y-39901247D02*
X167489285Y-40091723D01*
X167489285Y-40091723D02*
X167536904Y-40186961D01*
X167536904Y-40186961D02*
X167632142Y-40282200D01*
X167632142Y-40282200D02*
X167774999Y-40329819D01*
X167774999Y-40329819D02*
X168013094Y-40329819D01*
X166536904Y-39329819D02*
X167013094Y-39329819D01*
X167013094Y-39329819D02*
X167060713Y-39806009D01*
X167060713Y-39806009D02*
X167013094Y-39758390D01*
X167013094Y-39758390D02*
X166917856Y-39710771D01*
X166917856Y-39710771D02*
X166679761Y-39710771D01*
X166679761Y-39710771D02*
X166584523Y-39758390D01*
X166584523Y-39758390D02*
X166536904Y-39806009D01*
X166536904Y-39806009D02*
X166489285Y-39901247D01*
X166489285Y-39901247D02*
X166489285Y-40139342D01*
X166489285Y-40139342D02*
X166536904Y-40234580D01*
X166536904Y-40234580D02*
X166584523Y-40282200D01*
X166584523Y-40282200D02*
X166679761Y-40329819D01*
X166679761Y-40329819D02*
X166917856Y-40329819D01*
X166917856Y-40329819D02*
X167013094Y-40282200D01*
X167013094Y-40282200D02*
X167060713Y-40234580D01*
X168100594Y-28654819D02*
X168100594Y-27654819D01*
X168100594Y-27654819D02*
X167862499Y-27654819D01*
X167862499Y-27654819D02*
X167719642Y-27702438D01*
X167719642Y-27702438D02*
X167624404Y-27797676D01*
X167624404Y-27797676D02*
X167576785Y-27892914D01*
X167576785Y-27892914D02*
X167529166Y-28083390D01*
X167529166Y-28083390D02*
X167529166Y-28226247D01*
X167529166Y-28226247D02*
X167576785Y-28416723D01*
X167576785Y-28416723D02*
X167624404Y-28511961D01*
X167624404Y-28511961D02*
X167719642Y-28607200D01*
X167719642Y-28607200D02*
X167862499Y-28654819D01*
X167862499Y-28654819D02*
X168100594Y-28654819D01*
X167148213Y-27750057D02*
X167100594Y-27702438D01*
X167100594Y-27702438D02*
X167005356Y-27654819D01*
X167005356Y-27654819D02*
X166767261Y-27654819D01*
X166767261Y-27654819D02*
X166672023Y-27702438D01*
X166672023Y-27702438D02*
X166624404Y-27750057D01*
X166624404Y-27750057D02*
X166576785Y-27845295D01*
X166576785Y-27845295D02*
X166576785Y-27940533D01*
X166576785Y-27940533D02*
X166624404Y-28083390D01*
X166624404Y-28083390D02*
X167195832Y-28654819D01*
X167195832Y-28654819D02*
X166576785Y-28654819D01*
X158841666Y-27179819D02*
X159174999Y-26703628D01*
X159413094Y-27179819D02*
X159413094Y-26179819D01*
X159413094Y-26179819D02*
X159032142Y-26179819D01*
X159032142Y-26179819D02*
X158936904Y-26227438D01*
X158936904Y-26227438D02*
X158889285Y-26275057D01*
X158889285Y-26275057D02*
X158841666Y-26370295D01*
X158841666Y-26370295D02*
X158841666Y-26513152D01*
X158841666Y-26513152D02*
X158889285Y-26608390D01*
X158889285Y-26608390D02*
X158936904Y-26656009D01*
X158936904Y-26656009D02*
X159032142Y-26703628D01*
X159032142Y-26703628D02*
X159413094Y-26703628D01*
X158508332Y-26179819D02*
X157841666Y-26179819D01*
X157841666Y-26179819D02*
X158270237Y-27179819D01*
X159342857Y-34604819D02*
X159676190Y-34128628D01*
X159914285Y-34604819D02*
X159914285Y-33604819D01*
X159914285Y-33604819D02*
X159533333Y-33604819D01*
X159533333Y-33604819D02*
X159438095Y-33652438D01*
X159438095Y-33652438D02*
X159390476Y-33700057D01*
X159390476Y-33700057D02*
X159342857Y-33795295D01*
X159342857Y-33795295D02*
X159342857Y-33938152D01*
X159342857Y-33938152D02*
X159390476Y-34033390D01*
X159390476Y-34033390D02*
X159438095Y-34081009D01*
X159438095Y-34081009D02*
X159533333Y-34128628D01*
X159533333Y-34128628D02*
X159914285Y-34128628D01*
X158390476Y-34604819D02*
X158961904Y-34604819D01*
X158676190Y-34604819D02*
X158676190Y-33604819D01*
X158676190Y-33604819D02*
X158771428Y-33747676D01*
X158771428Y-33747676D02*
X158866666Y-33842914D01*
X158866666Y-33842914D02*
X158961904Y-33890533D01*
X157771428Y-33604819D02*
X157676190Y-33604819D01*
X157676190Y-33604819D02*
X157580952Y-33652438D01*
X157580952Y-33652438D02*
X157533333Y-33700057D01*
X157533333Y-33700057D02*
X157485714Y-33795295D01*
X157485714Y-33795295D02*
X157438095Y-33985771D01*
X157438095Y-33985771D02*
X157438095Y-34223866D01*
X157438095Y-34223866D02*
X157485714Y-34414342D01*
X157485714Y-34414342D02*
X157533333Y-34509580D01*
X157533333Y-34509580D02*
X157580952Y-34557200D01*
X157580952Y-34557200D02*
X157676190Y-34604819D01*
X157676190Y-34604819D02*
X157771428Y-34604819D01*
X157771428Y-34604819D02*
X157866666Y-34557200D01*
X157866666Y-34557200D02*
X157914285Y-34509580D01*
X157914285Y-34509580D02*
X157961904Y-34414342D01*
X157961904Y-34414342D02*
X158009523Y-34223866D01*
X158009523Y-34223866D02*
X158009523Y-33985771D01*
X158009523Y-33985771D02*
X157961904Y-33795295D01*
X157961904Y-33795295D02*
X157914285Y-33700057D01*
X157914285Y-33700057D02*
X157866666Y-33652438D01*
X157866666Y-33652438D02*
X157771428Y-33604819D01*
%TO.C,R6*%
D11*
X158432776Y-31127500D02*
X158942224Y-31127500D01*
X158432776Y-32172500D02*
X158942224Y-32172500D01*
%TO.C,D4*%
X161302500Y-34615000D02*
X165362500Y-34615000D01*
X161302500Y-36885000D02*
X161302500Y-34615000D01*
X165362500Y-36885000D02*
X161302500Y-36885000D01*
%TO.C,R11*%
X158432776Y-39352500D02*
X158942224Y-39352500D01*
X158432776Y-40397500D02*
X158942224Y-40397500D01*
%TO.C,SW1*%
X158050000Y-51700000D02*
X158050000Y-50200000D01*
X159300000Y-47700000D02*
X163800000Y-47700000D01*
X163800000Y-54200000D02*
X159300000Y-54200000D01*
X165050000Y-50200000D02*
X165050000Y-51700000D01*
%TO.C,D3*%
X161327500Y-30515000D02*
X165387500Y-30515000D01*
X161327500Y-32785000D02*
X161327500Y-30515000D01*
X165387500Y-32785000D02*
X161327500Y-32785000D01*
%TO.C,D5*%
X161290000Y-38690000D02*
X165350000Y-38690000D01*
X161290000Y-40960000D02*
X161290000Y-38690000D01*
X165350000Y-40960000D02*
X161290000Y-40960000D01*
%TO.C,D2*%
X161315000Y-26990000D02*
X165375000Y-26990000D01*
X161315000Y-29260000D02*
X161315000Y-26990000D01*
X165375000Y-29260000D02*
X161315000Y-29260000D01*
%TO.C,R7*%
X158420276Y-27602500D02*
X158929724Y-27602500D01*
X158420276Y-28647500D02*
X158929724Y-28647500D01*
%TO.C,R10*%
X158437776Y-35227500D02*
X158947224Y-35227500D01*
X158437776Y-36272500D02*
X158947224Y-36272500D01*
%TD*%
%LPC*%
D12*
%TO.C,H1*%
X154475000Y-51000000D03*
D13*
X154475000Y-51000000D03*
%TD*%
D14*
%TO.C,U1*%
X154460000Y-29100000D03*
X154460000Y-31640000D03*
X154460000Y-34180000D03*
X154460000Y-36720000D03*
X154460000Y-39260000D03*
X154460000Y-41800000D03*
X154460000Y-44340000D03*
X169700000Y-44340000D03*
X169700000Y-41800000D03*
X169700000Y-39260000D03*
X169700000Y-36720000D03*
X169700000Y-34180000D03*
X169700000Y-31640000D03*
X169700000Y-29100000D03*
%TD*%
D15*
%TO.C,JP1*%
X200850000Y-37620000D03*
D16*
X200850000Y-35080000D03*
%TD*%
D12*
%TO.C,H3*%
X182000000Y-39525000D03*
D13*
X182000000Y-39525000D03*
%TD*%
D17*
%TO.C,J2*%
X173800000Y-48500000D03*
D18*
X175800000Y-48500000D03*
%TD*%
D12*
%TO.C,H2*%
X168675000Y-50725000D03*
D13*
X168675000Y-50725000D03*
%TD*%
D19*
%TO.C,SW2*%
X192100000Y-28350000D03*
X183900000Y-28350000D03*
D20*
X190000000Y-28350000D03*
D21*
X188000000Y-28350000D03*
X186000000Y-28350000D03*
%TD*%
D22*
%TO.C,R6*%
X157775000Y-31650000D03*
X159600000Y-31650000D03*
%TD*%
D23*
%TO.C,D4*%
X162275000Y-35750000D03*
X165250000Y-35750000D03*
%TD*%
D22*
%TO.C,R11*%
X157775000Y-39875000D03*
X159600000Y-39875000D03*
%TD*%
D24*
%TO.C,SW1*%
X164800000Y-48700000D03*
X158300000Y-48700000D03*
X164800000Y-53200000D03*
X158300000Y-53200000D03*
%TD*%
D23*
%TO.C,D3*%
X162300000Y-31650000D03*
X165275000Y-31650000D03*
%TD*%
%TO.C,D5*%
X162262500Y-39825000D03*
X165237500Y-39825000D03*
%TD*%
%TO.C,D2*%
X162287500Y-28125000D03*
X165262500Y-28125000D03*
%TD*%
D22*
%TO.C,R7*%
X157762500Y-28125000D03*
X159587500Y-28125000D03*
%TD*%
%TO.C,R10*%
X157780000Y-35750000D03*
X159605000Y-35750000D03*
%TD*%
%LPD*%
M02*
