%TF.GenerationSoftware,KiCad,Pcbnew,10.0.3*%
%TF.CreationDate,2026-08-29T01:38:31-04:00*%
%TF.ProjectId,MeshNetBoard,4d657368-4e65-4744-926f-6172642e6b69,rev?*%
%TF.SameCoordinates,Original*%
%TF.FileFunction,Soldermask,Bot*%
%TF.FilePolarity,Negative*%
%FSLAX46Y46*%
G04 Gerber Fmt 4.6, Leading zero omitted, Abs format (unit mm)*
G04 Created by KiCad (PCBNEW 10.0.3) date 2026-08-29 01:38:31*
%MOMM*%
%LPD*%
G01*
G04 APERTURE LIST*
G04 Aperture macros list*
%AMRoundRect*
0 Rectangle with rounded corners*
0 $1 Rounding radius*
0 $2 $3 $4 $5 $6 $7 $8 $9 X,Y pos of 4 corners*
0 Add a 4 corners polygon primitive as box body*
4,1,4,$2,$3,$4,$5,$6,$7,$8,$9,$2,$3,0*
0 Add four circle primitives for the rounded corners*
1,1,$1+$1,$2,$3*
1,1,$1+$1,$4,$5*
1,1,$1+$1,$6,$7*
1,1,$1+$1,$8,$9*
0 Add four rect primitives between the rounded corners*
20,1,$1+$1,$2,$3,$4,$5,0*
20,1,$1+$1,$4,$5,$6,$7,0*
20,1,$1+$1,$6,$7,$8,$9,0*
20,1,$1+$1,$8,$9,$2,$3,0*%
G04 Aperture macros list end*
%ADD10C,2.600000*%
%ADD11C,4.400000*%
%ADD12C,1.524000*%
%ADD13R,1.700000X1.700000*%
%ADD14C,1.700000*%
%ADD15RoundRect,0.250000X-0.350000X-0.625000X0.350000X-0.625000X0.350000X0.625000X-0.350000X0.625000X0*%
%ADD16O,1.200000X1.750000*%
%ADD17O,2.200000X3.500000*%
%ADD18R,1.500000X2.500000*%
%ADD19O,1.500000X2.500000*%
%ADD20RoundRect,0.237500X-0.250000X-0.237500X0.250000X-0.237500X0.250000X0.237500X-0.250000X0.237500X0*%
%ADD21RoundRect,0.250001X-0.462499X-0.624999X0.462499X-0.624999X0.462499X0.624999X-0.462499X0.624999X0*%
%ADD22C,2.000000*%
G04 APERTURE END LIST*
D10*
%TO.C,H1*%
X154475000Y-51000000D03*
D11*
X154475000Y-51000000D03*
%TD*%
D12*
%TO.C,U1*%
X154460000Y-29100000D03*
X154460000Y-31640000D03*
X154460000Y-34180000D03*
X154460000Y-36720000D03*
X154460000Y-39260000D03*
X154460000Y-41800000D03*
X154460000Y-44340000D03*
X169700000Y-44340000D03*
X169700000Y-41800000D03*
X169700000Y-39260000D03*
X169700000Y-36720000D03*
X169700000Y-34180000D03*
X169700000Y-31640000D03*
X169700000Y-29100000D03*
%TD*%
D13*
%TO.C,JP1*%
X200850000Y-37620000D03*
D14*
X200850000Y-35080000D03*
%TD*%
D10*
%TO.C,H3*%
X182000000Y-39525000D03*
D11*
X182000000Y-39525000D03*
%TD*%
D15*
%TO.C,J2*%
X173800000Y-48500000D03*
D16*
X175800000Y-48500000D03*
%TD*%
D10*
%TO.C,H2*%
X168675000Y-50725000D03*
D11*
X168675000Y-50725000D03*
%TD*%
D17*
%TO.C,SW2*%
X192100000Y-28350000D03*
X183900000Y-28350000D03*
D18*
X190000000Y-28350000D03*
D19*
X188000000Y-28350000D03*
X186000000Y-28350000D03*
%TD*%
D20*
%TO.C,R6*%
X157775000Y-31650000D03*
X159600000Y-31650000D03*
%TD*%
D21*
%TO.C,D4*%
X162275000Y-35750000D03*
X165250000Y-35750000D03*
%TD*%
D20*
%TO.C,R11*%
X157775000Y-39875000D03*
X159600000Y-39875000D03*
%TD*%
D22*
%TO.C,SW1*%
X164800000Y-48700000D03*
X158300000Y-48700000D03*
X164800000Y-53200000D03*
X158300000Y-53200000D03*
%TD*%
D21*
%TO.C,D3*%
X162300000Y-31650000D03*
X165275000Y-31650000D03*
%TD*%
%TO.C,D5*%
X162262500Y-39825000D03*
X165237500Y-39825000D03*
%TD*%
%TO.C,D2*%
X162287500Y-28125000D03*
X165262500Y-28125000D03*
%TD*%
D20*
%TO.C,R7*%
X157762500Y-28125000D03*
X159587500Y-28125000D03*
%TD*%
%TO.C,R10*%
X157780000Y-35750000D03*
X159605000Y-35750000D03*
%TD*%
M02*
