%TF.GenerationSoftware,KiCad,Pcbnew,10.0.3*%
%TF.CreationDate,2026-08-29T01:38:31-04:00*%
%TF.ProjectId,MeshNetBoard,4d657368-4e65-4744-926f-6172642e6b69,rev?*%
%TF.SameCoordinates,Original*%
%TF.FileFunction,Copper,L3,Inr*%
%TF.FilePolarity,Positive*%
%FSLAX46Y46*%
G04 Gerber Fmt 4.6, Leading zero omitted, Abs format (unit mm)*
G04 Created by KiCad (PCBNEW 10.0.3) date 2026-08-29 01:38:31*
%MOMM*%
%LPD*%
G01*
G04 APERTURE LIST*
G04 Aperture macros list*
%AMRoundRect*
0 Rectangle with rounded corners*
0 $1 Rounding radius*
0 $2 $3 $4 $5 $6 $7 $8 $9 X,Y pos of 4 corners*
0 Add a 4 corners polygon primitive as box body*
4,1,4,$2,$3,$4,$5,$6,$7,$8,$9,$2,$3,0*
0 Add four circle primitives for the rounded corners*
1,1,$1+$1,$2,$3*
1,1,$1+$1,$4,$5*
1,1,$1+$1,$6,$7*
1,1,$1+$1,$8,$9*
0 Add four rect primitives between the rounded corners*
20,1,$1+$1,$2,$3,$4,$5,0*
20,1,$1+$1,$4,$5,$6,$7,0*
20,1,$1+$1,$6,$7,$8,$9,0*
20,1,$1+$1,$8,$9,$2,$3,0*%
G04 Aperture macros list end*
%TA.AperFunction,ComponentPad*%
%ADD10C,2.600000*%
%TD*%
%TA.AperFunction,ComponentPad*%
%ADD11C,1.524000*%
%TD*%
%TA.AperFunction,ComponentPad*%
%ADD12R,1.700000X1.700000*%
%TD*%
%TA.AperFunction,ComponentPad*%
%ADD13C,1.700000*%
%TD*%
%TA.AperFunction,ComponentPad*%
%ADD14RoundRect,0.250000X-0.350000X-0.625000X0.350000X-0.625000X0.350000X0.625000X-0.350000X0.625000X0*%
%TD*%
%TA.AperFunction,ComponentPad*%
%ADD15O,1.200000X1.750000*%
%TD*%
%TA.AperFunction,ComponentPad*%
%ADD16O,2.200000X3.500000*%
%TD*%
%TA.AperFunction,ComponentPad*%
%ADD17R,1.500000X2.500000*%
%TD*%
%TA.AperFunction,ComponentPad*%
%ADD18O,1.500000X2.500000*%
%TD*%
%TA.AperFunction,ComponentPad*%
%ADD19C,2.000000*%
%TD*%
%TA.AperFunction,ViaPad*%
%ADD20C,0.600000*%
%TD*%
G04 APERTURE END LIST*
D10*
%TO.N,GND*%
%TO.C,H1*%
X154475000Y-51000000D03*
%TD*%
D11*
%TO.N,LED1*%
%TO.C,U1*%
X154460000Y-29100000D03*
%TO.N,LED2*%
X154460000Y-31640000D03*
%TO.N,LED3*%
X154460000Y-34180000D03*
%TO.N,LED4*%
X154460000Y-36720000D03*
%TO.N,SD_DATA*%
X154460000Y-39260000D03*
%TO.N,unconnected-(U1-GPIO6_A5_D5_SCL-Pad6)*%
X154460000Y-41800000D03*
%TO.N,unconnected-(U1-GPIO43_D6_TX-Pad7)_1*%
X154460000Y-44340000D03*
%TO.N,GPIO44*%
X169700000Y-44340000D03*
%TO.N,SCK*%
X169700000Y-41800000D03*
%TO.N,MISO*%
X169700000Y-39260000D03*
%TO.N,MOSI*%
X169700000Y-36720000D03*
%TO.N,3v3*%
X169700000Y-34180000D03*
%TO.N,GND*%
X169700000Y-31640000D03*
%TO.N,5v*%
X169700000Y-29100000D03*
%TD*%
D12*
%TO.N,3v3*%
%TO.C,JP1*%
X200850000Y-37620000D03*
D13*
%TO.N,Net-(D1-K)*%
X200850000Y-35080000D03*
%TD*%
D10*
%TO.N,GND*%
%TO.C,H3*%
X182000000Y-39525000D03*
%TD*%
D14*
%TO.N,Net-(J2-Pin_1)*%
%TO.C,J2*%
X173800000Y-48500000D03*
D15*
%TO.N,GND*%
X175800000Y-48500000D03*
%TD*%
D10*
%TO.N,GND*%
%TO.C,H2*%
X168675000Y-50725000D03*
%TD*%
D16*
%TO.N,*%
%TO.C,SW2*%
X192100000Y-28350000D03*
X183900000Y-28350000D03*
D17*
%TO.N,+BATT*%
X190000000Y-28350000D03*
D18*
%TO.N,Net-(J2-Pin_1)*%
X188000000Y-28350000D03*
%TO.N,N/C*%
X186000000Y-28350000D03*
%TD*%
D19*
%TO.N,Net-(D2-A)*%
%TO.C,SW1*%
X164800000Y-48700000D03*
X158300000Y-48700000D03*
%TO.N,3v3*%
X164800000Y-53200000D03*
X158300000Y-53200000D03*
%TD*%
D20*
%TO.N,3v3*%
X184200000Y-48275000D03*
X178912500Y-51000000D03*
X184150000Y-47350000D03*
X180662500Y-34143750D03*
X180975000Y-50875000D03*
X179400000Y-42475000D03*
%TO.N,SD_DATA*%
X182725000Y-43225000D03*
X178836719Y-44588281D03*
X177575000Y-45850000D03*
X173650000Y-45850000D03*
%TO.N,GND*%
X199325000Y-40625000D03*
X193650000Y-31700000D03*
X180687500Y-36168750D03*
X190275000Y-53075000D03*
X197450000Y-54150000D03*
X171625000Y-27100000D03*
X181875000Y-31750000D03*
X177675000Y-26725000D03*
X179875000Y-47875000D03*
X187375000Y-50025000D03*
X197125000Y-28250000D03*
X196200000Y-35475000D03*
X178075000Y-30475000D03*
X198750000Y-54150000D03*
X186025000Y-41450000D03*
X173575000Y-29725000D03*
X188925000Y-34850000D03*
X197100000Y-31750000D03*
X197875000Y-35450000D03*
X179900000Y-45825000D03*
%TO.N,5v*%
X175925000Y-27075000D03*
X179275000Y-26625000D03*
%TO.N,+BATT*%
X195575000Y-33250000D03*
X197775000Y-33075000D03*
%TO.N,MISO*%
X184300000Y-51150000D03*
%TO.N,Net-(D1-K)*%
X195825000Y-30100000D03*
X199525000Y-29300000D03*
%TO.N,Net-(D1-A)*%
X200775000Y-29450000D03*
X197751974Y-30184999D03*
%TO.N,Net-(J2-Pin_1)*%
X176200000Y-52875000D03*
%TD*%
%TA.AperFunction,Conductor*%
%TO.N,5v*%
G36*
X177135098Y-25920185D02*
G01*
X177180853Y-25972989D01*
X177190797Y-26042147D01*
X177161772Y-26105703D01*
X177155740Y-26112181D01*
X177053213Y-26214707D01*
X177053210Y-26214711D01*
X176965609Y-26345814D01*
X176965602Y-26345827D01*
X176905264Y-26491498D01*
X176905261Y-26491510D01*
X176874500Y-26646153D01*
X176874500Y-26803846D01*
X176905261Y-26958489D01*
X176905264Y-26958501D01*
X176965602Y-27104172D01*
X176965609Y-27104185D01*
X177053210Y-27235288D01*
X177053213Y-27235292D01*
X177164707Y-27346786D01*
X177164711Y-27346789D01*
X177295814Y-27434390D01*
X177295827Y-27434397D01*
X177441498Y-27494735D01*
X177441503Y-27494737D01*
X177596153Y-27525499D01*
X177596156Y-27525500D01*
X177596158Y-27525500D01*
X177753844Y-27525500D01*
X177753845Y-27525499D01*
X177908497Y-27494737D01*
X178054179Y-27434394D01*
X178185289Y-27346789D01*
X178296789Y-27235289D01*
X178384394Y-27104179D01*
X178444737Y-26958497D01*
X178475500Y-26803842D01*
X178475500Y-26646158D01*
X178475500Y-26646155D01*
X178475499Y-26646153D01*
X178444738Y-26491510D01*
X178444737Y-26491503D01*
X178402946Y-26390609D01*
X178384397Y-26345827D01*
X178384390Y-26345814D01*
X178296789Y-26214711D01*
X178296786Y-26214707D01*
X178194260Y-26112181D01*
X178160775Y-26050858D01*
X178165759Y-25981166D01*
X178207631Y-25925233D01*
X178273095Y-25900816D01*
X178281941Y-25900500D01*
X182135824Y-25900500D01*
X182202863Y-25920185D01*
X182248618Y-25972989D01*
X182259804Y-26022273D01*
X182299480Y-28231384D01*
X182299500Y-28233611D01*
X182299500Y-29125961D01*
X182316247Y-29231697D01*
X182317754Y-29248868D01*
X182347252Y-30891360D01*
X182328774Y-30958743D01*
X182276801Y-31005438D01*
X182207832Y-31016622D01*
X182175820Y-31008149D01*
X182169275Y-31005438D01*
X182108497Y-30980263D01*
X182108492Y-30980262D01*
X182108489Y-30980261D01*
X181953845Y-30949500D01*
X181953842Y-30949500D01*
X181796158Y-30949500D01*
X181796155Y-30949500D01*
X181641510Y-30980261D01*
X181641498Y-30980264D01*
X181495827Y-31040602D01*
X181495814Y-31040609D01*
X181364711Y-31128210D01*
X181364707Y-31128213D01*
X181253213Y-31239707D01*
X181253210Y-31239711D01*
X181165609Y-31370814D01*
X181165602Y-31370827D01*
X181105264Y-31516498D01*
X181105261Y-31516510D01*
X181074500Y-31671153D01*
X181074500Y-31828846D01*
X181105261Y-31983489D01*
X181105264Y-31983501D01*
X181165602Y-32129172D01*
X181165609Y-32129185D01*
X181253210Y-32260288D01*
X181253213Y-32260292D01*
X181364707Y-32371786D01*
X181364711Y-32371789D01*
X181495814Y-32459390D01*
X181495827Y-32459397D01*
X181641498Y-32519735D01*
X181641503Y-32519737D01*
X181796153Y-32550499D01*
X181796156Y-32550500D01*
X181796158Y-32550500D01*
X181953844Y-32550500D01*
X181953845Y-32550499D01*
X182108497Y-32519737D01*
X182168568Y-32494854D01*
X182206356Y-32479203D01*
X182275825Y-32471734D01*
X182338304Y-32503009D01*
X182373956Y-32563098D01*
X182377788Y-32591537D01*
X182381437Y-32794707D01*
X182362959Y-32862089D01*
X182310986Y-32908785D01*
X182256793Y-32920932D01*
X170552112Y-32858227D01*
X170485179Y-32838184D01*
X170439707Y-32785135D01*
X170430134Y-32715925D01*
X170459499Y-32652525D01*
X170479884Y-32633916D01*
X170522464Y-32602981D01*
X170662981Y-32462464D01*
X170779787Y-32301694D01*
X170870005Y-32124632D01*
X170931413Y-31935636D01*
X170962500Y-31739361D01*
X170962500Y-31540639D01*
X170931413Y-31344364D01*
X170899042Y-31244735D01*
X170870006Y-31155370D01*
X170870005Y-31155367D01*
X170811532Y-31040609D01*
X170779787Y-30978306D01*
X170662981Y-30817536D01*
X170522464Y-30677019D01*
X170361694Y-30560213D01*
X170349190Y-30553842D01*
X170184632Y-30469994D01*
X170184629Y-30469993D01*
X169995637Y-30408587D01*
X169897498Y-30393043D01*
X169799361Y-30377500D01*
X169600639Y-30377500D01*
X169535214Y-30387862D01*
X169404362Y-30408587D01*
X169215370Y-30469993D01*
X169215367Y-30469994D01*
X169038305Y-30560213D01*
X168877533Y-30677021D01*
X168737021Y-30817533D01*
X168620211Y-30978307D01*
X168597840Y-31022214D01*
X168549866Y-31073009D01*
X168482045Y-31089804D01*
X168415910Y-31067266D01*
X168372459Y-31012551D01*
X168363363Y-30967261D01*
X168349055Y-29646153D01*
X172774500Y-29646153D01*
X172774500Y-29803846D01*
X172805261Y-29958489D01*
X172805264Y-29958501D01*
X172865602Y-30104172D01*
X172865609Y-30104185D01*
X172953210Y-30235288D01*
X172953213Y-30235292D01*
X173064707Y-30346786D01*
X173064711Y-30346789D01*
X173195814Y-30434390D01*
X173195827Y-30434397D01*
X173313749Y-30483241D01*
X173341503Y-30494737D01*
X173496153Y-30525499D01*
X173496156Y-30525500D01*
X173496158Y-30525500D01*
X173653844Y-30525500D01*
X173653845Y-30525499D01*
X173808497Y-30494737D01*
X173954179Y-30434394D01*
X174011411Y-30396153D01*
X177274500Y-30396153D01*
X177274500Y-30553846D01*
X177305261Y-30708489D01*
X177305264Y-30708501D01*
X177365602Y-30854172D01*
X177365609Y-30854185D01*
X177453210Y-30985288D01*
X177453213Y-30985292D01*
X177564707Y-31096786D01*
X177564711Y-31096789D01*
X177695814Y-31184390D01*
X177695827Y-31184397D01*
X177829359Y-31239707D01*
X177841503Y-31244737D01*
X177996153Y-31275499D01*
X177996156Y-31275500D01*
X177996158Y-31275500D01*
X178153844Y-31275500D01*
X178153845Y-31275499D01*
X178308497Y-31244737D01*
X178454179Y-31184394D01*
X178585289Y-31096789D01*
X178696789Y-30985289D01*
X178784394Y-30854179D01*
X178844737Y-30708497D01*
X178875500Y-30553842D01*
X178875500Y-30396158D01*
X178875500Y-30396155D01*
X178875499Y-30396153D01*
X178844738Y-30241510D01*
X178844737Y-30241503D01*
X178836159Y-30220793D01*
X178784397Y-30095827D01*
X178784390Y-30095814D01*
X178696789Y-29964711D01*
X178696786Y-29964707D01*
X178585292Y-29853213D01*
X178585288Y-29853210D01*
X178454185Y-29765609D01*
X178454172Y-29765602D01*
X178308501Y-29705264D01*
X178308489Y-29705261D01*
X178153845Y-29674500D01*
X178153842Y-29674500D01*
X177996158Y-29674500D01*
X177996155Y-29674500D01*
X177841510Y-29705261D01*
X177841498Y-29705264D01*
X177695827Y-29765602D01*
X177695814Y-29765609D01*
X177564711Y-29853210D01*
X177564707Y-29853213D01*
X177453213Y-29964707D01*
X177453210Y-29964711D01*
X177365609Y-30095814D01*
X177365602Y-30095827D01*
X177305264Y-30241498D01*
X177305261Y-30241510D01*
X177274500Y-30396153D01*
X174011411Y-30396153D01*
X174085289Y-30346789D01*
X174085292Y-30346786D01*
X174129694Y-30302385D01*
X174196786Y-30235292D01*
X174196789Y-30235289D01*
X174284394Y-30104179D01*
X174287854Y-30095827D01*
X174342163Y-29964711D01*
X174344737Y-29958497D01*
X174375500Y-29803842D01*
X174375500Y-29646158D01*
X174375500Y-29646155D01*
X174375499Y-29646153D01*
X174344738Y-29491510D01*
X174344737Y-29491503D01*
X174344735Y-29491498D01*
X174284397Y-29345827D01*
X174284390Y-29345814D01*
X174196789Y-29214711D01*
X174196786Y-29214707D01*
X174085292Y-29103213D01*
X174085288Y-29103210D01*
X173954185Y-29015609D01*
X173954172Y-29015602D01*
X173808501Y-28955264D01*
X173808489Y-28955261D01*
X173653845Y-28924500D01*
X173653842Y-28924500D01*
X173496158Y-28924500D01*
X173496155Y-28924500D01*
X173341510Y-28955261D01*
X173341498Y-28955264D01*
X173195827Y-29015602D01*
X173195814Y-29015609D01*
X173064711Y-29103210D01*
X173064707Y-29103213D01*
X172953213Y-29214707D01*
X172953210Y-29214711D01*
X172865609Y-29345814D01*
X172865602Y-29345827D01*
X172805264Y-29491498D01*
X172805261Y-29491510D01*
X172774500Y-29646153D01*
X168349055Y-29646153D01*
X168349004Y-29641409D01*
X168320625Y-27021153D01*
X170824500Y-27021153D01*
X170824500Y-27178846D01*
X170855261Y-27333489D01*
X170855264Y-27333501D01*
X170915602Y-27479172D01*
X170915609Y-27479185D01*
X171003210Y-27610288D01*
X171003213Y-27610292D01*
X171114707Y-27721786D01*
X171114711Y-27721789D01*
X171245814Y-27809390D01*
X171245827Y-27809397D01*
X171391498Y-27869735D01*
X171391503Y-27869737D01*
X171546153Y-27900499D01*
X171546156Y-27900500D01*
X171546158Y-27900500D01*
X171703844Y-27900500D01*
X171703845Y-27900499D01*
X171858497Y-27869737D01*
X172004179Y-27809394D01*
X172135289Y-27721789D01*
X172246789Y-27610289D01*
X172334394Y-27479179D01*
X172394737Y-27333497D01*
X172425500Y-27178842D01*
X172425500Y-27021158D01*
X172425500Y-27021155D01*
X172425499Y-27021153D01*
X172394738Y-26866510D01*
X172394737Y-26866503D01*
X172368782Y-26803842D01*
X172334397Y-26720827D01*
X172334390Y-26720814D01*
X172246789Y-26589711D01*
X172246786Y-26589707D01*
X172135292Y-26478213D01*
X172135288Y-26478210D01*
X172004185Y-26390609D01*
X172004172Y-26390602D01*
X171858501Y-26330264D01*
X171858489Y-26330261D01*
X171703845Y-26299500D01*
X171703842Y-26299500D01*
X171546158Y-26299500D01*
X171546155Y-26299500D01*
X171391510Y-26330261D01*
X171391498Y-26330264D01*
X171245827Y-26390602D01*
X171245814Y-26390609D01*
X171114711Y-26478210D01*
X171114707Y-26478213D01*
X171003213Y-26589707D01*
X171003210Y-26589711D01*
X170915609Y-26720814D01*
X170915602Y-26720827D01*
X170855264Y-26866498D01*
X170855261Y-26866510D01*
X170824500Y-27021153D01*
X168320625Y-27021153D01*
X168320574Y-27016409D01*
X168309846Y-26025843D01*
X168328804Y-25958594D01*
X168381109Y-25912270D01*
X168433839Y-25900500D01*
X177068059Y-25900500D01*
X177135098Y-25920185D01*
G37*
%TD.AperFunction*%
%TD*%
%TA.AperFunction,Conductor*%
%TO.N,3v3*%
G36*
X166318520Y-25900502D02*
G01*
X166319258Y-25900505D01*
X166319316Y-25900506D01*
X166320029Y-25900511D01*
X167681990Y-25917145D01*
X167748782Y-25937647D01*
X167793889Y-25991006D01*
X167804467Y-26039793D01*
X167812774Y-26806783D01*
X167815103Y-27021842D01*
X167815103Y-27021843D01*
X167815154Y-27026587D01*
X167815154Y-27026598D01*
X167815155Y-27026627D01*
X167815155Y-27026628D01*
X167840631Y-29378848D01*
X167843533Y-29646842D01*
X167843532Y-29646842D01*
X167843547Y-29648175D01*
X167843584Y-29651587D01*
X167843584Y-29651599D01*
X167843585Y-29651626D01*
X167843585Y-29651627D01*
X167857433Y-30930257D01*
X167857893Y-30972732D01*
X167857894Y-30972748D01*
X167867758Y-31066782D01*
X167867762Y-31066812D01*
X167876854Y-31112081D01*
X167876855Y-31112083D01*
X167876856Y-31112088D01*
X167889861Y-31155373D01*
X167904068Y-31202658D01*
X167973048Y-31320833D01*
X167976599Y-31326916D01*
X168020050Y-31381631D01*
X168124652Y-31480424D01*
X168124656Y-31480426D01*
X168256796Y-31547756D01*
X168256114Y-31549094D01*
X168305217Y-31589240D01*
X168326631Y-31651660D01*
X168399998Y-32849999D01*
X168399999Y-32850000D01*
X168403667Y-32850018D01*
X168403693Y-32850026D01*
X168403694Y-32850019D01*
X169325318Y-32854956D01*
X169344362Y-32856532D01*
X169363071Y-32859546D01*
X169381663Y-32864036D01*
X169404364Y-32871413D01*
X169600639Y-32902500D01*
X169600640Y-32902500D01*
X169799358Y-32902500D01*
X169799360Y-32902500D01*
X169799361Y-32902500D01*
X169837883Y-32896398D01*
X169907174Y-32905352D01*
X169960626Y-32950347D01*
X169976442Y-32984572D01*
X169978770Y-32992660D01*
X169978772Y-32992665D01*
X170055906Y-33114114D01*
X170101376Y-33167161D01*
X170101383Y-33167168D01*
X170101392Y-33167176D01*
X170105935Y-33171155D01*
X170209613Y-33261969D01*
X170340170Y-33322439D01*
X170340172Y-33322439D01*
X170340173Y-33322440D01*
X170407091Y-33342479D01*
X170407096Y-33342480D01*
X170407103Y-33342482D01*
X170549404Y-33363720D01*
X181777945Y-33423874D01*
X182254077Y-33426425D01*
X182254077Y-33426424D01*
X182254085Y-33426425D01*
X182367354Y-33414193D01*
X182421547Y-33402046D01*
X182529206Y-33364757D01*
X182582934Y-33328848D01*
X194774499Y-33328848D01*
X194805257Y-33483471D01*
X194805264Y-33483502D01*
X194865598Y-33629165D01*
X194865603Y-33629174D01*
X194865613Y-33629191D01*
X194953211Y-33760290D01*
X194953212Y-33760291D01*
X194953217Y-33760297D01*
X195064701Y-33871781D01*
X195064705Y-33871784D01*
X195064707Y-33871786D01*
X195064711Y-33871789D01*
X195195814Y-33959390D01*
X195195827Y-33959397D01*
X195341498Y-34019735D01*
X195341503Y-34019737D01*
X195491131Y-34049500D01*
X195496153Y-34050499D01*
X195496156Y-34050500D01*
X195496158Y-34050500D01*
X195653844Y-34050500D01*
X195653845Y-34050499D01*
X195808497Y-34019737D01*
X195954179Y-33959394D01*
X196085289Y-33871789D01*
X196085291Y-33871786D01*
X196085295Y-33871784D01*
X196196786Y-33760292D01*
X196196788Y-33760290D01*
X196196789Y-33760289D01*
X196284394Y-33629179D01*
X196344737Y-33483497D01*
X196375500Y-33328842D01*
X196375500Y-33171158D01*
X196375500Y-33171155D01*
X196375500Y-33170973D01*
X196375065Y-33168972D01*
X196372056Y-33153844D01*
X196345395Y-33019815D01*
X196344984Y-33017406D01*
X196344737Y-33016508D01*
X196344737Y-33016503D01*
X196326515Y-32972510D01*
X196312639Y-32939010D01*
X196284400Y-32870833D01*
X196284395Y-32870824D01*
X196284390Y-32870814D01*
X196196789Y-32739711D01*
X196196786Y-32739707D01*
X196196781Y-32739701D01*
X196085297Y-32628217D01*
X196085291Y-32628212D01*
X196085290Y-32628211D01*
X195954191Y-32540613D01*
X195954190Y-32540612D01*
X195954185Y-32540609D01*
X195954172Y-32540602D01*
X195954165Y-32540598D01*
X195808502Y-32480264D01*
X195808471Y-32480257D01*
X195653847Y-32449500D01*
X195653845Y-32449500D01*
X195653842Y-32449500D01*
X195496158Y-32449500D01*
X195496155Y-32449500D01*
X195496153Y-32449500D01*
X195341527Y-32480257D01*
X195341496Y-32480264D01*
X195195833Y-32540598D01*
X195195824Y-32540603D01*
X195195807Y-32540613D01*
X195064708Y-32628211D01*
X195064707Y-32628212D01*
X195064701Y-32628217D01*
X194953217Y-32739701D01*
X194953212Y-32739707D01*
X194953211Y-32739708D01*
X194865613Y-32870807D01*
X194865603Y-32870824D01*
X194865598Y-32870833D01*
X194805264Y-33016496D01*
X194805257Y-33016527D01*
X194774500Y-33171150D01*
X194774500Y-33171153D01*
X194774500Y-33328846D01*
X194774500Y-33328848D01*
X194774499Y-33328848D01*
X182582934Y-33328848D01*
X182648829Y-33284807D01*
X182700802Y-33238111D01*
X182700804Y-33238108D01*
X182700806Y-33238107D01*
X182793047Y-33127709D01*
X182793047Y-33127707D01*
X182793050Y-33127705D01*
X182850461Y-32995775D01*
X182868939Y-32928393D01*
X182868940Y-32928390D01*
X182886855Y-32785630D01*
X182883206Y-32582460D01*
X182878761Y-32524034D01*
X182878758Y-32524014D01*
X182878758Y-32524008D01*
X182877089Y-32511630D01*
X182874929Y-32495595D01*
X182863755Y-32438087D01*
X182808695Y-32305159D01*
X182773043Y-32245070D01*
X182773042Y-32245069D01*
X182773011Y-32245030D01*
X182770897Y-32242309D01*
X182770525Y-32241903D01*
X182769704Y-32240927D01*
X182682762Y-32133037D01*
X182673644Y-32126706D01*
X182663023Y-32114077D01*
X182655345Y-32096587D01*
X182643362Y-32081716D01*
X182641593Y-32065258D01*
X182634939Y-32050100D01*
X182637936Y-32031235D01*
X182635895Y-32012246D01*
X182643366Y-31986806D01*
X182644737Y-31983497D01*
X182675500Y-31828842D01*
X182675500Y-31778848D01*
X192849499Y-31778848D01*
X192880257Y-31933471D01*
X192880264Y-31933502D01*
X192940598Y-32079165D01*
X192940603Y-32079174D01*
X192940613Y-32079191D01*
X193028211Y-32210290D01*
X193028212Y-32210291D01*
X193028217Y-32210297D01*
X193139701Y-32321781D01*
X193139707Y-32321786D01*
X193139711Y-32321789D01*
X193270814Y-32409390D01*
X193270827Y-32409397D01*
X193398944Y-32462464D01*
X193416503Y-32469737D01*
X193565457Y-32499366D01*
X193567341Y-32499803D01*
X193567535Y-32499912D01*
X193571155Y-32500500D01*
X193728844Y-32500500D01*
X193732964Y-32500500D01*
X193740814Y-32498118D01*
X193883497Y-32469737D01*
X194029179Y-32409394D01*
X194160289Y-32321789D01*
X194271789Y-32210289D01*
X194359394Y-32079179D01*
X194419737Y-31933497D01*
X194440553Y-31828848D01*
X196299499Y-31828848D01*
X196330257Y-31983471D01*
X196330264Y-31983502D01*
X196390598Y-32129165D01*
X196390603Y-32129174D01*
X196390613Y-32129191D01*
X196478211Y-32260290D01*
X196478212Y-32260291D01*
X196478217Y-32260297D01*
X196589701Y-32371781D01*
X196589707Y-32371786D01*
X196589711Y-32371789D01*
X196720814Y-32459390D01*
X196720827Y-32459397D01*
X196771188Y-32480257D01*
X196813816Y-32497914D01*
X196813818Y-32497914D01*
X196820060Y-32500500D01*
X196866503Y-32519737D01*
X196930629Y-32532492D01*
X196948354Y-32536018D01*
X196952158Y-32536775D01*
X196985437Y-32548515D01*
X196997737Y-32554949D01*
X197048016Y-32603465D01*
X197064084Y-32671460D01*
X197063495Y-32682452D01*
X197054235Y-32723268D01*
X197005262Y-32841502D01*
X197005259Y-32841515D01*
X197005257Y-32841522D01*
X196974500Y-32996148D01*
X196974500Y-32996153D01*
X196974500Y-33153846D01*
X196974500Y-33153848D01*
X196974499Y-33153848D01*
X197005257Y-33308471D01*
X197005264Y-33308502D01*
X197065598Y-33454165D01*
X197065603Y-33454174D01*
X197065613Y-33454191D01*
X197153211Y-33585290D01*
X197153212Y-33585291D01*
X197153217Y-33585297D01*
X197264701Y-33696781D01*
X197264707Y-33696786D01*
X197264711Y-33696789D01*
X197395814Y-33784390D01*
X197395827Y-33784397D01*
X197541498Y-33844735D01*
X197541503Y-33844737D01*
X197677487Y-33871786D01*
X197688520Y-33873980D01*
X197688521Y-33873981D01*
X197691246Y-33874703D01*
X197696155Y-33875500D01*
X197853844Y-33875500D01*
X197857964Y-33875500D01*
X197865814Y-33873118D01*
X198008497Y-33844737D01*
X198154179Y-33784394D01*
X198285289Y-33696789D01*
X198396789Y-33585289D01*
X198484394Y-33454179D01*
X198544737Y-33308497D01*
X198575500Y-33153842D01*
X198575500Y-32996158D01*
X198575500Y-32996155D01*
X198575500Y-32995973D01*
X198575065Y-32993972D01*
X198572573Y-32981446D01*
X198559418Y-32915311D01*
X198544737Y-32841503D01*
X198544735Y-32841498D01*
X198484397Y-32695827D01*
X198484390Y-32695814D01*
X198396789Y-32564711D01*
X198396786Y-32564707D01*
X198396781Y-32564701D01*
X198285297Y-32453217D01*
X198285291Y-32453212D01*
X198285290Y-32453211D01*
X198154191Y-32365613D01*
X198154190Y-32365612D01*
X198154185Y-32365609D01*
X198154172Y-32365602D01*
X198154165Y-32365598D01*
X198008523Y-32305272D01*
X198008509Y-32305267D01*
X198008501Y-32305264D01*
X198008491Y-32305261D01*
X198008488Y-32305260D01*
X198008484Y-32305259D01*
X197922843Y-32288224D01*
X197889564Y-32276484D01*
X197877265Y-32270051D01*
X197826984Y-32221537D01*
X197810914Y-32153541D01*
X197811503Y-32142542D01*
X197820762Y-32101734D01*
X197868059Y-31987546D01*
X197869222Y-31984998D01*
X197869730Y-31983510D01*
X197869735Y-31983501D01*
X197869737Y-31983497D01*
X197900499Y-31828848D01*
X197900500Y-31828844D01*
X197900500Y-31670973D01*
X197900065Y-31668972D01*
X197870395Y-31519816D01*
X197869994Y-31517467D01*
X197869738Y-31516508D01*
X197869737Y-31516506D01*
X197869737Y-31516503D01*
X197869735Y-31516498D01*
X197809397Y-31370827D01*
X197809390Y-31370814D01*
X197721789Y-31239711D01*
X197721786Y-31239707D01*
X197691863Y-31209784D01*
X197670715Y-31181534D01*
X197665293Y-31171604D01*
X197650442Y-31103333D01*
X197674859Y-31037869D01*
X197730788Y-30995999D01*
X197734665Y-30994553D01*
X197738001Y-30993310D01*
X197781315Y-30985499D01*
X197834938Y-30985499D01*
X197842788Y-30983117D01*
X197985471Y-30954736D01*
X198131153Y-30894393D01*
X198262263Y-30806788D01*
X198373763Y-30695288D01*
X198461368Y-30564178D01*
X198462648Y-30561089D01*
X198494894Y-30483239D01*
X198521711Y-30418496D01*
X198531583Y-30368869D01*
X198550157Y-30275489D01*
X198552474Y-30263841D01*
X198552474Y-30106157D01*
X198552474Y-30106154D01*
X198552474Y-30105974D01*
X198552042Y-30103987D01*
X198550074Y-30094091D01*
X198545638Y-30071789D01*
X198521712Y-29951504D01*
X198517842Y-29942162D01*
X198508467Y-29919527D01*
X198486507Y-29866510D01*
X198461374Y-29805832D01*
X198461369Y-29805823D01*
X198461364Y-29805813D01*
X198373763Y-29674710D01*
X198373760Y-29674706D01*
X198373755Y-29674700D01*
X198262271Y-29563216D01*
X198262265Y-29563211D01*
X198262264Y-29563210D01*
X198131165Y-29475612D01*
X198131164Y-29475611D01*
X198131159Y-29475608D01*
X198131146Y-29475601D01*
X198131139Y-29475597D01*
X197985476Y-29415263D01*
X197985445Y-29415256D01*
X197830821Y-29384499D01*
X197830819Y-29384499D01*
X197830816Y-29384499D01*
X197673132Y-29384499D01*
X197673129Y-29384499D01*
X197673127Y-29384499D01*
X197518501Y-29415256D01*
X197518470Y-29415263D01*
X197372807Y-29475597D01*
X197372798Y-29475602D01*
X197372781Y-29475612D01*
X197241682Y-29563210D01*
X197241681Y-29563211D01*
X197241675Y-29563216D01*
X197130191Y-29674700D01*
X197130186Y-29674706D01*
X197130185Y-29674707D01*
X197042587Y-29805806D01*
X197042577Y-29805823D01*
X197042572Y-29805832D01*
X196982238Y-29951495D01*
X196982231Y-29951526D01*
X196951474Y-30106149D01*
X196951474Y-30106152D01*
X196951474Y-30263845D01*
X196951474Y-30263847D01*
X196951473Y-30263847D01*
X196982231Y-30418470D01*
X196982238Y-30418501D01*
X197042572Y-30564164D01*
X197042577Y-30564173D01*
X197042587Y-30564190D01*
X197130184Y-30695288D01*
X197130187Y-30695291D01*
X197160109Y-30725213D01*
X197166163Y-30733300D01*
X197181259Y-30753466D01*
X197186679Y-30763392D01*
X197201531Y-30831665D01*
X197177114Y-30897129D01*
X197121181Y-30939001D01*
X197113993Y-30941682D01*
X197070659Y-30949500D01*
X197021153Y-30949500D01*
X196866527Y-30980257D01*
X196866496Y-30980264D01*
X196720833Y-31040598D01*
X196720824Y-31040603D01*
X196720807Y-31040613D01*
X196589708Y-31128211D01*
X196589707Y-31128212D01*
X196589701Y-31128217D01*
X196478217Y-31239701D01*
X196478212Y-31239707D01*
X196478211Y-31239708D01*
X196390613Y-31370807D01*
X196390603Y-31370824D01*
X196390598Y-31370833D01*
X196330264Y-31516496D01*
X196330257Y-31516527D01*
X196299500Y-31671150D01*
X196299500Y-31671153D01*
X196299500Y-31828846D01*
X196299500Y-31828848D01*
X196299499Y-31828848D01*
X194440553Y-31828848D01*
X194450500Y-31778842D01*
X194450500Y-31621158D01*
X194450500Y-31621155D01*
X194450499Y-31621153D01*
X194444151Y-31589240D01*
X194419739Y-31466510D01*
X194419737Y-31466505D01*
X194419737Y-31466503D01*
X194369145Y-31344362D01*
X194359397Y-31320827D01*
X194359390Y-31320814D01*
X194271789Y-31189711D01*
X194271786Y-31189707D01*
X194271781Y-31189701D01*
X194160297Y-31078217D01*
X194160291Y-31078212D01*
X194160290Y-31078211D01*
X194029191Y-30990613D01*
X194029190Y-30990612D01*
X194029185Y-30990609D01*
X194029172Y-30990602D01*
X194029165Y-30990598D01*
X193883502Y-30930264D01*
X193883471Y-30930257D01*
X193728847Y-30899500D01*
X193728845Y-30899500D01*
X193728842Y-30899500D01*
X193571158Y-30899500D01*
X193571155Y-30899500D01*
X193571153Y-30899500D01*
X193416527Y-30930257D01*
X193416496Y-30930264D01*
X193270833Y-30990598D01*
X193270824Y-30990603D01*
X193270807Y-30990613D01*
X193139708Y-31078211D01*
X193139707Y-31078212D01*
X193139701Y-31078217D01*
X193028217Y-31189701D01*
X193028212Y-31189707D01*
X193028211Y-31189708D01*
X192940613Y-31320807D01*
X192940603Y-31320824D01*
X192940598Y-31320833D01*
X192880264Y-31466496D01*
X192880257Y-31466527D01*
X192849500Y-31621150D01*
X192849500Y-31621153D01*
X192849500Y-31778846D01*
X192849500Y-31778848D01*
X192849499Y-31778848D01*
X182675500Y-31778848D01*
X182675500Y-31671158D01*
X182675500Y-31671155D01*
X182670120Y-31644112D01*
X182669155Y-31639254D01*
X182669153Y-31639246D01*
X182669153Y-31639244D01*
X182655037Y-31568283D01*
X182645394Y-31519809D01*
X182644994Y-31517466D01*
X182644737Y-31516504D01*
X182644734Y-31516496D01*
X182629384Y-31479437D01*
X182621915Y-31409968D01*
X182653191Y-31347489D01*
X182661067Y-31339750D01*
X182666613Y-31334768D01*
X182758866Y-31224358D01*
X182816276Y-31092428D01*
X182831670Y-31036290D01*
X182834175Y-31029661D01*
X182834754Y-31025044D01*
X182834755Y-31025044D01*
X182852670Y-30882283D01*
X182852428Y-30868834D01*
X182849849Y-30725210D01*
X182845039Y-30457426D01*
X182846549Y-30451922D01*
X182845336Y-30446343D01*
X182855686Y-30418601D01*
X182863516Y-30390047D01*
X182867762Y-30386231D01*
X182869759Y-30380881D01*
X182893467Y-30363137D01*
X182915490Y-30343351D01*
X182921125Y-30342437D01*
X182925697Y-30339016D01*
X182955232Y-30336906D01*
X182984459Y-30332167D01*
X182991182Y-30334338D01*
X182995389Y-30334038D01*
X183008637Y-30339975D01*
X183028457Y-30346376D01*
X183035456Y-30350198D01*
X183061155Y-30368870D01*
X183186056Y-30432510D01*
X183277671Y-30479191D01*
X183279169Y-30479954D01*
X183280763Y-30480887D01*
X183284450Y-30482673D01*
X183286479Y-30483681D01*
X183290245Y-30484744D01*
X183515209Y-30557839D01*
X183525215Y-30561090D01*
X183774038Y-30600500D01*
X183774039Y-30600500D01*
X184025961Y-30600500D01*
X184025962Y-30600500D01*
X184274785Y-30561090D01*
X184514379Y-30483241D01*
X184738845Y-30368870D01*
X184942656Y-30220793D01*
X185120793Y-30042656D01*
X185173817Y-29969672D01*
X185198413Y-29944363D01*
X185210206Y-29935269D01*
X185210793Y-29934815D01*
X185275899Y-29909465D01*
X185282471Y-29908901D01*
X185349374Y-29921960D01*
X185387111Y-29941187D01*
X185414705Y-29955246D01*
X185414707Y-29955248D01*
X185432265Y-29964194D01*
X185519970Y-30008882D01*
X185519972Y-30008882D01*
X185519975Y-30008884D01*
X185519976Y-30008884D01*
X185520847Y-30009328D01*
X185524597Y-30010386D01*
X185526684Y-30011064D01*
X185620315Y-30041486D01*
X185620316Y-30041487D01*
X185627426Y-30043797D01*
X185707173Y-30069709D01*
X185901578Y-30100500D01*
X185901583Y-30100500D01*
X186098421Y-30100500D01*
X186098422Y-30100500D01*
X186292826Y-30069709D01*
X186480025Y-30008884D01*
X186655405Y-29919524D01*
X186814646Y-29803828D01*
X186899717Y-29718756D01*
X186927964Y-29697611D01*
X186941688Y-29690117D01*
X187009946Y-29675266D01*
X187011756Y-29675395D01*
X187069953Y-29694761D01*
X187076471Y-29698950D01*
X187097106Y-29715580D01*
X187185354Y-29803828D01*
X187344595Y-29919524D01*
X187414708Y-29955248D01*
X187513529Y-30005600D01*
X187515118Y-30006531D01*
X187518818Y-30008323D01*
X187520831Y-30009324D01*
X187524597Y-30010386D01*
X187526684Y-30011064D01*
X187620315Y-30041486D01*
X187620316Y-30041487D01*
X187627426Y-30043797D01*
X187707173Y-30069709D01*
X187901578Y-30100500D01*
X187901583Y-30100500D01*
X188098421Y-30100500D01*
X188098422Y-30100500D01*
X188292826Y-30069709D01*
X188480025Y-30008884D01*
X188655405Y-29919524D01*
X188677194Y-29903692D01*
X188708399Y-29887225D01*
X188723121Y-29881972D01*
X188792859Y-29877977D01*
X188795087Y-29878495D01*
X188848896Y-29906151D01*
X188854095Y-29910722D01*
X188871480Y-29929529D01*
X188892454Y-29957546D01*
X188894073Y-29959709D01*
X188901333Y-29964193D01*
X189007664Y-30043793D01*
X189007671Y-30043797D01*
X189142517Y-30094091D01*
X189142516Y-30094091D01*
X189149444Y-30094835D01*
X189202127Y-30100500D01*
X190797872Y-30100499D01*
X190846831Y-30095236D01*
X190882101Y-30096496D01*
X190905625Y-30100740D01*
X190956132Y-30122191D01*
X190957402Y-30123106D01*
X190967533Y-30131728D01*
X190968104Y-30132014D01*
X190968343Y-30132417D01*
X190972539Y-30135988D01*
X191057345Y-30220794D01*
X191057350Y-30220798D01*
X191164373Y-30298554D01*
X191261155Y-30368870D01*
X191386056Y-30432510D01*
X191477671Y-30479191D01*
X191479169Y-30479954D01*
X191480763Y-30480887D01*
X191484450Y-30482673D01*
X191486479Y-30483681D01*
X191490245Y-30484744D01*
X191715209Y-30557839D01*
X191725215Y-30561090D01*
X191974038Y-30600500D01*
X191974039Y-30600500D01*
X192225961Y-30600500D01*
X192225962Y-30600500D01*
X192474785Y-30561090D01*
X192714379Y-30483241D01*
X192938845Y-30368870D01*
X193142656Y-30220793D01*
X193184601Y-30178848D01*
X195024499Y-30178848D01*
X195055257Y-30333471D01*
X195055264Y-30333502D01*
X195115598Y-30479165D01*
X195115603Y-30479174D01*
X195115613Y-30479191D01*
X195203211Y-30610290D01*
X195203212Y-30610291D01*
X195203217Y-30610297D01*
X195314701Y-30721781D01*
X195314707Y-30721786D01*
X195314711Y-30721789D01*
X195445814Y-30809390D01*
X195445827Y-30809397D01*
X195553942Y-30854179D01*
X195591503Y-30869737D01*
X195741131Y-30899500D01*
X195741474Y-30899568D01*
X195743441Y-30900059D01*
X195746155Y-30900500D01*
X195903844Y-30900500D01*
X195907964Y-30900500D01*
X195915814Y-30898118D01*
X196058497Y-30869737D01*
X196204179Y-30809394D01*
X196335289Y-30721789D01*
X196446789Y-30610289D01*
X196534394Y-30479179D01*
X196594737Y-30333497D01*
X196625500Y-30178842D01*
X196625500Y-30021158D01*
X196625500Y-30021155D01*
X196625500Y-30020971D01*
X196625064Y-30018966D01*
X196623159Y-30009389D01*
X196622947Y-30008323D01*
X196594737Y-29866503D01*
X196594735Y-29866498D01*
X196534397Y-29720827D01*
X196534390Y-29720814D01*
X196446789Y-29589711D01*
X196446786Y-29589707D01*
X196446781Y-29589701D01*
X196335297Y-29478217D01*
X196335291Y-29478212D01*
X196335290Y-29478211D01*
X196204191Y-29390613D01*
X196204190Y-29390612D01*
X196204185Y-29390609D01*
X196204172Y-29390602D01*
X196204165Y-29390598D01*
X196175797Y-29378848D01*
X198724499Y-29378848D01*
X198755257Y-29533471D01*
X198755264Y-29533502D01*
X198815598Y-29679165D01*
X198815603Y-29679174D01*
X198815613Y-29679191D01*
X198903211Y-29810290D01*
X198903212Y-29810291D01*
X198903217Y-29810297D01*
X199014701Y-29921781D01*
X199014707Y-29921786D01*
X199014711Y-29921789D01*
X199145814Y-30009390D01*
X199145827Y-30009397D01*
X199275185Y-30062978D01*
X199291503Y-30069737D01*
X199291507Y-30069737D01*
X199291510Y-30069739D01*
X199375686Y-30086482D01*
X199446148Y-30100498D01*
X199446153Y-30100499D01*
X199446156Y-30100500D01*
X199446158Y-30100500D01*
X199603844Y-30100500D01*
X199603845Y-30100499D01*
X199758497Y-30069737D01*
X199904179Y-30009394D01*
X199904181Y-30009392D01*
X199904701Y-30009177D01*
X199905825Y-30008470D01*
X199908582Y-30006452D01*
X199936953Y-29987494D01*
X199983468Y-29956413D01*
X200015289Y-29941189D01*
X200030213Y-29936515D01*
X200100065Y-29935266D01*
X200107163Y-29937213D01*
X200162031Y-29969110D01*
X200264707Y-30071786D01*
X200264711Y-30071789D01*
X200395814Y-30159390D01*
X200395827Y-30159397D01*
X200445054Y-30179787D01*
X200541503Y-30219737D01*
X200541505Y-30219737D01*
X200541510Y-30219739D01*
X200625279Y-30236401D01*
X200696153Y-30250499D01*
X200696156Y-30250500D01*
X200696158Y-30250500D01*
X200853844Y-30250500D01*
X200853845Y-30250499D01*
X201008497Y-30219737D01*
X201154179Y-30159394D01*
X201285289Y-30071789D01*
X201396789Y-29960289D01*
X201484394Y-29829179D01*
X201544737Y-29683497D01*
X201575500Y-29528842D01*
X201575500Y-29371158D01*
X201575500Y-29371155D01*
X201575500Y-29370973D01*
X201575065Y-29368972D01*
X201545395Y-29219815D01*
X201544983Y-29217403D01*
X201544737Y-29216504D01*
X201537636Y-29199361D01*
X201507234Y-29125961D01*
X201484397Y-29070827D01*
X201484390Y-29070814D01*
X201396789Y-28939711D01*
X201396786Y-28939707D01*
X201396781Y-28939701D01*
X201285297Y-28828217D01*
X201285291Y-28828212D01*
X201285290Y-28828211D01*
X201154191Y-28740613D01*
X201154186Y-28740610D01*
X201154185Y-28740609D01*
X201154172Y-28740602D01*
X201154165Y-28740598D01*
X201008502Y-28680264D01*
X201008471Y-28680257D01*
X200853847Y-28649500D01*
X200853845Y-28649500D01*
X200853842Y-28649500D01*
X200696158Y-28649500D01*
X200696155Y-28649500D01*
X200696153Y-28649500D01*
X200541527Y-28680257D01*
X200541496Y-28680264D01*
X200395833Y-28740598D01*
X200395824Y-28740603D01*
X200395812Y-28740610D01*
X200316537Y-28793580D01*
X200284701Y-28808811D01*
X200269784Y-28813482D01*
X200199926Y-28814730D01*
X200199919Y-28814728D01*
X200192834Y-28812784D01*
X200137965Y-28780886D01*
X200035292Y-28678213D01*
X200035291Y-28678212D01*
X200035290Y-28678211D01*
X199904191Y-28590613D01*
X199904190Y-28590612D01*
X199904185Y-28590609D01*
X199904172Y-28590602D01*
X199904165Y-28590598D01*
X199758502Y-28530264D01*
X199758471Y-28530257D01*
X199603847Y-28499500D01*
X199603845Y-28499500D01*
X199603842Y-28499500D01*
X199446158Y-28499500D01*
X199446155Y-28499500D01*
X199446153Y-28499500D01*
X199291527Y-28530257D01*
X199291496Y-28530264D01*
X199145833Y-28590598D01*
X199145824Y-28590603D01*
X199145807Y-28590613D01*
X199014708Y-28678211D01*
X199014707Y-28678212D01*
X199014701Y-28678217D01*
X198903217Y-28789701D01*
X198903212Y-28789707D01*
X198903211Y-28789708D01*
X198815613Y-28920807D01*
X198815603Y-28920824D01*
X198815598Y-28920833D01*
X198755264Y-29066496D01*
X198755257Y-29066527D01*
X198724500Y-29221150D01*
X198724500Y-29221153D01*
X198724500Y-29378846D01*
X198724500Y-29378848D01*
X198724499Y-29378848D01*
X196175797Y-29378848D01*
X196058501Y-29330264D01*
X196058489Y-29330261D01*
X196058483Y-29330259D01*
X196058471Y-29330257D01*
X195903847Y-29299500D01*
X195903845Y-29299500D01*
X195903842Y-29299500D01*
X195746158Y-29299500D01*
X195746155Y-29299500D01*
X195746153Y-29299500D01*
X195591527Y-29330257D01*
X195591496Y-29330264D01*
X195445833Y-29390598D01*
X195445824Y-29390603D01*
X195445807Y-29390613D01*
X195314708Y-29478211D01*
X195314707Y-29478212D01*
X195314701Y-29478217D01*
X195203217Y-29589701D01*
X195203212Y-29589707D01*
X195203211Y-29589708D01*
X195115613Y-29720807D01*
X195115600Y-29720829D01*
X195115599Y-29720831D01*
X195055264Y-29866496D01*
X195055257Y-29866527D01*
X195024500Y-30021150D01*
X195024500Y-30021153D01*
X195024500Y-30178846D01*
X195024500Y-30178848D01*
X195024499Y-30178848D01*
X193184601Y-30178848D01*
X193320793Y-30042656D01*
X193345331Y-30008882D01*
X193393793Y-29942181D01*
X193440439Y-29877977D01*
X193448775Y-29866504D01*
X193448780Y-29866496D01*
X193468870Y-29838845D01*
X193583241Y-29614379D01*
X193661090Y-29374785D01*
X193700500Y-29125962D01*
X193700500Y-28328848D01*
X196324499Y-28328848D01*
X196355257Y-28483471D01*
X196355264Y-28483502D01*
X196415598Y-28629165D01*
X196415603Y-28629174D01*
X196415613Y-28629191D01*
X196503211Y-28760290D01*
X196503212Y-28760291D01*
X196503217Y-28760297D01*
X196614701Y-28871781D01*
X196614707Y-28871786D01*
X196614711Y-28871789D01*
X196745814Y-28959390D01*
X196745827Y-28959397D01*
X196881530Y-29015606D01*
X196891503Y-29019737D01*
X197040031Y-29049281D01*
X197041461Y-29049602D01*
X197041808Y-29049794D01*
X197046155Y-29050500D01*
X197203844Y-29050500D01*
X197207964Y-29050500D01*
X197215814Y-29048118D01*
X197358497Y-29019737D01*
X197504179Y-28959394D01*
X197635289Y-28871789D01*
X197746789Y-28760289D01*
X197834394Y-28629179D01*
X197894737Y-28483497D01*
X197925500Y-28328842D01*
X197925500Y-28171158D01*
X197925500Y-28171155D01*
X197925500Y-28170973D01*
X197925065Y-28168972D01*
X197918710Y-28137023D01*
X197895395Y-28019816D01*
X197894994Y-28017467D01*
X197894738Y-28016508D01*
X197894737Y-28016506D01*
X197894737Y-28016503D01*
X197894735Y-28016498D01*
X197834397Y-27870827D01*
X197834390Y-27870814D01*
X197746789Y-27739711D01*
X197746786Y-27739707D01*
X197746781Y-27739701D01*
X197635297Y-27628217D01*
X197635291Y-27628212D01*
X197635290Y-27628211D01*
X197504191Y-27540613D01*
X197504190Y-27540612D01*
X197504185Y-27540609D01*
X197504172Y-27540602D01*
X197504165Y-27540598D01*
X197358502Y-27480264D01*
X197358471Y-27480257D01*
X197203847Y-27449500D01*
X197203845Y-27449500D01*
X197203842Y-27449500D01*
X197046158Y-27449500D01*
X197046155Y-27449500D01*
X197046153Y-27449500D01*
X196891527Y-27480257D01*
X196891496Y-27480264D01*
X196745833Y-27540598D01*
X196745824Y-27540603D01*
X196745807Y-27540613D01*
X196614708Y-27628211D01*
X196614707Y-27628212D01*
X196614701Y-27628217D01*
X196503217Y-27739701D01*
X196503212Y-27739707D01*
X196503211Y-27739708D01*
X196415613Y-27870807D01*
X196415603Y-27870824D01*
X196415598Y-27870833D01*
X196355264Y-28016496D01*
X196355257Y-28016527D01*
X196324500Y-28171150D01*
X196324500Y-28171153D01*
X196324500Y-28328846D01*
X196324500Y-28328848D01*
X196324499Y-28328848D01*
X193700500Y-28328848D01*
X193700500Y-27574038D01*
X193661090Y-27325215D01*
X193661089Y-27325211D01*
X193661089Y-27325210D01*
X193585851Y-27093654D01*
X193583241Y-27085621D01*
X193583239Y-27085618D01*
X193583239Y-27085616D01*
X193581000Y-27081222D01*
X193580688Y-27080422D01*
X193579955Y-27079169D01*
X193525598Y-26972491D01*
X193525597Y-26972490D01*
X193468870Y-26861155D01*
X193468867Y-26861151D01*
X193468867Y-26861150D01*
X193446579Y-26830474D01*
X193420986Y-26795248D01*
X193320798Y-26657350D01*
X193320794Y-26657345D01*
X193320791Y-26657342D01*
X193320788Y-26657338D01*
X193142660Y-26479210D01*
X193142655Y-26479206D01*
X193142654Y-26479205D01*
X193142649Y-26479201D01*
X192938848Y-26331132D01*
X192938847Y-26331131D01*
X192938845Y-26331130D01*
X192868747Y-26295413D01*
X192714387Y-26216761D01*
X192502578Y-26147940D01*
X192491336Y-26140252D01*
X192470904Y-26132366D01*
X192465167Y-26128443D01*
X192453882Y-26114642D01*
X192444903Y-26108502D01*
X192440668Y-26098481D01*
X192420940Y-26074354D01*
X192412976Y-26004939D01*
X192443805Y-25942239D01*
X192478373Y-25921060D01*
X192488699Y-25912007D01*
X192494588Y-25911125D01*
X192501943Y-25906618D01*
X192507652Y-25905030D01*
X192540865Y-25900500D01*
X201907447Y-25900500D01*
X201914385Y-25900693D01*
X201921363Y-25901086D01*
X201928228Y-25901664D01*
X201941771Y-25903190D01*
X202008248Y-25910679D01*
X202021949Y-25913007D01*
X202035441Y-25916087D01*
X202048790Y-25919933D01*
X202052011Y-25921060D01*
X202114869Y-25943054D01*
X202127689Y-25948364D01*
X202140183Y-25954381D01*
X202152333Y-25961097D01*
X202211604Y-25998339D01*
X202222942Y-26006384D01*
X202233770Y-26015020D01*
X202244128Y-26024277D01*
X202293608Y-26073757D01*
X202302873Y-26084124D01*
X202311509Y-26094953D01*
X202319556Y-26106294D01*
X202356789Y-26165549D01*
X202363520Y-26177729D01*
X202369525Y-26190201D01*
X202374842Y-26203039D01*
X202397953Y-26269085D01*
X202401802Y-26282441D01*
X202404884Y-26295941D01*
X202407214Y-26309657D01*
X202416222Y-26389609D01*
X202416806Y-26396529D01*
X202417197Y-26403481D01*
X202417393Y-26410444D01*
X202417393Y-34749724D01*
X202412370Y-34784660D01*
X202410649Y-34790521D01*
X202372874Y-34849299D01*
X202309318Y-34878323D01*
X202240160Y-34868379D01*
X202187356Y-34822624D01*
X202187124Y-34822263D01*
X202168966Y-34774618D01*
X202168417Y-34771151D01*
X202167247Y-34763763D01*
X202167246Y-34763760D01*
X202167246Y-34763757D01*
X202101557Y-34561588D01*
X202101555Y-34561585D01*
X202101555Y-34561583D01*
X202006112Y-34374267D01*
X202005051Y-34372184D01*
X202005049Y-34372181D01*
X202005048Y-34372179D01*
X202004702Y-34371703D01*
X202004700Y-34371699D01*
X201880112Y-34200216D01*
X201729788Y-34049892D01*
X201729786Y-34049890D01*
X201557820Y-33924951D01*
X201544167Y-33917994D01*
X201390245Y-33839567D01*
X201390240Y-33839565D01*
X201368414Y-33828444D01*
X201368413Y-33828443D01*
X201368412Y-33828443D01*
X201232844Y-33784394D01*
X201175074Y-33765623D01*
X201170552Y-33763770D01*
X201161362Y-33761600D01*
X201156599Y-33761226D01*
X201150677Y-33760288D01*
X201004957Y-33737208D01*
X200985489Y-33734124D01*
X200956290Y-33729500D01*
X200956287Y-33729500D01*
X200743713Y-33729500D01*
X200743709Y-33729500D01*
X200704776Y-33735666D01*
X200695042Y-33737208D01*
X200657654Y-33743129D01*
X200533763Y-33762752D01*
X200331582Y-33828445D01*
X200142182Y-33924949D01*
X199970210Y-34049892D01*
X199819892Y-34200210D01*
X199694949Y-34372182D01*
X199598445Y-34561582D01*
X199532752Y-34763763D01*
X199506606Y-34928846D01*
X199506606Y-34928847D01*
X199499500Y-34973709D01*
X199499500Y-34973713D01*
X199499500Y-35186287D01*
X199506294Y-35229185D01*
X199531226Y-35386597D01*
X199531601Y-35391363D01*
X199533770Y-35400553D01*
X199535623Y-35405074D01*
X199585765Y-35559396D01*
X199598441Y-35598406D01*
X199598443Y-35598412D01*
X199694165Y-35786279D01*
X199694951Y-35787820D01*
X199819890Y-35959786D01*
X199819892Y-35959788D01*
X199970213Y-36110109D01*
X200142169Y-36235042D01*
X200142200Y-36235060D01*
X200142442Y-36235182D01*
X200331588Y-36331557D01*
X200533757Y-36397246D01*
X200743713Y-36430500D01*
X200743714Y-36430500D01*
X200956286Y-36430500D01*
X200956287Y-36430500D01*
X201166243Y-36397246D01*
X201368412Y-36331557D01*
X201557816Y-36235051D01*
X201627540Y-36184394D01*
X201729786Y-36110109D01*
X201729787Y-36110106D01*
X201729790Y-36110105D01*
X201729792Y-36110104D01*
X201729793Y-36110102D01*
X201729844Y-36110066D01*
X201730605Y-36109290D01*
X201880104Y-35959792D01*
X201880106Y-35959788D01*
X201880109Y-35959786D01*
X201995528Y-35800924D01*
X202005051Y-35787816D01*
X202101557Y-35598412D01*
X202167246Y-35396243D01*
X202168130Y-35390660D01*
X202169578Y-35386399D01*
X202169395Y-35383891D01*
X202178554Y-35356943D01*
X202179243Y-35355489D01*
X202181171Y-35351421D01*
X202181646Y-35350888D01*
X202181676Y-35350802D01*
X202184466Y-35345673D01*
X202201844Y-35328238D01*
X202227673Y-35299275D01*
X202231883Y-35298103D01*
X202233792Y-35296189D01*
X202257237Y-35291049D01*
X202294986Y-35280547D01*
X202299201Y-35281850D01*
X202302041Y-35281228D01*
X202326236Y-35290208D01*
X202361738Y-35301184D01*
X202364439Y-35304387D01*
X202367544Y-35305540D01*
X202384949Y-35328713D01*
X202406662Y-35354466D01*
X202406838Y-35354866D01*
X202407714Y-35359023D01*
X202409505Y-35361407D01*
X202410188Y-35370757D01*
X202417393Y-35404926D01*
X202417393Y-54407447D01*
X202417197Y-54414410D01*
X202416806Y-54421362D01*
X202416222Y-54428282D01*
X202407214Y-54508234D01*
X202404884Y-54521950D01*
X202401802Y-54535450D01*
X202397953Y-54548806D01*
X202374842Y-54614852D01*
X202369525Y-54627690D01*
X202363520Y-54640162D01*
X202356789Y-54652342D01*
X202319556Y-54711597D01*
X202311509Y-54722938D01*
X202302873Y-54733767D01*
X202293608Y-54744134D01*
X202244134Y-54793608D01*
X202233767Y-54802873D01*
X202222938Y-54811509D01*
X202211597Y-54819556D01*
X202152342Y-54856789D01*
X202140162Y-54863520D01*
X202127690Y-54869525D01*
X202114853Y-54874842D01*
X202048811Y-54897952D01*
X202035447Y-54901802D01*
X202028380Y-54903415D01*
X202021943Y-54904884D01*
X202008240Y-54907211D01*
X201928305Y-54916217D01*
X201921352Y-54916803D01*
X201914385Y-54917193D01*
X201907410Y-54917387D01*
X199432740Y-54916488D01*
X199397806Y-54911452D01*
X199386955Y-54908261D01*
X199328192Y-54870465D01*
X199299191Y-54806899D01*
X199309160Y-54737746D01*
X199312358Y-54730749D01*
X199337447Y-54694630D01*
X199371786Y-54660292D01*
X199371789Y-54660289D01*
X199459394Y-54529179D01*
X199519737Y-54383497D01*
X199550500Y-54228842D01*
X199550500Y-54071158D01*
X199550500Y-54071155D01*
X199550500Y-54070973D01*
X199550065Y-54068972D01*
X199520398Y-53919830D01*
X199519983Y-53917403D01*
X199519737Y-53916504D01*
X199501116Y-53871549D01*
X199490010Y-53844735D01*
X199459397Y-53770827D01*
X199459390Y-53770814D01*
X199371789Y-53639711D01*
X199371786Y-53639707D01*
X199371785Y-53639706D01*
X199371781Y-53639701D01*
X199260297Y-53528217D01*
X199260291Y-53528212D01*
X199260290Y-53528211D01*
X199129191Y-53440613D01*
X199129190Y-53440612D01*
X199129185Y-53440609D01*
X199129172Y-53440602D01*
X199129165Y-53440598D01*
X198983502Y-53380264D01*
X198983471Y-53380257D01*
X198828847Y-53349500D01*
X198828845Y-53349500D01*
X198828842Y-53349500D01*
X198671158Y-53349500D01*
X198671155Y-53349500D01*
X198671153Y-53349500D01*
X198516527Y-53380257D01*
X198516496Y-53380264D01*
X198370833Y-53440598D01*
X198370824Y-53440603D01*
X198370807Y-53440613D01*
X198239715Y-53528207D01*
X198239710Y-53528210D01*
X198239701Y-53528218D01*
X198200287Y-53567633D01*
X198200285Y-53567634D01*
X198200284Y-53567637D01*
X198172029Y-53588786D01*
X198158309Y-53596277D01*
X198090051Y-53611128D01*
X198090035Y-53611126D01*
X198090035Y-53611127D01*
X198090034Y-53611126D01*
X198088245Y-53610999D01*
X198030044Y-53591631D01*
X198023529Y-53587444D01*
X198002892Y-53570813D01*
X197960296Y-53528216D01*
X197960291Y-53528212D01*
X197960290Y-53528211D01*
X197829191Y-53440613D01*
X197829190Y-53440612D01*
X197829185Y-53440609D01*
X197829172Y-53440602D01*
X197829165Y-53440598D01*
X197683502Y-53380264D01*
X197683471Y-53380257D01*
X197528847Y-53349500D01*
X197528845Y-53349500D01*
X197528842Y-53349500D01*
X197371158Y-53349500D01*
X197371155Y-53349500D01*
X197371153Y-53349500D01*
X197216527Y-53380257D01*
X197216496Y-53380264D01*
X197070833Y-53440598D01*
X197070824Y-53440603D01*
X197070807Y-53440613D01*
X196939708Y-53528211D01*
X196939707Y-53528212D01*
X196939701Y-53528217D01*
X196828217Y-53639701D01*
X196828212Y-53639707D01*
X196740613Y-53770807D01*
X196740603Y-53770824D01*
X196740598Y-53770833D01*
X196680264Y-53916496D01*
X196680257Y-53916527D01*
X196649500Y-54071150D01*
X196649500Y-54071153D01*
X196649500Y-54228846D01*
X196649500Y-54228848D01*
X196649499Y-54228848D01*
X196680257Y-54383471D01*
X196680264Y-54383502D01*
X196740598Y-54529165D01*
X196740603Y-54529174D01*
X196740613Y-54529191D01*
X196828206Y-54660282D01*
X196828210Y-54660289D01*
X196828213Y-54660292D01*
X196859161Y-54691240D01*
X196861694Y-54694624D01*
X196880311Y-54719493D01*
X196885731Y-54729419D01*
X196900583Y-54797692D01*
X196876166Y-54863156D01*
X196820233Y-54905028D01*
X196820222Y-54905032D01*
X196813048Y-54907707D01*
X196769680Y-54915521D01*
X152748905Y-54899525D01*
X152748513Y-54899500D01*
X152740892Y-54899500D01*
X152685459Y-54899500D01*
X152678506Y-54899305D01*
X152676658Y-54899201D01*
X152671544Y-54898914D01*
X152664634Y-54898331D01*
X152597731Y-54890794D01*
X152597730Y-54890793D01*
X152597729Y-54890793D01*
X152584657Y-54889321D01*
X152570948Y-54886992D01*
X152562350Y-54885029D01*
X152557441Y-54883909D01*
X152544085Y-54880060D01*
X152478039Y-54856949D01*
X152465201Y-54851632D01*
X152452729Y-54845627D01*
X152440549Y-54838896D01*
X152381294Y-54801663D01*
X152369953Y-54793616D01*
X152359124Y-54784980D01*
X152348757Y-54775715D01*
X152299283Y-54726241D01*
X152290018Y-54715874D01*
X152281382Y-54705045D01*
X152273335Y-54693704D01*
X152236099Y-54634444D01*
X152229376Y-54622280D01*
X152223371Y-54609810D01*
X152218052Y-54596969D01*
X152194934Y-54530899D01*
X152191087Y-54517550D01*
X152188004Y-54504039D01*
X152185678Y-54490344D01*
X152178686Y-54428282D01*
X152176667Y-54410365D01*
X152176085Y-54403451D01*
X152175695Y-54396498D01*
X152175500Y-54389554D01*
X152175500Y-52953848D01*
X175399499Y-52953848D01*
X175430257Y-53108471D01*
X175430264Y-53108502D01*
X175490598Y-53254165D01*
X175490603Y-53254174D01*
X175490613Y-53254191D01*
X175578211Y-53385290D01*
X175578212Y-53385291D01*
X175578217Y-53385297D01*
X175689701Y-53496781D01*
X175689707Y-53496786D01*
X175689711Y-53496789D01*
X175820814Y-53584390D01*
X175820827Y-53584397D01*
X175820829Y-53584397D01*
X175820833Y-53584400D01*
X175954354Y-53639706D01*
X175954355Y-53639706D01*
X175963984Y-53643694D01*
X175966503Y-53644737D01*
X175966506Y-53644738D01*
X176036795Y-53658719D01*
X176121153Y-53675499D01*
X176121156Y-53675500D01*
X176121158Y-53675500D01*
X176278844Y-53675500D01*
X176278845Y-53675499D01*
X176433497Y-53644737D01*
X176577011Y-53585292D01*
X176579172Y-53584397D01*
X176579172Y-53584396D01*
X176579179Y-53584394D01*
X176710289Y-53496789D01*
X176821789Y-53385289D01*
X176909394Y-53254179D01*
X176950952Y-53153848D01*
X189474499Y-53153848D01*
X189505257Y-53308471D01*
X189505264Y-53308502D01*
X189565598Y-53454165D01*
X189565603Y-53454174D01*
X189565613Y-53454191D01*
X189653211Y-53585290D01*
X189653212Y-53585291D01*
X189653217Y-53585297D01*
X189764701Y-53696781D01*
X189764707Y-53696786D01*
X189764711Y-53696789D01*
X189895814Y-53784390D01*
X189895827Y-53784397D01*
X190041498Y-53844735D01*
X190041503Y-53844737D01*
X190196153Y-53875499D01*
X190196156Y-53875500D01*
X190196158Y-53875500D01*
X190353844Y-53875500D01*
X190353845Y-53875499D01*
X190508497Y-53844737D01*
X190654179Y-53784394D01*
X190785289Y-53696789D01*
X190896789Y-53585289D01*
X190984394Y-53454179D01*
X191044737Y-53308497D01*
X191075500Y-53153842D01*
X191075500Y-52996158D01*
X191075500Y-52996155D01*
X191075500Y-52995973D01*
X191075065Y-52993971D01*
X191069476Y-52965873D01*
X191069476Y-52965872D01*
X191044738Y-52841505D01*
X191044736Y-52841501D01*
X191027753Y-52800500D01*
X191025955Y-52796158D01*
X191014992Y-52769691D01*
X190984400Y-52695833D01*
X190984395Y-52695824D01*
X190984390Y-52695814D01*
X190896789Y-52564711D01*
X190896786Y-52564707D01*
X190896785Y-52564706D01*
X190896781Y-52564701D01*
X190785297Y-52453217D01*
X190785291Y-52453212D01*
X190785290Y-52453211D01*
X190654191Y-52365613D01*
X190654190Y-52365612D01*
X190654185Y-52365609D01*
X190654172Y-52365602D01*
X190654165Y-52365598D01*
X190508502Y-52305264D01*
X190508471Y-52305257D01*
X190353847Y-52274500D01*
X190353845Y-52274500D01*
X190353842Y-52274500D01*
X190196158Y-52274500D01*
X190196155Y-52274500D01*
X190196153Y-52274500D01*
X190041527Y-52305257D01*
X190041496Y-52305264D01*
X189895833Y-52365598D01*
X189895824Y-52365603D01*
X189895807Y-52365613D01*
X189764708Y-52453211D01*
X189764707Y-52453212D01*
X189764701Y-52453217D01*
X189653217Y-52564701D01*
X189653212Y-52564707D01*
X189565613Y-52695807D01*
X189565603Y-52695824D01*
X189565598Y-52695833D01*
X189505264Y-52841496D01*
X189505257Y-52841527D01*
X189474500Y-52996150D01*
X189474500Y-52996153D01*
X189474500Y-53153846D01*
X189474500Y-53153848D01*
X189474499Y-53153848D01*
X176950952Y-53153848D01*
X176969737Y-53108497D01*
X176992083Y-52996158D01*
X176998107Y-52965875D01*
X176998107Y-52965874D01*
X176998109Y-52965866D01*
X176998109Y-52965865D01*
X176999295Y-52959904D01*
X176999296Y-52959904D01*
X176999297Y-52959889D01*
X177000500Y-52953844D01*
X177000500Y-52796155D01*
X177000500Y-52795976D01*
X177000076Y-52794026D01*
X176995236Y-52769693D01*
X176969742Y-52641527D01*
X176969739Y-52641510D01*
X176969737Y-52641507D01*
X176969737Y-52641503D01*
X176960120Y-52618285D01*
X176909397Y-52495827D01*
X176909390Y-52495814D01*
X176821789Y-52364711D01*
X176821786Y-52364707D01*
X176821781Y-52364701D01*
X176710297Y-52253217D01*
X176710291Y-52253212D01*
X176710290Y-52253211D01*
X176579191Y-52165613D01*
X176579190Y-52165612D01*
X176579185Y-52165609D01*
X176579172Y-52165602D01*
X176579165Y-52165598D01*
X176433502Y-52105264D01*
X176433471Y-52105257D01*
X176278847Y-52074500D01*
X176278845Y-52074500D01*
X176278842Y-52074500D01*
X176121158Y-52074500D01*
X176121155Y-52074500D01*
X176121153Y-52074500D01*
X175966527Y-52105257D01*
X175966496Y-52105264D01*
X175820833Y-52165598D01*
X175820824Y-52165603D01*
X175820807Y-52165613D01*
X175689708Y-52253211D01*
X175689707Y-52253212D01*
X175689701Y-52253217D01*
X175578217Y-52364701D01*
X175578212Y-52364707D01*
X175578211Y-52364708D01*
X175490613Y-52495807D01*
X175490603Y-52495824D01*
X175490598Y-52495833D01*
X175430264Y-52641496D01*
X175430257Y-52641527D01*
X175399500Y-52796150D01*
X175399500Y-52796153D01*
X175399500Y-52953846D01*
X175399500Y-52953848D01*
X175399499Y-52953848D01*
X152175500Y-52953848D01*
X152175500Y-50881987D01*
X152674500Y-50881987D01*
X152674500Y-51118011D01*
X152674503Y-51118035D01*
X152705305Y-51352006D01*
X152766395Y-51579997D01*
X152845838Y-51771789D01*
X152856714Y-51798045D01*
X152856719Y-51798056D01*
X152892135Y-51859397D01*
X152974727Y-52002450D01*
X152974729Y-52002453D01*
X152974730Y-52002454D01*
X152980621Y-52010131D01*
X153118399Y-52189689D01*
X153118403Y-52189694D01*
X153118406Y-52189697D01*
X153118412Y-52189704D01*
X153285295Y-52356587D01*
X153285302Y-52356593D01*
X153285309Y-52356598D01*
X153295882Y-52364712D01*
X153295883Y-52364712D01*
X153385666Y-52433605D01*
X153472550Y-52500273D01*
X153584153Y-52564707D01*
X153673505Y-52616295D01*
X153675241Y-52617374D01*
X153676663Y-52618163D01*
X153676937Y-52618276D01*
X153676943Y-52618280D01*
X153676948Y-52618282D01*
X153676951Y-52618284D01*
X153895007Y-52708606D01*
X154122986Y-52769693D01*
X154356989Y-52800500D01*
X154356996Y-52800500D01*
X154593004Y-52800500D01*
X154593011Y-52800500D01*
X154827014Y-52769693D01*
X155054993Y-52708606D01*
X155273049Y-52618284D01*
X155477450Y-52500273D01*
X155664699Y-52356592D01*
X155831592Y-52189699D01*
X155975273Y-52002450D01*
X156093284Y-51798049D01*
X156183606Y-51579993D01*
X156244693Y-51352014D01*
X156275500Y-51118011D01*
X156275500Y-50881989D01*
X156244693Y-50647986D01*
X156233707Y-50606987D01*
X166874500Y-50606987D01*
X166874500Y-50843011D01*
X166874503Y-50843035D01*
X166905305Y-51077006D01*
X166966395Y-51304997D01*
X167056715Y-51523048D01*
X167056724Y-51523065D01*
X167060257Y-51529185D01*
X167127677Y-51645957D01*
X167174727Y-51727450D01*
X167174729Y-51727453D01*
X167174730Y-51727454D01*
X167180446Y-51734904D01*
X167180449Y-51734908D01*
X167318399Y-51914689D01*
X167318405Y-51914696D01*
X167318406Y-51914697D01*
X167318412Y-51914704D01*
X167485295Y-52081587D01*
X167485302Y-52081593D01*
X167485314Y-52081602D01*
X167485315Y-52081603D01*
X167516150Y-52105263D01*
X167516151Y-52105264D01*
X167672548Y-52225272D01*
X167672550Y-52225273D01*
X167757814Y-52274500D01*
X167873505Y-52341295D01*
X167875241Y-52342374D01*
X167876663Y-52343163D01*
X167876937Y-52343276D01*
X167876943Y-52343280D01*
X167876948Y-52343282D01*
X167876951Y-52343284D01*
X168095007Y-52433606D01*
X168322986Y-52494693D01*
X168556989Y-52525500D01*
X168556996Y-52525500D01*
X168793004Y-52525500D01*
X168793011Y-52525500D01*
X169027014Y-52494693D01*
X169254993Y-52433606D01*
X169473049Y-52343284D01*
X169677450Y-52225273D01*
X169864699Y-52081592D01*
X170031592Y-51914699D01*
X170175273Y-51727450D01*
X170293284Y-51523049D01*
X170383606Y-51304993D01*
X170404009Y-51228848D01*
X183499499Y-51228848D01*
X183530257Y-51383471D01*
X183530264Y-51383502D01*
X183590598Y-51529165D01*
X183590603Y-51529174D01*
X183590613Y-51529191D01*
X183678211Y-51660290D01*
X183678212Y-51660291D01*
X183678217Y-51660297D01*
X183789701Y-51771781D01*
X183789707Y-51771786D01*
X183789711Y-51771789D01*
X183920814Y-51859390D01*
X183920827Y-51859397D01*
X183920829Y-51859397D01*
X183920833Y-51859400D01*
X184044581Y-51910657D01*
X184054335Y-51914697D01*
X184066503Y-51919737D01*
X184215126Y-51949300D01*
X184216723Y-51949662D01*
X184217024Y-51949829D01*
X184221155Y-51950500D01*
X184378844Y-51950500D01*
X184382964Y-51950500D01*
X184390814Y-51948118D01*
X184533497Y-51919737D01*
X184679179Y-51859394D01*
X184810289Y-51771789D01*
X184921789Y-51660289D01*
X185009394Y-51529179D01*
X185011927Y-51523065D01*
X185069735Y-51383501D01*
X185069737Y-51383497D01*
X185100500Y-51228842D01*
X185100500Y-51071158D01*
X185100500Y-51071155D01*
X185100500Y-51070973D01*
X185100065Y-51068972D01*
X185096068Y-51048877D01*
X185070395Y-50919816D01*
X185069994Y-50917467D01*
X185069738Y-50916508D01*
X185069737Y-50916506D01*
X185069737Y-50916503D01*
X185069735Y-50916498D01*
X185009397Y-50770827D01*
X185009390Y-50770814D01*
X184921789Y-50639711D01*
X184921786Y-50639707D01*
X184921781Y-50639701D01*
X184810297Y-50528217D01*
X184810291Y-50528212D01*
X184810290Y-50528211D01*
X184679191Y-50440613D01*
X184679190Y-50440612D01*
X184679185Y-50440609D01*
X184679172Y-50440602D01*
X184679165Y-50440598D01*
X184533502Y-50380264D01*
X184533471Y-50380257D01*
X184378847Y-50349500D01*
X184378845Y-50349500D01*
X184378842Y-50349500D01*
X184221158Y-50349500D01*
X184221155Y-50349500D01*
X184221153Y-50349500D01*
X184066527Y-50380257D01*
X184066496Y-50380264D01*
X183920833Y-50440598D01*
X183920824Y-50440603D01*
X183920807Y-50440613D01*
X183789708Y-50528211D01*
X183789707Y-50528212D01*
X183789701Y-50528217D01*
X183678217Y-50639701D01*
X183678212Y-50639707D01*
X183678211Y-50639708D01*
X183590613Y-50770807D01*
X183590603Y-50770824D01*
X183590598Y-50770833D01*
X183530264Y-50916496D01*
X183530257Y-50916527D01*
X183499500Y-51071150D01*
X183499500Y-51071153D01*
X183499500Y-51228846D01*
X183499500Y-51228848D01*
X183499499Y-51228848D01*
X170404009Y-51228848D01*
X170444693Y-51077014D01*
X170475500Y-50843011D01*
X170475500Y-50606989D01*
X170444693Y-50372986D01*
X170383606Y-50145007D01*
X170366557Y-50103848D01*
X186574499Y-50103848D01*
X186605257Y-50258471D01*
X186605264Y-50258502D01*
X186665598Y-50404165D01*
X186665603Y-50404174D01*
X186665613Y-50404191D01*
X186753211Y-50535290D01*
X186753212Y-50535291D01*
X186753217Y-50535297D01*
X186864701Y-50646781D01*
X186864707Y-50646786D01*
X186864711Y-50646789D01*
X186995814Y-50734390D01*
X186995827Y-50734397D01*
X187141498Y-50794735D01*
X187141503Y-50794737D01*
X187296153Y-50825499D01*
X187296156Y-50825500D01*
X187296158Y-50825500D01*
X187453844Y-50825500D01*
X187453845Y-50825499D01*
X187608497Y-50794737D01*
X187754179Y-50734394D01*
X187885289Y-50646789D01*
X187996789Y-50535289D01*
X188084394Y-50404179D01*
X188144737Y-50258497D01*
X188175500Y-50103842D01*
X188175500Y-49946158D01*
X188175500Y-49946155D01*
X188175500Y-49945973D01*
X188175065Y-49943971D01*
X188155282Y-49844516D01*
X188155281Y-49844515D01*
X188144737Y-49791503D01*
X188097521Y-49677512D01*
X188084397Y-49645827D01*
X188084390Y-49645814D01*
X187996789Y-49514711D01*
X187996786Y-49514707D01*
X187996781Y-49514701D01*
X187885297Y-49403217D01*
X187885291Y-49403212D01*
X187885290Y-49403211D01*
X187754191Y-49315613D01*
X187754190Y-49315612D01*
X187754185Y-49315609D01*
X187754172Y-49315602D01*
X187754165Y-49315598D01*
X187608502Y-49255264D01*
X187608471Y-49255257D01*
X187453847Y-49224500D01*
X187453845Y-49224500D01*
X187453842Y-49224500D01*
X187296158Y-49224500D01*
X187296155Y-49224500D01*
X187296153Y-49224500D01*
X187141527Y-49255257D01*
X187141496Y-49255264D01*
X186995833Y-49315598D01*
X186995824Y-49315603D01*
X186995807Y-49315613D01*
X186864708Y-49403211D01*
X186864707Y-49403212D01*
X186864701Y-49403217D01*
X186753217Y-49514701D01*
X186753212Y-49514707D01*
X186753211Y-49514708D01*
X186665613Y-49645807D01*
X186665603Y-49645824D01*
X186665598Y-49645833D01*
X186605264Y-49791496D01*
X186605257Y-49791527D01*
X186574500Y-49946150D01*
X186574500Y-49946153D01*
X186574500Y-50103846D01*
X186574500Y-50103848D01*
X186574499Y-50103848D01*
X170366557Y-50103848D01*
X170293284Y-49926951D01*
X170293282Y-49926948D01*
X170293280Y-49926943D01*
X170293276Y-49926937D01*
X170293163Y-49926663D01*
X170292376Y-49925245D01*
X170291294Y-49923503D01*
X170232768Y-49822135D01*
X170175273Y-49722550D01*
X170175272Y-49722548D01*
X170114544Y-49643406D01*
X170031599Y-49535309D01*
X170031595Y-49535305D01*
X170031593Y-49535302D01*
X170031587Y-49535295D01*
X169864704Y-49368412D01*
X169864697Y-49368406D01*
X169864694Y-49368403D01*
X169864689Y-49368399D01*
X169684930Y-49230466D01*
X169684927Y-49230464D01*
X169677454Y-49224730D01*
X169677453Y-49224729D01*
X169677450Y-49224727D01*
X169591322Y-49175001D01*
X169590728Y-49174658D01*
X169590706Y-49174645D01*
X169473065Y-49106724D01*
X169473048Y-49106715D01*
X169254997Y-49016395D01*
X169027006Y-48955305D01*
X168794889Y-48924747D01*
X168793208Y-48924500D01*
X168793017Y-48924500D01*
X168793011Y-48924500D01*
X168556989Y-48924500D01*
X168556983Y-48924500D01*
X168556981Y-48924500D01*
X168550861Y-48925253D01*
X168549955Y-48925425D01*
X168322992Y-48955305D01*
X168095001Y-49016395D01*
X167876950Y-49106715D01*
X167876942Y-49106719D01*
X167672545Y-49224730D01*
X167672536Y-49224736D01*
X167485309Y-49368399D01*
X167485294Y-49368413D01*
X167485286Y-49368420D01*
X167318420Y-49535286D01*
X167318413Y-49535294D01*
X167318399Y-49535309D01*
X167174736Y-49722536D01*
X167174730Y-49722545D01*
X167056719Y-49926942D01*
X167056715Y-49926950D01*
X166966395Y-50145001D01*
X166905305Y-50372992D01*
X166874503Y-50606963D01*
X166874500Y-50606987D01*
X156233707Y-50606987D01*
X156183606Y-50420007D01*
X156093284Y-50201951D01*
X156093282Y-50201948D01*
X156093280Y-50201943D01*
X156093276Y-50201937D01*
X156093163Y-50201663D01*
X156092374Y-50200241D01*
X156091294Y-50198503D01*
X156028976Y-50090566D01*
X155975277Y-49997556D01*
X155975275Y-49997554D01*
X155975273Y-49997550D01*
X155873563Y-49864999D01*
X155857845Y-49844515D01*
X155831607Y-49810320D01*
X155831598Y-49810309D01*
X155831593Y-49810302D01*
X155831587Y-49810295D01*
X155664704Y-49643412D01*
X155664697Y-49643406D01*
X155664694Y-49643403D01*
X155664689Y-49643399D01*
X155484983Y-49505507D01*
X155484981Y-49505506D01*
X155477454Y-49499730D01*
X155477453Y-49499729D01*
X155477450Y-49499727D01*
X155381507Y-49444334D01*
X155380952Y-49444013D01*
X155380880Y-49443971D01*
X155273065Y-49381724D01*
X155273048Y-49381715D01*
X155054997Y-49291395D01*
X154827006Y-49230305D01*
X154594889Y-49199747D01*
X154593208Y-49199500D01*
X154593017Y-49199500D01*
X154593011Y-49199500D01*
X154356989Y-49199500D01*
X154356983Y-49199500D01*
X154356981Y-49199500D01*
X154350861Y-49200253D01*
X154349955Y-49200425D01*
X154122992Y-49230305D01*
X153895001Y-49291395D01*
X153676950Y-49381715D01*
X153676942Y-49381719D01*
X153472545Y-49499730D01*
X153472536Y-49499736D01*
X153285309Y-49643399D01*
X153285294Y-49643413D01*
X153285286Y-49643420D01*
X153118420Y-49810286D01*
X153118413Y-49810294D01*
X153118399Y-49810309D01*
X152974736Y-49997536D01*
X152974730Y-49997545D01*
X152856719Y-50201942D01*
X152856715Y-50201950D01*
X152766395Y-50420001D01*
X152705305Y-50647992D01*
X152674503Y-50881963D01*
X152674500Y-50881987D01*
X152175500Y-50881987D01*
X152175500Y-48581896D01*
X156799500Y-48581896D01*
X156799500Y-48818102D01*
X156821231Y-48955305D01*
X156836446Y-49051368D01*
X156909433Y-49275996D01*
X156956526Y-49368420D01*
X156995207Y-49444336D01*
X157009053Y-49471509D01*
X157016657Y-49486433D01*
X157155483Y-49677510D01*
X157322490Y-49844517D01*
X157513567Y-49983343D01*
X157612991Y-50034002D01*
X157724003Y-50090566D01*
X157724876Y-50091011D01*
X157728630Y-50092070D01*
X157764862Y-50103842D01*
X157844410Y-50129688D01*
X157844411Y-50129689D01*
X157844412Y-50129689D01*
X157948631Y-50163553D01*
X158181903Y-50200500D01*
X158181908Y-50200500D01*
X158418096Y-50200500D01*
X158418097Y-50200500D01*
X158651368Y-50163553D01*
X158875992Y-50090568D01*
X159086433Y-49983343D01*
X159277510Y-49844517D01*
X159444517Y-49677510D01*
X159583343Y-49486433D01*
X159690568Y-49275992D01*
X159763553Y-49051368D01*
X159769092Y-49016394D01*
X159800500Y-48818097D01*
X159800500Y-48581902D01*
X159800499Y-48581896D01*
X163299500Y-48581896D01*
X163299500Y-48818102D01*
X163321231Y-48955305D01*
X163336446Y-49051368D01*
X163409433Y-49275996D01*
X163456526Y-49368420D01*
X163495207Y-49444336D01*
X163509053Y-49471509D01*
X163516657Y-49486433D01*
X163655483Y-49677510D01*
X163822490Y-49844517D01*
X164013567Y-49983343D01*
X164112991Y-50034002D01*
X164224003Y-50090566D01*
X164224876Y-50091011D01*
X164228630Y-50092070D01*
X164264862Y-50103842D01*
X164344410Y-50129688D01*
X164344411Y-50129689D01*
X164344412Y-50129689D01*
X164448631Y-50163553D01*
X164681903Y-50200500D01*
X164681908Y-50200500D01*
X164918096Y-50200500D01*
X164918097Y-50200500D01*
X165151368Y-50163553D01*
X165375992Y-50090568D01*
X165586433Y-49983343D01*
X165777510Y-49844517D01*
X165944517Y-49677510D01*
X166083343Y-49486433D01*
X166190568Y-49275992D01*
X166263553Y-49051368D01*
X166269092Y-49016394D01*
X166300500Y-48818097D01*
X166300500Y-48581902D01*
X166263553Y-48348631D01*
X166229689Y-48244412D01*
X166192069Y-48128629D01*
X166191007Y-48124864D01*
X166190011Y-48122859D01*
X166188216Y-48119154D01*
X166187283Y-48117560D01*
X166083340Y-47913562D01*
X166083338Y-47913559D01*
X166069657Y-47894728D01*
X166069646Y-47894712D01*
X166069644Y-47894711D01*
X166066788Y-47890780D01*
X166066781Y-47890771D01*
X166055977Y-47875901D01*
X166055976Y-47875899D01*
X166018976Y-47824973D01*
X172699500Y-47824973D01*
X172699500Y-47824983D01*
X172699500Y-49175001D01*
X172699501Y-49175018D01*
X172710000Y-49277796D01*
X172710001Y-49277799D01*
X172765185Y-49444331D01*
X172765187Y-49444336D01*
X172788870Y-49482732D01*
X172821285Y-49535286D01*
X172857286Y-49593654D01*
X172857288Y-49593656D01*
X172981344Y-49717712D01*
X173130666Y-49809814D01*
X173297203Y-49864999D01*
X173399991Y-49875500D01*
X174200008Y-49875499D01*
X174200016Y-49875498D01*
X174200019Y-49875498D01*
X174200027Y-49875497D01*
X174200317Y-49875479D01*
X174201333Y-49875363D01*
X174246459Y-49870753D01*
X174256303Y-49869748D01*
X174256303Y-49869747D01*
X174302797Y-49864999D01*
X174469334Y-49809814D01*
X174618656Y-49717712D01*
X174742712Y-49593656D01*
X174772954Y-49544623D01*
X174795559Y-49517538D01*
X174805890Y-49508246D01*
X174868895Y-49478054D01*
X174938219Y-49486715D01*
X174946945Y-49490506D01*
X174985212Y-49516554D01*
X175083072Y-49614414D01*
X175223212Y-49716232D01*
X175377555Y-49794873D01*
X175542299Y-49848402D01*
X175713389Y-49875500D01*
X175713390Y-49875500D01*
X175886610Y-49875500D01*
X175886611Y-49875500D01*
X176057701Y-49848402D01*
X176222445Y-49794873D01*
X176376788Y-49716232D01*
X176516928Y-49614414D01*
X176639414Y-49491928D01*
X176741232Y-49351788D01*
X176819873Y-49197445D01*
X176873402Y-49032701D01*
X176900500Y-48861611D01*
X176900500Y-48138389D01*
X176873402Y-47967299D01*
X176869031Y-47953848D01*
X179074499Y-47953848D01*
X179105257Y-48108471D01*
X179105264Y-48108502D01*
X179165598Y-48254165D01*
X179165603Y-48254174D01*
X179165613Y-48254191D01*
X179253211Y-48385290D01*
X179253212Y-48385291D01*
X179253217Y-48385297D01*
X179364701Y-48496781D01*
X179364707Y-48496786D01*
X179364711Y-48496789D01*
X179495814Y-48584390D01*
X179495827Y-48584397D01*
X179641498Y-48644735D01*
X179641503Y-48644737D01*
X179796153Y-48675499D01*
X179796156Y-48675500D01*
X179796158Y-48675500D01*
X179953844Y-48675500D01*
X179953845Y-48675499D01*
X180108497Y-48644737D01*
X180254179Y-48584394D01*
X180385289Y-48496789D01*
X180496789Y-48385289D01*
X180584394Y-48254179D01*
X180644737Y-48108497D01*
X180675500Y-47953842D01*
X180675500Y-47796158D01*
X180675500Y-47796155D01*
X180675500Y-47795971D01*
X180675064Y-47793966D01*
X180660846Y-47722487D01*
X180644739Y-47641510D01*
X180644737Y-47641507D01*
X180644737Y-47641503D01*
X180644735Y-47641498D01*
X180584397Y-47495827D01*
X180584390Y-47495814D01*
X180496789Y-47364711D01*
X180496786Y-47364707D01*
X180496781Y-47364701D01*
X180385297Y-47253217D01*
X180385291Y-47253212D01*
X180385288Y-47253210D01*
X180254191Y-47165613D01*
X180254190Y-47165612D01*
X180254185Y-47165609D01*
X180254172Y-47165602D01*
X180254165Y-47165598D01*
X180108502Y-47105264D01*
X180108471Y-47105257D01*
X179953847Y-47074500D01*
X179953845Y-47074500D01*
X179953842Y-47074500D01*
X179796158Y-47074500D01*
X179796155Y-47074500D01*
X179796153Y-47074500D01*
X179641527Y-47105257D01*
X179641496Y-47105264D01*
X179495833Y-47165598D01*
X179495824Y-47165603D01*
X179495807Y-47165613D01*
X179364711Y-47253210D01*
X179364707Y-47253212D01*
X179364701Y-47253217D01*
X179253217Y-47364701D01*
X179253212Y-47364707D01*
X179253211Y-47364708D01*
X179165613Y-47495807D01*
X179165603Y-47495824D01*
X179165598Y-47495833D01*
X179105264Y-47641496D01*
X179105257Y-47641527D01*
X179074500Y-47796150D01*
X179074500Y-47796151D01*
X179074500Y-47796153D01*
X179074500Y-47953846D01*
X179074500Y-47953848D01*
X179074499Y-47953848D01*
X176869031Y-47953848D01*
X176819873Y-47802555D01*
X176741232Y-47648212D01*
X176639414Y-47508072D01*
X176516928Y-47385586D01*
X176412113Y-47309433D01*
X176376786Y-47283766D01*
X176316816Y-47253211D01*
X176316815Y-47253210D01*
X176316814Y-47253210D01*
X176239943Y-47214042D01*
X176234603Y-47210163D01*
X176210287Y-47200090D01*
X176203767Y-47199058D01*
X176174960Y-47189698D01*
X176071215Y-47155988D01*
X176071203Y-47155985D01*
X176057701Y-47151598D01*
X176057699Y-47151597D01*
X176057698Y-47151597D01*
X176043312Y-47149318D01*
X176043306Y-47149317D01*
X175952902Y-47134999D01*
X175926271Y-47130781D01*
X175910407Y-47128268D01*
X175886614Y-47124500D01*
X175886611Y-47124500D01*
X175713389Y-47124500D01*
X175713388Y-47124500D01*
X175673726Y-47130781D01*
X175673725Y-47130780D01*
X175542304Y-47151596D01*
X175377549Y-47205129D01*
X175223210Y-47283768D01*
X175083074Y-47385584D01*
X174988138Y-47480520D01*
X174988136Y-47480521D01*
X174988136Y-47480522D01*
X174971079Y-47493290D01*
X174959881Y-47501672D01*
X174947698Y-47508324D01*
X174879425Y-47523174D01*
X174813964Y-47498757D01*
X174806347Y-47493055D01*
X174775120Y-47458886D01*
X174742712Y-47406344D01*
X174618656Y-47282288D01*
X174618655Y-47282287D01*
X174501722Y-47210163D01*
X174493559Y-47205128D01*
X174469336Y-47190187D01*
X174469331Y-47190185D01*
X174467862Y-47189698D01*
X174311265Y-47137807D01*
X174308445Y-47136641D01*
X174302792Y-47134999D01*
X174200019Y-47124500D01*
X174200010Y-47124500D01*
X173399998Y-47124500D01*
X173399980Y-47124501D01*
X173399972Y-47124501D01*
X173399953Y-47124503D01*
X173297197Y-47135000D01*
X173297193Y-47135001D01*
X173297032Y-47135056D01*
X173130667Y-47190185D01*
X173130665Y-47190186D01*
X173130663Y-47190187D01*
X173098277Y-47210163D01*
X172981340Y-47282290D01*
X172857290Y-47406340D01*
X172765187Y-47555662D01*
X172765152Y-47555770D01*
X172721050Y-47688857D01*
X172721044Y-47688875D01*
X172710001Y-47722203D01*
X172710001Y-47722204D01*
X172710000Y-47722204D01*
X172709230Y-47729735D01*
X172709229Y-47729741D01*
X172699500Y-47824973D01*
X166018976Y-47824973D01*
X165944517Y-47722490D01*
X165777510Y-47555483D01*
X165586433Y-47416657D01*
X165525451Y-47385585D01*
X165375996Y-47309433D01*
X165151368Y-47236446D01*
X165151362Y-47236445D01*
X164918102Y-47199500D01*
X164918097Y-47199500D01*
X164918092Y-47199500D01*
X164681908Y-47199500D01*
X164681903Y-47199500D01*
X164681898Y-47199500D01*
X164448636Y-47236445D01*
X164448634Y-47236445D01*
X164448631Y-47236446D01*
X164224003Y-47309433D01*
X164152972Y-47345625D01*
X164013566Y-47416656D01*
X163926719Y-47479756D01*
X163926718Y-47479756D01*
X163834360Y-47546858D01*
X163826981Y-47550990D01*
X163650990Y-47726981D01*
X163646860Y-47734357D01*
X163601965Y-47796151D01*
X163601964Y-47796153D01*
X163516656Y-47913566D01*
X163445625Y-48052972D01*
X163409433Y-48124003D01*
X163336446Y-48348631D01*
X163336446Y-48348632D01*
X163336445Y-48348636D01*
X163299500Y-48581896D01*
X159800499Y-48581896D01*
X159763553Y-48348631D01*
X159729689Y-48244412D01*
X159692069Y-48128629D01*
X159691007Y-48124864D01*
X159690011Y-48122859D01*
X159688216Y-48119154D01*
X159687283Y-48117560D01*
X159583342Y-47913566D01*
X159583339Y-47913562D01*
X159569652Y-47894724D01*
X159569651Y-47894722D01*
X159444519Y-47722493D01*
X159444514Y-47722487D01*
X159277512Y-47555485D01*
X159277510Y-47555483D01*
X159086433Y-47416657D01*
X159025451Y-47385585D01*
X158875996Y-47309433D01*
X158651368Y-47236446D01*
X158651362Y-47236445D01*
X158418102Y-47199500D01*
X158418097Y-47199500D01*
X158418092Y-47199500D01*
X158181908Y-47199500D01*
X158181903Y-47199500D01*
X158181898Y-47199500D01*
X157948636Y-47236445D01*
X157948634Y-47236445D01*
X157948631Y-47236446D01*
X157724003Y-47309433D01*
X157652972Y-47345625D01*
X157513566Y-47416656D01*
X157426719Y-47479756D01*
X157426718Y-47479756D01*
X157334360Y-47546858D01*
X157326981Y-47550990D01*
X157150990Y-47726981D01*
X157146860Y-47734357D01*
X157101965Y-47796151D01*
X157101964Y-47796153D01*
X157016656Y-47913566D01*
X156945625Y-48052972D01*
X156909433Y-48124003D01*
X156836446Y-48348631D01*
X156836446Y-48348632D01*
X156836445Y-48348636D01*
X156799500Y-48581896D01*
X152175500Y-48581896D01*
X152175500Y-45928848D01*
X172849499Y-45928848D01*
X172880257Y-46083471D01*
X172880264Y-46083502D01*
X172940598Y-46229165D01*
X172940603Y-46229174D01*
X172940613Y-46229191D01*
X173028211Y-46360290D01*
X173028212Y-46360291D01*
X173028217Y-46360297D01*
X173139701Y-46471781D01*
X173139707Y-46471786D01*
X173139711Y-46471789D01*
X173270814Y-46559390D01*
X173270827Y-46559397D01*
X173416498Y-46619735D01*
X173416503Y-46619737D01*
X173571153Y-46650499D01*
X173571156Y-46650500D01*
X173571158Y-46650500D01*
X173728844Y-46650500D01*
X173728845Y-46650499D01*
X173883497Y-46619737D01*
X174029179Y-46559394D01*
X174160289Y-46471789D01*
X174271789Y-46360289D01*
X174359394Y-46229179D01*
X174419737Y-46083497D01*
X174450499Y-45928848D01*
X176774499Y-45928848D01*
X176805257Y-46083471D01*
X176805264Y-46083502D01*
X176865598Y-46229165D01*
X176865603Y-46229174D01*
X176865613Y-46229191D01*
X176953211Y-46360290D01*
X176953212Y-46360291D01*
X176953217Y-46360297D01*
X177064701Y-46471781D01*
X177064707Y-46471786D01*
X177064711Y-46471789D01*
X177195814Y-46559390D01*
X177195827Y-46559397D01*
X177341498Y-46619735D01*
X177341503Y-46619737D01*
X177496153Y-46650499D01*
X177496156Y-46650500D01*
X177496158Y-46650500D01*
X177653844Y-46650500D01*
X177653845Y-46650499D01*
X177808497Y-46619737D01*
X177954179Y-46559394D01*
X178085289Y-46471789D01*
X178196789Y-46360289D01*
X178284394Y-46229179D01*
X178344737Y-46083497D01*
X178375500Y-45928842D01*
X178375500Y-45771158D01*
X178375500Y-45771155D01*
X178375500Y-45770973D01*
X178375065Y-45768971D01*
X178370527Y-45746157D01*
X178344739Y-45616510D01*
X178344736Y-45616501D01*
X178334754Y-45592403D01*
X178300625Y-45510006D01*
X178284397Y-45470827D01*
X178284395Y-45470823D01*
X178284394Y-45470821D01*
X178284389Y-45470814D01*
X178284043Y-45470295D01*
X178282063Y-45465554D01*
X178281982Y-45464821D01*
X178278155Y-45454832D01*
X178274059Y-45441752D01*
X178272810Y-45371894D01*
X178309528Y-45312450D01*
X178372555Y-45282293D01*
X178435728Y-45288515D01*
X178443275Y-45291330D01*
X178455394Y-45296602D01*
X178457537Y-45297673D01*
X178457540Y-45297675D01*
X178457542Y-45297676D01*
X178457546Y-45297678D01*
X178603217Y-45358016D01*
X178603222Y-45358018D01*
X178750232Y-45387260D01*
X178752966Y-45387984D01*
X178757874Y-45388781D01*
X178915563Y-45388781D01*
X178915564Y-45388781D01*
X178930983Y-45385713D01*
X178996035Y-45372773D01*
X179031275Y-45370885D01*
X179044841Y-45372099D01*
X179109860Y-45397680D01*
X179150726Y-45454352D01*
X179156011Y-45516528D01*
X179154617Y-45524671D01*
X179146956Y-45551201D01*
X179130263Y-45591499D01*
X179130257Y-45591527D01*
X179099500Y-45746150D01*
X179099500Y-45746153D01*
X179099500Y-45903846D01*
X179099500Y-45903848D01*
X179099499Y-45903848D01*
X179130257Y-46058471D01*
X179130264Y-46058502D01*
X179190598Y-46204165D01*
X179190603Y-46204174D01*
X179190613Y-46204191D01*
X179278211Y-46335290D01*
X179278212Y-46335291D01*
X179278217Y-46335297D01*
X179389701Y-46446781D01*
X179389707Y-46446786D01*
X179389711Y-46446789D01*
X179520814Y-46534390D01*
X179520827Y-46534397D01*
X179666498Y-46594735D01*
X179666503Y-46594737D01*
X179792176Y-46619735D01*
X179813533Y-46623983D01*
X179816250Y-46624704D01*
X179821155Y-46625500D01*
X179978844Y-46625500D01*
X179982964Y-46625500D01*
X179990814Y-46623118D01*
X180133497Y-46594737D01*
X180279179Y-46534394D01*
X180410289Y-46446789D01*
X180521789Y-46335289D01*
X180609394Y-46204179D01*
X180669737Y-46058497D01*
X180700500Y-45903842D01*
X180700500Y-45746158D01*
X180700500Y-45746155D01*
X180700500Y-45745973D01*
X180700065Y-45743972D01*
X180674711Y-45616510D01*
X180670395Y-45594815D01*
X180669983Y-45592403D01*
X180669738Y-45591508D01*
X180669737Y-45591506D01*
X180669737Y-45591503D01*
X180661415Y-45571412D01*
X180653043Y-45551201D01*
X180619755Y-45470834D01*
X180609397Y-45445827D01*
X180609390Y-45445814D01*
X180521789Y-45314711D01*
X180521786Y-45314707D01*
X180521781Y-45314701D01*
X180410297Y-45203217D01*
X180410291Y-45203212D01*
X180410290Y-45203211D01*
X180279191Y-45115613D01*
X180279190Y-45115612D01*
X180279185Y-45115609D01*
X180279172Y-45115602D01*
X180279165Y-45115598D01*
X180133502Y-45055264D01*
X180133471Y-45055257D01*
X179978847Y-45024500D01*
X179978845Y-45024500D01*
X179978842Y-45024500D01*
X179821158Y-45024500D01*
X179791062Y-45030486D01*
X179740681Y-45040507D01*
X179705436Y-45042395D01*
X179691873Y-45041181D01*
X179626856Y-45015598D01*
X179585990Y-44958926D01*
X179580707Y-44896747D01*
X179582101Y-44888606D01*
X179589762Y-44862080D01*
X179606454Y-44821783D01*
X179606454Y-44821782D01*
X179606456Y-44821778D01*
X179637219Y-44667123D01*
X179637219Y-44509439D01*
X179637219Y-44509436D01*
X179637219Y-44509252D01*
X179636783Y-44507247D01*
X179606458Y-44354791D01*
X179606456Y-44354786D01*
X179606456Y-44354784D01*
X179559176Y-44240639D01*
X179546116Y-44209108D01*
X179546109Y-44209095D01*
X179458508Y-44077992D01*
X179458505Y-44077988D01*
X179458500Y-44077982D01*
X179347016Y-43966498D01*
X179347010Y-43966493D01*
X179347009Y-43966492D01*
X179215910Y-43878894D01*
X179215909Y-43878893D01*
X179215904Y-43878890D01*
X179215891Y-43878883D01*
X179215884Y-43878879D01*
X179070221Y-43818545D01*
X179070190Y-43818538D01*
X178915566Y-43787781D01*
X178915564Y-43787781D01*
X178915561Y-43787781D01*
X178757877Y-43787781D01*
X178757874Y-43787781D01*
X178757872Y-43787781D01*
X178603246Y-43818538D01*
X178603215Y-43818545D01*
X178457552Y-43878879D01*
X178457543Y-43878884D01*
X178457526Y-43878894D01*
X178326427Y-43966492D01*
X178326426Y-43966493D01*
X178326420Y-43966498D01*
X178214936Y-44077982D01*
X178214931Y-44077988D01*
X178214930Y-44077989D01*
X178127332Y-44209088D01*
X178127322Y-44209105D01*
X178127317Y-44209114D01*
X178066983Y-44354777D01*
X178066976Y-44354808D01*
X178036219Y-44509431D01*
X178036219Y-44509434D01*
X178036219Y-44667127D01*
X178036219Y-44667129D01*
X178036218Y-44667129D01*
X178066976Y-44821752D01*
X178066983Y-44821783D01*
X178128678Y-44970731D01*
X178127969Y-44971024D01*
X178133551Y-44983409D01*
X178137661Y-44996537D01*
X178138905Y-45066396D01*
X178102183Y-45125837D01*
X178039155Y-45155989D01*
X177975981Y-45149763D01*
X177971370Y-45148043D01*
X177968518Y-45146979D01*
X177958406Y-45142322D01*
X177957239Y-45142121D01*
X177957151Y-45142040D01*
X177954166Y-45140598D01*
X177808502Y-45080264D01*
X177808471Y-45080257D01*
X177653847Y-45049500D01*
X177653845Y-45049500D01*
X177653842Y-45049500D01*
X177496158Y-45049500D01*
X177496155Y-45049500D01*
X177496153Y-45049500D01*
X177341527Y-45080257D01*
X177341496Y-45080264D01*
X177195833Y-45140598D01*
X177195824Y-45140603D01*
X177195807Y-45140613D01*
X177064708Y-45228211D01*
X177064707Y-45228212D01*
X177064701Y-45228217D01*
X176953217Y-45339701D01*
X176953212Y-45339707D01*
X176865613Y-45470807D01*
X176865603Y-45470824D01*
X176865598Y-45470833D01*
X176805264Y-45616496D01*
X176805257Y-45616527D01*
X176774500Y-45771150D01*
X176774500Y-45771153D01*
X176774500Y-45928846D01*
X176774500Y-45928848D01*
X176774499Y-45928848D01*
X174450499Y-45928848D01*
X174450500Y-45928842D01*
X174450500Y-45771158D01*
X174450500Y-45771155D01*
X174450499Y-45771153D01*
X174445527Y-45746158D01*
X174445527Y-45746157D01*
X174419739Y-45616510D01*
X174419736Y-45616501D01*
X174409754Y-45592403D01*
X174375625Y-45510006D01*
X174359397Y-45470827D01*
X174359390Y-45470814D01*
X174271789Y-45339711D01*
X174271786Y-45339707D01*
X174271781Y-45339701D01*
X174160297Y-45228217D01*
X174160291Y-45228212D01*
X174160290Y-45228211D01*
X174029191Y-45140613D01*
X174029190Y-45140612D01*
X174029185Y-45140609D01*
X174029172Y-45140602D01*
X174029165Y-45140598D01*
X173883502Y-45080264D01*
X173883471Y-45080257D01*
X173728847Y-45049500D01*
X173728845Y-45049500D01*
X173728842Y-45049500D01*
X173571158Y-45049500D01*
X173571155Y-45049500D01*
X173571153Y-45049500D01*
X173416527Y-45080257D01*
X173416496Y-45080264D01*
X173270833Y-45140598D01*
X173270824Y-45140603D01*
X173270807Y-45140613D01*
X173139708Y-45228211D01*
X173139707Y-45228212D01*
X173139701Y-45228217D01*
X173028217Y-45339701D01*
X173028212Y-45339707D01*
X172940613Y-45470807D01*
X172940603Y-45470824D01*
X172940598Y-45470833D01*
X172880264Y-45616496D01*
X172880257Y-45616527D01*
X172849500Y-45771150D01*
X172849500Y-45771153D01*
X172849500Y-45928846D01*
X172849500Y-45928848D01*
X172849499Y-45928848D01*
X152175500Y-45928848D01*
X152175500Y-29000633D01*
X153197500Y-29000633D01*
X153197500Y-29199365D01*
X153228587Y-29395640D01*
X153289984Y-29584605D01*
X153289991Y-29584624D01*
X153289993Y-29584629D01*
X153289994Y-29584632D01*
X153359387Y-29720821D01*
X153359388Y-29720825D01*
X153380209Y-29761689D01*
X153415520Y-29810290D01*
X153497019Y-29922464D01*
X153637536Y-30062981D01*
X153798306Y-30179787D01*
X153878784Y-30220793D01*
X153907234Y-30235289D01*
X153938895Y-30251421D01*
X153964427Y-30269420D01*
X153967740Y-30271755D01*
X153971693Y-30275489D01*
X153977154Y-30280646D01*
X154012377Y-30340988D01*
X154009385Y-30410793D01*
X153973217Y-30464508D01*
X153966212Y-30470578D01*
X153941303Y-30487350D01*
X153798309Y-30560209D01*
X153729377Y-30610292D01*
X153637533Y-30677021D01*
X153637531Y-30677023D01*
X153637530Y-30677023D01*
X153497023Y-30817530D01*
X153497023Y-30817531D01*
X153497021Y-30817533D01*
X153449982Y-30882277D01*
X153380213Y-30978304D01*
X153289991Y-31155373D01*
X153289991Y-31155374D01*
X153289984Y-31155393D01*
X153228587Y-31344358D01*
X153197500Y-31540633D01*
X153197500Y-31739365D01*
X153228587Y-31935640D01*
X153289984Y-32124605D01*
X153289991Y-32124624D01*
X153289991Y-32124625D01*
X153289992Y-32124628D01*
X153289993Y-32124629D01*
X153289994Y-32124632D01*
X153380213Y-32301694D01*
X153497019Y-32462464D01*
X153637536Y-32602981D01*
X153798306Y-32719787D01*
X153916832Y-32780179D01*
X153938896Y-32791421D01*
X153967738Y-32811754D01*
X153971693Y-32815489D01*
X153977155Y-32820647D01*
X153986142Y-32836044D01*
X153989690Y-32839395D01*
X153990862Y-32844130D01*
X154012377Y-32880989D01*
X154009385Y-32950794D01*
X153973217Y-33004508D01*
X153966212Y-33010578D01*
X153941303Y-33027350D01*
X153798309Y-33100209D01*
X153700912Y-33170973D01*
X153637533Y-33217021D01*
X153637531Y-33217023D01*
X153637530Y-33217023D01*
X153497023Y-33357530D01*
X153497023Y-33357531D01*
X153497021Y-33357533D01*
X153455856Y-33414192D01*
X153380213Y-33518304D01*
X153289991Y-33695373D01*
X153289991Y-33695374D01*
X153289984Y-33695393D01*
X153228587Y-33884358D01*
X153197500Y-34080633D01*
X153197500Y-34279365D01*
X153228587Y-34475640D01*
X153289984Y-34664605D01*
X153289991Y-34664624D01*
X153289993Y-34664629D01*
X153289994Y-34664632D01*
X153373343Y-34828211D01*
X153373343Y-34828213D01*
X153380210Y-34841689D01*
X153380213Y-34841694D01*
X153497019Y-35002464D01*
X153637536Y-35142981D01*
X153798306Y-35259787D01*
X153873505Y-35298103D01*
X153901935Y-35312589D01*
X153938895Y-35331421D01*
X153963385Y-35348685D01*
X153967740Y-35351755D01*
X153976774Y-35360288D01*
X153977154Y-35360646D01*
X154012377Y-35420988D01*
X154009385Y-35490793D01*
X153973217Y-35544508D01*
X153966212Y-35550578D01*
X153941303Y-35567350D01*
X153798309Y-35640209D01*
X153691123Y-35718085D01*
X153637533Y-35757021D01*
X153637531Y-35757023D01*
X153637530Y-35757023D01*
X153497023Y-35897530D01*
X153497023Y-35897531D01*
X153497021Y-35897533D01*
X153451837Y-35959723D01*
X153380213Y-36058304D01*
X153353812Y-36110119D01*
X153289994Y-36235367D01*
X153289994Y-36235368D01*
X153289990Y-36235375D01*
X153228587Y-36424358D01*
X153197500Y-36620633D01*
X153197500Y-36819365D01*
X153228587Y-37015640D01*
X153289984Y-37204605D01*
X153289991Y-37204624D01*
X153289991Y-37204625D01*
X153289992Y-37204628D01*
X153289993Y-37204629D01*
X153289994Y-37204632D01*
X153380213Y-37381694D01*
X153497019Y-37542464D01*
X153637536Y-37682981D01*
X153798306Y-37799787D01*
X153916832Y-37860179D01*
X153938896Y-37871421D01*
X153967738Y-37891754D01*
X153971693Y-37895489D01*
X153977155Y-37900647D01*
X153986142Y-37916044D01*
X153989690Y-37919395D01*
X153990862Y-37924130D01*
X154012377Y-37960989D01*
X154009385Y-38030794D01*
X153973217Y-38084508D01*
X153966212Y-38090578D01*
X153941303Y-38107350D01*
X153798309Y-38180209D01*
X153691123Y-38258085D01*
X153637533Y-38297021D01*
X153637531Y-38297023D01*
X153637530Y-38297023D01*
X153497023Y-38437530D01*
X153497023Y-38437531D01*
X153497021Y-38437533D01*
X153497019Y-38437536D01*
X153380213Y-38598304D01*
X153289991Y-38775373D01*
X153289991Y-38775374D01*
X153289984Y-38775393D01*
X153228587Y-38964358D01*
X153197500Y-39160633D01*
X153197500Y-39359365D01*
X153228587Y-39555640D01*
X153289984Y-39744605D01*
X153289991Y-39744624D01*
X153289991Y-39744625D01*
X153289992Y-39744628D01*
X153289993Y-39744629D01*
X153289994Y-39744632D01*
X153380213Y-39921694D01*
X153497019Y-40082464D01*
X153637536Y-40222981D01*
X153798306Y-40339787D01*
X153899790Y-40391496D01*
X153899794Y-40391498D01*
X153899795Y-40391499D01*
X153938895Y-40411422D01*
X153967735Y-40431752D01*
X153977149Y-40440642D01*
X153986140Y-40456043D01*
X153989691Y-40459397D01*
X153990864Y-40464134D01*
X154012375Y-40500981D01*
X154009387Y-40570787D01*
X153973217Y-40624508D01*
X153966212Y-40630578D01*
X153941303Y-40647350D01*
X153798309Y-40720209D01*
X153691123Y-40798085D01*
X153637533Y-40837021D01*
X153637531Y-40837023D01*
X153637530Y-40837023D01*
X153497023Y-40977530D01*
X153497023Y-40977531D01*
X153497021Y-40977533D01*
X153462336Y-41025273D01*
X153380213Y-41138304D01*
X153289991Y-41315373D01*
X153289991Y-41315374D01*
X153289984Y-41315393D01*
X153228587Y-41504358D01*
X153197500Y-41700633D01*
X153197500Y-41899365D01*
X153228587Y-42095640D01*
X153289984Y-42284605D01*
X153289991Y-42284624D01*
X153289991Y-42284625D01*
X153289992Y-42284628D01*
X153289993Y-42284629D01*
X153289994Y-42284632D01*
X153336598Y-42376096D01*
X153376934Y-42455260D01*
X153380210Y-42461689D01*
X153380213Y-42461694D01*
X153497019Y-42622464D01*
X153637536Y-42762981D01*
X153798306Y-42879787D01*
X153916832Y-42940179D01*
X153938896Y-42951421D01*
X153967738Y-42971754D01*
X153971693Y-42975489D01*
X153977155Y-42980647D01*
X153986142Y-42996044D01*
X153989690Y-42999395D01*
X153990862Y-43004130D01*
X154012377Y-43040989D01*
X154009385Y-43110794D01*
X153973217Y-43164508D01*
X153966212Y-43170578D01*
X153941303Y-43187350D01*
X153798309Y-43260209D01*
X153691123Y-43338085D01*
X153637533Y-43377021D01*
X153637531Y-43377023D01*
X153637530Y-43377023D01*
X153497023Y-43517530D01*
X153497023Y-43517531D01*
X153497021Y-43517533D01*
X153497019Y-43517536D01*
X153380213Y-43678304D01*
X153289991Y-43855373D01*
X153289991Y-43855374D01*
X153289984Y-43855393D01*
X153228587Y-44044358D01*
X153197500Y-44240633D01*
X153197500Y-44439365D01*
X153228587Y-44635640D01*
X153289984Y-44824605D01*
X153289992Y-44824628D01*
X153289994Y-44824632D01*
X153343174Y-44929001D01*
X153343174Y-44929003D01*
X153343175Y-44929003D01*
X153380213Y-45001694D01*
X153497019Y-45162464D01*
X153637536Y-45302981D01*
X153798306Y-45419787D01*
X153885149Y-45464035D01*
X153975367Y-45510005D01*
X153975370Y-45510006D01*
X154062649Y-45538364D01*
X154067502Y-45539941D01*
X154067505Y-45539942D01*
X154102157Y-45551201D01*
X154164364Y-45571413D01*
X154360639Y-45602500D01*
X154360640Y-45602500D01*
X154559360Y-45602500D01*
X154559361Y-45602500D01*
X154755636Y-45571413D01*
X154944632Y-45510005D01*
X155121694Y-45419787D01*
X155282464Y-45302981D01*
X155422981Y-45162464D01*
X155539787Y-45001694D01*
X155630005Y-44824632D01*
X155691413Y-44635636D01*
X155722500Y-44439361D01*
X155722500Y-44240639D01*
X155691413Y-44044364D01*
X155637647Y-43878887D01*
X155630006Y-43855370D01*
X155630005Y-43855367D01*
X155539786Y-43678305D01*
X155485935Y-43604185D01*
X155470196Y-43582522D01*
X155422984Y-43517539D01*
X155282466Y-43377021D01*
X155282464Y-43377019D01*
X155181744Y-43303842D01*
X155121692Y-43260211D01*
X154981102Y-43188576D01*
X154952257Y-43168242D01*
X154942844Y-43159352D01*
X154907621Y-43099010D01*
X154910613Y-43029205D01*
X154946780Y-42975491D01*
X154953791Y-42969416D01*
X154978695Y-42952648D01*
X155121692Y-42879788D01*
X155121691Y-42879788D01*
X155121694Y-42879787D01*
X155282464Y-42762981D01*
X155422981Y-42622464D01*
X155539787Y-42461694D01*
X155630005Y-42284632D01*
X155691413Y-42095636D01*
X155722500Y-41899361D01*
X155722500Y-41700639D01*
X155691413Y-41504364D01*
X155648131Y-41371155D01*
X155630006Y-41315370D01*
X155630005Y-41315367D01*
X155579634Y-41216510D01*
X155539787Y-41138306D01*
X155422981Y-40977536D01*
X155282464Y-40837019D01*
X155202079Y-40778616D01*
X155121692Y-40720211D01*
X154981102Y-40648576D01*
X154952257Y-40628242D01*
X154942844Y-40619352D01*
X154907621Y-40559010D01*
X154910613Y-40489205D01*
X154946780Y-40435491D01*
X154953791Y-40429416D01*
X154978695Y-40412648D01*
X154981102Y-40411422D01*
X155121694Y-40339787D01*
X155282464Y-40222981D01*
X155422981Y-40082464D01*
X155539787Y-39921694D01*
X155630005Y-39744632D01*
X155691413Y-39555636D01*
X155722500Y-39359361D01*
X155722500Y-39160639D01*
X155691413Y-38964364D01*
X155631513Y-38780009D01*
X155630449Y-38776237D01*
X155539787Y-38598307D01*
X155539785Y-38598304D01*
X155484747Y-38522550D01*
X155469305Y-38501296D01*
X155422984Y-38437539D01*
X155282466Y-38297021D01*
X155282464Y-38297019D01*
X155202079Y-38238616D01*
X155121692Y-38180211D01*
X154981102Y-38108576D01*
X154952257Y-38088242D01*
X154942844Y-38079352D01*
X154907621Y-38019010D01*
X154910613Y-37949205D01*
X154946780Y-37895491D01*
X154953791Y-37889416D01*
X154978695Y-37872648D01*
X155121692Y-37799788D01*
X155121691Y-37799788D01*
X155121694Y-37799787D01*
X155282464Y-37682981D01*
X155422981Y-37542464D01*
X155539787Y-37381694D01*
X155630005Y-37204632D01*
X155691413Y-37015636D01*
X155722500Y-36819361D01*
X155722500Y-36620639D01*
X155722499Y-36620633D01*
X168437500Y-36620633D01*
X168437500Y-36819365D01*
X168468587Y-37015640D01*
X168529984Y-37204605D01*
X168529991Y-37204624D01*
X168529991Y-37204625D01*
X168529992Y-37204628D01*
X168529993Y-37204629D01*
X168529994Y-37204632D01*
X168620213Y-37381694D01*
X168737019Y-37542464D01*
X168877536Y-37682981D01*
X169038306Y-37799787D01*
X169156832Y-37860179D01*
X169178896Y-37871421D01*
X169207738Y-37891754D01*
X169211693Y-37895489D01*
X169217155Y-37900647D01*
X169226142Y-37916044D01*
X169229690Y-37919395D01*
X169230862Y-37924130D01*
X169252377Y-37960989D01*
X169249385Y-38030794D01*
X169213217Y-38084508D01*
X169206212Y-38090578D01*
X169181303Y-38107350D01*
X169038309Y-38180209D01*
X168931123Y-38258085D01*
X168877533Y-38297021D01*
X168877531Y-38297023D01*
X168877530Y-38297023D01*
X168737023Y-38437530D01*
X168737023Y-38437531D01*
X168737021Y-38437533D01*
X168737019Y-38437536D01*
X168620213Y-38598304D01*
X168529991Y-38775373D01*
X168529991Y-38775374D01*
X168529984Y-38775393D01*
X168468587Y-38964358D01*
X168437500Y-39160633D01*
X168437500Y-39359365D01*
X168468587Y-39555640D01*
X168529984Y-39744605D01*
X168529991Y-39744624D01*
X168529991Y-39744625D01*
X168529992Y-39744628D01*
X168529993Y-39744629D01*
X168529994Y-39744632D01*
X168620213Y-39921694D01*
X168737019Y-40082464D01*
X168877536Y-40222981D01*
X169038306Y-40339787D01*
X169139790Y-40391496D01*
X169139794Y-40391498D01*
X169139795Y-40391499D01*
X169178895Y-40411422D01*
X169207735Y-40431752D01*
X169217149Y-40440642D01*
X169226140Y-40456043D01*
X169229691Y-40459397D01*
X169230864Y-40464134D01*
X169252375Y-40500981D01*
X169249387Y-40570787D01*
X169213217Y-40624508D01*
X169206212Y-40630578D01*
X169181303Y-40647350D01*
X169038309Y-40720209D01*
X168931123Y-40798085D01*
X168877533Y-40837021D01*
X168877531Y-40837023D01*
X168877530Y-40837023D01*
X168737023Y-40977530D01*
X168737023Y-40977531D01*
X168737021Y-40977533D01*
X168702336Y-41025273D01*
X168620213Y-41138304D01*
X168529991Y-41315373D01*
X168529991Y-41315374D01*
X168529984Y-41315393D01*
X168468587Y-41504358D01*
X168437500Y-41700633D01*
X168437500Y-41899365D01*
X168468587Y-42095640D01*
X168529984Y-42284605D01*
X168529991Y-42284624D01*
X168529991Y-42284625D01*
X168529992Y-42284628D01*
X168529993Y-42284629D01*
X168529994Y-42284632D01*
X168576598Y-42376096D01*
X168616934Y-42455260D01*
X168620210Y-42461689D01*
X168620213Y-42461694D01*
X168737019Y-42622464D01*
X168877536Y-42762981D01*
X169038306Y-42879787D01*
X169156832Y-42940179D01*
X169178896Y-42951421D01*
X169207738Y-42971754D01*
X169211693Y-42975489D01*
X169217155Y-42980647D01*
X169226142Y-42996044D01*
X169229690Y-42999395D01*
X169230862Y-43004130D01*
X169252377Y-43040989D01*
X169249385Y-43110794D01*
X169213217Y-43164508D01*
X169206212Y-43170578D01*
X169181303Y-43187350D01*
X169038309Y-43260209D01*
X168931123Y-43338085D01*
X168877533Y-43377021D01*
X168877531Y-43377023D01*
X168877530Y-43377023D01*
X168737023Y-43517530D01*
X168737023Y-43517531D01*
X168737021Y-43517533D01*
X168737019Y-43517536D01*
X168620213Y-43678304D01*
X168529991Y-43855373D01*
X168529991Y-43855374D01*
X168529984Y-43855393D01*
X168468587Y-44044358D01*
X168437500Y-44240633D01*
X168437500Y-44439365D01*
X168468587Y-44635640D01*
X168529984Y-44824605D01*
X168529992Y-44824628D01*
X168529994Y-44824632D01*
X168583174Y-44929001D01*
X168583174Y-44929003D01*
X168583175Y-44929003D01*
X168620213Y-45001694D01*
X168737019Y-45162464D01*
X168877536Y-45302981D01*
X169038306Y-45419787D01*
X169125149Y-45464035D01*
X169215367Y-45510005D01*
X169215370Y-45510006D01*
X169302649Y-45538364D01*
X169307502Y-45539941D01*
X169307505Y-45539942D01*
X169342157Y-45551201D01*
X169404364Y-45571413D01*
X169600639Y-45602500D01*
X169600640Y-45602500D01*
X169799360Y-45602500D01*
X169799361Y-45602500D01*
X169995636Y-45571413D01*
X170184632Y-45510005D01*
X170361694Y-45419787D01*
X170522464Y-45302981D01*
X170662981Y-45162464D01*
X170779787Y-45001694D01*
X170870005Y-44824632D01*
X170931413Y-44635636D01*
X170962500Y-44439361D01*
X170962500Y-44240639D01*
X170931413Y-44044364D01*
X170877647Y-43878887D01*
X170870006Y-43855370D01*
X170870005Y-43855367D01*
X170779786Y-43678305D01*
X170725935Y-43604185D01*
X170710196Y-43582522D01*
X170662984Y-43517539D01*
X170522466Y-43377021D01*
X170522464Y-43377019D01*
X170421753Y-43303848D01*
X181924499Y-43303848D01*
X181955257Y-43458471D01*
X181955264Y-43458502D01*
X182015598Y-43604165D01*
X182015602Y-43604172D01*
X182015609Y-43604185D01*
X182015610Y-43604186D01*
X182103211Y-43735290D01*
X182103212Y-43735291D01*
X182103217Y-43735297D01*
X182214701Y-43846781D01*
X182214707Y-43846786D01*
X182214711Y-43846789D01*
X182345814Y-43934390D01*
X182345827Y-43934397D01*
X182491498Y-43994735D01*
X182491503Y-43994737D01*
X182646153Y-44025499D01*
X182646156Y-44025500D01*
X182646158Y-44025500D01*
X182803844Y-44025500D01*
X182803845Y-44025499D01*
X182958497Y-43994737D01*
X183104179Y-43934394D01*
X183235289Y-43846789D01*
X183346789Y-43735289D01*
X183404796Y-43648474D01*
X183434391Y-43604184D01*
X183434392Y-43604181D01*
X183434394Y-43604179D01*
X183494737Y-43458497D01*
X183525500Y-43303842D01*
X183525500Y-43146158D01*
X183525500Y-43146155D01*
X183525500Y-43145971D01*
X183525064Y-43143966D01*
X183511843Y-43077500D01*
X183497917Y-43007490D01*
X183494737Y-42991503D01*
X183448463Y-42879786D01*
X183434397Y-42845827D01*
X183434390Y-42845814D01*
X183346789Y-42714711D01*
X183346786Y-42714707D01*
X183346781Y-42714701D01*
X183235297Y-42603217D01*
X183235291Y-42603212D01*
X183235290Y-42603211D01*
X183104191Y-42515613D01*
X183104190Y-42515612D01*
X183104185Y-42515609D01*
X183104172Y-42515602D01*
X183104165Y-42515598D01*
X182958502Y-42455264D01*
X182958471Y-42455257D01*
X182803847Y-42424500D01*
X182803845Y-42424500D01*
X182803842Y-42424500D01*
X182646158Y-42424500D01*
X182646155Y-42424500D01*
X182646153Y-42424500D01*
X182491527Y-42455257D01*
X182491496Y-42455264D01*
X182345833Y-42515598D01*
X182345824Y-42515603D01*
X182345807Y-42515613D01*
X182214708Y-42603211D01*
X182214707Y-42603212D01*
X182214701Y-42603217D01*
X182103217Y-42714701D01*
X182103212Y-42714707D01*
X182103211Y-42714708D01*
X182015613Y-42845807D01*
X182015603Y-42845824D01*
X182015598Y-42845833D01*
X181955264Y-42991496D01*
X181955257Y-42991527D01*
X181924500Y-43146150D01*
X181924500Y-43146153D01*
X181924500Y-43303846D01*
X181924500Y-43303848D01*
X181924499Y-43303848D01*
X170421753Y-43303848D01*
X170361694Y-43260213D01*
X170361693Y-43260212D01*
X170361691Y-43260211D01*
X170342721Y-43250545D01*
X170221102Y-43188576D01*
X170192257Y-43168242D01*
X170182844Y-43159352D01*
X170173855Y-43143953D01*
X170170307Y-43140602D01*
X170169133Y-43135864D01*
X170147621Y-43099010D01*
X170150613Y-43029205D01*
X170186780Y-42975491D01*
X170193791Y-42969416D01*
X170218695Y-42952648D01*
X170361692Y-42879788D01*
X170361691Y-42879788D01*
X170361694Y-42879787D01*
X170522464Y-42762981D01*
X170662981Y-42622464D01*
X170779787Y-42461694D01*
X170870005Y-42284632D01*
X170931413Y-42095636D01*
X170962500Y-41899361D01*
X170962500Y-41700639D01*
X170935291Y-41528848D01*
X185224499Y-41528848D01*
X185255257Y-41683471D01*
X185255264Y-41683502D01*
X185315598Y-41829165D01*
X185315603Y-41829174D01*
X185315613Y-41829191D01*
X185403211Y-41960290D01*
X185403212Y-41960291D01*
X185403217Y-41960297D01*
X185514701Y-42071781D01*
X185514707Y-42071786D01*
X185514711Y-42071789D01*
X185645814Y-42159390D01*
X185645827Y-42159397D01*
X185791498Y-42219735D01*
X185791503Y-42219737D01*
X185946153Y-42250499D01*
X185946156Y-42250500D01*
X185946158Y-42250500D01*
X186103844Y-42250500D01*
X186103845Y-42250499D01*
X186258497Y-42219737D01*
X186404179Y-42159394D01*
X186535289Y-42071789D01*
X186646789Y-41960289D01*
X186734394Y-41829179D01*
X186794737Y-41683497D01*
X186825500Y-41528842D01*
X186825500Y-41371158D01*
X186825500Y-41371155D01*
X186825500Y-41370971D01*
X186825064Y-41368966D01*
X186816418Y-41325500D01*
X186800761Y-41246787D01*
X186794737Y-41216503D01*
X186794735Y-41216498D01*
X186734397Y-41070827D01*
X186734390Y-41070814D01*
X186646789Y-40939711D01*
X186646786Y-40939707D01*
X186646781Y-40939701D01*
X186535297Y-40828217D01*
X186535291Y-40828212D01*
X186535290Y-40828211D01*
X186404191Y-40740613D01*
X186404190Y-40740612D01*
X186404185Y-40740609D01*
X186404172Y-40740602D01*
X186404165Y-40740598D01*
X186315441Y-40703848D01*
X198524499Y-40703848D01*
X198555257Y-40858471D01*
X198555264Y-40858502D01*
X198615598Y-41004165D01*
X198615603Y-41004174D01*
X198615613Y-41004191D01*
X198703211Y-41135290D01*
X198703212Y-41135291D01*
X198703217Y-41135297D01*
X198814701Y-41246781D01*
X198814707Y-41246786D01*
X198814711Y-41246789D01*
X198945814Y-41334390D01*
X198945827Y-41334397D01*
X199091498Y-41394735D01*
X199091503Y-41394737D01*
X199246153Y-41425499D01*
X199246156Y-41425500D01*
X199246158Y-41425500D01*
X199403844Y-41425500D01*
X199403845Y-41425499D01*
X199558497Y-41394737D01*
X199704179Y-41334394D01*
X199835289Y-41246789D01*
X199946789Y-41135289D01*
X200034394Y-41004179D01*
X200094737Y-40858497D01*
X200125500Y-40703842D01*
X200125500Y-40546158D01*
X200125500Y-40546155D01*
X200125500Y-40545974D01*
X200125070Y-40543997D01*
X200123342Y-40535311D01*
X200094737Y-40391503D01*
X200073316Y-40339787D01*
X200034397Y-40245827D01*
X200034390Y-40245814D01*
X199946789Y-40114711D01*
X199946786Y-40114707D01*
X199946781Y-40114701D01*
X199835297Y-40003217D01*
X199835291Y-40003212D01*
X199835290Y-40003211D01*
X199704191Y-39915613D01*
X199704190Y-39915612D01*
X199704185Y-39915609D01*
X199704172Y-39915602D01*
X199704165Y-39915598D01*
X199558502Y-39855264D01*
X199558471Y-39855257D01*
X199403847Y-39824500D01*
X199403845Y-39824500D01*
X199403842Y-39824500D01*
X199246158Y-39824500D01*
X199246155Y-39824500D01*
X199246153Y-39824500D01*
X199091527Y-39855257D01*
X199091496Y-39855264D01*
X198945833Y-39915598D01*
X198945824Y-39915603D01*
X198945807Y-39915613D01*
X198814708Y-40003211D01*
X198814707Y-40003212D01*
X198814701Y-40003217D01*
X198703217Y-40114701D01*
X198703212Y-40114707D01*
X198703211Y-40114708D01*
X198615613Y-40245807D01*
X198615603Y-40245824D01*
X198615598Y-40245833D01*
X198555264Y-40391496D01*
X198555257Y-40391527D01*
X198524500Y-40546150D01*
X198524500Y-40546153D01*
X198524500Y-40703846D01*
X198524500Y-40703848D01*
X198524499Y-40703848D01*
X186315441Y-40703848D01*
X186258523Y-40680272D01*
X186258509Y-40680267D01*
X186258501Y-40680264D01*
X186258491Y-40680261D01*
X186258490Y-40680260D01*
X186258485Y-40680259D01*
X186183133Y-40665271D01*
X186183132Y-40665271D01*
X186165091Y-40661682D01*
X186165069Y-40661677D01*
X186165068Y-40661677D01*
X186103848Y-40649500D01*
X186103845Y-40649500D01*
X186103842Y-40649500D01*
X185946158Y-40649500D01*
X185946155Y-40649500D01*
X185946153Y-40649500D01*
X185791527Y-40680257D01*
X185791496Y-40680264D01*
X185645833Y-40740598D01*
X185645824Y-40740603D01*
X185645807Y-40740613D01*
X185514708Y-40828211D01*
X185514707Y-40828212D01*
X185514701Y-40828217D01*
X185403217Y-40939701D01*
X185403212Y-40939707D01*
X185403211Y-40939708D01*
X185315613Y-41070807D01*
X185315603Y-41070824D01*
X185315598Y-41070833D01*
X185255264Y-41216496D01*
X185255257Y-41216527D01*
X185224500Y-41371150D01*
X185224500Y-41371153D01*
X185224500Y-41528846D01*
X185224500Y-41528848D01*
X185224499Y-41528848D01*
X170935291Y-41528848D01*
X170931413Y-41504364D01*
X170888131Y-41371155D01*
X170870006Y-41315370D01*
X170870005Y-41315367D01*
X170819634Y-41216510D01*
X170779787Y-41138306D01*
X170662981Y-40977536D01*
X170522464Y-40837019D01*
X170442079Y-40778616D01*
X170361692Y-40720211D01*
X170221102Y-40648576D01*
X170192257Y-40628242D01*
X170182844Y-40619352D01*
X170147621Y-40559010D01*
X170150613Y-40489205D01*
X170186780Y-40435491D01*
X170193791Y-40429416D01*
X170218695Y-40412648D01*
X170221102Y-40411422D01*
X170361694Y-40339787D01*
X170522464Y-40222981D01*
X170662981Y-40082464D01*
X170779787Y-39921694D01*
X170870005Y-39744632D01*
X170931413Y-39555636D01*
X170954957Y-39406987D01*
X180199500Y-39406987D01*
X180199500Y-39643011D01*
X180199503Y-39643035D01*
X180230305Y-39877006D01*
X180291395Y-40104997D01*
X180381715Y-40323048D01*
X180381724Y-40323065D01*
X180437410Y-40419515D01*
X180443467Y-40430005D01*
X180499727Y-40527450D01*
X180499729Y-40527453D01*
X180499730Y-40527454D01*
X180505509Y-40534985D01*
X180643399Y-40714689D01*
X180643403Y-40714694D01*
X180643406Y-40714697D01*
X180643412Y-40714704D01*
X180643420Y-40714712D01*
X180810281Y-40881574D01*
X180810297Y-40881589D01*
X180810305Y-40881595D01*
X180997548Y-41025272D01*
X180997550Y-41025273D01*
X181128918Y-41101118D01*
X181198516Y-41141301D01*
X181200255Y-41142382D01*
X181201660Y-41143162D01*
X181201938Y-41143277D01*
X181201943Y-41143280D01*
X181201948Y-41143282D01*
X181201951Y-41143284D01*
X181420007Y-41233606D01*
X181647986Y-41294693D01*
X181881989Y-41325500D01*
X181881996Y-41325500D01*
X182118004Y-41325500D01*
X182118011Y-41325500D01*
X182352014Y-41294693D01*
X182579993Y-41233606D01*
X182798049Y-41143284D01*
X183002450Y-41025273D01*
X183189699Y-40881592D01*
X183356592Y-40714699D01*
X183500273Y-40527450D01*
X183618284Y-40323049D01*
X183708606Y-40104993D01*
X183769693Y-39877014D01*
X183800500Y-39643011D01*
X183800500Y-39406989D01*
X183769693Y-39172986D01*
X183708606Y-38945007D01*
X183618284Y-38726951D01*
X183618282Y-38726948D01*
X183618280Y-38726943D01*
X183618277Y-38726938D01*
X183618162Y-38726660D01*
X183617382Y-38725255D01*
X183616297Y-38723509D01*
X183576118Y-38653918D01*
X183500273Y-38522550D01*
X183500272Y-38522548D01*
X183356595Y-38335305D01*
X183356589Y-38335297D01*
X183356574Y-38335281D01*
X183189712Y-38168420D01*
X183189704Y-38168412D01*
X183189697Y-38168406D01*
X183189694Y-38168403D01*
X183189689Y-38168399D01*
X183009908Y-38030449D01*
X183009904Y-38030446D01*
X183002454Y-38024730D01*
X183002453Y-38024729D01*
X183002450Y-38024727D01*
X182920957Y-37977677D01*
X182920282Y-37977287D01*
X182920263Y-37977276D01*
X182798065Y-37906724D01*
X182798048Y-37906715D01*
X182579997Y-37816395D01*
X182352006Y-37755305D01*
X182119889Y-37724747D01*
X182118208Y-37724500D01*
X182118017Y-37724500D01*
X182118011Y-37724500D01*
X181881989Y-37724500D01*
X181881983Y-37724500D01*
X181881981Y-37724500D01*
X181875861Y-37725253D01*
X181874955Y-37725425D01*
X181647992Y-37755305D01*
X181420001Y-37816395D01*
X181201950Y-37906715D01*
X181201942Y-37906719D01*
X180997545Y-38024730D01*
X180997536Y-38024736D01*
X180810309Y-38168399D01*
X180810294Y-38168413D01*
X180810286Y-38168420D01*
X180643420Y-38335286D01*
X180643413Y-38335294D01*
X180643399Y-38335309D01*
X180499736Y-38522536D01*
X180499730Y-38522545D01*
X180381719Y-38726942D01*
X180381715Y-38726950D01*
X180291395Y-38945001D01*
X180230305Y-39172992D01*
X180199503Y-39406963D01*
X180199500Y-39406987D01*
X170954957Y-39406987D01*
X170962500Y-39359361D01*
X170962500Y-39160639D01*
X170931413Y-38964364D01*
X170871513Y-38780009D01*
X170870449Y-38776237D01*
X170779787Y-38598307D01*
X170779785Y-38598304D01*
X170724747Y-38522550D01*
X170709305Y-38501296D01*
X170662984Y-38437539D01*
X170522466Y-38297021D01*
X170522464Y-38297019D01*
X170442079Y-38238616D01*
X170361692Y-38180211D01*
X170221102Y-38108576D01*
X170192257Y-38088242D01*
X170182844Y-38079352D01*
X170147621Y-38019010D01*
X170150613Y-37949205D01*
X170186780Y-37895491D01*
X170193791Y-37889416D01*
X170218695Y-37872648D01*
X170361692Y-37799788D01*
X170361691Y-37799788D01*
X170361694Y-37799787D01*
X170522464Y-37682981D01*
X170662981Y-37542464D01*
X170779787Y-37381694D01*
X170870005Y-37204632D01*
X170931413Y-37015636D01*
X170962500Y-36819361D01*
X170962500Y-36620639D01*
X170931413Y-36424364D01*
X170874922Y-36250500D01*
X170873979Y-36247598D01*
X179886999Y-36247598D01*
X179917757Y-36402221D01*
X179917764Y-36402252D01*
X179978098Y-36547915D01*
X179978103Y-36547924D01*
X179978113Y-36547941D01*
X180065711Y-36679040D01*
X180065712Y-36679041D01*
X180065717Y-36679047D01*
X180177201Y-36790531D01*
X180177207Y-36790536D01*
X180177211Y-36790539D01*
X180308314Y-36878140D01*
X180308327Y-36878147D01*
X180453998Y-36938485D01*
X180454003Y-36938487D01*
X180608653Y-36969249D01*
X180608656Y-36969250D01*
X180608658Y-36969250D01*
X180766344Y-36969250D01*
X180766345Y-36969249D01*
X180920997Y-36938487D01*
X181066679Y-36878144D01*
X181197789Y-36790539D01*
X181309289Y-36679039D01*
X181396894Y-36547929D01*
X181457237Y-36402247D01*
X181488000Y-36247592D01*
X181488000Y-36089908D01*
X181488000Y-36089905D01*
X181488000Y-36089721D01*
X181487564Y-36087716D01*
X181467190Y-35985289D01*
X181462291Y-35960660D01*
X181457237Y-35935253D01*
X181423658Y-35854185D01*
X181396897Y-35789577D01*
X181396890Y-35789564D01*
X181309289Y-35658461D01*
X181309286Y-35658457D01*
X181309281Y-35658451D01*
X181197797Y-35546967D01*
X181197791Y-35546962D01*
X181197790Y-35546961D01*
X181066691Y-35459363D01*
X181066690Y-35459362D01*
X181066685Y-35459359D01*
X181066672Y-35459352D01*
X181066665Y-35459348D01*
X180921002Y-35399014D01*
X180920971Y-35399007D01*
X180766347Y-35368250D01*
X180766345Y-35368250D01*
X180766342Y-35368250D01*
X180608658Y-35368250D01*
X180608655Y-35368250D01*
X180608653Y-35368250D01*
X180454027Y-35399007D01*
X180453996Y-35399014D01*
X180308333Y-35459348D01*
X180308324Y-35459353D01*
X180308307Y-35459363D01*
X180177208Y-35546961D01*
X180177207Y-35546962D01*
X180177201Y-35546967D01*
X180065717Y-35658451D01*
X180065712Y-35658457D01*
X180065711Y-35658458D01*
X179978113Y-35789557D01*
X179978103Y-35789574D01*
X179978098Y-35789583D01*
X179917764Y-35935246D01*
X179917757Y-35935277D01*
X179887000Y-36089900D01*
X179887000Y-36089903D01*
X179887000Y-36247596D01*
X179887000Y-36247598D01*
X179886999Y-36247598D01*
X170873979Y-36247598D01*
X170870006Y-36235370D01*
X170870005Y-36235367D01*
X170821469Y-36140111D01*
X170806182Y-36110109D01*
X170779787Y-36058306D01*
X170662981Y-35897536D01*
X170522464Y-35757019D01*
X170421258Y-35683489D01*
X170361689Y-35640209D01*
X170321508Y-35619736D01*
X170321504Y-35619735D01*
X170184632Y-35549994D01*
X170184629Y-35549993D01*
X170184626Y-35549992D01*
X170184624Y-35549991D01*
X170184605Y-35549984D01*
X169995639Y-35488587D01*
X169995640Y-35488587D01*
X169889559Y-35471786D01*
X169811123Y-35459363D01*
X169799361Y-35457500D01*
X169799360Y-35457500D01*
X169600636Y-35457500D01*
X169551570Y-35465271D01*
X169535214Y-35467862D01*
X169404358Y-35488587D01*
X169215393Y-35549984D01*
X169215374Y-35549991D01*
X169215373Y-35549991D01*
X169038304Y-35640213D01*
X168978724Y-35683501D01*
X168877533Y-35757021D01*
X168877531Y-35757023D01*
X168877530Y-35757023D01*
X168737023Y-35897530D01*
X168737023Y-35897531D01*
X168737021Y-35897533D01*
X168691837Y-35959723D01*
X168620213Y-36058304D01*
X168593812Y-36110119D01*
X168529994Y-36235367D01*
X168529994Y-36235368D01*
X168529990Y-36235375D01*
X168468587Y-36424358D01*
X168437500Y-36620633D01*
X155722499Y-36620633D01*
X155691413Y-36424364D01*
X155634922Y-36250500D01*
X155634921Y-36250496D01*
X155630009Y-36235378D01*
X155630005Y-36235368D01*
X155630005Y-36235367D01*
X155566182Y-36110109D01*
X155539787Y-36058306D01*
X155422981Y-35897536D01*
X155282464Y-35757019D01*
X155181275Y-35683501D01*
X155121692Y-35640211D01*
X154981102Y-35568576D01*
X154952257Y-35548242D01*
X154942844Y-35539352D01*
X154907621Y-35479010D01*
X154910613Y-35409205D01*
X154946780Y-35355491D01*
X154953791Y-35349416D01*
X154978695Y-35332648D01*
X155018064Y-35312589D01*
X155121694Y-35259787D01*
X155282464Y-35142981D01*
X155422981Y-35002464D01*
X155539787Y-34841694D01*
X155539790Y-34841689D01*
X155575732Y-34771150D01*
X188124500Y-34771150D01*
X188124500Y-34928846D01*
X188155257Y-35083471D01*
X188155264Y-35083502D01*
X188215598Y-35229165D01*
X188215602Y-35229172D01*
X188215609Y-35229185D01*
X188250799Y-35281850D01*
X188303211Y-35360290D01*
X188303212Y-35360291D01*
X188303217Y-35360297D01*
X188414701Y-35471781D01*
X188414707Y-35471786D01*
X188414711Y-35471789D01*
X188545814Y-35559390D01*
X188545827Y-35559397D01*
X188640024Y-35598414D01*
X188691503Y-35619737D01*
X188842037Y-35649680D01*
X188843587Y-35650083D01*
X188846155Y-35650500D01*
X189003844Y-35650500D01*
X189007964Y-35650500D01*
X189015814Y-35648118D01*
X189158497Y-35619737D01*
X189301545Y-35560485D01*
X189304172Y-35559397D01*
X189304172Y-35559396D01*
X189304179Y-35559394D01*
X189312479Y-35553848D01*
X195399499Y-35553848D01*
X195430257Y-35708471D01*
X195430264Y-35708502D01*
X195490598Y-35854165D01*
X195490603Y-35854174D01*
X195490613Y-35854191D01*
X195578212Y-35985291D01*
X195578217Y-35985297D01*
X195689701Y-36096781D01*
X195689707Y-36096786D01*
X195689711Y-36096789D01*
X195820814Y-36184390D01*
X195820827Y-36184397D01*
X195943884Y-36235368D01*
X195966503Y-36244737D01*
X195966505Y-36244737D01*
X195966510Y-36244739D01*
X196050279Y-36261401D01*
X196121153Y-36275499D01*
X196121156Y-36275500D01*
X196121158Y-36275500D01*
X196278844Y-36275500D01*
X196278845Y-36275499D01*
X196433497Y-36244737D01*
X196579179Y-36184394D01*
X196710289Y-36096789D01*
X196821789Y-35985289D01*
X196909394Y-35854179D01*
X196921294Y-35825446D01*
X196921297Y-35825442D01*
X196921297Y-35825439D01*
X196921301Y-35825430D01*
X196939305Y-35795091D01*
X196946407Y-35786278D01*
X197003804Y-35746437D01*
X197073629Y-35743950D01*
X197133694Y-35779588D01*
X197138928Y-35785209D01*
X197162739Y-35822257D01*
X197165607Y-35829183D01*
X197253211Y-35960290D01*
X197253212Y-35960291D01*
X197253217Y-35960297D01*
X197364701Y-36071781D01*
X197364707Y-36071786D01*
X197364711Y-36071789D01*
X197495814Y-36159390D01*
X197495827Y-36159397D01*
X197641498Y-36219735D01*
X197641503Y-36219737D01*
X197767176Y-36244735D01*
X197788533Y-36248983D01*
X197791250Y-36249704D01*
X197796155Y-36250500D01*
X197953844Y-36250500D01*
X197957964Y-36250500D01*
X197965814Y-36248118D01*
X198108497Y-36219737D01*
X198254179Y-36159394D01*
X198385289Y-36071789D01*
X198496789Y-35960289D01*
X198584394Y-35829179D01*
X198644737Y-35683497D01*
X198675500Y-35528842D01*
X198675500Y-35371158D01*
X198675500Y-35371155D01*
X198675500Y-35370973D01*
X198675065Y-35368971D01*
X198655971Y-35272980D01*
X198655970Y-35272979D01*
X198644737Y-35216503D01*
X198625651Y-35170425D01*
X198584397Y-35070827D01*
X198584390Y-35070814D01*
X198496789Y-34939711D01*
X198496786Y-34939707D01*
X198496781Y-34939701D01*
X198385297Y-34828217D01*
X198385291Y-34828212D01*
X198385288Y-34828210D01*
X198254191Y-34740613D01*
X198254190Y-34740612D01*
X198254185Y-34740609D01*
X198254172Y-34740602D01*
X198254165Y-34740598D01*
X198108502Y-34680264D01*
X198108471Y-34680257D01*
X197953847Y-34649500D01*
X197953845Y-34649500D01*
X197953842Y-34649500D01*
X197796158Y-34649500D01*
X197796155Y-34649500D01*
X197796153Y-34649500D01*
X197641527Y-34680257D01*
X197641496Y-34680264D01*
X197495833Y-34740598D01*
X197495824Y-34740603D01*
X197495807Y-34740613D01*
X197364711Y-34828210D01*
X197364707Y-34828212D01*
X197364701Y-34828217D01*
X197253217Y-34939701D01*
X197253212Y-34939707D01*
X197253211Y-34939708D01*
X197165607Y-35070816D01*
X197165600Y-35070832D01*
X197153705Y-35099549D01*
X197135697Y-35129900D01*
X197128600Y-35138707D01*
X197071208Y-35178556D01*
X197001383Y-35181050D01*
X196941295Y-35145400D01*
X196936067Y-35139785D01*
X196912258Y-35102736D01*
X196909394Y-35095821D01*
X196909392Y-35095818D01*
X196909390Y-35095814D01*
X196821789Y-34964711D01*
X196821786Y-34964707D01*
X196821781Y-34964701D01*
X196710297Y-34853217D01*
X196710291Y-34853212D01*
X196710290Y-34853211D01*
X196579191Y-34765613D01*
X196579190Y-34765612D01*
X196579185Y-34765609D01*
X196579172Y-34765602D01*
X196579165Y-34765598D01*
X196433502Y-34705264D01*
X196433471Y-34705257D01*
X196278847Y-34674500D01*
X196278845Y-34674500D01*
X196278842Y-34674500D01*
X196121158Y-34674500D01*
X196121155Y-34674500D01*
X196121153Y-34674500D01*
X195966527Y-34705257D01*
X195966496Y-34705264D01*
X195820833Y-34765598D01*
X195820824Y-34765603D01*
X195820807Y-34765613D01*
X195689708Y-34853211D01*
X195689707Y-34853212D01*
X195689701Y-34853217D01*
X195578217Y-34964701D01*
X195578212Y-34964707D01*
X195578211Y-34964708D01*
X195490613Y-35095807D01*
X195490603Y-35095824D01*
X195490598Y-35095833D01*
X195430264Y-35241496D01*
X195430257Y-35241527D01*
X195399500Y-35396150D01*
X195399500Y-35396153D01*
X195399500Y-35553846D01*
X195399500Y-35553848D01*
X195399499Y-35553848D01*
X189312479Y-35553848D01*
X189435289Y-35471789D01*
X189546789Y-35360289D01*
X189566078Y-35331421D01*
X189572928Y-35321170D01*
X189634392Y-35229183D01*
X189634397Y-35229172D01*
X189652160Y-35186287D01*
X189694737Y-35083497D01*
X189725500Y-34928842D01*
X189725500Y-34771158D01*
X189725500Y-34771155D01*
X189725500Y-34770971D01*
X189725064Y-34768966D01*
X189712393Y-34705264D01*
X189707419Y-34680257D01*
X189694737Y-34616503D01*
X189671991Y-34561588D01*
X189634397Y-34470827D01*
X189634390Y-34470814D01*
X189546789Y-34339711D01*
X189546786Y-34339707D01*
X189546781Y-34339701D01*
X189435297Y-34228217D01*
X189435291Y-34228212D01*
X189435290Y-34228211D01*
X189304191Y-34140613D01*
X189304190Y-34140612D01*
X189304185Y-34140609D01*
X189304172Y-34140602D01*
X189304165Y-34140598D01*
X189158502Y-34080264D01*
X189158471Y-34080257D01*
X189003847Y-34049500D01*
X189003845Y-34049500D01*
X189003842Y-34049500D01*
X188846158Y-34049500D01*
X188846155Y-34049500D01*
X188846153Y-34049500D01*
X188691527Y-34080257D01*
X188691496Y-34080264D01*
X188545833Y-34140598D01*
X188545824Y-34140603D01*
X188545807Y-34140613D01*
X188414708Y-34228211D01*
X188414707Y-34228212D01*
X188414701Y-34228217D01*
X188303217Y-34339701D01*
X188303212Y-34339707D01*
X188303211Y-34339708D01*
X188215613Y-34470807D01*
X188215603Y-34470824D01*
X188215598Y-34470833D01*
X188155264Y-34616496D01*
X188155257Y-34616527D01*
X188124500Y-34771150D01*
X155575732Y-34771150D01*
X155607519Y-34708766D01*
X155630002Y-34664637D01*
X155630005Y-34664632D01*
X155691413Y-34475636D01*
X155722500Y-34279361D01*
X155722500Y-34080639D01*
X155691413Y-33884364D01*
X155631513Y-33700009D01*
X155630449Y-33696237D01*
X155539785Y-33518303D01*
X155422986Y-33357542D01*
X155422982Y-33357537D01*
X155282466Y-33217021D01*
X155282464Y-33217019D01*
X155159534Y-33127705D01*
X155121692Y-33100211D01*
X154981102Y-33028576D01*
X154952257Y-33008242D01*
X154942844Y-32999352D01*
X154907621Y-32939010D01*
X154910613Y-32869205D01*
X154946780Y-32815491D01*
X154953791Y-32809416D01*
X154978695Y-32792648D01*
X154992483Y-32785623D01*
X155121694Y-32719787D01*
X155282464Y-32602981D01*
X155422981Y-32462464D01*
X155539787Y-32301694D01*
X155630005Y-32124632D01*
X155691413Y-31935636D01*
X155722500Y-31739361D01*
X155722500Y-31540639D01*
X155691413Y-31344364D01*
X155659043Y-31244737D01*
X155630006Y-31155370D01*
X155630005Y-31155367D01*
X155571532Y-31040609D01*
X155539787Y-30978306D01*
X155422981Y-30817536D01*
X155282464Y-30677019D01*
X155190618Y-30610289D01*
X155121692Y-30560211D01*
X154981102Y-30488576D01*
X154952257Y-30468242D01*
X154942844Y-30459352D01*
X154907621Y-30399010D01*
X154910613Y-30329205D01*
X154946780Y-30275491D01*
X154953791Y-30269416D01*
X154978695Y-30252648D01*
X154992179Y-30245778D01*
X155121694Y-30179787D01*
X155282464Y-30062981D01*
X155422981Y-29922464D01*
X155539787Y-29761694D01*
X155630005Y-29584632D01*
X155691413Y-29395636D01*
X155722500Y-29199361D01*
X155722500Y-29000639D01*
X155691413Y-28804364D01*
X155651091Y-28680264D01*
X155650425Y-28678213D01*
X155630014Y-28615393D01*
X155630007Y-28615374D01*
X155630007Y-28615373D01*
X155630006Y-28615372D01*
X155630006Y-28615370D01*
X155630005Y-28615367D01*
X155539786Y-28438305D01*
X155524862Y-28417764D01*
X155422986Y-28277542D01*
X155422982Y-28277537D01*
X155282466Y-28137021D01*
X155282464Y-28137019D01*
X155121694Y-28020213D01*
X154944632Y-27929994D01*
X154944629Y-27929993D01*
X154944628Y-27929992D01*
X154944625Y-27929991D01*
X154944605Y-27929984D01*
X154755639Y-27868587D01*
X154755640Y-27868587D01*
X154605053Y-27844737D01*
X154559361Y-27837500D01*
X154559360Y-27837500D01*
X154360640Y-27837500D01*
X154360639Y-27837500D01*
X154314947Y-27844737D01*
X154164361Y-27868587D01*
X154164354Y-27868588D01*
X153975393Y-27929984D01*
X153975374Y-27929991D01*
X153975373Y-27929991D01*
X153798304Y-28020213D01*
X153706578Y-28086856D01*
X153637533Y-28137021D01*
X153637531Y-28137023D01*
X153637530Y-28137023D01*
X153497023Y-28277530D01*
X153497023Y-28277531D01*
X153497021Y-28277533D01*
X153446856Y-28346578D01*
X153380213Y-28438304D01*
X153289991Y-28615373D01*
X153289991Y-28615374D01*
X153289984Y-28615393D01*
X153228587Y-28804358D01*
X153197500Y-29000633D01*
X152175500Y-29000633D01*
X152175500Y-26410444D01*
X152175695Y-26403500D01*
X152176085Y-26396547D01*
X152176667Y-26389640D01*
X152181604Y-26345821D01*
X152185681Y-26309631D01*
X152188006Y-26295948D01*
X152188128Y-26295413D01*
X152191089Y-26282441D01*
X152194929Y-26269112D01*
X152218060Y-26203007D01*
X152223366Y-26190198D01*
X152229376Y-26177716D01*
X152236086Y-26165574D01*
X152273353Y-26106265D01*
X152281374Y-26094961D01*
X152290024Y-26084114D01*
X152299266Y-26073774D01*
X152348774Y-26024266D01*
X152359114Y-26015024D01*
X152369961Y-26006374D01*
X152381265Y-25998353D01*
X152440574Y-25961086D01*
X152452716Y-25954376D01*
X152465198Y-25948366D01*
X152478014Y-25943058D01*
X152544098Y-25919933D01*
X152557444Y-25916088D01*
X152570955Y-25913004D01*
X152584641Y-25910680D01*
X152638834Y-25904574D01*
X152653755Y-25902893D01*
X152653755Y-25902894D01*
X152653759Y-25902892D01*
X152664662Y-25901664D01*
X152671549Y-25901085D01*
X152678503Y-25900695D01*
X152685446Y-25900500D01*
X166317884Y-25900500D01*
X166318520Y-25900502D01*
G37*
%TD.AperFunction*%
%TD*%
M02*
