%TF.GenerationSoftware,KiCad,Pcbnew,10.0.3*%
%TF.CreationDate,2026-08-29T01:38:31-04:00*%
%TF.ProjectId,MeshNetBoard,4d657368-4e65-4744-926f-6172642e6b69,rev?*%
%TF.SameCoordinates,Original*%
%TF.FileFunction,Copper,L4,Bot*%
%TF.FilePolarity,Positive*%
%FSLAX46Y46*%
G04 Gerber Fmt 4.6, Leading zero omitted, Abs format (unit mm)*
G04 Created by KiCad (PCBNEW 10.0.3) date 2026-08-29 01:38:31*
%MOMM*%
%LPD*%
G01*
G04 APERTURE LIST*
G04 Aperture macros list*
%AMRoundRect*
0 Rectangle with rounded corners*
0 $1 Rounding radius*
0 $2 $3 $4 $5 $6 $7 $8 $9 X,Y pos of 4 corners*
0 Add a 4 corners polygon primitive as box body*
4,1,4,$2,$3,$4,$5,$6,$7,$8,$9,$2,$3,0*
0 Add four circle primitives for the rounded corners*
1,1,$1+$1,$2,$3*
1,1,$1+$1,$4,$5*
1,1,$1+$1,$6,$7*
1,1,$1+$1,$8,$9*
0 Add four rect primitives between the rounded corners*
20,1,$1+$1,$2,$3,$4,$5,0*
20,1,$1+$1,$4,$5,$6,$7,0*
20,1,$1+$1,$6,$7,$8,$9,0*
20,1,$1+$1,$8,$9,$2,$3,0*%
G04 Aperture macros list end*
%TA.AperFunction,ComponentPad*%
%ADD10C,2.600000*%
%TD*%
%TA.AperFunction,ConnectorPad*%
%ADD11C,4.400000*%
%TD*%
%TA.AperFunction,ComponentPad*%
%ADD12C,1.524000*%
%TD*%
%TA.AperFunction,ComponentPad*%
%ADD13R,1.700000X1.700000*%
%TD*%
%TA.AperFunction,ComponentPad*%
%ADD14C,1.700000*%
%TD*%
%TA.AperFunction,ComponentPad*%
%ADD15RoundRect,0.250000X-0.350000X-0.625000X0.350000X-0.625000X0.350000X0.625000X-0.350000X0.625000X0*%
%TD*%
%TA.AperFunction,ComponentPad*%
%ADD16O,1.200000X1.750000*%
%TD*%
%TA.AperFunction,ComponentPad*%
%ADD17O,2.200000X3.500000*%
%TD*%
%TA.AperFunction,ComponentPad*%
%ADD18R,1.500000X2.500000*%
%TD*%
%TA.AperFunction,ComponentPad*%
%ADD19O,1.500000X2.500000*%
%TD*%
%TA.AperFunction,SMDPad,CuDef*%
%ADD20RoundRect,0.237500X-0.250000X-0.237500X0.250000X-0.237500X0.250000X0.237500X-0.250000X0.237500X0*%
%TD*%
%TA.AperFunction,SMDPad,CuDef*%
%ADD21RoundRect,0.250001X-0.462499X-0.624999X0.462499X-0.624999X0.462499X0.624999X-0.462499X0.624999X0*%
%TD*%
%TA.AperFunction,ComponentPad*%
%ADD22C,2.000000*%
%TD*%
%TA.AperFunction,ViaPad*%
%ADD23C,0.600000*%
%TD*%
%TA.AperFunction,Conductor*%
%ADD24C,0.275000*%
%TD*%
%TA.AperFunction,Conductor*%
%ADD25C,0.400000*%
%TD*%
%TA.AperFunction,Conductor*%
%ADD26C,0.270000*%
%TD*%
G04 APERTURE END LIST*
D10*
%TO.P,H1,1,1_1*%
%TO.N,GND*%
X154475000Y-51000000D03*
D11*
X154475000Y-51000000D03*
%TD*%
D12*
%TO.P,U1,1,GPIO1_A0_D0_1*%
%TO.N,LED1*%
X154460000Y-29100000D03*
%TO.P,U1,2,GPIO2_A1_D1_2*%
%TO.N,LED2*%
X154460000Y-31640000D03*
%TO.P,U1,3,GPIO3_A2_D2_3*%
%TO.N,LED3*%
X154460000Y-34180000D03*
%TO.P,U1,4,GPIO4_A3_D3_4*%
%TO.N,LED4*%
X154460000Y-36720000D03*
%TO.P,U1,5,GPIO5_A4_D4_SDA_5*%
%TO.N,SD_DATA*%
X154460000Y-39260000D03*
%TO.P,U1,6,GPIO6_A5_D5_SCL_6*%
%TO.N,unconnected-(U1-GPIO6_A5_D5_SCL-Pad6)*%
X154460000Y-41800000D03*
%TO.P,U1,7,GPIO43_D6_TX_7*%
%TO.N,unconnected-(U1-GPIO43_D6_TX-Pad7)_1*%
X154460000Y-44340000D03*
%TO.P,U1,8,GPIO44_D7_RX_8*%
%TO.N,GPIO44*%
X169700000Y-44340000D03*
%TO.P,U1,9,GPIO7_A8_D8_SCK_9*%
%TO.N,SCK*%
X169700000Y-41800000D03*
%TO.P,U1,10,GPIO8_A9_D9_MISO_10*%
%TO.N,MISO*%
X169700000Y-39260000D03*
%TO.P,U1,11,GPIO9_A10_D10_MOSI_11*%
%TO.N,MOSI*%
X169700000Y-36720000D03*
%TO.P,U1,12,3V3_12*%
%TO.N,3v3*%
X169700000Y-34180000D03*
%TO.P,U1,13,GND_13*%
%TO.N,GND*%
X169700000Y-31640000D03*
%TO.P,U1,14,VBUS_14*%
%TO.N,5v*%
X169700000Y-29100000D03*
%TD*%
D13*
%TO.P,JP1,1,A_1*%
%TO.N,3v3*%
X200850000Y-37620000D03*
D14*
%TO.P,JP1,2,B_2*%
%TO.N,Net-(D1-K)*%
X200850000Y-35080000D03*
%TD*%
D10*
%TO.P,H3,1,1_1*%
%TO.N,GND*%
X182000000Y-39525000D03*
D11*
X182000000Y-39525000D03*
%TD*%
D15*
%TO.P,J2,1,Pin_1_1*%
%TO.N,Net-(J2-Pin_1)*%
X173800000Y-48500000D03*
D16*
%TO.P,J2,2,Pin_2_2*%
%TO.N,GND*%
X175800000Y-48500000D03*
%TD*%
D10*
%TO.P,H2,1,1_1*%
%TO.N,GND*%
X168675000Y-50725000D03*
D11*
X168675000Y-50725000D03*
%TD*%
D17*
%TO.P,SW2,*%
%TO.N,*%
X192100000Y-28350000D03*
X183900000Y-28350000D03*
D18*
%TO.P,SW2,1,A_1*%
%TO.N,+BATT*%
X190000000Y-28350000D03*
D19*
%TO.P,SW2,2,B_2*%
%TO.N,Net-(J2-Pin_1)*%
X188000000Y-28350000D03*
%TO.P,SW2,3*%
%TO.N,N/C*%
X186000000Y-28350000D03*
%TD*%
D20*
%TO.P,R6,1*%
%TO.N,LED2*%
X157775000Y-31650000D03*
%TO.P,R6,2*%
%TO.N,Net-(D3-K)*%
X159600000Y-31650000D03*
%TD*%
D21*
%TO.P,D4,1,K_1*%
%TO.N,Net-(D4-K)*%
X162275000Y-35750000D03*
%TO.P,D4,2,A_2*%
%TO.N,Net-(D2-A)*%
X165250000Y-35750000D03*
%TD*%
D20*
%TO.P,R11,1*%
%TO.N,LED4*%
X157775000Y-39875000D03*
%TO.P,R11,2*%
%TO.N,Net-(D5-K)*%
X159600000Y-39875000D03*
%TD*%
D22*
%TO.P,SW1,1,1_1*%
%TO.N,Net-(D2-A)*%
X164800000Y-48700000D03*
X158300000Y-48700000D03*
%TO.P,SW1,2,2_2*%
%TO.N,3v3*%
X164800000Y-53200000D03*
X158300000Y-53200000D03*
%TD*%
D21*
%TO.P,D3,1,K_1*%
%TO.N,Net-(D3-K)*%
X162300000Y-31650000D03*
%TO.P,D3,2,A_2*%
%TO.N,Net-(D2-A)*%
X165275000Y-31650000D03*
%TD*%
%TO.P,D5,1,K_1*%
%TO.N,Net-(D5-K)*%
X162262500Y-39825000D03*
%TO.P,D5,2,A_2*%
%TO.N,Net-(D2-A)*%
X165237500Y-39825000D03*
%TD*%
%TO.P,D2,1,K_1*%
%TO.N,Net-(D2-K)*%
X162287500Y-28125000D03*
%TO.P,D2,2,A_2*%
%TO.N,Net-(D2-A)*%
X165262500Y-28125000D03*
%TD*%
D20*
%TO.P,R7,1*%
%TO.N,LED1*%
X157762500Y-28125000D03*
%TO.P,R7,2*%
%TO.N,Net-(D2-K)*%
X159587500Y-28125000D03*
%TD*%
%TO.P,R10,1*%
%TO.N,LED3*%
X157780000Y-35750000D03*
%TO.P,R10,2*%
%TO.N,Net-(D4-K)*%
X159605000Y-35750000D03*
%TD*%
D23*
%TO.N,3v3*%
X184200000Y-48275000D03*
X178912500Y-51000000D03*
X184150000Y-47350000D03*
X180662500Y-34143750D03*
X180975000Y-50875000D03*
X179400000Y-42475000D03*
%TO.N,SD_DATA*%
X182725000Y-43225000D03*
X178836719Y-44588281D03*
X177575000Y-45850000D03*
X173650000Y-45850000D03*
%TO.N,GND*%
X199325000Y-40625000D03*
X193650000Y-31700000D03*
X180687500Y-36168750D03*
X190275000Y-53075000D03*
X197450000Y-54150000D03*
X171625000Y-27100000D03*
X181875000Y-31750000D03*
X177675000Y-26725000D03*
X179875000Y-47875000D03*
X187375000Y-50025000D03*
X197125000Y-28250000D03*
X196200000Y-35475000D03*
X178075000Y-30475000D03*
X198750000Y-54150000D03*
X186025000Y-41450000D03*
X173575000Y-29725000D03*
X188925000Y-34850000D03*
X197100000Y-31750000D03*
X197875000Y-35450000D03*
X179900000Y-45825000D03*
%TO.N,5v*%
X175925000Y-27075000D03*
X179275000Y-26625000D03*
%TO.N,+BATT*%
X195575000Y-33250000D03*
X197775000Y-33075000D03*
%TO.N,MISO*%
X184300000Y-51150000D03*
%TO.N,Net-(D1-K)*%
X195825000Y-30100000D03*
X199525000Y-29300000D03*
%TO.N,Net-(D1-A)*%
X200775000Y-29450000D03*
X197751974Y-30184999D03*
%TO.N,Net-(J2-Pin_1)*%
X176200000Y-52875000D03*
%TD*%
%TO.N,SD_DATA*%
D24*
X178836719Y-44588281D02*
X180200000Y-43225000D01*
X173650000Y-45850000D02*
X177575000Y-45850000D01*
X180200000Y-43225000D02*
X182725000Y-43225000D01*
%TO.N,+BATT*%
D25*
X195750000Y-33075000D02*
X197775000Y-33075000D01*
D24*
X195575000Y-33250000D02*
X195750000Y-33075000D01*
%TO.N,LED1*%
D26*
X156787500Y-29100000D02*
X157762500Y-28125000D01*
X154460000Y-29100000D02*
X156787500Y-29100000D01*
%TO.N,LED2*%
D24*
X154460000Y-31640000D02*
X157765000Y-31640000D01*
X157765000Y-31640000D02*
X157775000Y-31650000D01*
%TO.N,LED3*%
D26*
X156210000Y-34180000D02*
X157780000Y-35750000D01*
X154460000Y-34180000D02*
X156210000Y-34180000D01*
%TO.N,LED4*%
X157615000Y-39875000D02*
X157775000Y-39875000D01*
X154460000Y-36720000D02*
X157615000Y-39875000D01*
%TO.N,MISO*%
D24*
X172410000Y-39260000D02*
X169700000Y-39260000D01*
X184300000Y-51150000D02*
X172410000Y-39260000D01*
%TO.N,Net-(D1-K)*%
D26*
X199525000Y-29300000D02*
X196625000Y-29300000D01*
X196625000Y-29300000D02*
X195825000Y-30100000D01*
%TO.N,Net-(D1-A)*%
X200040001Y-30184999D02*
X200775000Y-29450000D01*
X197751974Y-30184999D02*
X200040001Y-30184999D01*
%TO.N,Net-(J2-Pin_1)*%
D25*
X188000000Y-48410050D02*
X188000000Y-28350000D01*
X176200000Y-52875000D02*
X177932694Y-54607694D01*
X177932694Y-54607694D02*
X183392306Y-54607694D01*
X186675000Y-49735050D02*
X188000000Y-48410050D01*
X186675000Y-51325000D02*
X186675000Y-49735050D01*
X183392306Y-54607694D02*
X186675000Y-51325000D01*
%TO.N,Net-(D3-K)*%
D24*
X159600000Y-31650000D02*
X162300000Y-31650000D01*
%TO.N,Net-(D4-K)*%
X162262500Y-36525000D02*
X162312500Y-36475000D01*
D26*
X159605000Y-35750000D02*
X162275000Y-35750000D01*
%TO.N,Net-(D2-A)*%
D24*
X165325000Y-36437500D02*
X165287500Y-36475000D01*
D26*
X165262500Y-28125000D02*
X165262500Y-48237500D01*
D24*
X165337500Y-48162500D02*
X164800000Y-48700000D01*
X158300000Y-48700000D02*
X164800000Y-48700000D01*
X165287500Y-48212500D02*
X164800000Y-48700000D01*
D26*
X165262500Y-48237500D02*
X164800000Y-48700000D01*
%TO.N,Net-(D5-K)*%
X159600000Y-39875000D02*
X162212500Y-39875000D01*
X162212500Y-39875000D02*
X162262500Y-39825000D01*
%TO.N,Net-(D2-K)*%
X159587500Y-28125000D02*
X162287500Y-28125000D01*
%TD*%
M02*
