%TF.GenerationSoftware,KiCad,Pcbnew,9.0.4*%
%TF.CreationDate,2026-09-03T07:47:59-04:00*%
%TF.ProjectId,engine_dyno_v1,656e6769-6e65-45f6-9479-6e6f5f76312e,rev?*%
%TF.SameCoordinates,Original*%
%TF.FileFunction,Soldermask,Top*%
%TF.FilePolarity,Negative*%
%FSLAX46Y46*%
G04 Gerber Fmt 4.6, Leading zero omitted, Abs format (unit mm)*
G04 Created by KiCad (PCBNEW 9.0.4) date 2026-09-03 07:47:59*
%MOMM*%
%LPD*%
G01*
G04 APERTURE LIST*
G04 Aperture macros list*
%AMRoundRect*
0 Rectangle with rounded corners*
0 $1 Rounding radius*
0 $2 $3 $4 $5 $6 $7 $8 $9 X,Y pos of 4 corners*
0 Add a 4 corners polygon primitive as box body*
4,1,4,$2,$3,$4,$5,$6,$7,$8,$9,$2,$3,0*
0 Add four circle primitives for the rounded corners*
1,1,$1+$1,$2,$3*
1,1,$1+$1,$4,$5*
1,1,$1+$1,$6,$7*
1,1,$1+$1,$8,$9*
0 Add four rect primitives between the rounded corners*
20,1,$1+$1,$2,$3,$4,$5,0*
20,1,$1+$1,$4,$5,$6,$7,0*
20,1,$1+$1,$6,$7,$8,$9,0*
20,1,$1+$1,$8,$9,$2,$3,0*%
G04 Aperture macros list end*
%ADD10RoundRect,0.135000X-0.185000X0.135000X-0.185000X-0.135000X0.185000X-0.135000X0.185000X0.135000X0*%
%ADD11RoundRect,0.100100X0.549900X1.599900X-0.549900X1.599900X-0.549900X-1.599900X0.549900X-1.599900X0*%
%ADD12RoundRect,0.140000X0.170000X-0.140000X0.170000X0.140000X-0.170000X0.140000X-0.170000X-0.140000X0*%
%ADD13R,1.180000X2.810000*%
%ADD14RoundRect,0.140000X-0.170000X0.140000X-0.170000X-0.140000X0.170000X-0.140000X0.170000X0.140000X0*%
%ADD15RoundRect,0.140000X0.140000X0.170000X-0.140000X0.170000X-0.140000X-0.170000X0.140000X-0.170000X0*%
%ADD16RoundRect,0.102000X0.300000X-1.000000X0.300000X1.000000X-0.300000X1.000000X-0.300000X-1.000000X0*%
%ADD17RoundRect,0.250001X-0.799999X-0.799999X0.799999X-0.799999X0.799999X0.799999X-0.799999X0.799999X0*%
%ADD18C,2.100000*%
%ADD19RoundRect,0.250001X0.799999X0.799999X-0.799999X0.799999X-0.799999X-0.799999X0.799999X-0.799999X0*%
%ADD20C,5.600000*%
%ADD21RoundRect,0.135000X0.185000X-0.135000X0.185000X0.135000X-0.185000X0.135000X-0.185000X-0.135000X0*%
%ADD22RoundRect,0.250001X0.799999X-0.799999X0.799999X0.799999X-0.799999X0.799999X-0.799999X-0.799999X0*%
%ADD23RoundRect,0.140000X-0.140000X-0.170000X0.140000X-0.170000X0.140000X0.170000X-0.140000X0.170000X0*%
%ADD24RoundRect,0.135000X0.135000X0.185000X-0.135000X0.185000X-0.135000X-0.185000X0.135000X-0.185000X0*%
%ADD25RoundRect,0.198500X-0.198500X0.508500X-0.198500X-0.508500X0.198500X-0.508500X0.198500X0.508500X0*%
%ADD26C,3.250000*%
%ADD27RoundRect,0.102000X-0.704000X-0.704000X0.704000X-0.704000X0.704000X0.704000X-0.704000X0.704000X0*%
%ADD28C,1.612000*%
%ADD29C,1.734000*%
%ADD30C,2.604000*%
%ADD31RoundRect,0.150000X-0.150000X0.512500X-0.150000X-0.512500X0.150000X-0.512500X0.150000X0.512500X0*%
%ADD32RoundRect,0.135000X-0.135000X-0.185000X0.135000X-0.185000X0.135000X0.185000X-0.135000X0.185000X0*%
%ADD33RoundRect,0.150000X0.512500X0.150000X-0.512500X0.150000X-0.512500X-0.150000X0.512500X-0.150000X0*%
%ADD34RoundRect,0.060000X-0.675000X-0.180000X0.675000X-0.180000X0.675000X0.180000X-0.675000X0.180000X0*%
%ADD35RoundRect,0.076750X-0.230250X0.810250X-0.230250X-0.810250X0.230250X-0.810250X0.230250X0.810250X0*%
%ADD36RoundRect,0.060000X-0.180000X0.675000X-0.180000X-0.675000X0.180000X-0.675000X0.180000X0.675000X0*%
%ADD37R,0.350800X1.461200*%
%ADD38RoundRect,0.198500X-0.508500X-0.198500X0.508500X-0.198500X0.508500X0.198500X-0.508500X0.198500X0*%
%ADD39RoundRect,0.076750X0.230250X-0.810250X0.230250X0.810250X-0.230250X0.810250X-0.230250X-0.810250X0*%
%ADD40RoundRect,0.093750X0.093750X0.106250X-0.093750X0.106250X-0.093750X-0.106250X0.093750X-0.106250X0*%
%ADD41R,1.000000X1.600000*%
%ADD42RoundRect,0.250000X0.300000X0.300000X-0.300000X0.300000X-0.300000X-0.300000X0.300000X-0.300000X0*%
%ADD43R,1.600000X1.600000*%
%ADD44C,1.600000*%
%ADD45R,1.300000X1.300000*%
%ADD46C,1.300000*%
%ADD47R,1.003300X0.558800*%
G04 APERTURE END LIST*
D10*
%TO.C,R25*%
X130855000Y-99175000D03*
X130855000Y-100195000D03*
%TD*%
D11*
%TO.C,L1*%
X177250000Y-83150000D03*
X175150000Y-83150000D03*
%TD*%
D12*
%TO.C,C26*%
X179495000Y-96470000D03*
X179495000Y-95510000D03*
%TD*%
D13*
%TO.C,F1*%
X174715000Y-73375000D03*
X177685000Y-73375000D03*
%TD*%
D14*
%TO.C,C22*%
X129500000Y-75650000D03*
X129500000Y-76610000D03*
%TD*%
D15*
%TO.C,C34*%
X134930000Y-113000000D03*
X133970000Y-113000000D03*
%TD*%
D16*
%TO.C,U8*%
X106975000Y-87850000D03*
X108245000Y-87850000D03*
X109515000Y-87850000D03*
X110785000Y-87850000D03*
X112055000Y-87850000D03*
X113325000Y-87850000D03*
X114595000Y-87850000D03*
X115865000Y-87850000D03*
X117135000Y-87850000D03*
X118405000Y-87850000D03*
X118405000Y-78550000D03*
X117135000Y-78550000D03*
X115865000Y-78550000D03*
X114595000Y-78550000D03*
X113325000Y-78550000D03*
X112055000Y-78550000D03*
X110785000Y-78550000D03*
X109515000Y-78550000D03*
X108245000Y-78550000D03*
X106975000Y-78550000D03*
%TD*%
D12*
%TO.C,C4*%
X170350000Y-92080000D03*
X170350000Y-91120000D03*
%TD*%
D17*
%TO.C,J6*%
X108980000Y-116542500D03*
D18*
X114060000Y-116542500D03*
X119140000Y-116542500D03*
X124220000Y-116542500D03*
X129300000Y-116542500D03*
%TD*%
D19*
%TO.C,J1*%
X175503000Y-63800000D03*
D18*
X170423000Y-63800000D03*
%TD*%
D10*
%TO.C,R17*%
X177100000Y-89790000D03*
X177100000Y-90810000D03*
%TD*%
D20*
%TO.C,H3*%
X194450000Y-60600000D03*
%TD*%
D21*
%TO.C,R5*%
X165300000Y-79060000D03*
X165300000Y-78040000D03*
%TD*%
D10*
%TO.C,R8*%
X114060000Y-70690000D03*
X114060000Y-71710000D03*
%TD*%
D12*
%TO.C,C15*%
X124987500Y-83617500D03*
X124987500Y-82657500D03*
%TD*%
%TO.C,C10*%
X133950000Y-96010000D03*
X133950000Y-95050000D03*
%TD*%
D22*
%TO.C,J7*%
X189300000Y-82110000D03*
D18*
X189300000Y-77030000D03*
X189300000Y-71950000D03*
%TD*%
D20*
%TO.C,H1*%
X108500000Y-73000000D03*
%TD*%
D23*
%TO.C,C25*%
X173362500Y-97600000D03*
X174322500Y-97600000D03*
%TD*%
D15*
%TO.C,C11*%
X138130000Y-85150000D03*
X137170000Y-85150000D03*
%TD*%
%TO.C,C38*%
X137475002Y-96770000D03*
X136515002Y-96770000D03*
%TD*%
D24*
%TO.C,R3*%
X170060000Y-76100000D03*
X169040000Y-76100000D03*
%TD*%
D25*
%TO.C,U4*%
X172254999Y-86750000D03*
X171304999Y-86750000D03*
X170354999Y-86750000D03*
X170354999Y-89260000D03*
X172254999Y-89260000D03*
%TD*%
D15*
%TO.C,C32*%
X130855000Y-93885000D03*
X129895000Y-93885000D03*
%TD*%
D26*
%TO.C,P1*%
X167243000Y-110569000D03*
X178673000Y-110569000D03*
D27*
X168513000Y-104219000D03*
D28*
X169783000Y-101679000D03*
X171053000Y-104219000D03*
X172323000Y-101679000D03*
X173593000Y-104219000D03*
X174863000Y-101679000D03*
X176133000Y-104219000D03*
X177403000Y-101679000D03*
D29*
X166633000Y-115649000D03*
X169200000Y-113949000D03*
X176716000Y-115649000D03*
X179283000Y-113949000D03*
D30*
X165208000Y-107519000D03*
X180708000Y-107519000D03*
%TD*%
D14*
%TO.C,C21*%
X123625000Y-75650000D03*
X123625000Y-76610000D03*
%TD*%
D10*
%TO.C,R11*%
X122100000Y-106490000D03*
X122100000Y-107510000D03*
%TD*%
D14*
%TO.C,C36*%
X180450000Y-82370000D03*
X180450000Y-83330000D03*
%TD*%
D31*
%TO.C,Q1*%
X170412500Y-71100000D03*
X168512500Y-71100000D03*
X169462500Y-73375000D03*
%TD*%
D32*
%TO.C,R21*%
X119150000Y-106750000D03*
X120170000Y-106750000D03*
%TD*%
%TO.C,R22*%
X113030000Y-106750000D03*
X114050000Y-106750000D03*
%TD*%
D15*
%TO.C,C23*%
X135080000Y-78150000D03*
X134120000Y-78150000D03*
%TD*%
%TO.C,C17*%
X129227500Y-89617500D03*
X128267500Y-89617500D03*
%TD*%
D32*
%TO.C,R13*%
X120890000Y-82700000D03*
X121910000Y-82700000D03*
%TD*%
D24*
%TO.C,R16*%
X115080000Y-73600000D03*
X114060000Y-73600000D03*
%TD*%
D10*
%TO.C,R7*%
X130025000Y-72790000D03*
X130025000Y-73810000D03*
%TD*%
D23*
%TO.C,C37*%
X176670000Y-98700000D03*
X177630000Y-98700000D03*
%TD*%
%TO.C,C35*%
X137140000Y-113000000D03*
X138100000Y-113000000D03*
%TD*%
D15*
%TO.C,C12*%
X137480000Y-95050000D03*
X136520000Y-95050000D03*
%TD*%
D20*
%TO.C,H2*%
X108700000Y-108050000D03*
%TD*%
D10*
%TO.C,R14*%
X119150000Y-70690000D03*
X119150000Y-71710000D03*
%TD*%
D21*
%TO.C,R20*%
X114050000Y-109710000D03*
X114050000Y-108690000D03*
%TD*%
D23*
%TO.C,C29*%
X115920000Y-105550000D03*
X116880000Y-105550000D03*
%TD*%
D14*
%TO.C,C8*%
X166150000Y-80420000D03*
X166150000Y-81380000D03*
%TD*%
D16*
%TO.C,U12*%
X107055000Y-103285000D03*
X108325000Y-103285000D03*
X109595000Y-103285000D03*
X110865000Y-103285000D03*
X112135000Y-103285000D03*
X113405000Y-103285000D03*
X114675000Y-103285000D03*
X115945000Y-103285000D03*
X117215000Y-103285000D03*
X118485000Y-103285000D03*
X118485000Y-93985000D03*
X117215000Y-93985000D03*
X115945000Y-93985000D03*
X114675000Y-93985000D03*
X113405000Y-93985000D03*
X112135000Y-93985000D03*
X110865000Y-93985000D03*
X109595000Y-93985000D03*
X108325000Y-93985000D03*
X107055000Y-93985000D03*
%TD*%
D23*
%TO.C,C19*%
X128900000Y-104300000D03*
X129860000Y-104300000D03*
%TD*%
%TO.C,C28*%
X117525000Y-91785000D03*
X118485000Y-91785000D03*
%TD*%
D33*
%TO.C,U16*%
X168387500Y-94612500D03*
X168387500Y-93662500D03*
X168387500Y-92712500D03*
X166112500Y-92712500D03*
X166112500Y-94612500D03*
%TD*%
D23*
%TO.C,C20*%
X166120000Y-96212500D03*
X167080000Y-96212500D03*
%TD*%
D12*
%TO.C,Cb1*%
X179550000Y-80280000D03*
X179550000Y-79320000D03*
%TD*%
D15*
%TO.C,C16*%
X123007500Y-87777500D03*
X122047500Y-87777500D03*
%TD*%
D34*
%TO.C,U10*%
X124600000Y-106025000D03*
X124600000Y-106675000D03*
X124600000Y-107325000D03*
X124600000Y-107975000D03*
X128900000Y-107975000D03*
X128900000Y-107325000D03*
X128900000Y-106675000D03*
X128900000Y-106025000D03*
%TD*%
D23*
%TO.C,C2*%
X172170000Y-81380000D03*
X173130000Y-81380000D03*
%TD*%
D10*
%TO.C,R26*%
X180400000Y-89790000D03*
X180400000Y-90810000D03*
%TD*%
D35*
%TO.C,U13*%
X138300000Y-105150000D03*
X137650000Y-105150000D03*
X137000000Y-105150000D03*
X136350000Y-105150000D03*
X135700000Y-105150000D03*
X135050000Y-105150000D03*
X134400000Y-105150000D03*
X133750000Y-105150000D03*
X133750000Y-110890000D03*
X134400000Y-110890000D03*
X135050000Y-110890000D03*
X135700000Y-110890000D03*
X136350000Y-110890000D03*
X137000000Y-110890000D03*
X137650000Y-110890000D03*
X138300000Y-110890000D03*
%TD*%
D36*
%TO.C,U7*%
X127750000Y-71350000D03*
X127100000Y-71350000D03*
X126450000Y-71350000D03*
X125800000Y-71350000D03*
X125800000Y-75650000D03*
X126450000Y-75650000D03*
X127100000Y-75650000D03*
X127750000Y-75650000D03*
%TD*%
D12*
%TO.C,C7*%
X169100000Y-78980000D03*
X169100000Y-78020000D03*
%TD*%
D14*
%TO.C,C5*%
X174100000Y-87020000D03*
X174100000Y-87980000D03*
%TD*%
D37*
%TO.C,U5*%
X133925001Y-93106401D03*
X134574999Y-93106401D03*
X135225001Y-93106401D03*
X135874999Y-93106401D03*
X136524998Y-93106401D03*
X137174999Y-93106401D03*
X137824998Y-93106401D03*
X138474999Y-93106401D03*
X138474999Y-87456399D03*
X137825001Y-87456399D03*
X137174999Y-87456399D03*
X136525001Y-87456399D03*
X135875002Y-87456399D03*
X135225001Y-87456399D03*
X134575002Y-87456399D03*
X133925001Y-87456399D03*
%TD*%
D12*
%TO.C,C9*%
X140850000Y-119730000D03*
X140850000Y-118770000D03*
%TD*%
D32*
%TO.C,R24*%
X122230000Y-97535000D03*
X123250000Y-97535000D03*
%TD*%
%TO.C,R10*%
X131340000Y-83350000D03*
X132360000Y-83350000D03*
%TD*%
%TO.C,R23*%
X120940000Y-93885000D03*
X121960000Y-93885000D03*
%TD*%
D21*
%TO.C,R2*%
X172150000Y-77860000D03*
X172150000Y-76840000D03*
%TD*%
D25*
%TO.C,U15*%
X129227500Y-85267500D03*
X128277500Y-85267500D03*
X127327500Y-85267500D03*
X127327500Y-87777500D03*
X129227500Y-87777500D03*
%TD*%
D15*
%TO.C,C13*%
X115865000Y-90050000D03*
X114905000Y-90050000D03*
%TD*%
D19*
%TO.C,J4*%
X129300000Y-63900000D03*
D18*
X124220000Y-63900000D03*
X119140000Y-63900000D03*
X114060000Y-63900000D03*
X108980000Y-63900000D03*
%TD*%
D14*
%TO.C,C31*%
X124710000Y-99450000D03*
X124710000Y-100410000D03*
%TD*%
D24*
%TO.C,R12*%
X181477500Y-85975000D03*
X180457500Y-85975000D03*
%TD*%
D38*
%TO.C,U14*%
X128345000Y-95635000D03*
X128345000Y-96585000D03*
X128345000Y-97535000D03*
X130855000Y-97535000D03*
X130855000Y-95635000D03*
%TD*%
D14*
%TO.C,C27*%
X130850000Y-107975000D03*
X130850000Y-108935000D03*
%TD*%
D20*
%TO.C,H4*%
X194450000Y-121100000D03*
%TD*%
D32*
%TO.C,R9*%
X123967500Y-85267500D03*
X124987500Y-85267500D03*
%TD*%
%TO.C,R15*%
X119150000Y-73600000D03*
X120170000Y-73600000D03*
%TD*%
D10*
%TO.C,R18*%
X179495000Y-93090000D03*
X179495000Y-94110000D03*
%TD*%
D23*
%TO.C,C24*%
X137270000Y-78050000D03*
X138230000Y-78050000D03*
%TD*%
D21*
%TO.C,R19*%
X119150000Y-109710000D03*
X119150000Y-108690000D03*
%TD*%
D24*
%TO.C,R1*%
X164810000Y-71100000D03*
X163790000Y-71100000D03*
%TD*%
D12*
%TO.C,C14*%
X120650000Y-79510000D03*
X120650000Y-78550000D03*
%TD*%
D10*
%TO.C,R6*%
X162300000Y-78040000D03*
X162300000Y-79060000D03*
%TD*%
D39*
%TO.C,U3*%
X163485000Y-89075000D03*
X164135000Y-89075000D03*
X164785000Y-89075000D03*
X165435000Y-89075000D03*
X165435000Y-83335000D03*
X164785000Y-83335000D03*
X164135000Y-83335000D03*
X163485000Y-83335000D03*
%TD*%
D40*
%TO.C,U2*%
X181925000Y-74062500D03*
X181925000Y-73412500D03*
X181925000Y-72762500D03*
X180150000Y-72762500D03*
X180150000Y-73412500D03*
X180150000Y-74062500D03*
D41*
X181037500Y-73412500D03*
%TD*%
D22*
%TO.C,J5*%
X189550000Y-102300000D03*
D18*
X189550000Y-97220000D03*
X189550000Y-92140000D03*
%TD*%
D21*
%TO.C,R4*%
X167640000Y-89075000D03*
X167640000Y-88055000D03*
%TD*%
D42*
%TO.C,D1*%
X165850000Y-74800000D03*
X163050000Y-74800000D03*
%TD*%
D23*
%TO.C,C18*%
X128277500Y-83400000D03*
X129237500Y-83400000D03*
%TD*%
%TO.C,C3*%
X171320000Y-84700000D03*
X172280000Y-84700000D03*
%TD*%
D15*
%TO.C,C30*%
X124650000Y-93885000D03*
X123690000Y-93885000D03*
%TD*%
D43*
%TO.C,U6*%
X158840000Y-118646000D03*
D44*
X158840000Y-116227500D03*
X158840000Y-95907500D03*
X158840000Y-93367500D03*
X158840000Y-90827500D03*
X158840000Y-88287500D03*
X158840000Y-85747500D03*
X158840000Y-83207500D03*
X158840000Y-80667500D03*
X158840000Y-78127500D03*
X158840000Y-75587500D03*
X158840000Y-73047500D03*
X158840000Y-70507500D03*
X158840000Y-67967500D03*
X158840000Y-65427500D03*
X158840000Y-62887500D03*
X158840000Y-60347500D03*
X143600000Y-60347500D03*
X143600000Y-62887500D03*
X143600000Y-65427500D03*
X143600000Y-67967500D03*
X143600000Y-70507500D03*
X143600000Y-73047500D03*
X143600000Y-75587500D03*
X143600000Y-78127500D03*
X143600000Y-80667500D03*
X143600000Y-83207500D03*
X143600000Y-85747500D03*
X143600000Y-88287500D03*
X143600000Y-90827500D03*
X143600000Y-93367500D03*
X143600000Y-95907500D03*
X143600000Y-98447500D03*
X143600000Y-100987500D03*
X143600000Y-103527500D03*
X143600000Y-106067500D03*
X143600000Y-108607500D03*
X143600000Y-111147500D03*
X143600000Y-113687500D03*
X143600000Y-116227500D03*
X143600000Y-118767500D03*
X146140000Y-116227500D03*
X156300000Y-73047500D03*
X153760000Y-73047500D03*
X151220000Y-73047500D03*
X148680000Y-73047500D03*
X146140000Y-73047500D03*
X155789200Y-104848300D03*
X155789200Y-102308300D03*
D45*
X146038400Y-105797500D03*
D46*
X148038400Y-105797500D03*
X150038400Y-105797500D03*
X150038400Y-103797500D03*
X148038400Y-103797500D03*
X146038400Y-103797500D03*
X149950000Y-118037500D03*
X152490000Y-118037500D03*
%TD*%
D14*
%TO.C,C1*%
X179521850Y-76851849D03*
X179521850Y-77811849D03*
%TD*%
D35*
%TO.C,U9*%
X138475000Y-69730000D03*
X137825000Y-69730000D03*
X137175000Y-69730000D03*
X136525000Y-69730000D03*
X135875000Y-69730000D03*
X135225000Y-69730000D03*
X134575000Y-69730000D03*
X133925000Y-69730000D03*
X133925000Y-75470000D03*
X134575000Y-75470000D03*
X135225000Y-75470000D03*
X135875000Y-75470000D03*
X136525000Y-75470000D03*
X137175000Y-75470000D03*
X137825000Y-75470000D03*
X138475000Y-75470000D03*
%TD*%
D33*
%TO.C,U11*%
X175637500Y-95600000D03*
X175637500Y-94650000D03*
X175637500Y-93700000D03*
X173362500Y-93700000D03*
X173362500Y-95600000D03*
%TD*%
D47*
%TO.C,U1*%
X177577950Y-78751851D03*
X177577950Y-77801850D03*
X177577950Y-76851849D03*
X174822050Y-76851849D03*
X174822050Y-77786850D03*
X174822050Y-78751851D03*
%TD*%
D12*
%TO.C,C33*%
X126300000Y-96580000D03*
X126300000Y-95620000D03*
%TD*%
D14*
%TO.C,C6*%
X167610000Y-84275000D03*
X167610000Y-85235000D03*
%TD*%
M02*
