%TF.GenerationSoftware,KiCad,Pcbnew,9.0.4*%
%TF.CreationDate,2026-09-03T07:47:59-04:00*%
%TF.ProjectId,engine_dyno_v1,656e6769-6e65-45f6-9479-6e6f5f76312e,rev?*%
%TF.SameCoordinates,Original*%
%TF.FileFunction,Soldermask,Bot*%
%TF.FilePolarity,Negative*%
%FSLAX46Y46*%
G04 Gerber Fmt 4.6, Leading zero omitted, Abs format (unit mm)*
G04 Created by KiCad (PCBNEW 9.0.4) date 2026-09-03 07:47:59*
%MOMM*%
%LPD*%
G01*
G04 APERTURE LIST*
G04 Aperture macros list*
%AMRoundRect*
0 Rectangle with rounded corners*
0 $1 Rounding radius*
0 $2 $3 $4 $5 $6 $7 $8 $9 X,Y pos of 4 corners*
0 Add a 4 corners polygon primitive as box body*
4,1,4,$2,$3,$4,$5,$6,$7,$8,$9,$2,$3,0*
0 Add four circle primitives for the rounded corners*
1,1,$1+$1,$2,$3*
1,1,$1+$1,$4,$5*
1,1,$1+$1,$6,$7*
1,1,$1+$1,$8,$9*
0 Add four rect primitives between the rounded corners*
20,1,$1+$1,$2,$3,$4,$5,0*
20,1,$1+$1,$4,$5,$6,$7,0*
20,1,$1+$1,$6,$7,$8,$9,0*
20,1,$1+$1,$8,$9,$2,$3,0*%
G04 Aperture macros list end*
%ADD10RoundRect,0.250001X-0.799999X-0.799999X0.799999X-0.799999X0.799999X0.799999X-0.799999X0.799999X0*%
%ADD11C,2.100000*%
%ADD12RoundRect,0.250001X0.799999X0.799999X-0.799999X0.799999X-0.799999X-0.799999X0.799999X-0.799999X0*%
%ADD13C,5.600000*%
%ADD14RoundRect,0.250001X0.799999X-0.799999X0.799999X0.799999X-0.799999X0.799999X-0.799999X-0.799999X0*%
%ADD15C,3.250000*%
%ADD16RoundRect,0.102000X-0.704000X-0.704000X0.704000X-0.704000X0.704000X0.704000X-0.704000X0.704000X0*%
%ADD17C,1.612000*%
%ADD18C,1.734000*%
%ADD19C,2.604000*%
%ADD20R,1.600000X1.600000*%
%ADD21C,1.600000*%
%ADD22R,1.300000X1.300000*%
%ADD23C,1.300000*%
G04 APERTURE END LIST*
D10*
%TO.C,J6*%
X108980000Y-116542500D03*
D11*
X114060000Y-116542500D03*
X119140000Y-116542500D03*
X124220000Y-116542500D03*
X129300000Y-116542500D03*
%TD*%
D12*
%TO.C,J1*%
X175503000Y-63800000D03*
D11*
X170423000Y-63800000D03*
%TD*%
D13*
%TO.C,H3*%
X194450000Y-60600000D03*
%TD*%
D14*
%TO.C,J7*%
X189300000Y-82110000D03*
D11*
X189300000Y-77030000D03*
X189300000Y-71950000D03*
%TD*%
D13*
%TO.C,H1*%
X108500000Y-73000000D03*
%TD*%
D15*
%TO.C,P1*%
X167243000Y-110569000D03*
X178673000Y-110569000D03*
D16*
X168513000Y-104219000D03*
D17*
X169783000Y-101679000D03*
X171053000Y-104219000D03*
X172323000Y-101679000D03*
X173593000Y-104219000D03*
X174863000Y-101679000D03*
X176133000Y-104219000D03*
X177403000Y-101679000D03*
D18*
X166633000Y-115649000D03*
X169200000Y-113949000D03*
X176716000Y-115649000D03*
X179283000Y-113949000D03*
D19*
X165208000Y-107519000D03*
X180708000Y-107519000D03*
%TD*%
D13*
%TO.C,H2*%
X108700000Y-108050000D03*
%TD*%
D12*
%TO.C,J4*%
X129300000Y-63900000D03*
D11*
X124220000Y-63900000D03*
X119140000Y-63900000D03*
X114060000Y-63900000D03*
X108980000Y-63900000D03*
%TD*%
D13*
%TO.C,H4*%
X194450000Y-121100000D03*
%TD*%
D14*
%TO.C,J5*%
X189550000Y-102300000D03*
D11*
X189550000Y-97220000D03*
X189550000Y-92140000D03*
%TD*%
D20*
%TO.C,U6*%
X158840000Y-118646000D03*
D21*
X158840000Y-116227500D03*
X158840000Y-95907500D03*
X158840000Y-93367500D03*
X158840000Y-90827500D03*
X158840000Y-88287500D03*
X158840000Y-85747500D03*
X158840000Y-83207500D03*
X158840000Y-80667500D03*
X158840000Y-78127500D03*
X158840000Y-75587500D03*
X158840000Y-73047500D03*
X158840000Y-70507500D03*
X158840000Y-67967500D03*
X158840000Y-65427500D03*
X158840000Y-62887500D03*
X158840000Y-60347500D03*
X143600000Y-60347500D03*
X143600000Y-62887500D03*
X143600000Y-65427500D03*
X143600000Y-67967500D03*
X143600000Y-70507500D03*
X143600000Y-73047500D03*
X143600000Y-75587500D03*
X143600000Y-78127500D03*
X143600000Y-80667500D03*
X143600000Y-83207500D03*
X143600000Y-85747500D03*
X143600000Y-88287500D03*
X143600000Y-90827500D03*
X143600000Y-93367500D03*
X143600000Y-95907500D03*
X143600000Y-98447500D03*
X143600000Y-100987500D03*
X143600000Y-103527500D03*
X143600000Y-106067500D03*
X143600000Y-108607500D03*
X143600000Y-111147500D03*
X143600000Y-113687500D03*
X143600000Y-116227500D03*
X143600000Y-118767500D03*
X146140000Y-116227500D03*
X156300000Y-73047500D03*
X153760000Y-73047500D03*
X151220000Y-73047500D03*
X148680000Y-73047500D03*
X146140000Y-73047500D03*
X155789200Y-104848300D03*
X155789200Y-102308300D03*
D22*
X146038400Y-105797500D03*
D23*
X148038400Y-105797500D03*
X150038400Y-105797500D03*
X150038400Y-103797500D03*
X148038400Y-103797500D03*
X146038400Y-103797500D03*
X149950000Y-118037500D03*
X152490000Y-118037500D03*
%TD*%
M02*
