M48
; DRILL file {KiCad 9.0.4} date 2026-09-03T07:48:23-0400
; FORMAT={-:-/ absolute / metric / decimal}
; #@! TF.CreationDate,2026-09-03T07:48:23-04:00
; #@! TF.GenerationSoftware,Kicad,Pcbnew,9.0.4
; #@! TF.FileFunction,Plated,1,4,PTH
FMAT,2
METRIC
; #@! TA.AperFunction,Plated,PTH,ViaDrill
T1C0.300
; #@! TA.AperFunction,Plated,PTH,ViaDrill
T2C0.350
; #@! TA.AperFunction,Plated,PTH,ComponentDrill
T3C0.800
; #@! TA.AperFunction,Plated,PTH,ComponentDrill
T4C0.900
; #@! TA.AperFunction,Plated,PTH,ComponentDrill
T5C1.020
; #@! TA.AperFunction,Plated,PTH,ComponentDrill
T6C1.100
; #@! TA.AperFunction,Plated,PTH,ComponentDrill
T7C1.600
; #@! TA.AperFunction,Plated,PTH,ComponentDrill
T8C3.200
%
G90
G05
T1
X105.8Y-60.7
X105.8Y-66.7
X105.8Y-78.7
X105.8Y-84.7
X105.8Y-90.7
X105.8Y-96.7
X105.8Y-102.7
X105.8Y-114.7
X105.8Y-120.7
X107.85Y-80.65
X108.75Y-57.65
X110.55Y-69.6
X111.05Y-82.5
X111.8Y-60.7
X111.8Y-66.7
X111.8Y-72.7
X111.8Y-84.7
X111.8Y-90.7
X111.8Y-114.7
X111.8Y-120.7
X114.4Y-74.8
X114.45Y-105.35
X115.15Y-57.65
X115.95Y-106.835
X116.0Y-69.55
X116.05Y-101.35
X116.5Y-82.35
X117.8Y-60.7
X117.8Y-66.7
X117.8Y-72.7
X117.8Y-84.7
X117.8Y-96.7
X117.8Y-108.7
X117.8Y-114.7
X117.8Y-120.7
X118.4Y-81.65
X119.6Y-74.7
X120.8Y-57.55
X122.65Y-69.55
X123.8Y-60.7
X123.8Y-66.7
X123.8Y-72.7
X123.8Y-78.7
X123.8Y-90.7
X123.8Y-96.7
X123.8Y-114.7
X123.8Y-120.7
X124.2Y-86.6
X124.85Y-94.85
X125.15Y-81.15
X125.7Y-86.6
X125.75Y-98.45
X126.65Y-79.45
X126.75Y-70.1
X126.8Y-57.6
X127.05Y-74.15
X128.0Y-77.9
X128.9Y-73.3
X129.6Y-80.7
X129.8Y-60.7
X129.8Y-66.7
X129.8Y-102.7
X129.8Y-114.7
X129.8Y-120.7
X130.15Y-78.8
X130.75Y-106.5
X131.25Y-90.05
X131.3Y-70.15
X132.15Y-73.3
X132.45Y-76.25
X132.65Y-57.7
X133.864Y-108.986
X134.6Y-73.65
X134.8Y-90.05
X135.8Y-60.7
X135.8Y-66.7
X135.8Y-72.7
X135.8Y-78.7
X135.8Y-102.7
X135.8Y-108.7
X135.8Y-114.7
X135.8Y-120.7
X136.4Y-73.55
X138.45Y-108.8
X138.95Y-57.8
X139.6Y-110.9
X140.5Y-74.2
X140.85Y-70.5
X140.9Y-80.75
X140.9Y-83.45
X141.8Y-60.7
X141.8Y-66.7
X141.8Y-78.7
X141.8Y-84.7
X141.8Y-96.7
X141.8Y-102.7
X141.8Y-114.7
X141.8Y-120.7
X141.95Y-76.15
X145.1Y-76.9
X147.8Y-60.7
X147.8Y-66.7
X147.8Y-78.7
X147.8Y-84.7
X147.8Y-90.7
X147.8Y-96.7
X147.8Y-108.7
X147.8Y-114.7
X147.8Y-120.7
X151.1Y-76.5
X151.2Y-70.55
X153.8Y-60.7
X153.8Y-66.7
X153.8Y-78.7
X153.8Y-84.7
X153.8Y-90.7
X153.8Y-96.7
X153.8Y-120.7
X153.95Y-80.9
X156.85Y-83.8
X159.8Y-66.7
X159.8Y-102.7
X159.8Y-114.7
X159.8Y-120.7
X161.45Y-90.2
X161.65Y-74.9
X162.5Y-69.4
X163.15Y-95.9
X165.4Y-86.5
X165.8Y-60.7
X165.8Y-66.7
X165.8Y-72.7
X165.8Y-90.7
X165.8Y-102.7
X165.8Y-120.7
X166.145Y-97.312
X166.75Y-78.04
X168.2Y-80.25
X168.6Y-86.6
X169.85Y-74.95
X170.85Y-77.35
X171.8Y-60.7
X171.8Y-66.7
X171.8Y-72.7
X171.8Y-96.7
X171.8Y-108.7
X171.8Y-114.7
X171.8Y-120.7
X174.35Y-80.7
X175.1Y-69.9
X175.9Y-78.7
X177.5Y-85.55
X177.8Y-60.7
X177.8Y-66.7
X177.8Y-96.7
X177.8Y-114.7
X177.8Y-120.7
X180.9Y-69.9
X183.8Y-60.7
X183.8Y-66.7
X183.8Y-72.7
X183.8Y-78.7
X183.8Y-84.7
X183.8Y-90.7
X183.8Y-96.7
X183.8Y-102.7
X183.8Y-108.7
X183.8Y-114.7
X183.8Y-120.7
X189.4Y-74.5
X189.4Y-89.7
X189.55Y-99.9
X189.7Y-79.8
X189.7Y-94.8
X189.8Y-60.7
X189.8Y-66.7
X189.8Y-84.7
X189.8Y-108.7
X189.8Y-114.7
X189.8Y-120.7
X195.8Y-66.7
X195.8Y-72.7
X195.8Y-78.7
X195.8Y-84.7
X195.8Y-90.7
X195.8Y-96.7
X195.8Y-102.7
X195.8Y-108.7
X195.8Y-114.7
T2
X115.85Y-91.2
X118.5Y-90.335
X122.25Y-79.75
X122.5Y-75.1
X125.05Y-95.9
X128.25Y-81.75
X128.9Y-103.1
X129.227Y-90.767
X130.75Y-75.65
X130.85Y-92.585
X132.1Y-108.35
X134.55Y-85.6
X134.95Y-114.25
X135.05Y-79.3
X135.3Y-98.4
X137.15Y-114.25
X137.25Y-79.3
X137.85Y-83.7
X163.15Y-80.815
X164.65Y-80.765
X168.81Y-85.255
X170.56Y-83.68
X172.64Y-98.53
X175.305Y-86.855
X178.61Y-89.8
T3
X146.038Y-103.797
X146.038Y-105.797
X148.038Y-103.797
X148.038Y-105.797
X149.95Y-118.037
X150.038Y-103.797
X150.038Y-105.797
X152.49Y-118.037
T4
X168.513Y-104.219
X169.783Y-101.679
X171.053Y-104.219
X172.323Y-101.679
X173.593Y-104.219
X174.863Y-101.679
X176.133Y-104.219
X177.403Y-101.679
T5
X166.633Y-115.649
X169.2Y-113.949
X176.716Y-115.649
X179.283Y-113.949
T6
X108.98Y-63.9
X108.98Y-116.542
X114.06Y-63.9
X114.06Y-116.542
X119.14Y-63.9
X119.14Y-116.542
X124.22Y-63.9
X124.22Y-116.542
X129.3Y-63.9
X129.3Y-116.542
X143.6Y-60.347
X143.6Y-62.887
X143.6Y-65.427
X143.6Y-67.968
X143.6Y-70.507
X143.6Y-73.047
X143.6Y-75.587
X143.6Y-78.127
X143.6Y-80.667
X143.6Y-83.207
X143.6Y-85.748
X143.6Y-88.287
X143.6Y-90.828
X143.6Y-93.367
X143.6Y-95.907
X143.6Y-98.447
X143.6Y-100.987
X143.6Y-103.527
X143.6Y-106.067
X143.6Y-108.608
X143.6Y-111.147
X143.6Y-113.688
X143.6Y-116.227
X143.6Y-118.767
X146.14Y-73.047
X146.14Y-116.227
X148.68Y-73.047
X151.22Y-73.047
X153.76Y-73.047
X155.789Y-102.308
X155.789Y-104.848
X156.3Y-73.047
X158.84Y-60.347
X158.84Y-62.887
X158.84Y-65.427
X158.84Y-67.968
X158.84Y-70.507
X158.84Y-73.047
X158.84Y-75.587
X158.84Y-78.127
X158.84Y-80.667
X158.84Y-83.207
X158.84Y-85.748
X158.84Y-88.287
X158.84Y-90.828
X158.84Y-93.367
X158.84Y-95.907
X158.84Y-116.227
X158.84Y-118.646
X170.423Y-63.8
X175.503Y-63.8
X189.3Y-71.95
X189.3Y-77.03
X189.3Y-82.11
X189.55Y-92.14
X189.55Y-97.22
X189.55Y-102.3
T7
X165.208Y-107.519
X180.708Y-107.519
T8
X108.5Y-73.0
X108.7Y-108.05
X194.45Y-60.6
X194.45Y-121.1
M30
