M48
; DRILL file KiCad 10.0.0 date 2026-10-10T17:44:36
; FORMAT={-:-/ absolute / inch / decimal}
; #@! TF.CreationDate,2026-10-10T17:44:36-04:00
; #@! TF.GenerationSoftware,Kicad,Pcbnew,10.0.0
; #@! TF.FileFunction,Plated,1,4,PTH
FMAT,2
INCH
; #@! TA.AperFunction,Plated,PTH,ViaDrill
T1C0.0118
; #@! TA.AperFunction,Plated,PTH,ComponentDrill
T2C0.0315
%
G90
G05
T1
X4.252Y-3.5512
X4.252Y-3.6339
X4.2559Y-3.7087
X4.2598Y-3.4449
X4.2677Y-3.8898
X4.2874Y-3.811
X4.2913Y-3.8701
X4.2953Y-3.8976
X4.2953Y-3.9488
X4.2992Y-4.0118
X4.3031Y-3.9252
X4.4764Y-3.7992
X4.4764Y-4.2087
X4.4882Y-3.625
X4.4882Y-3.6496
X4.4954Y-3.8151
X4.5079Y-4.0
X4.5157Y-3.4724
X4.5197Y-3.811
X4.5245Y-3.4986
X4.5315Y-3.752
X4.5839Y-3.4874
X4.5906Y-3.5551
X4.6614Y-3.5512
X4.6654Y-4.2992
X4.6732Y-3.4961
X4.6772Y-3.4449
X4.689Y-3.7362
X4.7008Y-4.3043
X4.7047Y-3.3701
X4.7126Y-3.5669
X4.7362Y-3.3583
X4.7598Y-3.6496
X4.7953Y-3.9291
X4.7953Y-4.1102
X4.8031Y-3.7598
X4.815Y-4.0787
X4.815Y-4.2598
X4.8307Y-3.8976
X4.8425Y-4.0866
X4.8504Y-3.4843
X4.8548Y-3.9025
X4.874Y-4.1496
X4.8819Y-3.3583
X4.8819Y-4.0
X4.9016Y-3.752
X4.9055Y-4.1772
X4.9094Y-3.4134
X4.9134Y-4.0197
X4.9331Y-3.9921
X4.9338Y-4.1351
X4.9442Y-3.4607
X4.9567Y-4.126
X4.9606Y-4.1811
X4.9646Y-3.6811
X4.9685Y-3.4567
X4.9685Y-4.0394
X5.0Y-3.7559
X5.0354Y-3.7559
X5.0354Y-3.8543
X5.0512Y-3.9213
X5.063Y-3.5659
X5.063Y-3.5906
X5.0709Y-3.9055
X5.0748Y-3.6929
X5.0787Y-3.811
X5.0827Y-4.0236
X5.0827Y-4.122
X5.0866Y-4.0709
X5.0984Y-3.626
X5.1137Y-4.2471
X5.126Y-3.4843
X5.1378Y-4.252
X5.185Y-3.5669
X5.185Y-3.7677
X5.1929Y-4.2795
X5.1969Y-4.2323
X5.2087Y-4.2598
X5.2165Y-3.5827
X5.2205Y-3.7717
X5.2283Y-3.874
X5.2559Y-3.6339
X5.2598Y-3.7992
X5.2617Y-4.2837
X5.2638Y-3.5236
X5.2677Y-4.2598
X5.2717Y-4.3071
X5.2953Y-3.8386
X5.3031Y-3.7992
X5.3031Y-3.8819
X5.3425Y-3.6378
X5.3465Y-3.748
X5.3543Y-3.8031
X5.3543Y-4.1811
X5.3583Y-4.2087
X5.3812Y-3.9487
X5.3976Y-4.2638
X5.4055Y-3.8976
X5.4055Y-3.9528
X5.4134Y-3.8465
X5.4173Y-4.189
X5.4444Y-4.0079
X5.4449Y-4.0472
X5.4567Y-3.8228
X5.4685Y-3.9882
X5.4724Y-3.8976
X5.4764Y-3.437
X5.4764Y-3.7717
X5.4803Y-4.0709
X5.4843Y-4.1732
X5.5079Y-4.1102
X5.5079Y-4.2559
X5.5157Y-3.8071
X5.5197Y-3.7165
X5.5433Y-4.374
X5.5472Y-4.1654
X5.5858Y-3.6574
X5.6102Y-3.6358
X5.6102Y-3.6604
X5.6102Y-3.685
X5.6142Y-4.3937
X5.6181Y-4.3701
X5.622Y-4.4252
X5.6378Y-4.252
X5.6565Y-4.2717
X5.6654Y-4.4213
X5.6811Y-3.6299
X5.6811Y-4.2717
X5.6929Y-3.9134
X5.6969Y-3.937
X5.6969Y-4.0433
X5.7008Y-3.7756
X5.7008Y-3.8543
X5.7087Y-3.5197
X5.7205Y-3.6299
X5.7441Y-3.622
X5.7559Y-4.1457
X5.7795Y-4.0079
X5.7874Y-3.6142
X5.8071Y-3.6299
X5.8307Y-4.2638
X5.8346Y-4.2913
X5.8386Y-3.626
X5.8425Y-4.3268
X5.8661Y-3.626
X5.8976Y-3.626
X5.9016Y-4.3661
X5.9055Y-3.9724
X5.937Y-3.6299
X5.9488Y-3.5315
X5.9606Y-3.9094
X5.9646Y-4.378
X5.9685Y-3.626
X5.9921Y-4.3701
X6.0Y-3.626
X6.0354Y-3.626
X6.0394Y-4.1654
X6.0669Y-3.626
X6.0984Y-3.626
X6.1181Y-4.2441
X6.1339Y-3.626
X6.1339Y-4.3228
X6.1614Y-3.626
X6.1654Y-4.0709
X6.1772Y-4.1811
X6.189Y-3.626
X6.248Y-3.7559
X6.248Y-3.7795
X6.2559Y-3.9134
X6.2717Y-4.1339
X6.2717Y-4.2165
X6.2874Y-3.7362
X6.2992Y-4.315
X6.2992Y-4.3661
X6.304Y-4.3903
X6.3306Y-4.208
X6.3346Y-4.2323
X6.3386Y-3.6417
X6.3425Y-3.6772
X6.374Y-3.8622
X6.378Y-4.3386
X6.3858Y-4.4134
X6.4014Y-3.8592
X6.4252Y-3.6063
X6.4528Y-3.7756
X6.4685Y-3.4764
X6.4721Y-3.5388
X6.4724Y-4.2323
X6.4764Y-3.8238
X6.4803Y-4.001
X6.4843Y-3.7165
X6.4843Y-3.7835
X6.5512Y-4.4094
X6.5748Y-4.248
X6.5984Y-4.3937
X6.6142Y-3.3858
X6.6142Y-4.2913
X6.6299Y-3.4173
X6.6575Y-3.9016
X6.7323Y-4.0433
T2
X4.3307Y-3.4764
X4.3307Y-3.5551
X4.3307Y-3.6339
X4.3307Y-3.7126
X4.3307Y-3.7913
X4.3863Y-4.189
X4.3863Y-4.2677
X4.4094Y-3.4764
X4.4094Y-3.5551
X4.4094Y-3.6339
X4.4094Y-3.7126
X4.4094Y-3.7913
M30
