%TF.GenerationSoftware,KiCad,Pcbnew,10.0.0*%
%TF.CreationDate,2026-10-10T17:44:36-04:00*%
%TF.ProjectId,WSG_1.0,5753475f-312e-4302-9e6b-696361645f70,rev?*%
%TF.SameCoordinates,Original*%
%TF.FileFunction,Paste,Bot*%
%TF.FilePolarity,Positive*%
%FSLAX46Y46*%
G04 Gerber Fmt 4.6, Leading zero omitted, Abs format (unit mm)*
G04 Created by KiCad (PCBNEW 10.0.0) date 2026-10-10 17:44:36*
%MOMM*%
%LPD*%
G01*
G04 APERTURE LIST*
G04 Aperture macros list*
%AMRoundRect*
0 Rectangle with rounded corners*
0 $1 Rounding radius*
0 $2 $3 $4 $5 $6 $7 $8 $9 X,Y pos of 4 corners*
0 Add a 4 corners polygon primitive as box body*
4,1,4,$2,$3,$4,$5,$6,$7,$8,$9,$2,$3,0*
0 Add four circle primitives for the rounded corners*
1,1,$1+$1,$2,$3*
1,1,$1+$1,$4,$5*
1,1,$1+$1,$6,$7*
1,1,$1+$1,$8,$9*
0 Add four rect primitives between the rounded corners*
20,1,$1+$1,$2,$3,$4,$5,0*
20,1,$1+$1,$4,$5,$6,$7,0*
20,1,$1+$1,$6,$7,$8,$9,0*
20,1,$1+$1,$8,$9,$2,$3,0*%
G04 Aperture macros list end*
%ADD10C,0.000000*%
%ADD11C,0.325000*%
%ADD12C,0.010000*%
%ADD13RoundRect,0.160000X-0.197500X-0.160000X0.197500X-0.160000X0.197500X0.160000X-0.197500X0.160000X0*%
%ADD14R,0.599999X0.249999*%
%ADD15R,0.900001X0.249999*%
%ADD16RoundRect,0.155000X0.212500X0.155000X-0.212500X0.155000X-0.212500X-0.155000X0.212500X-0.155000X0*%
%ADD17RoundRect,0.160000X0.160000X-0.197500X0.160000X0.197500X-0.160000X0.197500X-0.160000X-0.197500X0*%
%ADD18RoundRect,0.155000X-0.155000X0.212500X-0.155000X-0.212500X0.155000X-0.212500X0.155000X0.212500X0*%
%ADD19RoundRect,0.150000X0.587500X0.150000X-0.587500X0.150000X-0.587500X-0.150000X0.587500X-0.150000X0*%
%ADD20RoundRect,0.155000X0.155000X-0.212500X0.155000X0.212500X-0.155000X0.212500X-0.155000X-0.212500X0*%
%ADD21R,3.400000X0.980000*%
%ADD22RoundRect,0.237500X0.300000X0.237500X-0.300000X0.237500X-0.300000X-0.237500X0.300000X-0.237500X0*%
%ADD23RoundRect,0.147500X-0.172500X0.147500X-0.172500X-0.147500X0.172500X-0.147500X0.172500X0.147500X0*%
%ADD24RoundRect,0.160000X0.197500X0.160000X-0.197500X0.160000X-0.197500X-0.160000X0.197500X-0.160000X0*%
%ADD25RoundRect,0.237500X-0.300000X-0.237500X0.300000X-0.237500X0.300000X0.237500X-0.300000X0.237500X0*%
G04 APERTURE END LIST*
D10*
%TO.C,U8*%
G36*
X152900000Y-109424999D02*
G01*
X152900000Y-109575001D01*
X152850000Y-109625001D01*
X152400001Y-109625001D01*
X152350001Y-109575001D01*
X152350001Y-109424999D01*
X152400001Y-109374999D01*
X152850000Y-109374999D01*
X152900000Y-109424999D01*
G37*
G36*
X153650001Y-109424999D02*
G01*
X153650001Y-109575001D01*
X153600001Y-109625001D01*
X153150002Y-109625001D01*
X153100002Y-109575001D01*
X153100002Y-109424999D01*
X153150002Y-109374999D01*
X153600001Y-109374999D01*
X153650001Y-109424999D01*
G37*
%TO.C,U11*%
D11*
X142762500Y-104850000D02*
G75*
G02*
X142437500Y-104850000I-162500J0D01*
G01*
X142437500Y-104850000D02*
G75*
G02*
X142762500Y-104850000I162500J0D01*
G01*
X142762500Y-106150000D02*
G75*
G02*
X142437500Y-106150000I-162500J0D01*
G01*
X142437500Y-106150000D02*
G75*
G02*
X142762500Y-106150000I162500J0D01*
G01*
X143662500Y-105500000D02*
G75*
G02*
X143337500Y-105500000I-162500J0D01*
G01*
X143337500Y-105500000D02*
G75*
G02*
X143662500Y-105500000I162500J0D01*
G01*
X144562500Y-104850000D02*
G75*
G02*
X144237500Y-104850000I-162500J0D01*
G01*
X144237500Y-104850000D02*
G75*
G02*
X144562500Y-104850000I162500J0D01*
G01*
X144562500Y-106150000D02*
G75*
G02*
X144237500Y-106150000I-162500J0D01*
G01*
X144237500Y-106150000D02*
G75*
G02*
X144562500Y-106150000I162500J0D01*
G01*
D12*
X141945000Y-102000000D02*
X141245000Y-102000000D01*
X141245000Y-100600000D01*
X141945000Y-100600000D01*
X141945000Y-102000000D01*
G36*
X141945000Y-102000000D02*
G01*
X141245000Y-102000000D01*
X141245000Y-100600000D01*
X141945000Y-100600000D01*
X141945000Y-102000000D01*
G37*
X141945000Y-110400000D02*
X141245000Y-110400000D01*
X141245000Y-109000000D01*
X141945000Y-109000000D01*
X141945000Y-110400000D01*
G36*
X141945000Y-110400000D02*
G01*
X141245000Y-110400000D01*
X141245000Y-109000000D01*
X141945000Y-109000000D01*
X141945000Y-110400000D01*
G37*
X143215000Y-102000000D02*
X142515000Y-102000000D01*
X142515000Y-100600000D01*
X143215000Y-100600000D01*
X143215000Y-102000000D01*
G36*
X143215000Y-102000000D02*
G01*
X142515000Y-102000000D01*
X142515000Y-100600000D01*
X143215000Y-100600000D01*
X143215000Y-102000000D01*
G37*
X143215000Y-110400000D02*
X142515000Y-110400000D01*
X142515000Y-109000000D01*
X143215000Y-109000000D01*
X143215000Y-110400000D01*
G36*
X143215000Y-110400000D02*
G01*
X142515000Y-110400000D01*
X142515000Y-109000000D01*
X143215000Y-109000000D01*
X143215000Y-110400000D01*
G37*
X144485000Y-102000000D02*
X143785000Y-102000000D01*
X143785000Y-100600000D01*
X144485000Y-100600000D01*
X144485000Y-102000000D01*
G36*
X144485000Y-102000000D02*
G01*
X143785000Y-102000000D01*
X143785000Y-100600000D01*
X144485000Y-100600000D01*
X144485000Y-102000000D01*
G37*
X144485000Y-110400000D02*
X143785000Y-110400000D01*
X143785000Y-109000000D01*
X144485000Y-109000000D01*
X144485000Y-110400000D01*
G36*
X144485000Y-110400000D02*
G01*
X143785000Y-110400000D01*
X143785000Y-109000000D01*
X144485000Y-109000000D01*
X144485000Y-110400000D01*
G37*
X145755000Y-102000000D02*
X145055000Y-102000000D01*
X145055000Y-100600000D01*
X145755000Y-100600000D01*
X145755000Y-102000000D01*
G36*
X145755000Y-102000000D02*
G01*
X145055000Y-102000000D01*
X145055000Y-100600000D01*
X145755000Y-100600000D01*
X145755000Y-102000000D01*
G37*
X145755000Y-110400000D02*
X145055000Y-110400000D01*
X145055000Y-109000000D01*
X145755000Y-109000000D01*
X145755000Y-110400000D01*
G36*
X145755000Y-110400000D02*
G01*
X145055000Y-110400000D01*
X145055000Y-109000000D01*
X145755000Y-109000000D01*
X145755000Y-110400000D01*
G37*
%TO.C,U7*%
X163983000Y-108776000D02*
X163985000Y-108776000D01*
X163988000Y-108777000D01*
X163990000Y-108777000D01*
X163993000Y-108778000D01*
X163995000Y-108779000D01*
X163998000Y-108780000D01*
X164000000Y-108782000D01*
X164002000Y-108783000D01*
X164004000Y-108785000D01*
X164006000Y-108786000D01*
X164008000Y-108788000D01*
X164010000Y-108790000D01*
X164012000Y-108792000D01*
X164014000Y-108794000D01*
X164015000Y-108796000D01*
X164017000Y-108798000D01*
X164018000Y-108800000D01*
X164020000Y-108802000D01*
X164021000Y-108805000D01*
X164022000Y-108807000D01*
X164023000Y-108810000D01*
X164023000Y-108812000D01*
X164024000Y-108815000D01*
X164024000Y-108817000D01*
X164025000Y-108820000D01*
X164025000Y-108822000D01*
X164025000Y-108825000D01*
X164025000Y-108975000D01*
X164025000Y-108978000D01*
X164025000Y-108980000D01*
X164024000Y-108983000D01*
X164024000Y-108985000D01*
X164023000Y-108988000D01*
X164023000Y-108990000D01*
X164022000Y-108993000D01*
X164021000Y-108995000D01*
X164020000Y-108998000D01*
X164018000Y-109000000D01*
X164017000Y-109002000D01*
X164015000Y-109004000D01*
X164014000Y-109006000D01*
X164012000Y-109008000D01*
X164010000Y-109010000D01*
X164008000Y-109012000D01*
X164006000Y-109014000D01*
X164004000Y-109015000D01*
X164002000Y-109017000D01*
X164000000Y-109018000D01*
X163998000Y-109020000D01*
X163995000Y-109021000D01*
X163993000Y-109022000D01*
X163990000Y-109023000D01*
X163988000Y-109023000D01*
X163985000Y-109024000D01*
X163983000Y-109024000D01*
X163980000Y-109025000D01*
X163978000Y-109025000D01*
X163975000Y-109025000D01*
X163825000Y-109025000D01*
X163822000Y-109025000D01*
X163820000Y-109025000D01*
X163817000Y-109024000D01*
X163815000Y-109024000D01*
X163812000Y-109023000D01*
X163810000Y-109023000D01*
X163807000Y-109022000D01*
X163805000Y-109021000D01*
X163802000Y-109020000D01*
X163800000Y-109018000D01*
X163798000Y-109017000D01*
X163796000Y-109015000D01*
X163794000Y-109014000D01*
X163792000Y-109012000D01*
X163790000Y-109010000D01*
X163788000Y-109008000D01*
X163786000Y-109006000D01*
X163785000Y-109004000D01*
X163783000Y-109002000D01*
X163782000Y-109000000D01*
X163780000Y-108998000D01*
X163779000Y-108995000D01*
X163778000Y-108993000D01*
X163777000Y-108990000D01*
X163777000Y-108988000D01*
X163776000Y-108985000D01*
X163776000Y-108983000D01*
X163775000Y-108980000D01*
X163775000Y-108978000D01*
X163775000Y-108975000D01*
X163775000Y-108825000D01*
X163775000Y-108822000D01*
X163775000Y-108820000D01*
X163776000Y-108817000D01*
X163776000Y-108815000D01*
X163777000Y-108812000D01*
X163777000Y-108810000D01*
X163778000Y-108807000D01*
X163779000Y-108805000D01*
X163780000Y-108802000D01*
X163782000Y-108800000D01*
X163783000Y-108798000D01*
X163785000Y-108796000D01*
X163786000Y-108794000D01*
X163788000Y-108792000D01*
X163790000Y-108790000D01*
X163792000Y-108788000D01*
X163794000Y-108786000D01*
X163796000Y-108785000D01*
X163798000Y-108783000D01*
X163800000Y-108782000D01*
X163802000Y-108780000D01*
X163805000Y-108779000D01*
X163807000Y-108778000D01*
X163810000Y-108777000D01*
X163812000Y-108777000D01*
X163815000Y-108776000D01*
X163817000Y-108776000D01*
X163820000Y-108775000D01*
X163822000Y-108775000D01*
X163825000Y-108775000D01*
X163975000Y-108775000D01*
X163978000Y-108775000D01*
X163980000Y-108775000D01*
X163983000Y-108776000D01*
G36*
X163983000Y-108776000D02*
G01*
X163985000Y-108776000D01*
X163988000Y-108777000D01*
X163990000Y-108777000D01*
X163993000Y-108778000D01*
X163995000Y-108779000D01*
X163998000Y-108780000D01*
X164000000Y-108782000D01*
X164002000Y-108783000D01*
X164004000Y-108785000D01*
X164006000Y-108786000D01*
X164008000Y-108788000D01*
X164010000Y-108790000D01*
X164012000Y-108792000D01*
X164014000Y-108794000D01*
X164015000Y-108796000D01*
X164017000Y-108798000D01*
X164018000Y-108800000D01*
X164020000Y-108802000D01*
X164021000Y-108805000D01*
X164022000Y-108807000D01*
X164023000Y-108810000D01*
X164023000Y-108812000D01*
X164024000Y-108815000D01*
X164024000Y-108817000D01*
X164025000Y-108820000D01*
X164025000Y-108822000D01*
X164025000Y-108825000D01*
X164025000Y-108975000D01*
X164025000Y-108978000D01*
X164025000Y-108980000D01*
X164024000Y-108983000D01*
X164024000Y-108985000D01*
X164023000Y-108988000D01*
X164023000Y-108990000D01*
X164022000Y-108993000D01*
X164021000Y-108995000D01*
X164020000Y-108998000D01*
X164018000Y-109000000D01*
X164017000Y-109002000D01*
X164015000Y-109004000D01*
X164014000Y-109006000D01*
X164012000Y-109008000D01*
X164010000Y-109010000D01*
X164008000Y-109012000D01*
X164006000Y-109014000D01*
X164004000Y-109015000D01*
X164002000Y-109017000D01*
X164000000Y-109018000D01*
X163998000Y-109020000D01*
X163995000Y-109021000D01*
X163993000Y-109022000D01*
X163990000Y-109023000D01*
X163988000Y-109023000D01*
X163985000Y-109024000D01*
X163983000Y-109024000D01*
X163980000Y-109025000D01*
X163978000Y-109025000D01*
X163975000Y-109025000D01*
X163825000Y-109025000D01*
X163822000Y-109025000D01*
X163820000Y-109025000D01*
X163817000Y-109024000D01*
X163815000Y-109024000D01*
X163812000Y-109023000D01*
X163810000Y-109023000D01*
X163807000Y-109022000D01*
X163805000Y-109021000D01*
X163802000Y-109020000D01*
X163800000Y-109018000D01*
X163798000Y-109017000D01*
X163796000Y-109015000D01*
X163794000Y-109014000D01*
X163792000Y-109012000D01*
X163790000Y-109010000D01*
X163788000Y-109008000D01*
X163786000Y-109006000D01*
X163785000Y-109004000D01*
X163783000Y-109002000D01*
X163782000Y-109000000D01*
X163780000Y-108998000D01*
X163779000Y-108995000D01*
X163778000Y-108993000D01*
X163777000Y-108990000D01*
X163777000Y-108988000D01*
X163776000Y-108985000D01*
X163776000Y-108983000D01*
X163775000Y-108980000D01*
X163775000Y-108978000D01*
X163775000Y-108975000D01*
X163775000Y-108825000D01*
X163775000Y-108822000D01*
X163775000Y-108820000D01*
X163776000Y-108817000D01*
X163776000Y-108815000D01*
X163777000Y-108812000D01*
X163777000Y-108810000D01*
X163778000Y-108807000D01*
X163779000Y-108805000D01*
X163780000Y-108802000D01*
X163782000Y-108800000D01*
X163783000Y-108798000D01*
X163785000Y-108796000D01*
X163786000Y-108794000D01*
X163788000Y-108792000D01*
X163790000Y-108790000D01*
X163792000Y-108788000D01*
X163794000Y-108786000D01*
X163796000Y-108785000D01*
X163798000Y-108783000D01*
X163800000Y-108782000D01*
X163802000Y-108780000D01*
X163805000Y-108779000D01*
X163807000Y-108778000D01*
X163810000Y-108777000D01*
X163812000Y-108777000D01*
X163815000Y-108776000D01*
X163817000Y-108776000D01*
X163820000Y-108775000D01*
X163822000Y-108775000D01*
X163825000Y-108775000D01*
X163975000Y-108775000D01*
X163978000Y-108775000D01*
X163980000Y-108775000D01*
X163983000Y-108776000D01*
G37*
X163983000Y-109176000D02*
X163985000Y-109176000D01*
X163988000Y-109177000D01*
X163990000Y-109177000D01*
X163993000Y-109178000D01*
X163995000Y-109179000D01*
X163998000Y-109180000D01*
X164000000Y-109182000D01*
X164002000Y-109183000D01*
X164004000Y-109185000D01*
X164006000Y-109186000D01*
X164008000Y-109188000D01*
X164010000Y-109190000D01*
X164012000Y-109192000D01*
X164014000Y-109194000D01*
X164015000Y-109196000D01*
X164017000Y-109198000D01*
X164018000Y-109200000D01*
X164020000Y-109202000D01*
X164021000Y-109205000D01*
X164022000Y-109207000D01*
X164023000Y-109210000D01*
X164023000Y-109212000D01*
X164024000Y-109215000D01*
X164024000Y-109217000D01*
X164025000Y-109220000D01*
X164025000Y-109222000D01*
X164025000Y-109225000D01*
X164025000Y-109375000D01*
X164025000Y-109378000D01*
X164025000Y-109380000D01*
X164024000Y-109383000D01*
X164024000Y-109385000D01*
X164023000Y-109388000D01*
X164023000Y-109390000D01*
X164022000Y-109393000D01*
X164021000Y-109395000D01*
X164020000Y-109398000D01*
X164018000Y-109400000D01*
X164017000Y-109402000D01*
X164015000Y-109404000D01*
X164014000Y-109406000D01*
X164012000Y-109408000D01*
X164010000Y-109410000D01*
X164008000Y-109412000D01*
X164006000Y-109414000D01*
X164004000Y-109415000D01*
X164002000Y-109417000D01*
X164000000Y-109418000D01*
X163998000Y-109420000D01*
X163995000Y-109421000D01*
X163993000Y-109422000D01*
X163990000Y-109423000D01*
X163988000Y-109423000D01*
X163985000Y-109424000D01*
X163983000Y-109424000D01*
X163980000Y-109425000D01*
X163978000Y-109425000D01*
X163975000Y-109425000D01*
X163825000Y-109425000D01*
X163822000Y-109425000D01*
X163820000Y-109425000D01*
X163817000Y-109424000D01*
X163815000Y-109424000D01*
X163812000Y-109423000D01*
X163810000Y-109423000D01*
X163807000Y-109422000D01*
X163805000Y-109421000D01*
X163802000Y-109420000D01*
X163800000Y-109418000D01*
X163798000Y-109417000D01*
X163796000Y-109415000D01*
X163794000Y-109414000D01*
X163792000Y-109412000D01*
X163790000Y-109410000D01*
X163788000Y-109408000D01*
X163786000Y-109406000D01*
X163785000Y-109404000D01*
X163783000Y-109402000D01*
X163782000Y-109400000D01*
X163780000Y-109398000D01*
X163779000Y-109395000D01*
X163778000Y-109393000D01*
X163777000Y-109390000D01*
X163777000Y-109388000D01*
X163776000Y-109385000D01*
X163776000Y-109383000D01*
X163775000Y-109380000D01*
X163775000Y-109378000D01*
X163775000Y-109375000D01*
X163775000Y-109225000D01*
X163775000Y-109222000D01*
X163775000Y-109220000D01*
X163776000Y-109217000D01*
X163776000Y-109215000D01*
X163777000Y-109212000D01*
X163777000Y-109210000D01*
X163778000Y-109207000D01*
X163779000Y-109205000D01*
X163780000Y-109202000D01*
X163782000Y-109200000D01*
X163783000Y-109198000D01*
X163785000Y-109196000D01*
X163786000Y-109194000D01*
X163788000Y-109192000D01*
X163790000Y-109190000D01*
X163792000Y-109188000D01*
X163794000Y-109186000D01*
X163796000Y-109185000D01*
X163798000Y-109183000D01*
X163800000Y-109182000D01*
X163802000Y-109180000D01*
X163805000Y-109179000D01*
X163807000Y-109178000D01*
X163810000Y-109177000D01*
X163812000Y-109177000D01*
X163815000Y-109176000D01*
X163817000Y-109176000D01*
X163820000Y-109175000D01*
X163822000Y-109175000D01*
X163825000Y-109175000D01*
X163975000Y-109175000D01*
X163978000Y-109175000D01*
X163980000Y-109175000D01*
X163983000Y-109176000D01*
G36*
X163983000Y-109176000D02*
G01*
X163985000Y-109176000D01*
X163988000Y-109177000D01*
X163990000Y-109177000D01*
X163993000Y-109178000D01*
X163995000Y-109179000D01*
X163998000Y-109180000D01*
X164000000Y-109182000D01*
X164002000Y-109183000D01*
X164004000Y-109185000D01*
X164006000Y-109186000D01*
X164008000Y-109188000D01*
X164010000Y-109190000D01*
X164012000Y-109192000D01*
X164014000Y-109194000D01*
X164015000Y-109196000D01*
X164017000Y-109198000D01*
X164018000Y-109200000D01*
X164020000Y-109202000D01*
X164021000Y-109205000D01*
X164022000Y-109207000D01*
X164023000Y-109210000D01*
X164023000Y-109212000D01*
X164024000Y-109215000D01*
X164024000Y-109217000D01*
X164025000Y-109220000D01*
X164025000Y-109222000D01*
X164025000Y-109225000D01*
X164025000Y-109375000D01*
X164025000Y-109378000D01*
X164025000Y-109380000D01*
X164024000Y-109383000D01*
X164024000Y-109385000D01*
X164023000Y-109388000D01*
X164023000Y-109390000D01*
X164022000Y-109393000D01*
X164021000Y-109395000D01*
X164020000Y-109398000D01*
X164018000Y-109400000D01*
X164017000Y-109402000D01*
X164015000Y-109404000D01*
X164014000Y-109406000D01*
X164012000Y-109408000D01*
X164010000Y-109410000D01*
X164008000Y-109412000D01*
X164006000Y-109414000D01*
X164004000Y-109415000D01*
X164002000Y-109417000D01*
X164000000Y-109418000D01*
X163998000Y-109420000D01*
X163995000Y-109421000D01*
X163993000Y-109422000D01*
X163990000Y-109423000D01*
X163988000Y-109423000D01*
X163985000Y-109424000D01*
X163983000Y-109424000D01*
X163980000Y-109425000D01*
X163978000Y-109425000D01*
X163975000Y-109425000D01*
X163825000Y-109425000D01*
X163822000Y-109425000D01*
X163820000Y-109425000D01*
X163817000Y-109424000D01*
X163815000Y-109424000D01*
X163812000Y-109423000D01*
X163810000Y-109423000D01*
X163807000Y-109422000D01*
X163805000Y-109421000D01*
X163802000Y-109420000D01*
X163800000Y-109418000D01*
X163798000Y-109417000D01*
X163796000Y-109415000D01*
X163794000Y-109414000D01*
X163792000Y-109412000D01*
X163790000Y-109410000D01*
X163788000Y-109408000D01*
X163786000Y-109406000D01*
X163785000Y-109404000D01*
X163783000Y-109402000D01*
X163782000Y-109400000D01*
X163780000Y-109398000D01*
X163779000Y-109395000D01*
X163778000Y-109393000D01*
X163777000Y-109390000D01*
X163777000Y-109388000D01*
X163776000Y-109385000D01*
X163776000Y-109383000D01*
X163775000Y-109380000D01*
X163775000Y-109378000D01*
X163775000Y-109375000D01*
X163775000Y-109225000D01*
X163775000Y-109222000D01*
X163775000Y-109220000D01*
X163776000Y-109217000D01*
X163776000Y-109215000D01*
X163777000Y-109212000D01*
X163777000Y-109210000D01*
X163778000Y-109207000D01*
X163779000Y-109205000D01*
X163780000Y-109202000D01*
X163782000Y-109200000D01*
X163783000Y-109198000D01*
X163785000Y-109196000D01*
X163786000Y-109194000D01*
X163788000Y-109192000D01*
X163790000Y-109190000D01*
X163792000Y-109188000D01*
X163794000Y-109186000D01*
X163796000Y-109185000D01*
X163798000Y-109183000D01*
X163800000Y-109182000D01*
X163802000Y-109180000D01*
X163805000Y-109179000D01*
X163807000Y-109178000D01*
X163810000Y-109177000D01*
X163812000Y-109177000D01*
X163815000Y-109176000D01*
X163817000Y-109176000D01*
X163820000Y-109175000D01*
X163822000Y-109175000D01*
X163825000Y-109175000D01*
X163975000Y-109175000D01*
X163978000Y-109175000D01*
X163980000Y-109175000D01*
X163983000Y-109176000D01*
G37*
X163983000Y-109576000D02*
X163985000Y-109576000D01*
X163988000Y-109577000D01*
X163990000Y-109577000D01*
X163993000Y-109578000D01*
X163995000Y-109579000D01*
X163998000Y-109580000D01*
X164000000Y-109582000D01*
X164002000Y-109583000D01*
X164004000Y-109585000D01*
X164006000Y-109586000D01*
X164008000Y-109588000D01*
X164010000Y-109590000D01*
X164012000Y-109592000D01*
X164014000Y-109594000D01*
X164015000Y-109596000D01*
X164017000Y-109598000D01*
X164018000Y-109600000D01*
X164020000Y-109602000D01*
X164021000Y-109605000D01*
X164022000Y-109607000D01*
X164023000Y-109610000D01*
X164023000Y-109612000D01*
X164024000Y-109615000D01*
X164024000Y-109617000D01*
X164025000Y-109620000D01*
X164025000Y-109622000D01*
X164025000Y-109625000D01*
X164025000Y-109775000D01*
X164025000Y-109778000D01*
X164025000Y-109780000D01*
X164024000Y-109783000D01*
X164024000Y-109785000D01*
X164023000Y-109788000D01*
X164023000Y-109790000D01*
X164022000Y-109793000D01*
X164021000Y-109795000D01*
X164020000Y-109798000D01*
X164018000Y-109800000D01*
X164017000Y-109802000D01*
X164015000Y-109804000D01*
X164014000Y-109806000D01*
X164012000Y-109808000D01*
X164010000Y-109810000D01*
X164008000Y-109812000D01*
X164006000Y-109814000D01*
X164004000Y-109815000D01*
X164002000Y-109817000D01*
X164000000Y-109818000D01*
X163998000Y-109820000D01*
X163995000Y-109821000D01*
X163993000Y-109822000D01*
X163990000Y-109823000D01*
X163988000Y-109823000D01*
X163985000Y-109824000D01*
X163983000Y-109824000D01*
X163980000Y-109825000D01*
X163978000Y-109825000D01*
X163975000Y-109825000D01*
X163825000Y-109825000D01*
X163822000Y-109825000D01*
X163820000Y-109825000D01*
X163817000Y-109824000D01*
X163815000Y-109824000D01*
X163812000Y-109823000D01*
X163810000Y-109823000D01*
X163807000Y-109822000D01*
X163805000Y-109821000D01*
X163802000Y-109820000D01*
X163800000Y-109818000D01*
X163798000Y-109817000D01*
X163796000Y-109815000D01*
X163794000Y-109814000D01*
X163792000Y-109812000D01*
X163790000Y-109810000D01*
X163788000Y-109808000D01*
X163786000Y-109806000D01*
X163785000Y-109804000D01*
X163783000Y-109802000D01*
X163782000Y-109800000D01*
X163780000Y-109798000D01*
X163779000Y-109795000D01*
X163778000Y-109793000D01*
X163777000Y-109790000D01*
X163777000Y-109788000D01*
X163776000Y-109785000D01*
X163776000Y-109783000D01*
X163775000Y-109780000D01*
X163775000Y-109778000D01*
X163775000Y-109775000D01*
X163775000Y-109625000D01*
X163775000Y-109622000D01*
X163775000Y-109620000D01*
X163776000Y-109617000D01*
X163776000Y-109615000D01*
X163777000Y-109612000D01*
X163777000Y-109610000D01*
X163778000Y-109607000D01*
X163779000Y-109605000D01*
X163780000Y-109602000D01*
X163782000Y-109600000D01*
X163783000Y-109598000D01*
X163785000Y-109596000D01*
X163786000Y-109594000D01*
X163788000Y-109592000D01*
X163790000Y-109590000D01*
X163792000Y-109588000D01*
X163794000Y-109586000D01*
X163796000Y-109585000D01*
X163798000Y-109583000D01*
X163800000Y-109582000D01*
X163802000Y-109580000D01*
X163805000Y-109579000D01*
X163807000Y-109578000D01*
X163810000Y-109577000D01*
X163812000Y-109577000D01*
X163815000Y-109576000D01*
X163817000Y-109576000D01*
X163820000Y-109575000D01*
X163822000Y-109575000D01*
X163825000Y-109575000D01*
X163975000Y-109575000D01*
X163978000Y-109575000D01*
X163980000Y-109575000D01*
X163983000Y-109576000D01*
G36*
X163983000Y-109576000D02*
G01*
X163985000Y-109576000D01*
X163988000Y-109577000D01*
X163990000Y-109577000D01*
X163993000Y-109578000D01*
X163995000Y-109579000D01*
X163998000Y-109580000D01*
X164000000Y-109582000D01*
X164002000Y-109583000D01*
X164004000Y-109585000D01*
X164006000Y-109586000D01*
X164008000Y-109588000D01*
X164010000Y-109590000D01*
X164012000Y-109592000D01*
X164014000Y-109594000D01*
X164015000Y-109596000D01*
X164017000Y-109598000D01*
X164018000Y-109600000D01*
X164020000Y-109602000D01*
X164021000Y-109605000D01*
X164022000Y-109607000D01*
X164023000Y-109610000D01*
X164023000Y-109612000D01*
X164024000Y-109615000D01*
X164024000Y-109617000D01*
X164025000Y-109620000D01*
X164025000Y-109622000D01*
X164025000Y-109625000D01*
X164025000Y-109775000D01*
X164025000Y-109778000D01*
X164025000Y-109780000D01*
X164024000Y-109783000D01*
X164024000Y-109785000D01*
X164023000Y-109788000D01*
X164023000Y-109790000D01*
X164022000Y-109793000D01*
X164021000Y-109795000D01*
X164020000Y-109798000D01*
X164018000Y-109800000D01*
X164017000Y-109802000D01*
X164015000Y-109804000D01*
X164014000Y-109806000D01*
X164012000Y-109808000D01*
X164010000Y-109810000D01*
X164008000Y-109812000D01*
X164006000Y-109814000D01*
X164004000Y-109815000D01*
X164002000Y-109817000D01*
X164000000Y-109818000D01*
X163998000Y-109820000D01*
X163995000Y-109821000D01*
X163993000Y-109822000D01*
X163990000Y-109823000D01*
X163988000Y-109823000D01*
X163985000Y-109824000D01*
X163983000Y-109824000D01*
X163980000Y-109825000D01*
X163978000Y-109825000D01*
X163975000Y-109825000D01*
X163825000Y-109825000D01*
X163822000Y-109825000D01*
X163820000Y-109825000D01*
X163817000Y-109824000D01*
X163815000Y-109824000D01*
X163812000Y-109823000D01*
X163810000Y-109823000D01*
X163807000Y-109822000D01*
X163805000Y-109821000D01*
X163802000Y-109820000D01*
X163800000Y-109818000D01*
X163798000Y-109817000D01*
X163796000Y-109815000D01*
X163794000Y-109814000D01*
X163792000Y-109812000D01*
X163790000Y-109810000D01*
X163788000Y-109808000D01*
X163786000Y-109806000D01*
X163785000Y-109804000D01*
X163783000Y-109802000D01*
X163782000Y-109800000D01*
X163780000Y-109798000D01*
X163779000Y-109795000D01*
X163778000Y-109793000D01*
X163777000Y-109790000D01*
X163777000Y-109788000D01*
X163776000Y-109785000D01*
X163776000Y-109783000D01*
X163775000Y-109780000D01*
X163775000Y-109778000D01*
X163775000Y-109775000D01*
X163775000Y-109625000D01*
X163775000Y-109622000D01*
X163775000Y-109620000D01*
X163776000Y-109617000D01*
X163776000Y-109615000D01*
X163777000Y-109612000D01*
X163777000Y-109610000D01*
X163778000Y-109607000D01*
X163779000Y-109605000D01*
X163780000Y-109602000D01*
X163782000Y-109600000D01*
X163783000Y-109598000D01*
X163785000Y-109596000D01*
X163786000Y-109594000D01*
X163788000Y-109592000D01*
X163790000Y-109590000D01*
X163792000Y-109588000D01*
X163794000Y-109586000D01*
X163796000Y-109585000D01*
X163798000Y-109583000D01*
X163800000Y-109582000D01*
X163802000Y-109580000D01*
X163805000Y-109579000D01*
X163807000Y-109578000D01*
X163810000Y-109577000D01*
X163812000Y-109577000D01*
X163815000Y-109576000D01*
X163817000Y-109576000D01*
X163820000Y-109575000D01*
X163822000Y-109575000D01*
X163825000Y-109575000D01*
X163975000Y-109575000D01*
X163978000Y-109575000D01*
X163980000Y-109575000D01*
X163983000Y-109576000D01*
G37*
X163983000Y-109976000D02*
X163985000Y-109976000D01*
X163988000Y-109977000D01*
X163990000Y-109977000D01*
X163993000Y-109978000D01*
X163995000Y-109979000D01*
X163998000Y-109980000D01*
X164000000Y-109982000D01*
X164002000Y-109983000D01*
X164004000Y-109985000D01*
X164006000Y-109986000D01*
X164008000Y-109988000D01*
X164010000Y-109990000D01*
X164012000Y-109992000D01*
X164014000Y-109994000D01*
X164015000Y-109996000D01*
X164017000Y-109998000D01*
X164018000Y-110000000D01*
X164020000Y-110002000D01*
X164021000Y-110005000D01*
X164022000Y-110007000D01*
X164023000Y-110010000D01*
X164023000Y-110012000D01*
X164024000Y-110015000D01*
X164024000Y-110017000D01*
X164025000Y-110020000D01*
X164025000Y-110022000D01*
X164025000Y-110025000D01*
X164025000Y-110175000D01*
X164025000Y-110178000D01*
X164025000Y-110180000D01*
X164024000Y-110183000D01*
X164024000Y-110185000D01*
X164023000Y-110188000D01*
X164023000Y-110190000D01*
X164022000Y-110193000D01*
X164021000Y-110195000D01*
X164020000Y-110198000D01*
X164018000Y-110200000D01*
X164017000Y-110202000D01*
X164015000Y-110204000D01*
X164014000Y-110206000D01*
X164012000Y-110208000D01*
X164010000Y-110210000D01*
X164008000Y-110212000D01*
X164006000Y-110214000D01*
X164004000Y-110215000D01*
X164002000Y-110217000D01*
X164000000Y-110218000D01*
X163998000Y-110220000D01*
X163995000Y-110221000D01*
X163993000Y-110222000D01*
X163990000Y-110223000D01*
X163988000Y-110223000D01*
X163985000Y-110224000D01*
X163983000Y-110224000D01*
X163980000Y-110225000D01*
X163978000Y-110225000D01*
X163975000Y-110225000D01*
X163825000Y-110225000D01*
X163822000Y-110225000D01*
X163820000Y-110225000D01*
X163817000Y-110224000D01*
X163815000Y-110224000D01*
X163812000Y-110223000D01*
X163810000Y-110223000D01*
X163807000Y-110222000D01*
X163805000Y-110221000D01*
X163802000Y-110220000D01*
X163800000Y-110218000D01*
X163798000Y-110217000D01*
X163796000Y-110215000D01*
X163794000Y-110214000D01*
X163792000Y-110212000D01*
X163790000Y-110210000D01*
X163788000Y-110208000D01*
X163786000Y-110206000D01*
X163785000Y-110204000D01*
X163783000Y-110202000D01*
X163782000Y-110200000D01*
X163780000Y-110198000D01*
X163779000Y-110195000D01*
X163778000Y-110193000D01*
X163777000Y-110190000D01*
X163777000Y-110188000D01*
X163776000Y-110185000D01*
X163776000Y-110183000D01*
X163775000Y-110180000D01*
X163775000Y-110178000D01*
X163775000Y-110175000D01*
X163775000Y-110025000D01*
X163775000Y-110022000D01*
X163775000Y-110020000D01*
X163776000Y-110017000D01*
X163776000Y-110015000D01*
X163777000Y-110012000D01*
X163777000Y-110010000D01*
X163778000Y-110007000D01*
X163779000Y-110005000D01*
X163780000Y-110002000D01*
X163782000Y-110000000D01*
X163783000Y-109998000D01*
X163785000Y-109996000D01*
X163786000Y-109994000D01*
X163788000Y-109992000D01*
X163790000Y-109990000D01*
X163792000Y-109988000D01*
X163794000Y-109986000D01*
X163796000Y-109985000D01*
X163798000Y-109983000D01*
X163800000Y-109982000D01*
X163802000Y-109980000D01*
X163805000Y-109979000D01*
X163807000Y-109978000D01*
X163810000Y-109977000D01*
X163812000Y-109977000D01*
X163815000Y-109976000D01*
X163817000Y-109976000D01*
X163820000Y-109975000D01*
X163822000Y-109975000D01*
X163825000Y-109975000D01*
X163975000Y-109975000D01*
X163978000Y-109975000D01*
X163980000Y-109975000D01*
X163983000Y-109976000D01*
G36*
X163983000Y-109976000D02*
G01*
X163985000Y-109976000D01*
X163988000Y-109977000D01*
X163990000Y-109977000D01*
X163993000Y-109978000D01*
X163995000Y-109979000D01*
X163998000Y-109980000D01*
X164000000Y-109982000D01*
X164002000Y-109983000D01*
X164004000Y-109985000D01*
X164006000Y-109986000D01*
X164008000Y-109988000D01*
X164010000Y-109990000D01*
X164012000Y-109992000D01*
X164014000Y-109994000D01*
X164015000Y-109996000D01*
X164017000Y-109998000D01*
X164018000Y-110000000D01*
X164020000Y-110002000D01*
X164021000Y-110005000D01*
X164022000Y-110007000D01*
X164023000Y-110010000D01*
X164023000Y-110012000D01*
X164024000Y-110015000D01*
X164024000Y-110017000D01*
X164025000Y-110020000D01*
X164025000Y-110022000D01*
X164025000Y-110025000D01*
X164025000Y-110175000D01*
X164025000Y-110178000D01*
X164025000Y-110180000D01*
X164024000Y-110183000D01*
X164024000Y-110185000D01*
X164023000Y-110188000D01*
X164023000Y-110190000D01*
X164022000Y-110193000D01*
X164021000Y-110195000D01*
X164020000Y-110198000D01*
X164018000Y-110200000D01*
X164017000Y-110202000D01*
X164015000Y-110204000D01*
X164014000Y-110206000D01*
X164012000Y-110208000D01*
X164010000Y-110210000D01*
X164008000Y-110212000D01*
X164006000Y-110214000D01*
X164004000Y-110215000D01*
X164002000Y-110217000D01*
X164000000Y-110218000D01*
X163998000Y-110220000D01*
X163995000Y-110221000D01*
X163993000Y-110222000D01*
X163990000Y-110223000D01*
X163988000Y-110223000D01*
X163985000Y-110224000D01*
X163983000Y-110224000D01*
X163980000Y-110225000D01*
X163978000Y-110225000D01*
X163975000Y-110225000D01*
X163825000Y-110225000D01*
X163822000Y-110225000D01*
X163820000Y-110225000D01*
X163817000Y-110224000D01*
X163815000Y-110224000D01*
X163812000Y-110223000D01*
X163810000Y-110223000D01*
X163807000Y-110222000D01*
X163805000Y-110221000D01*
X163802000Y-110220000D01*
X163800000Y-110218000D01*
X163798000Y-110217000D01*
X163796000Y-110215000D01*
X163794000Y-110214000D01*
X163792000Y-110212000D01*
X163790000Y-110210000D01*
X163788000Y-110208000D01*
X163786000Y-110206000D01*
X163785000Y-110204000D01*
X163783000Y-110202000D01*
X163782000Y-110200000D01*
X163780000Y-110198000D01*
X163779000Y-110195000D01*
X163778000Y-110193000D01*
X163777000Y-110190000D01*
X163777000Y-110188000D01*
X163776000Y-110185000D01*
X163776000Y-110183000D01*
X163775000Y-110180000D01*
X163775000Y-110178000D01*
X163775000Y-110175000D01*
X163775000Y-110025000D01*
X163775000Y-110022000D01*
X163775000Y-110020000D01*
X163776000Y-110017000D01*
X163776000Y-110015000D01*
X163777000Y-110012000D01*
X163777000Y-110010000D01*
X163778000Y-110007000D01*
X163779000Y-110005000D01*
X163780000Y-110002000D01*
X163782000Y-110000000D01*
X163783000Y-109998000D01*
X163785000Y-109996000D01*
X163786000Y-109994000D01*
X163788000Y-109992000D01*
X163790000Y-109990000D01*
X163792000Y-109988000D01*
X163794000Y-109986000D01*
X163796000Y-109985000D01*
X163798000Y-109983000D01*
X163800000Y-109982000D01*
X163802000Y-109980000D01*
X163805000Y-109979000D01*
X163807000Y-109978000D01*
X163810000Y-109977000D01*
X163812000Y-109977000D01*
X163815000Y-109976000D01*
X163817000Y-109976000D01*
X163820000Y-109975000D01*
X163822000Y-109975000D01*
X163825000Y-109975000D01*
X163975000Y-109975000D01*
X163978000Y-109975000D01*
X163980000Y-109975000D01*
X163983000Y-109976000D01*
G37*
X164383000Y-108776000D02*
X164385000Y-108776000D01*
X164388000Y-108777000D01*
X164390000Y-108777000D01*
X164393000Y-108778000D01*
X164395000Y-108779000D01*
X164398000Y-108780000D01*
X164400000Y-108782000D01*
X164402000Y-108783000D01*
X164404000Y-108785000D01*
X164406000Y-108786000D01*
X164408000Y-108788000D01*
X164410000Y-108790000D01*
X164412000Y-108792000D01*
X164414000Y-108794000D01*
X164415000Y-108796000D01*
X164417000Y-108798000D01*
X164418000Y-108800000D01*
X164420000Y-108802000D01*
X164421000Y-108805000D01*
X164422000Y-108807000D01*
X164423000Y-108810000D01*
X164423000Y-108812000D01*
X164424000Y-108815000D01*
X164424000Y-108817000D01*
X164425000Y-108820000D01*
X164425000Y-108822000D01*
X164425000Y-108825000D01*
X164425000Y-108975000D01*
X164425000Y-108978000D01*
X164425000Y-108980000D01*
X164424000Y-108983000D01*
X164424000Y-108985000D01*
X164423000Y-108988000D01*
X164423000Y-108990000D01*
X164422000Y-108993000D01*
X164421000Y-108995000D01*
X164420000Y-108998000D01*
X164418000Y-109000000D01*
X164417000Y-109002000D01*
X164415000Y-109004000D01*
X164414000Y-109006000D01*
X164412000Y-109008000D01*
X164410000Y-109010000D01*
X164408000Y-109012000D01*
X164406000Y-109014000D01*
X164404000Y-109015000D01*
X164402000Y-109017000D01*
X164400000Y-109018000D01*
X164398000Y-109020000D01*
X164395000Y-109021000D01*
X164393000Y-109022000D01*
X164390000Y-109023000D01*
X164388000Y-109023000D01*
X164385000Y-109024000D01*
X164383000Y-109024000D01*
X164380000Y-109025000D01*
X164378000Y-109025000D01*
X164375000Y-109025000D01*
X164225000Y-109025000D01*
X164222000Y-109025000D01*
X164220000Y-109025000D01*
X164217000Y-109024000D01*
X164215000Y-109024000D01*
X164212000Y-109023000D01*
X164210000Y-109023000D01*
X164207000Y-109022000D01*
X164205000Y-109021000D01*
X164202000Y-109020000D01*
X164200000Y-109018000D01*
X164198000Y-109017000D01*
X164196000Y-109015000D01*
X164194000Y-109014000D01*
X164192000Y-109012000D01*
X164190000Y-109010000D01*
X164188000Y-109008000D01*
X164186000Y-109006000D01*
X164185000Y-109004000D01*
X164183000Y-109002000D01*
X164182000Y-109000000D01*
X164180000Y-108998000D01*
X164179000Y-108995000D01*
X164178000Y-108993000D01*
X164177000Y-108990000D01*
X164177000Y-108988000D01*
X164176000Y-108985000D01*
X164176000Y-108983000D01*
X164175000Y-108980000D01*
X164175000Y-108978000D01*
X164175000Y-108975000D01*
X164175000Y-108825000D01*
X164175000Y-108822000D01*
X164175000Y-108820000D01*
X164176000Y-108817000D01*
X164176000Y-108815000D01*
X164177000Y-108812000D01*
X164177000Y-108810000D01*
X164178000Y-108807000D01*
X164179000Y-108805000D01*
X164180000Y-108802000D01*
X164182000Y-108800000D01*
X164183000Y-108798000D01*
X164185000Y-108796000D01*
X164186000Y-108794000D01*
X164188000Y-108792000D01*
X164190000Y-108790000D01*
X164192000Y-108788000D01*
X164194000Y-108786000D01*
X164196000Y-108785000D01*
X164198000Y-108783000D01*
X164200000Y-108782000D01*
X164202000Y-108780000D01*
X164205000Y-108779000D01*
X164207000Y-108778000D01*
X164210000Y-108777000D01*
X164212000Y-108777000D01*
X164215000Y-108776000D01*
X164217000Y-108776000D01*
X164220000Y-108775000D01*
X164222000Y-108775000D01*
X164225000Y-108775000D01*
X164375000Y-108775000D01*
X164378000Y-108775000D01*
X164380000Y-108775000D01*
X164383000Y-108776000D01*
G36*
X164383000Y-108776000D02*
G01*
X164385000Y-108776000D01*
X164388000Y-108777000D01*
X164390000Y-108777000D01*
X164393000Y-108778000D01*
X164395000Y-108779000D01*
X164398000Y-108780000D01*
X164400000Y-108782000D01*
X164402000Y-108783000D01*
X164404000Y-108785000D01*
X164406000Y-108786000D01*
X164408000Y-108788000D01*
X164410000Y-108790000D01*
X164412000Y-108792000D01*
X164414000Y-108794000D01*
X164415000Y-108796000D01*
X164417000Y-108798000D01*
X164418000Y-108800000D01*
X164420000Y-108802000D01*
X164421000Y-108805000D01*
X164422000Y-108807000D01*
X164423000Y-108810000D01*
X164423000Y-108812000D01*
X164424000Y-108815000D01*
X164424000Y-108817000D01*
X164425000Y-108820000D01*
X164425000Y-108822000D01*
X164425000Y-108825000D01*
X164425000Y-108975000D01*
X164425000Y-108978000D01*
X164425000Y-108980000D01*
X164424000Y-108983000D01*
X164424000Y-108985000D01*
X164423000Y-108988000D01*
X164423000Y-108990000D01*
X164422000Y-108993000D01*
X164421000Y-108995000D01*
X164420000Y-108998000D01*
X164418000Y-109000000D01*
X164417000Y-109002000D01*
X164415000Y-109004000D01*
X164414000Y-109006000D01*
X164412000Y-109008000D01*
X164410000Y-109010000D01*
X164408000Y-109012000D01*
X164406000Y-109014000D01*
X164404000Y-109015000D01*
X164402000Y-109017000D01*
X164400000Y-109018000D01*
X164398000Y-109020000D01*
X164395000Y-109021000D01*
X164393000Y-109022000D01*
X164390000Y-109023000D01*
X164388000Y-109023000D01*
X164385000Y-109024000D01*
X164383000Y-109024000D01*
X164380000Y-109025000D01*
X164378000Y-109025000D01*
X164375000Y-109025000D01*
X164225000Y-109025000D01*
X164222000Y-109025000D01*
X164220000Y-109025000D01*
X164217000Y-109024000D01*
X164215000Y-109024000D01*
X164212000Y-109023000D01*
X164210000Y-109023000D01*
X164207000Y-109022000D01*
X164205000Y-109021000D01*
X164202000Y-109020000D01*
X164200000Y-109018000D01*
X164198000Y-109017000D01*
X164196000Y-109015000D01*
X164194000Y-109014000D01*
X164192000Y-109012000D01*
X164190000Y-109010000D01*
X164188000Y-109008000D01*
X164186000Y-109006000D01*
X164185000Y-109004000D01*
X164183000Y-109002000D01*
X164182000Y-109000000D01*
X164180000Y-108998000D01*
X164179000Y-108995000D01*
X164178000Y-108993000D01*
X164177000Y-108990000D01*
X164177000Y-108988000D01*
X164176000Y-108985000D01*
X164176000Y-108983000D01*
X164175000Y-108980000D01*
X164175000Y-108978000D01*
X164175000Y-108975000D01*
X164175000Y-108825000D01*
X164175000Y-108822000D01*
X164175000Y-108820000D01*
X164176000Y-108817000D01*
X164176000Y-108815000D01*
X164177000Y-108812000D01*
X164177000Y-108810000D01*
X164178000Y-108807000D01*
X164179000Y-108805000D01*
X164180000Y-108802000D01*
X164182000Y-108800000D01*
X164183000Y-108798000D01*
X164185000Y-108796000D01*
X164186000Y-108794000D01*
X164188000Y-108792000D01*
X164190000Y-108790000D01*
X164192000Y-108788000D01*
X164194000Y-108786000D01*
X164196000Y-108785000D01*
X164198000Y-108783000D01*
X164200000Y-108782000D01*
X164202000Y-108780000D01*
X164205000Y-108779000D01*
X164207000Y-108778000D01*
X164210000Y-108777000D01*
X164212000Y-108777000D01*
X164215000Y-108776000D01*
X164217000Y-108776000D01*
X164220000Y-108775000D01*
X164222000Y-108775000D01*
X164225000Y-108775000D01*
X164375000Y-108775000D01*
X164378000Y-108775000D01*
X164380000Y-108775000D01*
X164383000Y-108776000D01*
G37*
X164383000Y-109176000D02*
X164385000Y-109176000D01*
X164388000Y-109177000D01*
X164390000Y-109177000D01*
X164393000Y-109178000D01*
X164395000Y-109179000D01*
X164398000Y-109180000D01*
X164400000Y-109182000D01*
X164402000Y-109183000D01*
X164404000Y-109185000D01*
X164406000Y-109186000D01*
X164408000Y-109188000D01*
X164410000Y-109190000D01*
X164412000Y-109192000D01*
X164414000Y-109194000D01*
X164415000Y-109196000D01*
X164417000Y-109198000D01*
X164418000Y-109200000D01*
X164420000Y-109202000D01*
X164421000Y-109205000D01*
X164422000Y-109207000D01*
X164423000Y-109210000D01*
X164423000Y-109212000D01*
X164424000Y-109215000D01*
X164424000Y-109217000D01*
X164425000Y-109220000D01*
X164425000Y-109222000D01*
X164425000Y-109225000D01*
X164425000Y-109375000D01*
X164425000Y-109378000D01*
X164425000Y-109380000D01*
X164424000Y-109383000D01*
X164424000Y-109385000D01*
X164423000Y-109388000D01*
X164423000Y-109390000D01*
X164422000Y-109393000D01*
X164421000Y-109395000D01*
X164420000Y-109398000D01*
X164418000Y-109400000D01*
X164417000Y-109402000D01*
X164415000Y-109404000D01*
X164414000Y-109406000D01*
X164412000Y-109408000D01*
X164410000Y-109410000D01*
X164408000Y-109412000D01*
X164406000Y-109414000D01*
X164404000Y-109415000D01*
X164402000Y-109417000D01*
X164400000Y-109418000D01*
X164398000Y-109420000D01*
X164395000Y-109421000D01*
X164393000Y-109422000D01*
X164390000Y-109423000D01*
X164388000Y-109423000D01*
X164385000Y-109424000D01*
X164383000Y-109424000D01*
X164380000Y-109425000D01*
X164378000Y-109425000D01*
X164375000Y-109425000D01*
X164225000Y-109425000D01*
X164222000Y-109425000D01*
X164220000Y-109425000D01*
X164217000Y-109424000D01*
X164215000Y-109424000D01*
X164212000Y-109423000D01*
X164210000Y-109423000D01*
X164207000Y-109422000D01*
X164205000Y-109421000D01*
X164202000Y-109420000D01*
X164200000Y-109418000D01*
X164198000Y-109417000D01*
X164196000Y-109415000D01*
X164194000Y-109414000D01*
X164192000Y-109412000D01*
X164190000Y-109410000D01*
X164188000Y-109408000D01*
X164186000Y-109406000D01*
X164185000Y-109404000D01*
X164183000Y-109402000D01*
X164182000Y-109400000D01*
X164180000Y-109398000D01*
X164179000Y-109395000D01*
X164178000Y-109393000D01*
X164177000Y-109390000D01*
X164177000Y-109388000D01*
X164176000Y-109385000D01*
X164176000Y-109383000D01*
X164175000Y-109380000D01*
X164175000Y-109378000D01*
X164175000Y-109375000D01*
X164175000Y-109225000D01*
X164175000Y-109222000D01*
X164175000Y-109220000D01*
X164176000Y-109217000D01*
X164176000Y-109215000D01*
X164177000Y-109212000D01*
X164177000Y-109210000D01*
X164178000Y-109207000D01*
X164179000Y-109205000D01*
X164180000Y-109202000D01*
X164182000Y-109200000D01*
X164183000Y-109198000D01*
X164185000Y-109196000D01*
X164186000Y-109194000D01*
X164188000Y-109192000D01*
X164190000Y-109190000D01*
X164192000Y-109188000D01*
X164194000Y-109186000D01*
X164196000Y-109185000D01*
X164198000Y-109183000D01*
X164200000Y-109182000D01*
X164202000Y-109180000D01*
X164205000Y-109179000D01*
X164207000Y-109178000D01*
X164210000Y-109177000D01*
X164212000Y-109177000D01*
X164215000Y-109176000D01*
X164217000Y-109176000D01*
X164220000Y-109175000D01*
X164222000Y-109175000D01*
X164225000Y-109175000D01*
X164375000Y-109175000D01*
X164378000Y-109175000D01*
X164380000Y-109175000D01*
X164383000Y-109176000D01*
G36*
X164383000Y-109176000D02*
G01*
X164385000Y-109176000D01*
X164388000Y-109177000D01*
X164390000Y-109177000D01*
X164393000Y-109178000D01*
X164395000Y-109179000D01*
X164398000Y-109180000D01*
X164400000Y-109182000D01*
X164402000Y-109183000D01*
X164404000Y-109185000D01*
X164406000Y-109186000D01*
X164408000Y-109188000D01*
X164410000Y-109190000D01*
X164412000Y-109192000D01*
X164414000Y-109194000D01*
X164415000Y-109196000D01*
X164417000Y-109198000D01*
X164418000Y-109200000D01*
X164420000Y-109202000D01*
X164421000Y-109205000D01*
X164422000Y-109207000D01*
X164423000Y-109210000D01*
X164423000Y-109212000D01*
X164424000Y-109215000D01*
X164424000Y-109217000D01*
X164425000Y-109220000D01*
X164425000Y-109222000D01*
X164425000Y-109225000D01*
X164425000Y-109375000D01*
X164425000Y-109378000D01*
X164425000Y-109380000D01*
X164424000Y-109383000D01*
X164424000Y-109385000D01*
X164423000Y-109388000D01*
X164423000Y-109390000D01*
X164422000Y-109393000D01*
X164421000Y-109395000D01*
X164420000Y-109398000D01*
X164418000Y-109400000D01*
X164417000Y-109402000D01*
X164415000Y-109404000D01*
X164414000Y-109406000D01*
X164412000Y-109408000D01*
X164410000Y-109410000D01*
X164408000Y-109412000D01*
X164406000Y-109414000D01*
X164404000Y-109415000D01*
X164402000Y-109417000D01*
X164400000Y-109418000D01*
X164398000Y-109420000D01*
X164395000Y-109421000D01*
X164393000Y-109422000D01*
X164390000Y-109423000D01*
X164388000Y-109423000D01*
X164385000Y-109424000D01*
X164383000Y-109424000D01*
X164380000Y-109425000D01*
X164378000Y-109425000D01*
X164375000Y-109425000D01*
X164225000Y-109425000D01*
X164222000Y-109425000D01*
X164220000Y-109425000D01*
X164217000Y-109424000D01*
X164215000Y-109424000D01*
X164212000Y-109423000D01*
X164210000Y-109423000D01*
X164207000Y-109422000D01*
X164205000Y-109421000D01*
X164202000Y-109420000D01*
X164200000Y-109418000D01*
X164198000Y-109417000D01*
X164196000Y-109415000D01*
X164194000Y-109414000D01*
X164192000Y-109412000D01*
X164190000Y-109410000D01*
X164188000Y-109408000D01*
X164186000Y-109406000D01*
X164185000Y-109404000D01*
X164183000Y-109402000D01*
X164182000Y-109400000D01*
X164180000Y-109398000D01*
X164179000Y-109395000D01*
X164178000Y-109393000D01*
X164177000Y-109390000D01*
X164177000Y-109388000D01*
X164176000Y-109385000D01*
X164176000Y-109383000D01*
X164175000Y-109380000D01*
X164175000Y-109378000D01*
X164175000Y-109375000D01*
X164175000Y-109225000D01*
X164175000Y-109222000D01*
X164175000Y-109220000D01*
X164176000Y-109217000D01*
X164176000Y-109215000D01*
X164177000Y-109212000D01*
X164177000Y-109210000D01*
X164178000Y-109207000D01*
X164179000Y-109205000D01*
X164180000Y-109202000D01*
X164182000Y-109200000D01*
X164183000Y-109198000D01*
X164185000Y-109196000D01*
X164186000Y-109194000D01*
X164188000Y-109192000D01*
X164190000Y-109190000D01*
X164192000Y-109188000D01*
X164194000Y-109186000D01*
X164196000Y-109185000D01*
X164198000Y-109183000D01*
X164200000Y-109182000D01*
X164202000Y-109180000D01*
X164205000Y-109179000D01*
X164207000Y-109178000D01*
X164210000Y-109177000D01*
X164212000Y-109177000D01*
X164215000Y-109176000D01*
X164217000Y-109176000D01*
X164220000Y-109175000D01*
X164222000Y-109175000D01*
X164225000Y-109175000D01*
X164375000Y-109175000D01*
X164378000Y-109175000D01*
X164380000Y-109175000D01*
X164383000Y-109176000D01*
G37*
X164383000Y-109576000D02*
X164385000Y-109576000D01*
X164388000Y-109577000D01*
X164390000Y-109577000D01*
X164393000Y-109578000D01*
X164395000Y-109579000D01*
X164398000Y-109580000D01*
X164400000Y-109582000D01*
X164402000Y-109583000D01*
X164404000Y-109585000D01*
X164406000Y-109586000D01*
X164408000Y-109588000D01*
X164410000Y-109590000D01*
X164412000Y-109592000D01*
X164414000Y-109594000D01*
X164415000Y-109596000D01*
X164417000Y-109598000D01*
X164418000Y-109600000D01*
X164420000Y-109602000D01*
X164421000Y-109605000D01*
X164422000Y-109607000D01*
X164423000Y-109610000D01*
X164423000Y-109612000D01*
X164424000Y-109615000D01*
X164424000Y-109617000D01*
X164425000Y-109620000D01*
X164425000Y-109622000D01*
X164425000Y-109625000D01*
X164425000Y-109775000D01*
X164425000Y-109778000D01*
X164425000Y-109780000D01*
X164424000Y-109783000D01*
X164424000Y-109785000D01*
X164423000Y-109788000D01*
X164423000Y-109790000D01*
X164422000Y-109793000D01*
X164421000Y-109795000D01*
X164420000Y-109798000D01*
X164418000Y-109800000D01*
X164417000Y-109802000D01*
X164415000Y-109804000D01*
X164414000Y-109806000D01*
X164412000Y-109808000D01*
X164410000Y-109810000D01*
X164408000Y-109812000D01*
X164406000Y-109814000D01*
X164404000Y-109815000D01*
X164402000Y-109817000D01*
X164400000Y-109818000D01*
X164398000Y-109820000D01*
X164395000Y-109821000D01*
X164393000Y-109822000D01*
X164390000Y-109823000D01*
X164388000Y-109823000D01*
X164385000Y-109824000D01*
X164383000Y-109824000D01*
X164380000Y-109825000D01*
X164378000Y-109825000D01*
X164375000Y-109825000D01*
X164225000Y-109825000D01*
X164222000Y-109825000D01*
X164220000Y-109825000D01*
X164217000Y-109824000D01*
X164215000Y-109824000D01*
X164212000Y-109823000D01*
X164210000Y-109823000D01*
X164207000Y-109822000D01*
X164205000Y-109821000D01*
X164202000Y-109820000D01*
X164200000Y-109818000D01*
X164198000Y-109817000D01*
X164196000Y-109815000D01*
X164194000Y-109814000D01*
X164192000Y-109812000D01*
X164190000Y-109810000D01*
X164188000Y-109808000D01*
X164186000Y-109806000D01*
X164185000Y-109804000D01*
X164183000Y-109802000D01*
X164182000Y-109800000D01*
X164180000Y-109798000D01*
X164179000Y-109795000D01*
X164178000Y-109793000D01*
X164177000Y-109790000D01*
X164177000Y-109788000D01*
X164176000Y-109785000D01*
X164176000Y-109783000D01*
X164175000Y-109780000D01*
X164175000Y-109778000D01*
X164175000Y-109775000D01*
X164175000Y-109625000D01*
X164175000Y-109622000D01*
X164175000Y-109620000D01*
X164176000Y-109617000D01*
X164176000Y-109615000D01*
X164177000Y-109612000D01*
X164177000Y-109610000D01*
X164178000Y-109607000D01*
X164179000Y-109605000D01*
X164180000Y-109602000D01*
X164182000Y-109600000D01*
X164183000Y-109598000D01*
X164185000Y-109596000D01*
X164186000Y-109594000D01*
X164188000Y-109592000D01*
X164190000Y-109590000D01*
X164192000Y-109588000D01*
X164194000Y-109586000D01*
X164196000Y-109585000D01*
X164198000Y-109583000D01*
X164200000Y-109582000D01*
X164202000Y-109580000D01*
X164205000Y-109579000D01*
X164207000Y-109578000D01*
X164210000Y-109577000D01*
X164212000Y-109577000D01*
X164215000Y-109576000D01*
X164217000Y-109576000D01*
X164220000Y-109575000D01*
X164222000Y-109575000D01*
X164225000Y-109575000D01*
X164375000Y-109575000D01*
X164378000Y-109575000D01*
X164380000Y-109575000D01*
X164383000Y-109576000D01*
G36*
X164383000Y-109576000D02*
G01*
X164385000Y-109576000D01*
X164388000Y-109577000D01*
X164390000Y-109577000D01*
X164393000Y-109578000D01*
X164395000Y-109579000D01*
X164398000Y-109580000D01*
X164400000Y-109582000D01*
X164402000Y-109583000D01*
X164404000Y-109585000D01*
X164406000Y-109586000D01*
X164408000Y-109588000D01*
X164410000Y-109590000D01*
X164412000Y-109592000D01*
X164414000Y-109594000D01*
X164415000Y-109596000D01*
X164417000Y-109598000D01*
X164418000Y-109600000D01*
X164420000Y-109602000D01*
X164421000Y-109605000D01*
X164422000Y-109607000D01*
X164423000Y-109610000D01*
X164423000Y-109612000D01*
X164424000Y-109615000D01*
X164424000Y-109617000D01*
X164425000Y-109620000D01*
X164425000Y-109622000D01*
X164425000Y-109625000D01*
X164425000Y-109775000D01*
X164425000Y-109778000D01*
X164425000Y-109780000D01*
X164424000Y-109783000D01*
X164424000Y-109785000D01*
X164423000Y-109788000D01*
X164423000Y-109790000D01*
X164422000Y-109793000D01*
X164421000Y-109795000D01*
X164420000Y-109798000D01*
X164418000Y-109800000D01*
X164417000Y-109802000D01*
X164415000Y-109804000D01*
X164414000Y-109806000D01*
X164412000Y-109808000D01*
X164410000Y-109810000D01*
X164408000Y-109812000D01*
X164406000Y-109814000D01*
X164404000Y-109815000D01*
X164402000Y-109817000D01*
X164400000Y-109818000D01*
X164398000Y-109820000D01*
X164395000Y-109821000D01*
X164393000Y-109822000D01*
X164390000Y-109823000D01*
X164388000Y-109823000D01*
X164385000Y-109824000D01*
X164383000Y-109824000D01*
X164380000Y-109825000D01*
X164378000Y-109825000D01*
X164375000Y-109825000D01*
X164225000Y-109825000D01*
X164222000Y-109825000D01*
X164220000Y-109825000D01*
X164217000Y-109824000D01*
X164215000Y-109824000D01*
X164212000Y-109823000D01*
X164210000Y-109823000D01*
X164207000Y-109822000D01*
X164205000Y-109821000D01*
X164202000Y-109820000D01*
X164200000Y-109818000D01*
X164198000Y-109817000D01*
X164196000Y-109815000D01*
X164194000Y-109814000D01*
X164192000Y-109812000D01*
X164190000Y-109810000D01*
X164188000Y-109808000D01*
X164186000Y-109806000D01*
X164185000Y-109804000D01*
X164183000Y-109802000D01*
X164182000Y-109800000D01*
X164180000Y-109798000D01*
X164179000Y-109795000D01*
X164178000Y-109793000D01*
X164177000Y-109790000D01*
X164177000Y-109788000D01*
X164176000Y-109785000D01*
X164176000Y-109783000D01*
X164175000Y-109780000D01*
X164175000Y-109778000D01*
X164175000Y-109775000D01*
X164175000Y-109625000D01*
X164175000Y-109622000D01*
X164175000Y-109620000D01*
X164176000Y-109617000D01*
X164176000Y-109615000D01*
X164177000Y-109612000D01*
X164177000Y-109610000D01*
X164178000Y-109607000D01*
X164179000Y-109605000D01*
X164180000Y-109602000D01*
X164182000Y-109600000D01*
X164183000Y-109598000D01*
X164185000Y-109596000D01*
X164186000Y-109594000D01*
X164188000Y-109592000D01*
X164190000Y-109590000D01*
X164192000Y-109588000D01*
X164194000Y-109586000D01*
X164196000Y-109585000D01*
X164198000Y-109583000D01*
X164200000Y-109582000D01*
X164202000Y-109580000D01*
X164205000Y-109579000D01*
X164207000Y-109578000D01*
X164210000Y-109577000D01*
X164212000Y-109577000D01*
X164215000Y-109576000D01*
X164217000Y-109576000D01*
X164220000Y-109575000D01*
X164222000Y-109575000D01*
X164225000Y-109575000D01*
X164375000Y-109575000D01*
X164378000Y-109575000D01*
X164380000Y-109575000D01*
X164383000Y-109576000D01*
G37*
X164383000Y-109976000D02*
X164385000Y-109976000D01*
X164388000Y-109977000D01*
X164390000Y-109977000D01*
X164393000Y-109978000D01*
X164395000Y-109979000D01*
X164398000Y-109980000D01*
X164400000Y-109982000D01*
X164402000Y-109983000D01*
X164404000Y-109985000D01*
X164406000Y-109986000D01*
X164408000Y-109988000D01*
X164410000Y-109990000D01*
X164412000Y-109992000D01*
X164414000Y-109994000D01*
X164415000Y-109996000D01*
X164417000Y-109998000D01*
X164418000Y-110000000D01*
X164420000Y-110002000D01*
X164421000Y-110005000D01*
X164422000Y-110007000D01*
X164423000Y-110010000D01*
X164423000Y-110012000D01*
X164424000Y-110015000D01*
X164424000Y-110017000D01*
X164425000Y-110020000D01*
X164425000Y-110022000D01*
X164425000Y-110025000D01*
X164425000Y-110175000D01*
X164425000Y-110178000D01*
X164425000Y-110180000D01*
X164424000Y-110183000D01*
X164424000Y-110185000D01*
X164423000Y-110188000D01*
X164423000Y-110190000D01*
X164422000Y-110193000D01*
X164421000Y-110195000D01*
X164420000Y-110198000D01*
X164418000Y-110200000D01*
X164417000Y-110202000D01*
X164415000Y-110204000D01*
X164414000Y-110206000D01*
X164412000Y-110208000D01*
X164410000Y-110210000D01*
X164408000Y-110212000D01*
X164406000Y-110214000D01*
X164404000Y-110215000D01*
X164402000Y-110217000D01*
X164400000Y-110218000D01*
X164398000Y-110220000D01*
X164395000Y-110221000D01*
X164393000Y-110222000D01*
X164390000Y-110223000D01*
X164388000Y-110223000D01*
X164385000Y-110224000D01*
X164383000Y-110224000D01*
X164380000Y-110225000D01*
X164378000Y-110225000D01*
X164375000Y-110225000D01*
X164225000Y-110225000D01*
X164222000Y-110225000D01*
X164220000Y-110225000D01*
X164217000Y-110224000D01*
X164215000Y-110224000D01*
X164212000Y-110223000D01*
X164210000Y-110223000D01*
X164207000Y-110222000D01*
X164205000Y-110221000D01*
X164202000Y-110220000D01*
X164200000Y-110218000D01*
X164198000Y-110217000D01*
X164196000Y-110215000D01*
X164194000Y-110214000D01*
X164192000Y-110212000D01*
X164190000Y-110210000D01*
X164188000Y-110208000D01*
X164186000Y-110206000D01*
X164185000Y-110204000D01*
X164183000Y-110202000D01*
X164182000Y-110200000D01*
X164180000Y-110198000D01*
X164179000Y-110195000D01*
X164178000Y-110193000D01*
X164177000Y-110190000D01*
X164177000Y-110188000D01*
X164176000Y-110185000D01*
X164176000Y-110183000D01*
X164175000Y-110180000D01*
X164175000Y-110178000D01*
X164175000Y-110175000D01*
X164175000Y-110025000D01*
X164175000Y-110022000D01*
X164175000Y-110020000D01*
X164176000Y-110017000D01*
X164176000Y-110015000D01*
X164177000Y-110012000D01*
X164177000Y-110010000D01*
X164178000Y-110007000D01*
X164179000Y-110005000D01*
X164180000Y-110002000D01*
X164182000Y-110000000D01*
X164183000Y-109998000D01*
X164185000Y-109996000D01*
X164186000Y-109994000D01*
X164188000Y-109992000D01*
X164190000Y-109990000D01*
X164192000Y-109988000D01*
X164194000Y-109986000D01*
X164196000Y-109985000D01*
X164198000Y-109983000D01*
X164200000Y-109982000D01*
X164202000Y-109980000D01*
X164205000Y-109979000D01*
X164207000Y-109978000D01*
X164210000Y-109977000D01*
X164212000Y-109977000D01*
X164215000Y-109976000D01*
X164217000Y-109976000D01*
X164220000Y-109975000D01*
X164222000Y-109975000D01*
X164225000Y-109975000D01*
X164375000Y-109975000D01*
X164378000Y-109975000D01*
X164380000Y-109975000D01*
X164383000Y-109976000D01*
G36*
X164383000Y-109976000D02*
G01*
X164385000Y-109976000D01*
X164388000Y-109977000D01*
X164390000Y-109977000D01*
X164393000Y-109978000D01*
X164395000Y-109979000D01*
X164398000Y-109980000D01*
X164400000Y-109982000D01*
X164402000Y-109983000D01*
X164404000Y-109985000D01*
X164406000Y-109986000D01*
X164408000Y-109988000D01*
X164410000Y-109990000D01*
X164412000Y-109992000D01*
X164414000Y-109994000D01*
X164415000Y-109996000D01*
X164417000Y-109998000D01*
X164418000Y-110000000D01*
X164420000Y-110002000D01*
X164421000Y-110005000D01*
X164422000Y-110007000D01*
X164423000Y-110010000D01*
X164423000Y-110012000D01*
X164424000Y-110015000D01*
X164424000Y-110017000D01*
X164425000Y-110020000D01*
X164425000Y-110022000D01*
X164425000Y-110025000D01*
X164425000Y-110175000D01*
X164425000Y-110178000D01*
X164425000Y-110180000D01*
X164424000Y-110183000D01*
X164424000Y-110185000D01*
X164423000Y-110188000D01*
X164423000Y-110190000D01*
X164422000Y-110193000D01*
X164421000Y-110195000D01*
X164420000Y-110198000D01*
X164418000Y-110200000D01*
X164417000Y-110202000D01*
X164415000Y-110204000D01*
X164414000Y-110206000D01*
X164412000Y-110208000D01*
X164410000Y-110210000D01*
X164408000Y-110212000D01*
X164406000Y-110214000D01*
X164404000Y-110215000D01*
X164402000Y-110217000D01*
X164400000Y-110218000D01*
X164398000Y-110220000D01*
X164395000Y-110221000D01*
X164393000Y-110222000D01*
X164390000Y-110223000D01*
X164388000Y-110223000D01*
X164385000Y-110224000D01*
X164383000Y-110224000D01*
X164380000Y-110225000D01*
X164378000Y-110225000D01*
X164375000Y-110225000D01*
X164225000Y-110225000D01*
X164222000Y-110225000D01*
X164220000Y-110225000D01*
X164217000Y-110224000D01*
X164215000Y-110224000D01*
X164212000Y-110223000D01*
X164210000Y-110223000D01*
X164207000Y-110222000D01*
X164205000Y-110221000D01*
X164202000Y-110220000D01*
X164200000Y-110218000D01*
X164198000Y-110217000D01*
X164196000Y-110215000D01*
X164194000Y-110214000D01*
X164192000Y-110212000D01*
X164190000Y-110210000D01*
X164188000Y-110208000D01*
X164186000Y-110206000D01*
X164185000Y-110204000D01*
X164183000Y-110202000D01*
X164182000Y-110200000D01*
X164180000Y-110198000D01*
X164179000Y-110195000D01*
X164178000Y-110193000D01*
X164177000Y-110190000D01*
X164177000Y-110188000D01*
X164176000Y-110185000D01*
X164176000Y-110183000D01*
X164175000Y-110180000D01*
X164175000Y-110178000D01*
X164175000Y-110175000D01*
X164175000Y-110025000D01*
X164175000Y-110022000D01*
X164175000Y-110020000D01*
X164176000Y-110017000D01*
X164176000Y-110015000D01*
X164177000Y-110012000D01*
X164177000Y-110010000D01*
X164178000Y-110007000D01*
X164179000Y-110005000D01*
X164180000Y-110002000D01*
X164182000Y-110000000D01*
X164183000Y-109998000D01*
X164185000Y-109996000D01*
X164186000Y-109994000D01*
X164188000Y-109992000D01*
X164190000Y-109990000D01*
X164192000Y-109988000D01*
X164194000Y-109986000D01*
X164196000Y-109985000D01*
X164198000Y-109983000D01*
X164200000Y-109982000D01*
X164202000Y-109980000D01*
X164205000Y-109979000D01*
X164207000Y-109978000D01*
X164210000Y-109977000D01*
X164212000Y-109977000D01*
X164215000Y-109976000D01*
X164217000Y-109976000D01*
X164220000Y-109975000D01*
X164222000Y-109975000D01*
X164225000Y-109975000D01*
X164375000Y-109975000D01*
X164378000Y-109975000D01*
X164380000Y-109975000D01*
X164383000Y-109976000D01*
G37*
%TO.C,U10*%
X121883000Y-86176000D02*
X121885000Y-86176000D01*
X121888000Y-86177000D01*
X121890000Y-86177000D01*
X121893000Y-86178000D01*
X121895000Y-86179000D01*
X121898000Y-86180000D01*
X121900000Y-86182000D01*
X121902000Y-86183000D01*
X121904000Y-86185000D01*
X121906000Y-86186000D01*
X121908000Y-86188000D01*
X121910000Y-86190000D01*
X121912000Y-86192000D01*
X121914000Y-86194000D01*
X121915000Y-86196000D01*
X121917000Y-86198000D01*
X121918000Y-86200000D01*
X121920000Y-86202000D01*
X121921000Y-86205000D01*
X121922000Y-86207000D01*
X121923000Y-86210000D01*
X121923000Y-86212000D01*
X121924000Y-86215000D01*
X121924000Y-86217000D01*
X121925000Y-86220000D01*
X121925000Y-86222000D01*
X121925000Y-86225000D01*
X121925000Y-86375000D01*
X121925000Y-86378000D01*
X121925000Y-86380000D01*
X121924000Y-86383000D01*
X121924000Y-86385000D01*
X121923000Y-86388000D01*
X121923000Y-86390000D01*
X121922000Y-86393000D01*
X121921000Y-86395000D01*
X121920000Y-86398000D01*
X121918000Y-86400000D01*
X121917000Y-86402000D01*
X121915000Y-86404000D01*
X121914000Y-86406000D01*
X121912000Y-86408000D01*
X121910000Y-86410000D01*
X121908000Y-86412000D01*
X121906000Y-86414000D01*
X121904000Y-86415000D01*
X121902000Y-86417000D01*
X121900000Y-86418000D01*
X121898000Y-86420000D01*
X121895000Y-86421000D01*
X121893000Y-86422000D01*
X121890000Y-86423000D01*
X121888000Y-86423000D01*
X121885000Y-86424000D01*
X121883000Y-86424000D01*
X121880000Y-86425000D01*
X121878000Y-86425000D01*
X121875000Y-86425000D01*
X121725000Y-86425000D01*
X121722000Y-86425000D01*
X121720000Y-86425000D01*
X121717000Y-86424000D01*
X121715000Y-86424000D01*
X121712000Y-86423000D01*
X121710000Y-86423000D01*
X121707000Y-86422000D01*
X121705000Y-86421000D01*
X121702000Y-86420000D01*
X121700000Y-86418000D01*
X121698000Y-86417000D01*
X121696000Y-86415000D01*
X121694000Y-86414000D01*
X121692000Y-86412000D01*
X121690000Y-86410000D01*
X121688000Y-86408000D01*
X121686000Y-86406000D01*
X121685000Y-86404000D01*
X121683000Y-86402000D01*
X121682000Y-86400000D01*
X121680000Y-86398000D01*
X121679000Y-86395000D01*
X121678000Y-86393000D01*
X121677000Y-86390000D01*
X121677000Y-86388000D01*
X121676000Y-86385000D01*
X121676000Y-86383000D01*
X121675000Y-86380000D01*
X121675000Y-86378000D01*
X121675000Y-86375000D01*
X121675000Y-86225000D01*
X121675000Y-86222000D01*
X121675000Y-86220000D01*
X121676000Y-86217000D01*
X121676000Y-86215000D01*
X121677000Y-86212000D01*
X121677000Y-86210000D01*
X121678000Y-86207000D01*
X121679000Y-86205000D01*
X121680000Y-86202000D01*
X121682000Y-86200000D01*
X121683000Y-86198000D01*
X121685000Y-86196000D01*
X121686000Y-86194000D01*
X121688000Y-86192000D01*
X121690000Y-86190000D01*
X121692000Y-86188000D01*
X121694000Y-86186000D01*
X121696000Y-86185000D01*
X121698000Y-86183000D01*
X121700000Y-86182000D01*
X121702000Y-86180000D01*
X121705000Y-86179000D01*
X121707000Y-86178000D01*
X121710000Y-86177000D01*
X121712000Y-86177000D01*
X121715000Y-86176000D01*
X121717000Y-86176000D01*
X121720000Y-86175000D01*
X121722000Y-86175000D01*
X121725000Y-86175000D01*
X121875000Y-86175000D01*
X121878000Y-86175000D01*
X121880000Y-86175000D01*
X121883000Y-86176000D01*
G36*
X121883000Y-86176000D02*
G01*
X121885000Y-86176000D01*
X121888000Y-86177000D01*
X121890000Y-86177000D01*
X121893000Y-86178000D01*
X121895000Y-86179000D01*
X121898000Y-86180000D01*
X121900000Y-86182000D01*
X121902000Y-86183000D01*
X121904000Y-86185000D01*
X121906000Y-86186000D01*
X121908000Y-86188000D01*
X121910000Y-86190000D01*
X121912000Y-86192000D01*
X121914000Y-86194000D01*
X121915000Y-86196000D01*
X121917000Y-86198000D01*
X121918000Y-86200000D01*
X121920000Y-86202000D01*
X121921000Y-86205000D01*
X121922000Y-86207000D01*
X121923000Y-86210000D01*
X121923000Y-86212000D01*
X121924000Y-86215000D01*
X121924000Y-86217000D01*
X121925000Y-86220000D01*
X121925000Y-86222000D01*
X121925000Y-86225000D01*
X121925000Y-86375000D01*
X121925000Y-86378000D01*
X121925000Y-86380000D01*
X121924000Y-86383000D01*
X121924000Y-86385000D01*
X121923000Y-86388000D01*
X121923000Y-86390000D01*
X121922000Y-86393000D01*
X121921000Y-86395000D01*
X121920000Y-86398000D01*
X121918000Y-86400000D01*
X121917000Y-86402000D01*
X121915000Y-86404000D01*
X121914000Y-86406000D01*
X121912000Y-86408000D01*
X121910000Y-86410000D01*
X121908000Y-86412000D01*
X121906000Y-86414000D01*
X121904000Y-86415000D01*
X121902000Y-86417000D01*
X121900000Y-86418000D01*
X121898000Y-86420000D01*
X121895000Y-86421000D01*
X121893000Y-86422000D01*
X121890000Y-86423000D01*
X121888000Y-86423000D01*
X121885000Y-86424000D01*
X121883000Y-86424000D01*
X121880000Y-86425000D01*
X121878000Y-86425000D01*
X121875000Y-86425000D01*
X121725000Y-86425000D01*
X121722000Y-86425000D01*
X121720000Y-86425000D01*
X121717000Y-86424000D01*
X121715000Y-86424000D01*
X121712000Y-86423000D01*
X121710000Y-86423000D01*
X121707000Y-86422000D01*
X121705000Y-86421000D01*
X121702000Y-86420000D01*
X121700000Y-86418000D01*
X121698000Y-86417000D01*
X121696000Y-86415000D01*
X121694000Y-86414000D01*
X121692000Y-86412000D01*
X121690000Y-86410000D01*
X121688000Y-86408000D01*
X121686000Y-86406000D01*
X121685000Y-86404000D01*
X121683000Y-86402000D01*
X121682000Y-86400000D01*
X121680000Y-86398000D01*
X121679000Y-86395000D01*
X121678000Y-86393000D01*
X121677000Y-86390000D01*
X121677000Y-86388000D01*
X121676000Y-86385000D01*
X121676000Y-86383000D01*
X121675000Y-86380000D01*
X121675000Y-86378000D01*
X121675000Y-86375000D01*
X121675000Y-86225000D01*
X121675000Y-86222000D01*
X121675000Y-86220000D01*
X121676000Y-86217000D01*
X121676000Y-86215000D01*
X121677000Y-86212000D01*
X121677000Y-86210000D01*
X121678000Y-86207000D01*
X121679000Y-86205000D01*
X121680000Y-86202000D01*
X121682000Y-86200000D01*
X121683000Y-86198000D01*
X121685000Y-86196000D01*
X121686000Y-86194000D01*
X121688000Y-86192000D01*
X121690000Y-86190000D01*
X121692000Y-86188000D01*
X121694000Y-86186000D01*
X121696000Y-86185000D01*
X121698000Y-86183000D01*
X121700000Y-86182000D01*
X121702000Y-86180000D01*
X121705000Y-86179000D01*
X121707000Y-86178000D01*
X121710000Y-86177000D01*
X121712000Y-86177000D01*
X121715000Y-86176000D01*
X121717000Y-86176000D01*
X121720000Y-86175000D01*
X121722000Y-86175000D01*
X121725000Y-86175000D01*
X121875000Y-86175000D01*
X121878000Y-86175000D01*
X121880000Y-86175000D01*
X121883000Y-86176000D01*
G37*
X121883000Y-86576000D02*
X121885000Y-86576000D01*
X121888000Y-86577000D01*
X121890000Y-86577000D01*
X121893000Y-86578000D01*
X121895000Y-86579000D01*
X121898000Y-86580000D01*
X121900000Y-86582000D01*
X121902000Y-86583000D01*
X121904000Y-86585000D01*
X121906000Y-86586000D01*
X121908000Y-86588000D01*
X121910000Y-86590000D01*
X121912000Y-86592000D01*
X121914000Y-86594000D01*
X121915000Y-86596000D01*
X121917000Y-86598000D01*
X121918000Y-86600000D01*
X121920000Y-86602000D01*
X121921000Y-86605000D01*
X121922000Y-86607000D01*
X121923000Y-86610000D01*
X121923000Y-86612000D01*
X121924000Y-86615000D01*
X121924000Y-86617000D01*
X121925000Y-86620000D01*
X121925000Y-86622000D01*
X121925000Y-86625000D01*
X121925000Y-86775000D01*
X121925000Y-86778000D01*
X121925000Y-86780000D01*
X121924000Y-86783000D01*
X121924000Y-86785000D01*
X121923000Y-86788000D01*
X121923000Y-86790000D01*
X121922000Y-86793000D01*
X121921000Y-86795000D01*
X121920000Y-86798000D01*
X121918000Y-86800000D01*
X121917000Y-86802000D01*
X121915000Y-86804000D01*
X121914000Y-86806000D01*
X121912000Y-86808000D01*
X121910000Y-86810000D01*
X121908000Y-86812000D01*
X121906000Y-86814000D01*
X121904000Y-86815000D01*
X121902000Y-86817000D01*
X121900000Y-86818000D01*
X121898000Y-86820000D01*
X121895000Y-86821000D01*
X121893000Y-86822000D01*
X121890000Y-86823000D01*
X121888000Y-86823000D01*
X121885000Y-86824000D01*
X121883000Y-86824000D01*
X121880000Y-86825000D01*
X121878000Y-86825000D01*
X121875000Y-86825000D01*
X121725000Y-86825000D01*
X121722000Y-86825000D01*
X121720000Y-86825000D01*
X121717000Y-86824000D01*
X121715000Y-86824000D01*
X121712000Y-86823000D01*
X121710000Y-86823000D01*
X121707000Y-86822000D01*
X121705000Y-86821000D01*
X121702000Y-86820000D01*
X121700000Y-86818000D01*
X121698000Y-86817000D01*
X121696000Y-86815000D01*
X121694000Y-86814000D01*
X121692000Y-86812000D01*
X121690000Y-86810000D01*
X121688000Y-86808000D01*
X121686000Y-86806000D01*
X121685000Y-86804000D01*
X121683000Y-86802000D01*
X121682000Y-86800000D01*
X121680000Y-86798000D01*
X121679000Y-86795000D01*
X121678000Y-86793000D01*
X121677000Y-86790000D01*
X121677000Y-86788000D01*
X121676000Y-86785000D01*
X121676000Y-86783000D01*
X121675000Y-86780000D01*
X121675000Y-86778000D01*
X121675000Y-86775000D01*
X121675000Y-86625000D01*
X121675000Y-86622000D01*
X121675000Y-86620000D01*
X121676000Y-86617000D01*
X121676000Y-86615000D01*
X121677000Y-86612000D01*
X121677000Y-86610000D01*
X121678000Y-86607000D01*
X121679000Y-86605000D01*
X121680000Y-86602000D01*
X121682000Y-86600000D01*
X121683000Y-86598000D01*
X121685000Y-86596000D01*
X121686000Y-86594000D01*
X121688000Y-86592000D01*
X121690000Y-86590000D01*
X121692000Y-86588000D01*
X121694000Y-86586000D01*
X121696000Y-86585000D01*
X121698000Y-86583000D01*
X121700000Y-86582000D01*
X121702000Y-86580000D01*
X121705000Y-86579000D01*
X121707000Y-86578000D01*
X121710000Y-86577000D01*
X121712000Y-86577000D01*
X121715000Y-86576000D01*
X121717000Y-86576000D01*
X121720000Y-86575000D01*
X121722000Y-86575000D01*
X121725000Y-86575000D01*
X121875000Y-86575000D01*
X121878000Y-86575000D01*
X121880000Y-86575000D01*
X121883000Y-86576000D01*
G36*
X121883000Y-86576000D02*
G01*
X121885000Y-86576000D01*
X121888000Y-86577000D01*
X121890000Y-86577000D01*
X121893000Y-86578000D01*
X121895000Y-86579000D01*
X121898000Y-86580000D01*
X121900000Y-86582000D01*
X121902000Y-86583000D01*
X121904000Y-86585000D01*
X121906000Y-86586000D01*
X121908000Y-86588000D01*
X121910000Y-86590000D01*
X121912000Y-86592000D01*
X121914000Y-86594000D01*
X121915000Y-86596000D01*
X121917000Y-86598000D01*
X121918000Y-86600000D01*
X121920000Y-86602000D01*
X121921000Y-86605000D01*
X121922000Y-86607000D01*
X121923000Y-86610000D01*
X121923000Y-86612000D01*
X121924000Y-86615000D01*
X121924000Y-86617000D01*
X121925000Y-86620000D01*
X121925000Y-86622000D01*
X121925000Y-86625000D01*
X121925000Y-86775000D01*
X121925000Y-86778000D01*
X121925000Y-86780000D01*
X121924000Y-86783000D01*
X121924000Y-86785000D01*
X121923000Y-86788000D01*
X121923000Y-86790000D01*
X121922000Y-86793000D01*
X121921000Y-86795000D01*
X121920000Y-86798000D01*
X121918000Y-86800000D01*
X121917000Y-86802000D01*
X121915000Y-86804000D01*
X121914000Y-86806000D01*
X121912000Y-86808000D01*
X121910000Y-86810000D01*
X121908000Y-86812000D01*
X121906000Y-86814000D01*
X121904000Y-86815000D01*
X121902000Y-86817000D01*
X121900000Y-86818000D01*
X121898000Y-86820000D01*
X121895000Y-86821000D01*
X121893000Y-86822000D01*
X121890000Y-86823000D01*
X121888000Y-86823000D01*
X121885000Y-86824000D01*
X121883000Y-86824000D01*
X121880000Y-86825000D01*
X121878000Y-86825000D01*
X121875000Y-86825000D01*
X121725000Y-86825000D01*
X121722000Y-86825000D01*
X121720000Y-86825000D01*
X121717000Y-86824000D01*
X121715000Y-86824000D01*
X121712000Y-86823000D01*
X121710000Y-86823000D01*
X121707000Y-86822000D01*
X121705000Y-86821000D01*
X121702000Y-86820000D01*
X121700000Y-86818000D01*
X121698000Y-86817000D01*
X121696000Y-86815000D01*
X121694000Y-86814000D01*
X121692000Y-86812000D01*
X121690000Y-86810000D01*
X121688000Y-86808000D01*
X121686000Y-86806000D01*
X121685000Y-86804000D01*
X121683000Y-86802000D01*
X121682000Y-86800000D01*
X121680000Y-86798000D01*
X121679000Y-86795000D01*
X121678000Y-86793000D01*
X121677000Y-86790000D01*
X121677000Y-86788000D01*
X121676000Y-86785000D01*
X121676000Y-86783000D01*
X121675000Y-86780000D01*
X121675000Y-86778000D01*
X121675000Y-86775000D01*
X121675000Y-86625000D01*
X121675000Y-86622000D01*
X121675000Y-86620000D01*
X121676000Y-86617000D01*
X121676000Y-86615000D01*
X121677000Y-86612000D01*
X121677000Y-86610000D01*
X121678000Y-86607000D01*
X121679000Y-86605000D01*
X121680000Y-86602000D01*
X121682000Y-86600000D01*
X121683000Y-86598000D01*
X121685000Y-86596000D01*
X121686000Y-86594000D01*
X121688000Y-86592000D01*
X121690000Y-86590000D01*
X121692000Y-86588000D01*
X121694000Y-86586000D01*
X121696000Y-86585000D01*
X121698000Y-86583000D01*
X121700000Y-86582000D01*
X121702000Y-86580000D01*
X121705000Y-86579000D01*
X121707000Y-86578000D01*
X121710000Y-86577000D01*
X121712000Y-86577000D01*
X121715000Y-86576000D01*
X121717000Y-86576000D01*
X121720000Y-86575000D01*
X121722000Y-86575000D01*
X121725000Y-86575000D01*
X121875000Y-86575000D01*
X121878000Y-86575000D01*
X121880000Y-86575000D01*
X121883000Y-86576000D01*
G37*
X122283000Y-86176000D02*
X122285000Y-86176000D01*
X122288000Y-86177000D01*
X122290000Y-86177000D01*
X122293000Y-86178000D01*
X122295000Y-86179000D01*
X122298000Y-86180000D01*
X122300000Y-86182000D01*
X122302000Y-86183000D01*
X122304000Y-86185000D01*
X122306000Y-86186000D01*
X122308000Y-86188000D01*
X122310000Y-86190000D01*
X122312000Y-86192000D01*
X122314000Y-86194000D01*
X122315000Y-86196000D01*
X122317000Y-86198000D01*
X122318000Y-86200000D01*
X122320000Y-86202000D01*
X122321000Y-86205000D01*
X122322000Y-86207000D01*
X122323000Y-86210000D01*
X122323000Y-86212000D01*
X122324000Y-86215000D01*
X122324000Y-86217000D01*
X122325000Y-86220000D01*
X122325000Y-86222000D01*
X122325000Y-86225000D01*
X122325000Y-86375000D01*
X122325000Y-86378000D01*
X122325000Y-86380000D01*
X122324000Y-86383000D01*
X122324000Y-86385000D01*
X122323000Y-86388000D01*
X122323000Y-86390000D01*
X122322000Y-86393000D01*
X122321000Y-86395000D01*
X122320000Y-86398000D01*
X122318000Y-86400000D01*
X122317000Y-86402000D01*
X122315000Y-86404000D01*
X122314000Y-86406000D01*
X122312000Y-86408000D01*
X122310000Y-86410000D01*
X122308000Y-86412000D01*
X122306000Y-86414000D01*
X122304000Y-86415000D01*
X122302000Y-86417000D01*
X122300000Y-86418000D01*
X122298000Y-86420000D01*
X122295000Y-86421000D01*
X122293000Y-86422000D01*
X122290000Y-86423000D01*
X122288000Y-86423000D01*
X122285000Y-86424000D01*
X122283000Y-86424000D01*
X122280000Y-86425000D01*
X122278000Y-86425000D01*
X122275000Y-86425000D01*
X122125000Y-86425000D01*
X122122000Y-86425000D01*
X122120000Y-86425000D01*
X122117000Y-86424000D01*
X122115000Y-86424000D01*
X122112000Y-86423000D01*
X122110000Y-86423000D01*
X122107000Y-86422000D01*
X122105000Y-86421000D01*
X122102000Y-86420000D01*
X122100000Y-86418000D01*
X122098000Y-86417000D01*
X122096000Y-86415000D01*
X122094000Y-86414000D01*
X122092000Y-86412000D01*
X122090000Y-86410000D01*
X122088000Y-86408000D01*
X122086000Y-86406000D01*
X122085000Y-86404000D01*
X122083000Y-86402000D01*
X122082000Y-86400000D01*
X122080000Y-86398000D01*
X122079000Y-86395000D01*
X122078000Y-86393000D01*
X122077000Y-86390000D01*
X122077000Y-86388000D01*
X122076000Y-86385000D01*
X122076000Y-86383000D01*
X122075000Y-86380000D01*
X122075000Y-86378000D01*
X122075000Y-86375000D01*
X122075000Y-86225000D01*
X122075000Y-86222000D01*
X122075000Y-86220000D01*
X122076000Y-86217000D01*
X122076000Y-86215000D01*
X122077000Y-86212000D01*
X122077000Y-86210000D01*
X122078000Y-86207000D01*
X122079000Y-86205000D01*
X122080000Y-86202000D01*
X122082000Y-86200000D01*
X122083000Y-86198000D01*
X122085000Y-86196000D01*
X122086000Y-86194000D01*
X122088000Y-86192000D01*
X122090000Y-86190000D01*
X122092000Y-86188000D01*
X122094000Y-86186000D01*
X122096000Y-86185000D01*
X122098000Y-86183000D01*
X122100000Y-86182000D01*
X122102000Y-86180000D01*
X122105000Y-86179000D01*
X122107000Y-86178000D01*
X122110000Y-86177000D01*
X122112000Y-86177000D01*
X122115000Y-86176000D01*
X122117000Y-86176000D01*
X122120000Y-86175000D01*
X122122000Y-86175000D01*
X122125000Y-86175000D01*
X122275000Y-86175000D01*
X122278000Y-86175000D01*
X122280000Y-86175000D01*
X122283000Y-86176000D01*
G36*
X122283000Y-86176000D02*
G01*
X122285000Y-86176000D01*
X122288000Y-86177000D01*
X122290000Y-86177000D01*
X122293000Y-86178000D01*
X122295000Y-86179000D01*
X122298000Y-86180000D01*
X122300000Y-86182000D01*
X122302000Y-86183000D01*
X122304000Y-86185000D01*
X122306000Y-86186000D01*
X122308000Y-86188000D01*
X122310000Y-86190000D01*
X122312000Y-86192000D01*
X122314000Y-86194000D01*
X122315000Y-86196000D01*
X122317000Y-86198000D01*
X122318000Y-86200000D01*
X122320000Y-86202000D01*
X122321000Y-86205000D01*
X122322000Y-86207000D01*
X122323000Y-86210000D01*
X122323000Y-86212000D01*
X122324000Y-86215000D01*
X122324000Y-86217000D01*
X122325000Y-86220000D01*
X122325000Y-86222000D01*
X122325000Y-86225000D01*
X122325000Y-86375000D01*
X122325000Y-86378000D01*
X122325000Y-86380000D01*
X122324000Y-86383000D01*
X122324000Y-86385000D01*
X122323000Y-86388000D01*
X122323000Y-86390000D01*
X122322000Y-86393000D01*
X122321000Y-86395000D01*
X122320000Y-86398000D01*
X122318000Y-86400000D01*
X122317000Y-86402000D01*
X122315000Y-86404000D01*
X122314000Y-86406000D01*
X122312000Y-86408000D01*
X122310000Y-86410000D01*
X122308000Y-86412000D01*
X122306000Y-86414000D01*
X122304000Y-86415000D01*
X122302000Y-86417000D01*
X122300000Y-86418000D01*
X122298000Y-86420000D01*
X122295000Y-86421000D01*
X122293000Y-86422000D01*
X122290000Y-86423000D01*
X122288000Y-86423000D01*
X122285000Y-86424000D01*
X122283000Y-86424000D01*
X122280000Y-86425000D01*
X122278000Y-86425000D01*
X122275000Y-86425000D01*
X122125000Y-86425000D01*
X122122000Y-86425000D01*
X122120000Y-86425000D01*
X122117000Y-86424000D01*
X122115000Y-86424000D01*
X122112000Y-86423000D01*
X122110000Y-86423000D01*
X122107000Y-86422000D01*
X122105000Y-86421000D01*
X122102000Y-86420000D01*
X122100000Y-86418000D01*
X122098000Y-86417000D01*
X122096000Y-86415000D01*
X122094000Y-86414000D01*
X122092000Y-86412000D01*
X122090000Y-86410000D01*
X122088000Y-86408000D01*
X122086000Y-86406000D01*
X122085000Y-86404000D01*
X122083000Y-86402000D01*
X122082000Y-86400000D01*
X122080000Y-86398000D01*
X122079000Y-86395000D01*
X122078000Y-86393000D01*
X122077000Y-86390000D01*
X122077000Y-86388000D01*
X122076000Y-86385000D01*
X122076000Y-86383000D01*
X122075000Y-86380000D01*
X122075000Y-86378000D01*
X122075000Y-86375000D01*
X122075000Y-86225000D01*
X122075000Y-86222000D01*
X122075000Y-86220000D01*
X122076000Y-86217000D01*
X122076000Y-86215000D01*
X122077000Y-86212000D01*
X122077000Y-86210000D01*
X122078000Y-86207000D01*
X122079000Y-86205000D01*
X122080000Y-86202000D01*
X122082000Y-86200000D01*
X122083000Y-86198000D01*
X122085000Y-86196000D01*
X122086000Y-86194000D01*
X122088000Y-86192000D01*
X122090000Y-86190000D01*
X122092000Y-86188000D01*
X122094000Y-86186000D01*
X122096000Y-86185000D01*
X122098000Y-86183000D01*
X122100000Y-86182000D01*
X122102000Y-86180000D01*
X122105000Y-86179000D01*
X122107000Y-86178000D01*
X122110000Y-86177000D01*
X122112000Y-86177000D01*
X122115000Y-86176000D01*
X122117000Y-86176000D01*
X122120000Y-86175000D01*
X122122000Y-86175000D01*
X122125000Y-86175000D01*
X122275000Y-86175000D01*
X122278000Y-86175000D01*
X122280000Y-86175000D01*
X122283000Y-86176000D01*
G37*
X122283000Y-86576000D02*
X122285000Y-86576000D01*
X122288000Y-86577000D01*
X122290000Y-86577000D01*
X122293000Y-86578000D01*
X122295000Y-86579000D01*
X122298000Y-86580000D01*
X122300000Y-86582000D01*
X122302000Y-86583000D01*
X122304000Y-86585000D01*
X122306000Y-86586000D01*
X122308000Y-86588000D01*
X122310000Y-86590000D01*
X122312000Y-86592000D01*
X122314000Y-86594000D01*
X122315000Y-86596000D01*
X122317000Y-86598000D01*
X122318000Y-86600000D01*
X122320000Y-86602000D01*
X122321000Y-86605000D01*
X122322000Y-86607000D01*
X122323000Y-86610000D01*
X122323000Y-86612000D01*
X122324000Y-86615000D01*
X122324000Y-86617000D01*
X122325000Y-86620000D01*
X122325000Y-86622000D01*
X122325000Y-86625000D01*
X122325000Y-86775000D01*
X122325000Y-86778000D01*
X122325000Y-86780000D01*
X122324000Y-86783000D01*
X122324000Y-86785000D01*
X122323000Y-86788000D01*
X122323000Y-86790000D01*
X122322000Y-86793000D01*
X122321000Y-86795000D01*
X122320000Y-86798000D01*
X122318000Y-86800000D01*
X122317000Y-86802000D01*
X122315000Y-86804000D01*
X122314000Y-86806000D01*
X122312000Y-86808000D01*
X122310000Y-86810000D01*
X122308000Y-86812000D01*
X122306000Y-86814000D01*
X122304000Y-86815000D01*
X122302000Y-86817000D01*
X122300000Y-86818000D01*
X122298000Y-86820000D01*
X122295000Y-86821000D01*
X122293000Y-86822000D01*
X122290000Y-86823000D01*
X122288000Y-86823000D01*
X122285000Y-86824000D01*
X122283000Y-86824000D01*
X122280000Y-86825000D01*
X122278000Y-86825000D01*
X122275000Y-86825000D01*
X122125000Y-86825000D01*
X122122000Y-86825000D01*
X122120000Y-86825000D01*
X122117000Y-86824000D01*
X122115000Y-86824000D01*
X122112000Y-86823000D01*
X122110000Y-86823000D01*
X122107000Y-86822000D01*
X122105000Y-86821000D01*
X122102000Y-86820000D01*
X122100000Y-86818000D01*
X122098000Y-86817000D01*
X122096000Y-86815000D01*
X122094000Y-86814000D01*
X122092000Y-86812000D01*
X122090000Y-86810000D01*
X122088000Y-86808000D01*
X122086000Y-86806000D01*
X122085000Y-86804000D01*
X122083000Y-86802000D01*
X122082000Y-86800000D01*
X122080000Y-86798000D01*
X122079000Y-86795000D01*
X122078000Y-86793000D01*
X122077000Y-86790000D01*
X122077000Y-86788000D01*
X122076000Y-86785000D01*
X122076000Y-86783000D01*
X122075000Y-86780000D01*
X122075000Y-86778000D01*
X122075000Y-86775000D01*
X122075000Y-86625000D01*
X122075000Y-86622000D01*
X122075000Y-86620000D01*
X122076000Y-86617000D01*
X122076000Y-86615000D01*
X122077000Y-86612000D01*
X122077000Y-86610000D01*
X122078000Y-86607000D01*
X122079000Y-86605000D01*
X122080000Y-86602000D01*
X122082000Y-86600000D01*
X122083000Y-86598000D01*
X122085000Y-86596000D01*
X122086000Y-86594000D01*
X122088000Y-86592000D01*
X122090000Y-86590000D01*
X122092000Y-86588000D01*
X122094000Y-86586000D01*
X122096000Y-86585000D01*
X122098000Y-86583000D01*
X122100000Y-86582000D01*
X122102000Y-86580000D01*
X122105000Y-86579000D01*
X122107000Y-86578000D01*
X122110000Y-86577000D01*
X122112000Y-86577000D01*
X122115000Y-86576000D01*
X122117000Y-86576000D01*
X122120000Y-86575000D01*
X122122000Y-86575000D01*
X122125000Y-86575000D01*
X122275000Y-86575000D01*
X122278000Y-86575000D01*
X122280000Y-86575000D01*
X122283000Y-86576000D01*
G36*
X122283000Y-86576000D02*
G01*
X122285000Y-86576000D01*
X122288000Y-86577000D01*
X122290000Y-86577000D01*
X122293000Y-86578000D01*
X122295000Y-86579000D01*
X122298000Y-86580000D01*
X122300000Y-86582000D01*
X122302000Y-86583000D01*
X122304000Y-86585000D01*
X122306000Y-86586000D01*
X122308000Y-86588000D01*
X122310000Y-86590000D01*
X122312000Y-86592000D01*
X122314000Y-86594000D01*
X122315000Y-86596000D01*
X122317000Y-86598000D01*
X122318000Y-86600000D01*
X122320000Y-86602000D01*
X122321000Y-86605000D01*
X122322000Y-86607000D01*
X122323000Y-86610000D01*
X122323000Y-86612000D01*
X122324000Y-86615000D01*
X122324000Y-86617000D01*
X122325000Y-86620000D01*
X122325000Y-86622000D01*
X122325000Y-86625000D01*
X122325000Y-86775000D01*
X122325000Y-86778000D01*
X122325000Y-86780000D01*
X122324000Y-86783000D01*
X122324000Y-86785000D01*
X122323000Y-86788000D01*
X122323000Y-86790000D01*
X122322000Y-86793000D01*
X122321000Y-86795000D01*
X122320000Y-86798000D01*
X122318000Y-86800000D01*
X122317000Y-86802000D01*
X122315000Y-86804000D01*
X122314000Y-86806000D01*
X122312000Y-86808000D01*
X122310000Y-86810000D01*
X122308000Y-86812000D01*
X122306000Y-86814000D01*
X122304000Y-86815000D01*
X122302000Y-86817000D01*
X122300000Y-86818000D01*
X122298000Y-86820000D01*
X122295000Y-86821000D01*
X122293000Y-86822000D01*
X122290000Y-86823000D01*
X122288000Y-86823000D01*
X122285000Y-86824000D01*
X122283000Y-86824000D01*
X122280000Y-86825000D01*
X122278000Y-86825000D01*
X122275000Y-86825000D01*
X122125000Y-86825000D01*
X122122000Y-86825000D01*
X122120000Y-86825000D01*
X122117000Y-86824000D01*
X122115000Y-86824000D01*
X122112000Y-86823000D01*
X122110000Y-86823000D01*
X122107000Y-86822000D01*
X122105000Y-86821000D01*
X122102000Y-86820000D01*
X122100000Y-86818000D01*
X122098000Y-86817000D01*
X122096000Y-86815000D01*
X122094000Y-86814000D01*
X122092000Y-86812000D01*
X122090000Y-86810000D01*
X122088000Y-86808000D01*
X122086000Y-86806000D01*
X122085000Y-86804000D01*
X122083000Y-86802000D01*
X122082000Y-86800000D01*
X122080000Y-86798000D01*
X122079000Y-86795000D01*
X122078000Y-86793000D01*
X122077000Y-86790000D01*
X122077000Y-86788000D01*
X122076000Y-86785000D01*
X122076000Y-86783000D01*
X122075000Y-86780000D01*
X122075000Y-86778000D01*
X122075000Y-86775000D01*
X122075000Y-86625000D01*
X122075000Y-86622000D01*
X122075000Y-86620000D01*
X122076000Y-86617000D01*
X122076000Y-86615000D01*
X122077000Y-86612000D01*
X122077000Y-86610000D01*
X122078000Y-86607000D01*
X122079000Y-86605000D01*
X122080000Y-86602000D01*
X122082000Y-86600000D01*
X122083000Y-86598000D01*
X122085000Y-86596000D01*
X122086000Y-86594000D01*
X122088000Y-86592000D01*
X122090000Y-86590000D01*
X122092000Y-86588000D01*
X122094000Y-86586000D01*
X122096000Y-86585000D01*
X122098000Y-86583000D01*
X122100000Y-86582000D01*
X122102000Y-86580000D01*
X122105000Y-86579000D01*
X122107000Y-86578000D01*
X122110000Y-86577000D01*
X122112000Y-86577000D01*
X122115000Y-86576000D01*
X122117000Y-86576000D01*
X122120000Y-86575000D01*
X122122000Y-86575000D01*
X122125000Y-86575000D01*
X122275000Y-86575000D01*
X122278000Y-86575000D01*
X122280000Y-86575000D01*
X122283000Y-86576000D01*
G37*
%TD*%
D13*
%TO.C,R37*%
X160802500Y-110200000D03*
X161997500Y-110200000D03*
%TD*%
%TO.C,R59*%
X121102500Y-88500000D03*
X122297500Y-88500000D03*
%TD*%
D14*
%TO.C,U8*%
X151550000Y-110500001D03*
X151550000Y-109999999D03*
X151550000Y-109500000D03*
X151550000Y-109000001D03*
X151550000Y-108499999D03*
D15*
X153200002Y-108499999D03*
X153200002Y-109000001D03*
X153200002Y-109999999D03*
X153200002Y-110500001D03*
%TD*%
D16*
%TO.C,C34*%
X126667500Y-87100000D03*
X125532500Y-87100000D03*
%TD*%
D17*
%TO.C,R23*%
X141600000Y-99697500D03*
X141600000Y-98502500D03*
%TD*%
D18*
%TO.C,C2*%
X120132500Y-86032500D03*
X120132500Y-87167500D03*
%TD*%
D19*
%TO.C,U6*%
X111600000Y-100200000D03*
X111600000Y-102100000D03*
X109725000Y-101150000D03*
%TD*%
D20*
%TO.C,C19*%
X141900000Y-112367500D03*
X141900000Y-111232500D03*
%TD*%
D13*
%TO.C,R36*%
X160802500Y-109200000D03*
X161997500Y-109200000D03*
%TD*%
%TO.C,R32*%
X148952501Y-108900000D03*
X150147501Y-108900000D03*
%TD*%
D21*
%TO.C,L1*%
X156250000Y-111085001D03*
X156250000Y-108715001D03*
%TD*%
D13*
%TO.C,R53*%
X128002500Y-104600000D03*
X129197500Y-104600000D03*
%TD*%
D18*
%TO.C,C18*%
X139700000Y-108932500D03*
X139700000Y-110067500D03*
%TD*%
D22*
%TO.C,C15*%
X155012501Y-106799999D03*
X153287501Y-106799999D03*
%TD*%
D23*
%TO.C,FB1*%
X123932500Y-87015000D03*
X123932500Y-87985000D03*
%TD*%
D13*
%TO.C,R33*%
X160802500Y-111200000D03*
X161997500Y-111200000D03*
%TD*%
D16*
%TO.C,C10*%
X167300000Y-108500000D03*
X166165000Y-108500000D03*
%TD*%
D13*
%TO.C,R50*%
X128002500Y-102200000D03*
X129197500Y-102200000D03*
%TD*%
D24*
%TO.C,R14*%
X161997500Y-108200000D03*
X160802500Y-108200000D03*
%TD*%
D16*
%TO.C,C8*%
X167367500Y-110800000D03*
X166232500Y-110800000D03*
%TD*%
D13*
%TO.C,R24*%
X124002500Y-86000000D03*
X125197500Y-86000000D03*
%TD*%
%TO.C,R52*%
X128002500Y-103500000D03*
X129197500Y-103500000D03*
%TD*%
D25*
%TO.C,C14*%
X151387501Y-112100000D03*
X153112501Y-112100000D03*
%TD*%
D16*
%TO.C,C21*%
X111230000Y-98850000D03*
X110095000Y-98850000D03*
%TD*%
%TO.C,C12*%
X167367500Y-109500000D03*
X166232500Y-109500000D03*
%TD*%
D24*
%TO.C,R20*%
X150147501Y-107900000D03*
X148952501Y-107900000D03*
%TD*%
D13*
%TO.C,R39*%
X149252501Y-109900000D03*
X150447501Y-109900000D03*
%TD*%
M02*
