%TF.GenerationSoftware,KiCad,Pcbnew,10.0.0*%
%TF.CreationDate,2026-10-10T17:18:28-04:00*%
%TF.ProjectId,WSG_1.0,5753475f-312e-4302-9e6b-696361645f70,rev?*%
%TF.SameCoordinates,Original*%
%TF.FileFunction,Copper,L1,Top*%
%TF.FilePolarity,Positive*%
%FSLAX46Y46*%
G04 Gerber Fmt 4.6, Leading zero omitted, Abs format (unit mm)*
G04 Created by KiCad (PCBNEW 10.0.0) date 2026-10-10 17:18:28*
%MOMM*%
%LPD*%
G01*
G04 APERTURE LIST*
G04 Aperture macros list*
%AMRoundRect*
0 Rectangle with rounded corners*
0 $1 Rounding radius*
0 $2 $3 $4 $5 $6 $7 $8 $9 X,Y pos of 4 corners*
0 Add a 4 corners polygon primitive as box body*
4,1,4,$2,$3,$4,$5,$6,$7,$8,$9,$2,$3,0*
0 Add four circle primitives for the rounded corners*
1,1,$1+$1,$2,$3*
1,1,$1+$1,$4,$5*
1,1,$1+$1,$6,$7*
1,1,$1+$1,$8,$9*
0 Add four rect primitives between the rounded corners*
20,1,$1+$1,$2,$3,$4,$5,0*
20,1,$1+$1,$4,$5,$6,$7,0*
20,1,$1+$1,$6,$7,$8,$9,0*
20,1,$1+$1,$8,$9,$2,$3,0*%
G04 Aperture macros list end*
%TA.AperFunction,SMDPad,CuDef*%
%ADD10RoundRect,0.160000X0.160000X-0.197500X0.160000X0.197500X-0.160000X0.197500X-0.160000X-0.197500X0*%
%TD*%
%TA.AperFunction,SMDPad,CuDef*%
%ADD11RoundRect,0.125000X-0.687500X-0.125000X0.687500X-0.125000X0.687500X0.125000X-0.687500X0.125000X0*%
%TD*%
%TA.AperFunction,SMDPad,CuDef*%
%ADD12RoundRect,0.160000X0.197500X0.160000X-0.197500X0.160000X-0.197500X-0.160000X0.197500X-0.160000X0*%
%TD*%
%TA.AperFunction,SMDPad,CuDef*%
%ADD13RoundRect,0.160000X-0.197500X-0.160000X0.197500X-0.160000X0.197500X0.160000X-0.197500X0.160000X0*%
%TD*%
%TA.AperFunction,SMDPad,CuDef*%
%ADD14R,1.000000X1.000000*%
%TD*%
%TA.AperFunction,ComponentPad*%
%ADD15R,1.350000X1.350000*%
%TD*%
%TA.AperFunction,ComponentPad*%
%ADD16C,1.350000*%
%TD*%
%TA.AperFunction,SMDPad,CuDef*%
%ADD17RoundRect,0.150000X0.425000X-0.150000X0.425000X0.150000X-0.425000X0.150000X-0.425000X-0.150000X0*%
%TD*%
%TA.AperFunction,SMDPad,CuDef*%
%ADD18RoundRect,0.075000X0.500000X-0.075000X0.500000X0.075000X-0.500000X0.075000X-0.500000X-0.075000X0*%
%TD*%
%TA.AperFunction,SMDPad,CuDef*%
%ADD19RoundRect,0.250000X0.750000X-0.840000X0.750000X0.840000X-0.750000X0.840000X-0.750000X-0.840000X0*%
%TD*%
%TA.AperFunction,SMDPad,CuDef*%
%ADD20RoundRect,0.087500X0.662500X0.087500X-0.662500X0.087500X-0.662500X-0.087500X0.662500X-0.087500X0*%
%TD*%
%TA.AperFunction,SMDPad,CuDef*%
%ADD21RoundRect,0.155000X0.155000X-0.212500X0.155000X0.212500X-0.155000X0.212500X-0.155000X-0.212500X0*%
%TD*%
%TA.AperFunction,SMDPad,CuDef*%
%ADD22RoundRect,0.250000X-1.000000X-0.650000X1.000000X-0.650000X1.000000X0.650000X-1.000000X0.650000X0*%
%TD*%
%TA.AperFunction,SMDPad,CuDef*%
%ADD23RoundRect,0.237500X0.300000X0.237500X-0.300000X0.237500X-0.300000X-0.237500X0.300000X-0.237500X0*%
%TD*%
%TA.AperFunction,SMDPad,CuDef*%
%ADD24RoundRect,0.155000X-0.155000X0.212500X-0.155000X-0.212500X0.155000X-0.212500X0.155000X0.212500X0*%
%TD*%
%TA.AperFunction,SMDPad,CuDef*%
%ADD25RoundRect,0.150000X-0.512500X-0.150000X0.512500X-0.150000X0.512500X0.150000X-0.512500X0.150000X0*%
%TD*%
%TA.AperFunction,SMDPad,CuDef*%
%ADD26RoundRect,0.160000X-0.160000X0.197500X-0.160000X-0.197500X0.160000X-0.197500X0.160000X0.197500X0*%
%TD*%
%TA.AperFunction,SMDPad,CuDef*%
%ADD27RoundRect,0.155000X0.212500X0.155000X-0.212500X0.155000X-0.212500X-0.155000X0.212500X-0.155000X0*%
%TD*%
%TA.AperFunction,SMDPad,CuDef*%
%ADD28RoundRect,0.150000X0.150000X-0.512500X0.150000X0.512500X-0.150000X0.512500X-0.150000X-0.512500X0*%
%TD*%
%TA.AperFunction,SMDPad,CuDef*%
%ADD29RoundRect,0.250000X-0.625000X0.375000X-0.625000X-0.375000X0.625000X-0.375000X0.625000X0.375000X0*%
%TD*%
%TA.AperFunction,SMDPad,CuDef*%
%ADD30RoundRect,0.250000X-0.300000X-0.250000X0.300000X-0.250000X0.300000X0.250000X-0.300000X0.250000X0*%
%TD*%
%TA.AperFunction,SMDPad,CuDef*%
%ADD31R,0.500000X1.650000*%
%TD*%
%TA.AperFunction,SMDPad,CuDef*%
%ADD32RoundRect,0.155000X-0.212500X-0.155000X0.212500X-0.155000X0.212500X0.155000X-0.212500X0.155000X0*%
%TD*%
%TA.AperFunction,SMDPad,CuDef*%
%ADD33RoundRect,0.075000X-0.662500X-0.075000X0.662500X-0.075000X0.662500X0.075000X-0.662500X0.075000X0*%
%TD*%
%TA.AperFunction,SMDPad,CuDef*%
%ADD34RoundRect,0.075000X-0.075000X-0.662500X0.075000X-0.662500X0.075000X0.662500X-0.075000X0.662500X0*%
%TD*%
%TA.AperFunction,SMDPad,CuDef*%
%ADD35R,0.812800X0.406400*%
%TD*%
%TA.AperFunction,SMDPad,CuDef*%
%ADD36R,0.406400X0.812800*%
%TD*%
%TA.AperFunction,SMDPad,CuDef*%
%ADD37R,1.193800X1.193800*%
%TD*%
%TA.AperFunction,SMDPad,CuDef*%
%ADD38R,0.812800X0.812800*%
%TD*%
%TA.AperFunction,SMDPad,CuDef*%
%ADD39RoundRect,0.072500X-0.532500X-0.217500X0.532500X-0.217500X0.532500X0.217500X-0.532500X0.217500X0*%
%TD*%
%TA.AperFunction,ComponentPad*%
%ADD40R,1.308000X1.308000*%
%TD*%
%TA.AperFunction,ComponentPad*%
%ADD41C,1.308000*%
%TD*%
%TA.AperFunction,ViaPad*%
%ADD42C,0.450000*%
%TD*%
%TA.AperFunction,ViaPad*%
%ADD43C,0.600000*%
%TD*%
%TA.AperFunction,Conductor*%
%ADD44C,0.200000*%
%TD*%
%TA.AperFunction,Conductor*%
%ADD45C,0.400000*%
%TD*%
%TA.AperFunction,Conductor*%
%ADD46C,0.360000*%
%TD*%
G04 APERTURE END LIST*
D10*
%TO.P,R21,1*%
%TO.N,Net-(R21-Pad1)*%
X116500000Y-106740000D03*
%TO.P,R21,2*%
%TO.N,Net-(R21-Pad2)*%
X116500000Y-105545000D03*
%TD*%
D11*
%TO.P,U4,1,IN-_1*%
%TO.N,BREF_F*%
X118187500Y-100925000D03*
%TO.P,U4,2,RG_2*%
%TO.N,Net-(R11-Pad2)*%
X118187500Y-101575000D03*
%TO.P,U4,3,RG_3*%
%TO.N,Net-(R11-Pad1)*%
X118187500Y-102225000D03*
%TO.P,U4,4,IN+_4*%
%TO.N,INP1*%
X118187500Y-102875000D03*
%TO.P,U4,5,VS-_5*%
%TO.N,GND*%
X122412500Y-102875000D03*
%TO.P,U4,6,REF_6*%
%TO.N,VREF_1V65*%
X122412500Y-102225000D03*
%TO.P,U4,7,VOUT_7*%
%TO.N,Net-(U4-VOUT)*%
X122412500Y-101575000D03*
%TO.P,U4,8,VS+_8*%
%TO.N,3V3A*%
X122412500Y-100925000D03*
%TD*%
D12*
%TO.P,R16,1*%
%TO.N,SIG2*%
X115497500Y-106745000D03*
%TO.P,R16,2*%
%TO.N,GND*%
X114302500Y-106745000D03*
%TD*%
D13*
%TO.P,R48,1*%
%TO.N,Net-(U5-VOUT)*%
X127002500Y-106800000D03*
%TO.P,R48,2*%
%TO.N,AIN2P*%
X128197500Y-106800000D03*
%TD*%
D14*
%TO.P,TP5,1,1_1*%
%TO.N,GND*%
X140300000Y-87900000D03*
%TD*%
D10*
%TO.P,R3,1*%
%TO.N,Net-(U1-M0)*%
X130900000Y-97097500D03*
%TO.P,R3,2*%
%TO.N,3V3A*%
X130900000Y-95902500D03*
%TD*%
D12*
%TO.P,R1,1*%
%TO.N,Net-(U1-M2)*%
X130797500Y-99400000D03*
%TO.P,R1,2*%
%TO.N,GND*%
X129602500Y-99400000D03*
%TD*%
%TO.P,R12,1*%
%TO.N,SIG1*%
X115497500Y-102255000D03*
%TO.P,R12,2*%
%TO.N,GND*%
X114302500Y-102255000D03*
%TD*%
D10*
%TO.P,R27,1*%
%TO.N,EXC_2V5*%
X135600000Y-109297500D03*
%TO.P,R27,2*%
%TO.N,REFEXT_F*%
X135600000Y-108102500D03*
%TD*%
D13*
%TO.P,R46,1*%
%TO.N,Net-(U3-VOUT)*%
X127005000Y-102700000D03*
%TO.P,R46,2*%
%TO.N,AIN0P*%
X128200000Y-102700000D03*
%TD*%
D15*
%TO.P,J1,1,Pin_1_1*%
%TO.N,GND*%
X112000000Y-96300000D03*
D16*
%TO.P,J1,2,Pin_2_2*%
X110000000Y-96300000D03*
%TO.P,J1,3,Pin_3_3*%
%TO.N,BATT_N*%
X112000000Y-94300000D03*
%TO.P,J1,4,Pin_4_4*%
%TO.N,EXC_2V5*%
X110000000Y-94300000D03*
%TO.P,J1,5,Pin_5_5*%
%TO.N,SIG2*%
X112000000Y-92300000D03*
%TO.P,J1,6,Pin_6_6*%
%TO.N,EXC_2V5*%
X110000000Y-92300000D03*
%TO.P,J1,7,Pin_7_7*%
%TO.N,SIG1*%
X112000000Y-90300000D03*
%TO.P,J1,8,Pin_8_8*%
%TO.N,EXC_2V5*%
X110000000Y-90300000D03*
%TO.P,J1,9,Pin_9_9*%
%TO.N,SIG0*%
X112000000Y-88300000D03*
%TO.P,J1,10,Pin_10_10*%
%TO.N,EXC_2V5*%
X110000000Y-88300000D03*
%TD*%
D17*
%TO.P,J2,A1,GND_A1*%
%TO.N,GND*%
X165720000Y-95300000D03*
%TO.P,J2,A4,VBUS_A4*%
%TO.N,VBUS*%
X165720000Y-94500000D03*
D18*
%TO.P,J2,A5,CC1_A5*%
%TO.N,Net-(J2-CC1)*%
X165720000Y-93350000D03*
%TO.P,J2,A6,D+_A6*%
%TO.N,USB_DP*%
X165720000Y-92350000D03*
%TO.P,J2,A7,D-_A7*%
%TO.N,USB_DN*%
X165720000Y-91850000D03*
%TO.P,J2,A8,SBU1_A8*%
%TO.N,unconnected-(J2-SBU1-PadA8)*%
X165720000Y-90850000D03*
D17*
%TO.P,J2,A9,VBUS_A9*%
%TO.N,VBUS*%
X165720000Y-89700000D03*
%TO.P,J2,A12,GND_A12*%
%TO.N,GND*%
X165720000Y-88900000D03*
%TO.P,J2,B1,GND_B1*%
X165720000Y-88900000D03*
%TO.P,J2,B4,VBUS_B4*%
%TO.N,VBUS*%
X165720000Y-89700000D03*
D18*
%TO.P,J2,B5,CC2_B5*%
%TO.N,Net-(J2-CC2)*%
X165720000Y-90350000D03*
%TO.P,J2,B6,D+_B6*%
%TO.N,USB_DP*%
X165720000Y-91350000D03*
%TO.P,J2,B7,D-_B7*%
%TO.N,USB_DN*%
X165720000Y-92850000D03*
%TO.P,J2,B8,SBU2_B8*%
%TO.N,unconnected-(J2-SBU2-PadB8)*%
X165720000Y-93850000D03*
D17*
%TO.P,J2,B9,VBUS_B9*%
%TO.N,VBUS*%
X165720000Y-94500000D03*
%TO.P,J2,B12,GND_B12*%
%TO.N,GND*%
X165720000Y-95300000D03*
D19*
%TO.P,J2,SH,SHIELD_SH*%
X166295000Y-97210000D03*
X170225000Y-97210000D03*
X166295000Y-86990000D03*
X170225000Y-86990000D03*
%TD*%
D14*
%TO.P,TP2,1,1_1*%
%TO.N,3V3A*%
X128600000Y-87800000D03*
%TD*%
D13*
%TO.P,R9,1*%
%TO.N,SIG0*%
X115402500Y-98700000D03*
%TO.P,R9,2*%
%TO.N,INP0*%
X116597500Y-98700000D03*
%TD*%
D10*
%TO.P,R11,1*%
%TO.N,Net-(R11-Pad1)*%
X116600000Y-102152500D03*
%TO.P,R11,2*%
%TO.N,Net-(R11-Pad2)*%
X116600000Y-100957500D03*
%TD*%
D20*
%TO.P,U2,1,VDD_1*%
%TO.N,3V3A*%
X127400000Y-92200000D03*
%TO.P,U2,2,VOUT_2*%
%TO.N,VREF_1V65*%
X127400000Y-91700000D03*
%TO.P,U2,3,NC_3*%
%TO.N,unconnected-(U2-NC-Pad3)*%
X127400000Y-91200000D03*
%TO.P,U2,4,AGND_4*%
%TO.N,GND*%
X127400000Y-90700000D03*
%TO.P,U2,5,SPI2C_5*%
X127400000Y-90200000D03*
%TO.P,U2,6,SCLK/SCL_6*%
%TO.N,ADC_SCLK*%
X123200000Y-90200000D03*
%TO.P,U2,7,\u002ASYNC/A0_7*%
%TO.N,DAC_CS*%
X123200000Y-90700000D03*
%TO.P,U2,8,SDIN/SDA_8*%
%TO.N,ADC_MOSI*%
X123200000Y-91200000D03*
%TO.P,U2,9,NC_9*%
%TO.N,unconnected-(U2-NC-Pad9)*%
X123200000Y-91700000D03*
%TO.P,U2,10,VREFIO_10*%
%TO.N,VREFIO_C*%
X123200000Y-92200000D03*
%TD*%
D21*
%TO.P,C23,1*%
%TO.N,GND*%
X133100000Y-108935000D03*
%TO.P,C23,2*%
%TO.N,VREFP_C*%
X133100000Y-107800000D03*
%TD*%
D10*
%TO.P,R40,1*%
%TO.N,GND*%
X164100000Y-94997500D03*
%TO.P,R40,2*%
%TO.N,Net-(J2-CC1)*%
X164100000Y-93802500D03*
%TD*%
D22*
%TO.P,D1,1,A1_1*%
%TO.N,VIN_P*%
X167100000Y-104700000D03*
%TO.P,D1,2,A2_2*%
%TO.N,GND*%
X171100000Y-104700000D03*
%TD*%
D21*
%TO.P,C25,1*%
%TO.N,GND*%
X136600000Y-108767500D03*
%TO.P,C25,2*%
%TO.N,3V3A*%
X136600000Y-107632500D03*
%TD*%
D10*
%TO.P,R54,1*%
%TO.N,ADC_CS*%
X146749999Y-109697501D03*
%TO.P,R54,2*%
%TO.N,Net-(U15-IO14)*%
X146749999Y-108502501D03*
%TD*%
D23*
%TO.P,C17,1*%
%TO.N,GND*%
X123395000Y-87400000D03*
%TO.P,C17,2*%
%TO.N,EXC_2V5*%
X121670000Y-87400000D03*
%TD*%
D10*
%TO.P,R49,1*%
%TO.N,Net-(U6-VOUT)*%
X129200000Y-107397500D03*
%TO.P,R49,2*%
%TO.N,AIN3P*%
X129200000Y-106202500D03*
%TD*%
D24*
%TO.P,C35,1*%
%TO.N,GND*%
X132900000Y-96532500D03*
%TO.P,C35,2*%
%TO.N,3V3A*%
X132900000Y-97667500D03*
%TD*%
D25*
%TO.P,U9,1,IN_1*%
%TO.N,3V3A*%
X117595000Y-87450000D03*
%TO.P,U9,2,GND_2*%
%TO.N,GND*%
X117595000Y-88400000D03*
%TO.P,U9,3,EN_3*%
%TO.N,EXC_EN*%
X117595000Y-89350000D03*
%TO.P,U9,4,NC_4*%
%TO.N,unconnected-(U9-NC-Pad4)*%
X119870000Y-89350000D03*
%TO.P,U9,5,OUT_5*%
%TO.N,EXC_2V5*%
X119870000Y-87450000D03*
%TD*%
D13*
%TO.P,R47,1*%
%TO.N,Net-(U4-VOUT)*%
X126702500Y-104800000D03*
%TO.P,R47,2*%
%TO.N,AIN1P*%
X127897500Y-104800000D03*
%TD*%
D14*
%TO.P,TP3,1,1_1*%
%TO.N,EXC_2V5*%
X115200000Y-89800000D03*
%TD*%
%TO.P,TP4,1,1_1*%
%TO.N,VREF_1V65*%
X130200000Y-90300000D03*
%TD*%
D13*
%TO.P,R57,1*%
%TO.N,ADC_RST*%
X140952499Y-105000001D03*
%TO.P,R57,2*%
%TO.N,Net-(U15-IO9)*%
X142147499Y-105000001D03*
%TD*%
%TO.P,R18,1*%
%TO.N,GND*%
X128602500Y-98400000D03*
%TO.P,R18,2*%
%TO.N,Net-(U1-M1)*%
X129797500Y-98400000D03*
%TD*%
D21*
%TO.P,C31,1*%
%TO.N,GND*%
X126900000Y-94667500D03*
%TO.P,C31,2*%
%TO.N,3V3A*%
X126900000Y-93532500D03*
%TD*%
D13*
%TO.P,R38,1*%
%TO.N,ADC_RST*%
X136902500Y-105800000D03*
%TO.P,R38,2*%
%TO.N,3V3A*%
X138097500Y-105800000D03*
%TD*%
D11*
%TO.P,U3,1,IN-_1*%
%TO.N,BREF_F*%
X118187500Y-96470000D03*
%TO.P,U3,2,RG_2*%
%TO.N,Net-(R8-Pad2)*%
X118187500Y-97120000D03*
%TO.P,U3,3,RG_3*%
%TO.N,Net-(R8-Pad1)*%
X118187500Y-97770000D03*
%TO.P,U3,4,IN+_4*%
%TO.N,INP0*%
X118187500Y-98420000D03*
%TO.P,U3,5,VS-_5*%
%TO.N,GND*%
X122412500Y-98420000D03*
%TO.P,U3,6,REF_6*%
%TO.N,VREF_1V65*%
X122412500Y-97770000D03*
%TO.P,U3,7,VOUT_7*%
%TO.N,Net-(U3-VOUT)*%
X122412500Y-97120000D03*
%TO.P,U3,8,VS+_8*%
%TO.N,3V3A*%
X122412500Y-96470000D03*
%TD*%
D13*
%TO.P,R51,1*%
%TO.N,VREF_1V65*%
X126602500Y-100400000D03*
%TO.P,R51,2*%
%TO.N,AIN0N*%
X127797500Y-100400000D03*
%TD*%
D12*
%TO.P,R26,1*%
%TO.N,VBAT_SENSE*%
X142147499Y-98950001D03*
%TO.P,R26,2*%
%TO.N,GND*%
X140952499Y-98950001D03*
%TD*%
D24*
%TO.P,C29,1*%
%TO.N,GND*%
X133300000Y-90132500D03*
%TO.P,C29,2*%
%TO.N,3V3A*%
X133300000Y-91267500D03*
%TD*%
D13*
%TO.P,R4,1*%
%TO.N,EXC_2V5*%
X111002500Y-99000000D03*
%TO.P,R4,2*%
%TO.N,Net-(R10-Pad1)*%
X112197500Y-99000000D03*
%TD*%
D26*
%TO.P,R15,1*%
%TO.N,GND*%
X131900000Y-96502500D03*
%TO.P,R15,2*%
%TO.N,Net-(U1-M0)*%
X131900000Y-97697500D03*
%TD*%
D27*
%TO.P,C37,1*%
%TO.N,3V3*%
X142117499Y-94400001D03*
%TO.P,C37,2*%
%TO.N,GND*%
X140982499Y-94400001D03*
%TD*%
D13*
%TO.P,R17,1*%
%TO.N,SIG2*%
X115302500Y-107745000D03*
%TO.P,R17,2*%
%TO.N,INP2*%
X116497500Y-107745000D03*
%TD*%
%TO.P,R25,1*%
%TO.N,VBAT*%
X138652499Y-97950001D03*
%TO.P,R25,2*%
%TO.N,VBAT_SENSE*%
X139847499Y-97950001D03*
%TD*%
%TO.P,R31,1*%
%TO.N,3V3*%
X140902499Y-96850001D03*
%TO.P,R31,2*%
%TO.N,Net-(U15-IO0)*%
X142097499Y-96850001D03*
%TD*%
%TO.P,R55,1*%
%TO.N,ADC_SCLK*%
X140952499Y-101300001D03*
%TO.P,R55,2*%
%TO.N,Net-(U15-IO5)*%
X142147499Y-101300001D03*
%TD*%
%TO.P,R28,1*%
%TO.N,ADC_MISO*%
X138302500Y-102700000D03*
%TO.P,R28,2*%
%TO.N,3V3A*%
X139497500Y-102700000D03*
%TD*%
D28*
%TO.P,U12,1,I/O1_1*%
%TO.N,USB_DP*%
X161250000Y-99237500D03*
%TO.P,U12,2,GND_2*%
%TO.N,GND*%
X162200000Y-99237500D03*
%TO.P,U12,3,I/O2_3*%
%TO.N,USB_DN*%
X163150000Y-99237500D03*
%TO.P,U12,4,I/O2_4*%
X163150000Y-96962500D03*
%TO.P,U12,5,VBUS_5*%
%TO.N,VBUS*%
X162200000Y-96962500D03*
%TO.P,U12,6,I/O1_6*%
%TO.N,USB_DP*%
X161250000Y-96962500D03*
%TD*%
D14*
%TO.P,TP1,1,1_1*%
%TO.N,3V3*%
X145100000Y-112300000D03*
%TD*%
D29*
%TO.P,F1,1*%
%TO.N,VBUS*%
X164100000Y-102900000D03*
%TO.P,F1,2*%
%TO.N,VIN_P*%
X164100000Y-105700000D03*
%TD*%
D12*
%TO.P,R45,1*%
%TO.N,3V3*%
X160397499Y-92250001D03*
%TO.P,R45,2*%
%TO.N,EN*%
X159202499Y-92250001D03*
%TD*%
D30*
%TO.P,Y1,1,~{ST}_1*%
%TO.N,3V3A*%
X134650000Y-91850000D03*
%TO.P,Y1,2,GND_2*%
%TO.N,GND*%
X136550000Y-91850000D03*
%TO.P,Y1,3,OUT_3*%
%TO.N,Net-(Y1-OUT)*%
X136550000Y-90350000D03*
%TO.P,Y1,4,Vdd_4*%
%TO.N,3V3A*%
X134650000Y-90350000D03*
%TD*%
D11*
%TO.P,U5,1,IN-_1*%
%TO.N,BREF_F*%
X118087500Y-105525000D03*
%TO.P,U5,2,RG_2*%
%TO.N,Net-(R21-Pad2)*%
X118087500Y-106175000D03*
%TO.P,U5,3,RG_3*%
%TO.N,Net-(R21-Pad1)*%
X118087500Y-106825000D03*
%TO.P,U5,4,IN+_4*%
%TO.N,INP2*%
X118087500Y-107475000D03*
%TO.P,U5,5,VS-_5*%
%TO.N,GND*%
X122312500Y-107475000D03*
%TO.P,U5,6,REF_6*%
%TO.N,VREF_1V65*%
X122312500Y-106825000D03*
%TO.P,U5,7,VOUT_7*%
%TO.N,Net-(U5-VOUT)*%
X122312500Y-106175000D03*
%TO.P,U5,8,VS+_8*%
%TO.N,3V3A*%
X122312500Y-105525000D03*
%TD*%
D12*
%TO.P,R30,1*%
%TO.N,DAC_CS*%
X121597500Y-90700000D03*
%TO.P,R30,2*%
%TO.N,3V3A*%
X120402500Y-90700000D03*
%TD*%
D13*
%TO.P,R44,1*%
%TO.N,Net-(U15-IO46)*%
X159202499Y-94250001D03*
%TO.P,R44,2*%
%TO.N,GND*%
X160397499Y-94250001D03*
%TD*%
D21*
%TO.P,C24,1*%
%TO.N,GND*%
X131300000Y-108967500D03*
%TO.P,C24,2*%
%TO.N,3V3A*%
X131300000Y-107832500D03*
%TD*%
D31*
%TO.P,SW4,1,1_1*%
%TO.N,GND*%
X146150000Y-89700000D03*
%TO.P,SW4,2,2_2*%
%TO.N,Net-(U15-IO0)*%
X148450000Y-89700000D03*
%TD*%
D12*
%TO.P,R6,1*%
%TO.N,Net-(R10-Pad1)*%
X112197500Y-100000000D03*
%TO.P,R6,2*%
%TO.N,GND*%
X111002500Y-100000000D03*
%TD*%
D21*
%TO.P,C28,1*%
%TO.N,GND*%
X127900000Y-94667500D03*
%TO.P,C28,2*%
%TO.N,3V3A*%
X127900000Y-93532500D03*
%TD*%
D32*
%TO.P,C16,1*%
%TO.N,GND*%
X114932500Y-87400000D03*
%TO.P,C16,2*%
%TO.N,3V3A*%
X116067500Y-87400000D03*
%TD*%
D27*
%TO.P,C39,1*%
%TO.N,AIN0P*%
X128170000Y-101700000D03*
%TO.P,C39,2*%
%TO.N,AIN0N*%
X127035000Y-101700000D03*
%TD*%
D32*
%TO.P,C13,1*%
%TO.N,3V3A*%
X122532500Y-104500000D03*
%TO.P,C13,2*%
%TO.N,GND*%
X123667500Y-104500000D03*
%TD*%
D21*
%TO.P,C30,1*%
%TO.N,GND*%
X128900000Y-93167500D03*
%TO.P,C30,2*%
%TO.N,VREF_1V65*%
X128900000Y-92032500D03*
%TD*%
D26*
%TO.P,R43,1*%
%TO.N,Net-(U15-IO45)*%
X159100000Y-97502500D03*
%TO.P,R43,2*%
%TO.N,GND*%
X159100000Y-98697500D03*
%TD*%
D27*
%TO.P,C38,1*%
%TO.N,GND*%
X160367499Y-93250001D03*
%TO.P,C38,2*%
%TO.N,EN*%
X159232499Y-93250001D03*
%TD*%
D12*
%TO.P,R42,1*%
%TO.N,Net-(U15-IO3)*%
X139897499Y-99600001D03*
%TO.P,R42,2*%
%TO.N,GND*%
X138702499Y-99600001D03*
%TD*%
D24*
%TO.P,C20,1*%
%TO.N,REFEXT_F*%
X134600000Y-107932500D03*
%TO.P,C20,2*%
%TO.N,GND*%
X134600000Y-109067500D03*
%TD*%
D10*
%TO.P,R8,1*%
%TO.N,Net-(R8-Pad1)*%
X116600000Y-97695000D03*
%TO.P,R8,2*%
%TO.N,Net-(R8-Pad2)*%
X116600000Y-96500000D03*
%TD*%
D12*
%TO.P,R35,1*%
%TO.N,USB_DP*%
X154597500Y-108700000D03*
%TO.P,R35,2*%
%TO.N,Net-(U15-IO20)*%
X153402500Y-108700000D03*
%TD*%
D33*
%TO.P,U1,1,AIN1N_1*%
%TO.N,AIN0N*%
X130337500Y-101350000D03*
%TO.P,U1,2,AIN1P_2*%
%TO.N,AIN0P*%
X130337500Y-101850000D03*
%TO.P,U1,3,AIN2N_3*%
%TO.N,AIN1N*%
X130337500Y-102350000D03*
%TO.P,U1,4,AIN2P_4*%
%TO.N,AIN1P*%
X130337500Y-102850000D03*
%TO.P,U1,5,AIN3N_5*%
%TO.N,AIN2N*%
X130337500Y-103350000D03*
%TO.P,U1,6,AIN3P_6*%
%TO.N,AIN2P*%
X130337500Y-103850000D03*
%TO.P,U1,7,AIN4N_7*%
%TO.N,AIN3N*%
X130337500Y-104350000D03*
%TO.P,U1,8,AIN4P_8*%
%TO.N,AIN3P*%
X130337500Y-104850000D03*
D34*
%TO.P,U1,9,AVDD_9*%
%TO.N,3V3A*%
X131750000Y-106262500D03*
%TO.P,U1,10,AVSS_10*%
%TO.N,GND*%
X132250000Y-106262500D03*
%TO.P,U1,11,VNCP_11*%
X132750000Y-106262500D03*
%TO.P,U1,12,VREFP_12*%
%TO.N,VREFP_C*%
X133250000Y-106262500D03*
%TO.P,U1,13,VREFN_13*%
%TO.N,GND*%
X133750000Y-106262500D03*
%TO.P,U1,14,REFEXT_14*%
%TO.N,REFEXT_F*%
X134250000Y-106262500D03*
%TO.P,U1,15,IOVDD_15*%
%TO.N,3V3A*%
X134750000Y-106262500D03*
%TO.P,U1,16,RESV_16*%
X135250000Y-106262500D03*
D33*
%TO.P,U1,17,RESET_N_17*%
%TO.N,ADC_RST*%
X136662500Y-104850000D03*
%TO.P,U1,18,DONE_N_18*%
%TO.N,unconnected-(U1-DONE_N-Pad18)*%
X136662500Y-104350000D03*
%TO.P,U1,19,DRDY_N_19*%
%TO.N,ADC_DRDY*%
X136662500Y-103850000D03*
%TO.P,U1,20,DIN_20*%
%TO.N,ADC_MOSI*%
X136662500Y-103350000D03*
%TO.P,U1,21,DOUT_21*%
%TO.N,ADC_MISO*%
X136662500Y-102850000D03*
%TO.P,U1,22,SCLK_22*%
%TO.N,ADC_SCLK*%
X136662500Y-102350000D03*
%TO.P,U1,23,CS_N_23*%
%TO.N,ADC_CS*%
X136662500Y-101850000D03*
%TO.P,U1,24,NC_24*%
%TO.N,unconnected-(U1-NC-Pad24)*%
X136662500Y-101350000D03*
D34*
%TO.P,U1,25,CLKIN_XTAL1_25*%
%TO.N,CLK16M*%
X135250000Y-99937500D03*
%TO.P,U1,26,XTAL2_26*%
%TO.N,unconnected-(U1-XTAL2-Pad26)*%
X134750000Y-99937500D03*
%TO.P,U1,27,GND_27*%
%TO.N,GND*%
X134250000Y-99937500D03*
%TO.P,U1,28,CAP_28*%
%TO.N,Net-(U1-CAP)*%
X133750000Y-99937500D03*
%TO.P,U1,29,IOVDD_29*%
%TO.N,3V3A*%
X133250000Y-99937500D03*
%TO.P,U1,30,M0_30*%
%TO.N,Net-(U1-M0)*%
X132750000Y-99937500D03*
%TO.P,U1,31,M1_31*%
%TO.N,Net-(U1-M1)*%
X132250000Y-99937500D03*
%TO.P,U1,32,M2_32*%
%TO.N,Net-(U1-M2)*%
X131750000Y-99937500D03*
%TD*%
D24*
%TO.P,C22,1*%
%TO.N,GND*%
X133900000Y-97232500D03*
%TO.P,C22,2*%
%TO.N,Net-(U1-CAP)*%
X133900000Y-98367500D03*
%TD*%
%TO.P,C42,1*%
%TO.N,AIN3P*%
X130200000Y-105932500D03*
%TO.P,C42,2*%
%TO.N,AIN3N*%
X130200000Y-107067500D03*
%TD*%
D32*
%TO.P,C26,1*%
%TO.N,GND*%
X120532500Y-92100000D03*
%TO.P,C26,2*%
%TO.N,VREFIO_C*%
X121667500Y-92100000D03*
%TD*%
D12*
%TO.P,R34,1*%
%TO.N,USB_DN*%
X154597500Y-109700000D03*
%TO.P,R34,2*%
%TO.N,Net-(U15-IO19)*%
X153402500Y-109700000D03*
%TD*%
D13*
%TO.P,R41,1*%
%TO.N,GND*%
X162902500Y-90900000D03*
%TO.P,R41,2*%
%TO.N,Net-(J2-CC2)*%
X164097500Y-90900000D03*
%TD*%
D31*
%TO.P,SW3,1,1_1*%
%TO.N,GND*%
X151850000Y-89600000D03*
%TO.P,SW3,2,2_2*%
%TO.N,EN*%
X154150000Y-89600000D03*
%TD*%
D23*
%TO.P,C36,1*%
%TO.N,3V3*%
X141912499Y-95600001D03*
%TO.P,C36,2*%
%TO.N,GND*%
X140187499Y-95600001D03*
%TD*%
D13*
%TO.P,R10,1*%
%TO.N,Net-(R10-Pad1)*%
X111002500Y-101000000D03*
%TO.P,R10,2*%
%TO.N,BREF_F*%
X112197500Y-101000000D03*
%TD*%
D12*
%TO.P,R2,1*%
%TO.N,Net-(U1-M1)*%
X129797500Y-97400000D03*
%TO.P,R2,2*%
%TO.N,3V3A*%
X128602500Y-97400000D03*
%TD*%
D13*
%TO.P,R29,1*%
%TO.N,ADC_CS*%
X138202500Y-100800000D03*
%TO.P,R29,2*%
%TO.N,3V3A*%
X139397500Y-100800000D03*
%TD*%
D35*
%TO.P,U15,1,GND_1*%
%TO.N,GND*%
X143650000Y-94050000D03*
%TO.P,U15,2,GND_2*%
X143650000Y-94900001D03*
%TO.P,U15,3,3V3_3*%
%TO.N,3V3*%
X143650000Y-95750002D03*
%TO.P,U15,4,IO0_4*%
%TO.N,Net-(U15-IO0)*%
X143650000Y-96600000D03*
%TO.P,U15,5,IO1_5*%
%TO.N,VBAT_SENSE*%
X143650000Y-97450001D03*
%TO.P,U15,6,IO2_6*%
%TO.N,unconnected-(U15-IO2-Pad6)*%
X143650000Y-98300002D03*
%TO.P,U15,7,IO3_7*%
%TO.N,Net-(U15-IO3)*%
X143650000Y-99150000D03*
%TO.P,U15,8,IO4_8*%
%TO.N,Net-(U15-IO4)*%
X143650000Y-100000001D03*
%TO.P,U15,9,IO5_9*%
%TO.N,Net-(U15-IO5)*%
X143650000Y-100850002D03*
%TO.P,U15,10,IO6_10*%
%TO.N,Net-(U15-IO6)*%
X143650000Y-101700000D03*
%TO.P,U15,11,IO7_11*%
%TO.N,ADC_MISO*%
X143650000Y-102550001D03*
%TO.P,U15,12,IO8_12*%
%TO.N,ADC_DRDY*%
X143650000Y-103400002D03*
%TO.P,U15,13,IO9_13*%
%TO.N,Net-(U15-IO9)*%
X143650000Y-104250000D03*
%TO.P,U15,14,IO10_14*%
%TO.N,FLASH_CS*%
X143650000Y-105100001D03*
%TO.P,U15,15,IO11_15*%
%TO.N,FLASH_MOSI*%
X143650000Y-105950002D03*
D36*
%TO.P,U15,16,IO12_16*%
%TO.N,FLASH_CLK*%
X144699998Y-107000000D03*
%TO.P,U15,17,IO13_17*%
%TO.N,FLASH_MISO*%
X145549999Y-107000000D03*
%TO.P,U15,18,IO14_18*%
%TO.N,Net-(U15-IO14)*%
X146400000Y-107000000D03*
%TO.P,U15,19,IO15_19*%
%TO.N,BUCK_MODE*%
X147249998Y-107000000D03*
%TO.P,U15,20,IO16_20*%
%TO.N,unconnected-(U15-IO16-Pad20)*%
X148099999Y-107000000D03*
%TO.P,U15,21,IO17_21*%
%TO.N,unconnected-(U15-IO17-Pad21)*%
X148950000Y-107000000D03*
%TO.P,U15,22,IO18_22*%
%TO.N,unconnected-(U15-IO18-Pad22)*%
X149799998Y-107000000D03*
%TO.P,U15,23,IO19_23*%
%TO.N,Net-(U15-IO19)*%
X150649999Y-107000000D03*
%TO.P,U15,24,IO20_24*%
%TO.N,Net-(U15-IO20)*%
X151500000Y-107000000D03*
%TO.P,U15,25,IO21_25*%
%TO.N,unconnected-(U15-IO21-Pad25)*%
X152349998Y-107000000D03*
%TO.P,U15,26,IO26_26*%
%TO.N,unconnected-(U15-IO26-Pad26)*%
X153199999Y-107000000D03*
%TO.P,U15,27,IO47_27*%
%TO.N,unconnected-(U15-IO47-Pad27)*%
X154050000Y-107000000D03*
%TO.P,U15,28,IO33_28*%
%TO.N,unconnected-(U15-IO33-Pad28)*%
X154899998Y-107000000D03*
%TO.P,U15,29,IO34_29*%
%TO.N,I2C_SDA*%
X155749999Y-107000000D03*
%TO.P,U15,30,IO48_30*%
%TO.N,unconnected-(U15-IO48-Pad30)*%
X156600000Y-107000000D03*
D35*
%TO.P,U15,31,IO35_31*%
%TO.N,I2C_SCL*%
X157649998Y-105950002D03*
%TO.P,U15,32,IO36_32*%
%TO.N,CHG_INT*%
X157649998Y-105100001D03*
%TO.P,U15,33,IO37_33*%
%TO.N,AFE_EN*%
X157649998Y-104250000D03*
%TO.P,U15,34,IO38_34*%
%TO.N,EXC_EN*%
X157649998Y-103400002D03*
%TO.P,U15,35,IO39_35*%
%TO.N,unconnected-(U15-IO39-Pad35)*%
X157649998Y-102550001D03*
%TO.P,U15,36,IO40_36*%
%TO.N,unconnected-(U15-IO40-Pad36)*%
X157649998Y-101700000D03*
%TO.P,U15,37,IO41_37*%
%TO.N,unconnected-(U15-IO41-Pad37)*%
X157649998Y-100850002D03*
%TO.P,U15,38,IO42_38*%
%TO.N,unconnected-(U15-IO42-Pad38)*%
X157649998Y-100000001D03*
%TO.P,U15,39,TXD0_39*%
%TO.N,unconnected-(U15-TXD0-Pad39)*%
X157649998Y-99150000D03*
%TO.P,U15,40,RXD0_40*%
%TO.N,unconnected-(U15-RXD0-Pad40)*%
X157649998Y-98300002D03*
%TO.P,U15,41,IO45_41*%
%TO.N,Net-(U15-IO45)*%
X157649998Y-97450001D03*
%TO.P,U15,42,GND_42*%
%TO.N,GND*%
X157649998Y-96600000D03*
%TO.P,U15,43,GND_43*%
X157649998Y-95750002D03*
%TO.P,U15,44,IO46_44*%
%TO.N,Net-(U15-IO46)*%
X157649998Y-94900001D03*
%TO.P,U15,45,EN_45*%
%TO.N,EN*%
X157649998Y-94050000D03*
D36*
%TO.P,U15,46,GND_46*%
%TO.N,GND*%
X156600000Y-93000002D03*
%TO.P,U15,47,GND_47*%
X155749999Y-93000002D03*
%TO.P,U15,48,GND_48*%
X154899998Y-93000002D03*
%TO.P,U15,49,GND_49*%
X154050000Y-93000002D03*
%TO.P,U15,50,GND_50*%
X153199999Y-93000002D03*
%TO.P,U15,51,GND_51*%
X152349998Y-93000002D03*
%TO.P,U15,52,GND_52*%
X151500000Y-93000002D03*
%TO.P,U15,53,GND_53*%
X150649999Y-93000002D03*
%TO.P,U15,54,GND_54*%
X149799998Y-93000002D03*
%TO.P,U15,55,GND_55*%
X148950000Y-93000002D03*
%TO.P,U15,56,GND_56*%
X148099999Y-93000002D03*
%TO.P,U15,57,GND_57*%
X147249998Y-93000002D03*
%TO.P,U15,58,GND_58*%
X146400000Y-93000002D03*
%TO.P,U15,59,GND_59*%
X145549999Y-93000002D03*
%TO.P,U15,60,GND_60*%
X144699998Y-93000002D03*
D37*
%TO.P,U15,61,GND_61*%
X150649999Y-100000001D03*
D38*
%TO.P,U15,62,GND_62*%
X143650000Y-93000002D03*
%TO.P,U15,63,GND_63*%
X143650000Y-107000000D03*
%TO.P,U15,64,GND_64*%
X157649998Y-107000000D03*
%TO.P,U15,65,GND_65*%
X157649998Y-93000002D03*
D37*
%TO.P,U15,66,GND_66*%
X148999999Y-98350001D03*
%TO.P,U15,67,GND_67*%
X148999999Y-100000001D03*
%TO.P,U15,68,GND_68*%
X148999999Y-101650001D03*
%TO.P,U15,69,GND_69*%
X150649999Y-101650001D03*
%TO.P,U15,70,GND_70*%
X152299999Y-101650001D03*
%TO.P,U15,71,GND_71*%
X152299999Y-100000001D03*
%TO.P,U15,72,GND_72*%
X152299999Y-98350001D03*
%TO.P,U15,73,GND_73*%
X150649999Y-98350001D03*
%TD*%
D10*
%TO.P,R22,1*%
%TO.N,CLK16M*%
X137900000Y-91297500D03*
%TO.P,R22,2*%
%TO.N,Net-(Y1-OUT)*%
X137900000Y-90102500D03*
%TD*%
D13*
%TO.P,R56,1*%
%TO.N,ADC_MOSI*%
X140952499Y-102300001D03*
%TO.P,R56,2*%
%TO.N,Net-(U15-IO6)*%
X142147499Y-102300001D03*
%TD*%
D12*
%TO.P,R7,1*%
%TO.N,SIG0*%
X115497500Y-97600000D03*
%TO.P,R7,2*%
%TO.N,GND*%
X114302500Y-97600000D03*
%TD*%
D39*
%TO.P,U14,1*%
%TO.N,SIG0*%
X115145000Y-92250000D03*
%TO.P,U14,2*%
%TO.N,GND*%
X115145000Y-93200000D03*
%TO.P,U14,3*%
%TO.N,SIG2*%
X115145000Y-94150000D03*
%TO.P,U14,4*%
%TO.N,EXC_2V5*%
X117655000Y-94150000D03*
%TO.P,U14,5*%
%TO.N,N/C*%
X117655000Y-93200000D03*
%TO.P,U14,6*%
%TO.N,SIG1*%
X117655000Y-92250000D03*
%TD*%
D32*
%TO.P,C1,1*%
%TO.N,3V3A*%
X122632500Y-95400000D03*
%TO.P,C1,2*%
%TO.N,GND*%
X123767500Y-95400000D03*
%TD*%
D40*
%TO.P,J4,1,Pin_1_1*%
%TO.N,VBAT*%
X111412500Y-106400000D03*
D41*
%TO.P,J4,2,Pin_2_2*%
%TO.N,BATT_N*%
X111412500Y-108400000D03*
%TD*%
D27*
%TO.P,C41,1*%
%TO.N,AIN2P*%
X128167500Y-105800000D03*
%TO.P,C41,2*%
%TO.N,AIN2N*%
X127032500Y-105800000D03*
%TD*%
D12*
%TO.P,R58,1*%
%TO.N,Net-(U15-IO4)*%
X142147499Y-100300001D03*
%TO.P,R58,2*%
%TO.N,DAC_CS*%
X140952499Y-100300001D03*
%TD*%
D13*
%TO.P,R13,1*%
%TO.N,SIG1*%
X115402500Y-103255000D03*
%TO.P,R13,2*%
%TO.N,INP1*%
X116597500Y-103255000D03*
%TD*%
%TO.P,R19,1*%
%TO.N,3V3A*%
X128900000Y-100400000D03*
%TO.P,R19,2*%
%TO.N,Net-(U1-M2)*%
X130095000Y-100400000D03*
%TD*%
D27*
%TO.P,C33,1*%
%TO.N,VBAT_SENSE*%
X142117499Y-97950001D03*
%TO.P,C33,2*%
%TO.N,GND*%
X140982499Y-97950001D03*
%TD*%
%TO.P,C40,1*%
%TO.N,AIN1P*%
X128167500Y-103800000D03*
%TO.P,C40,2*%
%TO.N,AIN1N*%
X127032500Y-103800000D03*
%TD*%
D32*
%TO.P,C6,1*%
%TO.N,3V3A*%
X122632500Y-99800000D03*
%TO.P,C6,2*%
%TO.N,GND*%
X123767500Y-99800000D03*
%TD*%
D42*
%TO.N,GND*%
X116432120Y-88580300D03*
X133700000Y-89500000D03*
X151100000Y-89700000D03*
X142500000Y-93600000D03*
X144300000Y-92200000D03*
X123200000Y-88500000D03*
X123000000Y-103800000D03*
X154900000Y-92100000D03*
X122300000Y-103600000D03*
X128800000Y-99200000D03*
X171000000Y-102700000D03*
X152200000Y-111000000D03*
X158700000Y-95400000D03*
X127900000Y-97900000D03*
X128600000Y-91200000D03*
X153300000Y-92100000D03*
X164700000Y-96100000D03*
X114000000Y-92700000D03*
X145000000Y-89400000D03*
X120900000Y-92700000D03*
X151600000Y-92100000D03*
X119500000Y-85600000D03*
X168400000Y-86800000D03*
X167600000Y-111600000D03*
X135700000Y-92400000D03*
X150000000Y-100900000D03*
X132600000Y-95800000D03*
X163200000Y-91600000D03*
X134500000Y-97500000D03*
X109100000Y-99000000D03*
X142500000Y-92349994D03*
X145900000Y-92000000D03*
X132300000Y-108200000D03*
X152400000Y-92100000D03*
X164500000Y-97125003D03*
X146200000Y-105300000D03*
X145300000Y-92200000D03*
X149000000Y-92100000D03*
X131900000Y-108700000D03*
X128600000Y-90574997D03*
X148300000Y-92100000D03*
X137100000Y-108300000D03*
X161900000Y-98100000D03*
X123312866Y-99122573D03*
X151400000Y-99300000D03*
X155400000Y-107800000D03*
X108900000Y-96800000D03*
X114183502Y-96902750D03*
X168000000Y-86000000D03*
X122700000Y-99000000D03*
X140200000Y-94400000D03*
X154100000Y-92100000D03*
X151500000Y-111200000D03*
X139000000Y-99000000D03*
X113700000Y-106900000D03*
X120300000Y-85300000D03*
X150800000Y-92200000D03*
X167000000Y-107900000D03*
X137500000Y-97700000D03*
X158700000Y-96000000D03*
X139100000Y-95800000D03*
X127900000Y-95400000D03*
X164400000Y-107500000D03*
X157200000Y-92100000D03*
X146800000Y-101800000D03*
X149800000Y-92100000D03*
X133900000Y-109400000D03*
X132000000Y-107500000D03*
X109300000Y-99700000D03*
X133800000Y-108200000D03*
X161100000Y-93400000D03*
X122300000Y-108200000D03*
X142800000Y-112400000D03*
X128900000Y-93800000D03*
X164700000Y-94400000D03*
X164300000Y-88300000D03*
X124500000Y-95300000D03*
X133648415Y-108806342D03*
X169100000Y-99100000D03*
X127000000Y-95400000D03*
X147500000Y-92200000D03*
X126200000Y-87800000D03*
X114500000Y-101600000D03*
X158900000Y-99400000D03*
X148400000Y-109900000D03*
X159700000Y-94900000D03*
X139100000Y-87300000D03*
X160900000Y-107500000D03*
X137300000Y-99000000D03*
X124700000Y-86700000D03*
X155800000Y-92100000D03*
X139900000Y-108100000D03*
X113700000Y-96500000D03*
X143674997Y-108500000D03*
X159300000Y-105000000D03*
X156500000Y-92100000D03*
X114700000Y-88200000D03*
X148200000Y-109000000D03*
X109200000Y-101900000D03*
X134700000Y-98600000D03*
X155800000Y-109800000D03*
X133600000Y-96500000D03*
X168000000Y-109000000D03*
X142500000Y-92974997D03*
%TO.N,VREF_1V65*%
X124800000Y-102100000D03*
X129500000Y-92100000D03*
%TO.N,Net-(U4-VOUT)*%
X124000000Y-101600000D03*
X125900000Y-104800000D03*
%TO.N,3V3A*%
X130500000Y-108000000D03*
X119700000Y-90600000D03*
X109100000Y-100300000D03*
X130200000Y-88500000D03*
X121800000Y-99800000D03*
X128300000Y-99600000D03*
X132500000Y-91000000D03*
X129000000Y-96800000D03*
X121800000Y-104400000D03*
X116600000Y-90300000D03*
X132800000Y-98400000D03*
X136000000Y-106200000D03*
X118700000Y-88800000D03*
X136100000Y-106900000D03*
X138900000Y-101300000D03*
X137600000Y-106400000D03*
X133500000Y-92300000D03*
X139200000Y-103400000D03*
X126100000Y-93500000D03*
X131700000Y-95700000D03*
X122000000Y-95500000D03*
%TO.N,Net-(U5-VOUT)*%
X123800000Y-105400000D03*
X124600000Y-106100000D03*
D43*
%TO.N,EXC_2V5*%
X114921360Y-88864081D03*
X109000000Y-98300000D03*
X108000000Y-90200000D03*
X108000000Y-92300000D03*
X108100000Y-94200000D03*
X108200000Y-87500000D03*
X119400000Y-109330000D03*
X119100000Y-94900000D03*
X118800000Y-87500000D03*
X115100000Y-95300000D03*
D42*
%TO.N,Net-(U3-VOUT)*%
X125300000Y-101400000D03*
X126200000Y-102600000D03*
D43*
%TO.N,BATT_N*%
X108400000Y-98800000D03*
D42*
%TO.N,SIG0*%
X114000000Y-92074997D03*
X114800000Y-96800000D03*
D43*
%TO.N,VBUS*%
X162595745Y-98022909D03*
X164600000Y-101625000D03*
X164392083Y-89885605D03*
X163900000Y-95900000D03*
D42*
%TO.N,ADC_SCLK*%
X136000000Y-96600000D03*
X138289022Y-101800000D03*
X135800000Y-95200000D03*
X131700000Y-90600000D03*
%TO.N,ADC_MOSI*%
X134700000Y-96500000D03*
X136683502Y-100297250D03*
D43*
%TO.N,VIN_P*%
X166400000Y-112000000D03*
D42*
%TO.N,ADC_CS*%
X137300000Y-100400000D03*
X139300000Y-106000000D03*
%TO.N,Net-(U6-VOUT)*%
X118500000Y-109200000D03*
%TO.N,EXC_EN*%
X118400000Y-90200000D03*
X156600000Y-103400000D03*
%TO.N,3V3*%
X144700000Y-100000000D03*
X142600000Y-111600000D03*
X142700000Y-111000000D03*
X140800000Y-111100000D03*
X161000000Y-92500000D03*
X140100000Y-96700000D03*
X160000000Y-109600000D03*
X160122573Y-111512866D03*
X141879823Y-92897478D03*
X148100000Y-108300000D03*
X160000000Y-110900000D03*
X125583502Y-87902750D03*
X153400000Y-105800000D03*
X143900000Y-112300000D03*
X144800000Y-97900000D03*
X144600000Y-99400000D03*
D43*
%TO.N,VBAT*%
X138600000Y-97100000D03*
D42*
%TO.N,Net-(U15-IO0)*%
X147000000Y-91800000D03*
X144800000Y-95900000D03*
%TO.N,ADC_MISO*%
X139900000Y-104400000D03*
X138300000Y-102800000D03*
%TO.N,AIN1N*%
X129100000Y-102200000D03*
X125319700Y-105032120D03*
%TO.N,AIN2N*%
X129200000Y-103400000D03*
X126000000Y-106200000D03*
%TO.N,AIN3N*%
X129100000Y-104700000D03*
X129887134Y-107877427D03*
%TO.N,FLASH_CS*%
X140900000Y-105800000D03*
%TO.N,FLASH_MOSI*%
X143200000Y-108000000D03*
%TO.N,FLASH_CLK*%
X144300000Y-108500000D03*
%TO.N,FLASH_MISO*%
X144700000Y-102700000D03*
%TO.N,BUCK_MODE*%
X149900000Y-110900000D03*
%TO.N,I2C_SDA*%
X160797250Y-106883502D03*
%TO.N,I2C_SCL*%
X156900000Y-106200000D03*
X162000000Y-110200000D03*
X162200000Y-112100000D03*
%TO.N,CHG_INT*%
X159300000Y-107100000D03*
%TO.N,AFE_EN*%
X124000000Y-85300000D03*
%TD*%
%TO.N,Net-(R21-Pad1)*%
D44*
X116500000Y-106740000D02*
X118002500Y-106740000D01*
%TO.N,Net-(R21-Pad2)*%
X117130000Y-106175000D02*
X118087500Y-106175000D01*
X116500000Y-105545000D02*
X117130000Y-106175000D01*
%TO.N,BREF_F*%
X118087500Y-104987500D02*
X118000000Y-104900000D01*
X118999999Y-96470000D02*
X118187500Y-96470000D01*
X113700000Y-102900000D02*
X115700000Y-104900000D01*
X114400000Y-100100000D02*
X117900000Y-100100000D01*
X118400000Y-99800000D02*
X119230000Y-98970000D01*
X113700000Y-101200000D02*
X113500000Y-101000000D01*
X114200000Y-99800000D02*
X118400000Y-99800000D01*
X119230000Y-96700001D02*
X118999999Y-96470000D01*
X113700000Y-102900000D02*
X113700000Y-101200000D01*
X112197500Y-101000000D02*
X113500000Y-101000000D01*
X118187500Y-100387500D02*
X118187500Y-100925000D01*
X113500000Y-101000000D02*
X113500000Y-100500000D01*
X113500000Y-100500000D02*
X114200000Y-99800000D01*
X115700000Y-104900000D02*
X118000000Y-104900000D01*
X119230000Y-98970000D02*
X119230000Y-96700001D01*
X118087500Y-105525000D02*
X118087500Y-104987500D01*
X117900000Y-100100000D02*
X118187500Y-100387500D01*
X113500000Y-101000000D02*
X114400000Y-100100000D01*
%TO.N,Net-(R11-Pad2)*%
X117217500Y-101575000D02*
X118187500Y-101575000D01*
X116600000Y-100957500D02*
X117217500Y-101575000D01*
%TO.N,Net-(R11-Pad1)*%
X116600000Y-102152500D02*
X118115000Y-102152500D01*
%TO.N,INP1*%
X116977500Y-102875000D02*
X116597500Y-103255000D01*
X118187500Y-102875000D02*
X116977500Y-102875000D01*
%TO.N,GND*%
X150649999Y-101650001D02*
X150649999Y-101549999D01*
X157649998Y-93000002D02*
X157649998Y-92549998D01*
X152100001Y-100000001D02*
X151400000Y-99300000D01*
X164900000Y-88900000D02*
X164300000Y-88300000D01*
X165720000Y-88900000D02*
X164900000Y-88900000D01*
X137900001Y-99600001D02*
X137300000Y-99000000D01*
X143650000Y-94900001D02*
X143650000Y-94750000D01*
X159100000Y-98697500D02*
X159100000Y-99200000D01*
X136250000Y-91850000D02*
X135700000Y-92400000D01*
X132900000Y-96532500D02*
X133567500Y-96532500D01*
X133567500Y-96532500D02*
X133600000Y-96500000D01*
X134232500Y-97232500D02*
X134500000Y-97500000D01*
X147249998Y-92450002D02*
X147500000Y-92200000D01*
X168590000Y-86990000D02*
X168400000Y-86800000D01*
X157649998Y-96600000D02*
X158100000Y-96600000D01*
X159300000Y-105349998D02*
X159300000Y-105000000D01*
X157649998Y-107000000D02*
X159300000Y-105349998D01*
X129602500Y-99400000D02*
X129000000Y-99400000D01*
X122412500Y-98712500D02*
X122700000Y-99000000D01*
X132250000Y-106262500D02*
X132250000Y-107050000D01*
X165720000Y-95300000D02*
X166000000Y-95300000D01*
X150649999Y-92350001D02*
X150800000Y-92200000D01*
X126900000Y-95300000D02*
X127000000Y-95400000D01*
X133750000Y-106262500D02*
X133750000Y-108150000D01*
X114302500Y-97021748D02*
X114183502Y-96902750D01*
X147249998Y-93000002D02*
X147249998Y-92450002D01*
X137500000Y-97710980D02*
X137500000Y-97700000D01*
X132500000Y-108000000D02*
X132300000Y-108200000D01*
X165500000Y-95300000D02*
X164700000Y-96100000D01*
X114302500Y-101797500D02*
X114500000Y-101600000D01*
X120532500Y-92100000D02*
X120532500Y-92332500D01*
X143575003Y-94050000D02*
X142500000Y-92974997D01*
X151850000Y-89600000D02*
X151200000Y-89600000D01*
X146150000Y-89700000D02*
X145300000Y-89700000D01*
X134250000Y-99937500D02*
X134250000Y-99050000D01*
X132750000Y-107050000D02*
X132500000Y-107300000D01*
X117595000Y-88400000D02*
X116612420Y-88400000D01*
X170225000Y-97210000D02*
X169100000Y-98335000D01*
X128900000Y-93167500D02*
X128900000Y-93800000D01*
X154899998Y-92100002D02*
X154900000Y-92100000D01*
X132500000Y-107300000D02*
X132500000Y-108000000D01*
X150750001Y-101650001D02*
X150000000Y-100900000D01*
X156600000Y-92200000D02*
X156500000Y-92100000D01*
X140187499Y-95600001D02*
X139299999Y-95600001D01*
X151200000Y-89600000D02*
X151100000Y-89700000D01*
X114302500Y-102255000D02*
X114302500Y-101797500D01*
X134232500Y-109067500D02*
X133900000Y-109400000D01*
X145549999Y-93000002D02*
X145549999Y-92449999D01*
X145549999Y-92449999D02*
X145300000Y-92200000D01*
X131900000Y-96500000D02*
X132600000Y-95800000D01*
X144699998Y-93000002D02*
X144699998Y-92599998D01*
X139049999Y-98950001D02*
X139000000Y-99000000D01*
X148999999Y-100000001D02*
X149100001Y-100000001D01*
X133300000Y-89900000D02*
X133700000Y-89500000D01*
X157649998Y-95750002D02*
X158349998Y-95750002D01*
X123395000Y-87400000D02*
X123395000Y-88305000D01*
X150649999Y-98350001D02*
X150649999Y-98549999D01*
X162200000Y-98400000D02*
X161900000Y-98100000D01*
X149100001Y-100000001D02*
X150000000Y-100900000D01*
X148099999Y-92300001D02*
X148300000Y-92100000D01*
X160349999Y-94250001D02*
X159700000Y-94900000D01*
X115145000Y-93200000D02*
X114500000Y-93200000D01*
X156600000Y-93000002D02*
X156600000Y-92200000D01*
X167010000Y-86990000D02*
X168000000Y-86000000D01*
X122412500Y-103487500D02*
X122300000Y-103600000D01*
X128149999Y-90700000D02*
X128600000Y-91150001D01*
X149799998Y-93000002D02*
X149799998Y-92100002D01*
X140300000Y-87900000D02*
X139700000Y-87900000D01*
X128400000Y-98400000D02*
X127900000Y-97900000D01*
X123667500Y-104467500D02*
X123000000Y-103800000D01*
X139299999Y-95600001D02*
X139100000Y-95800000D01*
X120532500Y-92332500D02*
X120900000Y-92700000D01*
X171900000Y-104800000D02*
X171900000Y-103600000D01*
X143650000Y-94750000D02*
X142500000Y-93600000D01*
X122412500Y-102875000D02*
X122412500Y-103487500D01*
X162200000Y-99237500D02*
X162200000Y-98400000D01*
X154050000Y-92150000D02*
X154100000Y-92100000D01*
X128225003Y-90200000D02*
X128600000Y-90574997D01*
X153199999Y-92200001D02*
X153300000Y-92100000D01*
X153199999Y-93000002D02*
X153199999Y-92200001D01*
X150000000Y-100900000D02*
X149750000Y-100900000D01*
X143700000Y-108474997D02*
X143674997Y-108500000D01*
X128600000Y-91150001D02*
X128600000Y-91200000D01*
X152299999Y-100000001D02*
X152100001Y-100000001D01*
X114500000Y-93200000D02*
X114000000Y-92700000D01*
X143150008Y-93000002D02*
X142500000Y-92349994D01*
X146400000Y-93000002D02*
X146400000Y-92500000D01*
X162902500Y-91302500D02*
X163200000Y-91600000D01*
X159100000Y-99200000D02*
X158900000Y-99400000D01*
X165720000Y-88900000D02*
X166150406Y-88900000D01*
X114302500Y-106745000D02*
X113855000Y-106745000D01*
X166295000Y-97210000D02*
X164584997Y-97210000D01*
X122312500Y-108187500D02*
X122300000Y-108200000D01*
X154899998Y-93000002D02*
X154899998Y-92100002D01*
X127900000Y-94667500D02*
X127900000Y-95400000D01*
X148950000Y-93000002D02*
X148950000Y-92150000D01*
X133750000Y-108150000D02*
X133800000Y-108200000D01*
X140432499Y-98500001D02*
X138289021Y-98500001D01*
X169100000Y-98335000D02*
X169100000Y-99100000D01*
X116612420Y-88400000D02*
X116432120Y-88580300D01*
X114302500Y-97600000D02*
X114302500Y-97021748D01*
X152349998Y-92150002D02*
X152400000Y-92100000D01*
X131300000Y-108967500D02*
X131632500Y-108967500D01*
X134250000Y-99050000D02*
X134700000Y-98600000D01*
X152349998Y-93000002D02*
X152349998Y-92150002D01*
X152299999Y-98400001D02*
X151400000Y-99300000D01*
X124400000Y-95400000D02*
X124500000Y-95300000D01*
X145300000Y-89700000D02*
X145000000Y-89400000D01*
X110000000Y-96300000D02*
X109400000Y-96300000D01*
X114932500Y-87400000D02*
X114932500Y-87967500D01*
X140982499Y-97950001D02*
X140432499Y-98500001D01*
X133100000Y-108935000D02*
X133519757Y-108935000D01*
X144699998Y-92599998D02*
X144300000Y-92200000D01*
X109400000Y-96300000D02*
X108900000Y-96800000D01*
X148999999Y-98350001D02*
X150450001Y-98350001D01*
X143700000Y-107050000D02*
X143700000Y-108474997D01*
X136632500Y-108767500D02*
X137100000Y-108300000D01*
X133519757Y-108935000D02*
X133648415Y-108806342D01*
X123395000Y-88305000D02*
X123200000Y-88500000D01*
X160367499Y-93250001D02*
X160950001Y-93250001D01*
X132250000Y-107050000D02*
X132000000Y-107300000D01*
X150649999Y-98549999D02*
X151400000Y-99300000D01*
X123767500Y-99577207D02*
X123312866Y-99122573D01*
X155749999Y-92150001D02*
X155800000Y-92100000D01*
X143650000Y-93000002D02*
X143150008Y-93000002D01*
X154050000Y-93000002D02*
X154050000Y-92150000D01*
X139700000Y-87900000D02*
X139100000Y-87300000D01*
X140952499Y-98950001D02*
X139049999Y-98950001D01*
X150649999Y-93000002D02*
X150649999Y-92350001D01*
X150450001Y-98350001D02*
X151400000Y-99300000D01*
X146400000Y-92500000D02*
X145900000Y-92000000D01*
X134600000Y-109067500D02*
X134232500Y-109067500D01*
X152299999Y-98350001D02*
X152299999Y-98400001D01*
X164102500Y-94997500D02*
X164700000Y-94400000D01*
X123767500Y-95400000D02*
X124400000Y-95400000D01*
X131632500Y-108967500D02*
X131900000Y-108700000D01*
X148099999Y-93000002D02*
X148099999Y-92300001D01*
X158100000Y-96600000D02*
X158700000Y-96000000D01*
X152299999Y-101650001D02*
X150750001Y-101650001D01*
X122312500Y-107475000D02*
X122312500Y-108187500D01*
X127400000Y-90200000D02*
X128225003Y-90200000D01*
X157649998Y-92549998D02*
X157200000Y-92100000D01*
X140982499Y-94400001D02*
X140200000Y-94400000D01*
X138702499Y-99600001D02*
X137900001Y-99600001D01*
X151500000Y-92200000D02*
X151600000Y-92100000D01*
X123767500Y-99800000D02*
X123767500Y-99577207D01*
X129000000Y-99400000D02*
X128800000Y-99200000D01*
X114932500Y-87967500D02*
X114700000Y-88200000D01*
X151500000Y-93000002D02*
X151500000Y-92200000D01*
X162902500Y-90900000D02*
X162902500Y-91302500D01*
X126900000Y-94667500D02*
X126900000Y-95300000D01*
X171900000Y-103600000D02*
X171000000Y-102700000D01*
X112000000Y-96300000D02*
X113500000Y-96300000D01*
X127400000Y-90700000D02*
X128149999Y-90700000D01*
X111002500Y-100000000D02*
X109600000Y-100000000D01*
X164584997Y-97210000D02*
X164500000Y-97125003D01*
X148950000Y-92150000D02*
X149000000Y-92100000D01*
X109600000Y-100000000D02*
X109300000Y-99700000D01*
X113500000Y-96300000D02*
X113700000Y-96500000D01*
X132000000Y-107300000D02*
X132000000Y-107500000D01*
X132750000Y-106262500D02*
X132750000Y-107050000D01*
X158349998Y-95750002D02*
X158700000Y-95400000D01*
X150699999Y-100000001D02*
X151400000Y-99300000D01*
X138289021Y-98500001D02*
X137500000Y-97710980D01*
X149799998Y-92100002D02*
X149800000Y-92100000D01*
X133900000Y-97232500D02*
X134232500Y-97232500D01*
X155749999Y-93000002D02*
X155749999Y-92150001D01*
X149750000Y-100900000D02*
X148999999Y-101650001D01*
X170225000Y-86990000D02*
X168590000Y-86990000D01*
X160950001Y-93250001D02*
X161100000Y-93400000D01*
X113855000Y-106745000D02*
X113700000Y-106900000D01*
X122412500Y-98420000D02*
X122412500Y-98712500D01*
X150649999Y-101549999D02*
X150000000Y-100900000D01*
%TO.N,VREF_1V65*%
X123124999Y-106825000D02*
X122312500Y-106825000D01*
X124675000Y-102225000D02*
X122412500Y-102225000D01*
X125400000Y-102100000D02*
X126602500Y-100897500D01*
X129432500Y-92032500D02*
X129500000Y-92100000D01*
X123420510Y-97770000D02*
X122412500Y-97770000D01*
X124800000Y-105149999D02*
X123124999Y-106825000D01*
X128900000Y-92032500D02*
X129432500Y-92032500D01*
X128567500Y-91700000D02*
X127400000Y-91700000D01*
X128900000Y-92032500D02*
X130200000Y-90732500D01*
X128900000Y-92032500D02*
X128567500Y-91700000D01*
X124800000Y-102100000D02*
X124800000Y-99149490D01*
X124800000Y-102100000D02*
X125400000Y-102100000D01*
X124800000Y-102100000D02*
X124800000Y-105149999D01*
X130200000Y-90732500D02*
X130200000Y-90300000D01*
X126602500Y-100897500D02*
X126602500Y-100400000D01*
X124800000Y-102100000D02*
X124675000Y-102225000D01*
X124800000Y-99149490D02*
X123420510Y-97770000D01*
%TO.N,Net-(U4-VOUT)*%
X125900000Y-104800000D02*
X126702500Y-104800000D01*
X123975000Y-101575000D02*
X124000000Y-101600000D01*
X122412500Y-101575000D02*
X123975000Y-101575000D01*
%TO.N,3V3A*%
X116067500Y-87400000D02*
X115932120Y-87535380D01*
X122632500Y-100705000D02*
X122412500Y-100925000D01*
X135937500Y-106262500D02*
X136000000Y-106200000D01*
X129500000Y-87800000D02*
X130200000Y-88500000D01*
X139497500Y-102700000D02*
X139497500Y-103102500D01*
X133300000Y-91267500D02*
X132767500Y-91267500D01*
X122532500Y-105305000D02*
X122312500Y-105525000D01*
X138097500Y-105902500D02*
X137600000Y-106400000D01*
X122100000Y-95400000D02*
X122000000Y-95500000D01*
X135000000Y-107400000D02*
X135887500Y-107400000D01*
X131300000Y-106712500D02*
X131750000Y-106262500D01*
X122532500Y-104500000D02*
X122532500Y-105305000D01*
X126132500Y-93532500D02*
X126100000Y-93500000D01*
X128600000Y-87800000D02*
X129500000Y-87800000D01*
X115932120Y-87535380D02*
X115932120Y-89632120D01*
X122632500Y-95400000D02*
X122632500Y-96250000D01*
X131497500Y-95902500D02*
X131700000Y-95700000D01*
X127400000Y-92200000D02*
X127400000Y-93032500D01*
X127400000Y-93032500D02*
X127900000Y-93532500D01*
X139497500Y-103102500D02*
X139200000Y-103400000D01*
X122532500Y-104500000D02*
X121900000Y-104500000D01*
X131300000Y-107832500D02*
X130667500Y-107832500D01*
X134750000Y-107150000D02*
X135000000Y-107400000D01*
X122632500Y-95400000D02*
X122100000Y-95400000D01*
X120402500Y-90700000D02*
X119800000Y-90700000D01*
X132900000Y-98300000D02*
X132800000Y-98400000D01*
X122632500Y-99800000D02*
X122632500Y-100705000D01*
X132900000Y-97700000D02*
X133250000Y-98050000D01*
X131300000Y-107832500D02*
X131300000Y-106712500D01*
X133732500Y-91267500D02*
X134650000Y-90350000D01*
X126900000Y-93532500D02*
X126132500Y-93532500D01*
X121900000Y-104500000D02*
X121800000Y-104400000D01*
X122632500Y-99800000D02*
X121800000Y-99800000D01*
X135250000Y-106262500D02*
X135937500Y-106262500D01*
X133300000Y-91267500D02*
X133732500Y-91267500D01*
X133250000Y-98050000D02*
X133250000Y-99937500D01*
X132767500Y-91267500D02*
X132500000Y-91000000D01*
X127400000Y-93032500D02*
X126900000Y-93532500D01*
X139397500Y-100802500D02*
X138900000Y-101300000D01*
X116117500Y-87450000D02*
X116067500Y-87400000D01*
X117595000Y-87450000D02*
X116117500Y-87450000D01*
X128602500Y-97197500D02*
X129000000Y-96800000D01*
X115932120Y-89632120D02*
X116600000Y-90300000D01*
X128900000Y-100200000D02*
X128300000Y-99600000D01*
X122632500Y-96250000D02*
X122412500Y-96470000D01*
X133950000Y-91850000D02*
X133500000Y-92300000D01*
X135887500Y-107400000D02*
X136120000Y-107632500D01*
X119800000Y-90700000D02*
X119700000Y-90600000D01*
X134650000Y-91850000D02*
X133950000Y-91850000D01*
X136600000Y-107400000D02*
X136100000Y-106900000D01*
X130667500Y-107832500D02*
X130500000Y-108000000D01*
X130900000Y-95902500D02*
X131497500Y-95902500D01*
X136120000Y-107632500D02*
X136600000Y-107632500D01*
X134750000Y-106262500D02*
X134750000Y-107150000D01*
X132900000Y-97667500D02*
X132900000Y-98300000D01*
%TO.N,SIG2*%
X119959999Y-93375191D02*
X119959999Y-106920511D01*
X118585510Y-108295000D02*
X115852500Y-108295000D01*
X116470000Y-92255192D02*
X116995192Y-91730000D01*
X115749999Y-94150000D02*
X116470000Y-93430000D01*
X116995192Y-91730000D02*
X118314808Y-91730000D01*
X118314808Y-91730000D02*
X119959999Y-93375191D01*
X115302500Y-107745000D02*
X115302500Y-106940000D01*
X113850000Y-94150000D02*
X115145000Y-94150000D01*
X115852500Y-108295000D02*
X115302500Y-107745000D01*
X115145000Y-94150000D02*
X115749999Y-94150000D01*
X112000000Y-92300000D02*
X113850000Y-94150000D01*
X116470000Y-93430000D02*
X116470000Y-92255192D01*
X119959999Y-106920511D02*
X118585510Y-108295000D01*
%TO.N,Net-(U5-VOUT)*%
X125300000Y-106800000D02*
X127002500Y-106800000D01*
X124600000Y-106100000D02*
X125300000Y-106800000D01*
X123025000Y-106175000D02*
X123800000Y-105400000D01*
%TO.N,AIN2P*%
X128600000Y-104400000D02*
X128600000Y-105367500D01*
X128600000Y-105367500D02*
X128167500Y-105800000D01*
X129100000Y-103900000D02*
X128600000Y-104400000D01*
X128167500Y-105800000D02*
X128167500Y-106770000D01*
X130287500Y-103900000D02*
X129100000Y-103900000D01*
%TO.N,Net-(U1-M0)*%
X132300000Y-98607107D02*
X132300000Y-98097500D01*
X132750000Y-99937500D02*
X132750000Y-99057107D01*
X131900000Y-97697500D02*
X131500000Y-97697500D01*
X131500000Y-97697500D02*
X130900000Y-97097500D01*
X132750000Y-99057107D02*
X132300000Y-98607107D01*
X132300000Y-98097500D02*
X131900000Y-97697500D01*
%TO.N,Net-(U1-M2)*%
X131400000Y-99400000D02*
X130797500Y-99400000D01*
X131500000Y-99687500D02*
X131500000Y-99500000D01*
X130095000Y-100005000D02*
X130095000Y-100400000D01*
X131500000Y-99500000D02*
X131400000Y-99400000D01*
X131750000Y-99937500D02*
X131500000Y-99687500D01*
X130700000Y-99400000D02*
X130095000Y-100005000D01*
%TO.N,SIG1*%
X119630000Y-102750510D02*
X118380510Y-104000000D01*
X111095000Y-91205000D02*
X111095000Y-92674864D01*
X116147500Y-104000000D02*
X115402500Y-103255000D01*
X112000000Y-90300000D02*
X111095000Y-91205000D01*
X111095000Y-92674864D02*
X111625136Y-93205000D01*
X116800000Y-92875192D02*
X117425192Y-92250000D01*
X117655000Y-92250000D02*
X118259999Y-92250000D01*
X115804808Y-94670000D02*
X116800000Y-93674808D01*
X119630000Y-93620001D02*
X119630000Y-102750510D01*
X118259999Y-92250000D02*
X119630000Y-93620001D01*
X115402500Y-103255000D02*
X115402500Y-102350000D01*
X111625136Y-93205000D02*
X112374864Y-93205000D01*
X112374864Y-93205000D02*
X113839864Y-94670000D01*
X118380510Y-104000000D02*
X116147500Y-104000000D01*
X113839864Y-94670000D02*
X115804808Y-94670000D01*
X116800000Y-93674808D02*
X116800000Y-92875192D01*
%TO.N,EXC_2V5*%
D45*
X118850000Y-87450000D02*
X118800000Y-87500000D01*
X119870000Y-87450000D02*
X121620000Y-87450000D01*
X115200000Y-89800000D02*
X115200000Y-89142721D01*
X108200000Y-94300000D02*
X108100000Y-94200000D01*
X119870000Y-87450000D02*
X118850000Y-87450000D01*
X110000000Y-88300000D02*
X109000000Y-88300000D01*
X110000000Y-90300000D02*
X108100000Y-90300000D01*
X109000000Y-88300000D02*
X108200000Y-87500000D01*
X118500000Y-94300000D02*
X117805000Y-94300000D01*
X108100000Y-90300000D02*
X108000000Y-90200000D01*
X117805000Y-94300000D02*
X117655000Y-94150000D01*
X120070000Y-110000000D02*
X119400000Y-109330000D01*
X115200000Y-89142721D02*
X114921360Y-88864081D01*
X135600000Y-109297500D02*
X134897500Y-110000000D01*
X110000000Y-94300000D02*
X108200000Y-94300000D01*
X116505000Y-95300000D02*
X115100000Y-95300000D01*
X134897500Y-110000000D02*
X120070000Y-110000000D01*
X117655000Y-94150000D02*
X116505000Y-95300000D01*
X110000000Y-92300000D02*
X108000000Y-92300000D01*
X111002500Y-99000000D02*
X110302500Y-98300000D01*
X119100000Y-94900000D02*
X118500000Y-94300000D01*
X110302500Y-98300000D02*
X109000000Y-98300000D01*
%TO.N,REFEXT_F*%
D44*
X134250000Y-107582500D02*
X134600000Y-107932500D01*
X134250000Y-106262500D02*
X134250000Y-107582500D01*
X134600000Y-107932500D02*
X135430000Y-107932500D01*
%TO.N,Net-(U3-VOUT)*%
X123237200Y-97120000D02*
X125300000Y-99182800D01*
X122412500Y-97120000D02*
X123237200Y-97120000D01*
X125300000Y-99182800D02*
X125300000Y-101400000D01*
X126200000Y-102600000D02*
X126905000Y-102600000D01*
%TO.N,AIN0P*%
X128170000Y-101700000D02*
X128170000Y-102670000D01*
X129200000Y-101500000D02*
X128370000Y-101500000D01*
X129200000Y-101500000D02*
X129550000Y-101850000D01*
X129550000Y-101850000D02*
X130337500Y-101850000D01*
%TO.N,BATT_N*%
D46*
X108400000Y-105387500D02*
X108400000Y-98800000D01*
X111412500Y-108400000D02*
X108400000Y-105387500D01*
%TO.N,SIG0*%
D44*
X115402500Y-98700000D02*
X115402500Y-97695000D01*
X114800000Y-96902500D02*
X115497500Y-97600000D01*
X114800000Y-96800000D02*
X114800000Y-96902500D01*
X114969997Y-92074997D02*
X114000000Y-92074997D01*
X115145000Y-91445000D02*
X115145000Y-92250000D01*
X112000000Y-88300000D02*
X115145000Y-91445000D01*
%TO.N,VBUS*%
X162200000Y-96962500D02*
X162200000Y-97627164D01*
D45*
X165720000Y-94500000D02*
X166188984Y-94500000D01*
D44*
X162200000Y-97627164D02*
X162595745Y-98022909D01*
D45*
X165720000Y-89700000D02*
X164577688Y-89700000D01*
X164577688Y-89700000D02*
X164392083Y-89885605D01*
X164600000Y-101625000D02*
X164600000Y-102600000D01*
D44*
X164650000Y-95250000D02*
X164650000Y-95360978D01*
X164650000Y-95360978D02*
X164110978Y-95900000D01*
X165400000Y-94500000D02*
X164650000Y-95250000D01*
X164110978Y-95900000D02*
X163900000Y-95900000D01*
%TO.N,Net-(J2-CC1)*%
X164100000Y-93802500D02*
X164552500Y-93350000D01*
X165850000Y-93350000D02*
X165900000Y-93400000D01*
X164552500Y-93350000D02*
X165720000Y-93350000D01*
%TO.N,USB_DP*%
X161888442Y-96070000D02*
X162142500Y-96070000D01*
X162142500Y-96070000D02*
X163140020Y-95072480D01*
X161250000Y-96962500D02*
X161670000Y-96542500D01*
X160825747Y-108345000D02*
X161950000Y-107220747D01*
X161950000Y-100931251D02*
X161250000Y-100231251D01*
X165600000Y-91470000D02*
X165720000Y-91350000D01*
X165720000Y-92350000D02*
X165800000Y-92350000D01*
X154890393Y-108700000D02*
X155245393Y-108345000D01*
X163140020Y-93341767D02*
X165011787Y-91470000D01*
X161950000Y-107220747D02*
X161950000Y-100931251D01*
X165011787Y-91470000D02*
X165600000Y-91470000D01*
X154597500Y-108700000D02*
X154890393Y-108700000D01*
X166294999Y-91350000D02*
X166525000Y-91580001D01*
X166228414Y-92350000D02*
X165720000Y-92350000D01*
X163140020Y-95072480D02*
X163140020Y-93341767D01*
X166525000Y-91580001D02*
X166525000Y-92053414D01*
X161670000Y-96288442D02*
X161888442Y-96070000D01*
X166525000Y-92053414D02*
X166228414Y-92350000D01*
X161250000Y-96962500D02*
X161250000Y-99237500D01*
X165720000Y-91350000D02*
X166294999Y-91350000D01*
X161670000Y-96542500D02*
X161670000Y-96288442D01*
X155245393Y-108345000D02*
X160825747Y-108345000D01*
X165720000Y-91350000D02*
X165800000Y-91350000D01*
X161250000Y-100231251D02*
X161250000Y-99237500D01*
%TO.N,USB_DN*%
X163550000Y-95245128D02*
X163550000Y-93439022D01*
X154597500Y-109700000D02*
X155452520Y-108844980D01*
X164842436Y-92146586D02*
X164915000Y-92146586D01*
X165720000Y-91850000D02*
X165850000Y-91850000D01*
X165145001Y-92850000D02*
X165720000Y-92850000D01*
X162450000Y-100931251D02*
X163150000Y-100231251D01*
X161032845Y-108844980D02*
X162450000Y-107427825D01*
X165720000Y-92850000D02*
X165850000Y-92850000D01*
X155452520Y-108844980D02*
X161032845Y-108844980D01*
X163550000Y-93439022D02*
X164842436Y-92146586D01*
X163150000Y-95645128D02*
X163550000Y-95245128D01*
X163150000Y-100231251D02*
X163150000Y-99237500D01*
X164915000Y-92619999D02*
X165145001Y-92850000D01*
X165639207Y-91930793D02*
X165720000Y-91850000D01*
X163150000Y-96962500D02*
X163150000Y-95645128D01*
X165850000Y-91850000D02*
X165900000Y-91900000D01*
X162450000Y-107427825D02*
X162450000Y-100931251D01*
X165130793Y-91930793D02*
X164915000Y-92146586D01*
X165130793Y-91930793D02*
X165639207Y-91930793D01*
X163150000Y-96962500D02*
X163150000Y-99237500D01*
X164915000Y-92146586D02*
X164915000Y-92619999D01*
%TO.N,Net-(J2-CC2)*%
X164097500Y-90900000D02*
X164647500Y-90350000D01*
X164647500Y-90350000D02*
X165720000Y-90350000D01*
X165850000Y-90350000D02*
X165900000Y-90300000D01*
%TO.N,INP0*%
X116877500Y-98420000D02*
X116597500Y-98700000D01*
X118187500Y-98420000D02*
X116877500Y-98420000D01*
%TO.N,ADC_SCLK*%
X131700000Y-90600000D02*
X131700000Y-90340000D01*
X130930000Y-89570000D02*
X123830000Y-89570000D01*
X136000000Y-95400000D02*
X135800000Y-95200000D01*
X140452500Y-101800000D02*
X140952499Y-101300001D01*
X137739022Y-102350000D02*
X138289022Y-101800000D01*
X138289022Y-101800000D02*
X140452500Y-101800000D01*
X136662500Y-102350000D02*
X137739022Y-102350000D01*
X123830000Y-89570000D02*
X123200000Y-90200000D01*
X131700000Y-90340000D02*
X130930000Y-89570000D01*
X136000000Y-96600000D02*
X136000000Y-95400000D01*
%TO.N,DAC_CS*%
X136800000Y-97507107D02*
X138450000Y-95857107D01*
X122220000Y-90469999D02*
X122450001Y-90700000D01*
X137333310Y-99500000D02*
X137092893Y-99500000D01*
X122450001Y-90700000D02*
X123200000Y-90700000D01*
X136800000Y-99207107D02*
X136800000Y-97507107D01*
X138450000Y-89739022D02*
X137710978Y-89000000D01*
X137710978Y-89000000D02*
X123198562Y-89000000D01*
X140902498Y-100250000D02*
X138083310Y-100250000D01*
X122220000Y-89978562D02*
X122220000Y-90469999D01*
X138450000Y-95857107D02*
X138450000Y-89739022D01*
X123198562Y-89000000D02*
X122220000Y-89978562D01*
X121597500Y-90700000D02*
X123200000Y-90700000D01*
X138083310Y-100250000D02*
X137333310Y-99500000D01*
X137092893Y-99500000D02*
X136800000Y-99207107D01*
%TO.N,ADC_MOSI*%
X135695000Y-101146586D02*
X135695000Y-103053414D01*
X135695000Y-103053414D02*
X135991586Y-103350000D01*
X128217742Y-95900000D02*
X128917742Y-95200000D01*
X123949999Y-91200000D02*
X125579999Y-92830000D01*
X126500000Y-95900000D02*
X128217742Y-95900000D01*
X139672499Y-103900000D02*
X140952499Y-102620000D01*
X125579999Y-92830000D02*
X125579999Y-94979999D01*
X136683502Y-100297250D02*
X136544336Y-100297250D01*
X138442893Y-103350000D02*
X138992893Y-103900000D01*
X140952499Y-102620000D02*
X140952499Y-102300001D01*
X128917742Y-95200000D02*
X133400000Y-95200000D01*
X125579999Y-94979999D02*
X126500000Y-95900000D01*
X136662500Y-103350000D02*
X138442893Y-103350000D01*
X136544336Y-100297250D02*
X135695000Y-101146586D01*
X138992893Y-103900000D02*
X139672499Y-103900000D01*
X133400000Y-95200000D02*
X134700000Y-96500000D01*
X135991586Y-103350000D02*
X136662500Y-103350000D01*
X123200000Y-91200000D02*
X123949999Y-91200000D01*
%TO.N,VREFIO_C*%
X121767500Y-92200000D02*
X123200000Y-92200000D01*
%TO.N,VREFP_C*%
X133250000Y-107650000D02*
X133250000Y-106262500D01*
%TO.N,VIN_P*%
D45*
X167100000Y-104700000D02*
X166400000Y-105400000D01*
X166400000Y-105400000D02*
X166400000Y-112000000D01*
X164100000Y-105700000D02*
X166100000Y-105700000D01*
X166100000Y-105700000D02*
X167100000Y-104700000D01*
%TO.N,ADC_CS*%
D44*
X142997501Y-109697501D02*
X139300000Y-106000000D01*
X136662500Y-101850000D02*
X137399999Y-101850000D01*
X137399999Y-101850000D02*
X138202500Y-101047499D01*
X137300000Y-100400000D02*
X137700000Y-100800000D01*
X146749999Y-109697501D02*
X142997501Y-109697501D01*
X138202500Y-101047499D02*
X138202500Y-100800000D01*
X137700000Y-100800000D02*
X138202500Y-100800000D01*
%TO.N,Net-(U15-IO14)*%
X146749999Y-108502501D02*
X146749999Y-107349999D01*
X146749999Y-107349999D02*
X146400000Y-107000000D01*
%TO.N,Net-(U6-VOUT)*%
X127797500Y-108800000D02*
X129200000Y-107397500D01*
X118900000Y-108800000D02*
X127797500Y-108800000D01*
X118900000Y-108800000D02*
X118500000Y-109200000D01*
%TO.N,AIN3P*%
X129470000Y-105932500D02*
X129200000Y-106202500D01*
X130337500Y-104850000D02*
X130337500Y-105795000D01*
X130200000Y-105932500D02*
X129470000Y-105932500D01*
%TO.N,EXC_EN*%
X117595000Y-89395000D02*
X118400000Y-90200000D01*
X156600000Y-103400000D02*
X157649996Y-103400000D01*
%TO.N,AIN1P*%
X130337500Y-102850000D02*
X128950000Y-102850000D01*
X128167500Y-104530000D02*
X127897500Y-104800000D01*
X128800000Y-103000000D02*
X128800000Y-103013478D01*
X128167500Y-103800000D02*
X128167500Y-104530000D01*
X128950000Y-102850000D02*
X128800000Y-103000000D01*
X128800000Y-103013478D02*
X128167500Y-103645978D01*
%TO.N,ADC_RST*%
X140722501Y-105229999D02*
X140952499Y-105000001D01*
X136662500Y-105560000D02*
X136902500Y-105800000D01*
X136662500Y-104850000D02*
X136662500Y-105560000D01*
X136662500Y-104850000D02*
X137042499Y-105229999D01*
X137042499Y-105229999D02*
X140722501Y-105229999D01*
%TO.N,Net-(U15-IO9)*%
X143650000Y-104250000D02*
X142897500Y-104250000D01*
X142897500Y-104250000D02*
X142147499Y-105000001D01*
%TO.N,Net-(U1-M1)*%
X132250000Y-99937500D02*
X132250000Y-99023797D01*
X129797500Y-97400000D02*
X129797500Y-98400000D01*
X130082500Y-97685000D02*
X129797500Y-97400000D01*
X132250000Y-99023797D02*
X130911203Y-97685000D01*
X130911203Y-97685000D02*
X130082500Y-97685000D01*
%TO.N,Net-(R8-Pad2)*%
X116600000Y-96500000D02*
X117220000Y-97120000D01*
X117220000Y-97120000D02*
X118187500Y-97120000D01*
%TO.N,Net-(R8-Pad1)*%
X116600000Y-97695000D02*
X118112500Y-97695000D01*
%TO.N,AIN0N*%
X127035000Y-101700000D02*
X127035000Y-101162500D01*
X128567500Y-101170000D02*
X130157500Y-101170000D01*
X130157500Y-101170000D02*
X130337500Y-101350000D01*
X127797500Y-100400000D02*
X128567500Y-101170000D01*
X127035000Y-101162500D02*
X127797500Y-100400000D01*
%TO.N,VBAT_SENSE*%
X142477499Y-97410001D02*
X140387499Y-97410001D01*
X140387499Y-97410001D02*
X139847499Y-97950001D01*
X142567499Y-97500001D02*
X142117499Y-97950001D01*
X142117499Y-97950001D02*
X142117499Y-98920001D01*
X143650000Y-97500001D02*
X142567499Y-97500001D01*
X142567499Y-97500001D02*
X142477499Y-97410001D01*
%TO.N,Net-(R10-Pad1)*%
X111197500Y-101000000D02*
X112197500Y-100000000D01*
X112197500Y-99000000D02*
X112197500Y-100000000D01*
%TO.N,3V3*%
X143499999Y-95600001D02*
X143650000Y-95750002D01*
X140250001Y-96850001D02*
X140100000Y-96700000D01*
X140902499Y-96850001D02*
X140250001Y-96850001D01*
X142117499Y-94400001D02*
X143317499Y-95600001D01*
X142117499Y-94400001D02*
X141879823Y-94162325D01*
X160750001Y-92250001D02*
X161000000Y-92500000D01*
X141912499Y-95600001D02*
X143317499Y-95600001D01*
X160397499Y-92250001D02*
X160750001Y-92250001D01*
X141879823Y-94162325D02*
X141879823Y-92897478D01*
X143317499Y-95600001D02*
X143499999Y-95600001D01*
X145100000Y-112300000D02*
X143900000Y-112300000D01*
%TO.N,INP2*%
X118087500Y-107475000D02*
X116767500Y-107475000D01*
X116767500Y-107475000D02*
X116497500Y-107745000D01*
%TO.N,VBAT*%
D45*
X138600000Y-97100000D02*
X138600000Y-97897502D01*
%TO.N,Net-(U15-IO0)*%
D44*
X143399999Y-96850001D02*
X143650000Y-96600000D01*
X148450000Y-90350000D02*
X147000000Y-91800000D01*
X144800000Y-95900000D02*
X144800000Y-96000000D01*
X144800000Y-96000000D02*
X144200000Y-96600000D01*
X142097499Y-96850001D02*
X143399999Y-96850001D01*
X144200000Y-96600000D02*
X143650000Y-96600000D01*
%TO.N,Net-(U15-IO5)*%
X142147499Y-101300001D02*
X142597498Y-100850002D01*
X142597498Y-100850002D02*
X143650000Y-100850002D01*
%TO.N,ADC_MISO*%
X142996801Y-103000000D02*
X141300000Y-103000000D01*
X136662500Y-102850000D02*
X138152500Y-102850000D01*
X143446800Y-102550001D02*
X142996801Y-103000000D01*
X141300000Y-103000000D02*
X139900000Y-104400000D01*
%TO.N,EN*%
X155522796Y-89600000D02*
X158286398Y-92363602D01*
X158286398Y-93616800D02*
X157853198Y-94050000D01*
X154150000Y-89600000D02*
X155522796Y-89600000D01*
X157649998Y-94050000D02*
X158432500Y-94050000D01*
X158432500Y-94050000D02*
X159232499Y-93250001D01*
X158286398Y-92363602D02*
X158286398Y-93616800D01*
X159232499Y-93250001D02*
X159232499Y-92280001D01*
%TO.N,Net-(Y1-OUT)*%
X137200000Y-89700000D02*
X137497500Y-89700000D01*
X136550000Y-90350000D02*
X137200000Y-89700000D01*
X137497500Y-89700000D02*
X137900000Y-90102500D01*
%TO.N,Net-(U15-IO46)*%
X159202499Y-94250001D02*
X158552499Y-94900001D01*
X158552499Y-94900001D02*
X157649998Y-94900001D01*
%TO.N,Net-(U15-IO45)*%
X159100000Y-97502500D02*
X157702497Y-97502500D01*
%TO.N,Net-(U15-IO3)*%
X139947499Y-99550001D02*
X143249999Y-99550001D01*
X143249999Y-99550001D02*
X143650000Y-99150000D01*
%TO.N,Net-(U15-IO20)*%
X153402500Y-108700000D02*
X152593600Y-108700000D01*
X152593600Y-108700000D02*
X151500000Y-107606400D01*
X151500000Y-107606400D02*
X151500000Y-107000000D01*
%TO.N,AIN1N*%
X130337500Y-102350000D02*
X129250000Y-102350000D01*
X126192893Y-103800000D02*
X125319700Y-104673193D01*
X129250000Y-102350000D02*
X129100000Y-102200000D01*
X125319700Y-104673193D02*
X125319700Y-105032120D01*
X127032500Y-103800000D02*
X126192893Y-103800000D01*
%TO.N,AIN2N*%
X126200000Y-105900000D02*
X126200000Y-106000000D01*
X126200000Y-106000000D02*
X126000000Y-106200000D01*
X130337500Y-103350000D02*
X129250000Y-103350000D01*
X129250000Y-103350000D02*
X129200000Y-103400000D01*
X126300000Y-105800000D02*
X126200000Y-105900000D01*
X127032500Y-105800000D02*
X126300000Y-105800000D01*
%TO.N,AIN3N*%
X129450000Y-104350000D02*
X129100000Y-104700000D01*
X130337500Y-104350000D02*
X129450000Y-104350000D01*
X130200000Y-107067500D02*
X130200000Y-107564561D01*
X130200000Y-107564561D02*
X129887134Y-107877427D01*
%TO.N,ADC_DRDY*%
X136662500Y-103850000D02*
X138476203Y-103850000D01*
X140139022Y-104900000D02*
X141639020Y-103400002D01*
X138476203Y-103850000D02*
X139526203Y-104900000D01*
X141639020Y-103400002D02*
X143650000Y-103400002D01*
X139526203Y-104900000D02*
X140139022Y-104900000D01*
%TO.N,CLK16M*%
X137900000Y-91297500D02*
X137900000Y-91900000D01*
X137900000Y-91900000D02*
X135250000Y-94550000D01*
X135250000Y-94550000D02*
X135250000Y-99937500D01*
%TO.N,Net-(U1-CAP)*%
X133750000Y-99937500D02*
X133750000Y-98517500D01*
%TO.N,Net-(U15-IO19)*%
X150649999Y-108257106D02*
X150649999Y-107000000D01*
X152092893Y-109700000D02*
X150649999Y-108257106D01*
X153402500Y-109700000D02*
X152092893Y-109700000D01*
%TO.N,Net-(U15-IO4)*%
X142147499Y-100300001D02*
X143350000Y-100300001D01*
X143350000Y-100300001D02*
X143650000Y-100000001D01*
%TO.N,Net-(U15-IO6)*%
X142747500Y-101700000D02*
X143650000Y-101700000D01*
X142147499Y-102300001D02*
X142747500Y-101700000D01*
%TO.N,FLASH_CS*%
X142746801Y-105800000D02*
X140900000Y-105800000D01*
X143446800Y-105100001D02*
X142746801Y-105800000D01*
%TO.N,FLASH_MOSI*%
X143427198Y-105950002D02*
X143013600Y-106363600D01*
X143013600Y-107813600D02*
X143200000Y-108000000D01*
X143013600Y-106363600D02*
X143013600Y-107813600D01*
%TO.N,FLASH_CLK*%
X144699998Y-108100002D02*
X144300000Y-108500000D01*
X144699998Y-107000000D02*
X144699998Y-108100002D01*
%TO.N,FLASH_MISO*%
X145549999Y-103549999D02*
X144700000Y-102700000D01*
X145549999Y-107000000D02*
X145549999Y-103549999D01*
%TO.N,BUCK_MODE*%
X147299999Y-107050001D02*
X147299999Y-109599999D01*
X148600000Y-110900000D02*
X149900000Y-110900000D01*
X147299999Y-109599999D02*
X148600000Y-110900000D01*
%TO.N,I2C_SDA*%
X156166800Y-107636400D02*
X160044352Y-107636400D01*
X155749999Y-107219599D02*
X156166800Y-107636400D01*
X160044352Y-107636400D02*
X160797250Y-106883502D01*
%TO.N,I2C_SCL*%
X157649998Y-105950002D02*
X157149998Y-105950002D01*
X162200000Y-112100000D02*
X162200000Y-110400000D01*
X157149998Y-105950002D02*
X156900000Y-106200000D01*
X162200000Y-110400000D02*
X162000000Y-110200000D01*
%TO.N,CHG_INT*%
X159800000Y-106600000D02*
X159300000Y-107100000D01*
X159507107Y-104500000D02*
X159800000Y-104792893D01*
X158453199Y-104500000D02*
X159507107Y-104500000D01*
X159800000Y-104792893D02*
X159800000Y-106600000D01*
X157853198Y-105100001D02*
X158453199Y-104500000D01*
%TO.N,AFE_EN*%
X124000000Y-85300000D02*
X124100000Y-85200000D01*
X160700000Y-101419600D02*
X160700000Y-94900000D01*
X161600000Y-92392893D02*
X154407107Y-85200000D01*
X161503554Y-93703553D02*
X161600000Y-93607107D01*
X161600000Y-93607107D02*
X161600000Y-92392893D01*
X154407107Y-85200000D02*
X124100000Y-85200000D01*
X160700000Y-94900000D02*
X161503554Y-94096446D01*
X157869600Y-104250000D02*
X160700000Y-101419600D01*
X161503554Y-94096446D02*
X161503554Y-93703553D01*
%TD*%
M02*
