%TF.GenerationSoftware,KiCad,Pcbnew,10.0.0*%
%TF.CreationDate,2026-10-10T17:18:28-04:00*%
%TF.ProjectId,WSG_1.0,5753475f-312e-4302-9e6b-696361645f70,rev?*%
%TF.SameCoordinates,Original*%
%TF.FileFunction,Legend,Bot*%
%TF.FilePolarity,Positive*%
%FSLAX46Y46*%
G04 Gerber Fmt 4.6, Leading zero omitted, Abs format (unit mm)*
G04 Created by KiCad (PCBNEW 10.0.0) date 2026-10-10 17:18:28*
%MOMM*%
%LPD*%
G01*
G04 APERTURE LIST*
%ADD10C,0.150000*%
%ADD11C,0.120000*%
%ADD12C,0.200000*%
%ADD13C,0.000000*%
%ADD14C,0.127000*%
G04 APERTURE END LIST*
D10*
X159662295Y-109985714D02*
X159281342Y-109719047D01*
X159662295Y-109528571D02*
X158862295Y-109528571D01*
X158862295Y-109528571D02*
X158862295Y-109833333D01*
X158862295Y-109833333D02*
X158900390Y-109909523D01*
X158900390Y-109909523D02*
X158938485Y-109947618D01*
X158938485Y-109947618D02*
X159014676Y-109985714D01*
X159014676Y-109985714D02*
X159128961Y-109985714D01*
X159128961Y-109985714D02*
X159205152Y-109947618D01*
X159205152Y-109947618D02*
X159243247Y-109909523D01*
X159243247Y-109909523D02*
X159281342Y-109833333D01*
X159281342Y-109833333D02*
X159281342Y-109528571D01*
X158862295Y-110252380D02*
X158862295Y-110747618D01*
X158862295Y-110747618D02*
X159167057Y-110480952D01*
X159167057Y-110480952D02*
X159167057Y-110595237D01*
X159167057Y-110595237D02*
X159205152Y-110671428D01*
X159205152Y-110671428D02*
X159243247Y-110709523D01*
X159243247Y-110709523D02*
X159319438Y-110747618D01*
X159319438Y-110747618D02*
X159509914Y-110747618D01*
X159509914Y-110747618D02*
X159586104Y-110709523D01*
X159586104Y-110709523D02*
X159624200Y-110671428D01*
X159624200Y-110671428D02*
X159662295Y-110595237D01*
X159662295Y-110595237D02*
X159662295Y-110366666D01*
X159662295Y-110366666D02*
X159624200Y-110290475D01*
X159624200Y-110290475D02*
X159586104Y-110252380D01*
X158862295Y-111014285D02*
X158862295Y-111547619D01*
X158862295Y-111547619D02*
X159662295Y-111204761D01*
X122214285Y-90032295D02*
X122480952Y-89651342D01*
X122671428Y-90032295D02*
X122671428Y-89232295D01*
X122671428Y-89232295D02*
X122366666Y-89232295D01*
X122366666Y-89232295D02*
X122290476Y-89270390D01*
X122290476Y-89270390D02*
X122252381Y-89308485D01*
X122252381Y-89308485D02*
X122214285Y-89384676D01*
X122214285Y-89384676D02*
X122214285Y-89498961D01*
X122214285Y-89498961D02*
X122252381Y-89575152D01*
X122252381Y-89575152D02*
X122290476Y-89613247D01*
X122290476Y-89613247D02*
X122366666Y-89651342D01*
X122366666Y-89651342D02*
X122671428Y-89651342D01*
X121490476Y-89232295D02*
X121871428Y-89232295D01*
X121871428Y-89232295D02*
X121909524Y-89613247D01*
X121909524Y-89613247D02*
X121871428Y-89575152D01*
X121871428Y-89575152D02*
X121795238Y-89537057D01*
X121795238Y-89537057D02*
X121604762Y-89537057D01*
X121604762Y-89537057D02*
X121528571Y-89575152D01*
X121528571Y-89575152D02*
X121490476Y-89613247D01*
X121490476Y-89613247D02*
X121452381Y-89689438D01*
X121452381Y-89689438D02*
X121452381Y-89879914D01*
X121452381Y-89879914D02*
X121490476Y-89956104D01*
X121490476Y-89956104D02*
X121528571Y-89994200D01*
X121528571Y-89994200D02*
X121604762Y-90032295D01*
X121604762Y-90032295D02*
X121795238Y-90032295D01*
X121795238Y-90032295D02*
X121871428Y-89994200D01*
X121871428Y-89994200D02*
X121909524Y-89956104D01*
X121071428Y-90032295D02*
X120919047Y-90032295D01*
X120919047Y-90032295D02*
X120842857Y-89994200D01*
X120842857Y-89994200D02*
X120804761Y-89956104D01*
X120804761Y-89956104D02*
X120728571Y-89841819D01*
X120728571Y-89841819D02*
X120690476Y-89689438D01*
X120690476Y-89689438D02*
X120690476Y-89384676D01*
X120690476Y-89384676D02*
X120728571Y-89308485D01*
X120728571Y-89308485D02*
X120766666Y-89270390D01*
X120766666Y-89270390D02*
X120842857Y-89232295D01*
X120842857Y-89232295D02*
X120995238Y-89232295D01*
X120995238Y-89232295D02*
X121071428Y-89270390D01*
X121071428Y-89270390D02*
X121109523Y-89308485D01*
X121109523Y-89308485D02*
X121147619Y-89384676D01*
X121147619Y-89384676D02*
X121147619Y-89575152D01*
X121147619Y-89575152D02*
X121109523Y-89651342D01*
X121109523Y-89651342D02*
X121071428Y-89689438D01*
X121071428Y-89689438D02*
X120995238Y-89727533D01*
X120995238Y-89727533D02*
X120842857Y-89727533D01*
X120842857Y-89727533D02*
X120766666Y-89689438D01*
X120766666Y-89689438D02*
X120728571Y-89651342D01*
X120728571Y-89651342D02*
X120690476Y-89575152D01*
X126786104Y-88285714D02*
X126824200Y-88247618D01*
X126824200Y-88247618D02*
X126862295Y-88133333D01*
X126862295Y-88133333D02*
X126862295Y-88057142D01*
X126862295Y-88057142D02*
X126824200Y-87942856D01*
X126824200Y-87942856D02*
X126748009Y-87866666D01*
X126748009Y-87866666D02*
X126671819Y-87828571D01*
X126671819Y-87828571D02*
X126519438Y-87790475D01*
X126519438Y-87790475D02*
X126405152Y-87790475D01*
X126405152Y-87790475D02*
X126252771Y-87828571D01*
X126252771Y-87828571D02*
X126176580Y-87866666D01*
X126176580Y-87866666D02*
X126100390Y-87942856D01*
X126100390Y-87942856D02*
X126062295Y-88057142D01*
X126062295Y-88057142D02*
X126062295Y-88133333D01*
X126062295Y-88133333D02*
X126100390Y-88247618D01*
X126100390Y-88247618D02*
X126138485Y-88285714D01*
X126062295Y-88552380D02*
X126062295Y-89047618D01*
X126062295Y-89047618D02*
X126367057Y-88780952D01*
X126367057Y-88780952D02*
X126367057Y-88895237D01*
X126367057Y-88895237D02*
X126405152Y-88971428D01*
X126405152Y-88971428D02*
X126443247Y-89009523D01*
X126443247Y-89009523D02*
X126519438Y-89047618D01*
X126519438Y-89047618D02*
X126709914Y-89047618D01*
X126709914Y-89047618D02*
X126786104Y-89009523D01*
X126786104Y-89009523D02*
X126824200Y-88971428D01*
X126824200Y-88971428D02*
X126862295Y-88895237D01*
X126862295Y-88895237D02*
X126862295Y-88666666D01*
X126862295Y-88666666D02*
X126824200Y-88590475D01*
X126824200Y-88590475D02*
X126786104Y-88552380D01*
X126328961Y-89733333D02*
X126862295Y-89733333D01*
X126024200Y-89542857D02*
X126595628Y-89352380D01*
X126595628Y-89352380D02*
X126595628Y-89847619D01*
X143132295Y-98585714D02*
X142751342Y-98319047D01*
X143132295Y-98128571D02*
X142332295Y-98128571D01*
X142332295Y-98128571D02*
X142332295Y-98433333D01*
X142332295Y-98433333D02*
X142370390Y-98509523D01*
X142370390Y-98509523D02*
X142408485Y-98547618D01*
X142408485Y-98547618D02*
X142484676Y-98585714D01*
X142484676Y-98585714D02*
X142598961Y-98585714D01*
X142598961Y-98585714D02*
X142675152Y-98547618D01*
X142675152Y-98547618D02*
X142713247Y-98509523D01*
X142713247Y-98509523D02*
X142751342Y-98433333D01*
X142751342Y-98433333D02*
X142751342Y-98128571D01*
X142408485Y-98890475D02*
X142370390Y-98928571D01*
X142370390Y-98928571D02*
X142332295Y-99004761D01*
X142332295Y-99004761D02*
X142332295Y-99195237D01*
X142332295Y-99195237D02*
X142370390Y-99271428D01*
X142370390Y-99271428D02*
X142408485Y-99309523D01*
X142408485Y-99309523D02*
X142484676Y-99347618D01*
X142484676Y-99347618D02*
X142560866Y-99347618D01*
X142560866Y-99347618D02*
X142675152Y-99309523D01*
X142675152Y-99309523D02*
X143132295Y-98852380D01*
X143132295Y-98852380D02*
X143132295Y-99347618D01*
X142332295Y-99614285D02*
X142332295Y-100109523D01*
X142332295Y-100109523D02*
X142637057Y-99842857D01*
X142637057Y-99842857D02*
X142637057Y-99957142D01*
X142637057Y-99957142D02*
X142675152Y-100033333D01*
X142675152Y-100033333D02*
X142713247Y-100071428D01*
X142713247Y-100071428D02*
X142789438Y-100109523D01*
X142789438Y-100109523D02*
X142979914Y-100109523D01*
X142979914Y-100109523D02*
X143056104Y-100071428D01*
X143056104Y-100071428D02*
X143094200Y-100033333D01*
X143094200Y-100033333D02*
X143132295Y-99957142D01*
X143132295Y-99957142D02*
X143132295Y-99728571D01*
X143132295Y-99728571D02*
X143094200Y-99652380D01*
X143094200Y-99652380D02*
X143056104Y-99614285D01*
X119258604Y-86466667D02*
X119296700Y-86428571D01*
X119296700Y-86428571D02*
X119334795Y-86314286D01*
X119334795Y-86314286D02*
X119334795Y-86238095D01*
X119334795Y-86238095D02*
X119296700Y-86123809D01*
X119296700Y-86123809D02*
X119220509Y-86047619D01*
X119220509Y-86047619D02*
X119144319Y-86009524D01*
X119144319Y-86009524D02*
X118991938Y-85971428D01*
X118991938Y-85971428D02*
X118877652Y-85971428D01*
X118877652Y-85971428D02*
X118725271Y-86009524D01*
X118725271Y-86009524D02*
X118649080Y-86047619D01*
X118649080Y-86047619D02*
X118572890Y-86123809D01*
X118572890Y-86123809D02*
X118534795Y-86238095D01*
X118534795Y-86238095D02*
X118534795Y-86314286D01*
X118534795Y-86314286D02*
X118572890Y-86428571D01*
X118572890Y-86428571D02*
X118610985Y-86466667D01*
X118610985Y-86771428D02*
X118572890Y-86809524D01*
X118572890Y-86809524D02*
X118534795Y-86885714D01*
X118534795Y-86885714D02*
X118534795Y-87076190D01*
X118534795Y-87076190D02*
X118572890Y-87152381D01*
X118572890Y-87152381D02*
X118610985Y-87190476D01*
X118610985Y-87190476D02*
X118687176Y-87228571D01*
X118687176Y-87228571D02*
X118763366Y-87228571D01*
X118763366Y-87228571D02*
X118877652Y-87190476D01*
X118877652Y-87190476D02*
X119334795Y-86733333D01*
X119334795Y-86733333D02*
X119334795Y-87228571D01*
X140751980Y-112623632D02*
X140790076Y-112661728D01*
X140790076Y-112661728D02*
X140904361Y-112699823D01*
X140904361Y-112699823D02*
X140980552Y-112699823D01*
X140980552Y-112699823D02*
X141094838Y-112661728D01*
X141094838Y-112661728D02*
X141171028Y-112585537D01*
X141171028Y-112585537D02*
X141209123Y-112509347D01*
X141209123Y-112509347D02*
X141247219Y-112356966D01*
X141247219Y-112356966D02*
X141247219Y-112242680D01*
X141247219Y-112242680D02*
X141209123Y-112090299D01*
X141209123Y-112090299D02*
X141171028Y-112014108D01*
X141171028Y-112014108D02*
X141094838Y-111937918D01*
X141094838Y-111937918D02*
X140980552Y-111899823D01*
X140980552Y-111899823D02*
X140904361Y-111899823D01*
X140904361Y-111899823D02*
X140790076Y-111937918D01*
X140790076Y-111937918D02*
X140751980Y-111976013D01*
X139990076Y-112699823D02*
X140447219Y-112699823D01*
X140218647Y-112699823D02*
X140218647Y-111899823D01*
X140218647Y-111899823D02*
X140294838Y-112014108D01*
X140294838Y-112014108D02*
X140371028Y-112090299D01*
X140371028Y-112090299D02*
X140447219Y-112128394D01*
X139609123Y-112699823D02*
X139456742Y-112699823D01*
X139456742Y-112699823D02*
X139380552Y-112661728D01*
X139380552Y-112661728D02*
X139342456Y-112623632D01*
X139342456Y-112623632D02*
X139266266Y-112509347D01*
X139266266Y-112509347D02*
X139228171Y-112356966D01*
X139228171Y-112356966D02*
X139228171Y-112052204D01*
X139228171Y-112052204D02*
X139266266Y-111976013D01*
X139266266Y-111976013D02*
X139304361Y-111937918D01*
X139304361Y-111937918D02*
X139380552Y-111899823D01*
X139380552Y-111899823D02*
X139532933Y-111899823D01*
X139532933Y-111899823D02*
X139609123Y-111937918D01*
X139609123Y-111937918D02*
X139647218Y-111976013D01*
X139647218Y-111976013D02*
X139685314Y-112052204D01*
X139685314Y-112052204D02*
X139685314Y-112242680D01*
X139685314Y-112242680D02*
X139647218Y-112318870D01*
X139647218Y-112318870D02*
X139609123Y-112356966D01*
X139609123Y-112356966D02*
X139532933Y-112395061D01*
X139532933Y-112395061D02*
X139380552Y-112395061D01*
X139380552Y-112395061D02*
X139304361Y-112356966D01*
X139304361Y-112356966D02*
X139266266Y-112318870D01*
X139266266Y-112318870D02*
X139228171Y-112242680D01*
X160062295Y-107585714D02*
X159681342Y-107319047D01*
X160062295Y-107128571D02*
X159262295Y-107128571D01*
X159262295Y-107128571D02*
X159262295Y-107433333D01*
X159262295Y-107433333D02*
X159300390Y-107509523D01*
X159300390Y-107509523D02*
X159338485Y-107547618D01*
X159338485Y-107547618D02*
X159414676Y-107585714D01*
X159414676Y-107585714D02*
X159528961Y-107585714D01*
X159528961Y-107585714D02*
X159605152Y-107547618D01*
X159605152Y-107547618D02*
X159643247Y-107509523D01*
X159643247Y-107509523D02*
X159681342Y-107433333D01*
X159681342Y-107433333D02*
X159681342Y-107128571D01*
X159262295Y-107852380D02*
X159262295Y-108347618D01*
X159262295Y-108347618D02*
X159567057Y-108080952D01*
X159567057Y-108080952D02*
X159567057Y-108195237D01*
X159567057Y-108195237D02*
X159605152Y-108271428D01*
X159605152Y-108271428D02*
X159643247Y-108309523D01*
X159643247Y-108309523D02*
X159719438Y-108347618D01*
X159719438Y-108347618D02*
X159909914Y-108347618D01*
X159909914Y-108347618D02*
X159986104Y-108309523D01*
X159986104Y-108309523D02*
X160024200Y-108271428D01*
X160024200Y-108271428D02*
X160062295Y-108195237D01*
X160062295Y-108195237D02*
X160062295Y-107966666D01*
X160062295Y-107966666D02*
X160024200Y-107890475D01*
X160024200Y-107890475D02*
X159986104Y-107852380D01*
X159262295Y-109033333D02*
X159262295Y-108880952D01*
X159262295Y-108880952D02*
X159300390Y-108804761D01*
X159300390Y-108804761D02*
X159338485Y-108766666D01*
X159338485Y-108766666D02*
X159452771Y-108690476D01*
X159452771Y-108690476D02*
X159605152Y-108652380D01*
X159605152Y-108652380D02*
X159909914Y-108652380D01*
X159909914Y-108652380D02*
X159986104Y-108690476D01*
X159986104Y-108690476D02*
X160024200Y-108728571D01*
X160024200Y-108728571D02*
X160062295Y-108804761D01*
X160062295Y-108804761D02*
X160062295Y-108957142D01*
X160062295Y-108957142D02*
X160024200Y-109033333D01*
X160024200Y-109033333D02*
X159986104Y-109071428D01*
X159986104Y-109071428D02*
X159909914Y-109109523D01*
X159909914Y-109109523D02*
X159719438Y-109109523D01*
X159719438Y-109109523D02*
X159643247Y-109071428D01*
X159643247Y-109071428D02*
X159605152Y-109033333D01*
X159605152Y-109033333D02*
X159567057Y-108957142D01*
X159567057Y-108957142D02*
X159567057Y-108804761D01*
X159567057Y-108804761D02*
X159605152Y-108728571D01*
X159605152Y-108728571D02*
X159643247Y-108690476D01*
X159643247Y-108690476D02*
X159719438Y-108652380D01*
X147862295Y-107685714D02*
X147481342Y-107419047D01*
X147862295Y-107228571D02*
X147062295Y-107228571D01*
X147062295Y-107228571D02*
X147062295Y-107533333D01*
X147062295Y-107533333D02*
X147100390Y-107609523D01*
X147100390Y-107609523D02*
X147138485Y-107647618D01*
X147138485Y-107647618D02*
X147214676Y-107685714D01*
X147214676Y-107685714D02*
X147328961Y-107685714D01*
X147328961Y-107685714D02*
X147405152Y-107647618D01*
X147405152Y-107647618D02*
X147443247Y-107609523D01*
X147443247Y-107609523D02*
X147481342Y-107533333D01*
X147481342Y-107533333D02*
X147481342Y-107228571D01*
X147062295Y-107952380D02*
X147062295Y-108447618D01*
X147062295Y-108447618D02*
X147367057Y-108180952D01*
X147367057Y-108180952D02*
X147367057Y-108295237D01*
X147367057Y-108295237D02*
X147405152Y-108371428D01*
X147405152Y-108371428D02*
X147443247Y-108409523D01*
X147443247Y-108409523D02*
X147519438Y-108447618D01*
X147519438Y-108447618D02*
X147709914Y-108447618D01*
X147709914Y-108447618D02*
X147786104Y-108409523D01*
X147786104Y-108409523D02*
X147824200Y-108371428D01*
X147824200Y-108371428D02*
X147862295Y-108295237D01*
X147862295Y-108295237D02*
X147862295Y-108066666D01*
X147862295Y-108066666D02*
X147824200Y-107990475D01*
X147824200Y-107990475D02*
X147786104Y-107952380D01*
X147138485Y-108752380D02*
X147100390Y-108790476D01*
X147100390Y-108790476D02*
X147062295Y-108866666D01*
X147062295Y-108866666D02*
X147062295Y-109057142D01*
X147062295Y-109057142D02*
X147100390Y-109133333D01*
X147100390Y-109133333D02*
X147138485Y-109171428D01*
X147138485Y-109171428D02*
X147214676Y-109209523D01*
X147214676Y-109209523D02*
X147290866Y-109209523D01*
X147290866Y-109209523D02*
X147405152Y-109171428D01*
X147405152Y-109171428D02*
X147862295Y-108714285D01*
X147862295Y-108714285D02*
X147862295Y-109209523D01*
X131314285Y-105062295D02*
X131580952Y-104681342D01*
X131771428Y-105062295D02*
X131771428Y-104262295D01*
X131771428Y-104262295D02*
X131466666Y-104262295D01*
X131466666Y-104262295D02*
X131390476Y-104300390D01*
X131390476Y-104300390D02*
X131352381Y-104338485D01*
X131352381Y-104338485D02*
X131314285Y-104414676D01*
X131314285Y-104414676D02*
X131314285Y-104528961D01*
X131314285Y-104528961D02*
X131352381Y-104605152D01*
X131352381Y-104605152D02*
X131390476Y-104643247D01*
X131390476Y-104643247D02*
X131466666Y-104681342D01*
X131466666Y-104681342D02*
X131771428Y-104681342D01*
X130590476Y-104262295D02*
X130971428Y-104262295D01*
X130971428Y-104262295D02*
X131009524Y-104643247D01*
X131009524Y-104643247D02*
X130971428Y-104605152D01*
X130971428Y-104605152D02*
X130895238Y-104567057D01*
X130895238Y-104567057D02*
X130704762Y-104567057D01*
X130704762Y-104567057D02*
X130628571Y-104605152D01*
X130628571Y-104605152D02*
X130590476Y-104643247D01*
X130590476Y-104643247D02*
X130552381Y-104719438D01*
X130552381Y-104719438D02*
X130552381Y-104909914D01*
X130552381Y-104909914D02*
X130590476Y-104986104D01*
X130590476Y-104986104D02*
X130628571Y-105024200D01*
X130628571Y-105024200D02*
X130704762Y-105062295D01*
X130704762Y-105062295D02*
X130895238Y-105062295D01*
X130895238Y-105062295D02*
X130971428Y-105024200D01*
X130971428Y-105024200D02*
X131009524Y-104986104D01*
X130285714Y-104262295D02*
X129790476Y-104262295D01*
X129790476Y-104262295D02*
X130057142Y-104567057D01*
X130057142Y-104567057D02*
X129942857Y-104567057D01*
X129942857Y-104567057D02*
X129866666Y-104605152D01*
X129866666Y-104605152D02*
X129828571Y-104643247D01*
X129828571Y-104643247D02*
X129790476Y-104719438D01*
X129790476Y-104719438D02*
X129790476Y-104909914D01*
X129790476Y-104909914D02*
X129828571Y-104986104D01*
X129828571Y-104986104D02*
X129866666Y-105024200D01*
X129866666Y-105024200D02*
X129942857Y-105062295D01*
X129942857Y-105062295D02*
X130171428Y-105062295D01*
X130171428Y-105062295D02*
X130247619Y-105024200D01*
X130247619Y-105024200D02*
X130285714Y-104986104D01*
X138886104Y-108985714D02*
X138924200Y-108947618D01*
X138924200Y-108947618D02*
X138962295Y-108833333D01*
X138962295Y-108833333D02*
X138962295Y-108757142D01*
X138962295Y-108757142D02*
X138924200Y-108642856D01*
X138924200Y-108642856D02*
X138848009Y-108566666D01*
X138848009Y-108566666D02*
X138771819Y-108528571D01*
X138771819Y-108528571D02*
X138619438Y-108490475D01*
X138619438Y-108490475D02*
X138505152Y-108490475D01*
X138505152Y-108490475D02*
X138352771Y-108528571D01*
X138352771Y-108528571D02*
X138276580Y-108566666D01*
X138276580Y-108566666D02*
X138200390Y-108642856D01*
X138200390Y-108642856D02*
X138162295Y-108757142D01*
X138162295Y-108757142D02*
X138162295Y-108833333D01*
X138162295Y-108833333D02*
X138200390Y-108947618D01*
X138200390Y-108947618D02*
X138238485Y-108985714D01*
X138962295Y-109747618D02*
X138962295Y-109290475D01*
X138962295Y-109519047D02*
X138162295Y-109519047D01*
X138162295Y-109519047D02*
X138276580Y-109442856D01*
X138276580Y-109442856D02*
X138352771Y-109366666D01*
X138352771Y-109366666D02*
X138390866Y-109290475D01*
X138505152Y-110204761D02*
X138467057Y-110128571D01*
X138467057Y-110128571D02*
X138428961Y-110090476D01*
X138428961Y-110090476D02*
X138352771Y-110052380D01*
X138352771Y-110052380D02*
X138314676Y-110052380D01*
X138314676Y-110052380D02*
X138238485Y-110090476D01*
X138238485Y-110090476D02*
X138200390Y-110128571D01*
X138200390Y-110128571D02*
X138162295Y-110204761D01*
X138162295Y-110204761D02*
X138162295Y-110357142D01*
X138162295Y-110357142D02*
X138200390Y-110433333D01*
X138200390Y-110433333D02*
X138238485Y-110471428D01*
X138238485Y-110471428D02*
X138314676Y-110509523D01*
X138314676Y-110509523D02*
X138352771Y-110509523D01*
X138352771Y-110509523D02*
X138428961Y-110471428D01*
X138428961Y-110471428D02*
X138467057Y-110433333D01*
X138467057Y-110433333D02*
X138505152Y-110357142D01*
X138505152Y-110357142D02*
X138505152Y-110204761D01*
X138505152Y-110204761D02*
X138543247Y-110128571D01*
X138543247Y-110128571D02*
X138581342Y-110090476D01*
X138581342Y-110090476D02*
X138657533Y-110052380D01*
X138657533Y-110052380D02*
X138809914Y-110052380D01*
X138809914Y-110052380D02*
X138886104Y-110090476D01*
X138886104Y-110090476D02*
X138924200Y-110128571D01*
X138924200Y-110128571D02*
X138962295Y-110204761D01*
X138962295Y-110204761D02*
X138962295Y-110357142D01*
X138962295Y-110357142D02*
X138924200Y-110433333D01*
X138924200Y-110433333D02*
X138886104Y-110471428D01*
X138886104Y-110471428D02*
X138809914Y-110509523D01*
X138809914Y-110509523D02*
X138657533Y-110509523D01*
X138657533Y-110509523D02*
X138581342Y-110471428D01*
X138581342Y-110471428D02*
X138543247Y-110433333D01*
X138543247Y-110433333D02*
X138505152Y-110357142D01*
X154664286Y-105656103D02*
X154702382Y-105694199D01*
X154702382Y-105694199D02*
X154816667Y-105732294D01*
X154816667Y-105732294D02*
X154892858Y-105732294D01*
X154892858Y-105732294D02*
X155007144Y-105694199D01*
X155007144Y-105694199D02*
X155083334Y-105618008D01*
X155083334Y-105618008D02*
X155121429Y-105541818D01*
X155121429Y-105541818D02*
X155159525Y-105389437D01*
X155159525Y-105389437D02*
X155159525Y-105275151D01*
X155159525Y-105275151D02*
X155121429Y-105122770D01*
X155121429Y-105122770D02*
X155083334Y-105046579D01*
X155083334Y-105046579D02*
X155007144Y-104970389D01*
X155007144Y-104970389D02*
X154892858Y-104932294D01*
X154892858Y-104932294D02*
X154816667Y-104932294D01*
X154816667Y-104932294D02*
X154702382Y-104970389D01*
X154702382Y-104970389D02*
X154664286Y-105008484D01*
X153902382Y-105732294D02*
X154359525Y-105732294D01*
X154130953Y-105732294D02*
X154130953Y-104932294D01*
X154130953Y-104932294D02*
X154207144Y-105046579D01*
X154207144Y-105046579D02*
X154283334Y-105122770D01*
X154283334Y-105122770D02*
X154359525Y-105160865D01*
X153178572Y-104932294D02*
X153559524Y-104932294D01*
X153559524Y-104932294D02*
X153597620Y-105313246D01*
X153597620Y-105313246D02*
X153559524Y-105275151D01*
X153559524Y-105275151D02*
X153483334Y-105237056D01*
X153483334Y-105237056D02*
X153292858Y-105237056D01*
X153292858Y-105237056D02*
X153216667Y-105275151D01*
X153216667Y-105275151D02*
X153178572Y-105313246D01*
X153178572Y-105313246D02*
X153140477Y-105389437D01*
X153140477Y-105389437D02*
X153140477Y-105579913D01*
X153140477Y-105579913D02*
X153178572Y-105656103D01*
X153178572Y-105656103D02*
X153216667Y-105694199D01*
X153216667Y-105694199D02*
X153292858Y-105732294D01*
X153292858Y-105732294D02*
X153483334Y-105732294D01*
X153483334Y-105732294D02*
X153559524Y-105694199D01*
X153559524Y-105694199D02*
X153597620Y-105656103D01*
X125043247Y-88233333D02*
X125043247Y-87966667D01*
X125462295Y-87966667D02*
X124662295Y-87966667D01*
X124662295Y-87966667D02*
X124662295Y-88347619D01*
X125043247Y-88919047D02*
X125081342Y-89033333D01*
X125081342Y-89033333D02*
X125119438Y-89071428D01*
X125119438Y-89071428D02*
X125195628Y-89109524D01*
X125195628Y-89109524D02*
X125309914Y-89109524D01*
X125309914Y-89109524D02*
X125386104Y-89071428D01*
X125386104Y-89071428D02*
X125424200Y-89033333D01*
X125424200Y-89033333D02*
X125462295Y-88957143D01*
X125462295Y-88957143D02*
X125462295Y-88652381D01*
X125462295Y-88652381D02*
X124662295Y-88652381D01*
X124662295Y-88652381D02*
X124662295Y-88919047D01*
X124662295Y-88919047D02*
X124700390Y-88995238D01*
X124700390Y-88995238D02*
X124738485Y-89033333D01*
X124738485Y-89033333D02*
X124814676Y-89071428D01*
X124814676Y-89071428D02*
X124890866Y-89071428D01*
X124890866Y-89071428D02*
X124967057Y-89033333D01*
X124967057Y-89033333D02*
X125005152Y-88995238D01*
X125005152Y-88995238D02*
X125043247Y-88919047D01*
X125043247Y-88919047D02*
X125043247Y-88652381D01*
X125462295Y-89871428D02*
X125462295Y-89414285D01*
X125462295Y-89642857D02*
X124662295Y-89642857D01*
X124662295Y-89642857D02*
X124776580Y-89566666D01*
X124776580Y-89566666D02*
X124852771Y-89490476D01*
X124852771Y-89490476D02*
X124890866Y-89414285D01*
X161214285Y-112762295D02*
X161480952Y-112381342D01*
X161671428Y-112762295D02*
X161671428Y-111962295D01*
X161671428Y-111962295D02*
X161366666Y-111962295D01*
X161366666Y-111962295D02*
X161290476Y-112000390D01*
X161290476Y-112000390D02*
X161252381Y-112038485D01*
X161252381Y-112038485D02*
X161214285Y-112114676D01*
X161214285Y-112114676D02*
X161214285Y-112228961D01*
X161214285Y-112228961D02*
X161252381Y-112305152D01*
X161252381Y-112305152D02*
X161290476Y-112343247D01*
X161290476Y-112343247D02*
X161366666Y-112381342D01*
X161366666Y-112381342D02*
X161671428Y-112381342D01*
X160947619Y-111962295D02*
X160452381Y-111962295D01*
X160452381Y-111962295D02*
X160719047Y-112267057D01*
X160719047Y-112267057D02*
X160604762Y-112267057D01*
X160604762Y-112267057D02*
X160528571Y-112305152D01*
X160528571Y-112305152D02*
X160490476Y-112343247D01*
X160490476Y-112343247D02*
X160452381Y-112419438D01*
X160452381Y-112419438D02*
X160452381Y-112609914D01*
X160452381Y-112609914D02*
X160490476Y-112686104D01*
X160490476Y-112686104D02*
X160528571Y-112724200D01*
X160528571Y-112724200D02*
X160604762Y-112762295D01*
X160604762Y-112762295D02*
X160833333Y-112762295D01*
X160833333Y-112762295D02*
X160909524Y-112724200D01*
X160909524Y-112724200D02*
X160947619Y-112686104D01*
X160185714Y-111962295D02*
X159690476Y-111962295D01*
X159690476Y-111962295D02*
X159957142Y-112267057D01*
X159957142Y-112267057D02*
X159842857Y-112267057D01*
X159842857Y-112267057D02*
X159766666Y-112305152D01*
X159766666Y-112305152D02*
X159728571Y-112343247D01*
X159728571Y-112343247D02*
X159690476Y-112419438D01*
X159690476Y-112419438D02*
X159690476Y-112609914D01*
X159690476Y-112609914D02*
X159728571Y-112686104D01*
X159728571Y-112686104D02*
X159766666Y-112724200D01*
X159766666Y-112724200D02*
X159842857Y-112762295D01*
X159842857Y-112762295D02*
X160071428Y-112762295D01*
X160071428Y-112762295D02*
X160147619Y-112724200D01*
X160147619Y-112724200D02*
X160185714Y-112686104D01*
X169514285Y-108686104D02*
X169552381Y-108724200D01*
X169552381Y-108724200D02*
X169666666Y-108762295D01*
X169666666Y-108762295D02*
X169742857Y-108762295D01*
X169742857Y-108762295D02*
X169857143Y-108724200D01*
X169857143Y-108724200D02*
X169933333Y-108648009D01*
X169933333Y-108648009D02*
X169971428Y-108571819D01*
X169971428Y-108571819D02*
X170009524Y-108419438D01*
X170009524Y-108419438D02*
X170009524Y-108305152D01*
X170009524Y-108305152D02*
X169971428Y-108152771D01*
X169971428Y-108152771D02*
X169933333Y-108076580D01*
X169933333Y-108076580D02*
X169857143Y-108000390D01*
X169857143Y-108000390D02*
X169742857Y-107962295D01*
X169742857Y-107962295D02*
X169666666Y-107962295D01*
X169666666Y-107962295D02*
X169552381Y-108000390D01*
X169552381Y-108000390D02*
X169514285Y-108038485D01*
X168752381Y-108762295D02*
X169209524Y-108762295D01*
X168980952Y-108762295D02*
X168980952Y-107962295D01*
X168980952Y-107962295D02*
X169057143Y-108076580D01*
X169057143Y-108076580D02*
X169133333Y-108152771D01*
X169133333Y-108152771D02*
X169209524Y-108190866D01*
X168257142Y-107962295D02*
X168180952Y-107962295D01*
X168180952Y-107962295D02*
X168104761Y-108000390D01*
X168104761Y-108000390D02*
X168066666Y-108038485D01*
X168066666Y-108038485D02*
X168028571Y-108114676D01*
X168028571Y-108114676D02*
X167990476Y-108267057D01*
X167990476Y-108267057D02*
X167990476Y-108457533D01*
X167990476Y-108457533D02*
X168028571Y-108609914D01*
X168028571Y-108609914D02*
X168066666Y-108686104D01*
X168066666Y-108686104D02*
X168104761Y-108724200D01*
X168104761Y-108724200D02*
X168180952Y-108762295D01*
X168180952Y-108762295D02*
X168257142Y-108762295D01*
X168257142Y-108762295D02*
X168333333Y-108724200D01*
X168333333Y-108724200D02*
X168371428Y-108686104D01*
X168371428Y-108686104D02*
X168409523Y-108609914D01*
X168409523Y-108609914D02*
X168447619Y-108457533D01*
X168447619Y-108457533D02*
X168447619Y-108267057D01*
X168447619Y-108267057D02*
X168409523Y-108114676D01*
X168409523Y-108114676D02*
X168371428Y-108038485D01*
X168371428Y-108038485D02*
X168333333Y-108000390D01*
X168333333Y-108000390D02*
X168257142Y-107962295D01*
X131314285Y-102562295D02*
X131580952Y-102181342D01*
X131771428Y-102562295D02*
X131771428Y-101762295D01*
X131771428Y-101762295D02*
X131466666Y-101762295D01*
X131466666Y-101762295D02*
X131390476Y-101800390D01*
X131390476Y-101800390D02*
X131352381Y-101838485D01*
X131352381Y-101838485D02*
X131314285Y-101914676D01*
X131314285Y-101914676D02*
X131314285Y-102028961D01*
X131314285Y-102028961D02*
X131352381Y-102105152D01*
X131352381Y-102105152D02*
X131390476Y-102143247D01*
X131390476Y-102143247D02*
X131466666Y-102181342D01*
X131466666Y-102181342D02*
X131771428Y-102181342D01*
X130590476Y-101762295D02*
X130971428Y-101762295D01*
X130971428Y-101762295D02*
X131009524Y-102143247D01*
X131009524Y-102143247D02*
X130971428Y-102105152D01*
X130971428Y-102105152D02*
X130895238Y-102067057D01*
X130895238Y-102067057D02*
X130704762Y-102067057D01*
X130704762Y-102067057D02*
X130628571Y-102105152D01*
X130628571Y-102105152D02*
X130590476Y-102143247D01*
X130590476Y-102143247D02*
X130552381Y-102219438D01*
X130552381Y-102219438D02*
X130552381Y-102409914D01*
X130552381Y-102409914D02*
X130590476Y-102486104D01*
X130590476Y-102486104D02*
X130628571Y-102524200D01*
X130628571Y-102524200D02*
X130704762Y-102562295D01*
X130704762Y-102562295D02*
X130895238Y-102562295D01*
X130895238Y-102562295D02*
X130971428Y-102524200D01*
X130971428Y-102524200D02*
X131009524Y-102486104D01*
X130057142Y-101762295D02*
X129980952Y-101762295D01*
X129980952Y-101762295D02*
X129904761Y-101800390D01*
X129904761Y-101800390D02*
X129866666Y-101838485D01*
X129866666Y-101838485D02*
X129828571Y-101914676D01*
X129828571Y-101914676D02*
X129790476Y-102067057D01*
X129790476Y-102067057D02*
X129790476Y-102257533D01*
X129790476Y-102257533D02*
X129828571Y-102409914D01*
X129828571Y-102409914D02*
X129866666Y-102486104D01*
X129866666Y-102486104D02*
X129904761Y-102524200D01*
X129904761Y-102524200D02*
X129980952Y-102562295D01*
X129980952Y-102562295D02*
X130057142Y-102562295D01*
X130057142Y-102562295D02*
X130133333Y-102524200D01*
X130133333Y-102524200D02*
X130171428Y-102486104D01*
X130171428Y-102486104D02*
X130209523Y-102409914D01*
X130209523Y-102409914D02*
X130247619Y-102257533D01*
X130247619Y-102257533D02*
X130247619Y-102067057D01*
X130247619Y-102067057D02*
X130209523Y-101914676D01*
X130209523Y-101914676D02*
X130171428Y-101838485D01*
X130171428Y-101838485D02*
X130133333Y-101800390D01*
X130133333Y-101800390D02*
X130057142Y-101762295D01*
X162014285Y-107362295D02*
X162280952Y-106981342D01*
X162471428Y-107362295D02*
X162471428Y-106562295D01*
X162471428Y-106562295D02*
X162166666Y-106562295D01*
X162166666Y-106562295D02*
X162090476Y-106600390D01*
X162090476Y-106600390D02*
X162052381Y-106638485D01*
X162052381Y-106638485D02*
X162014285Y-106714676D01*
X162014285Y-106714676D02*
X162014285Y-106828961D01*
X162014285Y-106828961D02*
X162052381Y-106905152D01*
X162052381Y-106905152D02*
X162090476Y-106943247D01*
X162090476Y-106943247D02*
X162166666Y-106981342D01*
X162166666Y-106981342D02*
X162471428Y-106981342D01*
X161252381Y-107362295D02*
X161709524Y-107362295D01*
X161480952Y-107362295D02*
X161480952Y-106562295D01*
X161480952Y-106562295D02*
X161557143Y-106676580D01*
X161557143Y-106676580D02*
X161633333Y-106752771D01*
X161633333Y-106752771D02*
X161709524Y-106790866D01*
X160566666Y-106828961D02*
X160566666Y-107362295D01*
X160757142Y-106524200D02*
X160947619Y-107095628D01*
X160947619Y-107095628D02*
X160452380Y-107095628D01*
X169333332Y-111186104D02*
X169371428Y-111224200D01*
X169371428Y-111224200D02*
X169485713Y-111262295D01*
X169485713Y-111262295D02*
X169561904Y-111262295D01*
X169561904Y-111262295D02*
X169676190Y-111224200D01*
X169676190Y-111224200D02*
X169752380Y-111148009D01*
X169752380Y-111148009D02*
X169790475Y-111071819D01*
X169790475Y-111071819D02*
X169828571Y-110919438D01*
X169828571Y-110919438D02*
X169828571Y-110805152D01*
X169828571Y-110805152D02*
X169790475Y-110652771D01*
X169790475Y-110652771D02*
X169752380Y-110576580D01*
X169752380Y-110576580D02*
X169676190Y-110500390D01*
X169676190Y-110500390D02*
X169561904Y-110462295D01*
X169561904Y-110462295D02*
X169485713Y-110462295D01*
X169485713Y-110462295D02*
X169371428Y-110500390D01*
X169371428Y-110500390D02*
X169333332Y-110538485D01*
X168876190Y-110805152D02*
X168952380Y-110767057D01*
X168952380Y-110767057D02*
X168990475Y-110728961D01*
X168990475Y-110728961D02*
X169028571Y-110652771D01*
X169028571Y-110652771D02*
X169028571Y-110614676D01*
X169028571Y-110614676D02*
X168990475Y-110538485D01*
X168990475Y-110538485D02*
X168952380Y-110500390D01*
X168952380Y-110500390D02*
X168876190Y-110462295D01*
X168876190Y-110462295D02*
X168723809Y-110462295D01*
X168723809Y-110462295D02*
X168647618Y-110500390D01*
X168647618Y-110500390D02*
X168609523Y-110538485D01*
X168609523Y-110538485D02*
X168571428Y-110614676D01*
X168571428Y-110614676D02*
X168571428Y-110652771D01*
X168571428Y-110652771D02*
X168609523Y-110728961D01*
X168609523Y-110728961D02*
X168647618Y-110767057D01*
X168647618Y-110767057D02*
X168723809Y-110805152D01*
X168723809Y-110805152D02*
X168876190Y-110805152D01*
X168876190Y-110805152D02*
X168952380Y-110843247D01*
X168952380Y-110843247D02*
X168990475Y-110881342D01*
X168990475Y-110881342D02*
X169028571Y-110957533D01*
X169028571Y-110957533D02*
X169028571Y-111109914D01*
X169028571Y-111109914D02*
X168990475Y-111186104D01*
X168990475Y-111186104D02*
X168952380Y-111224200D01*
X168952380Y-111224200D02*
X168876190Y-111262295D01*
X168876190Y-111262295D02*
X168723809Y-111262295D01*
X168723809Y-111262295D02*
X168647618Y-111224200D01*
X168647618Y-111224200D02*
X168609523Y-111186104D01*
X168609523Y-111186104D02*
X168571428Y-111109914D01*
X168571428Y-111109914D02*
X168571428Y-110957533D01*
X168571428Y-110957533D02*
X168609523Y-110881342D01*
X168609523Y-110881342D02*
X168647618Y-110843247D01*
X168647618Y-110843247D02*
X168723809Y-110805152D01*
X127414285Y-86362295D02*
X127680952Y-85981342D01*
X127871428Y-86362295D02*
X127871428Y-85562295D01*
X127871428Y-85562295D02*
X127566666Y-85562295D01*
X127566666Y-85562295D02*
X127490476Y-85600390D01*
X127490476Y-85600390D02*
X127452381Y-85638485D01*
X127452381Y-85638485D02*
X127414285Y-85714676D01*
X127414285Y-85714676D02*
X127414285Y-85828961D01*
X127414285Y-85828961D02*
X127452381Y-85905152D01*
X127452381Y-85905152D02*
X127490476Y-85943247D01*
X127490476Y-85943247D02*
X127566666Y-85981342D01*
X127566666Y-85981342D02*
X127871428Y-85981342D01*
X127109524Y-85638485D02*
X127071428Y-85600390D01*
X127071428Y-85600390D02*
X126995238Y-85562295D01*
X126995238Y-85562295D02*
X126804762Y-85562295D01*
X126804762Y-85562295D02*
X126728571Y-85600390D01*
X126728571Y-85600390D02*
X126690476Y-85638485D01*
X126690476Y-85638485D02*
X126652381Y-85714676D01*
X126652381Y-85714676D02*
X126652381Y-85790866D01*
X126652381Y-85790866D02*
X126690476Y-85905152D01*
X126690476Y-85905152D02*
X127147619Y-86362295D01*
X127147619Y-86362295D02*
X126652381Y-86362295D01*
X125966666Y-85828961D02*
X125966666Y-86362295D01*
X126157142Y-85524200D02*
X126347619Y-86095628D01*
X126347619Y-86095628D02*
X125852380Y-86095628D01*
X131414285Y-103762295D02*
X131680952Y-103381342D01*
X131871428Y-103762295D02*
X131871428Y-102962295D01*
X131871428Y-102962295D02*
X131566666Y-102962295D01*
X131566666Y-102962295D02*
X131490476Y-103000390D01*
X131490476Y-103000390D02*
X131452381Y-103038485D01*
X131452381Y-103038485D02*
X131414285Y-103114676D01*
X131414285Y-103114676D02*
X131414285Y-103228961D01*
X131414285Y-103228961D02*
X131452381Y-103305152D01*
X131452381Y-103305152D02*
X131490476Y-103343247D01*
X131490476Y-103343247D02*
X131566666Y-103381342D01*
X131566666Y-103381342D02*
X131871428Y-103381342D01*
X130690476Y-102962295D02*
X131071428Y-102962295D01*
X131071428Y-102962295D02*
X131109524Y-103343247D01*
X131109524Y-103343247D02*
X131071428Y-103305152D01*
X131071428Y-103305152D02*
X130995238Y-103267057D01*
X130995238Y-103267057D02*
X130804762Y-103267057D01*
X130804762Y-103267057D02*
X130728571Y-103305152D01*
X130728571Y-103305152D02*
X130690476Y-103343247D01*
X130690476Y-103343247D02*
X130652381Y-103419438D01*
X130652381Y-103419438D02*
X130652381Y-103609914D01*
X130652381Y-103609914D02*
X130690476Y-103686104D01*
X130690476Y-103686104D02*
X130728571Y-103724200D01*
X130728571Y-103724200D02*
X130804762Y-103762295D01*
X130804762Y-103762295D02*
X130995238Y-103762295D01*
X130995238Y-103762295D02*
X131071428Y-103724200D01*
X131071428Y-103724200D02*
X131109524Y-103686104D01*
X130347619Y-103038485D02*
X130309523Y-103000390D01*
X130309523Y-103000390D02*
X130233333Y-102962295D01*
X130233333Y-102962295D02*
X130042857Y-102962295D01*
X130042857Y-102962295D02*
X129966666Y-103000390D01*
X129966666Y-103000390D02*
X129928571Y-103038485D01*
X129928571Y-103038485D02*
X129890476Y-103114676D01*
X129890476Y-103114676D02*
X129890476Y-103190866D01*
X129890476Y-103190866D02*
X129928571Y-103305152D01*
X129928571Y-103305152D02*
X130385714Y-103762295D01*
X130385714Y-103762295D02*
X129890476Y-103762295D01*
X150014285Y-112286104D02*
X150052381Y-112324200D01*
X150052381Y-112324200D02*
X150166666Y-112362295D01*
X150166666Y-112362295D02*
X150242857Y-112362295D01*
X150242857Y-112362295D02*
X150357143Y-112324200D01*
X150357143Y-112324200D02*
X150433333Y-112248009D01*
X150433333Y-112248009D02*
X150471428Y-112171819D01*
X150471428Y-112171819D02*
X150509524Y-112019438D01*
X150509524Y-112019438D02*
X150509524Y-111905152D01*
X150509524Y-111905152D02*
X150471428Y-111752771D01*
X150471428Y-111752771D02*
X150433333Y-111676580D01*
X150433333Y-111676580D02*
X150357143Y-111600390D01*
X150357143Y-111600390D02*
X150242857Y-111562295D01*
X150242857Y-111562295D02*
X150166666Y-111562295D01*
X150166666Y-111562295D02*
X150052381Y-111600390D01*
X150052381Y-111600390D02*
X150014285Y-111638485D01*
X149252381Y-112362295D02*
X149709524Y-112362295D01*
X149480952Y-112362295D02*
X149480952Y-111562295D01*
X149480952Y-111562295D02*
X149557143Y-111676580D01*
X149557143Y-111676580D02*
X149633333Y-111752771D01*
X149633333Y-111752771D02*
X149709524Y-111790866D01*
X148566666Y-111828961D02*
X148566666Y-112362295D01*
X148757142Y-111524200D02*
X148947619Y-112095628D01*
X148947619Y-112095628D02*
X148452380Y-112095628D01*
X111314285Y-97886104D02*
X111352381Y-97924200D01*
X111352381Y-97924200D02*
X111466666Y-97962295D01*
X111466666Y-97962295D02*
X111542857Y-97962295D01*
X111542857Y-97962295D02*
X111657143Y-97924200D01*
X111657143Y-97924200D02*
X111733333Y-97848009D01*
X111733333Y-97848009D02*
X111771428Y-97771819D01*
X111771428Y-97771819D02*
X111809524Y-97619438D01*
X111809524Y-97619438D02*
X111809524Y-97505152D01*
X111809524Y-97505152D02*
X111771428Y-97352771D01*
X111771428Y-97352771D02*
X111733333Y-97276580D01*
X111733333Y-97276580D02*
X111657143Y-97200390D01*
X111657143Y-97200390D02*
X111542857Y-97162295D01*
X111542857Y-97162295D02*
X111466666Y-97162295D01*
X111466666Y-97162295D02*
X111352381Y-97200390D01*
X111352381Y-97200390D02*
X111314285Y-97238485D01*
X111009524Y-97238485D02*
X110971428Y-97200390D01*
X110971428Y-97200390D02*
X110895238Y-97162295D01*
X110895238Y-97162295D02*
X110704762Y-97162295D01*
X110704762Y-97162295D02*
X110628571Y-97200390D01*
X110628571Y-97200390D02*
X110590476Y-97238485D01*
X110590476Y-97238485D02*
X110552381Y-97314676D01*
X110552381Y-97314676D02*
X110552381Y-97390866D01*
X110552381Y-97390866D02*
X110590476Y-97505152D01*
X110590476Y-97505152D02*
X111047619Y-97962295D01*
X111047619Y-97962295D02*
X110552381Y-97962295D01*
X109790476Y-97962295D02*
X110247619Y-97962295D01*
X110019047Y-97962295D02*
X110019047Y-97162295D01*
X110019047Y-97162295D02*
X110095238Y-97276580D01*
X110095238Y-97276580D02*
X110171428Y-97352771D01*
X110171428Y-97352771D02*
X110247619Y-97390866D01*
X169914285Y-109886104D02*
X169952381Y-109924200D01*
X169952381Y-109924200D02*
X170066666Y-109962295D01*
X170066666Y-109962295D02*
X170142857Y-109962295D01*
X170142857Y-109962295D02*
X170257143Y-109924200D01*
X170257143Y-109924200D02*
X170333333Y-109848009D01*
X170333333Y-109848009D02*
X170371428Y-109771819D01*
X170371428Y-109771819D02*
X170409524Y-109619438D01*
X170409524Y-109619438D02*
X170409524Y-109505152D01*
X170409524Y-109505152D02*
X170371428Y-109352771D01*
X170371428Y-109352771D02*
X170333333Y-109276580D01*
X170333333Y-109276580D02*
X170257143Y-109200390D01*
X170257143Y-109200390D02*
X170142857Y-109162295D01*
X170142857Y-109162295D02*
X170066666Y-109162295D01*
X170066666Y-109162295D02*
X169952381Y-109200390D01*
X169952381Y-109200390D02*
X169914285Y-109238485D01*
X169152381Y-109962295D02*
X169609524Y-109962295D01*
X169380952Y-109962295D02*
X169380952Y-109162295D01*
X169380952Y-109162295D02*
X169457143Y-109276580D01*
X169457143Y-109276580D02*
X169533333Y-109352771D01*
X169533333Y-109352771D02*
X169609524Y-109390866D01*
X168847619Y-109238485D02*
X168809523Y-109200390D01*
X168809523Y-109200390D02*
X168733333Y-109162295D01*
X168733333Y-109162295D02*
X168542857Y-109162295D01*
X168542857Y-109162295D02*
X168466666Y-109200390D01*
X168466666Y-109200390D02*
X168428571Y-109238485D01*
X168428571Y-109238485D02*
X168390476Y-109314676D01*
X168390476Y-109314676D02*
X168390476Y-109390866D01*
X168390476Y-109390866D02*
X168428571Y-109505152D01*
X168428571Y-109505152D02*
X168885714Y-109962295D01*
X168885714Y-109962295D02*
X168390476Y-109962295D01*
X150064286Y-107092295D02*
X150330953Y-106711342D01*
X150521429Y-107092295D02*
X150521429Y-106292295D01*
X150521429Y-106292295D02*
X150216667Y-106292295D01*
X150216667Y-106292295D02*
X150140477Y-106330390D01*
X150140477Y-106330390D02*
X150102382Y-106368485D01*
X150102382Y-106368485D02*
X150064286Y-106444676D01*
X150064286Y-106444676D02*
X150064286Y-106558961D01*
X150064286Y-106558961D02*
X150102382Y-106635152D01*
X150102382Y-106635152D02*
X150140477Y-106673247D01*
X150140477Y-106673247D02*
X150216667Y-106711342D01*
X150216667Y-106711342D02*
X150521429Y-106711342D01*
X149759525Y-106368485D02*
X149721429Y-106330390D01*
X149721429Y-106330390D02*
X149645239Y-106292295D01*
X149645239Y-106292295D02*
X149454763Y-106292295D01*
X149454763Y-106292295D02*
X149378572Y-106330390D01*
X149378572Y-106330390D02*
X149340477Y-106368485D01*
X149340477Y-106368485D02*
X149302382Y-106444676D01*
X149302382Y-106444676D02*
X149302382Y-106520866D01*
X149302382Y-106520866D02*
X149340477Y-106635152D01*
X149340477Y-106635152D02*
X149797620Y-107092295D01*
X149797620Y-107092295D02*
X149302382Y-107092295D01*
X148807143Y-106292295D02*
X148730953Y-106292295D01*
X148730953Y-106292295D02*
X148654762Y-106330390D01*
X148654762Y-106330390D02*
X148616667Y-106368485D01*
X148616667Y-106368485D02*
X148578572Y-106444676D01*
X148578572Y-106444676D02*
X148540477Y-106597057D01*
X148540477Y-106597057D02*
X148540477Y-106787533D01*
X148540477Y-106787533D02*
X148578572Y-106939914D01*
X148578572Y-106939914D02*
X148616667Y-107016104D01*
X148616667Y-107016104D02*
X148654762Y-107054200D01*
X148654762Y-107054200D02*
X148730953Y-107092295D01*
X148730953Y-107092295D02*
X148807143Y-107092295D01*
X148807143Y-107092295D02*
X148883334Y-107054200D01*
X148883334Y-107054200D02*
X148921429Y-107016104D01*
X148921429Y-107016104D02*
X148959524Y-106939914D01*
X148959524Y-106939914D02*
X148997620Y-106787533D01*
X148997620Y-106787533D02*
X148997620Y-106597057D01*
X148997620Y-106597057D02*
X148959524Y-106444676D01*
X148959524Y-106444676D02*
X148921429Y-106368485D01*
X148921429Y-106368485D02*
X148883334Y-106330390D01*
X148883334Y-106330390D02*
X148807143Y-106292295D01*
X147962295Y-110185714D02*
X147581342Y-109919047D01*
X147962295Y-109728571D02*
X147162295Y-109728571D01*
X147162295Y-109728571D02*
X147162295Y-110033333D01*
X147162295Y-110033333D02*
X147200390Y-110109523D01*
X147200390Y-110109523D02*
X147238485Y-110147618D01*
X147238485Y-110147618D02*
X147314676Y-110185714D01*
X147314676Y-110185714D02*
X147428961Y-110185714D01*
X147428961Y-110185714D02*
X147505152Y-110147618D01*
X147505152Y-110147618D02*
X147543247Y-110109523D01*
X147543247Y-110109523D02*
X147581342Y-110033333D01*
X147581342Y-110033333D02*
X147581342Y-109728571D01*
X147162295Y-110452380D02*
X147162295Y-110947618D01*
X147162295Y-110947618D02*
X147467057Y-110680952D01*
X147467057Y-110680952D02*
X147467057Y-110795237D01*
X147467057Y-110795237D02*
X147505152Y-110871428D01*
X147505152Y-110871428D02*
X147543247Y-110909523D01*
X147543247Y-110909523D02*
X147619438Y-110947618D01*
X147619438Y-110947618D02*
X147809914Y-110947618D01*
X147809914Y-110947618D02*
X147886104Y-110909523D01*
X147886104Y-110909523D02*
X147924200Y-110871428D01*
X147924200Y-110871428D02*
X147962295Y-110795237D01*
X147962295Y-110795237D02*
X147962295Y-110566666D01*
X147962295Y-110566666D02*
X147924200Y-110490475D01*
X147924200Y-110490475D02*
X147886104Y-110452380D01*
X147962295Y-111328571D02*
X147962295Y-111480952D01*
X147962295Y-111480952D02*
X147924200Y-111557142D01*
X147924200Y-111557142D02*
X147886104Y-111595238D01*
X147886104Y-111595238D02*
X147771819Y-111671428D01*
X147771819Y-111671428D02*
X147619438Y-111709523D01*
X147619438Y-111709523D02*
X147314676Y-111709523D01*
X147314676Y-111709523D02*
X147238485Y-111671428D01*
X147238485Y-111671428D02*
X147200390Y-111633333D01*
X147200390Y-111633333D02*
X147162295Y-111557142D01*
X147162295Y-111557142D02*
X147162295Y-111404761D01*
X147162295Y-111404761D02*
X147200390Y-111328571D01*
X147200390Y-111328571D02*
X147238485Y-111290476D01*
X147238485Y-111290476D02*
X147314676Y-111252380D01*
X147314676Y-111252380D02*
X147505152Y-111252380D01*
X147505152Y-111252380D02*
X147581342Y-111290476D01*
X147581342Y-111290476D02*
X147619438Y-111328571D01*
X147619438Y-111328571D02*
X147657533Y-111404761D01*
X147657533Y-111404761D02*
X147657533Y-111557142D01*
X147657533Y-111557142D02*
X147619438Y-111633333D01*
X147619438Y-111633333D02*
X147581342Y-111671428D01*
X147581342Y-111671428D02*
X147505152Y-111709523D01*
%TO.C,R37*%
D11*
X161232379Y-109820000D02*
X161567621Y-109820000D01*
X161232379Y-110580000D02*
X161567621Y-110580000D01*
%TO.C,R59*%
X121532379Y-88120000D02*
X121867621Y-88120000D01*
X121532379Y-88880000D02*
X121867621Y-88880000D01*
%TO.C,U8*%
D12*
X151450000Y-107850001D02*
X153450002Y-107850001D01*
X151450000Y-111149999D02*
X153450002Y-111149999D01*
D13*
G36*
X151850002Y-111399999D02*
G01*
X151450000Y-111399999D01*
X151450000Y-111149999D01*
X151850002Y-111149999D01*
X151850002Y-111399999D01*
G37*
%TO.C,C34*%
D11*
X126215835Y-86740000D02*
X125984165Y-86740000D01*
X126215835Y-87460000D02*
X125984165Y-87460000D01*
%TO.C,R23*%
X141220000Y-99267621D02*
X141220000Y-98932379D01*
X141980000Y-99267621D02*
X141980000Y-98932379D01*
%TO.C,C2*%
X119772500Y-86484165D02*
X119772500Y-86715835D01*
X120492500Y-86484165D02*
X120492500Y-86715835D01*
%TO.C,U6*%
X109902500Y-99590000D02*
X109902500Y-100590000D01*
X109902500Y-101710000D02*
X109902500Y-102710000D01*
X109902500Y-102710000D02*
X111422500Y-102710000D01*
X111422500Y-99590000D02*
X109902500Y-99590000D01*
X111422500Y-99640000D02*
X111422500Y-99590000D01*
X111422500Y-101540000D02*
X111422500Y-100760000D01*
X111422500Y-102710000D02*
X111422500Y-102660000D01*
X112202500Y-101100000D02*
X111722500Y-101100000D01*
X111962500Y-100770000D01*
X112202500Y-101100000D01*
G36*
X112202500Y-101100000D02*
G01*
X111722500Y-101100000D01*
X111962500Y-100770000D01*
X112202500Y-101100000D01*
G37*
%TO.C,C19*%
X141540000Y-111915835D02*
X141540000Y-111684165D01*
X142260000Y-111915835D02*
X142260000Y-111684165D01*
%TO.C,R36*%
X161232379Y-108820000D02*
X161567621Y-108820000D01*
X161232379Y-109580000D02*
X161567621Y-109580000D01*
%TO.C,R32*%
X149382380Y-108520000D02*
X149717622Y-108520000D01*
X149382380Y-109280000D02*
X149717622Y-109280000D01*
%TO.C,L1*%
X154096000Y-107746001D02*
X154096000Y-112054001D01*
X158404000Y-112054001D02*
X158404000Y-107746001D01*
%TO.C,U11*%
D14*
X140500000Y-101500000D02*
X140500000Y-109500000D01*
X140500000Y-109500000D02*
X140875000Y-109500000D01*
X140875000Y-101500000D02*
X140500000Y-101500000D01*
X146500000Y-101500000D02*
X146125000Y-101500000D01*
X146500000Y-109500000D02*
X146125000Y-109500000D01*
X146500000Y-109500000D02*
X146500000Y-101500000D01*
D12*
X140500000Y-101000000D02*
G75*
G02*
X140300000Y-101000000I-100000J0D01*
G01*
X140300000Y-101000000D02*
G75*
G02*
X140500000Y-101000000I100000J0D01*
G01*
%TO.C,R53*%
D11*
X128432379Y-104220000D02*
X128767621Y-104220000D01*
X128432379Y-104980000D02*
X128767621Y-104980000D01*
%TO.C,C18*%
X139340000Y-109384165D02*
X139340000Y-109615835D01*
X140060000Y-109384165D02*
X140060000Y-109615835D01*
%TO.C,C15*%
X154296268Y-106289999D02*
X154003734Y-106289999D01*
X154296268Y-107309999D02*
X154003734Y-107309999D01*
%TO.C,R33*%
X161232379Y-110820000D02*
X161567621Y-110820000D01*
X161232379Y-111580000D02*
X161567621Y-111580000D01*
%TO.C,C10*%
X166848335Y-108140000D02*
X166616665Y-108140000D01*
X166848335Y-108860000D02*
X166616665Y-108860000D01*
%TO.C,R50*%
X128432379Y-101820000D02*
X128767621Y-101820000D01*
X128432379Y-102580000D02*
X128767621Y-102580000D01*
%TO.C,U7*%
D14*
X163455000Y-108461500D02*
X163700000Y-108461500D01*
X163455000Y-109100000D02*
X163455000Y-108461500D01*
X163455000Y-110538500D02*
X163455000Y-109900000D01*
X163700000Y-110538500D02*
X163455000Y-110538500D01*
X164300000Y-108461500D02*
X164745000Y-108461500D01*
X164500000Y-110538500D02*
X164745000Y-110538500D01*
X164745000Y-108461500D02*
X164745000Y-109100000D01*
X164745000Y-110538500D02*
X164745000Y-109900000D01*
D12*
X163100000Y-110100000D02*
G75*
G02*
X162900000Y-110100000I-100000J0D01*
G01*
X162900000Y-110100000D02*
G75*
G02*
X163100000Y-110100000I100000J0D01*
G01*
%TO.C,R14*%
D11*
X161567621Y-107820000D02*
X161232379Y-107820000D01*
X161567621Y-108580000D02*
X161232379Y-108580000D01*
%TO.C,C8*%
X166915835Y-110440000D02*
X166684165Y-110440000D01*
X166915835Y-111160000D02*
X166684165Y-111160000D01*
%TO.C,R24*%
X124432379Y-85620000D02*
X124767621Y-85620000D01*
X124432379Y-86380000D02*
X124767621Y-86380000D01*
%TO.C,R52*%
X128432379Y-103120000D02*
X128767621Y-103120000D01*
X128432379Y-103880000D02*
X128767621Y-103880000D01*
%TO.C,U10*%
D12*
X121200000Y-86800000D02*
G75*
G02*
X121000000Y-86800000I-100000J0D01*
G01*
X121000000Y-86800000D02*
G75*
G02*
X121200000Y-86800000I100000J0D01*
G01*
%TO.C,C14*%
D11*
X152103734Y-111590000D02*
X152396268Y-111590000D01*
X152103734Y-112610000D02*
X152396268Y-112610000D01*
%TO.C,C21*%
X110778335Y-98490000D02*
X110546665Y-98490000D01*
X110778335Y-99210000D02*
X110546665Y-99210000D01*
%TO.C,C12*%
X166915835Y-109140000D02*
X166684165Y-109140000D01*
X166915835Y-109860000D02*
X166684165Y-109860000D01*
%TO.C,R20*%
X149717622Y-107520000D02*
X149382380Y-107520000D01*
X149717622Y-108280000D02*
X149382380Y-108280000D01*
%TO.C,R39*%
X149682380Y-109520000D02*
X150017622Y-109520000D01*
X149682380Y-110280000D02*
X150017622Y-110280000D01*
%TD*%
%LPC*%
G36*
X142114316Y-112011799D02*
G01*
X142164602Y-112045398D01*
X142198201Y-112095684D01*
X142210000Y-112155000D01*
X142210000Y-112580000D01*
X142198201Y-112639316D01*
X142164602Y-112689602D01*
X142114316Y-112723201D01*
X142055000Y-112735000D01*
X141745000Y-112735000D01*
X141685684Y-112723201D01*
X141635398Y-112689602D01*
X141601799Y-112639316D01*
X141590000Y-112580000D01*
X141590000Y-112155000D01*
X141601799Y-112095684D01*
X141635398Y-112045398D01*
X141685684Y-112011799D01*
X141745000Y-112000000D01*
X142055000Y-112000000D01*
X142114316Y-112011799D01*
G37*
G36*
X151691548Y-111625805D02*
G01*
X151740048Y-111631432D01*
X151756619Y-111638748D01*
X151778388Y-111643079D01*
X151801691Y-111658649D01*
X151821229Y-111667276D01*
X151834573Y-111680620D01*
X151855439Y-111694562D01*
X151869380Y-111715427D01*
X151882724Y-111728771D01*
X151891349Y-111748307D01*
X151906922Y-111771613D01*
X151911252Y-111793383D01*
X151918568Y-111809952D01*
X151924193Y-111858440D01*
X151925001Y-111862500D01*
X151925001Y-112337500D01*
X151924193Y-112341559D01*
X151918568Y-112390047D01*
X151911252Y-112406614D01*
X151906922Y-112428387D01*
X151891348Y-112451694D01*
X151882724Y-112471228D01*
X151869382Y-112484569D01*
X151855439Y-112505438D01*
X151834570Y-112519381D01*
X151821229Y-112532723D01*
X151801695Y-112541347D01*
X151778388Y-112556921D01*
X151756615Y-112561251D01*
X151740048Y-112568567D01*
X151691561Y-112574192D01*
X151687501Y-112575000D01*
X151087501Y-112575000D01*
X151083442Y-112574192D01*
X151034953Y-112568567D01*
X151018384Y-112561251D01*
X150996614Y-112556921D01*
X150973308Y-112541348D01*
X150953772Y-112532723D01*
X150940428Y-112519379D01*
X150919563Y-112505438D01*
X150905621Y-112484572D01*
X150892277Y-112471228D01*
X150883650Y-112451690D01*
X150868080Y-112428387D01*
X150863749Y-112406618D01*
X150856433Y-112390047D01*
X150850806Y-112341548D01*
X150850001Y-112337500D01*
X150850001Y-111862500D01*
X150850805Y-111858453D01*
X150856433Y-111809952D01*
X150863750Y-111793379D01*
X150868080Y-111771613D01*
X150883649Y-111748311D01*
X150892277Y-111728771D01*
X150905623Y-111715424D01*
X150919563Y-111694562D01*
X150940425Y-111680622D01*
X150953772Y-111667276D01*
X150973312Y-111658648D01*
X150996614Y-111643079D01*
X151018380Y-111638749D01*
X151034953Y-111631432D01*
X151083453Y-111625805D01*
X151087501Y-111625000D01*
X151687501Y-111625000D01*
X151691548Y-111625805D01*
G37*
G36*
X153416548Y-111625805D02*
G01*
X153465048Y-111631432D01*
X153481619Y-111638748D01*
X153503388Y-111643079D01*
X153526691Y-111658649D01*
X153546229Y-111667276D01*
X153559573Y-111680620D01*
X153580439Y-111694562D01*
X153594380Y-111715427D01*
X153607724Y-111728771D01*
X153616349Y-111748307D01*
X153631922Y-111771613D01*
X153636252Y-111793383D01*
X153643568Y-111809952D01*
X153649193Y-111858440D01*
X153650001Y-111862500D01*
X153650001Y-112337500D01*
X153649193Y-112341559D01*
X153643568Y-112390047D01*
X153636252Y-112406614D01*
X153631922Y-112428387D01*
X153616348Y-112451694D01*
X153607724Y-112471228D01*
X153594382Y-112484569D01*
X153580439Y-112505438D01*
X153559570Y-112519381D01*
X153546229Y-112532723D01*
X153526695Y-112541347D01*
X153503388Y-112556921D01*
X153481615Y-112561251D01*
X153465048Y-112568567D01*
X153416561Y-112574192D01*
X153412501Y-112575000D01*
X152812501Y-112575000D01*
X152808442Y-112574192D01*
X152759953Y-112568567D01*
X152743384Y-112561251D01*
X152721614Y-112556921D01*
X152698308Y-112541348D01*
X152678772Y-112532723D01*
X152665428Y-112519379D01*
X152644563Y-112505438D01*
X152630621Y-112484572D01*
X152617277Y-112471228D01*
X152608650Y-112451690D01*
X152593080Y-112428387D01*
X152588749Y-112406618D01*
X152581433Y-112390047D01*
X152575806Y-112341548D01*
X152575001Y-112337500D01*
X152575001Y-111862500D01*
X152575805Y-111858453D01*
X152581433Y-111809952D01*
X152588750Y-111793379D01*
X152593080Y-111771613D01*
X152608649Y-111748311D01*
X152617277Y-111728771D01*
X152630623Y-111715424D01*
X152644563Y-111694562D01*
X152665425Y-111680622D01*
X152678772Y-111667276D01*
X152698312Y-111658648D01*
X152721614Y-111643079D01*
X152743380Y-111638749D01*
X152759953Y-111631432D01*
X152808453Y-111625805D01*
X152812501Y-111625000D01*
X153412501Y-111625000D01*
X153416548Y-111625805D01*
G37*
G36*
X142114316Y-110876799D02*
G01*
X142164602Y-110910398D01*
X142198201Y-110960684D01*
X142210000Y-111020000D01*
X142210000Y-111445000D01*
X142198201Y-111504316D01*
X142164602Y-111554602D01*
X142114316Y-111588201D01*
X142055000Y-111600000D01*
X141745000Y-111600000D01*
X141685684Y-111588201D01*
X141635398Y-111554602D01*
X141601799Y-111504316D01*
X141590000Y-111445000D01*
X141590000Y-111020000D01*
X141601799Y-110960684D01*
X141635398Y-110910398D01*
X141685684Y-110876799D01*
X141745000Y-110865000D01*
X142055000Y-110865000D01*
X142114316Y-110876799D01*
G37*
G36*
X157950000Y-111575001D02*
G01*
X154550000Y-111575001D01*
X154550000Y-110595001D01*
X157950000Y-110595001D01*
X157950000Y-111575001D01*
G37*
G36*
X161061229Y-110892179D02*
G01*
X161113137Y-110926863D01*
X161147821Y-110978771D01*
X161160000Y-111040000D01*
X161160000Y-111360000D01*
X161147821Y-111421229D01*
X161113137Y-111473137D01*
X161061229Y-111507821D01*
X161000000Y-111520000D01*
X160605000Y-111520000D01*
X160543771Y-111507821D01*
X160491863Y-111473137D01*
X160457179Y-111421229D01*
X160445000Y-111360000D01*
X160445000Y-111040000D01*
X160457179Y-110978771D01*
X160491863Y-110926863D01*
X160543771Y-110892179D01*
X160605000Y-110880000D01*
X161000000Y-110880000D01*
X161061229Y-110892179D01*
G37*
G36*
X162256229Y-110892179D02*
G01*
X162308137Y-110926863D01*
X162342821Y-110978771D01*
X162355000Y-111040000D01*
X162355000Y-111360000D01*
X162342821Y-111421229D01*
X162308137Y-111473137D01*
X162256229Y-111507821D01*
X162195000Y-111520000D01*
X161800000Y-111520000D01*
X161738771Y-111507821D01*
X161686863Y-111473137D01*
X161652179Y-111421229D01*
X161640000Y-111360000D01*
X161640000Y-111040000D01*
X161652179Y-110978771D01*
X161686863Y-110926863D01*
X161738771Y-110892179D01*
X161800000Y-110880000D01*
X162195000Y-110880000D01*
X162256229Y-110892179D01*
G37*
G36*
X166504316Y-110501799D02*
G01*
X166554602Y-110535398D01*
X166588201Y-110585684D01*
X166600000Y-110645000D01*
X166600000Y-110955000D01*
X166588201Y-111014316D01*
X166554602Y-111064602D01*
X166504316Y-111098201D01*
X166445000Y-111110000D01*
X166020000Y-111110000D01*
X165960684Y-111098201D01*
X165910398Y-111064602D01*
X165876799Y-111014316D01*
X165865000Y-110955000D01*
X165865000Y-110645000D01*
X165876799Y-110585684D01*
X165910398Y-110535398D01*
X165960684Y-110501799D01*
X166020000Y-110490000D01*
X166445000Y-110490000D01*
X166504316Y-110501799D01*
G37*
G36*
X167639316Y-110501799D02*
G01*
X167689602Y-110535398D01*
X167723201Y-110585684D01*
X167735000Y-110645000D01*
X167735000Y-110955000D01*
X167723201Y-111014316D01*
X167689602Y-111064602D01*
X167639316Y-111098201D01*
X167580000Y-111110000D01*
X167155000Y-111110000D01*
X167095684Y-111098201D01*
X167045398Y-111064602D01*
X167011799Y-111014316D01*
X167000000Y-110955000D01*
X167000000Y-110645000D01*
X167011799Y-110585684D01*
X167045398Y-110535398D01*
X167095684Y-110501799D01*
X167155000Y-110490000D01*
X167580000Y-110490000D01*
X167639316Y-110501799D01*
G37*
G36*
X151850000Y-110625001D02*
G01*
X151250000Y-110625001D01*
X151250000Y-110375001D01*
X151850000Y-110375001D01*
X151850000Y-110625001D01*
G37*
G36*
X153650003Y-110625001D02*
G01*
X152750001Y-110625001D01*
X152750001Y-110375001D01*
X153650003Y-110375001D01*
X153650003Y-110625001D01*
G37*
G36*
X161061229Y-109892179D02*
G01*
X161113137Y-109926863D01*
X161147821Y-109978771D01*
X161160000Y-110040000D01*
X161160000Y-110360000D01*
X161147821Y-110421229D01*
X161113137Y-110473137D01*
X161061229Y-110507821D01*
X161000000Y-110520000D01*
X160605000Y-110520000D01*
X160543771Y-110507821D01*
X160491863Y-110473137D01*
X160457179Y-110421229D01*
X160445000Y-110360000D01*
X160445000Y-110040000D01*
X160457179Y-109978771D01*
X160491863Y-109926863D01*
X160543771Y-109892179D01*
X160605000Y-109880000D01*
X161000000Y-109880000D01*
X161061229Y-109892179D01*
G37*
G36*
X162256229Y-109892179D02*
G01*
X162308137Y-109926863D01*
X162342821Y-109978771D01*
X162355000Y-110040000D01*
X162355000Y-110360000D01*
X162342821Y-110421229D01*
X162308137Y-110473137D01*
X162256229Y-110507821D01*
X162195000Y-110520000D01*
X161800000Y-110520000D01*
X161738771Y-110507821D01*
X161686863Y-110473137D01*
X161652179Y-110421229D01*
X161640000Y-110360000D01*
X161640000Y-110040000D01*
X161652179Y-109978771D01*
X161686863Y-109926863D01*
X161738771Y-109892179D01*
X161800000Y-109880000D01*
X162195000Y-109880000D01*
X162256229Y-109892179D01*
G37*
G36*
X142034034Y-108805764D02*
G01*
X142067125Y-108827875D01*
X142089236Y-108860966D01*
X142097000Y-108900000D01*
X142097000Y-110400000D01*
X142089236Y-110439034D01*
X142067125Y-110472125D01*
X142034034Y-110494236D01*
X141995000Y-110502000D01*
X141195000Y-110502000D01*
X141155966Y-110494236D01*
X141122875Y-110472125D01*
X141100764Y-110439034D01*
X141093000Y-110400000D01*
X141093000Y-108900000D01*
X141100764Y-108860966D01*
X141122875Y-108827875D01*
X141155966Y-108805764D01*
X141195000Y-108798000D01*
X141995000Y-108798000D01*
X142034034Y-108805764D01*
G37*
G36*
X143304034Y-108805764D02*
G01*
X143337125Y-108827875D01*
X143359236Y-108860966D01*
X143367000Y-108900000D01*
X143367000Y-110400000D01*
X143359236Y-110439034D01*
X143337125Y-110472125D01*
X143304034Y-110494236D01*
X143265000Y-110502000D01*
X142465000Y-110502000D01*
X142425966Y-110494236D01*
X142392875Y-110472125D01*
X142370764Y-110439034D01*
X142363000Y-110400000D01*
X142363000Y-108900000D01*
X142370764Y-108860966D01*
X142392875Y-108827875D01*
X142425966Y-108805764D01*
X142465000Y-108798000D01*
X143265000Y-108798000D01*
X143304034Y-108805764D01*
G37*
G36*
X144574034Y-108805764D02*
G01*
X144607125Y-108827875D01*
X144629236Y-108860966D01*
X144637000Y-108900000D01*
X144637000Y-110400000D01*
X144629236Y-110439034D01*
X144607125Y-110472125D01*
X144574034Y-110494236D01*
X144535000Y-110502000D01*
X143735000Y-110502000D01*
X143695966Y-110494236D01*
X143662875Y-110472125D01*
X143640764Y-110439034D01*
X143633000Y-110400000D01*
X143633000Y-108900000D01*
X143640764Y-108860966D01*
X143662875Y-108827875D01*
X143695966Y-108805764D01*
X143735000Y-108798000D01*
X144535000Y-108798000D01*
X144574034Y-108805764D01*
G37*
G36*
X145844034Y-108805764D02*
G01*
X145877125Y-108827875D01*
X145899236Y-108860966D01*
X145907000Y-108900000D01*
X145907000Y-110400000D01*
X145899236Y-110439034D01*
X145877125Y-110472125D01*
X145844034Y-110494236D01*
X145805000Y-110502000D01*
X145005000Y-110502000D01*
X144965966Y-110494236D01*
X144932875Y-110472125D01*
X144910764Y-110439034D01*
X144903000Y-110400000D01*
X144903000Y-108900000D01*
X144910764Y-108860966D01*
X144932875Y-108827875D01*
X144965966Y-108805764D01*
X145005000Y-108798000D01*
X145805000Y-108798000D01*
X145844034Y-108805764D01*
G37*
G36*
X139914316Y-109711799D02*
G01*
X139964602Y-109745398D01*
X139998201Y-109795684D01*
X140010000Y-109855000D01*
X140010000Y-110280000D01*
X139998201Y-110339316D01*
X139964602Y-110389602D01*
X139914316Y-110423201D01*
X139855000Y-110435000D01*
X139545000Y-110435000D01*
X139485684Y-110423201D01*
X139435398Y-110389602D01*
X139401799Y-110339316D01*
X139390000Y-110280000D01*
X139390000Y-109855000D01*
X139401799Y-109795684D01*
X139435398Y-109745398D01*
X139485684Y-109711799D01*
X139545000Y-109700000D01*
X139855000Y-109700000D01*
X139914316Y-109711799D01*
G37*
G36*
X163991669Y-108762808D02*
G01*
X164037192Y-108808331D01*
X164061830Y-108867810D01*
X164061830Y-108870320D01*
X164066592Y-108881817D01*
X164133408Y-108881817D01*
X164138170Y-108870320D01*
X164138170Y-108867810D01*
X164162808Y-108808331D01*
X164208331Y-108762808D01*
X164267810Y-108738170D01*
X164332190Y-108738170D01*
X164391669Y-108762808D01*
X164437192Y-108808331D01*
X164461830Y-108867810D01*
X164461830Y-108932190D01*
X164437192Y-108991669D01*
X164391669Y-109037192D01*
X164332190Y-109061830D01*
X164329678Y-109061830D01*
X164318182Y-109066592D01*
X164318182Y-109133408D01*
X164329679Y-109138170D01*
X164332190Y-109138170D01*
X164391669Y-109162808D01*
X164437192Y-109208331D01*
X164461830Y-109267810D01*
X164461830Y-109332190D01*
X164437192Y-109391669D01*
X164391669Y-109437192D01*
X164332190Y-109461830D01*
X164329678Y-109461830D01*
X164318182Y-109466592D01*
X164318182Y-109533408D01*
X164329679Y-109538170D01*
X164332190Y-109538170D01*
X164391669Y-109562808D01*
X164437192Y-109608331D01*
X164461830Y-109667810D01*
X164461830Y-109732190D01*
X164437192Y-109791669D01*
X164391669Y-109837192D01*
X164332190Y-109861830D01*
X164329678Y-109861830D01*
X164318182Y-109866592D01*
X164318182Y-109933408D01*
X164329679Y-109938170D01*
X164332190Y-109938170D01*
X164391669Y-109962808D01*
X164437192Y-110008331D01*
X164461830Y-110067810D01*
X164461830Y-110132190D01*
X164437192Y-110191669D01*
X164391669Y-110237192D01*
X164332190Y-110261830D01*
X164267810Y-110261830D01*
X164208331Y-110237192D01*
X164162808Y-110191669D01*
X164138170Y-110132190D01*
X164138170Y-110129678D01*
X164133408Y-110118182D01*
X164066592Y-110118182D01*
X164061830Y-110129678D01*
X164061830Y-110132190D01*
X164037192Y-110191669D01*
X163991669Y-110237192D01*
X163932190Y-110261830D01*
X163867810Y-110261830D01*
X163808331Y-110237192D01*
X163762808Y-110191669D01*
X163738170Y-110132190D01*
X163738170Y-110067810D01*
X163762808Y-110008331D01*
X163808331Y-109962808D01*
X163867810Y-109938170D01*
X163870320Y-109938170D01*
X163881817Y-109933408D01*
X163881817Y-109866592D01*
X163918182Y-109866592D01*
X163918182Y-109933408D01*
X163929679Y-109938170D01*
X163932190Y-109938170D01*
X163991669Y-109962808D01*
X164037192Y-110008331D01*
X164061830Y-110067810D01*
X164061830Y-110070320D01*
X164066592Y-110081817D01*
X164133408Y-110081817D01*
X164138170Y-110070320D01*
X164138170Y-110067810D01*
X164162808Y-110008331D01*
X164208331Y-109962808D01*
X164267810Y-109938170D01*
X164270320Y-109938170D01*
X164281817Y-109933408D01*
X164281817Y-109866592D01*
X164270321Y-109861830D01*
X164267810Y-109861830D01*
X164208331Y-109837192D01*
X164162808Y-109791669D01*
X164138170Y-109732190D01*
X164138170Y-109729678D01*
X164133408Y-109718182D01*
X164066592Y-109718182D01*
X164061830Y-109729678D01*
X164061830Y-109732190D01*
X164037192Y-109791669D01*
X163991669Y-109837192D01*
X163932190Y-109861830D01*
X163929678Y-109861830D01*
X163918182Y-109866592D01*
X163881817Y-109866592D01*
X163870321Y-109861830D01*
X163867810Y-109861830D01*
X163808331Y-109837192D01*
X163762808Y-109791669D01*
X163738170Y-109732190D01*
X163738170Y-109667810D01*
X163762808Y-109608331D01*
X163808331Y-109562808D01*
X163867810Y-109538170D01*
X163870320Y-109538170D01*
X163881817Y-109533408D01*
X163881817Y-109466592D01*
X163918182Y-109466592D01*
X163918182Y-109533408D01*
X163929679Y-109538170D01*
X163932190Y-109538170D01*
X163991669Y-109562808D01*
X164037192Y-109608331D01*
X164061830Y-109667810D01*
X164061830Y-109670320D01*
X164066592Y-109681817D01*
X164133408Y-109681817D01*
X164138170Y-109670320D01*
X164138170Y-109667810D01*
X164162808Y-109608331D01*
X164208331Y-109562808D01*
X164267810Y-109538170D01*
X164270320Y-109538170D01*
X164281817Y-109533408D01*
X164281817Y-109466592D01*
X164270321Y-109461830D01*
X164267810Y-109461830D01*
X164208331Y-109437192D01*
X164162808Y-109391669D01*
X164138170Y-109332190D01*
X164138170Y-109329678D01*
X164133408Y-109318182D01*
X164066592Y-109318182D01*
X164061830Y-109329678D01*
X164061830Y-109332190D01*
X164037192Y-109391669D01*
X163991669Y-109437192D01*
X163932190Y-109461830D01*
X163929678Y-109461830D01*
X163918182Y-109466592D01*
X163881817Y-109466592D01*
X163870321Y-109461830D01*
X163867810Y-109461830D01*
X163808331Y-109437192D01*
X163762808Y-109391669D01*
X163738170Y-109332190D01*
X163738170Y-109267810D01*
X163762808Y-109208331D01*
X163808331Y-109162808D01*
X163867810Y-109138170D01*
X163870320Y-109138170D01*
X163881817Y-109133408D01*
X163881817Y-109066592D01*
X163918182Y-109066592D01*
X163918182Y-109133408D01*
X163929679Y-109138170D01*
X163932190Y-109138170D01*
X163991669Y-109162808D01*
X164037192Y-109208331D01*
X164061830Y-109267810D01*
X164061830Y-109270320D01*
X164066592Y-109281817D01*
X164133408Y-109281817D01*
X164138170Y-109270320D01*
X164138170Y-109267810D01*
X164162808Y-109208331D01*
X164208331Y-109162808D01*
X164267810Y-109138170D01*
X164270320Y-109138170D01*
X164281817Y-109133408D01*
X164281817Y-109066592D01*
X164270321Y-109061830D01*
X164267810Y-109061830D01*
X164208331Y-109037192D01*
X164162808Y-108991669D01*
X164138170Y-108932190D01*
X164138170Y-108929678D01*
X164133408Y-108918182D01*
X164066592Y-108918182D01*
X164061830Y-108929678D01*
X164061830Y-108932190D01*
X164037192Y-108991669D01*
X163991669Y-109037192D01*
X163932190Y-109061830D01*
X163929678Y-109061830D01*
X163918182Y-109066592D01*
X163881817Y-109066592D01*
X163870321Y-109061830D01*
X163867810Y-109061830D01*
X163808331Y-109037192D01*
X163762808Y-108991669D01*
X163738170Y-108932190D01*
X163738170Y-108867810D01*
X163762808Y-108808331D01*
X163808331Y-108762808D01*
X163867810Y-108738170D01*
X163932190Y-108738170D01*
X163991669Y-108762808D01*
G37*
G36*
X149511230Y-109592179D02*
G01*
X149563138Y-109626863D01*
X149597822Y-109678771D01*
X149610001Y-109740000D01*
X149610001Y-110060000D01*
X149597822Y-110121229D01*
X149563138Y-110173137D01*
X149511230Y-110207821D01*
X149450001Y-110220000D01*
X149055001Y-110220000D01*
X148993772Y-110207821D01*
X148941864Y-110173137D01*
X148907180Y-110121229D01*
X148895001Y-110060000D01*
X148895001Y-109740000D01*
X148907180Y-109678771D01*
X148941864Y-109626863D01*
X148993772Y-109592179D01*
X149055001Y-109580000D01*
X149450001Y-109580000D01*
X149511230Y-109592179D01*
G37*
G36*
X150706230Y-109592179D02*
G01*
X150758138Y-109626863D01*
X150792822Y-109678771D01*
X150805001Y-109740000D01*
X150805001Y-110060000D01*
X150792822Y-110121229D01*
X150758138Y-110173137D01*
X150706230Y-110207821D01*
X150645001Y-110220000D01*
X150250001Y-110220000D01*
X150188772Y-110207821D01*
X150136864Y-110173137D01*
X150102180Y-110121229D01*
X150090001Y-110060000D01*
X150090001Y-109740000D01*
X150102180Y-109678771D01*
X150136864Y-109626863D01*
X150188772Y-109592179D01*
X150250001Y-109580000D01*
X150645001Y-109580000D01*
X150706230Y-109592179D01*
G37*
G36*
X151850000Y-110124999D02*
G01*
X151250000Y-110124999D01*
X151250000Y-109874999D01*
X151850000Y-109874999D01*
X151850000Y-110124999D01*
G37*
G36*
X153650003Y-110124999D02*
G01*
X152750001Y-110124999D01*
X152750001Y-109874999D01*
X153650003Y-109874999D01*
X153650003Y-110124999D01*
G37*
G36*
X166504316Y-109201799D02*
G01*
X166554602Y-109235398D01*
X166588201Y-109285684D01*
X166600000Y-109345000D01*
X166600000Y-109655000D01*
X166588201Y-109714316D01*
X166554602Y-109764602D01*
X166504316Y-109798201D01*
X166445000Y-109810000D01*
X166020000Y-109810000D01*
X165960684Y-109798201D01*
X165910398Y-109764602D01*
X165876799Y-109714316D01*
X165865000Y-109655000D01*
X165865000Y-109345000D01*
X165876799Y-109285684D01*
X165910398Y-109235398D01*
X165960684Y-109201799D01*
X166020000Y-109190000D01*
X166445000Y-109190000D01*
X166504316Y-109201799D01*
G37*
G36*
X167639316Y-109201799D02*
G01*
X167689602Y-109235398D01*
X167723201Y-109285684D01*
X167735000Y-109345000D01*
X167735000Y-109655000D01*
X167723201Y-109714316D01*
X167689602Y-109764602D01*
X167639316Y-109798201D01*
X167580000Y-109810000D01*
X167155000Y-109810000D01*
X167095684Y-109798201D01*
X167045398Y-109764602D01*
X167011799Y-109714316D01*
X167000000Y-109655000D01*
X167000000Y-109345000D01*
X167011799Y-109285684D01*
X167045398Y-109235398D01*
X167095684Y-109201799D01*
X167155000Y-109190000D01*
X167580000Y-109190000D01*
X167639316Y-109201799D01*
G37*
G36*
X151850000Y-109625000D02*
G01*
X151250000Y-109625000D01*
X151250000Y-109375000D01*
X151850000Y-109375000D01*
X151850000Y-109625000D01*
G37*
G36*
X153650000Y-109625000D02*
G01*
X152350000Y-109625000D01*
X152350000Y-109375000D01*
X153650000Y-109375000D01*
X153650000Y-109625000D01*
G37*
G36*
X161061229Y-108892179D02*
G01*
X161113137Y-108926863D01*
X161147821Y-108978771D01*
X161160000Y-109040000D01*
X161160000Y-109360000D01*
X161147821Y-109421229D01*
X161113137Y-109473137D01*
X161061229Y-109507821D01*
X161000000Y-109520000D01*
X160605000Y-109520000D01*
X160543771Y-109507821D01*
X160491863Y-109473137D01*
X160457179Y-109421229D01*
X160445000Y-109360000D01*
X160445000Y-109040000D01*
X160457179Y-108978771D01*
X160491863Y-108926863D01*
X160543771Y-108892179D01*
X160605000Y-108880000D01*
X161000000Y-108880000D01*
X161061229Y-108892179D01*
G37*
G36*
X162256229Y-108892179D02*
G01*
X162308137Y-108926863D01*
X162342821Y-108978771D01*
X162355000Y-109040000D01*
X162355000Y-109360000D01*
X162342821Y-109421229D01*
X162308137Y-109473137D01*
X162256229Y-109507821D01*
X162195000Y-109520000D01*
X161800000Y-109520000D01*
X161738771Y-109507821D01*
X161686863Y-109473137D01*
X161652179Y-109421229D01*
X161640000Y-109360000D01*
X161640000Y-109040000D01*
X161652179Y-108978771D01*
X161686863Y-108926863D01*
X161738771Y-108892179D01*
X161800000Y-108880000D01*
X162195000Y-108880000D01*
X162256229Y-108892179D01*
G37*
G36*
X139914316Y-108576799D02*
G01*
X139964602Y-108610398D01*
X139998201Y-108660684D01*
X140010000Y-108720000D01*
X140010000Y-109145000D01*
X139998201Y-109204316D01*
X139964602Y-109254602D01*
X139914316Y-109288201D01*
X139855000Y-109300000D01*
X139545000Y-109300000D01*
X139485684Y-109288201D01*
X139435398Y-109254602D01*
X139401799Y-109204316D01*
X139390000Y-109145000D01*
X139390000Y-108720000D01*
X139401799Y-108660684D01*
X139435398Y-108610398D01*
X139485684Y-108576799D01*
X139545000Y-108565000D01*
X139855000Y-108565000D01*
X139914316Y-108576799D01*
G37*
G36*
X149211230Y-108592179D02*
G01*
X149263138Y-108626863D01*
X149297822Y-108678771D01*
X149310001Y-108740000D01*
X149310001Y-109060000D01*
X149297822Y-109121229D01*
X149263138Y-109173137D01*
X149211230Y-109207821D01*
X149150001Y-109220000D01*
X148755001Y-109220000D01*
X148693772Y-109207821D01*
X148641864Y-109173137D01*
X148607180Y-109121229D01*
X148595001Y-109060000D01*
X148595001Y-108740000D01*
X148607180Y-108678771D01*
X148641864Y-108626863D01*
X148693772Y-108592179D01*
X148755001Y-108580000D01*
X149150001Y-108580000D01*
X149211230Y-108592179D01*
G37*
G36*
X150406230Y-108592179D02*
G01*
X150458138Y-108626863D01*
X150492822Y-108678771D01*
X150505001Y-108740000D01*
X150505001Y-109060000D01*
X150492822Y-109121229D01*
X150458138Y-109173137D01*
X150406230Y-109207821D01*
X150345001Y-109220000D01*
X149950001Y-109220000D01*
X149888772Y-109207821D01*
X149836864Y-109173137D01*
X149802180Y-109121229D01*
X149790001Y-109060000D01*
X149790001Y-108740000D01*
X149802180Y-108678771D01*
X149836864Y-108626863D01*
X149888772Y-108592179D01*
X149950001Y-108580000D01*
X150345001Y-108580000D01*
X150406230Y-108592179D01*
G37*
G36*
X157950000Y-109205001D02*
G01*
X154550000Y-109205001D01*
X154550000Y-108225001D01*
X157950000Y-108225001D01*
X157950000Y-109205001D01*
G37*
G36*
X111631955Y-107676553D02*
G01*
X111768876Y-107733268D01*
X111892101Y-107815604D01*
X111996896Y-107920399D01*
X112079232Y-108043624D01*
X112135947Y-108180545D01*
X112164860Y-108325899D01*
X112164860Y-108474101D01*
X112135947Y-108619455D01*
X112079232Y-108756376D01*
X111996896Y-108879601D01*
X111892101Y-108984396D01*
X111768876Y-109066732D01*
X111631955Y-109123447D01*
X111486601Y-109152360D01*
X111338399Y-109152360D01*
X111193045Y-109123447D01*
X111056124Y-109066732D01*
X110932899Y-108984396D01*
X110828104Y-108879601D01*
X110745768Y-108756376D01*
X110689053Y-108619455D01*
X110660140Y-108474101D01*
X110660140Y-108325899D01*
X110689053Y-108180545D01*
X110745768Y-108043624D01*
X110828104Y-107920399D01*
X110932899Y-107815604D01*
X111056124Y-107733268D01*
X111193045Y-107676553D01*
X111338399Y-107647640D01*
X111486601Y-107647640D01*
X111631955Y-107676553D01*
G37*
G36*
X151850000Y-109125001D02*
G01*
X151250000Y-109125001D01*
X151250000Y-108875001D01*
X151850000Y-108875001D01*
X151850000Y-109125001D01*
G37*
G36*
X153650003Y-109125001D02*
G01*
X152750001Y-109125001D01*
X152750001Y-108875001D01*
X153650003Y-108875001D01*
X153650003Y-109125001D01*
G37*
G36*
X166436816Y-108201799D02*
G01*
X166487102Y-108235398D01*
X166520701Y-108285684D01*
X166532500Y-108345000D01*
X166532500Y-108655000D01*
X166520701Y-108714316D01*
X166487102Y-108764602D01*
X166436816Y-108798201D01*
X166377500Y-108810000D01*
X165952500Y-108810000D01*
X165893184Y-108798201D01*
X165842898Y-108764602D01*
X165809299Y-108714316D01*
X165797500Y-108655000D01*
X165797500Y-108345000D01*
X165809299Y-108285684D01*
X165842898Y-108235398D01*
X165893184Y-108201799D01*
X165952500Y-108190000D01*
X166377500Y-108190000D01*
X166436816Y-108201799D01*
G37*
G36*
X167571816Y-108201799D02*
G01*
X167622102Y-108235398D01*
X167655701Y-108285684D01*
X167667500Y-108345000D01*
X167667500Y-108655000D01*
X167655701Y-108714316D01*
X167622102Y-108764602D01*
X167571816Y-108798201D01*
X167512500Y-108810000D01*
X167087500Y-108810000D01*
X167028184Y-108798201D01*
X166977898Y-108764602D01*
X166944299Y-108714316D01*
X166932500Y-108655000D01*
X166932500Y-108345000D01*
X166944299Y-108285684D01*
X166977898Y-108235398D01*
X167028184Y-108201799D01*
X167087500Y-108190000D01*
X167512500Y-108190000D01*
X167571816Y-108201799D01*
G37*
G36*
X151850000Y-108624999D02*
G01*
X151250000Y-108624999D01*
X151250000Y-108374999D01*
X151850000Y-108374999D01*
X151850000Y-108624999D01*
G37*
G36*
X153650003Y-108624999D02*
G01*
X152750001Y-108624999D01*
X152750001Y-108374999D01*
X153650003Y-108374999D01*
X153650003Y-108624999D01*
G37*
G36*
X161061229Y-107892179D02*
G01*
X161113137Y-107926863D01*
X161147821Y-107978771D01*
X161160000Y-108040000D01*
X161160000Y-108360000D01*
X161147821Y-108421229D01*
X161113137Y-108473137D01*
X161061229Y-108507821D01*
X161000000Y-108520000D01*
X160605000Y-108520000D01*
X160543771Y-108507821D01*
X160491863Y-108473137D01*
X160457179Y-108421229D01*
X160445000Y-108360000D01*
X160445000Y-108040000D01*
X160457179Y-107978771D01*
X160491863Y-107926863D01*
X160543771Y-107892179D01*
X160605000Y-107880000D01*
X161000000Y-107880000D01*
X161061229Y-107892179D01*
G37*
G36*
X162256229Y-107892179D02*
G01*
X162308137Y-107926863D01*
X162342821Y-107978771D01*
X162355000Y-108040000D01*
X162355000Y-108360000D01*
X162342821Y-108421229D01*
X162308137Y-108473137D01*
X162256229Y-108507821D01*
X162195000Y-108520000D01*
X161800000Y-108520000D01*
X161738771Y-108507821D01*
X161686863Y-108473137D01*
X161652179Y-108421229D01*
X161640000Y-108360000D01*
X161640000Y-108040000D01*
X161652179Y-107978771D01*
X161686863Y-107926863D01*
X161738771Y-107892179D01*
X161800000Y-107880000D01*
X162195000Y-107880000D01*
X162256229Y-107892179D01*
G37*
G36*
X149211230Y-107592179D02*
G01*
X149263138Y-107626863D01*
X149297822Y-107678771D01*
X149310001Y-107740000D01*
X149310001Y-108060000D01*
X149297822Y-108121229D01*
X149263138Y-108173137D01*
X149211230Y-108207821D01*
X149150001Y-108220000D01*
X148755001Y-108220000D01*
X148693772Y-108207821D01*
X148641864Y-108173137D01*
X148607180Y-108121229D01*
X148595001Y-108060000D01*
X148595001Y-107740000D01*
X148607180Y-107678771D01*
X148641864Y-107626863D01*
X148693772Y-107592179D01*
X148755001Y-107580000D01*
X149150001Y-107580000D01*
X149211230Y-107592179D01*
G37*
G36*
X150406230Y-107592179D02*
G01*
X150458138Y-107626863D01*
X150492822Y-107678771D01*
X150505001Y-107740000D01*
X150505001Y-108060000D01*
X150492822Y-108121229D01*
X150458138Y-108173137D01*
X150406230Y-108207821D01*
X150345001Y-108220000D01*
X149950001Y-108220000D01*
X149888772Y-108207821D01*
X149836864Y-108173137D01*
X149802180Y-108121229D01*
X149790001Y-108060000D01*
X149790001Y-107740000D01*
X149802180Y-107678771D01*
X149836864Y-107626863D01*
X149888772Y-107592179D01*
X149950001Y-107580000D01*
X150345001Y-107580000D01*
X150406230Y-107592179D01*
G37*
G36*
X153591548Y-106325804D02*
G01*
X153640048Y-106331431D01*
X153656619Y-106338747D01*
X153678388Y-106343078D01*
X153701691Y-106358648D01*
X153721229Y-106367275D01*
X153734573Y-106380619D01*
X153755439Y-106394561D01*
X153769380Y-106415426D01*
X153782724Y-106428770D01*
X153791349Y-106448306D01*
X153806922Y-106471612D01*
X153811252Y-106493382D01*
X153818568Y-106509951D01*
X153824193Y-106558439D01*
X153825001Y-106562499D01*
X153825001Y-107037499D01*
X153824193Y-107041558D01*
X153818568Y-107090046D01*
X153811252Y-107106613D01*
X153806922Y-107128386D01*
X153791348Y-107151693D01*
X153782724Y-107171227D01*
X153769382Y-107184568D01*
X153755439Y-107205437D01*
X153734570Y-107219380D01*
X153721229Y-107232722D01*
X153701695Y-107241346D01*
X153678388Y-107256920D01*
X153656615Y-107261250D01*
X153640048Y-107268566D01*
X153591561Y-107274191D01*
X153587501Y-107274999D01*
X152987501Y-107274999D01*
X152983442Y-107274191D01*
X152934953Y-107268566D01*
X152918384Y-107261250D01*
X152896614Y-107256920D01*
X152873308Y-107241347D01*
X152853772Y-107232722D01*
X152840428Y-107219378D01*
X152819563Y-107205437D01*
X152805621Y-107184571D01*
X152792277Y-107171227D01*
X152783650Y-107151689D01*
X152768080Y-107128386D01*
X152763749Y-107106617D01*
X152756433Y-107090046D01*
X152750806Y-107041547D01*
X152750001Y-107037499D01*
X152750001Y-106562499D01*
X152750805Y-106558452D01*
X152756433Y-106509951D01*
X152763750Y-106493378D01*
X152768080Y-106471612D01*
X152783649Y-106448310D01*
X152792277Y-106428770D01*
X152805623Y-106415423D01*
X152819563Y-106394561D01*
X152840425Y-106380621D01*
X152853772Y-106367275D01*
X152873312Y-106358647D01*
X152896614Y-106343078D01*
X152918380Y-106338748D01*
X152934953Y-106331431D01*
X152983453Y-106325804D01*
X152987501Y-106324999D01*
X153587501Y-106324999D01*
X153591548Y-106325804D01*
G37*
G36*
X155316548Y-106325804D02*
G01*
X155365048Y-106331431D01*
X155381619Y-106338747D01*
X155403388Y-106343078D01*
X155426691Y-106358648D01*
X155446229Y-106367275D01*
X155459573Y-106380619D01*
X155480439Y-106394561D01*
X155494380Y-106415426D01*
X155507724Y-106428770D01*
X155516349Y-106448306D01*
X155531922Y-106471612D01*
X155536252Y-106493382D01*
X155543568Y-106509951D01*
X155549193Y-106558439D01*
X155550001Y-106562499D01*
X155550001Y-107037499D01*
X155549193Y-107041558D01*
X155543568Y-107090046D01*
X155536252Y-107106613D01*
X155531922Y-107128386D01*
X155516348Y-107151693D01*
X155507724Y-107171227D01*
X155494382Y-107184568D01*
X155480439Y-107205437D01*
X155459570Y-107219380D01*
X155446229Y-107232722D01*
X155426695Y-107241346D01*
X155403388Y-107256920D01*
X155381615Y-107261250D01*
X155365048Y-107268566D01*
X155316561Y-107274191D01*
X155312501Y-107274999D01*
X154712501Y-107274999D01*
X154708442Y-107274191D01*
X154659953Y-107268566D01*
X154643384Y-107261250D01*
X154621614Y-107256920D01*
X154598308Y-107241347D01*
X154578772Y-107232722D01*
X154565428Y-107219378D01*
X154544563Y-107205437D01*
X154530621Y-107184571D01*
X154517277Y-107171227D01*
X154508650Y-107151689D01*
X154493080Y-107128386D01*
X154488749Y-107106617D01*
X154481433Y-107090046D01*
X154475806Y-107041547D01*
X154475001Y-107037499D01*
X154475001Y-106562499D01*
X154475805Y-106558452D01*
X154481433Y-106509951D01*
X154488750Y-106493378D01*
X154493080Y-106471612D01*
X154508649Y-106448310D01*
X154517277Y-106428770D01*
X154530623Y-106415423D01*
X154544563Y-106394561D01*
X154565425Y-106380621D01*
X154578772Y-106367275D01*
X154598312Y-106358647D01*
X154621614Y-106343078D01*
X154643380Y-106338748D01*
X154659953Y-106331431D01*
X154708453Y-106325804D01*
X154712501Y-106324999D01*
X155312501Y-106324999D01*
X155316548Y-106325804D01*
G37*
G36*
X145564034Y-103780764D02*
G01*
X145597125Y-103802875D01*
X145619236Y-103835966D01*
X145627000Y-103875000D01*
X145627000Y-107125000D01*
X145619236Y-107164034D01*
X145597125Y-107197125D01*
X145564034Y-107219236D01*
X145525000Y-107227000D01*
X141475000Y-107227000D01*
X141435966Y-107219236D01*
X141402875Y-107197125D01*
X141380764Y-107164034D01*
X141373000Y-107125000D01*
X141373000Y-103875000D01*
X141380764Y-103835966D01*
X141402875Y-103802875D01*
X141435966Y-103780764D01*
X141475000Y-103773000D01*
X145525000Y-103773000D01*
X145564034Y-103780764D01*
G37*
G36*
X112105534Y-105651764D02*
G01*
X112138625Y-105673875D01*
X112160736Y-105706966D01*
X112168500Y-105746000D01*
X112168500Y-107054000D01*
X112160736Y-107093034D01*
X112138625Y-107126125D01*
X112105534Y-107148236D01*
X112066500Y-107156000D01*
X110758500Y-107156000D01*
X110719466Y-107148236D01*
X110686375Y-107126125D01*
X110664264Y-107093034D01*
X110656500Y-107054000D01*
X110656500Y-105746000D01*
X110664264Y-105706966D01*
X110686375Y-105673875D01*
X110719466Y-105651764D01*
X110758500Y-105644000D01*
X112066500Y-105644000D01*
X112105534Y-105651764D01*
G37*
G36*
X128261229Y-104292179D02*
G01*
X128313137Y-104326863D01*
X128347821Y-104378771D01*
X128360000Y-104440000D01*
X128360000Y-104760000D01*
X128347821Y-104821229D01*
X128313137Y-104873137D01*
X128261229Y-104907821D01*
X128200000Y-104920000D01*
X127805000Y-104920000D01*
X127743771Y-104907821D01*
X127691863Y-104873137D01*
X127657179Y-104821229D01*
X127645000Y-104760000D01*
X127645000Y-104440000D01*
X127657179Y-104378771D01*
X127691863Y-104326863D01*
X127743771Y-104292179D01*
X127805000Y-104280000D01*
X128200000Y-104280000D01*
X128261229Y-104292179D01*
G37*
G36*
X129456229Y-104292179D02*
G01*
X129508137Y-104326863D01*
X129542821Y-104378771D01*
X129555000Y-104440000D01*
X129555000Y-104760000D01*
X129542821Y-104821229D01*
X129508137Y-104873137D01*
X129456229Y-104907821D01*
X129395000Y-104920000D01*
X129000000Y-104920000D01*
X128938771Y-104907821D01*
X128886863Y-104873137D01*
X128852179Y-104821229D01*
X128840000Y-104760000D01*
X128840000Y-104440000D01*
X128852179Y-104378771D01*
X128886863Y-104326863D01*
X128938771Y-104292179D01*
X129000000Y-104280000D01*
X129395000Y-104280000D01*
X129456229Y-104292179D01*
G37*
G36*
X128261229Y-103192179D02*
G01*
X128313137Y-103226863D01*
X128347821Y-103278771D01*
X128360000Y-103340000D01*
X128360000Y-103660000D01*
X128347821Y-103721229D01*
X128313137Y-103773137D01*
X128261229Y-103807821D01*
X128200000Y-103820000D01*
X127805000Y-103820000D01*
X127743771Y-103807821D01*
X127691863Y-103773137D01*
X127657179Y-103721229D01*
X127645000Y-103660000D01*
X127645000Y-103340000D01*
X127657179Y-103278771D01*
X127691863Y-103226863D01*
X127743771Y-103192179D01*
X127805000Y-103180000D01*
X128200000Y-103180000D01*
X128261229Y-103192179D01*
G37*
G36*
X129456229Y-103192179D02*
G01*
X129508137Y-103226863D01*
X129542821Y-103278771D01*
X129555000Y-103340000D01*
X129555000Y-103660000D01*
X129542821Y-103721229D01*
X129508137Y-103773137D01*
X129456229Y-103807821D01*
X129395000Y-103820000D01*
X129000000Y-103820000D01*
X128938771Y-103807821D01*
X128886863Y-103773137D01*
X128852179Y-103721229D01*
X128840000Y-103660000D01*
X128840000Y-103340000D01*
X128852179Y-103278771D01*
X128886863Y-103226863D01*
X128938771Y-103192179D01*
X129000000Y-103180000D01*
X129395000Y-103180000D01*
X129456229Y-103192179D01*
G37*
G36*
X128261229Y-101892179D02*
G01*
X128313137Y-101926863D01*
X128347821Y-101978771D01*
X128360000Y-102040000D01*
X128360000Y-102360000D01*
X128347821Y-102421229D01*
X128313137Y-102473137D01*
X128261229Y-102507821D01*
X128200000Y-102520000D01*
X127805000Y-102520000D01*
X127743771Y-102507821D01*
X127691863Y-102473137D01*
X127657179Y-102421229D01*
X127645000Y-102360000D01*
X127645000Y-102040000D01*
X127657179Y-101978771D01*
X127691863Y-101926863D01*
X127743771Y-101892179D01*
X127805000Y-101880000D01*
X128200000Y-101880000D01*
X128261229Y-101892179D01*
G37*
G36*
X129456229Y-101892179D02*
G01*
X129508137Y-101926863D01*
X129542821Y-101978771D01*
X129555000Y-102040000D01*
X129555000Y-102360000D01*
X129542821Y-102421229D01*
X129508137Y-102473137D01*
X129456229Y-102507821D01*
X129395000Y-102520000D01*
X129000000Y-102520000D01*
X128938771Y-102507821D01*
X128886863Y-102473137D01*
X128852179Y-102421229D01*
X128840000Y-102360000D01*
X128840000Y-102040000D01*
X128852179Y-101978771D01*
X128886863Y-101926863D01*
X128938771Y-101892179D01*
X129000000Y-101880000D01*
X129395000Y-101880000D01*
X129456229Y-101892179D01*
G37*
G36*
X112244903Y-101811418D02*
G01*
X112293566Y-101843934D01*
X112326082Y-101892597D01*
X112337500Y-101950000D01*
X112337500Y-102250000D01*
X112326082Y-102307403D01*
X112293566Y-102356066D01*
X112244903Y-102388582D01*
X112187500Y-102400000D01*
X111012500Y-102400000D01*
X110955097Y-102388582D01*
X110906434Y-102356066D01*
X110873918Y-102307403D01*
X110862500Y-102250000D01*
X110862500Y-101950000D01*
X110873918Y-101892597D01*
X110906434Y-101843934D01*
X110955097Y-101811418D01*
X111012500Y-101800000D01*
X112187500Y-101800000D01*
X112244903Y-101811418D01*
G37*
G36*
X142034034Y-100505764D02*
G01*
X142067125Y-100527875D01*
X142089236Y-100560966D01*
X142097000Y-100600000D01*
X142097000Y-102100000D01*
X142089236Y-102139034D01*
X142067125Y-102172125D01*
X142034034Y-102194236D01*
X141995000Y-102202000D01*
X141195000Y-102202000D01*
X141155966Y-102194236D01*
X141122875Y-102172125D01*
X141100764Y-102139034D01*
X141093000Y-102100000D01*
X141093000Y-100600000D01*
X141100764Y-100560966D01*
X141122875Y-100527875D01*
X141155966Y-100505764D01*
X141195000Y-100498000D01*
X141995000Y-100498000D01*
X142034034Y-100505764D01*
G37*
G36*
X143304034Y-100505764D02*
G01*
X143337125Y-100527875D01*
X143359236Y-100560966D01*
X143367000Y-100600000D01*
X143367000Y-102100000D01*
X143359236Y-102139034D01*
X143337125Y-102172125D01*
X143304034Y-102194236D01*
X143265000Y-102202000D01*
X142465000Y-102202000D01*
X142425966Y-102194236D01*
X142392875Y-102172125D01*
X142370764Y-102139034D01*
X142363000Y-102100000D01*
X142363000Y-100600000D01*
X142370764Y-100560966D01*
X142392875Y-100527875D01*
X142425966Y-100505764D01*
X142465000Y-100498000D01*
X143265000Y-100498000D01*
X143304034Y-100505764D01*
G37*
G36*
X144574034Y-100505764D02*
G01*
X144607125Y-100527875D01*
X144629236Y-100560966D01*
X144637000Y-100600000D01*
X144637000Y-102100000D01*
X144629236Y-102139034D01*
X144607125Y-102172125D01*
X144574034Y-102194236D01*
X144535000Y-102202000D01*
X143735000Y-102202000D01*
X143695966Y-102194236D01*
X143662875Y-102172125D01*
X143640764Y-102139034D01*
X143633000Y-102100000D01*
X143633000Y-100600000D01*
X143640764Y-100560966D01*
X143662875Y-100527875D01*
X143695966Y-100505764D01*
X143735000Y-100498000D01*
X144535000Y-100498000D01*
X144574034Y-100505764D01*
G37*
G36*
X145844034Y-100505764D02*
G01*
X145877125Y-100527875D01*
X145899236Y-100560966D01*
X145907000Y-100600000D01*
X145907000Y-102100000D01*
X145899236Y-102139034D01*
X145877125Y-102172125D01*
X145844034Y-102194236D01*
X145805000Y-102202000D01*
X145005000Y-102202000D01*
X144965966Y-102194236D01*
X144932875Y-102172125D01*
X144910764Y-102139034D01*
X144903000Y-102100000D01*
X144903000Y-100600000D01*
X144910764Y-100560966D01*
X144932875Y-100527875D01*
X144965966Y-100505764D01*
X145005000Y-100498000D01*
X145805000Y-100498000D01*
X145844034Y-100505764D01*
G37*
G36*
X110369903Y-100861418D02*
G01*
X110418566Y-100893934D01*
X110451082Y-100942597D01*
X110462500Y-101000000D01*
X110462500Y-101300000D01*
X110451082Y-101357403D01*
X110418566Y-101406066D01*
X110369903Y-101438582D01*
X110312500Y-101450000D01*
X109137500Y-101450000D01*
X109080097Y-101438582D01*
X109031434Y-101406066D01*
X108998918Y-101357403D01*
X108987500Y-101300000D01*
X108987500Y-101000000D01*
X108998918Y-100942597D01*
X109031434Y-100893934D01*
X109080097Y-100861418D01*
X109137500Y-100850000D01*
X110312500Y-100850000D01*
X110369903Y-100861418D01*
G37*
G36*
X112244903Y-99911418D02*
G01*
X112293566Y-99943934D01*
X112326082Y-99992597D01*
X112337500Y-100050000D01*
X112337500Y-100350000D01*
X112326082Y-100407403D01*
X112293566Y-100456066D01*
X112244903Y-100488582D01*
X112187500Y-100500000D01*
X111012500Y-100500000D01*
X110955097Y-100488582D01*
X110906434Y-100456066D01*
X110873918Y-100407403D01*
X110862500Y-100350000D01*
X110862500Y-100050000D01*
X110873918Y-99992597D01*
X110906434Y-99943934D01*
X110955097Y-99911418D01*
X111012500Y-99900000D01*
X112187500Y-99900000D01*
X112244903Y-99911418D01*
G37*
G36*
X141821229Y-99352179D02*
G01*
X141873137Y-99386863D01*
X141907821Y-99438771D01*
X141920000Y-99500000D01*
X141920000Y-99895000D01*
X141907821Y-99956229D01*
X141873137Y-100008137D01*
X141821229Y-100042821D01*
X141760000Y-100055000D01*
X141440000Y-100055000D01*
X141378771Y-100042821D01*
X141326863Y-100008137D01*
X141292179Y-99956229D01*
X141280000Y-99895000D01*
X141280000Y-99500000D01*
X141292179Y-99438771D01*
X141326863Y-99386863D01*
X141378771Y-99352179D01*
X141440000Y-99340000D01*
X141760000Y-99340000D01*
X141821229Y-99352179D01*
G37*
G36*
X110366816Y-98551799D02*
G01*
X110417102Y-98585398D01*
X110450701Y-98635684D01*
X110462500Y-98695000D01*
X110462500Y-99005000D01*
X110450701Y-99064316D01*
X110417102Y-99114602D01*
X110366816Y-99148201D01*
X110307500Y-99160000D01*
X109882500Y-99160000D01*
X109823184Y-99148201D01*
X109772898Y-99114602D01*
X109739299Y-99064316D01*
X109727500Y-99005000D01*
X109727500Y-98695000D01*
X109739299Y-98635684D01*
X109772898Y-98585398D01*
X109823184Y-98551799D01*
X109882500Y-98540000D01*
X110307500Y-98540000D01*
X110366816Y-98551799D01*
G37*
G36*
X111501816Y-98551799D02*
G01*
X111552102Y-98585398D01*
X111585701Y-98635684D01*
X111597500Y-98695000D01*
X111597500Y-99005000D01*
X111585701Y-99064316D01*
X111552102Y-99114602D01*
X111501816Y-99148201D01*
X111442500Y-99160000D01*
X111017500Y-99160000D01*
X110958184Y-99148201D01*
X110907898Y-99114602D01*
X110874299Y-99064316D01*
X110862500Y-99005000D01*
X110862500Y-98695000D01*
X110874299Y-98635684D01*
X110907898Y-98585398D01*
X110958184Y-98551799D01*
X111017500Y-98540000D01*
X111442500Y-98540000D01*
X111501816Y-98551799D01*
G37*
G36*
X141821229Y-98157179D02*
G01*
X141873137Y-98191863D01*
X141907821Y-98243771D01*
X141920000Y-98305000D01*
X141920000Y-98700000D01*
X141907821Y-98761229D01*
X141873137Y-98813137D01*
X141821229Y-98847821D01*
X141760000Y-98860000D01*
X141440000Y-98860000D01*
X141378771Y-98847821D01*
X141326863Y-98813137D01*
X141292179Y-98761229D01*
X141280000Y-98700000D01*
X141280000Y-98305000D01*
X141292179Y-98243771D01*
X141326863Y-98191863D01*
X141378771Y-98157179D01*
X141440000Y-98145000D01*
X141760000Y-98145000D01*
X141821229Y-98157179D01*
G37*
G36*
X112675000Y-96975000D02*
G01*
X111325000Y-96975000D01*
X111325000Y-95625000D01*
X112675000Y-95625000D01*
X112675000Y-96975000D01*
G37*
G36*
X110195942Y-95654065D02*
G01*
X110318193Y-95704703D01*
X110428215Y-95778218D01*
X110521782Y-95871785D01*
X110595297Y-95981807D01*
X110645935Y-96104058D01*
X110671750Y-96233838D01*
X110671750Y-96366162D01*
X110645935Y-96495942D01*
X110595297Y-96618193D01*
X110521782Y-96728215D01*
X110428215Y-96821782D01*
X110318193Y-96895297D01*
X110195942Y-96945935D01*
X110066162Y-96971750D01*
X109933838Y-96971750D01*
X109804058Y-96945935D01*
X109681807Y-96895297D01*
X109571785Y-96821782D01*
X109478218Y-96728215D01*
X109404703Y-96618193D01*
X109354065Y-96495942D01*
X109328250Y-96366162D01*
X109328250Y-96233838D01*
X109354065Y-96104058D01*
X109404703Y-95981807D01*
X109478218Y-95871785D01*
X109571785Y-95778218D01*
X109681807Y-95704703D01*
X109804058Y-95654065D01*
X109933838Y-95628250D01*
X110066162Y-95628250D01*
X110195942Y-95654065D01*
G37*
G36*
X166919372Y-94689739D02*
G01*
X166992847Y-94732160D01*
X167052840Y-94792153D01*
X167095261Y-94865628D01*
X167117220Y-94947579D01*
X167117220Y-95032421D01*
X167095261Y-95114372D01*
X167052840Y-95187847D01*
X166992847Y-95247840D01*
X166919372Y-95290261D01*
X166837421Y-95312220D01*
X166752579Y-95312220D01*
X166670628Y-95290261D01*
X166597153Y-95247840D01*
X166537160Y-95187847D01*
X166494739Y-95114372D01*
X166472780Y-95032421D01*
X166472780Y-94947579D01*
X166494739Y-94865628D01*
X166537160Y-94792153D01*
X166597153Y-94732160D01*
X166670628Y-94689739D01*
X166752579Y-94667780D01*
X166837421Y-94667780D01*
X166919372Y-94689739D01*
G37*
G36*
X110195942Y-93654065D02*
G01*
X110318193Y-93704703D01*
X110428215Y-93778218D01*
X110521782Y-93871785D01*
X110595297Y-93981807D01*
X110645935Y-94104058D01*
X110671750Y-94233838D01*
X110671750Y-94366162D01*
X110645935Y-94495942D01*
X110595297Y-94618193D01*
X110521782Y-94728215D01*
X110428215Y-94821782D01*
X110318193Y-94895297D01*
X110195942Y-94945935D01*
X110066162Y-94971750D01*
X109933838Y-94971750D01*
X109804058Y-94945935D01*
X109681807Y-94895297D01*
X109571785Y-94821782D01*
X109478218Y-94728215D01*
X109404703Y-94618193D01*
X109354065Y-94495942D01*
X109328250Y-94366162D01*
X109328250Y-94233838D01*
X109354065Y-94104058D01*
X109404703Y-93981807D01*
X109478218Y-93871785D01*
X109571785Y-93778218D01*
X109681807Y-93704703D01*
X109804058Y-93654065D01*
X109933838Y-93628250D01*
X110066162Y-93628250D01*
X110195942Y-93654065D01*
G37*
G36*
X112195942Y-93654065D02*
G01*
X112318193Y-93704703D01*
X112428215Y-93778218D01*
X112521782Y-93871785D01*
X112595297Y-93981807D01*
X112645935Y-94104058D01*
X112671750Y-94233838D01*
X112671750Y-94366162D01*
X112645935Y-94495942D01*
X112595297Y-94618193D01*
X112521782Y-94728215D01*
X112428215Y-94821782D01*
X112318193Y-94895297D01*
X112195942Y-94945935D01*
X112066162Y-94971750D01*
X111933838Y-94971750D01*
X111804058Y-94945935D01*
X111681807Y-94895297D01*
X111571785Y-94821782D01*
X111478218Y-94728215D01*
X111404703Y-94618193D01*
X111354065Y-94495942D01*
X111328250Y-94366162D01*
X111328250Y-94233838D01*
X111354065Y-94104058D01*
X111404703Y-93981807D01*
X111478218Y-93871785D01*
X111571785Y-93778218D01*
X111681807Y-93704703D01*
X111804058Y-93654065D01*
X111933838Y-93628250D01*
X112066162Y-93628250D01*
X112195942Y-93654065D01*
G37*
G36*
X110195942Y-91654065D02*
G01*
X110318193Y-91704703D01*
X110428215Y-91778218D01*
X110521782Y-91871785D01*
X110595297Y-91981807D01*
X110645935Y-92104058D01*
X110671750Y-92233838D01*
X110671750Y-92366162D01*
X110645935Y-92495942D01*
X110595297Y-92618193D01*
X110521782Y-92728215D01*
X110428215Y-92821782D01*
X110318193Y-92895297D01*
X110195942Y-92945935D01*
X110066162Y-92971750D01*
X109933838Y-92971750D01*
X109804058Y-92945935D01*
X109681807Y-92895297D01*
X109571785Y-92821782D01*
X109478218Y-92728215D01*
X109404703Y-92618193D01*
X109354065Y-92495942D01*
X109328250Y-92366162D01*
X109328250Y-92233838D01*
X109354065Y-92104058D01*
X109404703Y-91981807D01*
X109478218Y-91871785D01*
X109571785Y-91778218D01*
X109681807Y-91704703D01*
X109804058Y-91654065D01*
X109933838Y-91628250D01*
X110066162Y-91628250D01*
X110195942Y-91654065D01*
G37*
G36*
X112195942Y-91654065D02*
G01*
X112318193Y-91704703D01*
X112428215Y-91778218D01*
X112521782Y-91871785D01*
X112595297Y-91981807D01*
X112645935Y-92104058D01*
X112671750Y-92233838D01*
X112671750Y-92366162D01*
X112645935Y-92495942D01*
X112595297Y-92618193D01*
X112521782Y-92728215D01*
X112428215Y-92821782D01*
X112318193Y-92895297D01*
X112195942Y-92945935D01*
X112066162Y-92971750D01*
X111933838Y-92971750D01*
X111804058Y-92945935D01*
X111681807Y-92895297D01*
X111571785Y-92821782D01*
X111478218Y-92728215D01*
X111404703Y-92618193D01*
X111354065Y-92495942D01*
X111328250Y-92366162D01*
X111328250Y-92233838D01*
X111354065Y-92104058D01*
X111404703Y-91981807D01*
X111478218Y-91871785D01*
X111571785Y-91778218D01*
X111681807Y-91704703D01*
X111804058Y-91654065D01*
X111933838Y-91628250D01*
X112066162Y-91628250D01*
X112195942Y-91654065D01*
G37*
G36*
X110195942Y-89654065D02*
G01*
X110318193Y-89704703D01*
X110428215Y-89778218D01*
X110521782Y-89871785D01*
X110595297Y-89981807D01*
X110645935Y-90104058D01*
X110671750Y-90233838D01*
X110671750Y-90366162D01*
X110645935Y-90495942D01*
X110595297Y-90618193D01*
X110521782Y-90728215D01*
X110428215Y-90821782D01*
X110318193Y-90895297D01*
X110195942Y-90945935D01*
X110066162Y-90971750D01*
X109933838Y-90971750D01*
X109804058Y-90945935D01*
X109681807Y-90895297D01*
X109571785Y-90821782D01*
X109478218Y-90728215D01*
X109404703Y-90618193D01*
X109354065Y-90495942D01*
X109328250Y-90366162D01*
X109328250Y-90233838D01*
X109354065Y-90104058D01*
X109404703Y-89981807D01*
X109478218Y-89871785D01*
X109571785Y-89778218D01*
X109681807Y-89704703D01*
X109804058Y-89654065D01*
X109933838Y-89628250D01*
X110066162Y-89628250D01*
X110195942Y-89654065D01*
G37*
G36*
X112195942Y-89654065D02*
G01*
X112318193Y-89704703D01*
X112428215Y-89778218D01*
X112521782Y-89871785D01*
X112595297Y-89981807D01*
X112645935Y-90104058D01*
X112671750Y-90233838D01*
X112671750Y-90366162D01*
X112645935Y-90495942D01*
X112595297Y-90618193D01*
X112521782Y-90728215D01*
X112428215Y-90821782D01*
X112318193Y-90895297D01*
X112195942Y-90945935D01*
X112066162Y-90971750D01*
X111933838Y-90971750D01*
X111804058Y-90945935D01*
X111681807Y-90895297D01*
X111571785Y-90821782D01*
X111478218Y-90728215D01*
X111404703Y-90618193D01*
X111354065Y-90495942D01*
X111328250Y-90366162D01*
X111328250Y-90233838D01*
X111354065Y-90104058D01*
X111404703Y-89981807D01*
X111478218Y-89871785D01*
X111571785Y-89778218D01*
X111681807Y-89704703D01*
X111804058Y-89654065D01*
X111933838Y-89628250D01*
X112066162Y-89628250D01*
X112195942Y-89654065D01*
G37*
G36*
X166919372Y-88909739D02*
G01*
X166992847Y-88952160D01*
X167052840Y-89012153D01*
X167095261Y-89085628D01*
X167117220Y-89167579D01*
X167117220Y-89252421D01*
X167095261Y-89334372D01*
X167052840Y-89407847D01*
X166992847Y-89467840D01*
X166919372Y-89510261D01*
X166837421Y-89532220D01*
X166752579Y-89532220D01*
X166670628Y-89510261D01*
X166597153Y-89467840D01*
X166537160Y-89407847D01*
X166494739Y-89334372D01*
X166472780Y-89252421D01*
X166472780Y-89167579D01*
X166494739Y-89085628D01*
X166537160Y-89012153D01*
X166597153Y-88952160D01*
X166670628Y-88909739D01*
X166752579Y-88887780D01*
X166837421Y-88887780D01*
X166919372Y-88909739D01*
G37*
G36*
X110195942Y-87654065D02*
G01*
X110318193Y-87704703D01*
X110428215Y-87778218D01*
X110521782Y-87871785D01*
X110595297Y-87981807D01*
X110645935Y-88104058D01*
X110671750Y-88233838D01*
X110671750Y-88366162D01*
X110645935Y-88495942D01*
X110595297Y-88618193D01*
X110521782Y-88728215D01*
X110428215Y-88821782D01*
X110318193Y-88895297D01*
X110195942Y-88945935D01*
X110066162Y-88971750D01*
X109933838Y-88971750D01*
X109804058Y-88945935D01*
X109681807Y-88895297D01*
X109571785Y-88821782D01*
X109478218Y-88728215D01*
X109404703Y-88618193D01*
X109354065Y-88495942D01*
X109328250Y-88366162D01*
X109328250Y-88233838D01*
X109354065Y-88104058D01*
X109404703Y-87981807D01*
X109478218Y-87871785D01*
X109571785Y-87778218D01*
X109681807Y-87704703D01*
X109804058Y-87654065D01*
X109933838Y-87628250D01*
X110066162Y-87628250D01*
X110195942Y-87654065D01*
G37*
G36*
X112195942Y-87654065D02*
G01*
X112318193Y-87704703D01*
X112428215Y-87778218D01*
X112521782Y-87871785D01*
X112595297Y-87981807D01*
X112645935Y-88104058D01*
X112671750Y-88233838D01*
X112671750Y-88366162D01*
X112645935Y-88495942D01*
X112595297Y-88618193D01*
X112521782Y-88728215D01*
X112428215Y-88821782D01*
X112318193Y-88895297D01*
X112195942Y-88945935D01*
X112066162Y-88971750D01*
X111933838Y-88971750D01*
X111804058Y-88945935D01*
X111681807Y-88895297D01*
X111571785Y-88821782D01*
X111478218Y-88728215D01*
X111404703Y-88618193D01*
X111354065Y-88495942D01*
X111328250Y-88366162D01*
X111328250Y-88233838D01*
X111354065Y-88104058D01*
X111404703Y-87981807D01*
X111478218Y-87871785D01*
X111571785Y-87778218D01*
X111681807Y-87704703D01*
X111804058Y-87654065D01*
X111933838Y-87628250D01*
X112066162Y-87628250D01*
X112195942Y-87654065D01*
G37*
G36*
X121361229Y-88192179D02*
G01*
X121413137Y-88226863D01*
X121447821Y-88278771D01*
X121460000Y-88340000D01*
X121460000Y-88660000D01*
X121447821Y-88721229D01*
X121413137Y-88773137D01*
X121361229Y-88807821D01*
X121300000Y-88820000D01*
X120905000Y-88820000D01*
X120843771Y-88807821D01*
X120791863Y-88773137D01*
X120757179Y-88721229D01*
X120745000Y-88660000D01*
X120745000Y-88340000D01*
X120757179Y-88278771D01*
X120791863Y-88226863D01*
X120843771Y-88192179D01*
X120905000Y-88180000D01*
X121300000Y-88180000D01*
X121361229Y-88192179D01*
G37*
G36*
X122556229Y-88192179D02*
G01*
X122608137Y-88226863D01*
X122642821Y-88278771D01*
X122655000Y-88340000D01*
X122655000Y-88660000D01*
X122642821Y-88721229D01*
X122608137Y-88773137D01*
X122556229Y-88807821D01*
X122495000Y-88820000D01*
X122100000Y-88820000D01*
X122038771Y-88807821D01*
X121986863Y-88773137D01*
X121952179Y-88721229D01*
X121940000Y-88660000D01*
X121940000Y-88340000D01*
X121952179Y-88278771D01*
X121986863Y-88226863D01*
X122038771Y-88192179D01*
X122100000Y-88180000D01*
X122495000Y-88180000D01*
X122556229Y-88192179D01*
G37*
G36*
X124161446Y-87701228D02*
G01*
X124209298Y-87733202D01*
X124241272Y-87781054D01*
X124252500Y-87837500D01*
X124252500Y-88132500D01*
X124241272Y-88188946D01*
X124209298Y-88236798D01*
X124161446Y-88268772D01*
X124105000Y-88280000D01*
X123760000Y-88280000D01*
X123703554Y-88268772D01*
X123655702Y-88236798D01*
X123623728Y-88188946D01*
X123612500Y-88132500D01*
X123612500Y-87837500D01*
X123623728Y-87781054D01*
X123655702Y-87733202D01*
X123703554Y-87701228D01*
X123760000Y-87690000D01*
X124105000Y-87690000D01*
X124161446Y-87701228D01*
G37*
G36*
X120346816Y-86811799D02*
G01*
X120397102Y-86845398D01*
X120430701Y-86895684D01*
X120442500Y-86955000D01*
X120442500Y-87380000D01*
X120430701Y-87439316D01*
X120397102Y-87489602D01*
X120346816Y-87523201D01*
X120287500Y-87535000D01*
X119977500Y-87535000D01*
X119918184Y-87523201D01*
X119867898Y-87489602D01*
X119834299Y-87439316D01*
X119822500Y-87380000D01*
X119822500Y-86955000D01*
X119834299Y-86895684D01*
X119867898Y-86845398D01*
X119918184Y-86811799D01*
X119977500Y-86800000D01*
X120287500Y-86800000D01*
X120346816Y-86811799D01*
G37*
G36*
X125804316Y-86801799D02*
G01*
X125854602Y-86835398D01*
X125888201Y-86885684D01*
X125900000Y-86945000D01*
X125900000Y-87255000D01*
X125888201Y-87314316D01*
X125854602Y-87364602D01*
X125804316Y-87398201D01*
X125745000Y-87410000D01*
X125320000Y-87410000D01*
X125260684Y-87398201D01*
X125210398Y-87364602D01*
X125176799Y-87314316D01*
X125165000Y-87255000D01*
X125165000Y-86945000D01*
X125176799Y-86885684D01*
X125210398Y-86835398D01*
X125260684Y-86801799D01*
X125320000Y-86790000D01*
X125745000Y-86790000D01*
X125804316Y-86801799D01*
G37*
G36*
X126939316Y-86801799D02*
G01*
X126989602Y-86835398D01*
X127023201Y-86885684D01*
X127035000Y-86945000D01*
X127035000Y-87255000D01*
X127023201Y-87314316D01*
X126989602Y-87364602D01*
X126939316Y-87398201D01*
X126880000Y-87410000D01*
X126455000Y-87410000D01*
X126395684Y-87398201D01*
X126345398Y-87364602D01*
X126311799Y-87314316D01*
X126300000Y-87255000D01*
X126300000Y-86945000D01*
X126311799Y-86885684D01*
X126345398Y-86835398D01*
X126395684Y-86801799D01*
X126455000Y-86790000D01*
X126880000Y-86790000D01*
X126939316Y-86801799D01*
G37*
G36*
X124161446Y-86731228D02*
G01*
X124209298Y-86763202D01*
X124241272Y-86811054D01*
X124252500Y-86867500D01*
X124252500Y-87162500D01*
X124241272Y-87218946D01*
X124209298Y-87266798D01*
X124161446Y-87298772D01*
X124105000Y-87310000D01*
X123760000Y-87310000D01*
X123703554Y-87298772D01*
X123655702Y-87266798D01*
X123623728Y-87218946D01*
X123612500Y-87162500D01*
X123612500Y-86867500D01*
X123623728Y-86811054D01*
X123655702Y-86763202D01*
X123703554Y-86731228D01*
X123760000Y-86720000D01*
X124105000Y-86720000D01*
X124161446Y-86731228D01*
G37*
G36*
X121877780Y-86583594D02*
G01*
X121916406Y-86622220D01*
X121937310Y-86672687D01*
X121937310Y-86727313D01*
X121916406Y-86777780D01*
X121877780Y-86816406D01*
X121827313Y-86837310D01*
X121772687Y-86837310D01*
X121722220Y-86816406D01*
X121683594Y-86777780D01*
X121662690Y-86727313D01*
X121662690Y-86672687D01*
X121683594Y-86622220D01*
X121722220Y-86583594D01*
X121772687Y-86562690D01*
X121827313Y-86562690D01*
X121877780Y-86583594D01*
G37*
G36*
X122277780Y-86583594D02*
G01*
X122316406Y-86622220D01*
X122337310Y-86672687D01*
X122337310Y-86727313D01*
X122316406Y-86777780D01*
X122277780Y-86816406D01*
X122227313Y-86837310D01*
X122172687Y-86837310D01*
X122122220Y-86816406D01*
X122083594Y-86777780D01*
X122062690Y-86727313D01*
X122062690Y-86672687D01*
X122083594Y-86622220D01*
X122122220Y-86583594D01*
X122172687Y-86562690D01*
X122227313Y-86562690D01*
X122277780Y-86583594D01*
G37*
G36*
X121877780Y-86183594D02*
G01*
X121916406Y-86222220D01*
X121937310Y-86272687D01*
X121937310Y-86327313D01*
X121916406Y-86377780D01*
X121877780Y-86416406D01*
X121827313Y-86437310D01*
X121772687Y-86437310D01*
X121722220Y-86416406D01*
X121683594Y-86377780D01*
X121662690Y-86327313D01*
X121662690Y-86272687D01*
X121683594Y-86222220D01*
X121722220Y-86183594D01*
X121772687Y-86162690D01*
X121827313Y-86162690D01*
X121877780Y-86183594D01*
G37*
G36*
X122277780Y-86183594D02*
G01*
X122316406Y-86222220D01*
X122337310Y-86272687D01*
X122337310Y-86327313D01*
X122316406Y-86377780D01*
X122277780Y-86416406D01*
X122227313Y-86437310D01*
X122172687Y-86437310D01*
X122122220Y-86416406D01*
X122083594Y-86377780D01*
X122062690Y-86327313D01*
X122062690Y-86272687D01*
X122083594Y-86222220D01*
X122122220Y-86183594D01*
X122172687Y-86162690D01*
X122227313Y-86162690D01*
X122277780Y-86183594D01*
G37*
G36*
X120346816Y-85676799D02*
G01*
X120397102Y-85710398D01*
X120430701Y-85760684D01*
X120442500Y-85820000D01*
X120442500Y-86245000D01*
X120430701Y-86304316D01*
X120397102Y-86354602D01*
X120346816Y-86388201D01*
X120287500Y-86400000D01*
X119977500Y-86400000D01*
X119918184Y-86388201D01*
X119867898Y-86354602D01*
X119834299Y-86304316D01*
X119822500Y-86245000D01*
X119822500Y-85820000D01*
X119834299Y-85760684D01*
X119867898Y-85710398D01*
X119918184Y-85676799D01*
X119977500Y-85665000D01*
X120287500Y-85665000D01*
X120346816Y-85676799D01*
G37*
G36*
X124261229Y-85692179D02*
G01*
X124313137Y-85726863D01*
X124347821Y-85778771D01*
X124360000Y-85840000D01*
X124360000Y-86160000D01*
X124347821Y-86221229D01*
X124313137Y-86273137D01*
X124261229Y-86307821D01*
X124200000Y-86320000D01*
X123805000Y-86320000D01*
X123743771Y-86307821D01*
X123691863Y-86273137D01*
X123657179Y-86221229D01*
X123645000Y-86160000D01*
X123645000Y-85840000D01*
X123657179Y-85778771D01*
X123691863Y-85726863D01*
X123743771Y-85692179D01*
X123805000Y-85680000D01*
X124200000Y-85680000D01*
X124261229Y-85692179D01*
G37*
G36*
X125456229Y-85692179D02*
G01*
X125508137Y-85726863D01*
X125542821Y-85778771D01*
X125555000Y-85840000D01*
X125555000Y-86160000D01*
X125542821Y-86221229D01*
X125508137Y-86273137D01*
X125456229Y-86307821D01*
X125395000Y-86320000D01*
X125000000Y-86320000D01*
X124938771Y-86307821D01*
X124886863Y-86273137D01*
X124852179Y-86221229D01*
X124840000Y-86160000D01*
X124840000Y-85840000D01*
X124852179Y-85778771D01*
X124886863Y-85726863D01*
X124938771Y-85692179D01*
X125000000Y-85680000D01*
X125395000Y-85680000D01*
X125456229Y-85692179D01*
G37*
%LPD*%
M02*
