%TF.GenerationSoftware,KiCad,Pcbnew,10.0.0*%
%TF.CreationDate,2026-10-10T17:18:28-04:00*%
%TF.ProjectId,WSG_1.0,5753475f-312e-4302-9e6b-696361645f70,rev?*%
%TF.SameCoordinates,Original*%
%TF.FileFunction,Soldermask,Top*%
%TF.FilePolarity,Negative*%
%FSLAX46Y46*%
G04 Gerber Fmt 4.6, Leading zero omitted, Abs format (unit mm)*
G04 Created by KiCad (PCBNEW 10.0.0) date 2026-10-10 17:18:28*
%MOMM*%
%LPD*%
G01*
G04 APERTURE LIST*
G04 APERTURE END LIST*
G36*
X145600000Y-112800000D02*
G01*
X144600000Y-112800000D01*
X144600000Y-111800000D01*
X145600000Y-111800000D01*
X145600000Y-112800000D01*
G37*
G36*
X146971228Y-109352180D02*
G01*
X147023136Y-109386864D01*
X147057820Y-109438772D01*
X147069999Y-109500001D01*
X147069999Y-109895001D01*
X147057820Y-109956230D01*
X147023136Y-110008138D01*
X146971228Y-110042822D01*
X146909999Y-110055001D01*
X146589999Y-110055001D01*
X146528770Y-110042822D01*
X146476862Y-110008138D01*
X146442178Y-109956230D01*
X146429999Y-109895001D01*
X146429999Y-109500001D01*
X146442178Y-109438772D01*
X146476862Y-109386864D01*
X146528770Y-109352180D01*
X146589999Y-109340001D01*
X146909999Y-109340001D01*
X146971228Y-109352180D01*
G37*
G36*
X153661229Y-109392179D02*
G01*
X153713137Y-109426863D01*
X153747821Y-109478771D01*
X153760000Y-109540000D01*
X153760000Y-109860000D01*
X153747821Y-109921229D01*
X153713137Y-109973137D01*
X153661229Y-110007821D01*
X153600000Y-110020000D01*
X153205000Y-110020000D01*
X153143771Y-110007821D01*
X153091863Y-109973137D01*
X153057179Y-109921229D01*
X153045000Y-109860000D01*
X153045000Y-109540000D01*
X153057179Y-109478771D01*
X153091863Y-109426863D01*
X153143771Y-109392179D01*
X153205000Y-109380000D01*
X153600000Y-109380000D01*
X153661229Y-109392179D01*
G37*
G36*
X154856229Y-109392179D02*
G01*
X154908137Y-109426863D01*
X154942821Y-109478771D01*
X154955000Y-109540000D01*
X154955000Y-109860000D01*
X154942821Y-109921229D01*
X154908137Y-109973137D01*
X154856229Y-110007821D01*
X154795000Y-110020000D01*
X154400000Y-110020000D01*
X154338771Y-110007821D01*
X154286863Y-109973137D01*
X154252179Y-109921229D01*
X154240000Y-109860000D01*
X154240000Y-109540000D01*
X154252179Y-109478771D01*
X154286863Y-109426863D01*
X154338771Y-109392179D01*
X154400000Y-109380000D01*
X154795000Y-109380000D01*
X154856229Y-109392179D01*
G37*
G36*
X135821229Y-108952179D02*
G01*
X135873137Y-108986863D01*
X135907821Y-109038771D01*
X135920000Y-109100000D01*
X135920000Y-109495000D01*
X135907821Y-109556229D01*
X135873137Y-109608137D01*
X135821229Y-109642821D01*
X135760000Y-109655000D01*
X135440000Y-109655000D01*
X135378771Y-109642821D01*
X135326863Y-109608137D01*
X135292179Y-109556229D01*
X135280000Y-109495000D01*
X135280000Y-109100000D01*
X135292179Y-109038771D01*
X135326863Y-108986863D01*
X135378771Y-108952179D01*
X135440000Y-108940000D01*
X135760000Y-108940000D01*
X135821229Y-108952179D01*
G37*
G36*
X134814316Y-108711799D02*
G01*
X134864602Y-108745398D01*
X134898201Y-108795684D01*
X134910000Y-108855000D01*
X134910000Y-109280000D01*
X134898201Y-109339316D01*
X134864602Y-109389602D01*
X134814316Y-109423201D01*
X134755000Y-109435000D01*
X134445000Y-109435000D01*
X134385684Y-109423201D01*
X134335398Y-109389602D01*
X134301799Y-109339316D01*
X134290000Y-109280000D01*
X134290000Y-108855000D01*
X134301799Y-108795684D01*
X134335398Y-108745398D01*
X134385684Y-108711799D01*
X134445000Y-108700000D01*
X134755000Y-108700000D01*
X134814316Y-108711799D01*
G37*
G36*
X131514316Y-108611799D02*
G01*
X131564602Y-108645398D01*
X131598201Y-108695684D01*
X131610000Y-108755000D01*
X131610000Y-109180000D01*
X131598201Y-109239316D01*
X131564602Y-109289602D01*
X131514316Y-109323201D01*
X131455000Y-109335000D01*
X131145000Y-109335000D01*
X131085684Y-109323201D01*
X131035398Y-109289602D01*
X131001799Y-109239316D01*
X130990000Y-109180000D01*
X130990000Y-108755000D01*
X131001799Y-108695684D01*
X131035398Y-108645398D01*
X131085684Y-108611799D01*
X131145000Y-108600000D01*
X131455000Y-108600000D01*
X131514316Y-108611799D01*
G37*
G36*
X133314316Y-108579299D02*
G01*
X133364602Y-108612898D01*
X133398201Y-108663184D01*
X133410000Y-108722500D01*
X133410000Y-109147500D01*
X133398201Y-109206816D01*
X133364602Y-109257102D01*
X133314316Y-109290701D01*
X133255000Y-109302500D01*
X132945000Y-109302500D01*
X132885684Y-109290701D01*
X132835398Y-109257102D01*
X132801799Y-109206816D01*
X132790000Y-109147500D01*
X132790000Y-108722500D01*
X132801799Y-108663184D01*
X132835398Y-108612898D01*
X132885684Y-108579299D01*
X132945000Y-108567500D01*
X133255000Y-108567500D01*
X133314316Y-108579299D01*
G37*
G36*
X111631955Y-107676553D02*
G01*
X111768876Y-107733268D01*
X111892101Y-107815604D01*
X111996896Y-107920399D01*
X112079232Y-108043624D01*
X112135947Y-108180545D01*
X112164860Y-108325899D01*
X112164860Y-108474101D01*
X112135947Y-108619455D01*
X112079232Y-108756376D01*
X111996896Y-108879601D01*
X111892101Y-108984396D01*
X111768876Y-109066732D01*
X111631955Y-109123447D01*
X111486601Y-109152360D01*
X111338399Y-109152360D01*
X111193045Y-109123447D01*
X111056124Y-109066732D01*
X110932899Y-108984396D01*
X110828104Y-108879601D01*
X110745768Y-108756376D01*
X110689053Y-108619455D01*
X110660140Y-108474101D01*
X110660140Y-108325899D01*
X110689053Y-108180545D01*
X110745768Y-108043624D01*
X110828104Y-107920399D01*
X110932899Y-107815604D01*
X111056124Y-107733268D01*
X111193045Y-107676553D01*
X111338399Y-107647640D01*
X111486601Y-107647640D01*
X111631955Y-107676553D01*
G37*
G36*
X136814316Y-108411799D02*
G01*
X136864602Y-108445398D01*
X136898201Y-108495684D01*
X136910000Y-108555000D01*
X136910000Y-108980000D01*
X136898201Y-109039316D01*
X136864602Y-109089602D01*
X136814316Y-109123201D01*
X136755000Y-109135000D01*
X136445000Y-109135000D01*
X136385684Y-109123201D01*
X136335398Y-109089602D01*
X136301799Y-109039316D01*
X136290000Y-108980000D01*
X136290000Y-108555000D01*
X136301799Y-108495684D01*
X136335398Y-108445398D01*
X136385684Y-108411799D01*
X136445000Y-108400000D01*
X136755000Y-108400000D01*
X136814316Y-108411799D01*
G37*
G36*
X153661229Y-108392179D02*
G01*
X153713137Y-108426863D01*
X153747821Y-108478771D01*
X153760000Y-108540000D01*
X153760000Y-108860000D01*
X153747821Y-108921229D01*
X153713137Y-108973137D01*
X153661229Y-109007821D01*
X153600000Y-109020000D01*
X153205000Y-109020000D01*
X153143771Y-109007821D01*
X153091863Y-108973137D01*
X153057179Y-108921229D01*
X153045000Y-108860000D01*
X153045000Y-108540000D01*
X153057179Y-108478771D01*
X153091863Y-108426863D01*
X153143771Y-108392179D01*
X153205000Y-108380000D01*
X153600000Y-108380000D01*
X153661229Y-108392179D01*
G37*
G36*
X154856229Y-108392179D02*
G01*
X154908137Y-108426863D01*
X154942821Y-108478771D01*
X154955000Y-108540000D01*
X154955000Y-108860000D01*
X154942821Y-108921229D01*
X154908137Y-108973137D01*
X154856229Y-109007821D01*
X154795000Y-109020000D01*
X154400000Y-109020000D01*
X154338771Y-109007821D01*
X154286863Y-108973137D01*
X154252179Y-108921229D01*
X154240000Y-108860000D01*
X154240000Y-108540000D01*
X154252179Y-108478771D01*
X154286863Y-108426863D01*
X154338771Y-108392179D01*
X154400000Y-108380000D01*
X154795000Y-108380000D01*
X154856229Y-108392179D01*
G37*
G36*
X146971228Y-108157180D02*
G01*
X147023136Y-108191864D01*
X147057820Y-108243772D01*
X147069999Y-108305001D01*
X147069999Y-108700001D01*
X147057820Y-108761230D01*
X147023136Y-108813138D01*
X146971228Y-108847822D01*
X146909999Y-108860001D01*
X146589999Y-108860001D01*
X146528770Y-108847822D01*
X146476862Y-108813138D01*
X146442178Y-108761230D01*
X146429999Y-108700001D01*
X146429999Y-108305001D01*
X146442178Y-108243772D01*
X146476862Y-108191864D01*
X146528770Y-108157180D01*
X146589999Y-108145001D01*
X146909999Y-108145001D01*
X146971228Y-108157180D01*
G37*
G36*
X135821229Y-107757179D02*
G01*
X135873137Y-107791863D01*
X135907821Y-107843771D01*
X135920000Y-107905000D01*
X135920000Y-108300000D01*
X135907821Y-108361229D01*
X135873137Y-108413137D01*
X135821229Y-108447821D01*
X135760000Y-108460000D01*
X135440000Y-108460000D01*
X135378771Y-108447821D01*
X135326863Y-108413137D01*
X135292179Y-108361229D01*
X135280000Y-108300000D01*
X135280000Y-107905000D01*
X135292179Y-107843771D01*
X135326863Y-107791863D01*
X135378771Y-107757179D01*
X135440000Y-107745000D01*
X135760000Y-107745000D01*
X135821229Y-107757179D01*
G37*
G36*
X134814316Y-107576799D02*
G01*
X134864602Y-107610398D01*
X134898201Y-107660684D01*
X134910000Y-107720000D01*
X134910000Y-108145000D01*
X134898201Y-108204316D01*
X134864602Y-108254602D01*
X134814316Y-108288201D01*
X134755000Y-108300000D01*
X134445000Y-108300000D01*
X134385684Y-108288201D01*
X134335398Y-108254602D01*
X134301799Y-108204316D01*
X134290000Y-108145000D01*
X134290000Y-107720000D01*
X134301799Y-107660684D01*
X134335398Y-107610398D01*
X134385684Y-107576799D01*
X134445000Y-107565000D01*
X134755000Y-107565000D01*
X134814316Y-107576799D01*
G37*
G36*
X131514316Y-107476799D02*
G01*
X131564602Y-107510398D01*
X131598201Y-107560684D01*
X131610000Y-107620000D01*
X131610000Y-108045000D01*
X131598201Y-108104316D01*
X131564602Y-108154602D01*
X131514316Y-108188201D01*
X131455000Y-108200000D01*
X131145000Y-108200000D01*
X131085684Y-108188201D01*
X131035398Y-108154602D01*
X131001799Y-108104316D01*
X130990000Y-108045000D01*
X130990000Y-107620000D01*
X131001799Y-107560684D01*
X131035398Y-107510398D01*
X131085684Y-107476799D01*
X131145000Y-107465000D01*
X131455000Y-107465000D01*
X131514316Y-107476799D01*
G37*
G36*
X133314316Y-107444299D02*
G01*
X133364602Y-107477898D01*
X133398201Y-107528184D01*
X133410000Y-107587500D01*
X133410000Y-108012500D01*
X133398201Y-108071816D01*
X133364602Y-108122102D01*
X133314316Y-108155701D01*
X133255000Y-108167500D01*
X132945000Y-108167500D01*
X132885684Y-108155701D01*
X132835398Y-108122102D01*
X132801799Y-108071816D01*
X132790000Y-108012500D01*
X132790000Y-107587500D01*
X132801799Y-107528184D01*
X132835398Y-107477898D01*
X132885684Y-107444299D01*
X132945000Y-107432500D01*
X133255000Y-107432500D01*
X133314316Y-107444299D01*
G37*
G36*
X115561229Y-107437179D02*
G01*
X115613137Y-107471863D01*
X115647821Y-107523771D01*
X115660000Y-107585000D01*
X115660000Y-107905000D01*
X115647821Y-107966229D01*
X115613137Y-108018137D01*
X115561229Y-108052821D01*
X115500000Y-108065000D01*
X115105000Y-108065000D01*
X115043771Y-108052821D01*
X114991863Y-108018137D01*
X114957179Y-107966229D01*
X114945000Y-107905000D01*
X114945000Y-107585000D01*
X114957179Y-107523771D01*
X114991863Y-107471863D01*
X115043771Y-107437179D01*
X115105000Y-107425000D01*
X115500000Y-107425000D01*
X115561229Y-107437179D01*
G37*
G36*
X116756229Y-107437179D02*
G01*
X116808137Y-107471863D01*
X116842821Y-107523771D01*
X116855000Y-107585000D01*
X116855000Y-107905000D01*
X116842821Y-107966229D01*
X116808137Y-108018137D01*
X116756229Y-108052821D01*
X116695000Y-108065000D01*
X116300000Y-108065000D01*
X116238771Y-108052821D01*
X116186863Y-108018137D01*
X116152179Y-107966229D01*
X116140000Y-107905000D01*
X116140000Y-107585000D01*
X116152179Y-107523771D01*
X116186863Y-107471863D01*
X116238771Y-107437179D01*
X116300000Y-107425000D01*
X116695000Y-107425000D01*
X116756229Y-107437179D01*
G37*
G36*
X136814316Y-107276799D02*
G01*
X136864602Y-107310398D01*
X136898201Y-107360684D01*
X136910000Y-107420000D01*
X136910000Y-107845000D01*
X136898201Y-107904316D01*
X136864602Y-107954602D01*
X136814316Y-107988201D01*
X136755000Y-108000000D01*
X136445000Y-108000000D01*
X136385684Y-107988201D01*
X136335398Y-107954602D01*
X136301799Y-107904316D01*
X136290000Y-107845000D01*
X136290000Y-107420000D01*
X136301799Y-107360684D01*
X136335398Y-107310398D01*
X136385684Y-107276799D01*
X136445000Y-107265000D01*
X136755000Y-107265000D01*
X136814316Y-107276799D01*
G37*
G36*
X129421229Y-107052179D02*
G01*
X129473137Y-107086863D01*
X129507821Y-107138771D01*
X129520000Y-107200000D01*
X129520000Y-107595000D01*
X129507821Y-107656229D01*
X129473137Y-107708137D01*
X129421229Y-107742821D01*
X129360000Y-107755000D01*
X129040000Y-107755000D01*
X128978771Y-107742821D01*
X128926863Y-107708137D01*
X128892179Y-107656229D01*
X128880000Y-107595000D01*
X128880000Y-107200000D01*
X128892179Y-107138771D01*
X128926863Y-107086863D01*
X128978771Y-107052179D01*
X129040000Y-107040000D01*
X129360000Y-107040000D01*
X129421229Y-107052179D01*
G37*
G36*
X118822835Y-107234515D02*
G01*
X118863388Y-107261612D01*
X118890485Y-107302165D01*
X118900000Y-107350000D01*
X118900000Y-107600000D01*
X118890485Y-107647835D01*
X118863388Y-107688388D01*
X118822835Y-107715485D01*
X118775000Y-107725000D01*
X117400000Y-107725000D01*
X117352165Y-107715485D01*
X117311612Y-107688388D01*
X117284515Y-107647835D01*
X117275000Y-107600000D01*
X117275000Y-107350000D01*
X117284515Y-107302165D01*
X117311612Y-107261612D01*
X117352165Y-107234515D01*
X117400000Y-107225000D01*
X118775000Y-107225000D01*
X118822835Y-107234515D01*
G37*
G36*
X123047835Y-107234515D02*
G01*
X123088388Y-107261612D01*
X123115485Y-107302165D01*
X123125000Y-107350000D01*
X123125000Y-107600000D01*
X123115485Y-107647835D01*
X123088388Y-107688388D01*
X123047835Y-107715485D01*
X123000000Y-107725000D01*
X121625000Y-107725000D01*
X121577165Y-107715485D01*
X121536612Y-107688388D01*
X121509515Y-107647835D01*
X121500000Y-107600000D01*
X121500000Y-107350000D01*
X121509515Y-107302165D01*
X121536612Y-107261612D01*
X121577165Y-107234515D01*
X121625000Y-107225000D01*
X123000000Y-107225000D01*
X123047835Y-107234515D01*
G37*
G36*
X130414316Y-106711799D02*
G01*
X130464602Y-106745398D01*
X130498201Y-106795684D01*
X130510000Y-106855000D01*
X130510000Y-107280000D01*
X130498201Y-107339316D01*
X130464602Y-107389602D01*
X130414316Y-107423201D01*
X130355000Y-107435000D01*
X130045000Y-107435000D01*
X129985684Y-107423201D01*
X129935398Y-107389602D01*
X129901799Y-107339316D01*
X129890000Y-107280000D01*
X129890000Y-106855000D01*
X129901799Y-106795684D01*
X129935398Y-106745398D01*
X129985684Y-106711799D01*
X130045000Y-106700000D01*
X130355000Y-106700000D01*
X130414316Y-106711799D01*
G37*
G36*
X144056400Y-107406400D02*
G01*
X143243600Y-107406400D01*
X143243600Y-106593600D01*
X144056400Y-106593600D01*
X144056400Y-107406400D01*
G37*
G36*
X144903198Y-107406400D02*
G01*
X144496798Y-107406400D01*
X144496798Y-106593600D01*
X144903198Y-106593600D01*
X144903198Y-107406400D01*
G37*
G36*
X145753199Y-107406400D02*
G01*
X145346799Y-107406400D01*
X145346799Y-106593600D01*
X145753199Y-106593600D01*
X145753199Y-107406400D01*
G37*
G36*
X146603200Y-107406400D02*
G01*
X146196800Y-107406400D01*
X146196800Y-106593600D01*
X146603200Y-106593600D01*
X146603200Y-107406400D01*
G37*
G36*
X147453198Y-107406400D02*
G01*
X147046798Y-107406400D01*
X147046798Y-106593600D01*
X147453198Y-106593600D01*
X147453198Y-107406400D01*
G37*
G36*
X148303199Y-107406400D02*
G01*
X147896799Y-107406400D01*
X147896799Y-106593600D01*
X148303199Y-106593600D01*
X148303199Y-107406400D01*
G37*
G36*
X149153200Y-107406400D02*
G01*
X148746800Y-107406400D01*
X148746800Y-106593600D01*
X149153200Y-106593600D01*
X149153200Y-107406400D01*
G37*
G36*
X150003198Y-107406400D02*
G01*
X149596798Y-107406400D01*
X149596798Y-106593600D01*
X150003198Y-106593600D01*
X150003198Y-107406400D01*
G37*
G36*
X150853199Y-107406400D02*
G01*
X150446799Y-107406400D01*
X150446799Y-106593600D01*
X150853199Y-106593600D01*
X150853199Y-107406400D01*
G37*
G36*
X151703200Y-107406400D02*
G01*
X151296800Y-107406400D01*
X151296800Y-106593600D01*
X151703200Y-106593600D01*
X151703200Y-107406400D01*
G37*
G36*
X152553198Y-107406400D02*
G01*
X152146798Y-107406400D01*
X152146798Y-106593600D01*
X152553198Y-106593600D01*
X152553198Y-107406400D01*
G37*
G36*
X153403199Y-107406400D02*
G01*
X152996799Y-107406400D01*
X152996799Y-106593600D01*
X153403199Y-106593600D01*
X153403199Y-107406400D01*
G37*
G36*
X154253200Y-107406400D02*
G01*
X153846800Y-107406400D01*
X153846800Y-106593600D01*
X154253200Y-106593600D01*
X154253200Y-107406400D01*
G37*
G36*
X155103198Y-107406400D02*
G01*
X154696798Y-107406400D01*
X154696798Y-106593600D01*
X155103198Y-106593600D01*
X155103198Y-107406400D01*
G37*
G36*
X155953199Y-107406400D02*
G01*
X155546799Y-107406400D01*
X155546799Y-106593600D01*
X155953199Y-106593600D01*
X155953199Y-107406400D01*
G37*
G36*
X156803200Y-107406400D02*
G01*
X156396800Y-107406400D01*
X156396800Y-106593600D01*
X156803200Y-106593600D01*
X156803200Y-107406400D01*
G37*
G36*
X158056398Y-107406400D02*
G01*
X157243598Y-107406400D01*
X157243598Y-106593600D01*
X158056398Y-106593600D01*
X158056398Y-107406400D01*
G37*
G36*
X112105534Y-105651764D02*
G01*
X112138625Y-105673875D01*
X112160736Y-105706966D01*
X112168500Y-105746000D01*
X112168500Y-107054000D01*
X112160736Y-107093034D01*
X112138625Y-107126125D01*
X112105534Y-107148236D01*
X112066500Y-107156000D01*
X110758500Y-107156000D01*
X110719466Y-107148236D01*
X110686375Y-107126125D01*
X110664264Y-107093034D01*
X110656500Y-107054000D01*
X110656500Y-105746000D01*
X110664264Y-105706966D01*
X110686375Y-105673875D01*
X110719466Y-105651764D01*
X110758500Y-105644000D01*
X112066500Y-105644000D01*
X112105534Y-105651764D01*
G37*
G36*
X127261229Y-106492179D02*
G01*
X127313137Y-106526863D01*
X127347821Y-106578771D01*
X127360000Y-106640000D01*
X127360000Y-106960000D01*
X127347821Y-107021229D01*
X127313137Y-107073137D01*
X127261229Y-107107821D01*
X127200000Y-107120000D01*
X126805000Y-107120000D01*
X126743771Y-107107821D01*
X126691863Y-107073137D01*
X126657179Y-107021229D01*
X126645000Y-106960000D01*
X126645000Y-106640000D01*
X126657179Y-106578771D01*
X126691863Y-106526863D01*
X126743771Y-106492179D01*
X126805000Y-106480000D01*
X127200000Y-106480000D01*
X127261229Y-106492179D01*
G37*
G36*
X128456229Y-106492179D02*
G01*
X128508137Y-106526863D01*
X128542821Y-106578771D01*
X128555000Y-106640000D01*
X128555000Y-106960000D01*
X128542821Y-107021229D01*
X128508137Y-107073137D01*
X128456229Y-107107821D01*
X128395000Y-107120000D01*
X128000000Y-107120000D01*
X127938771Y-107107821D01*
X127886863Y-107073137D01*
X127852179Y-107021229D01*
X127840000Y-106960000D01*
X127840000Y-106640000D01*
X127852179Y-106578771D01*
X127886863Y-106526863D01*
X127938771Y-106492179D01*
X128000000Y-106480000D01*
X128395000Y-106480000D01*
X128456229Y-106492179D01*
G37*
G36*
X116721229Y-106394679D02*
G01*
X116773137Y-106429363D01*
X116807821Y-106481271D01*
X116820000Y-106542500D01*
X116820000Y-106937500D01*
X116807821Y-106998729D01*
X116773137Y-107050637D01*
X116721229Y-107085321D01*
X116660000Y-107097500D01*
X116340000Y-107097500D01*
X116278771Y-107085321D01*
X116226863Y-107050637D01*
X116192179Y-106998729D01*
X116180000Y-106937500D01*
X116180000Y-106542500D01*
X116192179Y-106481271D01*
X116226863Y-106429363D01*
X116278771Y-106394679D01*
X116340000Y-106382500D01*
X116660000Y-106382500D01*
X116721229Y-106394679D01*
G37*
G36*
X118822835Y-106584515D02*
G01*
X118863388Y-106611612D01*
X118890485Y-106652165D01*
X118900000Y-106700000D01*
X118900000Y-106950000D01*
X118890485Y-106997835D01*
X118863388Y-107038388D01*
X118822835Y-107065485D01*
X118775000Y-107075000D01*
X117400000Y-107075000D01*
X117352165Y-107065485D01*
X117311612Y-107038388D01*
X117284515Y-106997835D01*
X117275000Y-106950000D01*
X117275000Y-106700000D01*
X117284515Y-106652165D01*
X117311612Y-106611612D01*
X117352165Y-106584515D01*
X117400000Y-106575000D01*
X118775000Y-106575000D01*
X118822835Y-106584515D01*
G37*
G36*
X123047835Y-106584515D02*
G01*
X123088388Y-106611612D01*
X123115485Y-106652165D01*
X123125000Y-106700000D01*
X123125000Y-106950000D01*
X123115485Y-106997835D01*
X123088388Y-107038388D01*
X123047835Y-107065485D01*
X123000000Y-107075000D01*
X121625000Y-107075000D01*
X121577165Y-107065485D01*
X121536612Y-107038388D01*
X121509515Y-106997835D01*
X121500000Y-106950000D01*
X121500000Y-106700000D01*
X121509515Y-106652165D01*
X121536612Y-106611612D01*
X121577165Y-106584515D01*
X121625000Y-106575000D01*
X123000000Y-106575000D01*
X123047835Y-106584515D01*
G37*
G36*
X114561229Y-106437179D02*
G01*
X114613137Y-106471863D01*
X114647821Y-106523771D01*
X114660000Y-106585000D01*
X114660000Y-106905000D01*
X114647821Y-106966229D01*
X114613137Y-107018137D01*
X114561229Y-107052821D01*
X114500000Y-107065000D01*
X114105000Y-107065000D01*
X114043771Y-107052821D01*
X113991863Y-107018137D01*
X113957179Y-106966229D01*
X113945000Y-106905000D01*
X113945000Y-106585000D01*
X113957179Y-106523771D01*
X113991863Y-106471863D01*
X114043771Y-106437179D01*
X114105000Y-106425000D01*
X114500000Y-106425000D01*
X114561229Y-106437179D01*
G37*
G36*
X115756229Y-106437179D02*
G01*
X115808137Y-106471863D01*
X115842821Y-106523771D01*
X115855000Y-106585000D01*
X115855000Y-106905000D01*
X115842821Y-106966229D01*
X115808137Y-107018137D01*
X115756229Y-107052821D01*
X115695000Y-107065000D01*
X115300000Y-107065000D01*
X115238771Y-107052821D01*
X115186863Y-107018137D01*
X115152179Y-106966229D01*
X115140000Y-106905000D01*
X115140000Y-106585000D01*
X115152179Y-106523771D01*
X115186863Y-106471863D01*
X115238771Y-106437179D01*
X115300000Y-106425000D01*
X115695000Y-106425000D01*
X115756229Y-106437179D01*
G37*
G36*
X131853701Y-105530709D02*
G01*
X131878033Y-105546967D01*
X131894291Y-105571299D01*
X131900000Y-105600000D01*
X131900000Y-106925000D01*
X131894291Y-106953701D01*
X131878033Y-106978033D01*
X131853701Y-106994291D01*
X131825000Y-107000000D01*
X131675000Y-107000000D01*
X131646299Y-106994291D01*
X131621967Y-106978033D01*
X131605709Y-106953701D01*
X131600000Y-106925000D01*
X131600000Y-105600000D01*
X131605709Y-105571299D01*
X131621967Y-105546967D01*
X131646299Y-105530709D01*
X131675000Y-105525000D01*
X131825000Y-105525000D01*
X131853701Y-105530709D01*
G37*
G36*
X132353701Y-105530709D02*
G01*
X132378033Y-105546967D01*
X132394291Y-105571299D01*
X132400000Y-105600000D01*
X132400000Y-106925000D01*
X132394291Y-106953701D01*
X132378033Y-106978033D01*
X132353701Y-106994291D01*
X132325000Y-107000000D01*
X132175000Y-107000000D01*
X132146299Y-106994291D01*
X132121967Y-106978033D01*
X132105709Y-106953701D01*
X132100000Y-106925000D01*
X132100000Y-105600000D01*
X132105709Y-105571299D01*
X132121967Y-105546967D01*
X132146299Y-105530709D01*
X132175000Y-105525000D01*
X132325000Y-105525000D01*
X132353701Y-105530709D01*
G37*
G36*
X132853701Y-105530709D02*
G01*
X132878033Y-105546967D01*
X132894291Y-105571299D01*
X132900000Y-105600000D01*
X132900000Y-106925000D01*
X132894291Y-106953701D01*
X132878033Y-106978033D01*
X132853701Y-106994291D01*
X132825000Y-107000000D01*
X132675000Y-107000000D01*
X132646299Y-106994291D01*
X132621967Y-106978033D01*
X132605709Y-106953701D01*
X132600000Y-106925000D01*
X132600000Y-105600000D01*
X132605709Y-105571299D01*
X132621967Y-105546967D01*
X132646299Y-105530709D01*
X132675000Y-105525000D01*
X132825000Y-105525000D01*
X132853701Y-105530709D01*
G37*
G36*
X133353701Y-105530709D02*
G01*
X133378033Y-105546967D01*
X133394291Y-105571299D01*
X133400000Y-105600000D01*
X133400000Y-106925000D01*
X133394291Y-106953701D01*
X133378033Y-106978033D01*
X133353701Y-106994291D01*
X133325000Y-107000000D01*
X133175000Y-107000000D01*
X133146299Y-106994291D01*
X133121967Y-106978033D01*
X133105709Y-106953701D01*
X133100000Y-106925000D01*
X133100000Y-105600000D01*
X133105709Y-105571299D01*
X133121967Y-105546967D01*
X133146299Y-105530709D01*
X133175000Y-105525000D01*
X133325000Y-105525000D01*
X133353701Y-105530709D01*
G37*
G36*
X133853701Y-105530709D02*
G01*
X133878033Y-105546967D01*
X133894291Y-105571299D01*
X133900000Y-105600000D01*
X133900000Y-106925000D01*
X133894291Y-106953701D01*
X133878033Y-106978033D01*
X133853701Y-106994291D01*
X133825000Y-107000000D01*
X133675000Y-107000000D01*
X133646299Y-106994291D01*
X133621967Y-106978033D01*
X133605709Y-106953701D01*
X133600000Y-106925000D01*
X133600000Y-105600000D01*
X133605709Y-105571299D01*
X133621967Y-105546967D01*
X133646299Y-105530709D01*
X133675000Y-105525000D01*
X133825000Y-105525000D01*
X133853701Y-105530709D01*
G37*
G36*
X134353701Y-105530709D02*
G01*
X134378033Y-105546967D01*
X134394291Y-105571299D01*
X134400000Y-105600000D01*
X134400000Y-106925000D01*
X134394291Y-106953701D01*
X134378033Y-106978033D01*
X134353701Y-106994291D01*
X134325000Y-107000000D01*
X134175000Y-107000000D01*
X134146299Y-106994291D01*
X134121967Y-106978033D01*
X134105709Y-106953701D01*
X134100000Y-106925000D01*
X134100000Y-105600000D01*
X134105709Y-105571299D01*
X134121967Y-105546967D01*
X134146299Y-105530709D01*
X134175000Y-105525000D01*
X134325000Y-105525000D01*
X134353701Y-105530709D01*
G37*
G36*
X134853701Y-105530709D02*
G01*
X134878033Y-105546967D01*
X134894291Y-105571299D01*
X134900000Y-105600000D01*
X134900000Y-106925000D01*
X134894291Y-106953701D01*
X134878033Y-106978033D01*
X134853701Y-106994291D01*
X134825000Y-107000000D01*
X134675000Y-107000000D01*
X134646299Y-106994291D01*
X134621967Y-106978033D01*
X134605709Y-106953701D01*
X134600000Y-106925000D01*
X134600000Y-105600000D01*
X134605709Y-105571299D01*
X134621967Y-105546967D01*
X134646299Y-105530709D01*
X134675000Y-105525000D01*
X134825000Y-105525000D01*
X134853701Y-105530709D01*
G37*
G36*
X135353701Y-105530709D02*
G01*
X135378033Y-105546967D01*
X135394291Y-105571299D01*
X135400000Y-105600000D01*
X135400000Y-106925000D01*
X135394291Y-106953701D01*
X135378033Y-106978033D01*
X135353701Y-106994291D01*
X135325000Y-107000000D01*
X135175000Y-107000000D01*
X135146299Y-106994291D01*
X135121967Y-106978033D01*
X135105709Y-106953701D01*
X135100000Y-106925000D01*
X135100000Y-105600000D01*
X135105709Y-105571299D01*
X135121967Y-105546967D01*
X135146299Y-105530709D01*
X135175000Y-105525000D01*
X135325000Y-105525000D01*
X135353701Y-105530709D01*
G37*
G36*
X129421229Y-105857179D02*
G01*
X129473137Y-105891863D01*
X129507821Y-105943771D01*
X129520000Y-106005000D01*
X129520000Y-106400000D01*
X129507821Y-106461229D01*
X129473137Y-106513137D01*
X129421229Y-106547821D01*
X129360000Y-106560000D01*
X129040000Y-106560000D01*
X128978771Y-106547821D01*
X128926863Y-106513137D01*
X128892179Y-106461229D01*
X128880000Y-106400000D01*
X128880000Y-106005000D01*
X128892179Y-105943771D01*
X128926863Y-105891863D01*
X128978771Y-105857179D01*
X129040000Y-105845000D01*
X129360000Y-105845000D01*
X129421229Y-105857179D01*
G37*
G36*
X118822835Y-105934515D02*
G01*
X118863388Y-105961612D01*
X118890485Y-106002165D01*
X118900000Y-106050000D01*
X118900000Y-106300000D01*
X118890485Y-106347835D01*
X118863388Y-106388388D01*
X118822835Y-106415485D01*
X118775000Y-106425000D01*
X117400000Y-106425000D01*
X117352165Y-106415485D01*
X117311612Y-106388388D01*
X117284515Y-106347835D01*
X117275000Y-106300000D01*
X117275000Y-106050000D01*
X117284515Y-106002165D01*
X117311612Y-105961612D01*
X117352165Y-105934515D01*
X117400000Y-105925000D01*
X118775000Y-105925000D01*
X118822835Y-105934515D01*
G37*
G36*
X123047835Y-105934515D02*
G01*
X123088388Y-105961612D01*
X123115485Y-106002165D01*
X123125000Y-106050000D01*
X123125000Y-106300000D01*
X123115485Y-106347835D01*
X123088388Y-106388388D01*
X123047835Y-106415485D01*
X123000000Y-106425000D01*
X121625000Y-106425000D01*
X121577165Y-106415485D01*
X121536612Y-106388388D01*
X121509515Y-106347835D01*
X121500000Y-106300000D01*
X121500000Y-106050000D01*
X121509515Y-106002165D01*
X121536612Y-105961612D01*
X121577165Y-105934515D01*
X121625000Y-105925000D01*
X123000000Y-105925000D01*
X123047835Y-105934515D01*
G37*
G36*
X164729047Y-105075805D02*
G01*
X164780408Y-105081764D01*
X164797954Y-105089511D01*
X164820671Y-105094030D01*
X164844991Y-105110280D01*
X164865793Y-105119465D01*
X164880000Y-105133672D01*
X164901777Y-105148223D01*
X164916327Y-105169999D01*
X164930534Y-105184206D01*
X164939718Y-105205006D01*
X164955970Y-105229329D01*
X164960489Y-105252048D01*
X164968235Y-105269591D01*
X164974192Y-105320940D01*
X164975000Y-105325000D01*
X164975000Y-106075000D01*
X164974192Y-106079059D01*
X164968235Y-106130408D01*
X164960489Y-106147950D01*
X164955970Y-106170671D01*
X164939716Y-106194995D01*
X164930534Y-106215793D01*
X164916329Y-106229997D01*
X164901777Y-106251777D01*
X164879997Y-106266329D01*
X164865793Y-106280534D01*
X164844995Y-106289716D01*
X164820671Y-106305970D01*
X164797950Y-106310489D01*
X164780408Y-106318235D01*
X164729061Y-106324192D01*
X164725000Y-106325000D01*
X163475000Y-106325000D01*
X163470941Y-106324192D01*
X163419591Y-106318235D01*
X163402048Y-106310489D01*
X163379329Y-106305970D01*
X163355006Y-106289718D01*
X163334206Y-106280534D01*
X163319999Y-106266327D01*
X163298223Y-106251777D01*
X163283672Y-106230000D01*
X163269465Y-106215793D01*
X163260280Y-106194991D01*
X163244030Y-106170671D01*
X163239511Y-106147954D01*
X163231764Y-106130408D01*
X163225805Y-106079049D01*
X163225000Y-106075000D01*
X163225000Y-105325000D01*
X163225804Y-105320953D01*
X163231764Y-105269591D01*
X163239511Y-105252043D01*
X163244030Y-105229329D01*
X163260278Y-105205010D01*
X163269465Y-105184206D01*
X163283674Y-105169996D01*
X163298223Y-105148223D01*
X163319996Y-105133674D01*
X163334206Y-105119465D01*
X163355010Y-105110278D01*
X163379329Y-105094030D01*
X163402043Y-105089511D01*
X163419591Y-105081764D01*
X163470952Y-105075805D01*
X163475000Y-105075000D01*
X164725000Y-105075000D01*
X164729047Y-105075805D01*
G37*
G36*
X130414316Y-105576799D02*
G01*
X130464602Y-105610398D01*
X130498201Y-105660684D01*
X130510000Y-105720000D01*
X130510000Y-106145000D01*
X130498201Y-106204316D01*
X130464602Y-106254602D01*
X130414316Y-106288201D01*
X130355000Y-106300000D01*
X130045000Y-106300000D01*
X129985684Y-106288201D01*
X129935398Y-106254602D01*
X129901799Y-106204316D01*
X129890000Y-106145000D01*
X129890000Y-105720000D01*
X129901799Y-105660684D01*
X129935398Y-105610398D01*
X129985684Y-105576799D01*
X130045000Y-105565000D01*
X130355000Y-105565000D01*
X130414316Y-105576799D01*
G37*
G36*
X144056400Y-106153202D02*
G01*
X143243600Y-106153202D01*
X143243600Y-105746802D01*
X144056400Y-105746802D01*
X144056400Y-106153202D01*
G37*
G36*
X158056398Y-106153202D02*
G01*
X157243598Y-106153202D01*
X157243598Y-105746802D01*
X158056398Y-105746802D01*
X158056398Y-106153202D01*
G37*
G36*
X137161229Y-105492179D02*
G01*
X137213137Y-105526863D01*
X137247821Y-105578771D01*
X137260000Y-105640000D01*
X137260000Y-105960000D01*
X137247821Y-106021229D01*
X137213137Y-106073137D01*
X137161229Y-106107821D01*
X137100000Y-106120000D01*
X136705000Y-106120000D01*
X136643771Y-106107821D01*
X136591863Y-106073137D01*
X136557179Y-106021229D01*
X136545000Y-105960000D01*
X136545000Y-105640000D01*
X136557179Y-105578771D01*
X136591863Y-105526863D01*
X136643771Y-105492179D01*
X136705000Y-105480000D01*
X137100000Y-105480000D01*
X137161229Y-105492179D01*
G37*
G36*
X138356229Y-105492179D02*
G01*
X138408137Y-105526863D01*
X138442821Y-105578771D01*
X138455000Y-105640000D01*
X138455000Y-105960000D01*
X138442821Y-106021229D01*
X138408137Y-106073137D01*
X138356229Y-106107821D01*
X138295000Y-106120000D01*
X137900000Y-106120000D01*
X137838771Y-106107821D01*
X137786863Y-106073137D01*
X137752179Y-106021229D01*
X137740000Y-105960000D01*
X137740000Y-105640000D01*
X137752179Y-105578771D01*
X137786863Y-105526863D01*
X137838771Y-105492179D01*
X137900000Y-105480000D01*
X138295000Y-105480000D01*
X138356229Y-105492179D01*
G37*
G36*
X127304316Y-105501799D02*
G01*
X127354602Y-105535398D01*
X127388201Y-105585684D01*
X127400000Y-105645000D01*
X127400000Y-105955000D01*
X127388201Y-106014316D01*
X127354602Y-106064602D01*
X127304316Y-106098201D01*
X127245000Y-106110000D01*
X126820000Y-106110000D01*
X126760684Y-106098201D01*
X126710398Y-106064602D01*
X126676799Y-106014316D01*
X126665000Y-105955000D01*
X126665000Y-105645000D01*
X126676799Y-105585684D01*
X126710398Y-105535398D01*
X126760684Y-105501799D01*
X126820000Y-105490000D01*
X127245000Y-105490000D01*
X127304316Y-105501799D01*
G37*
G36*
X128439316Y-105501799D02*
G01*
X128489602Y-105535398D01*
X128523201Y-105585684D01*
X128535000Y-105645000D01*
X128535000Y-105955000D01*
X128523201Y-106014316D01*
X128489602Y-106064602D01*
X128439316Y-106098201D01*
X128380000Y-106110000D01*
X127955000Y-106110000D01*
X127895684Y-106098201D01*
X127845398Y-106064602D01*
X127811799Y-106014316D01*
X127800000Y-105955000D01*
X127800000Y-105645000D01*
X127811799Y-105585684D01*
X127845398Y-105535398D01*
X127895684Y-105501799D01*
X127955000Y-105490000D01*
X128380000Y-105490000D01*
X128439316Y-105501799D01*
G37*
G36*
X116721229Y-105199679D02*
G01*
X116773137Y-105234363D01*
X116807821Y-105286271D01*
X116820000Y-105347500D01*
X116820000Y-105742500D01*
X116807821Y-105803729D01*
X116773137Y-105855637D01*
X116721229Y-105890321D01*
X116660000Y-105902500D01*
X116340000Y-105902500D01*
X116278771Y-105890321D01*
X116226863Y-105855637D01*
X116192179Y-105803729D01*
X116180000Y-105742500D01*
X116180000Y-105347500D01*
X116192179Y-105286271D01*
X116226863Y-105234363D01*
X116278771Y-105199679D01*
X116340000Y-105187500D01*
X116660000Y-105187500D01*
X116721229Y-105199679D01*
G37*
G36*
X118822835Y-105284515D02*
G01*
X118863388Y-105311612D01*
X118890485Y-105352165D01*
X118900000Y-105400000D01*
X118900000Y-105650000D01*
X118890485Y-105697835D01*
X118863388Y-105738388D01*
X118822835Y-105765485D01*
X118775000Y-105775000D01*
X117400000Y-105775000D01*
X117352165Y-105765485D01*
X117311612Y-105738388D01*
X117284515Y-105697835D01*
X117275000Y-105650000D01*
X117275000Y-105400000D01*
X117284515Y-105352165D01*
X117311612Y-105311612D01*
X117352165Y-105284515D01*
X117400000Y-105275000D01*
X118775000Y-105275000D01*
X118822835Y-105284515D01*
G37*
G36*
X123047835Y-105284515D02*
G01*
X123088388Y-105311612D01*
X123115485Y-105352165D01*
X123125000Y-105400000D01*
X123125000Y-105650000D01*
X123115485Y-105697835D01*
X123088388Y-105738388D01*
X123047835Y-105765485D01*
X123000000Y-105775000D01*
X121625000Y-105775000D01*
X121577165Y-105765485D01*
X121536612Y-105738388D01*
X121509515Y-105697835D01*
X121500000Y-105650000D01*
X121500000Y-105400000D01*
X121509515Y-105352165D01*
X121536612Y-105311612D01*
X121577165Y-105284515D01*
X121625000Y-105275000D01*
X123000000Y-105275000D01*
X123047835Y-105284515D01*
G37*
G36*
X168104047Y-103800805D02*
G01*
X168155408Y-103806764D01*
X168172954Y-103814511D01*
X168195671Y-103819030D01*
X168219991Y-103835280D01*
X168240793Y-103844465D01*
X168255000Y-103858672D01*
X168276777Y-103873223D01*
X168291327Y-103894999D01*
X168305534Y-103909206D01*
X168314718Y-103930006D01*
X168330970Y-103954329D01*
X168335489Y-103977048D01*
X168343235Y-103994591D01*
X168349192Y-104045940D01*
X168350000Y-104050000D01*
X168350000Y-105350000D01*
X168349192Y-105354059D01*
X168343235Y-105405408D01*
X168335489Y-105422950D01*
X168330970Y-105445671D01*
X168314716Y-105469995D01*
X168305534Y-105490793D01*
X168291329Y-105504997D01*
X168276777Y-105526777D01*
X168254997Y-105541329D01*
X168240793Y-105555534D01*
X168219995Y-105564716D01*
X168195671Y-105580970D01*
X168172950Y-105585489D01*
X168155408Y-105593235D01*
X168104061Y-105599192D01*
X168100000Y-105600000D01*
X166100000Y-105600000D01*
X166095941Y-105599192D01*
X166044591Y-105593235D01*
X166027048Y-105585489D01*
X166004329Y-105580970D01*
X165980006Y-105564718D01*
X165959206Y-105555534D01*
X165944999Y-105541327D01*
X165923223Y-105526777D01*
X165908672Y-105505000D01*
X165894465Y-105490793D01*
X165885280Y-105469991D01*
X165869030Y-105445671D01*
X165864511Y-105422954D01*
X165856764Y-105405408D01*
X165850805Y-105354049D01*
X165850000Y-105350000D01*
X165850000Y-104050000D01*
X165850804Y-104045953D01*
X165856764Y-103994591D01*
X165864511Y-103977043D01*
X165869030Y-103954329D01*
X165885278Y-103930010D01*
X165894465Y-103909206D01*
X165908674Y-103894996D01*
X165923223Y-103873223D01*
X165944996Y-103858674D01*
X165959206Y-103844465D01*
X165980010Y-103835278D01*
X166004329Y-103819030D01*
X166027043Y-103814511D01*
X166044591Y-103806764D01*
X166095952Y-103800805D01*
X166100000Y-103800000D01*
X168100000Y-103800000D01*
X168104047Y-103800805D01*
G37*
G36*
X172104047Y-103800805D02*
G01*
X172155408Y-103806764D01*
X172172954Y-103814511D01*
X172195671Y-103819030D01*
X172219991Y-103835280D01*
X172240793Y-103844465D01*
X172255000Y-103858672D01*
X172276777Y-103873223D01*
X172291327Y-103894999D01*
X172305534Y-103909206D01*
X172314718Y-103930006D01*
X172330970Y-103954329D01*
X172335489Y-103977048D01*
X172343235Y-103994591D01*
X172349192Y-104045940D01*
X172350000Y-104050000D01*
X172350000Y-105350000D01*
X172349192Y-105354059D01*
X172343235Y-105405408D01*
X172335489Y-105422950D01*
X172330970Y-105445671D01*
X172314716Y-105469995D01*
X172305534Y-105490793D01*
X172291329Y-105504997D01*
X172276777Y-105526777D01*
X172254997Y-105541329D01*
X172240793Y-105555534D01*
X172219995Y-105564716D01*
X172195671Y-105580970D01*
X172172950Y-105585489D01*
X172155408Y-105593235D01*
X172104061Y-105599192D01*
X172100000Y-105600000D01*
X170100000Y-105600000D01*
X170095941Y-105599192D01*
X170044591Y-105593235D01*
X170027048Y-105585489D01*
X170004329Y-105580970D01*
X169980006Y-105564718D01*
X169959206Y-105555534D01*
X169944999Y-105541327D01*
X169923223Y-105526777D01*
X169908672Y-105505000D01*
X169894465Y-105490793D01*
X169885280Y-105469991D01*
X169869030Y-105445671D01*
X169864511Y-105422954D01*
X169856764Y-105405408D01*
X169850805Y-105354049D01*
X169850000Y-105350000D01*
X169850000Y-104050000D01*
X169850804Y-104045953D01*
X169856764Y-103994591D01*
X169864511Y-103977043D01*
X169869030Y-103954329D01*
X169885278Y-103930010D01*
X169894465Y-103909206D01*
X169908674Y-103894996D01*
X169923223Y-103873223D01*
X169944996Y-103858674D01*
X169959206Y-103844465D01*
X169980010Y-103835278D01*
X170004329Y-103819030D01*
X170027043Y-103814511D01*
X170044591Y-103806764D01*
X170095952Y-103800805D01*
X170100000Y-103800000D01*
X172100000Y-103800000D01*
X172104047Y-103800805D01*
G37*
G36*
X141211228Y-104692180D02*
G01*
X141263136Y-104726864D01*
X141297820Y-104778772D01*
X141309999Y-104840001D01*
X141309999Y-105160001D01*
X141297820Y-105221230D01*
X141263136Y-105273138D01*
X141211228Y-105307822D01*
X141149999Y-105320001D01*
X140754999Y-105320001D01*
X140693770Y-105307822D01*
X140641862Y-105273138D01*
X140607178Y-105221230D01*
X140594999Y-105160001D01*
X140594999Y-104840001D01*
X140607178Y-104778772D01*
X140641862Y-104726864D01*
X140693770Y-104692180D01*
X140754999Y-104680001D01*
X141149999Y-104680001D01*
X141211228Y-104692180D01*
G37*
G36*
X142406228Y-104692180D02*
G01*
X142458136Y-104726864D01*
X142492820Y-104778772D01*
X142504999Y-104840001D01*
X142504999Y-105160001D01*
X142492820Y-105221230D01*
X142458136Y-105273138D01*
X142406228Y-105307822D01*
X142344999Y-105320001D01*
X141949999Y-105320001D01*
X141888770Y-105307822D01*
X141836862Y-105273138D01*
X141802178Y-105221230D01*
X141789999Y-105160001D01*
X141789999Y-104840001D01*
X141802178Y-104778772D01*
X141836862Y-104726864D01*
X141888770Y-104692180D01*
X141949999Y-104680001D01*
X142344999Y-104680001D01*
X142406228Y-104692180D01*
G37*
G36*
X144056400Y-105303201D02*
G01*
X143243600Y-105303201D01*
X143243600Y-104896801D01*
X144056400Y-104896801D01*
X144056400Y-105303201D01*
G37*
G36*
X158056398Y-105303201D02*
G01*
X157243598Y-105303201D01*
X157243598Y-104896801D01*
X158056398Y-104896801D01*
X158056398Y-105303201D01*
G37*
G36*
X126961229Y-104492179D02*
G01*
X127013137Y-104526863D01*
X127047821Y-104578771D01*
X127060000Y-104640000D01*
X127060000Y-104960000D01*
X127047821Y-105021229D01*
X127013137Y-105073137D01*
X126961229Y-105107821D01*
X126900000Y-105120000D01*
X126505000Y-105120000D01*
X126443771Y-105107821D01*
X126391863Y-105073137D01*
X126357179Y-105021229D01*
X126345000Y-104960000D01*
X126345000Y-104640000D01*
X126357179Y-104578771D01*
X126391863Y-104526863D01*
X126443771Y-104492179D01*
X126505000Y-104480000D01*
X126900000Y-104480000D01*
X126961229Y-104492179D01*
G37*
G36*
X128156229Y-104492179D02*
G01*
X128208137Y-104526863D01*
X128242821Y-104578771D01*
X128255000Y-104640000D01*
X128255000Y-104960000D01*
X128242821Y-105021229D01*
X128208137Y-105073137D01*
X128156229Y-105107821D01*
X128095000Y-105120000D01*
X127700000Y-105120000D01*
X127638771Y-105107821D01*
X127586863Y-105073137D01*
X127552179Y-105021229D01*
X127540000Y-104960000D01*
X127540000Y-104640000D01*
X127552179Y-104578771D01*
X127586863Y-104526863D01*
X127638771Y-104492179D01*
X127700000Y-104480000D01*
X128095000Y-104480000D01*
X128156229Y-104492179D01*
G37*
G36*
X131028701Y-104705709D02*
G01*
X131053033Y-104721967D01*
X131069291Y-104746299D01*
X131075000Y-104775000D01*
X131075000Y-104925000D01*
X131069291Y-104953701D01*
X131053033Y-104978033D01*
X131028701Y-104994291D01*
X131000000Y-105000000D01*
X129675000Y-105000000D01*
X129646299Y-104994291D01*
X129621967Y-104978033D01*
X129605709Y-104953701D01*
X129600000Y-104925000D01*
X129600000Y-104775000D01*
X129605709Y-104746299D01*
X129621967Y-104721967D01*
X129646299Y-104705709D01*
X129675000Y-104700000D01*
X131000000Y-104700000D01*
X131028701Y-104705709D01*
G37*
G36*
X137353701Y-104705709D02*
G01*
X137378033Y-104721967D01*
X137394291Y-104746299D01*
X137400000Y-104775000D01*
X137400000Y-104925000D01*
X137394291Y-104953701D01*
X137378033Y-104978033D01*
X137353701Y-104994291D01*
X137325000Y-105000000D01*
X136000000Y-105000000D01*
X135971299Y-104994291D01*
X135946967Y-104978033D01*
X135930709Y-104953701D01*
X135925000Y-104925000D01*
X135925000Y-104775000D01*
X135930709Y-104746299D01*
X135946967Y-104721967D01*
X135971299Y-104705709D01*
X136000000Y-104700000D01*
X137325000Y-104700000D01*
X137353701Y-104705709D01*
G37*
G36*
X122804316Y-104201799D02*
G01*
X122854602Y-104235398D01*
X122888201Y-104285684D01*
X122900000Y-104345000D01*
X122900000Y-104655000D01*
X122888201Y-104714316D01*
X122854602Y-104764602D01*
X122804316Y-104798201D01*
X122745000Y-104810000D01*
X122320000Y-104810000D01*
X122260684Y-104798201D01*
X122210398Y-104764602D01*
X122176799Y-104714316D01*
X122165000Y-104655000D01*
X122165000Y-104345000D01*
X122176799Y-104285684D01*
X122210398Y-104235398D01*
X122260684Y-104201799D01*
X122320000Y-104190000D01*
X122745000Y-104190000D01*
X122804316Y-104201799D01*
G37*
G36*
X123939316Y-104201799D02*
G01*
X123989602Y-104235398D01*
X124023201Y-104285684D01*
X124035000Y-104345000D01*
X124035000Y-104655000D01*
X124023201Y-104714316D01*
X123989602Y-104764602D01*
X123939316Y-104798201D01*
X123880000Y-104810000D01*
X123455000Y-104810000D01*
X123395684Y-104798201D01*
X123345398Y-104764602D01*
X123311799Y-104714316D01*
X123300000Y-104655000D01*
X123300000Y-104345000D01*
X123311799Y-104285684D01*
X123345398Y-104235398D01*
X123395684Y-104201799D01*
X123455000Y-104190000D01*
X123880000Y-104190000D01*
X123939316Y-104201799D01*
G37*
G36*
X131028701Y-104205709D02*
G01*
X131053033Y-104221967D01*
X131069291Y-104246299D01*
X131075000Y-104275000D01*
X131075000Y-104425000D01*
X131069291Y-104453701D01*
X131053033Y-104478033D01*
X131028701Y-104494291D01*
X131000000Y-104500000D01*
X129675000Y-104500000D01*
X129646299Y-104494291D01*
X129621967Y-104478033D01*
X129605709Y-104453701D01*
X129600000Y-104425000D01*
X129600000Y-104275000D01*
X129605709Y-104246299D01*
X129621967Y-104221967D01*
X129646299Y-104205709D01*
X129675000Y-104200000D01*
X131000000Y-104200000D01*
X131028701Y-104205709D01*
G37*
G36*
X137353701Y-104205709D02*
G01*
X137378033Y-104221967D01*
X137394291Y-104246299D01*
X137400000Y-104275000D01*
X137400000Y-104425000D01*
X137394291Y-104453701D01*
X137378033Y-104478033D01*
X137353701Y-104494291D01*
X137325000Y-104500000D01*
X136000000Y-104500000D01*
X135971299Y-104494291D01*
X135946967Y-104478033D01*
X135930709Y-104453701D01*
X135925000Y-104425000D01*
X135925000Y-104275000D01*
X135930709Y-104246299D01*
X135946967Y-104221967D01*
X135971299Y-104205709D01*
X136000000Y-104200000D01*
X137325000Y-104200000D01*
X137353701Y-104205709D01*
G37*
G36*
X144056400Y-104453200D02*
G01*
X143243600Y-104453200D01*
X143243600Y-104046800D01*
X144056400Y-104046800D01*
X144056400Y-104453200D01*
G37*
G36*
X158056398Y-104453200D02*
G01*
X157243598Y-104453200D01*
X157243598Y-104046800D01*
X158056398Y-104046800D01*
X158056398Y-104453200D01*
G37*
G36*
X127304316Y-103501799D02*
G01*
X127354602Y-103535398D01*
X127388201Y-103585684D01*
X127400000Y-103645000D01*
X127400000Y-103955000D01*
X127388201Y-104014316D01*
X127354602Y-104064602D01*
X127304316Y-104098201D01*
X127245000Y-104110000D01*
X126820000Y-104110000D01*
X126760684Y-104098201D01*
X126710398Y-104064602D01*
X126676799Y-104014316D01*
X126665000Y-103955000D01*
X126665000Y-103645000D01*
X126676799Y-103585684D01*
X126710398Y-103535398D01*
X126760684Y-103501799D01*
X126820000Y-103490000D01*
X127245000Y-103490000D01*
X127304316Y-103501799D01*
G37*
G36*
X128439316Y-103501799D02*
G01*
X128489602Y-103535398D01*
X128523201Y-103585684D01*
X128535000Y-103645000D01*
X128535000Y-103955000D01*
X128523201Y-104014316D01*
X128489602Y-104064602D01*
X128439316Y-104098201D01*
X128380000Y-104110000D01*
X127955000Y-104110000D01*
X127895684Y-104098201D01*
X127845398Y-104064602D01*
X127811799Y-104014316D01*
X127800000Y-103955000D01*
X127800000Y-103645000D01*
X127811799Y-103585684D01*
X127845398Y-103535398D01*
X127895684Y-103501799D01*
X127955000Y-103490000D01*
X128380000Y-103490000D01*
X128439316Y-103501799D01*
G37*
G36*
X131028701Y-103705709D02*
G01*
X131053033Y-103721967D01*
X131069291Y-103746299D01*
X131075000Y-103775000D01*
X131075000Y-103925000D01*
X131069291Y-103953701D01*
X131053033Y-103978033D01*
X131028701Y-103994291D01*
X131000000Y-104000000D01*
X129675000Y-104000000D01*
X129646299Y-103994291D01*
X129621967Y-103978033D01*
X129605709Y-103953701D01*
X129600000Y-103925000D01*
X129600000Y-103775000D01*
X129605709Y-103746299D01*
X129621967Y-103721967D01*
X129646299Y-103705709D01*
X129675000Y-103700000D01*
X131000000Y-103700000D01*
X131028701Y-103705709D01*
G37*
G36*
X137353701Y-103705709D02*
G01*
X137378033Y-103721967D01*
X137394291Y-103746299D01*
X137400000Y-103775000D01*
X137400000Y-103925000D01*
X137394291Y-103953701D01*
X137378033Y-103978033D01*
X137353701Y-103994291D01*
X137325000Y-104000000D01*
X136000000Y-104000000D01*
X135971299Y-103994291D01*
X135946967Y-103978033D01*
X135930709Y-103953701D01*
X135925000Y-103925000D01*
X135925000Y-103775000D01*
X135930709Y-103746299D01*
X135946967Y-103721967D01*
X135971299Y-103705709D01*
X136000000Y-103700000D01*
X137325000Y-103700000D01*
X137353701Y-103705709D01*
G37*
G36*
X144056400Y-103603202D02*
G01*
X143243600Y-103603202D01*
X143243600Y-103196802D01*
X144056400Y-103196802D01*
X144056400Y-103603202D01*
G37*
G36*
X158056398Y-103603202D02*
G01*
X157243598Y-103603202D01*
X157243598Y-103196802D01*
X158056398Y-103196802D01*
X158056398Y-103603202D01*
G37*
G36*
X115661229Y-102947179D02*
G01*
X115713137Y-102981863D01*
X115747821Y-103033771D01*
X115760000Y-103095000D01*
X115760000Y-103415000D01*
X115747821Y-103476229D01*
X115713137Y-103528137D01*
X115661229Y-103562821D01*
X115600000Y-103575000D01*
X115205000Y-103575000D01*
X115143771Y-103562821D01*
X115091863Y-103528137D01*
X115057179Y-103476229D01*
X115045000Y-103415000D01*
X115045000Y-103095000D01*
X115057179Y-103033771D01*
X115091863Y-102981863D01*
X115143771Y-102947179D01*
X115205000Y-102935000D01*
X115600000Y-102935000D01*
X115661229Y-102947179D01*
G37*
G36*
X116856229Y-102947179D02*
G01*
X116908137Y-102981863D01*
X116942821Y-103033771D01*
X116955000Y-103095000D01*
X116955000Y-103415000D01*
X116942821Y-103476229D01*
X116908137Y-103528137D01*
X116856229Y-103562821D01*
X116795000Y-103575000D01*
X116400000Y-103575000D01*
X116338771Y-103562821D01*
X116286863Y-103528137D01*
X116252179Y-103476229D01*
X116240000Y-103415000D01*
X116240000Y-103095000D01*
X116252179Y-103033771D01*
X116286863Y-102981863D01*
X116338771Y-102947179D01*
X116400000Y-102935000D01*
X116795000Y-102935000D01*
X116856229Y-102947179D01*
G37*
G36*
X164729047Y-102275805D02*
G01*
X164780408Y-102281764D01*
X164797954Y-102289511D01*
X164820671Y-102294030D01*
X164844991Y-102310280D01*
X164865793Y-102319465D01*
X164880000Y-102333672D01*
X164901777Y-102348223D01*
X164916327Y-102369999D01*
X164930534Y-102384206D01*
X164939718Y-102405006D01*
X164955970Y-102429329D01*
X164960489Y-102452048D01*
X164968235Y-102469591D01*
X164974192Y-102520940D01*
X164975000Y-102525000D01*
X164975000Y-103275000D01*
X164974192Y-103279059D01*
X164968235Y-103330408D01*
X164960489Y-103347950D01*
X164955970Y-103370671D01*
X164939716Y-103394995D01*
X164930534Y-103415793D01*
X164916329Y-103429997D01*
X164901777Y-103451777D01*
X164879997Y-103466329D01*
X164865793Y-103480534D01*
X164844995Y-103489716D01*
X164820671Y-103505970D01*
X164797950Y-103510489D01*
X164780408Y-103518235D01*
X164729061Y-103524192D01*
X164725000Y-103525000D01*
X163475000Y-103525000D01*
X163470941Y-103524192D01*
X163419591Y-103518235D01*
X163402048Y-103510489D01*
X163379329Y-103505970D01*
X163355006Y-103489718D01*
X163334206Y-103480534D01*
X163319999Y-103466327D01*
X163298223Y-103451777D01*
X163283672Y-103430000D01*
X163269465Y-103415793D01*
X163260280Y-103394991D01*
X163244030Y-103370671D01*
X163239511Y-103347954D01*
X163231764Y-103330408D01*
X163225805Y-103279049D01*
X163225000Y-103275000D01*
X163225000Y-102525000D01*
X163225804Y-102520953D01*
X163231764Y-102469591D01*
X163239511Y-102452043D01*
X163244030Y-102429329D01*
X163260278Y-102405010D01*
X163269465Y-102384206D01*
X163283674Y-102369996D01*
X163298223Y-102348223D01*
X163319996Y-102333674D01*
X163334206Y-102319465D01*
X163355010Y-102310278D01*
X163379329Y-102294030D01*
X163402043Y-102289511D01*
X163419591Y-102281764D01*
X163470952Y-102275805D01*
X163475000Y-102275000D01*
X164725000Y-102275000D01*
X164729047Y-102275805D01*
G37*
G36*
X131028701Y-103205709D02*
G01*
X131053033Y-103221967D01*
X131069291Y-103246299D01*
X131075000Y-103275000D01*
X131075000Y-103425000D01*
X131069291Y-103453701D01*
X131053033Y-103478033D01*
X131028701Y-103494291D01*
X131000000Y-103500000D01*
X129675000Y-103500000D01*
X129646299Y-103494291D01*
X129621967Y-103478033D01*
X129605709Y-103453701D01*
X129600000Y-103425000D01*
X129600000Y-103275000D01*
X129605709Y-103246299D01*
X129621967Y-103221967D01*
X129646299Y-103205709D01*
X129675000Y-103200000D01*
X131000000Y-103200000D01*
X131028701Y-103205709D01*
G37*
G36*
X137353701Y-103205709D02*
G01*
X137378033Y-103221967D01*
X137394291Y-103246299D01*
X137400000Y-103275000D01*
X137400000Y-103425000D01*
X137394291Y-103453701D01*
X137378033Y-103478033D01*
X137353701Y-103494291D01*
X137325000Y-103500000D01*
X136000000Y-103500000D01*
X135971299Y-103494291D01*
X135946967Y-103478033D01*
X135930709Y-103453701D01*
X135925000Y-103425000D01*
X135925000Y-103275000D01*
X135930709Y-103246299D01*
X135946967Y-103221967D01*
X135971299Y-103205709D01*
X136000000Y-103200000D01*
X137325000Y-103200000D01*
X137353701Y-103205709D01*
G37*
G36*
X118922835Y-102634515D02*
G01*
X118963388Y-102661612D01*
X118990485Y-102702165D01*
X119000000Y-102750000D01*
X119000000Y-103000000D01*
X118990485Y-103047835D01*
X118963388Y-103088388D01*
X118922835Y-103115485D01*
X118875000Y-103125000D01*
X117500000Y-103125000D01*
X117452165Y-103115485D01*
X117411612Y-103088388D01*
X117384515Y-103047835D01*
X117375000Y-103000000D01*
X117375000Y-102750000D01*
X117384515Y-102702165D01*
X117411612Y-102661612D01*
X117452165Y-102634515D01*
X117500000Y-102625000D01*
X118875000Y-102625000D01*
X118922835Y-102634515D01*
G37*
G36*
X123147835Y-102634515D02*
G01*
X123188388Y-102661612D01*
X123215485Y-102702165D01*
X123225000Y-102750000D01*
X123225000Y-103000000D01*
X123215485Y-103047835D01*
X123188388Y-103088388D01*
X123147835Y-103115485D01*
X123100000Y-103125000D01*
X121725000Y-103125000D01*
X121677165Y-103115485D01*
X121636612Y-103088388D01*
X121609515Y-103047835D01*
X121600000Y-103000000D01*
X121600000Y-102750000D01*
X121609515Y-102702165D01*
X121636612Y-102661612D01*
X121677165Y-102634515D01*
X121725000Y-102625000D01*
X123100000Y-102625000D01*
X123147835Y-102634515D01*
G37*
G36*
X127263729Y-102392179D02*
G01*
X127315637Y-102426863D01*
X127350321Y-102478771D01*
X127362500Y-102540000D01*
X127362500Y-102860000D01*
X127350321Y-102921229D01*
X127315637Y-102973137D01*
X127263729Y-103007821D01*
X127202500Y-103020000D01*
X126807500Y-103020000D01*
X126746271Y-103007821D01*
X126694363Y-102973137D01*
X126659679Y-102921229D01*
X126647500Y-102860000D01*
X126647500Y-102540000D01*
X126659679Y-102478771D01*
X126694363Y-102426863D01*
X126746271Y-102392179D01*
X126807500Y-102380000D01*
X127202500Y-102380000D01*
X127263729Y-102392179D01*
G37*
G36*
X128458729Y-102392179D02*
G01*
X128510637Y-102426863D01*
X128545321Y-102478771D01*
X128557500Y-102540000D01*
X128557500Y-102860000D01*
X128545321Y-102921229D01*
X128510637Y-102973137D01*
X128458729Y-103007821D01*
X128397500Y-103020000D01*
X128002500Y-103020000D01*
X127941271Y-103007821D01*
X127889363Y-102973137D01*
X127854679Y-102921229D01*
X127842500Y-102860000D01*
X127842500Y-102540000D01*
X127854679Y-102478771D01*
X127889363Y-102426863D01*
X127941271Y-102392179D01*
X128002500Y-102380000D01*
X128397500Y-102380000D01*
X128458729Y-102392179D01*
G37*
G36*
X138561229Y-102392179D02*
G01*
X138613137Y-102426863D01*
X138647821Y-102478771D01*
X138660000Y-102540000D01*
X138660000Y-102860000D01*
X138647821Y-102921229D01*
X138613137Y-102973137D01*
X138561229Y-103007821D01*
X138500000Y-103020000D01*
X138105000Y-103020000D01*
X138043771Y-103007821D01*
X137991863Y-102973137D01*
X137957179Y-102921229D01*
X137945000Y-102860000D01*
X137945000Y-102540000D01*
X137957179Y-102478771D01*
X137991863Y-102426863D01*
X138043771Y-102392179D01*
X138105000Y-102380000D01*
X138500000Y-102380000D01*
X138561229Y-102392179D01*
G37*
G36*
X139756229Y-102392179D02*
G01*
X139808137Y-102426863D01*
X139842821Y-102478771D01*
X139855000Y-102540000D01*
X139855000Y-102860000D01*
X139842821Y-102921229D01*
X139808137Y-102973137D01*
X139756229Y-103007821D01*
X139695000Y-103020000D01*
X139300000Y-103020000D01*
X139238771Y-103007821D01*
X139186863Y-102973137D01*
X139152179Y-102921229D01*
X139140000Y-102860000D01*
X139140000Y-102540000D01*
X139152179Y-102478771D01*
X139186863Y-102426863D01*
X139238771Y-102392179D01*
X139300000Y-102380000D01*
X139695000Y-102380000D01*
X139756229Y-102392179D01*
G37*
G36*
X131028701Y-102705709D02*
G01*
X131053033Y-102721967D01*
X131069291Y-102746299D01*
X131075000Y-102775000D01*
X131075000Y-102925000D01*
X131069291Y-102953701D01*
X131053033Y-102978033D01*
X131028701Y-102994291D01*
X131000000Y-103000000D01*
X129675000Y-103000000D01*
X129646299Y-102994291D01*
X129621967Y-102978033D01*
X129605709Y-102953701D01*
X129600000Y-102925000D01*
X129600000Y-102775000D01*
X129605709Y-102746299D01*
X129621967Y-102721967D01*
X129646299Y-102705709D01*
X129675000Y-102700000D01*
X131000000Y-102700000D01*
X131028701Y-102705709D01*
G37*
G36*
X137353701Y-102705709D02*
G01*
X137378033Y-102721967D01*
X137394291Y-102746299D01*
X137400000Y-102775000D01*
X137400000Y-102925000D01*
X137394291Y-102953701D01*
X137378033Y-102978033D01*
X137353701Y-102994291D01*
X137325000Y-103000000D01*
X136000000Y-103000000D01*
X135971299Y-102994291D01*
X135946967Y-102978033D01*
X135930709Y-102953701D01*
X135925000Y-102925000D01*
X135925000Y-102775000D01*
X135930709Y-102746299D01*
X135946967Y-102721967D01*
X135971299Y-102705709D01*
X136000000Y-102700000D01*
X137325000Y-102700000D01*
X137353701Y-102705709D01*
G37*
G36*
X144056400Y-102753201D02*
G01*
X143243600Y-102753201D01*
X143243600Y-102346801D01*
X144056400Y-102346801D01*
X144056400Y-102753201D01*
G37*
G36*
X158056398Y-102753201D02*
G01*
X157243598Y-102753201D01*
X157243598Y-102346801D01*
X158056398Y-102346801D01*
X158056398Y-102753201D01*
G37*
G36*
X141211228Y-101992180D02*
G01*
X141263136Y-102026864D01*
X141297820Y-102078772D01*
X141309999Y-102140001D01*
X141309999Y-102460001D01*
X141297820Y-102521230D01*
X141263136Y-102573138D01*
X141211228Y-102607822D01*
X141149999Y-102620001D01*
X140754999Y-102620001D01*
X140693770Y-102607822D01*
X140641862Y-102573138D01*
X140607178Y-102521230D01*
X140594999Y-102460001D01*
X140594999Y-102140001D01*
X140607178Y-102078772D01*
X140641862Y-102026864D01*
X140693770Y-101992180D01*
X140754999Y-101980001D01*
X141149999Y-101980001D01*
X141211228Y-101992180D01*
G37*
G36*
X142406228Y-101992180D02*
G01*
X142458136Y-102026864D01*
X142492820Y-102078772D01*
X142504999Y-102140001D01*
X142504999Y-102460001D01*
X142492820Y-102521230D01*
X142458136Y-102573138D01*
X142406228Y-102607822D01*
X142344999Y-102620001D01*
X141949999Y-102620001D01*
X141888770Y-102607822D01*
X141836862Y-102573138D01*
X141802178Y-102521230D01*
X141789999Y-102460001D01*
X141789999Y-102140001D01*
X141802178Y-102078772D01*
X141836862Y-102026864D01*
X141888770Y-101992180D01*
X141949999Y-101980001D01*
X142344999Y-101980001D01*
X142406228Y-101992180D01*
G37*
G36*
X114561229Y-101947179D02*
G01*
X114613137Y-101981863D01*
X114647821Y-102033771D01*
X114660000Y-102095000D01*
X114660000Y-102415000D01*
X114647821Y-102476229D01*
X114613137Y-102528137D01*
X114561229Y-102562821D01*
X114500000Y-102575000D01*
X114105000Y-102575000D01*
X114043771Y-102562821D01*
X113991863Y-102528137D01*
X113957179Y-102476229D01*
X113945000Y-102415000D01*
X113945000Y-102095000D01*
X113957179Y-102033771D01*
X113991863Y-101981863D01*
X114043771Y-101947179D01*
X114105000Y-101935000D01*
X114500000Y-101935000D01*
X114561229Y-101947179D01*
G37*
G36*
X115756229Y-101947179D02*
G01*
X115808137Y-101981863D01*
X115842821Y-102033771D01*
X115855000Y-102095000D01*
X115855000Y-102415000D01*
X115842821Y-102476229D01*
X115808137Y-102528137D01*
X115756229Y-102562821D01*
X115695000Y-102575000D01*
X115300000Y-102575000D01*
X115238771Y-102562821D01*
X115186863Y-102528137D01*
X115152179Y-102476229D01*
X115140000Y-102415000D01*
X115140000Y-102095000D01*
X115152179Y-102033771D01*
X115186863Y-101981863D01*
X115238771Y-101947179D01*
X115300000Y-101935000D01*
X115695000Y-101935000D01*
X115756229Y-101947179D01*
G37*
G36*
X116821229Y-101807179D02*
G01*
X116873137Y-101841863D01*
X116907821Y-101893771D01*
X116920000Y-101955000D01*
X116920000Y-102350000D01*
X116907821Y-102411229D01*
X116873137Y-102463137D01*
X116821229Y-102497821D01*
X116760000Y-102510000D01*
X116440000Y-102510000D01*
X116378771Y-102497821D01*
X116326863Y-102463137D01*
X116292179Y-102411229D01*
X116280000Y-102350000D01*
X116280000Y-101955000D01*
X116292179Y-101893771D01*
X116326863Y-101841863D01*
X116378771Y-101807179D01*
X116440000Y-101795000D01*
X116760000Y-101795000D01*
X116821229Y-101807179D01*
G37*
G36*
X131028701Y-102205709D02*
G01*
X131053033Y-102221967D01*
X131069291Y-102246299D01*
X131075000Y-102275000D01*
X131075000Y-102425000D01*
X131069291Y-102453701D01*
X131053033Y-102478033D01*
X131028701Y-102494291D01*
X131000000Y-102500000D01*
X129675000Y-102500000D01*
X129646299Y-102494291D01*
X129621967Y-102478033D01*
X129605709Y-102453701D01*
X129600000Y-102425000D01*
X129600000Y-102275000D01*
X129605709Y-102246299D01*
X129621967Y-102221967D01*
X129646299Y-102205709D01*
X129675000Y-102200000D01*
X131000000Y-102200000D01*
X131028701Y-102205709D01*
G37*
G36*
X137353701Y-102205709D02*
G01*
X137378033Y-102221967D01*
X137394291Y-102246299D01*
X137400000Y-102275000D01*
X137400000Y-102425000D01*
X137394291Y-102453701D01*
X137378033Y-102478033D01*
X137353701Y-102494291D01*
X137325000Y-102500000D01*
X136000000Y-102500000D01*
X135971299Y-102494291D01*
X135946967Y-102478033D01*
X135930709Y-102453701D01*
X135925000Y-102425000D01*
X135925000Y-102275000D01*
X135930709Y-102246299D01*
X135946967Y-102221967D01*
X135971299Y-102205709D01*
X136000000Y-102200000D01*
X137325000Y-102200000D01*
X137353701Y-102205709D01*
G37*
G36*
X118922835Y-101984515D02*
G01*
X118963388Y-102011612D01*
X118990485Y-102052165D01*
X119000000Y-102100000D01*
X119000000Y-102350000D01*
X118990485Y-102397835D01*
X118963388Y-102438388D01*
X118922835Y-102465485D01*
X118875000Y-102475000D01*
X117500000Y-102475000D01*
X117452165Y-102465485D01*
X117411612Y-102438388D01*
X117384515Y-102397835D01*
X117375000Y-102350000D01*
X117375000Y-102100000D01*
X117384515Y-102052165D01*
X117411612Y-102011612D01*
X117452165Y-101984515D01*
X117500000Y-101975000D01*
X118875000Y-101975000D01*
X118922835Y-101984515D01*
G37*
G36*
X123147835Y-101984515D02*
G01*
X123188388Y-102011612D01*
X123215485Y-102052165D01*
X123225000Y-102100000D01*
X123225000Y-102350000D01*
X123215485Y-102397835D01*
X123188388Y-102438388D01*
X123147835Y-102465485D01*
X123100000Y-102475000D01*
X121725000Y-102475000D01*
X121677165Y-102465485D01*
X121636612Y-102438388D01*
X121609515Y-102397835D01*
X121600000Y-102350000D01*
X121600000Y-102100000D01*
X121609515Y-102052165D01*
X121636612Y-102011612D01*
X121677165Y-101984515D01*
X121725000Y-101975000D01*
X123100000Y-101975000D01*
X123147835Y-101984515D01*
G37*
G36*
X149596899Y-102246901D02*
G01*
X148403099Y-102246901D01*
X148403099Y-101053101D01*
X149596899Y-101053101D01*
X149596899Y-102246901D01*
G37*
G36*
X151246899Y-102246901D02*
G01*
X150053099Y-102246901D01*
X150053099Y-101053101D01*
X151246899Y-101053101D01*
X151246899Y-102246901D01*
G37*
G36*
X152896899Y-102246901D02*
G01*
X151703099Y-102246901D01*
X151703099Y-101053101D01*
X152896899Y-101053101D01*
X152896899Y-102246901D01*
G37*
G36*
X127306816Y-101401799D02*
G01*
X127357102Y-101435398D01*
X127390701Y-101485684D01*
X127402500Y-101545000D01*
X127402500Y-101855000D01*
X127390701Y-101914316D01*
X127357102Y-101964602D01*
X127306816Y-101998201D01*
X127247500Y-102010000D01*
X126822500Y-102010000D01*
X126763184Y-101998201D01*
X126712898Y-101964602D01*
X126679299Y-101914316D01*
X126667500Y-101855000D01*
X126667500Y-101545000D01*
X126679299Y-101485684D01*
X126712898Y-101435398D01*
X126763184Y-101401799D01*
X126822500Y-101390000D01*
X127247500Y-101390000D01*
X127306816Y-101401799D01*
G37*
G36*
X128441816Y-101401799D02*
G01*
X128492102Y-101435398D01*
X128525701Y-101485684D01*
X128537500Y-101545000D01*
X128537500Y-101855000D01*
X128525701Y-101914316D01*
X128492102Y-101964602D01*
X128441816Y-101998201D01*
X128382500Y-102010000D01*
X127957500Y-102010000D01*
X127898184Y-101998201D01*
X127847898Y-101964602D01*
X127814299Y-101914316D01*
X127802500Y-101855000D01*
X127802500Y-101545000D01*
X127814299Y-101485684D01*
X127847898Y-101435398D01*
X127898184Y-101401799D01*
X127957500Y-101390000D01*
X128382500Y-101390000D01*
X128441816Y-101401799D01*
G37*
G36*
X131028701Y-101705709D02*
G01*
X131053033Y-101721967D01*
X131069291Y-101746299D01*
X131075000Y-101775000D01*
X131075000Y-101925000D01*
X131069291Y-101953701D01*
X131053033Y-101978033D01*
X131028701Y-101994291D01*
X131000000Y-102000000D01*
X129675000Y-102000000D01*
X129646299Y-101994291D01*
X129621967Y-101978033D01*
X129605709Y-101953701D01*
X129600000Y-101925000D01*
X129600000Y-101775000D01*
X129605709Y-101746299D01*
X129621967Y-101721967D01*
X129646299Y-101705709D01*
X129675000Y-101700000D01*
X131000000Y-101700000D01*
X131028701Y-101705709D01*
G37*
G36*
X137353701Y-101705709D02*
G01*
X137378033Y-101721967D01*
X137394291Y-101746299D01*
X137400000Y-101775000D01*
X137400000Y-101925000D01*
X137394291Y-101953701D01*
X137378033Y-101978033D01*
X137353701Y-101994291D01*
X137325000Y-102000000D01*
X136000000Y-102000000D01*
X135971299Y-101994291D01*
X135946967Y-101978033D01*
X135930709Y-101953701D01*
X135925000Y-101925000D01*
X135925000Y-101775000D01*
X135930709Y-101746299D01*
X135946967Y-101721967D01*
X135971299Y-101705709D01*
X136000000Y-101700000D01*
X137325000Y-101700000D01*
X137353701Y-101705709D01*
G37*
G36*
X144056400Y-101903200D02*
G01*
X143243600Y-101903200D01*
X143243600Y-101496800D01*
X144056400Y-101496800D01*
X144056400Y-101903200D01*
G37*
G36*
X158056398Y-101903200D02*
G01*
X157243598Y-101903200D01*
X157243598Y-101496800D01*
X158056398Y-101496800D01*
X158056398Y-101903200D01*
G37*
G36*
X118922835Y-101334515D02*
G01*
X118963388Y-101361612D01*
X118990485Y-101402165D01*
X119000000Y-101450000D01*
X119000000Y-101700000D01*
X118990485Y-101747835D01*
X118963388Y-101788388D01*
X118922835Y-101815485D01*
X118875000Y-101825000D01*
X117500000Y-101825000D01*
X117452165Y-101815485D01*
X117411612Y-101788388D01*
X117384515Y-101747835D01*
X117375000Y-101700000D01*
X117375000Y-101450000D01*
X117384515Y-101402165D01*
X117411612Y-101361612D01*
X117452165Y-101334515D01*
X117500000Y-101325000D01*
X118875000Y-101325000D01*
X118922835Y-101334515D01*
G37*
G36*
X123147835Y-101334515D02*
G01*
X123188388Y-101361612D01*
X123215485Y-101402165D01*
X123225000Y-101450000D01*
X123225000Y-101700000D01*
X123215485Y-101747835D01*
X123188388Y-101788388D01*
X123147835Y-101815485D01*
X123100000Y-101825000D01*
X121725000Y-101825000D01*
X121677165Y-101815485D01*
X121636612Y-101788388D01*
X121609515Y-101747835D01*
X121600000Y-101700000D01*
X121600000Y-101450000D01*
X121609515Y-101402165D01*
X121636612Y-101361612D01*
X121677165Y-101334515D01*
X121725000Y-101325000D01*
X123100000Y-101325000D01*
X123147835Y-101334515D01*
G37*
G36*
X141211228Y-100992180D02*
G01*
X141263136Y-101026864D01*
X141297820Y-101078772D01*
X141309999Y-101140001D01*
X141309999Y-101460001D01*
X141297820Y-101521230D01*
X141263136Y-101573138D01*
X141211228Y-101607822D01*
X141149999Y-101620001D01*
X140754999Y-101620001D01*
X140693770Y-101607822D01*
X140641862Y-101573138D01*
X140607178Y-101521230D01*
X140594999Y-101460001D01*
X140594999Y-101140001D01*
X140607178Y-101078772D01*
X140641862Y-101026864D01*
X140693770Y-100992180D01*
X140754999Y-100980001D01*
X141149999Y-100980001D01*
X141211228Y-100992180D01*
G37*
G36*
X142406228Y-100992180D02*
G01*
X142458136Y-101026864D01*
X142492820Y-101078772D01*
X142504999Y-101140001D01*
X142504999Y-101460001D01*
X142492820Y-101521230D01*
X142458136Y-101573138D01*
X142406228Y-101607822D01*
X142344999Y-101620001D01*
X141949999Y-101620001D01*
X141888770Y-101607822D01*
X141836862Y-101573138D01*
X141802178Y-101521230D01*
X141789999Y-101460001D01*
X141789999Y-101140001D01*
X141802178Y-101078772D01*
X141836862Y-101026864D01*
X141888770Y-100992180D01*
X141949999Y-100980001D01*
X142344999Y-100980001D01*
X142406228Y-100992180D01*
G37*
G36*
X131028701Y-101205709D02*
G01*
X131053033Y-101221967D01*
X131069291Y-101246299D01*
X131075000Y-101275000D01*
X131075000Y-101425000D01*
X131069291Y-101453701D01*
X131053033Y-101478033D01*
X131028701Y-101494291D01*
X131000000Y-101500000D01*
X129675000Y-101500000D01*
X129646299Y-101494291D01*
X129621967Y-101478033D01*
X129605709Y-101453701D01*
X129600000Y-101425000D01*
X129600000Y-101275000D01*
X129605709Y-101246299D01*
X129621967Y-101221967D01*
X129646299Y-101205709D01*
X129675000Y-101200000D01*
X131000000Y-101200000D01*
X131028701Y-101205709D01*
G37*
G36*
X137353701Y-101205709D02*
G01*
X137378033Y-101221967D01*
X137394291Y-101246299D01*
X137400000Y-101275000D01*
X137400000Y-101425000D01*
X137394291Y-101453701D01*
X137378033Y-101478033D01*
X137353701Y-101494291D01*
X137325000Y-101500000D01*
X136000000Y-101500000D01*
X135971299Y-101494291D01*
X135946967Y-101478033D01*
X135930709Y-101453701D01*
X135925000Y-101425000D01*
X135925000Y-101275000D01*
X135930709Y-101246299D01*
X135946967Y-101221967D01*
X135971299Y-101205709D01*
X136000000Y-101200000D01*
X137325000Y-101200000D01*
X137353701Y-101205709D01*
G37*
G36*
X111261229Y-100692179D02*
G01*
X111313137Y-100726863D01*
X111347821Y-100778771D01*
X111360000Y-100840000D01*
X111360000Y-101160000D01*
X111347821Y-101221229D01*
X111313137Y-101273137D01*
X111261229Y-101307821D01*
X111200000Y-101320000D01*
X110805000Y-101320000D01*
X110743771Y-101307821D01*
X110691863Y-101273137D01*
X110657179Y-101221229D01*
X110645000Y-101160000D01*
X110645000Y-100840000D01*
X110657179Y-100778771D01*
X110691863Y-100726863D01*
X110743771Y-100692179D01*
X110805000Y-100680000D01*
X111200000Y-100680000D01*
X111261229Y-100692179D01*
G37*
G36*
X112456229Y-100692179D02*
G01*
X112508137Y-100726863D01*
X112542821Y-100778771D01*
X112555000Y-100840000D01*
X112555000Y-101160000D01*
X112542821Y-101221229D01*
X112508137Y-101273137D01*
X112456229Y-101307821D01*
X112395000Y-101320000D01*
X112000000Y-101320000D01*
X111938771Y-101307821D01*
X111886863Y-101273137D01*
X111852179Y-101221229D01*
X111840000Y-101160000D01*
X111840000Y-100840000D01*
X111852179Y-100778771D01*
X111886863Y-100726863D01*
X111938771Y-100692179D01*
X112000000Y-100680000D01*
X112395000Y-100680000D01*
X112456229Y-100692179D01*
G37*
G36*
X116821229Y-100612179D02*
G01*
X116873137Y-100646863D01*
X116907821Y-100698771D01*
X116920000Y-100760000D01*
X116920000Y-101155000D01*
X116907821Y-101216229D01*
X116873137Y-101268137D01*
X116821229Y-101302821D01*
X116760000Y-101315000D01*
X116440000Y-101315000D01*
X116378771Y-101302821D01*
X116326863Y-101268137D01*
X116292179Y-101216229D01*
X116280000Y-101155000D01*
X116280000Y-100760000D01*
X116292179Y-100698771D01*
X116326863Y-100646863D01*
X116378771Y-100612179D01*
X116440000Y-100600000D01*
X116760000Y-100600000D01*
X116821229Y-100612179D01*
G37*
G36*
X118922835Y-100684515D02*
G01*
X118963388Y-100711612D01*
X118990485Y-100752165D01*
X119000000Y-100800000D01*
X119000000Y-101050000D01*
X118990485Y-101097835D01*
X118963388Y-101138388D01*
X118922835Y-101165485D01*
X118875000Y-101175000D01*
X117500000Y-101175000D01*
X117452165Y-101165485D01*
X117411612Y-101138388D01*
X117384515Y-101097835D01*
X117375000Y-101050000D01*
X117375000Y-100800000D01*
X117384515Y-100752165D01*
X117411612Y-100711612D01*
X117452165Y-100684515D01*
X117500000Y-100675000D01*
X118875000Y-100675000D01*
X118922835Y-100684515D01*
G37*
G36*
X123147835Y-100684515D02*
G01*
X123188388Y-100711612D01*
X123215485Y-100752165D01*
X123225000Y-100800000D01*
X123225000Y-101050000D01*
X123215485Y-101097835D01*
X123188388Y-101138388D01*
X123147835Y-101165485D01*
X123100000Y-101175000D01*
X121725000Y-101175000D01*
X121677165Y-101165485D01*
X121636612Y-101138388D01*
X121609515Y-101097835D01*
X121600000Y-101050000D01*
X121600000Y-100800000D01*
X121609515Y-100752165D01*
X121636612Y-100711612D01*
X121677165Y-100684515D01*
X121725000Y-100675000D01*
X123100000Y-100675000D01*
X123147835Y-100684515D01*
G37*
G36*
X138461229Y-100492179D02*
G01*
X138513137Y-100526863D01*
X138547821Y-100578771D01*
X138560000Y-100640000D01*
X138560000Y-100960000D01*
X138547821Y-101021229D01*
X138513137Y-101073137D01*
X138461229Y-101107821D01*
X138400000Y-101120000D01*
X138005000Y-101120000D01*
X137943771Y-101107821D01*
X137891863Y-101073137D01*
X137857179Y-101021229D01*
X137845000Y-100960000D01*
X137845000Y-100640000D01*
X137857179Y-100578771D01*
X137891863Y-100526863D01*
X137943771Y-100492179D01*
X138005000Y-100480000D01*
X138400000Y-100480000D01*
X138461229Y-100492179D01*
G37*
G36*
X139656229Y-100492179D02*
G01*
X139708137Y-100526863D01*
X139742821Y-100578771D01*
X139755000Y-100640000D01*
X139755000Y-100960000D01*
X139742821Y-101021229D01*
X139708137Y-101073137D01*
X139656229Y-101107821D01*
X139595000Y-101120000D01*
X139200000Y-101120000D01*
X139138771Y-101107821D01*
X139086863Y-101073137D01*
X139052179Y-101021229D01*
X139040000Y-100960000D01*
X139040000Y-100640000D01*
X139052179Y-100578771D01*
X139086863Y-100526863D01*
X139138771Y-100492179D01*
X139200000Y-100480000D01*
X139595000Y-100480000D01*
X139656229Y-100492179D01*
G37*
G36*
X144056400Y-101053202D02*
G01*
X143243600Y-101053202D01*
X143243600Y-100646802D01*
X144056400Y-100646802D01*
X144056400Y-101053202D01*
G37*
G36*
X158056398Y-101053202D02*
G01*
X157243598Y-101053202D01*
X157243598Y-100646802D01*
X158056398Y-100646802D01*
X158056398Y-101053202D01*
G37*
G36*
X126861229Y-100092179D02*
G01*
X126913137Y-100126863D01*
X126947821Y-100178771D01*
X126960000Y-100240000D01*
X126960000Y-100560000D01*
X126947821Y-100621229D01*
X126913137Y-100673137D01*
X126861229Y-100707821D01*
X126800000Y-100720000D01*
X126405000Y-100720000D01*
X126343771Y-100707821D01*
X126291863Y-100673137D01*
X126257179Y-100621229D01*
X126245000Y-100560000D01*
X126245000Y-100240000D01*
X126257179Y-100178771D01*
X126291863Y-100126863D01*
X126343771Y-100092179D01*
X126405000Y-100080000D01*
X126800000Y-100080000D01*
X126861229Y-100092179D01*
G37*
G36*
X128056229Y-100092179D02*
G01*
X128108137Y-100126863D01*
X128142821Y-100178771D01*
X128155000Y-100240000D01*
X128155000Y-100560000D01*
X128142821Y-100621229D01*
X128108137Y-100673137D01*
X128056229Y-100707821D01*
X127995000Y-100720000D01*
X127600000Y-100720000D01*
X127538771Y-100707821D01*
X127486863Y-100673137D01*
X127452179Y-100621229D01*
X127440000Y-100560000D01*
X127440000Y-100240000D01*
X127452179Y-100178771D01*
X127486863Y-100126863D01*
X127538771Y-100092179D01*
X127600000Y-100080000D01*
X127995000Y-100080000D01*
X128056229Y-100092179D01*
G37*
G36*
X129158729Y-100092179D02*
G01*
X129210637Y-100126863D01*
X129245321Y-100178771D01*
X129257500Y-100240000D01*
X129257500Y-100560000D01*
X129245321Y-100621229D01*
X129210637Y-100673137D01*
X129158729Y-100707821D01*
X129097500Y-100720000D01*
X128702500Y-100720000D01*
X128641271Y-100707821D01*
X128589363Y-100673137D01*
X128554679Y-100621229D01*
X128542500Y-100560000D01*
X128542500Y-100240000D01*
X128554679Y-100178771D01*
X128589363Y-100126863D01*
X128641271Y-100092179D01*
X128702500Y-100080000D01*
X129097500Y-100080000D01*
X129158729Y-100092179D01*
G37*
G36*
X130353729Y-100092179D02*
G01*
X130405637Y-100126863D01*
X130440321Y-100178771D01*
X130452500Y-100240000D01*
X130452500Y-100560000D01*
X130440321Y-100621229D01*
X130405637Y-100673137D01*
X130353729Y-100707821D01*
X130292500Y-100720000D01*
X129897500Y-100720000D01*
X129836271Y-100707821D01*
X129784363Y-100673137D01*
X129749679Y-100621229D01*
X129737500Y-100560000D01*
X129737500Y-100240000D01*
X129749679Y-100178771D01*
X129784363Y-100126863D01*
X129836271Y-100092179D01*
X129897500Y-100080000D01*
X130292500Y-100080000D01*
X130353729Y-100092179D01*
G37*
G36*
X131853701Y-99205709D02*
G01*
X131878033Y-99221967D01*
X131894291Y-99246299D01*
X131900000Y-99275000D01*
X131900000Y-100600000D01*
X131894291Y-100628701D01*
X131878033Y-100653033D01*
X131853701Y-100669291D01*
X131825000Y-100675000D01*
X131675000Y-100675000D01*
X131646299Y-100669291D01*
X131621967Y-100653033D01*
X131605709Y-100628701D01*
X131600000Y-100600000D01*
X131600000Y-99275000D01*
X131605709Y-99246299D01*
X131621967Y-99221967D01*
X131646299Y-99205709D01*
X131675000Y-99200000D01*
X131825000Y-99200000D01*
X131853701Y-99205709D01*
G37*
G36*
X132353701Y-99205709D02*
G01*
X132378033Y-99221967D01*
X132394291Y-99246299D01*
X132400000Y-99275000D01*
X132400000Y-100600000D01*
X132394291Y-100628701D01*
X132378033Y-100653033D01*
X132353701Y-100669291D01*
X132325000Y-100675000D01*
X132175000Y-100675000D01*
X132146299Y-100669291D01*
X132121967Y-100653033D01*
X132105709Y-100628701D01*
X132100000Y-100600000D01*
X132100000Y-99275000D01*
X132105709Y-99246299D01*
X132121967Y-99221967D01*
X132146299Y-99205709D01*
X132175000Y-99200000D01*
X132325000Y-99200000D01*
X132353701Y-99205709D01*
G37*
G36*
X132853701Y-99205709D02*
G01*
X132878033Y-99221967D01*
X132894291Y-99246299D01*
X132900000Y-99275000D01*
X132900000Y-100600000D01*
X132894291Y-100628701D01*
X132878033Y-100653033D01*
X132853701Y-100669291D01*
X132825000Y-100675000D01*
X132675000Y-100675000D01*
X132646299Y-100669291D01*
X132621967Y-100653033D01*
X132605709Y-100628701D01*
X132600000Y-100600000D01*
X132600000Y-99275000D01*
X132605709Y-99246299D01*
X132621967Y-99221967D01*
X132646299Y-99205709D01*
X132675000Y-99200000D01*
X132825000Y-99200000D01*
X132853701Y-99205709D01*
G37*
G36*
X133353701Y-99205709D02*
G01*
X133378033Y-99221967D01*
X133394291Y-99246299D01*
X133400000Y-99275000D01*
X133400000Y-100600000D01*
X133394291Y-100628701D01*
X133378033Y-100653033D01*
X133353701Y-100669291D01*
X133325000Y-100675000D01*
X133175000Y-100675000D01*
X133146299Y-100669291D01*
X133121967Y-100653033D01*
X133105709Y-100628701D01*
X133100000Y-100600000D01*
X133100000Y-99275000D01*
X133105709Y-99246299D01*
X133121967Y-99221967D01*
X133146299Y-99205709D01*
X133175000Y-99200000D01*
X133325000Y-99200000D01*
X133353701Y-99205709D01*
G37*
G36*
X133853701Y-99205709D02*
G01*
X133878033Y-99221967D01*
X133894291Y-99246299D01*
X133900000Y-99275000D01*
X133900000Y-100600000D01*
X133894291Y-100628701D01*
X133878033Y-100653033D01*
X133853701Y-100669291D01*
X133825000Y-100675000D01*
X133675000Y-100675000D01*
X133646299Y-100669291D01*
X133621967Y-100653033D01*
X133605709Y-100628701D01*
X133600000Y-100600000D01*
X133600000Y-99275000D01*
X133605709Y-99246299D01*
X133621967Y-99221967D01*
X133646299Y-99205709D01*
X133675000Y-99200000D01*
X133825000Y-99200000D01*
X133853701Y-99205709D01*
G37*
G36*
X134353701Y-99205709D02*
G01*
X134378033Y-99221967D01*
X134394291Y-99246299D01*
X134400000Y-99275000D01*
X134400000Y-100600000D01*
X134394291Y-100628701D01*
X134378033Y-100653033D01*
X134353701Y-100669291D01*
X134325000Y-100675000D01*
X134175000Y-100675000D01*
X134146299Y-100669291D01*
X134121967Y-100653033D01*
X134105709Y-100628701D01*
X134100000Y-100600000D01*
X134100000Y-99275000D01*
X134105709Y-99246299D01*
X134121967Y-99221967D01*
X134146299Y-99205709D01*
X134175000Y-99200000D01*
X134325000Y-99200000D01*
X134353701Y-99205709D01*
G37*
G36*
X134853701Y-99205709D02*
G01*
X134878033Y-99221967D01*
X134894291Y-99246299D01*
X134900000Y-99275000D01*
X134900000Y-100600000D01*
X134894291Y-100628701D01*
X134878033Y-100653033D01*
X134853701Y-100669291D01*
X134825000Y-100675000D01*
X134675000Y-100675000D01*
X134646299Y-100669291D01*
X134621967Y-100653033D01*
X134605709Y-100628701D01*
X134600000Y-100600000D01*
X134600000Y-99275000D01*
X134605709Y-99246299D01*
X134621967Y-99221967D01*
X134646299Y-99205709D01*
X134675000Y-99200000D01*
X134825000Y-99200000D01*
X134853701Y-99205709D01*
G37*
G36*
X135353701Y-99205709D02*
G01*
X135378033Y-99221967D01*
X135394291Y-99246299D01*
X135400000Y-99275000D01*
X135400000Y-100600000D01*
X135394291Y-100628701D01*
X135378033Y-100653033D01*
X135353701Y-100669291D01*
X135325000Y-100675000D01*
X135175000Y-100675000D01*
X135146299Y-100669291D01*
X135121967Y-100653033D01*
X135105709Y-100628701D01*
X135100000Y-100600000D01*
X135100000Y-99275000D01*
X135105709Y-99246299D01*
X135121967Y-99221967D01*
X135146299Y-99205709D01*
X135175000Y-99200000D01*
X135325000Y-99200000D01*
X135353701Y-99205709D01*
G37*
G36*
X141211228Y-99992180D02*
G01*
X141263136Y-100026864D01*
X141297820Y-100078772D01*
X141309999Y-100140001D01*
X141309999Y-100460001D01*
X141297820Y-100521230D01*
X141263136Y-100573138D01*
X141211228Y-100607822D01*
X141149999Y-100620001D01*
X140754999Y-100620001D01*
X140693770Y-100607822D01*
X140641862Y-100573138D01*
X140607178Y-100521230D01*
X140594999Y-100460001D01*
X140594999Y-100140001D01*
X140607178Y-100078772D01*
X140641862Y-100026864D01*
X140693770Y-99992180D01*
X140754999Y-99980001D01*
X141149999Y-99980001D01*
X141211228Y-99992180D01*
G37*
G36*
X142406228Y-99992180D02*
G01*
X142458136Y-100026864D01*
X142492820Y-100078772D01*
X142504999Y-100140001D01*
X142504999Y-100460001D01*
X142492820Y-100521230D01*
X142458136Y-100573138D01*
X142406228Y-100607822D01*
X142344999Y-100620001D01*
X141949999Y-100620001D01*
X141888770Y-100607822D01*
X141836862Y-100573138D01*
X141802178Y-100521230D01*
X141789999Y-100460001D01*
X141789999Y-100140001D01*
X141802178Y-100078772D01*
X141836862Y-100026864D01*
X141888770Y-99992180D01*
X141949999Y-99980001D01*
X142344999Y-99980001D01*
X142406228Y-99992180D01*
G37*
G36*
X149596899Y-100596901D02*
G01*
X148403099Y-100596901D01*
X148403099Y-99403101D01*
X149596899Y-99403101D01*
X149596899Y-100596901D01*
G37*
G36*
X151246899Y-100596901D02*
G01*
X150053099Y-100596901D01*
X150053099Y-99403101D01*
X151246899Y-99403101D01*
X151246899Y-100596901D01*
G37*
G36*
X152896899Y-100596901D02*
G01*
X151703099Y-100596901D01*
X151703099Y-99403101D01*
X152896899Y-99403101D01*
X152896899Y-100596901D01*
G37*
G36*
X111261229Y-99692179D02*
G01*
X111313137Y-99726863D01*
X111347821Y-99778771D01*
X111360000Y-99840000D01*
X111360000Y-100160000D01*
X111347821Y-100221229D01*
X111313137Y-100273137D01*
X111261229Y-100307821D01*
X111200000Y-100320000D01*
X110805000Y-100320000D01*
X110743771Y-100307821D01*
X110691863Y-100273137D01*
X110657179Y-100221229D01*
X110645000Y-100160000D01*
X110645000Y-99840000D01*
X110657179Y-99778771D01*
X110691863Y-99726863D01*
X110743771Y-99692179D01*
X110805000Y-99680000D01*
X111200000Y-99680000D01*
X111261229Y-99692179D01*
G37*
G36*
X112456229Y-99692179D02*
G01*
X112508137Y-99726863D01*
X112542821Y-99778771D01*
X112555000Y-99840000D01*
X112555000Y-100160000D01*
X112542821Y-100221229D01*
X112508137Y-100273137D01*
X112456229Y-100307821D01*
X112395000Y-100320000D01*
X112000000Y-100320000D01*
X111938771Y-100307821D01*
X111886863Y-100273137D01*
X111852179Y-100221229D01*
X111840000Y-100160000D01*
X111840000Y-99840000D01*
X111852179Y-99778771D01*
X111886863Y-99726863D01*
X111938771Y-99692179D01*
X112000000Y-99680000D01*
X112395000Y-99680000D01*
X112456229Y-99692179D01*
G37*
G36*
X144056400Y-100203201D02*
G01*
X143243600Y-100203201D01*
X143243600Y-99796801D01*
X144056400Y-99796801D01*
X144056400Y-100203201D01*
G37*
G36*
X158056398Y-100203201D02*
G01*
X157243598Y-100203201D01*
X157243598Y-99796801D01*
X158056398Y-99796801D01*
X158056398Y-100203201D01*
G37*
G36*
X122904316Y-99501799D02*
G01*
X122954602Y-99535398D01*
X122988201Y-99585684D01*
X123000000Y-99645000D01*
X123000000Y-99955000D01*
X122988201Y-100014316D01*
X122954602Y-100064602D01*
X122904316Y-100098201D01*
X122845000Y-100110000D01*
X122420000Y-100110000D01*
X122360684Y-100098201D01*
X122310398Y-100064602D01*
X122276799Y-100014316D01*
X122265000Y-99955000D01*
X122265000Y-99645000D01*
X122276799Y-99585684D01*
X122310398Y-99535398D01*
X122360684Y-99501799D01*
X122420000Y-99490000D01*
X122845000Y-99490000D01*
X122904316Y-99501799D01*
G37*
G36*
X124039316Y-99501799D02*
G01*
X124089602Y-99535398D01*
X124123201Y-99585684D01*
X124135000Y-99645000D01*
X124135000Y-99955000D01*
X124123201Y-100014316D01*
X124089602Y-100064602D01*
X124039316Y-100098201D01*
X123980000Y-100110000D01*
X123555000Y-100110000D01*
X123495684Y-100098201D01*
X123445398Y-100064602D01*
X123411799Y-100014316D01*
X123400000Y-99955000D01*
X123400000Y-99645000D01*
X123411799Y-99585684D01*
X123445398Y-99535398D01*
X123495684Y-99501799D01*
X123555000Y-99490000D01*
X123980000Y-99490000D01*
X124039316Y-99501799D01*
G37*
G36*
X138961228Y-99292180D02*
G01*
X139013136Y-99326864D01*
X139047820Y-99378772D01*
X139059999Y-99440001D01*
X139059999Y-99760001D01*
X139047820Y-99821230D01*
X139013136Y-99873138D01*
X138961228Y-99907822D01*
X138899999Y-99920001D01*
X138504999Y-99920001D01*
X138443770Y-99907822D01*
X138391862Y-99873138D01*
X138357178Y-99821230D01*
X138344999Y-99760001D01*
X138344999Y-99440001D01*
X138357178Y-99378772D01*
X138391862Y-99326864D01*
X138443770Y-99292180D01*
X138504999Y-99280001D01*
X138899999Y-99280001D01*
X138961228Y-99292180D01*
G37*
G36*
X140156228Y-99292180D02*
G01*
X140208136Y-99326864D01*
X140242820Y-99378772D01*
X140254999Y-99440001D01*
X140254999Y-99760001D01*
X140242820Y-99821230D01*
X140208136Y-99873138D01*
X140156228Y-99907822D01*
X140094999Y-99920001D01*
X139699999Y-99920001D01*
X139638770Y-99907822D01*
X139586862Y-99873138D01*
X139552178Y-99821230D01*
X139539999Y-99760001D01*
X139539999Y-99440001D01*
X139552178Y-99378772D01*
X139586862Y-99326864D01*
X139638770Y-99292180D01*
X139699999Y-99280001D01*
X140094999Y-99280001D01*
X140156228Y-99292180D01*
G37*
G36*
X161457403Y-98586418D02*
G01*
X161506066Y-98618934D01*
X161538582Y-98667597D01*
X161550000Y-98725000D01*
X161550000Y-99750000D01*
X161538582Y-99807403D01*
X161506066Y-99856066D01*
X161457403Y-99888582D01*
X161400000Y-99900000D01*
X161100000Y-99900000D01*
X161042597Y-99888582D01*
X160993934Y-99856066D01*
X160961418Y-99807403D01*
X160950000Y-99750000D01*
X160950000Y-98725000D01*
X160961418Y-98667597D01*
X160993934Y-98618934D01*
X161042597Y-98586418D01*
X161100000Y-98575000D01*
X161400000Y-98575000D01*
X161457403Y-98586418D01*
G37*
G36*
X162407403Y-98586418D02*
G01*
X162456066Y-98618934D01*
X162488582Y-98667597D01*
X162500000Y-98725000D01*
X162500000Y-99750000D01*
X162488582Y-99807403D01*
X162456066Y-99856066D01*
X162407403Y-99888582D01*
X162350000Y-99900000D01*
X162050000Y-99900000D01*
X161992597Y-99888582D01*
X161943934Y-99856066D01*
X161911418Y-99807403D01*
X161900000Y-99750000D01*
X161900000Y-98725000D01*
X161911418Y-98667597D01*
X161943934Y-98618934D01*
X161992597Y-98586418D01*
X162050000Y-98575000D01*
X162350000Y-98575000D01*
X162407403Y-98586418D01*
G37*
G36*
X163357403Y-98586418D02*
G01*
X163406066Y-98618934D01*
X163438582Y-98667597D01*
X163450000Y-98725000D01*
X163450000Y-99750000D01*
X163438582Y-99807403D01*
X163406066Y-99856066D01*
X163357403Y-99888582D01*
X163300000Y-99900000D01*
X163000000Y-99900000D01*
X162942597Y-99888582D01*
X162893934Y-99856066D01*
X162861418Y-99807403D01*
X162850000Y-99750000D01*
X162850000Y-98725000D01*
X162861418Y-98667597D01*
X162893934Y-98618934D01*
X162942597Y-98586418D01*
X163000000Y-98575000D01*
X163300000Y-98575000D01*
X163357403Y-98586418D01*
G37*
G36*
X129861229Y-99092179D02*
G01*
X129913137Y-99126863D01*
X129947821Y-99178771D01*
X129960000Y-99240000D01*
X129960000Y-99560000D01*
X129947821Y-99621229D01*
X129913137Y-99673137D01*
X129861229Y-99707821D01*
X129800000Y-99720000D01*
X129405000Y-99720000D01*
X129343771Y-99707821D01*
X129291863Y-99673137D01*
X129257179Y-99621229D01*
X129245000Y-99560000D01*
X129245000Y-99240000D01*
X129257179Y-99178771D01*
X129291863Y-99126863D01*
X129343771Y-99092179D01*
X129405000Y-99080000D01*
X129800000Y-99080000D01*
X129861229Y-99092179D01*
G37*
G36*
X131056229Y-99092179D02*
G01*
X131108137Y-99126863D01*
X131142821Y-99178771D01*
X131155000Y-99240000D01*
X131155000Y-99560000D01*
X131142821Y-99621229D01*
X131108137Y-99673137D01*
X131056229Y-99707821D01*
X130995000Y-99720000D01*
X130600000Y-99720000D01*
X130538771Y-99707821D01*
X130486863Y-99673137D01*
X130452179Y-99621229D01*
X130440000Y-99560000D01*
X130440000Y-99240000D01*
X130452179Y-99178771D01*
X130486863Y-99126863D01*
X130538771Y-99092179D01*
X130600000Y-99080000D01*
X130995000Y-99080000D01*
X131056229Y-99092179D01*
G37*
G36*
X144056400Y-99353200D02*
G01*
X143243600Y-99353200D01*
X143243600Y-98946800D01*
X144056400Y-98946800D01*
X144056400Y-99353200D01*
G37*
G36*
X158056398Y-99353200D02*
G01*
X157243598Y-99353200D01*
X157243598Y-98946800D01*
X158056398Y-98946800D01*
X158056398Y-99353200D01*
G37*
G36*
X111261229Y-98692179D02*
G01*
X111313137Y-98726863D01*
X111347821Y-98778771D01*
X111360000Y-98840000D01*
X111360000Y-99160000D01*
X111347821Y-99221229D01*
X111313137Y-99273137D01*
X111261229Y-99307821D01*
X111200000Y-99320000D01*
X110805000Y-99320000D01*
X110743771Y-99307821D01*
X110691863Y-99273137D01*
X110657179Y-99221229D01*
X110645000Y-99160000D01*
X110645000Y-98840000D01*
X110657179Y-98778771D01*
X110691863Y-98726863D01*
X110743771Y-98692179D01*
X110805000Y-98680000D01*
X111200000Y-98680000D01*
X111261229Y-98692179D01*
G37*
G36*
X112456229Y-98692179D02*
G01*
X112508137Y-98726863D01*
X112542821Y-98778771D01*
X112555000Y-98840000D01*
X112555000Y-99160000D01*
X112542821Y-99221229D01*
X112508137Y-99273137D01*
X112456229Y-99307821D01*
X112395000Y-99320000D01*
X112000000Y-99320000D01*
X111938771Y-99307821D01*
X111886863Y-99273137D01*
X111852179Y-99221229D01*
X111840000Y-99160000D01*
X111840000Y-98840000D01*
X111852179Y-98778771D01*
X111886863Y-98726863D01*
X111938771Y-98692179D01*
X112000000Y-98680000D01*
X112395000Y-98680000D01*
X112456229Y-98692179D01*
G37*
G36*
X141211228Y-98642180D02*
G01*
X141263136Y-98676864D01*
X141297820Y-98728772D01*
X141309999Y-98790001D01*
X141309999Y-99110001D01*
X141297820Y-99171230D01*
X141263136Y-99223138D01*
X141211228Y-99257822D01*
X141149999Y-99270001D01*
X140754999Y-99270001D01*
X140693770Y-99257822D01*
X140641862Y-99223138D01*
X140607178Y-99171230D01*
X140594999Y-99110001D01*
X140594999Y-98790001D01*
X140607178Y-98728772D01*
X140641862Y-98676864D01*
X140693770Y-98642180D01*
X140754999Y-98630001D01*
X141149999Y-98630001D01*
X141211228Y-98642180D01*
G37*
G36*
X142406228Y-98642180D02*
G01*
X142458136Y-98676864D01*
X142492820Y-98728772D01*
X142504999Y-98790001D01*
X142504999Y-99110001D01*
X142492820Y-99171230D01*
X142458136Y-99223138D01*
X142406228Y-99257822D01*
X142344999Y-99270001D01*
X141949999Y-99270001D01*
X141888770Y-99257822D01*
X141836862Y-99223138D01*
X141802178Y-99171230D01*
X141789999Y-99110001D01*
X141789999Y-98790001D01*
X141802178Y-98728772D01*
X141836862Y-98676864D01*
X141888770Y-98642180D01*
X141949999Y-98630001D01*
X142344999Y-98630001D01*
X142406228Y-98642180D01*
G37*
G36*
X159321229Y-98352179D02*
G01*
X159373137Y-98386863D01*
X159407821Y-98438771D01*
X159420000Y-98500000D01*
X159420000Y-98895000D01*
X159407821Y-98956229D01*
X159373137Y-99008137D01*
X159321229Y-99042821D01*
X159260000Y-99055000D01*
X158940000Y-99055000D01*
X158878771Y-99042821D01*
X158826863Y-99008137D01*
X158792179Y-98956229D01*
X158780000Y-98895000D01*
X158780000Y-98500000D01*
X158792179Y-98438771D01*
X158826863Y-98386863D01*
X158878771Y-98352179D01*
X158940000Y-98340000D01*
X159260000Y-98340000D01*
X159321229Y-98352179D01*
G37*
G36*
X115661229Y-98392179D02*
G01*
X115713137Y-98426863D01*
X115747821Y-98478771D01*
X115760000Y-98540000D01*
X115760000Y-98860000D01*
X115747821Y-98921229D01*
X115713137Y-98973137D01*
X115661229Y-99007821D01*
X115600000Y-99020000D01*
X115205000Y-99020000D01*
X115143771Y-99007821D01*
X115091863Y-98973137D01*
X115057179Y-98921229D01*
X115045000Y-98860000D01*
X115045000Y-98540000D01*
X115057179Y-98478771D01*
X115091863Y-98426863D01*
X115143771Y-98392179D01*
X115205000Y-98380000D01*
X115600000Y-98380000D01*
X115661229Y-98392179D01*
G37*
G36*
X116856229Y-98392179D02*
G01*
X116908137Y-98426863D01*
X116942821Y-98478771D01*
X116955000Y-98540000D01*
X116955000Y-98860000D01*
X116942821Y-98921229D01*
X116908137Y-98973137D01*
X116856229Y-99007821D01*
X116795000Y-99020000D01*
X116400000Y-99020000D01*
X116338771Y-99007821D01*
X116286863Y-98973137D01*
X116252179Y-98921229D01*
X116240000Y-98860000D01*
X116240000Y-98540000D01*
X116252179Y-98478771D01*
X116286863Y-98426863D01*
X116338771Y-98392179D01*
X116400000Y-98380000D01*
X116795000Y-98380000D01*
X116856229Y-98392179D01*
G37*
G36*
X149596899Y-98946901D02*
G01*
X148403099Y-98946901D01*
X148403099Y-97753101D01*
X149596899Y-97753101D01*
X149596899Y-98946901D01*
G37*
G36*
X151246899Y-98946901D02*
G01*
X150053099Y-98946901D01*
X150053099Y-97753101D01*
X151246899Y-97753101D01*
X151246899Y-98946901D01*
G37*
G36*
X152896899Y-98946901D02*
G01*
X151703099Y-98946901D01*
X151703099Y-97753101D01*
X152896899Y-97753101D01*
X152896899Y-98946901D01*
G37*
G36*
X134114316Y-98011799D02*
G01*
X134164602Y-98045398D01*
X134198201Y-98095684D01*
X134210000Y-98155000D01*
X134210000Y-98580000D01*
X134198201Y-98639316D01*
X134164602Y-98689602D01*
X134114316Y-98723201D01*
X134055000Y-98735000D01*
X133745000Y-98735000D01*
X133685684Y-98723201D01*
X133635398Y-98689602D01*
X133601799Y-98639316D01*
X133590000Y-98580000D01*
X133590000Y-98155000D01*
X133601799Y-98095684D01*
X133635398Y-98045398D01*
X133685684Y-98011799D01*
X133745000Y-98000000D01*
X134055000Y-98000000D01*
X134114316Y-98011799D01*
G37*
G36*
X128861229Y-98092179D02*
G01*
X128913137Y-98126863D01*
X128947821Y-98178771D01*
X128960000Y-98240000D01*
X128960000Y-98560000D01*
X128947821Y-98621229D01*
X128913137Y-98673137D01*
X128861229Y-98707821D01*
X128800000Y-98720000D01*
X128405000Y-98720000D01*
X128343771Y-98707821D01*
X128291863Y-98673137D01*
X128257179Y-98621229D01*
X128245000Y-98560000D01*
X128245000Y-98240000D01*
X128257179Y-98178771D01*
X128291863Y-98126863D01*
X128343771Y-98092179D01*
X128405000Y-98080000D01*
X128800000Y-98080000D01*
X128861229Y-98092179D01*
G37*
G36*
X130056229Y-98092179D02*
G01*
X130108137Y-98126863D01*
X130142821Y-98178771D01*
X130155000Y-98240000D01*
X130155000Y-98560000D01*
X130142821Y-98621229D01*
X130108137Y-98673137D01*
X130056229Y-98707821D01*
X129995000Y-98720000D01*
X129600000Y-98720000D01*
X129538771Y-98707821D01*
X129486863Y-98673137D01*
X129452179Y-98621229D01*
X129440000Y-98560000D01*
X129440000Y-98240000D01*
X129452179Y-98178771D01*
X129486863Y-98126863D01*
X129538771Y-98092179D01*
X129600000Y-98080000D01*
X129995000Y-98080000D01*
X130056229Y-98092179D01*
G37*
G36*
X118922835Y-98179515D02*
G01*
X118963388Y-98206612D01*
X118990485Y-98247165D01*
X119000000Y-98295000D01*
X119000000Y-98545000D01*
X118990485Y-98592835D01*
X118963388Y-98633388D01*
X118922835Y-98660485D01*
X118875000Y-98670000D01*
X117500000Y-98670000D01*
X117452165Y-98660485D01*
X117411612Y-98633388D01*
X117384515Y-98592835D01*
X117375000Y-98545000D01*
X117375000Y-98295000D01*
X117384515Y-98247165D01*
X117411612Y-98206612D01*
X117452165Y-98179515D01*
X117500000Y-98170000D01*
X118875000Y-98170000D01*
X118922835Y-98179515D01*
G37*
G36*
X123147835Y-98179515D02*
G01*
X123188388Y-98206612D01*
X123215485Y-98247165D01*
X123225000Y-98295000D01*
X123225000Y-98545000D01*
X123215485Y-98592835D01*
X123188388Y-98633388D01*
X123147835Y-98660485D01*
X123100000Y-98670000D01*
X121725000Y-98670000D01*
X121677165Y-98660485D01*
X121636612Y-98633388D01*
X121609515Y-98592835D01*
X121600000Y-98545000D01*
X121600000Y-98295000D01*
X121609515Y-98247165D01*
X121636612Y-98206612D01*
X121677165Y-98179515D01*
X121725000Y-98170000D01*
X123100000Y-98170000D01*
X123147835Y-98179515D01*
G37*
G36*
X144056400Y-98503202D02*
G01*
X143243600Y-98503202D01*
X143243600Y-98096802D01*
X144056400Y-98096802D01*
X144056400Y-98503202D01*
G37*
G36*
X158056398Y-98503202D02*
G01*
X157243598Y-98503202D01*
X157243598Y-98096802D01*
X158056398Y-98096802D01*
X158056398Y-98503202D01*
G37*
G36*
X167049047Y-96120805D02*
G01*
X167100408Y-96126764D01*
X167117954Y-96134511D01*
X167140671Y-96139030D01*
X167164991Y-96155280D01*
X167185793Y-96164465D01*
X167200000Y-96178672D01*
X167221777Y-96193223D01*
X167236327Y-96214999D01*
X167250534Y-96229206D01*
X167259718Y-96250006D01*
X167275970Y-96274329D01*
X167280489Y-96297048D01*
X167288235Y-96314591D01*
X167294192Y-96365940D01*
X167295000Y-96370000D01*
X167295000Y-98050000D01*
X167294192Y-98054059D01*
X167288235Y-98105408D01*
X167280489Y-98122950D01*
X167275970Y-98145671D01*
X167259716Y-98169995D01*
X167250534Y-98190793D01*
X167236329Y-98204997D01*
X167221777Y-98226777D01*
X167199997Y-98241329D01*
X167185793Y-98255534D01*
X167164995Y-98264716D01*
X167140671Y-98280970D01*
X167117950Y-98285489D01*
X167100408Y-98293235D01*
X167049061Y-98299192D01*
X167045000Y-98300000D01*
X165545000Y-98300000D01*
X165540941Y-98299192D01*
X165489591Y-98293235D01*
X165472048Y-98285489D01*
X165449329Y-98280970D01*
X165425006Y-98264718D01*
X165404206Y-98255534D01*
X165389999Y-98241327D01*
X165368223Y-98226777D01*
X165353672Y-98205000D01*
X165339465Y-98190793D01*
X165330280Y-98169991D01*
X165314030Y-98145671D01*
X165309511Y-98122954D01*
X165301764Y-98105408D01*
X165295805Y-98054049D01*
X165295000Y-98050000D01*
X165295000Y-96370000D01*
X165295804Y-96365953D01*
X165301764Y-96314591D01*
X165309511Y-96297043D01*
X165314030Y-96274329D01*
X165330278Y-96250010D01*
X165339465Y-96229206D01*
X165353674Y-96214996D01*
X165368223Y-96193223D01*
X165389996Y-96178674D01*
X165404206Y-96164465D01*
X165425010Y-96155278D01*
X165449329Y-96139030D01*
X165472043Y-96134511D01*
X165489591Y-96126764D01*
X165540952Y-96120805D01*
X165545000Y-96120000D01*
X167045000Y-96120000D01*
X167049047Y-96120805D01*
G37*
G36*
X170979047Y-96120805D02*
G01*
X171030408Y-96126764D01*
X171047954Y-96134511D01*
X171070671Y-96139030D01*
X171094991Y-96155280D01*
X171115793Y-96164465D01*
X171130000Y-96178672D01*
X171151777Y-96193223D01*
X171166327Y-96214999D01*
X171180534Y-96229206D01*
X171189718Y-96250006D01*
X171205970Y-96274329D01*
X171210489Y-96297048D01*
X171218235Y-96314591D01*
X171224192Y-96365940D01*
X171225000Y-96370000D01*
X171225000Y-98050000D01*
X171224192Y-98054059D01*
X171218235Y-98105408D01*
X171210489Y-98122950D01*
X171205970Y-98145671D01*
X171189716Y-98169995D01*
X171180534Y-98190793D01*
X171166329Y-98204997D01*
X171151777Y-98226777D01*
X171129997Y-98241329D01*
X171115793Y-98255534D01*
X171094995Y-98264716D01*
X171070671Y-98280970D01*
X171047950Y-98285489D01*
X171030408Y-98293235D01*
X170979061Y-98299192D01*
X170975000Y-98300000D01*
X169475000Y-98300000D01*
X169470941Y-98299192D01*
X169419591Y-98293235D01*
X169402048Y-98285489D01*
X169379329Y-98280970D01*
X169355006Y-98264718D01*
X169334206Y-98255534D01*
X169319999Y-98241327D01*
X169298223Y-98226777D01*
X169283672Y-98205000D01*
X169269465Y-98190793D01*
X169260280Y-98169991D01*
X169244030Y-98145671D01*
X169239511Y-98122954D01*
X169231764Y-98105408D01*
X169225805Y-98054049D01*
X169225000Y-98050000D01*
X169225000Y-96370000D01*
X169225804Y-96365953D01*
X169231764Y-96314591D01*
X169239511Y-96297043D01*
X169244030Y-96274329D01*
X169260278Y-96250010D01*
X169269465Y-96229206D01*
X169283674Y-96214996D01*
X169298223Y-96193223D01*
X169319996Y-96178674D01*
X169334206Y-96164465D01*
X169355010Y-96155278D01*
X169379329Y-96139030D01*
X169402043Y-96134511D01*
X169419591Y-96126764D01*
X169470952Y-96120805D01*
X169475000Y-96120000D01*
X170975000Y-96120000D01*
X170979047Y-96120805D01*
G37*
G36*
X138911228Y-97642180D02*
G01*
X138963136Y-97676864D01*
X138997820Y-97728772D01*
X139009999Y-97790001D01*
X139009999Y-98110001D01*
X138997820Y-98171230D01*
X138963136Y-98223138D01*
X138911228Y-98257822D01*
X138849999Y-98270001D01*
X138454999Y-98270001D01*
X138393770Y-98257822D01*
X138341862Y-98223138D01*
X138307178Y-98171230D01*
X138294999Y-98110001D01*
X138294999Y-97790001D01*
X138307178Y-97728772D01*
X138341862Y-97676864D01*
X138393770Y-97642180D01*
X138454999Y-97630001D01*
X138849999Y-97630001D01*
X138911228Y-97642180D01*
G37*
G36*
X140106228Y-97642180D02*
G01*
X140158136Y-97676864D01*
X140192820Y-97728772D01*
X140204999Y-97790001D01*
X140204999Y-98110001D01*
X140192820Y-98171230D01*
X140158136Y-98223138D01*
X140106228Y-98257822D01*
X140044999Y-98270001D01*
X139649999Y-98270001D01*
X139588770Y-98257822D01*
X139536862Y-98223138D01*
X139502178Y-98171230D01*
X139489999Y-98110001D01*
X139489999Y-97790001D01*
X139502178Y-97728772D01*
X139536862Y-97676864D01*
X139588770Y-97642180D01*
X139649999Y-97630001D01*
X140044999Y-97630001D01*
X140106228Y-97642180D01*
G37*
G36*
X141254315Y-97651800D02*
G01*
X141304601Y-97685399D01*
X141338200Y-97735685D01*
X141349999Y-97795001D01*
X141349999Y-98105001D01*
X141338200Y-98164317D01*
X141304601Y-98214603D01*
X141254315Y-98248202D01*
X141194999Y-98260001D01*
X140769999Y-98260001D01*
X140710683Y-98248202D01*
X140660397Y-98214603D01*
X140626798Y-98164317D01*
X140614999Y-98105001D01*
X140614999Y-97795001D01*
X140626798Y-97735685D01*
X140660397Y-97685399D01*
X140710683Y-97651800D01*
X140769999Y-97640001D01*
X141194999Y-97640001D01*
X141254315Y-97651800D01*
G37*
G36*
X142389315Y-97651800D02*
G01*
X142439601Y-97685399D01*
X142473200Y-97735685D01*
X142484999Y-97795001D01*
X142484999Y-98105001D01*
X142473200Y-98164317D01*
X142439601Y-98214603D01*
X142389315Y-98248202D01*
X142329999Y-98260001D01*
X141904999Y-98260001D01*
X141845683Y-98248202D01*
X141795397Y-98214603D01*
X141761798Y-98164317D01*
X141749999Y-98105001D01*
X141749999Y-97795001D01*
X141761798Y-97735685D01*
X141795397Y-97685399D01*
X141845683Y-97651800D01*
X141904999Y-97640001D01*
X142329999Y-97640001D01*
X142389315Y-97651800D01*
G37*
G36*
X132121229Y-97352179D02*
G01*
X132173137Y-97386863D01*
X132207821Y-97438771D01*
X132220000Y-97500000D01*
X132220000Y-97895000D01*
X132207821Y-97956229D01*
X132173137Y-98008137D01*
X132121229Y-98042821D01*
X132060000Y-98055000D01*
X131740000Y-98055000D01*
X131678771Y-98042821D01*
X131626863Y-98008137D01*
X131592179Y-97956229D01*
X131580000Y-97895000D01*
X131580000Y-97500000D01*
X131592179Y-97438771D01*
X131626863Y-97386863D01*
X131678771Y-97352179D01*
X131740000Y-97340000D01*
X132060000Y-97340000D01*
X132121229Y-97352179D01*
G37*
G36*
X116821229Y-97349679D02*
G01*
X116873137Y-97384363D01*
X116907821Y-97436271D01*
X116920000Y-97497500D01*
X116920000Y-97892500D01*
X116907821Y-97953729D01*
X116873137Y-98005637D01*
X116821229Y-98040321D01*
X116760000Y-98052500D01*
X116440000Y-98052500D01*
X116378771Y-98040321D01*
X116326863Y-98005637D01*
X116292179Y-97953729D01*
X116280000Y-97892500D01*
X116280000Y-97497500D01*
X116292179Y-97436271D01*
X116326863Y-97384363D01*
X116378771Y-97349679D01*
X116440000Y-97337500D01*
X116760000Y-97337500D01*
X116821229Y-97349679D01*
G37*
G36*
X133114316Y-97311799D02*
G01*
X133164602Y-97345398D01*
X133198201Y-97395684D01*
X133210000Y-97455000D01*
X133210000Y-97880000D01*
X133198201Y-97939316D01*
X133164602Y-97989602D01*
X133114316Y-98023201D01*
X133055000Y-98035000D01*
X132745000Y-98035000D01*
X132685684Y-98023201D01*
X132635398Y-97989602D01*
X132601799Y-97939316D01*
X132590000Y-97880000D01*
X132590000Y-97455000D01*
X132601799Y-97395684D01*
X132635398Y-97345398D01*
X132685684Y-97311799D01*
X132745000Y-97300000D01*
X133055000Y-97300000D01*
X133114316Y-97311799D01*
G37*
G36*
X118922835Y-97529515D02*
G01*
X118963388Y-97556612D01*
X118990485Y-97597165D01*
X119000000Y-97645000D01*
X119000000Y-97895000D01*
X118990485Y-97942835D01*
X118963388Y-97983388D01*
X118922835Y-98010485D01*
X118875000Y-98020000D01*
X117500000Y-98020000D01*
X117452165Y-98010485D01*
X117411612Y-97983388D01*
X117384515Y-97942835D01*
X117375000Y-97895000D01*
X117375000Y-97645000D01*
X117384515Y-97597165D01*
X117411612Y-97556612D01*
X117452165Y-97529515D01*
X117500000Y-97520000D01*
X118875000Y-97520000D01*
X118922835Y-97529515D01*
G37*
G36*
X123147835Y-97529515D02*
G01*
X123188388Y-97556612D01*
X123215485Y-97597165D01*
X123225000Y-97645000D01*
X123225000Y-97895000D01*
X123215485Y-97942835D01*
X123188388Y-97983388D01*
X123147835Y-98010485D01*
X123100000Y-98020000D01*
X121725000Y-98020000D01*
X121677165Y-98010485D01*
X121636612Y-97983388D01*
X121609515Y-97942835D01*
X121600000Y-97895000D01*
X121600000Y-97645000D01*
X121609515Y-97597165D01*
X121636612Y-97556612D01*
X121677165Y-97529515D01*
X121725000Y-97520000D01*
X123100000Y-97520000D01*
X123147835Y-97529515D01*
G37*
G36*
X114561229Y-97292179D02*
G01*
X114613137Y-97326863D01*
X114647821Y-97378771D01*
X114660000Y-97440000D01*
X114660000Y-97760000D01*
X114647821Y-97821229D01*
X114613137Y-97873137D01*
X114561229Y-97907821D01*
X114500000Y-97920000D01*
X114105000Y-97920000D01*
X114043771Y-97907821D01*
X113991863Y-97873137D01*
X113957179Y-97821229D01*
X113945000Y-97760000D01*
X113945000Y-97440000D01*
X113957179Y-97378771D01*
X113991863Y-97326863D01*
X114043771Y-97292179D01*
X114105000Y-97280000D01*
X114500000Y-97280000D01*
X114561229Y-97292179D01*
G37*
G36*
X115756229Y-97292179D02*
G01*
X115808137Y-97326863D01*
X115842821Y-97378771D01*
X115855000Y-97440000D01*
X115855000Y-97760000D01*
X115842821Y-97821229D01*
X115808137Y-97873137D01*
X115756229Y-97907821D01*
X115695000Y-97920000D01*
X115300000Y-97920000D01*
X115238771Y-97907821D01*
X115186863Y-97873137D01*
X115152179Y-97821229D01*
X115140000Y-97760000D01*
X115140000Y-97440000D01*
X115152179Y-97378771D01*
X115186863Y-97326863D01*
X115238771Y-97292179D01*
X115300000Y-97280000D01*
X115695000Y-97280000D01*
X115756229Y-97292179D01*
G37*
G36*
X159321229Y-97157179D02*
G01*
X159373137Y-97191863D01*
X159407821Y-97243771D01*
X159420000Y-97305000D01*
X159420000Y-97700000D01*
X159407821Y-97761229D01*
X159373137Y-97813137D01*
X159321229Y-97847821D01*
X159260000Y-97860000D01*
X158940000Y-97860000D01*
X158878771Y-97847821D01*
X158826863Y-97813137D01*
X158792179Y-97761229D01*
X158780000Y-97700000D01*
X158780000Y-97305000D01*
X158792179Y-97243771D01*
X158826863Y-97191863D01*
X158878771Y-97157179D01*
X158940000Y-97145000D01*
X159260000Y-97145000D01*
X159321229Y-97157179D01*
G37*
G36*
X128861229Y-97092179D02*
G01*
X128913137Y-97126863D01*
X128947821Y-97178771D01*
X128960000Y-97240000D01*
X128960000Y-97560000D01*
X128947821Y-97621229D01*
X128913137Y-97673137D01*
X128861229Y-97707821D01*
X128800000Y-97720000D01*
X128405000Y-97720000D01*
X128343771Y-97707821D01*
X128291863Y-97673137D01*
X128257179Y-97621229D01*
X128245000Y-97560000D01*
X128245000Y-97240000D01*
X128257179Y-97178771D01*
X128291863Y-97126863D01*
X128343771Y-97092179D01*
X128405000Y-97080000D01*
X128800000Y-97080000D01*
X128861229Y-97092179D01*
G37*
G36*
X130056229Y-97092179D02*
G01*
X130108137Y-97126863D01*
X130142821Y-97178771D01*
X130155000Y-97240000D01*
X130155000Y-97560000D01*
X130142821Y-97621229D01*
X130108137Y-97673137D01*
X130056229Y-97707821D01*
X129995000Y-97720000D01*
X129600000Y-97720000D01*
X129538771Y-97707821D01*
X129486863Y-97673137D01*
X129452179Y-97621229D01*
X129440000Y-97560000D01*
X129440000Y-97240000D01*
X129452179Y-97178771D01*
X129486863Y-97126863D01*
X129538771Y-97092179D01*
X129600000Y-97080000D01*
X129995000Y-97080000D01*
X130056229Y-97092179D01*
G37*
G36*
X144056400Y-97653201D02*
G01*
X143243600Y-97653201D01*
X143243600Y-97246801D01*
X144056400Y-97246801D01*
X144056400Y-97653201D01*
G37*
G36*
X158056398Y-97653201D02*
G01*
X157243598Y-97653201D01*
X157243598Y-97246801D01*
X158056398Y-97246801D01*
X158056398Y-97653201D01*
G37*
G36*
X161457403Y-96311418D02*
G01*
X161506066Y-96343934D01*
X161538582Y-96392597D01*
X161550000Y-96450000D01*
X161550000Y-97475000D01*
X161538582Y-97532403D01*
X161506066Y-97581066D01*
X161457403Y-97613582D01*
X161400000Y-97625000D01*
X161100000Y-97625000D01*
X161042597Y-97613582D01*
X160993934Y-97581066D01*
X160961418Y-97532403D01*
X160950000Y-97475000D01*
X160950000Y-96450000D01*
X160961418Y-96392597D01*
X160993934Y-96343934D01*
X161042597Y-96311418D01*
X161100000Y-96300000D01*
X161400000Y-96300000D01*
X161457403Y-96311418D01*
G37*
G36*
X162407403Y-96311418D02*
G01*
X162456066Y-96343934D01*
X162488582Y-96392597D01*
X162500000Y-96450000D01*
X162500000Y-97475000D01*
X162488582Y-97532403D01*
X162456066Y-97581066D01*
X162407403Y-97613582D01*
X162350000Y-97625000D01*
X162050000Y-97625000D01*
X161992597Y-97613582D01*
X161943934Y-97581066D01*
X161911418Y-97532403D01*
X161900000Y-97475000D01*
X161900000Y-96450000D01*
X161911418Y-96392597D01*
X161943934Y-96343934D01*
X161992597Y-96311418D01*
X162050000Y-96300000D01*
X162350000Y-96300000D01*
X162407403Y-96311418D01*
G37*
G36*
X163357403Y-96311418D02*
G01*
X163406066Y-96343934D01*
X163438582Y-96392597D01*
X163450000Y-96450000D01*
X163450000Y-97475000D01*
X163438582Y-97532403D01*
X163406066Y-97581066D01*
X163357403Y-97613582D01*
X163300000Y-97625000D01*
X163000000Y-97625000D01*
X162942597Y-97613582D01*
X162893934Y-97581066D01*
X162861418Y-97532403D01*
X162850000Y-97475000D01*
X162850000Y-96450000D01*
X162861418Y-96392597D01*
X162893934Y-96343934D01*
X162942597Y-96311418D01*
X163000000Y-96300000D01*
X163300000Y-96300000D01*
X163357403Y-96311418D01*
G37*
G36*
X134114316Y-96876799D02*
G01*
X134164602Y-96910398D01*
X134198201Y-96960684D01*
X134210000Y-97020000D01*
X134210000Y-97445000D01*
X134198201Y-97504316D01*
X134164602Y-97554602D01*
X134114316Y-97588201D01*
X134055000Y-97600000D01*
X133745000Y-97600000D01*
X133685684Y-97588201D01*
X133635398Y-97554602D01*
X133601799Y-97504316D01*
X133590000Y-97445000D01*
X133590000Y-97020000D01*
X133601799Y-96960684D01*
X133635398Y-96910398D01*
X133685684Y-96876799D01*
X133745000Y-96865000D01*
X134055000Y-96865000D01*
X134114316Y-96876799D01*
G37*
G36*
X131121229Y-96752179D02*
G01*
X131173137Y-96786863D01*
X131207821Y-96838771D01*
X131220000Y-96900000D01*
X131220000Y-97295000D01*
X131207821Y-97356229D01*
X131173137Y-97408137D01*
X131121229Y-97442821D01*
X131060000Y-97455000D01*
X130740000Y-97455000D01*
X130678771Y-97442821D01*
X130626863Y-97408137D01*
X130592179Y-97356229D01*
X130580000Y-97295000D01*
X130580000Y-96900000D01*
X130592179Y-96838771D01*
X130626863Y-96786863D01*
X130678771Y-96752179D01*
X130740000Y-96740000D01*
X131060000Y-96740000D01*
X131121229Y-96752179D01*
G37*
G36*
X118922835Y-96879515D02*
G01*
X118963388Y-96906612D01*
X118990485Y-96947165D01*
X119000000Y-96995000D01*
X119000000Y-97245000D01*
X118990485Y-97292835D01*
X118963388Y-97333388D01*
X118922835Y-97360485D01*
X118875000Y-97370000D01*
X117500000Y-97370000D01*
X117452165Y-97360485D01*
X117411612Y-97333388D01*
X117384515Y-97292835D01*
X117375000Y-97245000D01*
X117375000Y-96995000D01*
X117384515Y-96947165D01*
X117411612Y-96906612D01*
X117452165Y-96879515D01*
X117500000Y-96870000D01*
X118875000Y-96870000D01*
X118922835Y-96879515D01*
G37*
G36*
X123147835Y-96879515D02*
G01*
X123188388Y-96906612D01*
X123215485Y-96947165D01*
X123225000Y-96995000D01*
X123225000Y-97245000D01*
X123215485Y-97292835D01*
X123188388Y-97333388D01*
X123147835Y-97360485D01*
X123100000Y-97370000D01*
X121725000Y-97370000D01*
X121677165Y-97360485D01*
X121636612Y-97333388D01*
X121609515Y-97292835D01*
X121600000Y-97245000D01*
X121600000Y-96995000D01*
X121609515Y-96947165D01*
X121636612Y-96906612D01*
X121677165Y-96879515D01*
X121725000Y-96870000D01*
X123100000Y-96870000D01*
X123147835Y-96879515D01*
G37*
G36*
X141161228Y-96542180D02*
G01*
X141213136Y-96576864D01*
X141247820Y-96628772D01*
X141259999Y-96690001D01*
X141259999Y-97010001D01*
X141247820Y-97071230D01*
X141213136Y-97123138D01*
X141161228Y-97157822D01*
X141099999Y-97170001D01*
X140704999Y-97170001D01*
X140643770Y-97157822D01*
X140591862Y-97123138D01*
X140557178Y-97071230D01*
X140544999Y-97010001D01*
X140544999Y-96690001D01*
X140557178Y-96628772D01*
X140591862Y-96576864D01*
X140643770Y-96542180D01*
X140704999Y-96530001D01*
X141099999Y-96530001D01*
X141161228Y-96542180D01*
G37*
G36*
X142356228Y-96542180D02*
G01*
X142408136Y-96576864D01*
X142442820Y-96628772D01*
X142454999Y-96690001D01*
X142454999Y-97010001D01*
X142442820Y-97071230D01*
X142408136Y-97123138D01*
X142356228Y-97157822D01*
X142294999Y-97170001D01*
X141899999Y-97170001D01*
X141838770Y-97157822D01*
X141786862Y-97123138D01*
X141752178Y-97071230D01*
X141739999Y-97010001D01*
X141739999Y-96690001D01*
X141752178Y-96628772D01*
X141786862Y-96576864D01*
X141838770Y-96542180D01*
X141899999Y-96530001D01*
X142294999Y-96530001D01*
X142356228Y-96542180D01*
G37*
G36*
X112675000Y-96975000D02*
G01*
X111325000Y-96975000D01*
X111325000Y-95625000D01*
X112675000Y-95625000D01*
X112675000Y-96975000D01*
G37*
G36*
X110195942Y-95654065D02*
G01*
X110318193Y-95704703D01*
X110428215Y-95778218D01*
X110521782Y-95871785D01*
X110595297Y-95981807D01*
X110645935Y-96104058D01*
X110671750Y-96233838D01*
X110671750Y-96366162D01*
X110645935Y-96495942D01*
X110595297Y-96618193D01*
X110521782Y-96728215D01*
X110428215Y-96821782D01*
X110318193Y-96895297D01*
X110195942Y-96945935D01*
X110066162Y-96971750D01*
X109933838Y-96971750D01*
X109804058Y-96945935D01*
X109681807Y-96895297D01*
X109571785Y-96821782D01*
X109478218Y-96728215D01*
X109404703Y-96618193D01*
X109354065Y-96495942D01*
X109328250Y-96366162D01*
X109328250Y-96233838D01*
X109354065Y-96104058D01*
X109404703Y-95981807D01*
X109478218Y-95871785D01*
X109571785Y-95778218D01*
X109681807Y-95704703D01*
X109804058Y-95654065D01*
X109933838Y-95628250D01*
X110066162Y-95628250D01*
X110195942Y-95654065D01*
G37*
G36*
X133114316Y-96176799D02*
G01*
X133164602Y-96210398D01*
X133198201Y-96260684D01*
X133210000Y-96320000D01*
X133210000Y-96745000D01*
X133198201Y-96804316D01*
X133164602Y-96854602D01*
X133114316Y-96888201D01*
X133055000Y-96900000D01*
X132745000Y-96900000D01*
X132685684Y-96888201D01*
X132635398Y-96854602D01*
X132601799Y-96804316D01*
X132590000Y-96745000D01*
X132590000Y-96320000D01*
X132601799Y-96260684D01*
X132635398Y-96210398D01*
X132685684Y-96176799D01*
X132745000Y-96165000D01*
X133055000Y-96165000D01*
X133114316Y-96176799D01*
G37*
G36*
X132121229Y-96157179D02*
G01*
X132173137Y-96191863D01*
X132207821Y-96243771D01*
X132220000Y-96305000D01*
X132220000Y-96700000D01*
X132207821Y-96761229D01*
X132173137Y-96813137D01*
X132121229Y-96847821D01*
X132060000Y-96860000D01*
X131740000Y-96860000D01*
X131678771Y-96847821D01*
X131626863Y-96813137D01*
X131592179Y-96761229D01*
X131580000Y-96700000D01*
X131580000Y-96305000D01*
X131592179Y-96243771D01*
X131626863Y-96191863D01*
X131678771Y-96157179D01*
X131740000Y-96145000D01*
X132060000Y-96145000D01*
X132121229Y-96157179D01*
G37*
G36*
X116821229Y-96154679D02*
G01*
X116873137Y-96189363D01*
X116907821Y-96241271D01*
X116920000Y-96302500D01*
X116920000Y-96697500D01*
X116907821Y-96758729D01*
X116873137Y-96810637D01*
X116821229Y-96845321D01*
X116760000Y-96857500D01*
X116440000Y-96857500D01*
X116378771Y-96845321D01*
X116326863Y-96810637D01*
X116292179Y-96758729D01*
X116280000Y-96697500D01*
X116280000Y-96302500D01*
X116292179Y-96241271D01*
X116326863Y-96189363D01*
X116378771Y-96154679D01*
X116440000Y-96142500D01*
X116760000Y-96142500D01*
X116821229Y-96154679D01*
G37*
G36*
X144056400Y-96803200D02*
G01*
X143243600Y-96803200D01*
X143243600Y-96396800D01*
X144056400Y-96396800D01*
X144056400Y-96803200D01*
G37*
G36*
X158056398Y-96803200D02*
G01*
X157243598Y-96803200D01*
X157243598Y-96396800D01*
X158056398Y-96396800D01*
X158056398Y-96803200D01*
G37*
G36*
X118922835Y-96229515D02*
G01*
X118963388Y-96256612D01*
X118990485Y-96297165D01*
X119000000Y-96345000D01*
X119000000Y-96595000D01*
X118990485Y-96642835D01*
X118963388Y-96683388D01*
X118922835Y-96710485D01*
X118875000Y-96720000D01*
X117500000Y-96720000D01*
X117452165Y-96710485D01*
X117411612Y-96683388D01*
X117384515Y-96642835D01*
X117375000Y-96595000D01*
X117375000Y-96345000D01*
X117384515Y-96297165D01*
X117411612Y-96256612D01*
X117452165Y-96229515D01*
X117500000Y-96220000D01*
X118875000Y-96220000D01*
X118922835Y-96229515D01*
G37*
G36*
X123147835Y-96229515D02*
G01*
X123188388Y-96256612D01*
X123215485Y-96297165D01*
X123225000Y-96345000D01*
X123225000Y-96595000D01*
X123215485Y-96642835D01*
X123188388Y-96683388D01*
X123147835Y-96710485D01*
X123100000Y-96720000D01*
X121725000Y-96720000D01*
X121677165Y-96710485D01*
X121636612Y-96683388D01*
X121609515Y-96642835D01*
X121600000Y-96595000D01*
X121600000Y-96345000D01*
X121609515Y-96297165D01*
X121636612Y-96256612D01*
X121677165Y-96229515D01*
X121725000Y-96220000D01*
X123100000Y-96220000D01*
X123147835Y-96229515D01*
G37*
G36*
X131121229Y-95557179D02*
G01*
X131173137Y-95591863D01*
X131207821Y-95643771D01*
X131220000Y-95705000D01*
X131220000Y-96100000D01*
X131207821Y-96161229D01*
X131173137Y-96213137D01*
X131121229Y-96247821D01*
X131060000Y-96260000D01*
X130740000Y-96260000D01*
X130678771Y-96247821D01*
X130626863Y-96213137D01*
X130592179Y-96161229D01*
X130580000Y-96100000D01*
X130580000Y-95705000D01*
X130592179Y-95643771D01*
X130626863Y-95591863D01*
X130678771Y-95557179D01*
X130740000Y-95545000D01*
X131060000Y-95545000D01*
X131121229Y-95557179D01*
G37*
G36*
X140491546Y-95125806D02*
G01*
X140540046Y-95131433D01*
X140556617Y-95138749D01*
X140578386Y-95143080D01*
X140601689Y-95158650D01*
X140621227Y-95167277D01*
X140634571Y-95180621D01*
X140655437Y-95194563D01*
X140669378Y-95215428D01*
X140682722Y-95228772D01*
X140691347Y-95248308D01*
X140706920Y-95271614D01*
X140711250Y-95293384D01*
X140718566Y-95309953D01*
X140724191Y-95358441D01*
X140724999Y-95362501D01*
X140724999Y-95837501D01*
X140724191Y-95841560D01*
X140718566Y-95890048D01*
X140711250Y-95906615D01*
X140706920Y-95928388D01*
X140691346Y-95951695D01*
X140682722Y-95971229D01*
X140669380Y-95984570D01*
X140655437Y-96005439D01*
X140634568Y-96019382D01*
X140621227Y-96032724D01*
X140601693Y-96041348D01*
X140578386Y-96056922D01*
X140556613Y-96061252D01*
X140540046Y-96068568D01*
X140491559Y-96074193D01*
X140487499Y-96075001D01*
X139887499Y-96075001D01*
X139883440Y-96074193D01*
X139834951Y-96068568D01*
X139818382Y-96061252D01*
X139796612Y-96056922D01*
X139773306Y-96041349D01*
X139753770Y-96032724D01*
X139740426Y-96019380D01*
X139719561Y-96005439D01*
X139705619Y-95984573D01*
X139692275Y-95971229D01*
X139683648Y-95951691D01*
X139668078Y-95928388D01*
X139663747Y-95906619D01*
X139656431Y-95890048D01*
X139650804Y-95841549D01*
X139649999Y-95837501D01*
X139649999Y-95362501D01*
X139650803Y-95358454D01*
X139656431Y-95309953D01*
X139663748Y-95293380D01*
X139668078Y-95271614D01*
X139683647Y-95248312D01*
X139692275Y-95228772D01*
X139705621Y-95215425D01*
X139719561Y-95194563D01*
X139740423Y-95180623D01*
X139753770Y-95167277D01*
X139773310Y-95158649D01*
X139796612Y-95143080D01*
X139818378Y-95138750D01*
X139834951Y-95131433D01*
X139883451Y-95125806D01*
X139887499Y-95125001D01*
X140487499Y-95125001D01*
X140491546Y-95125806D01*
G37*
G36*
X142216546Y-95125806D02*
G01*
X142265046Y-95131433D01*
X142281617Y-95138749D01*
X142303386Y-95143080D01*
X142326689Y-95158650D01*
X142346227Y-95167277D01*
X142359571Y-95180621D01*
X142380437Y-95194563D01*
X142394378Y-95215428D01*
X142407722Y-95228772D01*
X142416347Y-95248308D01*
X142431920Y-95271614D01*
X142436250Y-95293384D01*
X142443566Y-95309953D01*
X142449191Y-95358441D01*
X142449999Y-95362501D01*
X142449999Y-95837501D01*
X142449191Y-95841560D01*
X142443566Y-95890048D01*
X142436250Y-95906615D01*
X142431920Y-95928388D01*
X142416346Y-95951695D01*
X142407722Y-95971229D01*
X142394380Y-95984570D01*
X142380437Y-96005439D01*
X142359568Y-96019382D01*
X142346227Y-96032724D01*
X142326693Y-96041348D01*
X142303386Y-96056922D01*
X142281613Y-96061252D01*
X142265046Y-96068568D01*
X142216559Y-96074193D01*
X142212499Y-96075001D01*
X141612499Y-96075001D01*
X141608440Y-96074193D01*
X141559951Y-96068568D01*
X141543382Y-96061252D01*
X141521612Y-96056922D01*
X141498306Y-96041349D01*
X141478770Y-96032724D01*
X141465426Y-96019380D01*
X141444561Y-96005439D01*
X141430619Y-95984573D01*
X141417275Y-95971229D01*
X141408648Y-95951691D01*
X141393078Y-95928388D01*
X141388747Y-95906619D01*
X141381431Y-95890048D01*
X141375804Y-95841549D01*
X141374999Y-95837501D01*
X141374999Y-95362501D01*
X141375803Y-95358454D01*
X141381431Y-95309953D01*
X141388748Y-95293380D01*
X141393078Y-95271614D01*
X141408647Y-95248312D01*
X141417275Y-95228772D01*
X141430621Y-95215425D01*
X141444561Y-95194563D01*
X141465423Y-95180623D01*
X141478770Y-95167277D01*
X141498310Y-95158649D01*
X141521612Y-95143080D01*
X141543378Y-95138750D01*
X141559951Y-95131433D01*
X141608451Y-95125806D01*
X141612499Y-95125001D01*
X142212499Y-95125001D01*
X142216546Y-95125806D01*
G37*
G36*
X144056400Y-95953202D02*
G01*
X143243600Y-95953202D01*
X143243600Y-95546802D01*
X144056400Y-95546802D01*
X144056400Y-95953202D01*
G37*
G36*
X158056398Y-95953202D02*
G01*
X157243598Y-95953202D01*
X157243598Y-95546802D01*
X158056398Y-95546802D01*
X158056398Y-95953202D01*
G37*
G36*
X122904316Y-95101799D02*
G01*
X122954602Y-95135398D01*
X122988201Y-95185684D01*
X123000000Y-95245000D01*
X123000000Y-95555000D01*
X122988201Y-95614316D01*
X122954602Y-95664602D01*
X122904316Y-95698201D01*
X122845000Y-95710000D01*
X122420000Y-95710000D01*
X122360684Y-95698201D01*
X122310398Y-95664602D01*
X122276799Y-95614316D01*
X122265000Y-95555000D01*
X122265000Y-95245000D01*
X122276799Y-95185684D01*
X122310398Y-95135398D01*
X122360684Y-95101799D01*
X122420000Y-95090000D01*
X122845000Y-95090000D01*
X122904316Y-95101799D01*
G37*
G36*
X124039316Y-95101799D02*
G01*
X124089602Y-95135398D01*
X124123201Y-95185684D01*
X124135000Y-95245000D01*
X124135000Y-95555000D01*
X124123201Y-95614316D01*
X124089602Y-95664602D01*
X124039316Y-95698201D01*
X123980000Y-95710000D01*
X123555000Y-95710000D01*
X123495684Y-95698201D01*
X123445398Y-95664602D01*
X123411799Y-95614316D01*
X123400000Y-95555000D01*
X123400000Y-95245000D01*
X123411799Y-95185684D01*
X123445398Y-95135398D01*
X123495684Y-95101799D01*
X123555000Y-95090000D01*
X123980000Y-95090000D01*
X124039316Y-95101799D01*
G37*
G36*
X166202403Y-95011418D02*
G01*
X166251066Y-95043934D01*
X166283582Y-95092597D01*
X166295000Y-95150000D01*
X166295000Y-95450000D01*
X166283582Y-95507403D01*
X166251066Y-95556066D01*
X166202403Y-95588582D01*
X166145000Y-95600000D01*
X165295000Y-95600000D01*
X165237597Y-95588582D01*
X165188934Y-95556066D01*
X165156418Y-95507403D01*
X165145000Y-95450000D01*
X165145000Y-95150000D01*
X165156418Y-95092597D01*
X165188934Y-95043934D01*
X165237597Y-95011418D01*
X165295000Y-95000000D01*
X166145000Y-95000000D01*
X166202403Y-95011418D01*
G37*
G36*
X164321229Y-94652179D02*
G01*
X164373137Y-94686863D01*
X164407821Y-94738771D01*
X164420000Y-94800000D01*
X164420000Y-95195000D01*
X164407821Y-95256229D01*
X164373137Y-95308137D01*
X164321229Y-95342821D01*
X164260000Y-95355000D01*
X163940000Y-95355000D01*
X163878771Y-95342821D01*
X163826863Y-95308137D01*
X163792179Y-95256229D01*
X163780000Y-95195000D01*
X163780000Y-94800000D01*
X163792179Y-94738771D01*
X163826863Y-94686863D01*
X163878771Y-94652179D01*
X163940000Y-94640000D01*
X164260000Y-94640000D01*
X164321229Y-94652179D01*
G37*
G36*
X166919372Y-94689739D02*
G01*
X166992847Y-94732160D01*
X167052840Y-94792153D01*
X167095261Y-94865628D01*
X167117220Y-94947579D01*
X167117220Y-95032421D01*
X167095261Y-95114372D01*
X167052840Y-95187847D01*
X166992847Y-95247840D01*
X166919372Y-95290261D01*
X166837421Y-95312220D01*
X166752579Y-95312220D01*
X166670628Y-95290261D01*
X166597153Y-95247840D01*
X166537160Y-95187847D01*
X166494739Y-95114372D01*
X166472780Y-95032421D01*
X166472780Y-94947579D01*
X166494739Y-94865628D01*
X166537160Y-94792153D01*
X166597153Y-94732160D01*
X166670628Y-94689739D01*
X166752579Y-94667780D01*
X166837421Y-94667780D01*
X166919372Y-94689739D01*
G37*
G36*
X144056400Y-95103201D02*
G01*
X143243600Y-95103201D01*
X143243600Y-94696801D01*
X144056400Y-94696801D01*
X144056400Y-95103201D01*
G37*
G36*
X158056398Y-95103201D02*
G01*
X157243598Y-95103201D01*
X157243598Y-94696801D01*
X158056398Y-94696801D01*
X158056398Y-95103201D01*
G37*
G36*
X127114316Y-94311799D02*
G01*
X127164602Y-94345398D01*
X127198201Y-94395684D01*
X127210000Y-94455000D01*
X127210000Y-94880000D01*
X127198201Y-94939316D01*
X127164602Y-94989602D01*
X127114316Y-95023201D01*
X127055000Y-95035000D01*
X126745000Y-95035000D01*
X126685684Y-95023201D01*
X126635398Y-94989602D01*
X126601799Y-94939316D01*
X126590000Y-94880000D01*
X126590000Y-94455000D01*
X126601799Y-94395684D01*
X126635398Y-94345398D01*
X126685684Y-94311799D01*
X126745000Y-94300000D01*
X127055000Y-94300000D01*
X127114316Y-94311799D01*
G37*
G36*
X128114316Y-94311799D02*
G01*
X128164602Y-94345398D01*
X128198201Y-94395684D01*
X128210000Y-94455000D01*
X128210000Y-94880000D01*
X128198201Y-94939316D01*
X128164602Y-94989602D01*
X128114316Y-95023201D01*
X128055000Y-95035000D01*
X127745000Y-95035000D01*
X127685684Y-95023201D01*
X127635398Y-94989602D01*
X127601799Y-94939316D01*
X127590000Y-94880000D01*
X127590000Y-94455000D01*
X127601799Y-94395684D01*
X127635398Y-94345398D01*
X127685684Y-94311799D01*
X127745000Y-94300000D01*
X128055000Y-94300000D01*
X128114316Y-94311799D01*
G37*
G36*
X110195942Y-93654065D02*
G01*
X110318193Y-93704703D01*
X110428215Y-93778218D01*
X110521782Y-93871785D01*
X110595297Y-93981807D01*
X110645935Y-94104058D01*
X110671750Y-94233838D01*
X110671750Y-94366162D01*
X110645935Y-94495942D01*
X110595297Y-94618193D01*
X110521782Y-94728215D01*
X110428215Y-94821782D01*
X110318193Y-94895297D01*
X110195942Y-94945935D01*
X110066162Y-94971750D01*
X109933838Y-94971750D01*
X109804058Y-94945935D01*
X109681807Y-94895297D01*
X109571785Y-94821782D01*
X109478218Y-94728215D01*
X109404703Y-94618193D01*
X109354065Y-94495942D01*
X109328250Y-94366162D01*
X109328250Y-94233838D01*
X109354065Y-94104058D01*
X109404703Y-93981807D01*
X109478218Y-93871785D01*
X109571785Y-93778218D01*
X109681807Y-93704703D01*
X109804058Y-93654065D01*
X109933838Y-93628250D01*
X110066162Y-93628250D01*
X110195942Y-93654065D01*
G37*
G36*
X112195942Y-93654065D02*
G01*
X112318193Y-93704703D01*
X112428215Y-93778218D01*
X112521782Y-93871785D01*
X112595297Y-93981807D01*
X112645935Y-94104058D01*
X112671750Y-94233838D01*
X112671750Y-94366162D01*
X112645935Y-94495942D01*
X112595297Y-94618193D01*
X112521782Y-94728215D01*
X112428215Y-94821782D01*
X112318193Y-94895297D01*
X112195942Y-94945935D01*
X112066162Y-94971750D01*
X111933838Y-94971750D01*
X111804058Y-94945935D01*
X111681807Y-94895297D01*
X111571785Y-94821782D01*
X111478218Y-94728215D01*
X111404703Y-94618193D01*
X111354065Y-94495942D01*
X111328250Y-94366162D01*
X111328250Y-94233838D01*
X111354065Y-94104058D01*
X111404703Y-93981807D01*
X111478218Y-93871785D01*
X111571785Y-93778218D01*
X111681807Y-93704703D01*
X111804058Y-93654065D01*
X111933838Y-93628250D01*
X112066162Y-93628250D01*
X112195942Y-93654065D01*
G37*
G36*
X166202403Y-94211418D02*
G01*
X166251066Y-94243934D01*
X166283582Y-94292597D01*
X166295000Y-94350000D01*
X166295000Y-94650000D01*
X166283582Y-94707403D01*
X166251066Y-94756066D01*
X166202403Y-94788582D01*
X166145000Y-94800000D01*
X165295000Y-94800000D01*
X165237597Y-94788582D01*
X165188934Y-94756066D01*
X165156418Y-94707403D01*
X165145000Y-94650000D01*
X165145000Y-94350000D01*
X165156418Y-94292597D01*
X165188934Y-94243934D01*
X165237597Y-94211418D01*
X165295000Y-94200000D01*
X166145000Y-94200000D01*
X166202403Y-94211418D01*
G37*
G36*
X141254315Y-94101800D02*
G01*
X141304601Y-94135399D01*
X141338200Y-94185685D01*
X141349999Y-94245001D01*
X141349999Y-94555001D01*
X141338200Y-94614317D01*
X141304601Y-94664603D01*
X141254315Y-94698202D01*
X141194999Y-94710001D01*
X140769999Y-94710001D01*
X140710683Y-94698202D01*
X140660397Y-94664603D01*
X140626798Y-94614317D01*
X140614999Y-94555001D01*
X140614999Y-94245001D01*
X140626798Y-94185685D01*
X140660397Y-94135399D01*
X140710683Y-94101800D01*
X140769999Y-94090001D01*
X141194999Y-94090001D01*
X141254315Y-94101800D01*
G37*
G36*
X142389315Y-94101800D02*
G01*
X142439601Y-94135399D01*
X142473200Y-94185685D01*
X142484999Y-94245001D01*
X142484999Y-94555001D01*
X142473200Y-94614317D01*
X142439601Y-94664603D01*
X142389315Y-94698202D01*
X142329999Y-94710001D01*
X141904999Y-94710001D01*
X141845683Y-94698202D01*
X141795397Y-94664603D01*
X141761798Y-94614317D01*
X141749999Y-94555001D01*
X141749999Y-94245001D01*
X141761798Y-94185685D01*
X141795397Y-94135399D01*
X141845683Y-94101800D01*
X141904999Y-94090001D01*
X142329999Y-94090001D01*
X142389315Y-94101800D01*
G37*
G36*
X159461228Y-93942180D02*
G01*
X159513136Y-93976864D01*
X159547820Y-94028772D01*
X159559999Y-94090001D01*
X159559999Y-94410001D01*
X159547820Y-94471230D01*
X159513136Y-94523138D01*
X159461228Y-94557822D01*
X159399999Y-94570001D01*
X159004999Y-94570001D01*
X158943770Y-94557822D01*
X158891862Y-94523138D01*
X158857178Y-94471230D01*
X158844999Y-94410001D01*
X158844999Y-94090001D01*
X158857178Y-94028772D01*
X158891862Y-93976864D01*
X158943770Y-93942180D01*
X159004999Y-93930001D01*
X159399999Y-93930001D01*
X159461228Y-93942180D01*
G37*
G36*
X160656228Y-93942180D02*
G01*
X160708136Y-93976864D01*
X160742820Y-94028772D01*
X160754999Y-94090001D01*
X160754999Y-94410001D01*
X160742820Y-94471230D01*
X160708136Y-94523138D01*
X160656228Y-94557822D01*
X160594999Y-94570001D01*
X160199999Y-94570001D01*
X160138770Y-94557822D01*
X160086862Y-94523138D01*
X160052178Y-94471230D01*
X160039999Y-94410001D01*
X160039999Y-94090001D01*
X160052178Y-94028772D01*
X160086862Y-93976864D01*
X160138770Y-93942180D01*
X160199999Y-93930001D01*
X160594999Y-93930001D01*
X160656228Y-93942180D01*
G37*
G36*
X115744278Y-93771283D02*
G01*
X115800890Y-93809110D01*
X115838717Y-93865722D01*
X115852000Y-93932500D01*
X115852000Y-94367500D01*
X115838717Y-94434278D01*
X115800890Y-94490890D01*
X115744278Y-94528717D01*
X115677500Y-94542000D01*
X114612500Y-94542000D01*
X114545722Y-94528717D01*
X114489110Y-94490890D01*
X114451283Y-94434278D01*
X114438000Y-94367500D01*
X114438000Y-93932500D01*
X114451283Y-93865722D01*
X114489110Y-93809110D01*
X114545722Y-93771283D01*
X114612500Y-93758000D01*
X115677500Y-93758000D01*
X115744278Y-93771283D01*
G37*
G36*
X118254278Y-93771283D02*
G01*
X118310890Y-93809110D01*
X118348717Y-93865722D01*
X118362000Y-93932500D01*
X118362000Y-94367500D01*
X118348717Y-94434278D01*
X118310890Y-94490890D01*
X118254278Y-94528717D01*
X118187500Y-94542000D01*
X117122500Y-94542000D01*
X117055722Y-94528717D01*
X116999110Y-94490890D01*
X116961283Y-94434278D01*
X116948000Y-94367500D01*
X116948000Y-93932500D01*
X116961283Y-93865722D01*
X116999110Y-93809110D01*
X117055722Y-93771283D01*
X117122500Y-93758000D01*
X118187500Y-93758000D01*
X118254278Y-93771283D01*
G37*
G36*
X144056400Y-94253200D02*
G01*
X143243600Y-94253200D01*
X143243600Y-93846800D01*
X144056400Y-93846800D01*
X144056400Y-94253200D01*
G37*
G36*
X158056398Y-94253200D02*
G01*
X157243598Y-94253200D01*
X157243598Y-93846800D01*
X158056398Y-93846800D01*
X158056398Y-94253200D01*
G37*
G36*
X164321229Y-93457179D02*
G01*
X164373137Y-93491863D01*
X164407821Y-93543771D01*
X164420000Y-93605000D01*
X164420000Y-94000000D01*
X164407821Y-94061229D01*
X164373137Y-94113137D01*
X164321229Y-94147821D01*
X164260000Y-94160000D01*
X163940000Y-94160000D01*
X163878771Y-94147821D01*
X163826863Y-94113137D01*
X163792179Y-94061229D01*
X163780000Y-94000000D01*
X163780000Y-93605000D01*
X163792179Y-93543771D01*
X163826863Y-93491863D01*
X163878771Y-93457179D01*
X163940000Y-93445000D01*
X164260000Y-93445000D01*
X164321229Y-93457179D01*
G37*
G36*
X166248701Y-93705709D02*
G01*
X166273033Y-93721967D01*
X166289291Y-93746299D01*
X166295000Y-93775000D01*
X166295000Y-93925000D01*
X166289291Y-93953701D01*
X166273033Y-93978033D01*
X166248701Y-93994291D01*
X166220000Y-94000000D01*
X165220000Y-94000000D01*
X165191299Y-93994291D01*
X165166967Y-93978033D01*
X165150709Y-93953701D01*
X165145000Y-93925000D01*
X165145000Y-93775000D01*
X165150709Y-93746299D01*
X165166967Y-93721967D01*
X165191299Y-93705709D01*
X165220000Y-93700000D01*
X166220000Y-93700000D01*
X166248701Y-93705709D01*
G37*
G36*
X127114316Y-93176799D02*
G01*
X127164602Y-93210398D01*
X127198201Y-93260684D01*
X127210000Y-93320000D01*
X127210000Y-93745000D01*
X127198201Y-93804316D01*
X127164602Y-93854602D01*
X127114316Y-93888201D01*
X127055000Y-93900000D01*
X126745000Y-93900000D01*
X126685684Y-93888201D01*
X126635398Y-93854602D01*
X126601799Y-93804316D01*
X126590000Y-93745000D01*
X126590000Y-93320000D01*
X126601799Y-93260684D01*
X126635398Y-93210398D01*
X126685684Y-93176799D01*
X126745000Y-93165000D01*
X127055000Y-93165000D01*
X127114316Y-93176799D01*
G37*
G36*
X128114316Y-93176799D02*
G01*
X128164602Y-93210398D01*
X128198201Y-93260684D01*
X128210000Y-93320000D01*
X128210000Y-93745000D01*
X128198201Y-93804316D01*
X128164602Y-93854602D01*
X128114316Y-93888201D01*
X128055000Y-93900000D01*
X127745000Y-93900000D01*
X127685684Y-93888201D01*
X127635398Y-93854602D01*
X127601799Y-93804316D01*
X127590000Y-93745000D01*
X127590000Y-93320000D01*
X127601799Y-93260684D01*
X127635398Y-93210398D01*
X127685684Y-93176799D01*
X127745000Y-93165000D01*
X128055000Y-93165000D01*
X128114316Y-93176799D01*
G37*
G36*
X115744278Y-92821283D02*
G01*
X115800890Y-92859110D01*
X115838717Y-92915722D01*
X115852000Y-92982500D01*
X115852000Y-93417500D01*
X115838717Y-93484278D01*
X115800890Y-93540890D01*
X115744278Y-93578717D01*
X115677500Y-93592000D01*
X114612500Y-93592000D01*
X114545722Y-93578717D01*
X114489110Y-93540890D01*
X114451283Y-93484278D01*
X114438000Y-93417500D01*
X114438000Y-92982500D01*
X114451283Y-92915722D01*
X114489110Y-92859110D01*
X114545722Y-92821283D01*
X114612500Y-92808000D01*
X115677500Y-92808000D01*
X115744278Y-92821283D01*
G37*
G36*
X118254278Y-92821283D02*
G01*
X118310890Y-92859110D01*
X118348717Y-92915722D01*
X118362000Y-92982500D01*
X118362000Y-93417500D01*
X118348717Y-93484278D01*
X118310890Y-93540890D01*
X118254278Y-93578717D01*
X118187500Y-93592000D01*
X117122500Y-93592000D01*
X117055722Y-93578717D01*
X116999110Y-93540890D01*
X116961283Y-93484278D01*
X116948000Y-93417500D01*
X116948000Y-92982500D01*
X116961283Y-92915722D01*
X116999110Y-92859110D01*
X117055722Y-92821283D01*
X117122500Y-92808000D01*
X118187500Y-92808000D01*
X118254278Y-92821283D01*
G37*
G36*
X159504315Y-92951800D02*
G01*
X159554601Y-92985399D01*
X159588200Y-93035685D01*
X159599999Y-93095001D01*
X159599999Y-93405001D01*
X159588200Y-93464317D01*
X159554601Y-93514603D01*
X159504315Y-93548202D01*
X159444999Y-93560001D01*
X159019999Y-93560001D01*
X158960683Y-93548202D01*
X158910397Y-93514603D01*
X158876798Y-93464317D01*
X158864999Y-93405001D01*
X158864999Y-93095001D01*
X158876798Y-93035685D01*
X158910397Y-92985399D01*
X158960683Y-92951800D01*
X159019999Y-92940001D01*
X159444999Y-92940001D01*
X159504315Y-92951800D01*
G37*
G36*
X160639315Y-92951800D02*
G01*
X160689601Y-92985399D01*
X160723200Y-93035685D01*
X160734999Y-93095001D01*
X160734999Y-93405001D01*
X160723200Y-93464317D01*
X160689601Y-93514603D01*
X160639315Y-93548202D01*
X160579999Y-93560001D01*
X160154999Y-93560001D01*
X160095683Y-93548202D01*
X160045397Y-93514603D01*
X160011798Y-93464317D01*
X159999999Y-93405001D01*
X159999999Y-93095001D01*
X160011798Y-93035685D01*
X160045397Y-92985399D01*
X160095683Y-92951800D01*
X160154999Y-92940001D01*
X160579999Y-92940001D01*
X160639315Y-92951800D01*
G37*
G36*
X129114316Y-92811799D02*
G01*
X129164602Y-92845398D01*
X129198201Y-92895684D01*
X129210000Y-92955000D01*
X129210000Y-93380000D01*
X129198201Y-93439316D01*
X129164602Y-93489602D01*
X129114316Y-93523201D01*
X129055000Y-93535000D01*
X128745000Y-93535000D01*
X128685684Y-93523201D01*
X128635398Y-93489602D01*
X128601799Y-93439316D01*
X128590000Y-93380000D01*
X128590000Y-92955000D01*
X128601799Y-92895684D01*
X128635398Y-92845398D01*
X128685684Y-92811799D01*
X128745000Y-92800000D01*
X129055000Y-92800000D01*
X129114316Y-92811799D01*
G37*
G36*
X166248701Y-93205709D02*
G01*
X166273033Y-93221967D01*
X166289291Y-93246299D01*
X166295000Y-93275000D01*
X166295000Y-93425000D01*
X166289291Y-93453701D01*
X166273033Y-93478033D01*
X166248701Y-93494291D01*
X166220000Y-93500000D01*
X165220000Y-93500000D01*
X165191299Y-93494291D01*
X165166967Y-93478033D01*
X165150709Y-93453701D01*
X165145000Y-93425000D01*
X165145000Y-93275000D01*
X165150709Y-93246299D01*
X165166967Y-93221967D01*
X165191299Y-93205709D01*
X165220000Y-93200000D01*
X166220000Y-93200000D01*
X166248701Y-93205709D01*
G37*
G36*
X144056400Y-93406402D02*
G01*
X143243600Y-93406402D01*
X143243600Y-92593602D01*
X144056400Y-92593602D01*
X144056400Y-93406402D01*
G37*
G36*
X144903198Y-93406402D02*
G01*
X144496798Y-93406402D01*
X144496798Y-92593602D01*
X144903198Y-92593602D01*
X144903198Y-93406402D01*
G37*
G36*
X145753199Y-93406402D02*
G01*
X145346799Y-93406402D01*
X145346799Y-92593602D01*
X145753199Y-92593602D01*
X145753199Y-93406402D01*
G37*
G36*
X146603200Y-93406402D02*
G01*
X146196800Y-93406402D01*
X146196800Y-92593602D01*
X146603200Y-92593602D01*
X146603200Y-93406402D01*
G37*
G36*
X147453198Y-93406402D02*
G01*
X147046798Y-93406402D01*
X147046798Y-92593602D01*
X147453198Y-92593602D01*
X147453198Y-93406402D01*
G37*
G36*
X148303199Y-93406402D02*
G01*
X147896799Y-93406402D01*
X147896799Y-92593602D01*
X148303199Y-92593602D01*
X148303199Y-93406402D01*
G37*
G36*
X149153200Y-93406402D02*
G01*
X148746800Y-93406402D01*
X148746800Y-92593602D01*
X149153200Y-92593602D01*
X149153200Y-93406402D01*
G37*
G36*
X150003198Y-93406402D02*
G01*
X149596798Y-93406402D01*
X149596798Y-92593602D01*
X150003198Y-92593602D01*
X150003198Y-93406402D01*
G37*
G36*
X150853199Y-93406402D02*
G01*
X150446799Y-93406402D01*
X150446799Y-92593602D01*
X150853199Y-92593602D01*
X150853199Y-93406402D01*
G37*
G36*
X151703200Y-93406402D02*
G01*
X151296800Y-93406402D01*
X151296800Y-92593602D01*
X151703200Y-92593602D01*
X151703200Y-93406402D01*
G37*
G36*
X152553198Y-93406402D02*
G01*
X152146798Y-93406402D01*
X152146798Y-92593602D01*
X152553198Y-92593602D01*
X152553198Y-93406402D01*
G37*
G36*
X153403199Y-93406402D02*
G01*
X152996799Y-93406402D01*
X152996799Y-92593602D01*
X153403199Y-92593602D01*
X153403199Y-93406402D01*
G37*
G36*
X154253200Y-93406402D02*
G01*
X153846800Y-93406402D01*
X153846800Y-92593602D01*
X154253200Y-92593602D01*
X154253200Y-93406402D01*
G37*
G36*
X155103198Y-93406402D02*
G01*
X154696798Y-93406402D01*
X154696798Y-92593602D01*
X155103198Y-92593602D01*
X155103198Y-93406402D01*
G37*
G36*
X155953199Y-93406402D02*
G01*
X155546799Y-93406402D01*
X155546799Y-92593602D01*
X155953199Y-92593602D01*
X155953199Y-93406402D01*
G37*
G36*
X156803200Y-93406402D02*
G01*
X156396800Y-93406402D01*
X156396800Y-92593602D01*
X156803200Y-92593602D01*
X156803200Y-93406402D01*
G37*
G36*
X158056398Y-93406402D02*
G01*
X157243598Y-93406402D01*
X157243598Y-92593602D01*
X158056398Y-92593602D01*
X158056398Y-93406402D01*
G37*
G36*
X166248701Y-92705709D02*
G01*
X166273033Y-92721967D01*
X166289291Y-92746299D01*
X166295000Y-92775000D01*
X166295000Y-92925000D01*
X166289291Y-92953701D01*
X166273033Y-92978033D01*
X166248701Y-92994291D01*
X166220000Y-93000000D01*
X165220000Y-93000000D01*
X165191299Y-92994291D01*
X165166967Y-92978033D01*
X165150709Y-92953701D01*
X165145000Y-92925000D01*
X165145000Y-92775000D01*
X165150709Y-92746299D01*
X165166967Y-92721967D01*
X165191299Y-92705709D01*
X165220000Y-92700000D01*
X166220000Y-92700000D01*
X166248701Y-92705709D01*
G37*
G36*
X110195942Y-91654065D02*
G01*
X110318193Y-91704703D01*
X110428215Y-91778218D01*
X110521782Y-91871785D01*
X110595297Y-91981807D01*
X110645935Y-92104058D01*
X110671750Y-92233838D01*
X110671750Y-92366162D01*
X110645935Y-92495942D01*
X110595297Y-92618193D01*
X110521782Y-92728215D01*
X110428215Y-92821782D01*
X110318193Y-92895297D01*
X110195942Y-92945935D01*
X110066162Y-92971750D01*
X109933838Y-92971750D01*
X109804058Y-92945935D01*
X109681807Y-92895297D01*
X109571785Y-92821782D01*
X109478218Y-92728215D01*
X109404703Y-92618193D01*
X109354065Y-92495942D01*
X109328250Y-92366162D01*
X109328250Y-92233838D01*
X109354065Y-92104058D01*
X109404703Y-91981807D01*
X109478218Y-91871785D01*
X109571785Y-91778218D01*
X109681807Y-91704703D01*
X109804058Y-91654065D01*
X109933838Y-91628250D01*
X110066162Y-91628250D01*
X110195942Y-91654065D01*
G37*
G36*
X112195942Y-91654065D02*
G01*
X112318193Y-91704703D01*
X112428215Y-91778218D01*
X112521782Y-91871785D01*
X112595297Y-91981807D01*
X112645935Y-92104058D01*
X112671750Y-92233838D01*
X112671750Y-92366162D01*
X112645935Y-92495942D01*
X112595297Y-92618193D01*
X112521782Y-92728215D01*
X112428215Y-92821782D01*
X112318193Y-92895297D01*
X112195942Y-92945935D01*
X112066162Y-92971750D01*
X111933838Y-92971750D01*
X111804058Y-92945935D01*
X111681807Y-92895297D01*
X111571785Y-92821782D01*
X111478218Y-92728215D01*
X111404703Y-92618193D01*
X111354065Y-92495942D01*
X111328250Y-92366162D01*
X111328250Y-92233838D01*
X111354065Y-92104058D01*
X111404703Y-91981807D01*
X111478218Y-91871785D01*
X111571785Y-91778218D01*
X111681807Y-91704703D01*
X111804058Y-91654065D01*
X111933838Y-91628250D01*
X112066162Y-91628250D01*
X112195942Y-91654065D01*
G37*
G36*
X115744278Y-91871283D02*
G01*
X115800890Y-91909110D01*
X115838717Y-91965722D01*
X115852000Y-92032500D01*
X115852000Y-92467500D01*
X115838717Y-92534278D01*
X115800890Y-92590890D01*
X115744278Y-92628717D01*
X115677500Y-92642000D01*
X114612500Y-92642000D01*
X114545722Y-92628717D01*
X114489110Y-92590890D01*
X114451283Y-92534278D01*
X114438000Y-92467500D01*
X114438000Y-92032500D01*
X114451283Y-91965722D01*
X114489110Y-91909110D01*
X114545722Y-91871283D01*
X114612500Y-91858000D01*
X115677500Y-91858000D01*
X115744278Y-91871283D01*
G37*
G36*
X118254278Y-91871283D02*
G01*
X118310890Y-91909110D01*
X118348717Y-91965722D01*
X118362000Y-92032500D01*
X118362000Y-92467500D01*
X118348717Y-92534278D01*
X118310890Y-92590890D01*
X118254278Y-92628717D01*
X118187500Y-92642000D01*
X117122500Y-92642000D01*
X117055722Y-92628717D01*
X116999110Y-92590890D01*
X116961283Y-92534278D01*
X116948000Y-92467500D01*
X116948000Y-92032500D01*
X116961283Y-91965722D01*
X116999110Y-91909110D01*
X117055722Y-91871283D01*
X117122500Y-91858000D01*
X118187500Y-91858000D01*
X118254278Y-91871283D01*
G37*
G36*
X159461228Y-91942180D02*
G01*
X159513136Y-91976864D01*
X159547820Y-92028772D01*
X159559999Y-92090001D01*
X159559999Y-92410001D01*
X159547820Y-92471230D01*
X159513136Y-92523138D01*
X159461228Y-92557822D01*
X159399999Y-92570001D01*
X159004999Y-92570001D01*
X158943770Y-92557822D01*
X158891862Y-92523138D01*
X158857178Y-92471230D01*
X158844999Y-92410001D01*
X158844999Y-92090001D01*
X158857178Y-92028772D01*
X158891862Y-91976864D01*
X158943770Y-91942180D01*
X159004999Y-91930001D01*
X159399999Y-91930001D01*
X159461228Y-91942180D01*
G37*
G36*
X160656228Y-91942180D02*
G01*
X160708136Y-91976864D01*
X160742820Y-92028772D01*
X160754999Y-92090001D01*
X160754999Y-92410001D01*
X160742820Y-92471230D01*
X160708136Y-92523138D01*
X160656228Y-92557822D01*
X160594999Y-92570001D01*
X160199999Y-92570001D01*
X160138770Y-92557822D01*
X160086862Y-92523138D01*
X160052178Y-92471230D01*
X160039999Y-92410001D01*
X160039999Y-92090001D01*
X160052178Y-92028772D01*
X160086862Y-91976864D01*
X160138770Y-91942180D01*
X160199999Y-91930001D01*
X160594999Y-91930001D01*
X160656228Y-91942180D01*
G37*
G36*
X166248701Y-92205709D02*
G01*
X166273033Y-92221967D01*
X166289291Y-92246299D01*
X166295000Y-92275000D01*
X166295000Y-92425000D01*
X166289291Y-92453701D01*
X166273033Y-92478033D01*
X166248701Y-92494291D01*
X166220000Y-92500000D01*
X165220000Y-92500000D01*
X165191299Y-92494291D01*
X165166967Y-92478033D01*
X165150709Y-92453701D01*
X165145000Y-92425000D01*
X165145000Y-92275000D01*
X165150709Y-92246299D01*
X165166967Y-92221967D01*
X165191299Y-92205709D01*
X165220000Y-92200000D01*
X166220000Y-92200000D01*
X166248701Y-92205709D01*
G37*
G36*
X120804316Y-91801799D02*
G01*
X120854602Y-91835398D01*
X120888201Y-91885684D01*
X120900000Y-91945000D01*
X120900000Y-92255000D01*
X120888201Y-92314316D01*
X120854602Y-92364602D01*
X120804316Y-92398201D01*
X120745000Y-92410000D01*
X120320000Y-92410000D01*
X120260684Y-92398201D01*
X120210398Y-92364602D01*
X120176799Y-92314316D01*
X120165000Y-92255000D01*
X120165000Y-91945000D01*
X120176799Y-91885684D01*
X120210398Y-91835398D01*
X120260684Y-91801799D01*
X120320000Y-91790000D01*
X120745000Y-91790000D01*
X120804316Y-91801799D01*
G37*
G36*
X121939316Y-91801799D02*
G01*
X121989602Y-91835398D01*
X122023201Y-91885684D01*
X122035000Y-91945000D01*
X122035000Y-92255000D01*
X122023201Y-92314316D01*
X121989602Y-92364602D01*
X121939316Y-92398201D01*
X121880000Y-92410000D01*
X121455000Y-92410000D01*
X121395684Y-92398201D01*
X121345398Y-92364602D01*
X121311799Y-92314316D01*
X121300000Y-92255000D01*
X121300000Y-91945000D01*
X121311799Y-91885684D01*
X121345398Y-91835398D01*
X121395684Y-91801799D01*
X121455000Y-91790000D01*
X121880000Y-91790000D01*
X121939316Y-91801799D01*
G37*
G36*
X129114316Y-91676799D02*
G01*
X129164602Y-91710398D01*
X129198201Y-91760684D01*
X129210000Y-91820000D01*
X129210000Y-92245000D01*
X129198201Y-92304316D01*
X129164602Y-92354602D01*
X129114316Y-92388201D01*
X129055000Y-92400000D01*
X128745000Y-92400000D01*
X128685684Y-92388201D01*
X128635398Y-92354602D01*
X128601799Y-92304316D01*
X128590000Y-92245000D01*
X128590000Y-91820000D01*
X128601799Y-91760684D01*
X128635398Y-91710398D01*
X128685684Y-91676799D01*
X128745000Y-91665000D01*
X129055000Y-91665000D01*
X129114316Y-91676799D01*
G37*
G36*
X123895985Y-92031661D02*
G01*
X123924372Y-92050628D01*
X123943339Y-92079015D01*
X123950000Y-92112500D01*
X123950000Y-92287500D01*
X123943339Y-92320985D01*
X123924372Y-92349372D01*
X123895985Y-92368339D01*
X123862500Y-92375000D01*
X122537500Y-92375000D01*
X122504015Y-92368339D01*
X122475628Y-92349372D01*
X122456661Y-92320985D01*
X122450000Y-92287500D01*
X122450000Y-92112500D01*
X122456661Y-92079015D01*
X122475628Y-92050628D01*
X122504015Y-92031661D01*
X122537500Y-92025000D01*
X123862500Y-92025000D01*
X123895985Y-92031661D01*
G37*
G36*
X128095985Y-92031661D02*
G01*
X128124372Y-92050628D01*
X128143339Y-92079015D01*
X128150000Y-92112500D01*
X128150000Y-92287500D01*
X128143339Y-92320985D01*
X128124372Y-92349372D01*
X128095985Y-92368339D01*
X128062500Y-92375000D01*
X126737500Y-92375000D01*
X126704015Y-92368339D01*
X126675628Y-92349372D01*
X126656661Y-92320985D01*
X126650000Y-92287500D01*
X126650000Y-92112500D01*
X126656661Y-92079015D01*
X126675628Y-92050628D01*
X126704015Y-92031661D01*
X126737500Y-92025000D01*
X128062500Y-92025000D01*
X128095985Y-92031661D01*
G37*
G36*
X134954047Y-91350805D02*
G01*
X135005408Y-91356764D01*
X135022954Y-91364511D01*
X135045671Y-91369030D01*
X135069991Y-91385280D01*
X135090793Y-91394465D01*
X135105000Y-91408672D01*
X135126777Y-91423223D01*
X135141327Y-91444999D01*
X135155534Y-91459206D01*
X135164718Y-91480006D01*
X135180970Y-91504329D01*
X135185489Y-91527048D01*
X135193235Y-91544591D01*
X135199192Y-91595940D01*
X135200000Y-91600000D01*
X135200000Y-92100000D01*
X135199193Y-92104058D01*
X135193235Y-92155408D01*
X135185489Y-92172950D01*
X135180970Y-92195671D01*
X135164716Y-92219995D01*
X135155534Y-92240793D01*
X135141329Y-92254997D01*
X135126777Y-92276777D01*
X135104997Y-92291329D01*
X135090793Y-92305534D01*
X135069995Y-92314716D01*
X135045671Y-92330970D01*
X135022950Y-92335489D01*
X135005408Y-92343235D01*
X134954061Y-92349192D01*
X134950000Y-92350000D01*
X134350000Y-92350000D01*
X134345941Y-92349192D01*
X134294591Y-92343235D01*
X134277048Y-92335489D01*
X134254329Y-92330970D01*
X134230006Y-92314718D01*
X134209206Y-92305534D01*
X134194999Y-92291327D01*
X134173223Y-92276777D01*
X134158672Y-92255000D01*
X134144465Y-92240793D01*
X134135280Y-92219991D01*
X134119030Y-92195671D01*
X134114511Y-92172954D01*
X134106764Y-92155408D01*
X134100805Y-92104049D01*
X134100000Y-92100000D01*
X134100000Y-91600000D01*
X134100804Y-91595953D01*
X134106764Y-91544591D01*
X134114511Y-91527043D01*
X134119030Y-91504329D01*
X134135278Y-91480010D01*
X134144465Y-91459206D01*
X134158674Y-91444996D01*
X134173223Y-91423223D01*
X134194996Y-91408674D01*
X134209206Y-91394465D01*
X134230010Y-91385278D01*
X134254329Y-91369030D01*
X134277043Y-91364511D01*
X134294591Y-91356764D01*
X134345952Y-91350805D01*
X134350000Y-91350000D01*
X134950000Y-91350000D01*
X134954047Y-91350805D01*
G37*
G36*
X136854047Y-91350805D02*
G01*
X136905408Y-91356764D01*
X136922954Y-91364511D01*
X136945671Y-91369030D01*
X136969991Y-91385280D01*
X136990793Y-91394465D01*
X137005000Y-91408672D01*
X137026777Y-91423223D01*
X137041327Y-91444999D01*
X137055534Y-91459206D01*
X137064718Y-91480006D01*
X137080970Y-91504329D01*
X137085489Y-91527048D01*
X137093235Y-91544591D01*
X137099192Y-91595940D01*
X137100000Y-91600000D01*
X137100000Y-92100000D01*
X137099193Y-92104058D01*
X137093235Y-92155408D01*
X137085489Y-92172950D01*
X137080970Y-92195671D01*
X137064716Y-92219995D01*
X137055534Y-92240793D01*
X137041329Y-92254997D01*
X137026777Y-92276777D01*
X137004997Y-92291329D01*
X136990793Y-92305534D01*
X136969995Y-92314716D01*
X136945671Y-92330970D01*
X136922950Y-92335489D01*
X136905408Y-92343235D01*
X136854061Y-92349192D01*
X136850000Y-92350000D01*
X136250000Y-92350000D01*
X136245941Y-92349192D01*
X136194591Y-92343235D01*
X136177048Y-92335489D01*
X136154329Y-92330970D01*
X136130006Y-92314718D01*
X136109206Y-92305534D01*
X136094999Y-92291327D01*
X136073223Y-92276777D01*
X136058672Y-92255000D01*
X136044465Y-92240793D01*
X136035280Y-92219991D01*
X136019030Y-92195671D01*
X136014511Y-92172954D01*
X136006764Y-92155408D01*
X136000805Y-92104049D01*
X136000000Y-92100000D01*
X136000000Y-91600000D01*
X136000804Y-91595953D01*
X136006764Y-91544591D01*
X136014511Y-91527043D01*
X136019030Y-91504329D01*
X136035278Y-91480010D01*
X136044465Y-91459206D01*
X136058674Y-91444996D01*
X136073223Y-91423223D01*
X136094996Y-91408674D01*
X136109206Y-91394465D01*
X136130010Y-91385278D01*
X136154329Y-91369030D01*
X136177043Y-91364511D01*
X136194591Y-91356764D01*
X136245952Y-91350805D01*
X136250000Y-91350000D01*
X136850000Y-91350000D01*
X136854047Y-91350805D01*
G37*
G36*
X166248701Y-91705709D02*
G01*
X166273033Y-91721967D01*
X166289291Y-91746299D01*
X166295000Y-91775000D01*
X166295000Y-91925000D01*
X166289291Y-91953701D01*
X166273033Y-91978033D01*
X166248701Y-91994291D01*
X166220000Y-92000000D01*
X165220000Y-92000000D01*
X165191299Y-91994291D01*
X165166967Y-91978033D01*
X165150709Y-91953701D01*
X165145000Y-91925000D01*
X165145000Y-91775000D01*
X165150709Y-91746299D01*
X165166967Y-91721967D01*
X165191299Y-91705709D01*
X165220000Y-91700000D01*
X166220000Y-91700000D01*
X166248701Y-91705709D01*
G37*
G36*
X123895985Y-91531661D02*
G01*
X123924372Y-91550628D01*
X123943339Y-91579015D01*
X123950000Y-91612500D01*
X123950000Y-91787500D01*
X123943339Y-91820985D01*
X123924372Y-91849372D01*
X123895985Y-91868339D01*
X123862500Y-91875000D01*
X122537500Y-91875000D01*
X122504015Y-91868339D01*
X122475628Y-91849372D01*
X122456661Y-91820985D01*
X122450000Y-91787500D01*
X122450000Y-91612500D01*
X122456661Y-91579015D01*
X122475628Y-91550628D01*
X122504015Y-91531661D01*
X122537500Y-91525000D01*
X123862500Y-91525000D01*
X123895985Y-91531661D01*
G37*
G36*
X128095985Y-91531661D02*
G01*
X128124372Y-91550628D01*
X128143339Y-91579015D01*
X128150000Y-91612500D01*
X128150000Y-91787500D01*
X128143339Y-91820985D01*
X128124372Y-91849372D01*
X128095985Y-91868339D01*
X128062500Y-91875000D01*
X126737500Y-91875000D01*
X126704015Y-91868339D01*
X126675628Y-91849372D01*
X126656661Y-91820985D01*
X126650000Y-91787500D01*
X126650000Y-91612500D01*
X126656661Y-91579015D01*
X126675628Y-91550628D01*
X126704015Y-91531661D01*
X126737500Y-91525000D01*
X128062500Y-91525000D01*
X128095985Y-91531661D01*
G37*
G36*
X138121229Y-90952179D02*
G01*
X138173137Y-90986863D01*
X138207821Y-91038771D01*
X138220000Y-91100000D01*
X138220000Y-91495000D01*
X138207821Y-91556229D01*
X138173137Y-91608137D01*
X138121229Y-91642821D01*
X138060000Y-91655000D01*
X137740000Y-91655000D01*
X137678771Y-91642821D01*
X137626863Y-91608137D01*
X137592179Y-91556229D01*
X137580000Y-91495000D01*
X137580000Y-91100000D01*
X137592179Y-91038771D01*
X137626863Y-90986863D01*
X137678771Y-90952179D01*
X137740000Y-90940000D01*
X138060000Y-90940000D01*
X138121229Y-90952179D01*
G37*
G36*
X133514316Y-90911799D02*
G01*
X133564602Y-90945398D01*
X133598201Y-90995684D01*
X133610000Y-91055000D01*
X133610000Y-91480000D01*
X133598201Y-91539316D01*
X133564602Y-91589602D01*
X133514316Y-91623201D01*
X133455000Y-91635000D01*
X133145000Y-91635000D01*
X133085684Y-91623201D01*
X133035398Y-91589602D01*
X133001799Y-91539316D01*
X132990000Y-91480000D01*
X132990000Y-91055000D01*
X133001799Y-90995684D01*
X133035398Y-90945398D01*
X133085684Y-90911799D01*
X133145000Y-90900000D01*
X133455000Y-90900000D01*
X133514316Y-90911799D01*
G37*
G36*
X166248701Y-91205709D02*
G01*
X166273033Y-91221967D01*
X166289291Y-91246299D01*
X166295000Y-91275000D01*
X166295000Y-91425000D01*
X166289291Y-91453701D01*
X166273033Y-91478033D01*
X166248701Y-91494291D01*
X166220000Y-91500000D01*
X165220000Y-91500000D01*
X165191299Y-91494291D01*
X165166967Y-91478033D01*
X165150709Y-91453701D01*
X165145000Y-91425000D01*
X165145000Y-91275000D01*
X165150709Y-91246299D01*
X165166967Y-91221967D01*
X165191299Y-91205709D01*
X165220000Y-91200000D01*
X166220000Y-91200000D01*
X166248701Y-91205709D01*
G37*
G36*
X123895985Y-91031661D02*
G01*
X123924372Y-91050628D01*
X123943339Y-91079015D01*
X123950000Y-91112500D01*
X123950000Y-91287500D01*
X123943339Y-91320985D01*
X123924372Y-91349372D01*
X123895985Y-91368339D01*
X123862500Y-91375000D01*
X122537500Y-91375000D01*
X122504015Y-91368339D01*
X122475628Y-91349372D01*
X122456661Y-91320985D01*
X122450000Y-91287500D01*
X122450000Y-91112500D01*
X122456661Y-91079015D01*
X122475628Y-91050628D01*
X122504015Y-91031661D01*
X122537500Y-91025000D01*
X123862500Y-91025000D01*
X123895985Y-91031661D01*
G37*
G36*
X128095985Y-91031661D02*
G01*
X128124372Y-91050628D01*
X128143339Y-91079015D01*
X128150000Y-91112500D01*
X128150000Y-91287500D01*
X128143339Y-91320985D01*
X128124372Y-91349372D01*
X128095985Y-91368339D01*
X128062500Y-91375000D01*
X126737500Y-91375000D01*
X126704015Y-91368339D01*
X126675628Y-91349372D01*
X126656661Y-91320985D01*
X126650000Y-91287500D01*
X126650000Y-91112500D01*
X126656661Y-91079015D01*
X126675628Y-91050628D01*
X126704015Y-91031661D01*
X126737500Y-91025000D01*
X128062500Y-91025000D01*
X128095985Y-91031661D01*
G37*
G36*
X163161229Y-90592179D02*
G01*
X163213137Y-90626863D01*
X163247821Y-90678771D01*
X163260000Y-90740000D01*
X163260000Y-91060000D01*
X163247821Y-91121229D01*
X163213137Y-91173137D01*
X163161229Y-91207821D01*
X163100000Y-91220000D01*
X162705000Y-91220000D01*
X162643771Y-91207821D01*
X162591863Y-91173137D01*
X162557179Y-91121229D01*
X162545000Y-91060000D01*
X162545000Y-90740000D01*
X162557179Y-90678771D01*
X162591863Y-90626863D01*
X162643771Y-90592179D01*
X162705000Y-90580000D01*
X163100000Y-90580000D01*
X163161229Y-90592179D01*
G37*
G36*
X164356229Y-90592179D02*
G01*
X164408137Y-90626863D01*
X164442821Y-90678771D01*
X164455000Y-90740000D01*
X164455000Y-91060000D01*
X164442821Y-91121229D01*
X164408137Y-91173137D01*
X164356229Y-91207821D01*
X164295000Y-91220000D01*
X163900000Y-91220000D01*
X163838771Y-91207821D01*
X163786863Y-91173137D01*
X163752179Y-91121229D01*
X163740000Y-91060000D01*
X163740000Y-90740000D01*
X163752179Y-90678771D01*
X163786863Y-90626863D01*
X163838771Y-90592179D01*
X163900000Y-90580000D01*
X164295000Y-90580000D01*
X164356229Y-90592179D01*
G37*
G36*
X120661229Y-90392179D02*
G01*
X120713137Y-90426863D01*
X120747821Y-90478771D01*
X120760000Y-90540000D01*
X120760000Y-90860000D01*
X120747821Y-90921229D01*
X120713137Y-90973137D01*
X120661229Y-91007821D01*
X120600000Y-91020000D01*
X120205000Y-91020000D01*
X120143771Y-91007821D01*
X120091863Y-90973137D01*
X120057179Y-90921229D01*
X120045000Y-90860000D01*
X120045000Y-90540000D01*
X120057179Y-90478771D01*
X120091863Y-90426863D01*
X120143771Y-90392179D01*
X120205000Y-90380000D01*
X120600000Y-90380000D01*
X120661229Y-90392179D01*
G37*
G36*
X121856229Y-90392179D02*
G01*
X121908137Y-90426863D01*
X121942821Y-90478771D01*
X121955000Y-90540000D01*
X121955000Y-90860000D01*
X121942821Y-90921229D01*
X121908137Y-90973137D01*
X121856229Y-91007821D01*
X121795000Y-91020000D01*
X121400000Y-91020000D01*
X121338771Y-91007821D01*
X121286863Y-90973137D01*
X121252179Y-90921229D01*
X121240000Y-90860000D01*
X121240000Y-90540000D01*
X121252179Y-90478771D01*
X121286863Y-90426863D01*
X121338771Y-90392179D01*
X121400000Y-90380000D01*
X121795000Y-90380000D01*
X121856229Y-90392179D01*
G37*
G36*
X166248701Y-90705709D02*
G01*
X166273033Y-90721967D01*
X166289291Y-90746299D01*
X166295000Y-90775000D01*
X166295000Y-90925000D01*
X166289291Y-90953701D01*
X166273033Y-90978033D01*
X166248701Y-90994291D01*
X166220000Y-91000000D01*
X165220000Y-91000000D01*
X165191299Y-90994291D01*
X165166967Y-90978033D01*
X165150709Y-90953701D01*
X165145000Y-90925000D01*
X165145000Y-90775000D01*
X165150709Y-90746299D01*
X165166967Y-90721967D01*
X165191299Y-90705709D01*
X165220000Y-90700000D01*
X166220000Y-90700000D01*
X166248701Y-90705709D01*
G37*
G36*
X110195942Y-89654065D02*
G01*
X110318193Y-89704703D01*
X110428215Y-89778218D01*
X110521782Y-89871785D01*
X110595297Y-89981807D01*
X110645935Y-90104058D01*
X110671750Y-90233838D01*
X110671750Y-90366162D01*
X110645935Y-90495942D01*
X110595297Y-90618193D01*
X110521782Y-90728215D01*
X110428215Y-90821782D01*
X110318193Y-90895297D01*
X110195942Y-90945935D01*
X110066162Y-90971750D01*
X109933838Y-90971750D01*
X109804058Y-90945935D01*
X109681807Y-90895297D01*
X109571785Y-90821782D01*
X109478218Y-90728215D01*
X109404703Y-90618193D01*
X109354065Y-90495942D01*
X109328250Y-90366162D01*
X109328250Y-90233838D01*
X109354065Y-90104058D01*
X109404703Y-89981807D01*
X109478218Y-89871785D01*
X109571785Y-89778218D01*
X109681807Y-89704703D01*
X109804058Y-89654065D01*
X109933838Y-89628250D01*
X110066162Y-89628250D01*
X110195942Y-89654065D01*
G37*
G36*
X112195942Y-89654065D02*
G01*
X112318193Y-89704703D01*
X112428215Y-89778218D01*
X112521782Y-89871785D01*
X112595297Y-89981807D01*
X112645935Y-90104058D01*
X112671750Y-90233838D01*
X112671750Y-90366162D01*
X112645935Y-90495942D01*
X112595297Y-90618193D01*
X112521782Y-90728215D01*
X112428215Y-90821782D01*
X112318193Y-90895297D01*
X112195942Y-90945935D01*
X112066162Y-90971750D01*
X111933838Y-90971750D01*
X111804058Y-90945935D01*
X111681807Y-90895297D01*
X111571785Y-90821782D01*
X111478218Y-90728215D01*
X111404703Y-90618193D01*
X111354065Y-90495942D01*
X111328250Y-90366162D01*
X111328250Y-90233838D01*
X111354065Y-90104058D01*
X111404703Y-89981807D01*
X111478218Y-89871785D01*
X111571785Y-89778218D01*
X111681807Y-89704703D01*
X111804058Y-89654065D01*
X111933838Y-89628250D01*
X112066162Y-89628250D01*
X112195942Y-89654065D01*
G37*
G36*
X123895985Y-90531661D02*
G01*
X123924372Y-90550628D01*
X123943339Y-90579015D01*
X123950000Y-90612500D01*
X123950000Y-90787500D01*
X123943339Y-90820985D01*
X123924372Y-90849372D01*
X123895985Y-90868339D01*
X123862500Y-90875000D01*
X122537500Y-90875000D01*
X122504015Y-90868339D01*
X122475628Y-90849372D01*
X122456661Y-90820985D01*
X122450000Y-90787500D01*
X122450000Y-90612500D01*
X122456661Y-90579015D01*
X122475628Y-90550628D01*
X122504015Y-90531661D01*
X122537500Y-90525000D01*
X123862500Y-90525000D01*
X123895985Y-90531661D01*
G37*
G36*
X128095985Y-90531661D02*
G01*
X128124372Y-90550628D01*
X128143339Y-90579015D01*
X128150000Y-90612500D01*
X128150000Y-90787500D01*
X128143339Y-90820985D01*
X128124372Y-90849372D01*
X128095985Y-90868339D01*
X128062500Y-90875000D01*
X126737500Y-90875000D01*
X126704015Y-90868339D01*
X126675628Y-90849372D01*
X126656661Y-90820985D01*
X126650000Y-90787500D01*
X126650000Y-90612500D01*
X126656661Y-90579015D01*
X126675628Y-90550628D01*
X126704015Y-90531661D01*
X126737500Y-90525000D01*
X128062500Y-90525000D01*
X128095985Y-90531661D01*
G37*
G36*
X134954047Y-89850805D02*
G01*
X135005408Y-89856764D01*
X135022954Y-89864511D01*
X135045671Y-89869030D01*
X135069991Y-89885280D01*
X135090793Y-89894465D01*
X135105000Y-89908672D01*
X135126777Y-89923223D01*
X135141327Y-89944999D01*
X135155534Y-89959206D01*
X135164718Y-89980006D01*
X135180970Y-90004329D01*
X135185489Y-90027048D01*
X135193235Y-90044591D01*
X135199192Y-90095940D01*
X135200000Y-90100000D01*
X135200000Y-90600000D01*
X135199192Y-90604059D01*
X135193235Y-90655408D01*
X135185489Y-90672950D01*
X135180970Y-90695671D01*
X135164716Y-90719995D01*
X135155534Y-90740793D01*
X135141329Y-90754997D01*
X135126777Y-90776777D01*
X135104997Y-90791329D01*
X135090793Y-90805534D01*
X135069995Y-90814716D01*
X135045671Y-90830970D01*
X135022950Y-90835489D01*
X135005408Y-90843235D01*
X134954061Y-90849192D01*
X134950000Y-90850000D01*
X134350000Y-90850000D01*
X134345941Y-90849192D01*
X134294591Y-90843235D01*
X134277048Y-90835489D01*
X134254329Y-90830970D01*
X134230006Y-90814718D01*
X134209206Y-90805534D01*
X134194999Y-90791327D01*
X134173223Y-90776777D01*
X134158672Y-90755000D01*
X134144465Y-90740793D01*
X134135280Y-90719991D01*
X134119030Y-90695671D01*
X134114511Y-90672954D01*
X134106764Y-90655408D01*
X134100805Y-90604049D01*
X134100000Y-90600000D01*
X134100000Y-90100000D01*
X134100804Y-90095953D01*
X134106764Y-90044591D01*
X134114511Y-90027043D01*
X134119030Y-90004329D01*
X134135278Y-89980010D01*
X134144465Y-89959206D01*
X134158674Y-89944996D01*
X134173223Y-89923223D01*
X134194996Y-89908674D01*
X134209206Y-89894465D01*
X134230010Y-89885278D01*
X134254329Y-89869030D01*
X134277043Y-89864511D01*
X134294591Y-89856764D01*
X134345952Y-89850805D01*
X134350000Y-89850000D01*
X134950000Y-89850000D01*
X134954047Y-89850805D01*
G37*
G36*
X136854047Y-89850805D02*
G01*
X136905408Y-89856764D01*
X136922954Y-89864511D01*
X136945671Y-89869030D01*
X136969991Y-89885280D01*
X136990793Y-89894465D01*
X137005000Y-89908672D01*
X137026777Y-89923223D01*
X137041327Y-89944999D01*
X137055534Y-89959206D01*
X137064718Y-89980006D01*
X137080970Y-90004329D01*
X137085489Y-90027048D01*
X137093235Y-90044591D01*
X137099192Y-90095940D01*
X137100000Y-90100000D01*
X137100000Y-90600000D01*
X137099192Y-90604059D01*
X137093235Y-90655408D01*
X137085489Y-90672950D01*
X137080970Y-90695671D01*
X137064716Y-90719995D01*
X137055534Y-90740793D01*
X137041329Y-90754997D01*
X137026777Y-90776777D01*
X137004997Y-90791329D01*
X136990793Y-90805534D01*
X136969995Y-90814716D01*
X136945671Y-90830970D01*
X136922950Y-90835489D01*
X136905408Y-90843235D01*
X136854061Y-90849192D01*
X136850000Y-90850000D01*
X136250000Y-90850000D01*
X136245941Y-90849192D01*
X136194591Y-90843235D01*
X136177048Y-90835489D01*
X136154329Y-90830970D01*
X136130006Y-90814718D01*
X136109206Y-90805534D01*
X136094999Y-90791327D01*
X136073223Y-90776777D01*
X136058672Y-90755000D01*
X136044465Y-90740793D01*
X136035280Y-90719991D01*
X136019030Y-90695671D01*
X136014511Y-90672954D01*
X136006764Y-90655408D01*
X136000805Y-90604049D01*
X136000000Y-90600000D01*
X136000000Y-90100000D01*
X136000804Y-90095953D01*
X136006764Y-90044591D01*
X136014511Y-90027043D01*
X136019030Y-90004329D01*
X136035278Y-89980010D01*
X136044465Y-89959206D01*
X136058674Y-89944996D01*
X136073223Y-89923223D01*
X136094996Y-89908674D01*
X136109206Y-89894465D01*
X136130010Y-89885278D01*
X136154329Y-89869030D01*
X136177043Y-89864511D01*
X136194591Y-89856764D01*
X136245952Y-89850805D01*
X136250000Y-89850000D01*
X136850000Y-89850000D01*
X136854047Y-89850805D01*
G37*
G36*
X130700000Y-90800000D02*
G01*
X129700000Y-90800000D01*
X129700000Y-89800000D01*
X130700000Y-89800000D01*
X130700000Y-90800000D01*
G37*
G36*
X146400000Y-90525000D02*
G01*
X145900000Y-90525000D01*
X145900000Y-88875000D01*
X146400000Y-88875000D01*
X146400000Y-90525000D01*
G37*
G36*
X148700000Y-90525000D02*
G01*
X148200000Y-90525000D01*
X148200000Y-88875000D01*
X148700000Y-88875000D01*
X148700000Y-90525000D01*
G37*
G36*
X133514316Y-89776799D02*
G01*
X133564602Y-89810398D01*
X133598201Y-89860684D01*
X133610000Y-89920000D01*
X133610000Y-90345000D01*
X133598201Y-90404316D01*
X133564602Y-90454602D01*
X133514316Y-90488201D01*
X133455000Y-90500000D01*
X133145000Y-90500000D01*
X133085684Y-90488201D01*
X133035398Y-90454602D01*
X133001799Y-90404316D01*
X132990000Y-90345000D01*
X132990000Y-89920000D01*
X133001799Y-89860684D01*
X133035398Y-89810398D01*
X133085684Y-89776799D01*
X133145000Y-89765000D01*
X133455000Y-89765000D01*
X133514316Y-89776799D01*
G37*
G36*
X166248701Y-90205709D02*
G01*
X166273033Y-90221967D01*
X166289291Y-90246299D01*
X166295000Y-90275000D01*
X166295000Y-90425000D01*
X166289291Y-90453701D01*
X166273033Y-90478033D01*
X166248701Y-90494291D01*
X166220000Y-90500000D01*
X165220000Y-90500000D01*
X165191299Y-90494291D01*
X165166967Y-90478033D01*
X165150709Y-90453701D01*
X165145000Y-90425000D01*
X165145000Y-90275000D01*
X165150709Y-90246299D01*
X165166967Y-90221967D01*
X165191299Y-90205709D01*
X165220000Y-90200000D01*
X166220000Y-90200000D01*
X166248701Y-90205709D01*
G37*
G36*
X138121229Y-89757179D02*
G01*
X138173137Y-89791863D01*
X138207821Y-89843771D01*
X138220000Y-89905000D01*
X138220000Y-90300000D01*
X138207821Y-90361229D01*
X138173137Y-90413137D01*
X138121229Y-90447821D01*
X138060000Y-90460000D01*
X137740000Y-90460000D01*
X137678771Y-90447821D01*
X137626863Y-90413137D01*
X137592179Y-90361229D01*
X137580000Y-90300000D01*
X137580000Y-89905000D01*
X137592179Y-89843771D01*
X137626863Y-89791863D01*
X137678771Y-89757179D01*
X137740000Y-89745000D01*
X138060000Y-89745000D01*
X138121229Y-89757179D01*
G37*
G36*
X152100000Y-90425000D02*
G01*
X151600000Y-90425000D01*
X151600000Y-88775000D01*
X152100000Y-88775000D01*
X152100000Y-90425000D01*
G37*
G36*
X154400000Y-90425000D02*
G01*
X153900000Y-90425000D01*
X153900000Y-88775000D01*
X154400000Y-88775000D01*
X154400000Y-90425000D01*
G37*
G36*
X123895985Y-90031661D02*
G01*
X123924372Y-90050628D01*
X123943339Y-90079015D01*
X123950000Y-90112500D01*
X123950000Y-90287500D01*
X123943339Y-90320985D01*
X123924372Y-90349372D01*
X123895985Y-90368339D01*
X123862500Y-90375000D01*
X122537500Y-90375000D01*
X122504015Y-90368339D01*
X122475628Y-90349372D01*
X122456661Y-90320985D01*
X122450000Y-90287500D01*
X122450000Y-90112500D01*
X122456661Y-90079015D01*
X122475628Y-90050628D01*
X122504015Y-90031661D01*
X122537500Y-90025000D01*
X123862500Y-90025000D01*
X123895985Y-90031661D01*
G37*
G36*
X128095985Y-90031661D02*
G01*
X128124372Y-90050628D01*
X128143339Y-90079015D01*
X128150000Y-90112500D01*
X128150000Y-90287500D01*
X128143339Y-90320985D01*
X128124372Y-90349372D01*
X128095985Y-90368339D01*
X128062500Y-90375000D01*
X126737500Y-90375000D01*
X126704015Y-90368339D01*
X126675628Y-90349372D01*
X126656661Y-90320985D01*
X126650000Y-90287500D01*
X126650000Y-90112500D01*
X126656661Y-90079015D01*
X126675628Y-90050628D01*
X126704015Y-90031661D01*
X126737500Y-90025000D01*
X128062500Y-90025000D01*
X128095985Y-90031661D01*
G37*
G36*
X115700000Y-90300000D02*
G01*
X114700000Y-90300000D01*
X114700000Y-89300000D01*
X115700000Y-89300000D01*
X115700000Y-90300000D01*
G37*
G36*
X166202403Y-89411418D02*
G01*
X166251066Y-89443934D01*
X166283582Y-89492597D01*
X166295000Y-89550000D01*
X166295000Y-89850000D01*
X166283582Y-89907403D01*
X166251066Y-89956066D01*
X166202403Y-89988582D01*
X166145000Y-90000000D01*
X165295000Y-90000000D01*
X165237597Y-89988582D01*
X165188934Y-89956066D01*
X165156418Y-89907403D01*
X165145000Y-89850000D01*
X165145000Y-89550000D01*
X165156418Y-89492597D01*
X165188934Y-89443934D01*
X165237597Y-89411418D01*
X165295000Y-89400000D01*
X166145000Y-89400000D01*
X166202403Y-89411418D01*
G37*
G36*
X118164903Y-89061418D02*
G01*
X118213566Y-89093934D01*
X118246082Y-89142597D01*
X118257500Y-89200000D01*
X118257500Y-89500000D01*
X118246082Y-89557403D01*
X118213566Y-89606066D01*
X118164903Y-89638582D01*
X118107500Y-89650000D01*
X117082500Y-89650000D01*
X117025097Y-89638582D01*
X116976434Y-89606066D01*
X116943918Y-89557403D01*
X116932500Y-89500000D01*
X116932500Y-89200000D01*
X116943918Y-89142597D01*
X116976434Y-89093934D01*
X117025097Y-89061418D01*
X117082500Y-89050000D01*
X118107500Y-89050000D01*
X118164903Y-89061418D01*
G37*
G36*
X120439903Y-89061418D02*
G01*
X120488566Y-89093934D01*
X120521082Y-89142597D01*
X120532500Y-89200000D01*
X120532500Y-89500000D01*
X120521082Y-89557403D01*
X120488566Y-89606066D01*
X120439903Y-89638582D01*
X120382500Y-89650000D01*
X119357500Y-89650000D01*
X119300097Y-89638582D01*
X119251434Y-89606066D01*
X119218918Y-89557403D01*
X119207500Y-89500000D01*
X119207500Y-89200000D01*
X119218918Y-89142597D01*
X119251434Y-89093934D01*
X119300097Y-89061418D01*
X119357500Y-89050000D01*
X120382500Y-89050000D01*
X120439903Y-89061418D01*
G37*
G36*
X166919372Y-88909739D02*
G01*
X166992847Y-88952160D01*
X167052840Y-89012153D01*
X167095261Y-89085628D01*
X167117220Y-89167579D01*
X167117220Y-89252421D01*
X167095261Y-89334372D01*
X167052840Y-89407847D01*
X166992847Y-89467840D01*
X166919372Y-89510261D01*
X166837421Y-89532220D01*
X166752579Y-89532220D01*
X166670628Y-89510261D01*
X166597153Y-89467840D01*
X166537160Y-89407847D01*
X166494739Y-89334372D01*
X166472780Y-89252421D01*
X166472780Y-89167579D01*
X166494739Y-89085628D01*
X166537160Y-89012153D01*
X166597153Y-88952160D01*
X166670628Y-88909739D01*
X166752579Y-88887780D01*
X166837421Y-88887780D01*
X166919372Y-88909739D01*
G37*
G36*
X166202403Y-88611418D02*
G01*
X166251066Y-88643934D01*
X166283582Y-88692597D01*
X166295000Y-88750000D01*
X166295000Y-89050000D01*
X166283582Y-89107403D01*
X166251066Y-89156066D01*
X166202403Y-89188582D01*
X166145000Y-89200000D01*
X165295000Y-89200000D01*
X165237597Y-89188582D01*
X165188934Y-89156066D01*
X165156418Y-89107403D01*
X165145000Y-89050000D01*
X165145000Y-88750000D01*
X165156418Y-88692597D01*
X165188934Y-88643934D01*
X165237597Y-88611418D01*
X165295000Y-88600000D01*
X166145000Y-88600000D01*
X166202403Y-88611418D01*
G37*
G36*
X110195942Y-87654065D02*
G01*
X110318193Y-87704703D01*
X110428215Y-87778218D01*
X110521782Y-87871785D01*
X110595297Y-87981807D01*
X110645935Y-88104058D01*
X110671750Y-88233838D01*
X110671750Y-88366162D01*
X110645935Y-88495942D01*
X110595297Y-88618193D01*
X110521782Y-88728215D01*
X110428215Y-88821782D01*
X110318193Y-88895297D01*
X110195942Y-88945935D01*
X110066162Y-88971750D01*
X109933838Y-88971750D01*
X109804058Y-88945935D01*
X109681807Y-88895297D01*
X109571785Y-88821782D01*
X109478218Y-88728215D01*
X109404703Y-88618193D01*
X109354065Y-88495942D01*
X109328250Y-88366162D01*
X109328250Y-88233838D01*
X109354065Y-88104058D01*
X109404703Y-87981807D01*
X109478218Y-87871785D01*
X109571785Y-87778218D01*
X109681807Y-87704703D01*
X109804058Y-87654065D01*
X109933838Y-87628250D01*
X110066162Y-87628250D01*
X110195942Y-87654065D01*
G37*
G36*
X112195942Y-87654065D02*
G01*
X112318193Y-87704703D01*
X112428215Y-87778218D01*
X112521782Y-87871785D01*
X112595297Y-87981807D01*
X112645935Y-88104058D01*
X112671750Y-88233838D01*
X112671750Y-88366162D01*
X112645935Y-88495942D01*
X112595297Y-88618193D01*
X112521782Y-88728215D01*
X112428215Y-88821782D01*
X112318193Y-88895297D01*
X112195942Y-88945935D01*
X112066162Y-88971750D01*
X111933838Y-88971750D01*
X111804058Y-88945935D01*
X111681807Y-88895297D01*
X111571785Y-88821782D01*
X111478218Y-88728215D01*
X111404703Y-88618193D01*
X111354065Y-88495942D01*
X111328250Y-88366162D01*
X111328250Y-88233838D01*
X111354065Y-88104058D01*
X111404703Y-87981807D01*
X111478218Y-87871785D01*
X111571785Y-87778218D01*
X111681807Y-87704703D01*
X111804058Y-87654065D01*
X111933838Y-87628250D01*
X112066162Y-87628250D01*
X112195942Y-87654065D01*
G37*
G36*
X118164903Y-88111418D02*
G01*
X118213566Y-88143934D01*
X118246082Y-88192597D01*
X118257500Y-88250000D01*
X118257500Y-88550000D01*
X118246082Y-88607403D01*
X118213566Y-88656066D01*
X118164903Y-88688582D01*
X118107500Y-88700000D01*
X117082500Y-88700000D01*
X117025097Y-88688582D01*
X116976434Y-88656066D01*
X116943918Y-88607403D01*
X116932500Y-88550000D01*
X116932500Y-88250000D01*
X116943918Y-88192597D01*
X116976434Y-88143934D01*
X117025097Y-88111418D01*
X117082500Y-88100000D01*
X118107500Y-88100000D01*
X118164903Y-88111418D01*
G37*
G36*
X140800000Y-88400000D02*
G01*
X139800000Y-88400000D01*
X139800000Y-87400000D01*
X140800000Y-87400000D01*
X140800000Y-88400000D01*
G37*
G36*
X129100000Y-88300000D02*
G01*
X128100000Y-88300000D01*
X128100000Y-87300000D01*
X129100000Y-87300000D01*
X129100000Y-88300000D01*
G37*
G36*
X167049047Y-85900805D02*
G01*
X167100408Y-85906764D01*
X167117954Y-85914511D01*
X167140671Y-85919030D01*
X167164991Y-85935280D01*
X167185793Y-85944465D01*
X167200000Y-85958672D01*
X167221777Y-85973223D01*
X167236327Y-85994999D01*
X167250534Y-86009206D01*
X167259718Y-86030006D01*
X167275970Y-86054329D01*
X167280489Y-86077048D01*
X167288235Y-86094591D01*
X167294192Y-86145940D01*
X167295000Y-86150000D01*
X167295000Y-87830000D01*
X167294192Y-87834059D01*
X167288235Y-87885408D01*
X167280489Y-87902950D01*
X167275970Y-87925671D01*
X167259716Y-87949995D01*
X167250534Y-87970793D01*
X167236329Y-87984997D01*
X167221777Y-88006777D01*
X167199997Y-88021329D01*
X167185793Y-88035534D01*
X167164995Y-88044716D01*
X167140671Y-88060970D01*
X167117950Y-88065489D01*
X167100408Y-88073235D01*
X167049061Y-88079192D01*
X167045000Y-88080000D01*
X165545000Y-88080000D01*
X165540941Y-88079192D01*
X165489591Y-88073235D01*
X165472048Y-88065489D01*
X165449329Y-88060970D01*
X165425006Y-88044718D01*
X165404206Y-88035534D01*
X165389999Y-88021327D01*
X165368223Y-88006777D01*
X165353672Y-87985000D01*
X165339465Y-87970793D01*
X165330280Y-87949991D01*
X165314030Y-87925671D01*
X165309511Y-87902954D01*
X165301764Y-87885408D01*
X165295805Y-87834049D01*
X165295000Y-87830000D01*
X165295000Y-86150000D01*
X165295804Y-86145953D01*
X165301764Y-86094591D01*
X165309511Y-86077043D01*
X165314030Y-86054329D01*
X165330278Y-86030010D01*
X165339465Y-86009206D01*
X165353674Y-85994996D01*
X165368223Y-85973223D01*
X165389996Y-85958674D01*
X165404206Y-85944465D01*
X165425010Y-85935278D01*
X165449329Y-85919030D01*
X165472043Y-85914511D01*
X165489591Y-85906764D01*
X165540952Y-85900805D01*
X165545000Y-85900000D01*
X167045000Y-85900000D01*
X167049047Y-85900805D01*
G37*
G36*
X170979047Y-85900805D02*
G01*
X171030408Y-85906764D01*
X171047954Y-85914511D01*
X171070671Y-85919030D01*
X171094991Y-85935280D01*
X171115793Y-85944465D01*
X171130000Y-85958672D01*
X171151777Y-85973223D01*
X171166327Y-85994999D01*
X171180534Y-86009206D01*
X171189718Y-86030006D01*
X171205970Y-86054329D01*
X171210489Y-86077048D01*
X171218235Y-86094591D01*
X171224192Y-86145940D01*
X171225000Y-86150000D01*
X171225000Y-87830000D01*
X171224192Y-87834059D01*
X171218235Y-87885408D01*
X171210489Y-87902950D01*
X171205970Y-87925671D01*
X171189716Y-87949995D01*
X171180534Y-87970793D01*
X171166329Y-87984997D01*
X171151777Y-88006777D01*
X171129997Y-88021329D01*
X171115793Y-88035534D01*
X171094995Y-88044716D01*
X171070671Y-88060970D01*
X171047950Y-88065489D01*
X171030408Y-88073235D01*
X170979061Y-88079192D01*
X170975000Y-88080000D01*
X169475000Y-88080000D01*
X169470941Y-88079192D01*
X169419591Y-88073235D01*
X169402048Y-88065489D01*
X169379329Y-88060970D01*
X169355006Y-88044718D01*
X169334206Y-88035534D01*
X169319999Y-88021327D01*
X169298223Y-88006777D01*
X169283672Y-87985000D01*
X169269465Y-87970793D01*
X169260280Y-87949991D01*
X169244030Y-87925671D01*
X169239511Y-87902954D01*
X169231764Y-87885408D01*
X169225805Y-87834049D01*
X169225000Y-87830000D01*
X169225000Y-86150000D01*
X169225804Y-86145953D01*
X169231764Y-86094591D01*
X169239511Y-86077043D01*
X169244030Y-86054329D01*
X169260278Y-86030010D01*
X169269465Y-86009206D01*
X169283674Y-85994996D01*
X169298223Y-85973223D01*
X169319996Y-85958674D01*
X169334206Y-85944465D01*
X169355010Y-85935278D01*
X169379329Y-85919030D01*
X169402043Y-85914511D01*
X169419591Y-85906764D01*
X169470952Y-85900805D01*
X169475000Y-85900000D01*
X170975000Y-85900000D01*
X170979047Y-85900805D01*
G37*
G36*
X121974047Y-86925805D02*
G01*
X122022547Y-86931432D01*
X122039118Y-86938748D01*
X122060887Y-86943079D01*
X122084190Y-86958649D01*
X122103728Y-86967276D01*
X122117072Y-86980620D01*
X122137938Y-86994562D01*
X122151879Y-87015427D01*
X122165223Y-87028771D01*
X122173848Y-87048307D01*
X122189421Y-87071613D01*
X122193751Y-87093383D01*
X122201067Y-87109952D01*
X122206692Y-87158440D01*
X122207500Y-87162500D01*
X122207500Y-87637500D01*
X122206692Y-87641559D01*
X122201067Y-87690047D01*
X122193751Y-87706614D01*
X122189421Y-87728387D01*
X122173847Y-87751694D01*
X122165223Y-87771228D01*
X122151881Y-87784569D01*
X122137938Y-87805438D01*
X122117069Y-87819381D01*
X122103728Y-87832723D01*
X122084194Y-87841347D01*
X122060887Y-87856921D01*
X122039114Y-87861251D01*
X122022547Y-87868567D01*
X121974060Y-87874192D01*
X121970000Y-87875000D01*
X121370000Y-87875000D01*
X121365941Y-87874192D01*
X121317452Y-87868567D01*
X121300883Y-87861251D01*
X121279113Y-87856921D01*
X121255807Y-87841348D01*
X121236271Y-87832723D01*
X121222927Y-87819379D01*
X121202062Y-87805438D01*
X121188120Y-87784572D01*
X121174776Y-87771228D01*
X121166149Y-87751690D01*
X121150579Y-87728387D01*
X121146248Y-87706618D01*
X121138932Y-87690047D01*
X121133305Y-87641548D01*
X121132500Y-87637500D01*
X121132500Y-87162500D01*
X121133304Y-87158453D01*
X121138932Y-87109952D01*
X121146249Y-87093379D01*
X121150579Y-87071613D01*
X121166148Y-87048311D01*
X121174776Y-87028771D01*
X121188122Y-87015424D01*
X121202062Y-86994562D01*
X121222924Y-86980622D01*
X121236271Y-86967276D01*
X121255811Y-86958648D01*
X121279113Y-86943079D01*
X121300879Y-86938749D01*
X121317452Y-86931432D01*
X121365952Y-86925805D01*
X121370000Y-86925000D01*
X121970000Y-86925000D01*
X121974047Y-86925805D01*
G37*
G36*
X123699047Y-86925805D02*
G01*
X123747547Y-86931432D01*
X123764118Y-86938748D01*
X123785887Y-86943079D01*
X123809190Y-86958649D01*
X123828728Y-86967276D01*
X123842072Y-86980620D01*
X123862938Y-86994562D01*
X123876879Y-87015427D01*
X123890223Y-87028771D01*
X123898848Y-87048307D01*
X123914421Y-87071613D01*
X123918751Y-87093383D01*
X123926067Y-87109952D01*
X123931692Y-87158440D01*
X123932500Y-87162500D01*
X123932500Y-87637500D01*
X123931692Y-87641559D01*
X123926067Y-87690047D01*
X123918751Y-87706614D01*
X123914421Y-87728387D01*
X123898847Y-87751694D01*
X123890223Y-87771228D01*
X123876881Y-87784569D01*
X123862938Y-87805438D01*
X123842069Y-87819381D01*
X123828728Y-87832723D01*
X123809194Y-87841347D01*
X123785887Y-87856921D01*
X123764114Y-87861251D01*
X123747547Y-87868567D01*
X123699060Y-87874192D01*
X123695000Y-87875000D01*
X123095000Y-87875000D01*
X123090941Y-87874192D01*
X123042452Y-87868567D01*
X123025883Y-87861251D01*
X123004113Y-87856921D01*
X122980807Y-87841348D01*
X122961271Y-87832723D01*
X122947927Y-87819379D01*
X122927062Y-87805438D01*
X122913120Y-87784572D01*
X122899776Y-87771228D01*
X122891149Y-87751690D01*
X122875579Y-87728387D01*
X122871248Y-87706618D01*
X122863932Y-87690047D01*
X122858305Y-87641548D01*
X122857500Y-87637500D01*
X122857500Y-87162500D01*
X122858304Y-87158453D01*
X122863932Y-87109952D01*
X122871249Y-87093379D01*
X122875579Y-87071613D01*
X122891148Y-87048311D01*
X122899776Y-87028771D01*
X122913122Y-87015424D01*
X122927062Y-86994562D01*
X122947924Y-86980622D01*
X122961271Y-86967276D01*
X122980811Y-86958648D01*
X123004113Y-86943079D01*
X123025879Y-86938749D01*
X123042452Y-86931432D01*
X123090952Y-86925805D01*
X123095000Y-86925000D01*
X123695000Y-86925000D01*
X123699047Y-86925805D01*
G37*
G36*
X118164903Y-87161418D02*
G01*
X118213566Y-87193934D01*
X118246082Y-87242597D01*
X118257500Y-87300000D01*
X118257500Y-87600000D01*
X118246082Y-87657403D01*
X118213566Y-87706066D01*
X118164903Y-87738582D01*
X118107500Y-87750000D01*
X117082500Y-87750000D01*
X117025097Y-87738582D01*
X116976434Y-87706066D01*
X116943918Y-87657403D01*
X116932500Y-87600000D01*
X116932500Y-87300000D01*
X116943918Y-87242597D01*
X116976434Y-87193934D01*
X117025097Y-87161418D01*
X117082500Y-87150000D01*
X118107500Y-87150000D01*
X118164903Y-87161418D01*
G37*
G36*
X120439903Y-87161418D02*
G01*
X120488566Y-87193934D01*
X120521082Y-87242597D01*
X120532500Y-87300000D01*
X120532500Y-87600000D01*
X120521082Y-87657403D01*
X120488566Y-87706066D01*
X120439903Y-87738582D01*
X120382500Y-87750000D01*
X119357500Y-87750000D01*
X119300097Y-87738582D01*
X119251434Y-87706066D01*
X119218918Y-87657403D01*
X119207500Y-87600000D01*
X119207500Y-87300000D01*
X119218918Y-87242597D01*
X119251434Y-87193934D01*
X119300097Y-87161418D01*
X119357500Y-87150000D01*
X120382500Y-87150000D01*
X120439903Y-87161418D01*
G37*
G36*
X115204316Y-87101799D02*
G01*
X115254602Y-87135398D01*
X115288201Y-87185684D01*
X115300000Y-87245000D01*
X115300000Y-87555000D01*
X115288201Y-87614316D01*
X115254602Y-87664602D01*
X115204316Y-87698201D01*
X115145000Y-87710000D01*
X114720000Y-87710000D01*
X114660684Y-87698201D01*
X114610398Y-87664602D01*
X114576799Y-87614316D01*
X114565000Y-87555000D01*
X114565000Y-87245000D01*
X114576799Y-87185684D01*
X114610398Y-87135398D01*
X114660684Y-87101799D01*
X114720000Y-87090000D01*
X115145000Y-87090000D01*
X115204316Y-87101799D01*
G37*
G36*
X116339316Y-87101799D02*
G01*
X116389602Y-87135398D01*
X116423201Y-87185684D01*
X116435000Y-87245000D01*
X116435000Y-87555000D01*
X116423201Y-87614316D01*
X116389602Y-87664602D01*
X116339316Y-87698201D01*
X116280000Y-87710000D01*
X115855000Y-87710000D01*
X115795684Y-87698201D01*
X115745398Y-87664602D01*
X115711799Y-87614316D01*
X115700000Y-87555000D01*
X115700000Y-87245000D01*
X115711799Y-87185684D01*
X115745398Y-87135398D01*
X115795684Y-87101799D01*
X115855000Y-87090000D01*
X116280000Y-87090000D01*
X116339316Y-87101799D01*
G37*
M02*
