%TF.GenerationSoftware,KiCad,Pcbnew,10.0.0*%
%TF.CreationDate,2026-10-10T17:18:28-04:00*%
%TF.ProjectId,WSG_1.0,5753475f-312e-4302-9e6b-696361645f70,rev?*%
%TF.SameCoordinates,Original*%
%TF.FileFunction,Paste,Top*%
%TF.FilePolarity,Positive*%
%FSLAX46Y46*%
G04 Gerber Fmt 4.6, Leading zero omitted, Abs format (unit mm)*
G04 Created by KiCad (PCBNEW 10.0.0) date 2026-10-10 17:18:28*
%MOMM*%
%LPD*%
G01*
G04 APERTURE LIST*
G04 Aperture macros list*
%AMRoundRect*
0 Rectangle with rounded corners*
0 $1 Rounding radius*
0 $2 $3 $4 $5 $6 $7 $8 $9 X,Y pos of 4 corners*
0 Add a 4 corners polygon primitive as box body*
4,1,4,$2,$3,$4,$5,$6,$7,$8,$9,$2,$3,0*
0 Add four circle primitives for the rounded corners*
1,1,$1+$1,$2,$3*
1,1,$1+$1,$4,$5*
1,1,$1+$1,$6,$7*
1,1,$1+$1,$8,$9*
0 Add four rect primitives between the rounded corners*
20,1,$1+$1,$2,$3,$4,$5,0*
20,1,$1+$1,$4,$5,$6,$7,0*
20,1,$1+$1,$6,$7,$8,$9,0*
20,1,$1+$1,$8,$9,$2,$3,0*%
G04 Aperture macros list end*
%ADD10RoundRect,0.160000X0.160000X-0.197500X0.160000X0.197500X-0.160000X0.197500X-0.160000X-0.197500X0*%
%ADD11RoundRect,0.125000X-0.687500X-0.125000X0.687500X-0.125000X0.687500X0.125000X-0.687500X0.125000X0*%
%ADD12RoundRect,0.160000X0.197500X0.160000X-0.197500X0.160000X-0.197500X-0.160000X0.197500X-0.160000X0*%
%ADD13RoundRect,0.160000X-0.197500X-0.160000X0.197500X-0.160000X0.197500X0.160000X-0.197500X0.160000X0*%
%ADD14RoundRect,0.150000X0.425000X-0.150000X0.425000X0.150000X-0.425000X0.150000X-0.425000X-0.150000X0*%
%ADD15RoundRect,0.075000X0.500000X-0.075000X0.500000X0.075000X-0.500000X0.075000X-0.500000X-0.075000X0*%
%ADD16RoundRect,0.250000X0.750000X-0.840000X0.750000X0.840000X-0.750000X0.840000X-0.750000X-0.840000X0*%
%ADD17RoundRect,0.087500X0.662500X0.087500X-0.662500X0.087500X-0.662500X-0.087500X0.662500X-0.087500X0*%
%ADD18RoundRect,0.155000X0.155000X-0.212500X0.155000X0.212500X-0.155000X0.212500X-0.155000X-0.212500X0*%
%ADD19RoundRect,0.250000X-1.000000X-0.650000X1.000000X-0.650000X1.000000X0.650000X-1.000000X0.650000X0*%
%ADD20RoundRect,0.237500X0.300000X0.237500X-0.300000X0.237500X-0.300000X-0.237500X0.300000X-0.237500X0*%
%ADD21RoundRect,0.155000X-0.155000X0.212500X-0.155000X-0.212500X0.155000X-0.212500X0.155000X0.212500X0*%
%ADD22RoundRect,0.150000X-0.512500X-0.150000X0.512500X-0.150000X0.512500X0.150000X-0.512500X0.150000X0*%
%ADD23RoundRect,0.160000X-0.160000X0.197500X-0.160000X-0.197500X0.160000X-0.197500X0.160000X0.197500X0*%
%ADD24RoundRect,0.155000X0.212500X0.155000X-0.212500X0.155000X-0.212500X-0.155000X0.212500X-0.155000X0*%
%ADD25RoundRect,0.150000X0.150000X-0.512500X0.150000X0.512500X-0.150000X0.512500X-0.150000X-0.512500X0*%
%ADD26RoundRect,0.250000X-0.625000X0.375000X-0.625000X-0.375000X0.625000X-0.375000X0.625000X0.375000X0*%
%ADD27RoundRect,0.250000X-0.300000X-0.250000X0.300000X-0.250000X0.300000X0.250000X-0.300000X0.250000X0*%
%ADD28R,0.500000X1.650000*%
%ADD29RoundRect,0.155000X-0.212500X-0.155000X0.212500X-0.155000X0.212500X0.155000X-0.212500X0.155000X0*%
%ADD30RoundRect,0.075000X-0.662500X-0.075000X0.662500X-0.075000X0.662500X0.075000X-0.662500X0.075000X0*%
%ADD31RoundRect,0.075000X-0.075000X-0.662500X0.075000X-0.662500X0.075000X0.662500X-0.075000X0.662500X0*%
%ADD32R,0.812800X0.406400*%
%ADD33R,0.406400X0.812800*%
%ADD34R,1.193800X1.193800*%
%ADD35R,0.812800X0.812800*%
%ADD36RoundRect,0.072500X-0.532500X-0.217500X0.532500X-0.217500X0.532500X0.217500X-0.532500X0.217500X0*%
G04 APERTURE END LIST*
D10*
%TO.C,R21*%
X116500000Y-106740000D03*
X116500000Y-105545000D03*
%TD*%
D11*
%TO.C,U4*%
X118187500Y-100925000D03*
X118187500Y-101575000D03*
X118187500Y-102225000D03*
X118187500Y-102875000D03*
X122412500Y-102875000D03*
X122412500Y-102225000D03*
X122412500Y-101575000D03*
X122412500Y-100925000D03*
%TD*%
D12*
%TO.C,R16*%
X115497500Y-106745000D03*
X114302500Y-106745000D03*
%TD*%
D13*
%TO.C,R48*%
X127002500Y-106800000D03*
X128197500Y-106800000D03*
%TD*%
D10*
%TO.C,R3*%
X130900000Y-97097500D03*
X130900000Y-95902500D03*
%TD*%
D12*
%TO.C,R1*%
X130797500Y-99400000D03*
X129602500Y-99400000D03*
%TD*%
%TO.C,R12*%
X115497500Y-102255000D03*
X114302500Y-102255000D03*
%TD*%
D10*
%TO.C,R27*%
X135600000Y-109297500D03*
X135600000Y-108102500D03*
%TD*%
D13*
%TO.C,R46*%
X127005000Y-102700000D03*
X128200000Y-102700000D03*
%TD*%
D14*
%TO.C,J2*%
X165720000Y-95300000D03*
X165720000Y-94500000D03*
D15*
X165720000Y-93350000D03*
X165720000Y-92350000D03*
X165720000Y-91850000D03*
X165720000Y-90850000D03*
D14*
X165720000Y-89700000D03*
X165720000Y-88900000D03*
X165720000Y-88900000D03*
X165720000Y-89700000D03*
D15*
X165720000Y-90350000D03*
X165720000Y-91350000D03*
X165720000Y-92850000D03*
X165720000Y-93850000D03*
D14*
X165720000Y-94500000D03*
X165720000Y-95300000D03*
D16*
X166295000Y-97210000D03*
X170225000Y-97210000D03*
X166295000Y-86990000D03*
X170225000Y-86990000D03*
%TD*%
D13*
%TO.C,R9*%
X115402500Y-98700000D03*
X116597500Y-98700000D03*
%TD*%
D10*
%TO.C,R11*%
X116600000Y-102152500D03*
X116600000Y-100957500D03*
%TD*%
D17*
%TO.C,U2*%
X127400000Y-92200000D03*
X127400000Y-91700000D03*
X127400000Y-91200000D03*
X127400000Y-90700000D03*
X127400000Y-90200000D03*
X123200000Y-90200000D03*
X123200000Y-90700000D03*
X123200000Y-91200000D03*
X123200000Y-91700000D03*
X123200000Y-92200000D03*
%TD*%
D18*
%TO.C,C23*%
X133100000Y-108935000D03*
X133100000Y-107800000D03*
%TD*%
D10*
%TO.C,R40*%
X164100000Y-94997500D03*
X164100000Y-93802500D03*
%TD*%
D19*
%TO.C,D1*%
X167100000Y-104700000D03*
X171100000Y-104700000D03*
%TD*%
D18*
%TO.C,C25*%
X136600000Y-108767500D03*
X136600000Y-107632500D03*
%TD*%
D10*
%TO.C,R54*%
X146749999Y-109697501D03*
X146749999Y-108502501D03*
%TD*%
D20*
%TO.C,C17*%
X123395000Y-87400000D03*
X121670000Y-87400000D03*
%TD*%
D10*
%TO.C,R49*%
X129200000Y-107397500D03*
X129200000Y-106202500D03*
%TD*%
D21*
%TO.C,C35*%
X132900000Y-96532500D03*
X132900000Y-97667500D03*
%TD*%
D22*
%TO.C,U9*%
X117595000Y-87450000D03*
X117595000Y-88400000D03*
X117595000Y-89350000D03*
X119870000Y-89350000D03*
X119870000Y-87450000D03*
%TD*%
D13*
%TO.C,R47*%
X126702500Y-104800000D03*
X127897500Y-104800000D03*
%TD*%
%TO.C,R57*%
X140952499Y-105000001D03*
X142147499Y-105000001D03*
%TD*%
%TO.C,R18*%
X128602500Y-98400000D03*
X129797500Y-98400000D03*
%TD*%
D18*
%TO.C,C31*%
X126900000Y-94667500D03*
X126900000Y-93532500D03*
%TD*%
D13*
%TO.C,R38*%
X136902500Y-105800000D03*
X138097500Y-105800000D03*
%TD*%
D11*
%TO.C,U3*%
X118187500Y-96470000D03*
X118187500Y-97120000D03*
X118187500Y-97770000D03*
X118187500Y-98420000D03*
X122412500Y-98420000D03*
X122412500Y-97770000D03*
X122412500Y-97120000D03*
X122412500Y-96470000D03*
%TD*%
D13*
%TO.C,R51*%
X126602500Y-100400000D03*
X127797500Y-100400000D03*
%TD*%
D12*
%TO.C,R26*%
X142147499Y-98950001D03*
X140952499Y-98950001D03*
%TD*%
D21*
%TO.C,C29*%
X133300000Y-90132500D03*
X133300000Y-91267500D03*
%TD*%
D13*
%TO.C,R4*%
X111002500Y-99000000D03*
X112197500Y-99000000D03*
%TD*%
D23*
%TO.C,R15*%
X131900000Y-96502500D03*
X131900000Y-97697500D03*
%TD*%
D24*
%TO.C,C37*%
X142117499Y-94400001D03*
X140982499Y-94400001D03*
%TD*%
D13*
%TO.C,R17*%
X115302500Y-107745000D03*
X116497500Y-107745000D03*
%TD*%
%TO.C,R25*%
X138652499Y-97950001D03*
X139847499Y-97950001D03*
%TD*%
%TO.C,R31*%
X140902499Y-96850001D03*
X142097499Y-96850001D03*
%TD*%
%TO.C,R55*%
X140952499Y-101300001D03*
X142147499Y-101300001D03*
%TD*%
%TO.C,R28*%
X138302500Y-102700000D03*
X139497500Y-102700000D03*
%TD*%
D25*
%TO.C,U12*%
X161250000Y-99237500D03*
X162200000Y-99237500D03*
X163150000Y-99237500D03*
X163150000Y-96962500D03*
X162200000Y-96962500D03*
X161250000Y-96962500D03*
%TD*%
D26*
%TO.C,F1*%
X164100000Y-102900000D03*
X164100000Y-105700000D03*
%TD*%
D12*
%TO.C,R45*%
X160397499Y-92250001D03*
X159202499Y-92250001D03*
%TD*%
D27*
%TO.C,Y1*%
X134650000Y-91850000D03*
X136550000Y-91850000D03*
X136550000Y-90350000D03*
X134650000Y-90350000D03*
%TD*%
D11*
%TO.C,U5*%
X118087500Y-105525000D03*
X118087500Y-106175000D03*
X118087500Y-106825000D03*
X118087500Y-107475000D03*
X122312500Y-107475000D03*
X122312500Y-106825000D03*
X122312500Y-106175000D03*
X122312500Y-105525000D03*
%TD*%
D12*
%TO.C,R30*%
X121597500Y-90700000D03*
X120402500Y-90700000D03*
%TD*%
D13*
%TO.C,R44*%
X159202499Y-94250001D03*
X160397499Y-94250001D03*
%TD*%
D18*
%TO.C,C24*%
X131300000Y-108967500D03*
X131300000Y-107832500D03*
%TD*%
D28*
%TO.C,SW4*%
X146150000Y-89700000D03*
X148450000Y-89700000D03*
%TD*%
D12*
%TO.C,R6*%
X112197500Y-100000000D03*
X111002500Y-100000000D03*
%TD*%
D18*
%TO.C,C28*%
X127900000Y-94667500D03*
X127900000Y-93532500D03*
%TD*%
D29*
%TO.C,C16*%
X114932500Y-87400000D03*
X116067500Y-87400000D03*
%TD*%
D24*
%TO.C,C39*%
X128170000Y-101700000D03*
X127035000Y-101700000D03*
%TD*%
D29*
%TO.C,C13*%
X122532500Y-104500000D03*
X123667500Y-104500000D03*
%TD*%
D18*
%TO.C,C30*%
X128900000Y-93167500D03*
X128900000Y-92032500D03*
%TD*%
D23*
%TO.C,R43*%
X159100000Y-97502500D03*
X159100000Y-98697500D03*
%TD*%
D24*
%TO.C,C38*%
X160367499Y-93250001D03*
X159232499Y-93250001D03*
%TD*%
D12*
%TO.C,R42*%
X139897499Y-99600001D03*
X138702499Y-99600001D03*
%TD*%
D21*
%TO.C,C20*%
X134600000Y-107932500D03*
X134600000Y-109067500D03*
%TD*%
D10*
%TO.C,R8*%
X116600000Y-97695000D03*
X116600000Y-96500000D03*
%TD*%
D12*
%TO.C,R35*%
X154597500Y-108700000D03*
X153402500Y-108700000D03*
%TD*%
D30*
%TO.C,U1*%
X130337500Y-101350000D03*
X130337500Y-101850000D03*
X130337500Y-102350000D03*
X130337500Y-102850000D03*
X130337500Y-103350000D03*
X130337500Y-103850000D03*
X130337500Y-104350000D03*
X130337500Y-104850000D03*
D31*
X131750000Y-106262500D03*
X132250000Y-106262500D03*
X132750000Y-106262500D03*
X133250000Y-106262500D03*
X133750000Y-106262500D03*
X134250000Y-106262500D03*
X134750000Y-106262500D03*
X135250000Y-106262500D03*
D30*
X136662500Y-104850000D03*
X136662500Y-104350000D03*
X136662500Y-103850000D03*
X136662500Y-103350000D03*
X136662500Y-102850000D03*
X136662500Y-102350000D03*
X136662500Y-101850000D03*
X136662500Y-101350000D03*
D31*
X135250000Y-99937500D03*
X134750000Y-99937500D03*
X134250000Y-99937500D03*
X133750000Y-99937500D03*
X133250000Y-99937500D03*
X132750000Y-99937500D03*
X132250000Y-99937500D03*
X131750000Y-99937500D03*
%TD*%
D21*
%TO.C,C22*%
X133900000Y-97232500D03*
X133900000Y-98367500D03*
%TD*%
%TO.C,C42*%
X130200000Y-105932500D03*
X130200000Y-107067500D03*
%TD*%
D29*
%TO.C,C26*%
X120532500Y-92100000D03*
X121667500Y-92100000D03*
%TD*%
D12*
%TO.C,R34*%
X154597500Y-109700000D03*
X153402500Y-109700000D03*
%TD*%
D13*
%TO.C,R41*%
X162902500Y-90900000D03*
X164097500Y-90900000D03*
%TD*%
D28*
%TO.C,SW3*%
X151850000Y-89600000D03*
X154150000Y-89600000D03*
%TD*%
D20*
%TO.C,C36*%
X141912499Y-95600001D03*
X140187499Y-95600001D03*
%TD*%
D13*
%TO.C,R10*%
X111002500Y-101000000D03*
X112197500Y-101000000D03*
%TD*%
D12*
%TO.C,R2*%
X129797500Y-97400000D03*
X128602500Y-97400000D03*
%TD*%
D13*
%TO.C,R29*%
X138202500Y-100800000D03*
X139397500Y-100800000D03*
%TD*%
D32*
%TO.C,U15*%
X143650000Y-94050000D03*
X143650000Y-94900001D03*
X143650000Y-95750002D03*
X143650000Y-96600000D03*
X143650000Y-97450001D03*
X143650000Y-98300002D03*
X143650000Y-99150000D03*
X143650000Y-100000001D03*
X143650000Y-100850002D03*
X143650000Y-101700000D03*
X143650000Y-102550001D03*
X143650000Y-103400002D03*
X143650000Y-104250000D03*
X143650000Y-105100001D03*
X143650000Y-105950002D03*
D33*
X144699998Y-107000000D03*
X145549999Y-107000000D03*
X146400000Y-107000000D03*
X147249998Y-107000000D03*
X148099999Y-107000000D03*
X148950000Y-107000000D03*
X149799998Y-107000000D03*
X150649999Y-107000000D03*
X151500000Y-107000000D03*
X152349998Y-107000000D03*
X153199999Y-107000000D03*
X154050000Y-107000000D03*
X154899998Y-107000000D03*
X155749999Y-107000000D03*
X156600000Y-107000000D03*
D32*
X157649998Y-105950002D03*
X157649998Y-105100001D03*
X157649998Y-104250000D03*
X157649998Y-103400002D03*
X157649998Y-102550001D03*
X157649998Y-101700000D03*
X157649998Y-100850002D03*
X157649998Y-100000001D03*
X157649998Y-99150000D03*
X157649998Y-98300002D03*
X157649998Y-97450001D03*
X157649998Y-96600000D03*
X157649998Y-95750002D03*
X157649998Y-94900001D03*
X157649998Y-94050000D03*
D33*
X156600000Y-93000002D03*
X155749999Y-93000002D03*
X154899998Y-93000002D03*
X154050000Y-93000002D03*
X153199999Y-93000002D03*
X152349998Y-93000002D03*
X151500000Y-93000002D03*
X150649999Y-93000002D03*
X149799998Y-93000002D03*
X148950000Y-93000002D03*
X148099999Y-93000002D03*
X147249998Y-93000002D03*
X146400000Y-93000002D03*
X145549999Y-93000002D03*
X144699998Y-93000002D03*
D34*
X150649999Y-100000001D03*
D35*
X143650000Y-93000002D03*
X143650000Y-107000000D03*
X157649998Y-107000000D03*
X157649998Y-93000002D03*
D34*
X148999999Y-98350001D03*
X148999999Y-100000001D03*
X148999999Y-101650001D03*
X150649999Y-101650001D03*
X152299999Y-101650001D03*
X152299999Y-100000001D03*
X152299999Y-98350001D03*
X150649999Y-98350001D03*
%TD*%
D10*
%TO.C,R22*%
X137900000Y-91297500D03*
X137900000Y-90102500D03*
%TD*%
D13*
%TO.C,R56*%
X140952499Y-102300001D03*
X142147499Y-102300001D03*
%TD*%
D12*
%TO.C,R7*%
X115497500Y-97600000D03*
X114302500Y-97600000D03*
%TD*%
D36*
%TO.C,U14*%
X115145000Y-92250000D03*
X115145000Y-93200000D03*
X115145000Y-94150000D03*
X117655000Y-94150000D03*
X117655000Y-93200000D03*
X117655000Y-92250000D03*
%TD*%
D29*
%TO.C,C1*%
X122632500Y-95400000D03*
X123767500Y-95400000D03*
%TD*%
D24*
%TO.C,C41*%
X128167500Y-105800000D03*
X127032500Y-105800000D03*
%TD*%
D12*
%TO.C,R58*%
X142147499Y-100300001D03*
X140952499Y-100300001D03*
%TD*%
D13*
%TO.C,R13*%
X115402500Y-103255000D03*
X116597500Y-103255000D03*
%TD*%
%TO.C,R19*%
X128900000Y-100400000D03*
X130095000Y-100400000D03*
%TD*%
D24*
%TO.C,C33*%
X142117499Y-97950001D03*
X140982499Y-97950001D03*
%TD*%
%TO.C,C40*%
X128167500Y-103800000D03*
X127032500Y-103800000D03*
%TD*%
D29*
%TO.C,C6*%
X122632500Y-99800000D03*
X123767500Y-99800000D03*
%TD*%
M02*
